  0
SECTION
  2
HEADER
  9
$ACADVER
  1
AC1027
  9
$ACADMAINTVER
 70
   125
  9
$DWGCODEPAGE
  3
ANSI_1252
  9
$REQUIREDVERSIONS
160
                 0
  9
$INSBASE
 10
0.0
 20
0.0
 30
0.0
  9
$EXTMIN
 10
1.000000000000000E+20
 20
1.000000000000000E+20
 30
1.000000000000000E+20
  9
$EXTMAX
 10
-1.000000000000000E+20
 20
-1.000000000000000E+20
 30
-1.000000000000000E+20
  9
$LIMMIN
 10
0.0
 20
0.0
  9
$LIMMAX
 10
12.0
 20
9.0
  9
$ORTHOMODE
 70
     0
  9
$REGENMODE
 70
     1
  9
$FILLMODE
 70
     1
  9
$QTEXTMODE
 70
     0
  9
$MIRRTEXT
 70
     0
  9
$LTSCALE
 40
1.0
  9
$ATTMODE
 70
     1
  9
$TEXTSIZE
 40
0.2
  9
$TRACEWID
 40
0.05
  9
$TEXTSTYLE
  7
Standard
  9
$CLAYER
  8
0
  9
$CELTYPE
  6
ByLayer
  9
$CECOLOR
 62
   256
  9
$CELTSCALE
 40
1.0
  9
$DISPSILH
 70
     0
  9
$DIMSCALE
 40
1.0
  9
$DIMASZ
 40
0.18
  9
$DIMEXO
 40
0.0625
  9
$DIMDLI
 40
0.38
  9
$DIMRND
 40
0.0
  9
$DIMDLE
 40
0.0
  9
$DIMEXE
 40
0.18
  9
$DIMTP
 40
0.0
  9
$DIMTM
 40
0.0
  9
$DIMTXT
 40
0.18
  9
$DIMCEN
 40
0.09
  9
$DIMTSZ
 40
0.0
  9
$DIMTOL
 70
     0
  9
$DIMLIM
 70
     0
  9
$DIMTIH
 70
     1
  9
$DIMTOH
 70
     1
  9
$DIMSE1
 70
     0
  9
$DIMSE2
 70
     0
  9
$DIMTAD
 70
     0
  9
$DIMZIN
 70
     0
  9
$DIMBLK
  1

  9
$DIMASO
 70
     1
  9
$DIMSHO
 70
     1
  9
$DIMPOST
  1

  9
$DIMAPOST
  1

  9
$DIMALT
 70
     0
  9
$DIMALTD
 70
     2
  9
$DIMALTF
 40
25.4
  9
$DIMLFAC
 40
1.0
  9
$DIMTOFL
 70
     0
  9
$DIMTVP
 40
0.0
  9
$DIMTIX
 70
     0
  9
$DIMSOXD
 70
     0
  9
$DIMSAH
 70
     0
  9
$DIMBLK1
  1

  9
$DIMBLK2
  1

  9
$DIMSTYLE
  2
Standard
  9
$DIMCLRD
 70
     0
  9
$DIMCLRE
 70
     0
  9
$DIMCLRT
 70
     0
  9
$DIMTFAC
 40
1.0
  9
$DIMGAP
 40
0.09
  9
$DIMJUST
 70
     0
  9
$DIMSD1
 70
     0
  9
$DIMSD2
 70
     0
  9
$DIMTOLJ
 70
     1
  9
$DIMTZIN
 70
     0
  9
$DIMALTZ
 70
     0
  9
$DIMALTTZ
 70
     0
  9
$DIMUPT
 70
     0
  9
$DIMDEC
 70
     4
  9
$DIMTDEC
 70
     4
  9
$DIMALTU
 70
     2
  9
$DIMALTTD
 70
     2
  9
$DIMTXSTY
  7
Standard
  9
$DIMAUNIT
 70
     0
  9
$DIMADEC
 70
     0
  9
$DIMALTRND
 40
0.0
  9
$DIMAZIN
 70
     0
  9
$DIMDSEP
 70
    46
  9
$DIMATFIT
 70
     3
  9
$DIMFRAC
 70
     0
  9
$DIMLDRBLK
  1

  9
$DIMLUNIT
 70
     2
  9
$DIMLWD
 70
    -2
  9
$DIMLWE
 70
    -2
  9
$DIMTMOVE
 70
     0
  9
$DIMFXL
 40
1.0
  9
$DIMFXLON
 70
     0
  9
$DIMJOGANG
 40
0.7853981633974483
  9
$DIMTFILL
 70
     0
  9
$DIMTFILLCLR
 70
     0
  9
$DIMARCSYM
 70
     0
  9
$DIMLTYPE
  6

  9
$DIMLTEX1
  6

  9
$DIMLTEX2
  6

  9
$DIMTXTDIRECTION
 70
     0
  9
$LUNITS
 70
     2
  9
$LUPREC
 70
     4
  9
$SKETCHINC
 40
0.1
  9
$FILLETRAD
 40
0.0
  9
$AUNITS
 70
     0
  9
$AUPREC
 70
     0
  9
$MENU
  1
.
  9
$ELEVATION
 40
0.0
  9
$PELEVATION
 40
0.0
  9
$THICKNESS
 40
0.0
  9
$LIMCHECK
 70
     0
  9
$CHAMFERA
 40
0.0
  9
$CHAMFERB
 40
0.0
  9
$CHAMFERC
 40
0.0
  9
$CHAMFERD
 40
0.0
  9
$SKPOLY
 70
     0
  9
$TDCREATE
 40
2461217.740729167
  9
$TDUCREATE
 40
2461217.740729167
  9
$TDUPDATE
 40
2461217.740729167
  9
$TDUUPDATE
 40
2461217.740729167
  9
$TDINDWG
 40
0.0000000000
  9
$TDUSRTIMER
 40
0.0000000000
  9
$USRTIMER
 70
     1
  9
$ANGBASE
 50
0.0
  9
$ANGDIR
 70
     0
  9
$PDMODE
 70
     0
  9
$PDSIZE
 40
0.0
  9
$PLINEWID
 40
0.0
  9
$SPLFRAME
 70
     0
  9
$SPLINETYPE
 70
     6
  9
$SPLINESEGS
 70
     8
  9
$HANDSEED
  5
246
  9
$SURFTAB1
 70
     6
  9
$SURFTAB2
 70
     6
  9
$SURFTYPE
 70
     6
  9
$SURFU
 70
     6
  9
$SURFV
 70
     6
  9
$UCSBASE
  2

  9
$UCSNAME
  2

  9
$UCSORG
 10
0.0
 20
0.0
 30
0.0
  9
$UCSXDIR
 10
1.0
 20
0.0
 30
0.0
  9
$UCSYDIR
 10
0.0
 20
1.0
 30
0.0
  9
$UCSORTHOREF
  2

  9
$UCSORTHOVIEW
 70
     0
  9
$UCSORGTOP
 10
0.0
 20
0.0
 30
0.0
  9
$UCSORGBOTTOM
 10
0.0
 20
0.0
 30
0.0
  9
$UCSORGLEFT
 10
0.0
 20
0.0
 30
0.0
  9
$UCSORGRIGHT
 10
0.0
 20
0.0
 30
0.0
  9
$UCSORGFRONT
 10
0.0
 20
0.0
 30
0.0
  9
$UCSORGBACK
 10
0.0
 20
0.0
 30
0.0
  9
$PUCSBASE
  2

  9
$PUCSNAME
  2

  9
$PUCSORG
 10
0.0
 20
0.0
 30
0.0
  9
$PUCSXDIR
 10
1.0
 20
0.0
 30
0.0
  9
$PUCSYDIR
 10
0.0
 20
1.0
 30
0.0
  9
$PUCSORTHOREF
  2

  9
$PUCSORTHOVIEW
 70
     0
  9
$PUCSORGTOP
 10
0.0
 20
0.0
 30
0.0
  9
$PUCSORGBOTTOM
 10
0.0
 20
0.0
 30
0.0
  9
$PUCSORGLEFT
 10
0.0
 20
0.0
 30
0.0
  9
$PUCSORGRIGHT
 10
0.0
 20
0.0
 30
0.0
  9
$PUCSORGFRONT
 10
0.0
 20
0.0
 30
0.0
  9
$PUCSORGBACK
 10
0.0
 20
0.0
 30
0.0
  9
$USERI1
 70
     0
  9
$USERI2
 70
     0
  9
$USERI3
 70
     0
  9
$USERI4
 70
     0
  9
$USERI5
 70
     0
  9
$USERR1
 40
0.0
  9
$USERR2
 40
0.0
  9
$USERR3
 40
0.0
  9
$USERR4
 40
0.0
  9
$USERR5
 40
0.0
  9
$WORLDVIEW
 70
     1
  9
$SHADEDGE
 70
     3
  9
$SHADEDIF
 70
    70
  9
$TILEMODE
 70
     1
  9
$MAXACTVP
 70
    64
  9
$PINSBASE
 10
0.0
 20
0.0
 30
0.0
  9
$PLIMCHECK
 70
     0
  9
$PEXTMIN
 10
1.000000000000000E+20
 20
1.000000000000000E+20
 30
1.000000000000000E+20
  9
$PEXTMAX
 10
-1.000000000000000E+20
 20
-1.000000000000000E+20
 30
-1.000000000000000E+20
  9
$PLIMMIN
 10
0.0
 20
0.0
  9
$PLIMMAX
 10
12.0
 20
9.0
  9
$UNITMODE
 70
     0
  9
$VISRETAIN
 70
     1
  9
$PLINEGEN
 70
     0
  9
$PSLTSCALE
 70
     1
  9
$TREEDEPTH
 70
  3020
  9
$CMLSTYLE
  2
Standard
  9
$CMLJUST
 70
     0
  9
$CMLSCALE
 40
1.0
  9
$PROXYGRAPHICS
 70
     1
  9
$MEASUREMENT
 70
     0
  9
$CELWEIGHT
370
    -1
  9
$ENDCAPS
280
     0
  9
$JOINSTYLE
280
     0
  9
$LWDISPLAY
290
     0
  9
$INSUNITS
 70
     5
  9
$HYPERLINKBASE
  1

  9
$STYLESHEET
  1

  9
$XEDIT
290
     1
  9
$CEPSNTYPE
380
     0
  9
$PSTYLEMODE
290
     1
  9
$FINGERPRINTGUID
  2
{F2D60BB2-E511-434C-A1F7-F7F450F9441E}
  9
$VERSIONGUID
  2
{5712BE09-1A48-AD48-85D9-293C1F6D5357}
  9
$EXTNAMES
290
     1
  9
$PSVPSCALE
 40
0.0
  9
$OLESTARTUP
290
     0
  9
$SORTENTS
280
   127
  9
$INDEXCTL
280
     0
  9
$HIDETEXT
280
     1
  9
$XCLIPFRAME
280
     2
  9
$HALOGAP
280
     0
  9
$OBSCOLOR
 70
   257
  9
$OBSLTYPE
280
     0
  9
$INTERSECTIONDISPLAY
280
     0
  9
$INTERSECTIONCOLOR
 70
   257
  9
$DIMASSOC
280
     2
  9
$PROJECTNAME
  1

  9
$CAMERADISPLAY
290
     0
  9
$LENSLENGTH
 40
50.0
  9
$CAMERAHEIGHT
 40
0.0
  9
$STEPSPERSEC
 40
2.0
  9
$STEPSIZE
 40
6.0
  9
$3DDWFPREC
 40
2.0
  9
$PSOLWIDTH
 40
0.25
  9
$PSOLHEIGHT
 40
4.0
  9
$LOFTANG1
 40
1.570796326794896
  9
$LOFTANG2
 40
1.570796326794896
  9
$LOFTMAG1
 40
0.0
  9
$LOFTMAG2
 40
0.0
  9
$LOFTPARAM
 70
     7
  9
$LOFTNORMALS
280
     1
  9
$LATITUDE
 40
37.795
  9
$LONGITUDE
 40
-122.394
  9
$NORTHDIRECTION
 40
0.0
  9
$TIMEZONE
 70
 -8000
  9
$LIGHTGLYPHDISPLAY
280
     1
  9
$TILEMODELIGHTSYNCH
280
     1
  9
$CMATERIAL
347
11
  9
$SOLIDHIST
280
     0
  9
$SHOWHIST
280
     1
  9
$DWFFRAME
280
     2
  9
$DGNFRAME
280
     0
  9
$REALWORLDSCALE
290
     1
  9
$INTERFERECOLOR
 62
     1
  9
$INTERFEREOBJVS
345
33
  9
$INTERFEREVPVS
346
30
  9
$CSHADOW
280
     0
  9
$SHADOWPLANELOCATION
 40
0.0
  0
ENDSEC
  0
SECTION
  2
CLASSES
  0
CLASS
  1
ACDBDICTIONARYWDFLT
  2
AcDbDictionaryWithDefault
  3
ObjectDBX Classes
 90
        0
 91
        1
280
     0
281
     0
  0
CLASS
  1
MATERIAL
  2
AcDbMaterial
  3
ObjectDBX Classes
 90
     1153
 91
        3
280
     0
281
     0
  0
CLASS
  1
VISUALSTYLE
  2
AcDbVisualStyle
  3
ObjectDBX Classes
 90
     4095
 91
       24
280
     0
281
     0
  0
CLASS
  1
SCALE
  2
AcDbScale
  3
ObjectDBX Classes
 90
     1153
 91
       17
280
     0
281
     0
  0
CLASS
  1
TABLESTYLE
  2
AcDbTableStyle
  3
ObjectDBX Classes
 90
     4095
 91
        1
280
     0
281
     0
  0
CLASS
  1
MLEADERSTYLE
  2
AcDbMLeaderStyle
  3
ACDB_MLEADERSTYLE_CLASS
 90
     4095
 91
        1
280
     0
281
     0
  0
CLASS
  1
ACDBSECTIONVIEWSTYLE
  2
AcDbSectionViewStyle
  3
ObjectDBX Classes
 90
     1025
 91
        1
280
     0
281
     0
  0
CLASS
  1
ACDBDETAILVIEWSTYLE
  2
AcDbDetailViewStyle
  3
ObjectDBX Classes
 90
     1025
 91
        1
280
     0
281
     0
  0
CLASS
  1
DICTIONARYVAR
  2
AcDbDictionaryVar
  3
ObjectDBX Classes
 90
        0
 91
        5
280
     0
281
     0
  0
CLASS
  1
CELLSTYLEMAP
  2
AcDbCellStyleMap
  3
ObjectDBX Classes
 90
     1152
 91
        1
280
     0
281
     0
  0
ENDSEC
  0
SECTION
  2
TABLES
  0
TABLE
  2
VPORT
  5
8
330
0
100
AcDbSymbolTable
 70
     1
1001
ACAD
1000
DbSaveVer
1071
      471
  0
VPORT
  5
57
330
8
100
AcDbSymbolTableRecord
100
AcDbViewportTableRecord
  2
*Active
 70
     0
 10
0.0
 20
0.0
 11
1.0
 21
1.0
 12
500.0
 22
500.0
 13
0.0
 23
0.0
 14
1.0
 24
1.0
 15
0.0
 25
0.0
 16
0.0
 26
0.0
 36
1.0
 17
0.0
 27
0.0
 37
0.0
 40
12.0
 41
1.0
 42
50.0
 43
0.0
 44
0.0
 50
0.0
 51
0.0
 71
     0
 72
   100
 73
     1
 74
     1
 75
     0
 76
     0
 77
     0
 78
     0
281
     0
 65
     1
110
0.0
120
0.0
130
0.0
111
1.0
121
0.0
131
0.0
112
0.0
122
1.0
132
0.0
 79
     0
146
0.0
 60
     3
 61
     5
292
     1
282
     1
141
0.0
142
0.0
 63
   250
421
  3355443
  0
ENDTAB
  0
TABLE
  2
LTYPE
  5
5
330
0
100
AcDbSymbolTable
 70
     1
  0
LTYPE
  5
5B
330
5
100
AcDbSymbolTableRecord
100
AcDbLinetypeTableRecord
  2
ByBlock
 70
     0
  3

 72
    65
 73
     0
 40
0.0
  0
LTYPE
  5
5C
330
5
100
AcDbSymbolTableRecord
100
AcDbLinetypeTableRecord
  2
ByLayer
 70
     0
  3

 72
    65
 73
     0
 40
0.0
  0
LTYPE
  5
5D
330
5
100
AcDbSymbolTableRecord
100
AcDbLinetypeTableRecord
  2
Continuous
 70
     0
  3
Solid line
 72
    65
 73
     0
 40
0.0
  0
ENDTAB
  0
TABLE
  2
LAYER
  5
2
330
0
100
AcDbSymbolTable
 70
     2
  0
LAYER
  5
54
330
2
100
AcDbSymbolTableRecord
100
AcDbLayerTableRecord
  2
0
 70
     0
 62
     7
  6
Continuous
370
    -3
390
F
347
21
348
0
  0
LAYER
  5
7A
330
2
100
AcDbSymbolTableRecord
100
AcDbLayerTableRecord
  2
1 F v4_Sketch1
 70
     0
 62
     7
  6
Continuous
370
    -3
390
F
347
21
348
0
1001
NFusion_SketchTransform
1000
1.000000;0.000000;0.000000;0.000000;0.000000;1.000000;0.000000;0.000000;0.000000;0.000000;1.000000;0.000000;0.000000;0.000000;0.000000;1.000000
  0
ENDTAB
  0
TABLE
  2
STYLE
  5
3
330
0
100
AcDbSymbolTable
 70
     2
  0
STYLE
  5
55
330
3
100
AcDbSymbolTableRecord
100
AcDbTextStyleTableRecord
  2
Standard
 70
     0
 40
0.0
 41
1.0
 50
0.0
 71
     0
 42
0.2
  3
txt
  4

  0
STYLE
  5
5A
330
3
100
AcDbSymbolTableRecord
100
AcDbTextStyleTableRecord
  2
Annotative
 70
     0
 40
0.0
 41
1.0
 50
0.0
 71
     0
 42
0.2
  3
txt
  4

1001
AcadAnnotative
1000
AnnotativeData
1002
{
1070
     1
1070
     1
1002
}
  0
ENDTAB
  0
TABLE
  2
VIEW
  5
6
330
0
100
AcDbSymbolTable
 70
     0
  0
ENDTAB
  0
TABLE
  2
UCS
  5
7
330
0
100
AcDbSymbolTable
 70
     0
  0
ENDTAB
  0
TABLE
  2
APPID
  5
9
330
0
100
AcDbSymbolTable
 70
     4
  0
APPID
  5
56
330
9
100
AcDbSymbolTableRecord
100
AcDbRegAppTableRecord
  2
ACAD
 70
     0
  0
APPID
  5
5E
330
9
100
AcDbSymbolTableRecord
100
AcDbRegAppTableRecord
  2
AcadAnnotative
 70
     0
  0
APPID
  5
78
330
9
100
AcDbSymbolTableRecord
100
AcDbRegAppTableRecord
  2
EDIT_IN_FUSION_ACAD_ADDIN
 70
     0
  0
APPID
  5
79
330
9
100
AcDbSymbolTableRecord
100
AcDbRegAppTableRecord
  2
NFusion_SketchTransform
 70
     0
  0
ENDTAB
  0
TABLE
  2
DIMSTYLE
  5
A
330
0
100
AcDbSymbolTable
 70
     2
100
AcDbDimStyleTable
 71
     0
  0
DIMSTYLE
105
58
330
A
100
AcDbSymbolTableRecord
100
AcDbDimStyleTableRecord
  2
Standard
 70
     0
340
55
  0
DIMSTYLE
105
59
330
A
100
AcDbSymbolTableRecord
100
AcDbDimStyleTableRecord
  2
Annotative
 70
     0
340
55
1001
AcadAnnotative
1000
AnnotativeData
1002
{
1070
     1
1070
     1
1002
}
  0
ENDTAB
  0
TABLE
  2
BLOCK_RECORD
  5
1
330
0
100
AcDbSymbolTable
 70
     1
  0
BLOCK_RECORD
  5
70
330
1
100
AcDbSymbolTableRecord
100
AcDbBlockTableRecord
  2
*Model_Space
340
73
 70
     0
280
     1
281
     0
  0
BLOCK_RECORD
  5
6C
330
1
100
AcDbSymbolTableRecord
100
AcDbBlockTableRecord
  2
*Paper_Space
340
6F
 70
     0
280
     1
281
     0
  0
BLOCK_RECORD
  5
74
330
1
100
AcDbSymbolTableRecord
100
AcDbBlockTableRecord
  2
*Paper_Space0
340
77
 70
     0
280
     1
281
     0
  0
ENDTAB
  0
ENDSEC
  0
SECTION
  2
BLOCKS
  0
BLOCK
  5
71
330
70
100
AcDbEntity
  8
0
100
AcDbBlockBegin
  2
*Model_Space
 70
     0
 10
0.0
 20
0.0
 30
0.0
  3
*Model_Space
  1

  0
ENDBLK
  5
72
330
70
100
AcDbEntity
  8
0
100
AcDbBlockEnd
  0
BLOCK
  5
6D
330
6C
100
AcDbEntity
 67
     1
  8
0
100
AcDbBlockBegin
  2
*Paper_Space
 70
     0
 10
0.0
 20
0.0
 30
0.0
  3
*Paper_Space
  1

  0
ENDBLK
  5
6E
330
6C
100
AcDbEntity
 67
     1
  8
0
100
AcDbBlockEnd
  0
BLOCK
  5
75
330
74
100
AcDbEntity
 67
     1
  8
0
100
AcDbBlockBegin
  2
*Paper_Space0
 70
     0
 10
0.0
 20
0.0
 30
0.0
  3
*Paper_Space0
  1

  0
ENDBLK
  5
76
330
74
100
AcDbEntity
 67
     1
  8
0
100
AcDbBlockEnd
  0
ENDSEC
  0
SECTION
  2
ENTITIES
  0
POINT
  5
7B
330
70
100
AcDbEntity
  8
1 F v4_Sketch1
100
AcDbPoint
 10
0.0
 20
0.0
 30
0.0
  0
LINE
  5
7C
330
70
100
AcDbEntity
  8
1 F v4_Sketch1
100
AcDbLine
 10
2.18915792600969
 20
9.880492213215969
 30
0.0
 11
2.18915792600969
 21
10.03049221321597
 31
0.0
  0
LINE
  5
7D
330
70
100
AcDbEntity
  8
1 F v4_Sketch1
100
AcDbLine
 10
2.989157613096654
 20
2.680492169565221
 30
0.0
 11
2.989157606517121
 21
2.080492167993883
 31
0.0
  0
LINE
  5
7E
330
70
100
AcDbEntity
  8
1 F v4_Sketch1
100
AcDbLine
 10
2.189158691844506
 20
6.880500199784355
 30
0.0
 11
2.189158691844506
 21
7.380493782897252
 31
0.0
  0
ARC
  5
7F
330
70
100
AcDbEntity
  8
1 F v4_Sketch1
100
AcDbCircle
 10
5.418365896094512
 20
7.492763964638394
 30
0.0
 40
0.1000000000000037
100
AcDbArc
 50
144.0257021837292
 51
249.3738629457249
  0
LINE
  5
80
330
70
100
AcDbEntity
  8
1 F v4_Sketch1
100
AcDbLine
 10
12.98872850549281
 20
5.381045997380899
 30
0.0
 11
13.88934626889526
 21
5.381045997380897
 31
0.0
  0
LINE
  5
81
330
70
100
AcDbEntity
  8
1 F v4_Sketch1
100
AcDbLine
 10
5.939158686854012
 20
10.38047524969887
 30
0.0
 11
5.939172042763848
 21
10.38045744057178
 31
0.0
  0
ARC
  5
82
330
70
100
AcDbEntity
  8
1 F v4_Sketch1
100
AcDbCircle
 10
5.488732540099002
 20
5.080899285914489
 30
0.0
 40
0.3000000000000043
100
AcDbArc
 50
90.00000000000067
 51
110.6261370542835
  0
LINE
  5
83
330
70
100
AcDbEntity
  8
1 F v4_Sketch1
100
AcDbLine
 10
5.570003977025976
 20
3.872019849755048
 30
0.0
 11
5.337350757230831
 21
3.551497899649036
 31
0.0
  0
LINE
  5
84
330
70
100
AcDbEntity
  8
1 F v4_Sketch1
100
AcDbLine
 10
2.498341094550331
 20
3.380492141693648
 30
0.0
 11
2.189158691844509
 21
3.380492210371345
 31
0.0
  0
LINE
  5
85
330
70
100
AcDbEntity
  8
1 F v4_Sketch1
100
AcDbLine
 10
2.189157598184143
 20
10.7304922854866
 30
0.0
 11
2.789157598184145
 21
10.88049222811713
 31
0.0
  0
LINE
  5
86
330
70
100
AcDbEntity
  8
1 F v4_Sketch1
100
AcDbLine
 10
2.98915759818414
 20
10.68049222811713
 30
0.0
 11
2.989157598184144
 21
10.08049221321597
 31
0.0
  0
LINE
  5
87
330
70
100
AcDbEntity
  8
1 F v4_Sketch1
100
AcDbLine
 10
12.6945941796149
 20
8.384902393472547
 30
0.0
 11
13.10771741675545
 21
7.832239158936197
 31
0.0
  0
LINE
  5
88
330
70
100
AcDbEntity
  8
1 F v4_Sketch1
100
AcDbLine
 10
5.1887325401193
 20
4.380417372500223
 30
0.0
 11
5.570003977026042
 21
3.872019849755497
 31
0.0
  0
LINE
  5
89
330
70
100
AcDbEntity
  8
1 F v4_Sketch1
100
AcDbLine
 10
5.939115146132026
 20
9.380907578710168
 30
0.0
 11
5.939115146132026
 21
9.380889769582445
 31
0.0
  0
ARC
  5
8A
330
70
100
AcDbEntity
  8
1 F v4_Sketch1
100
AcDbCircle
 10
5.488863161062779
 20
10.68045744057172
 30
0.0
 40
0.3000000000000034
100
AcDbArc
 50
249.3738629457248
 51
270.0000000000081
  0
LINE
  5
8B
330
70
100
AcDbEntity
  8
1 F v4_Sketch1
100
AcDbLine
 10
12.6887285054928
 20
4.380564083951402
 30
0.0
 11
13.06999994241276
 21
4.888961606690021
 31
0.0
  0
LINE
  5
8C
330
70
100
AcDbEntity
  8
1 F v4_Sketch1
100
AcDbLine
 10
2.189158691844506
 20
6.880500199784355
 30
0.0
 11
2.18915863957358
 21
6.730500200790234
 31
0.0
  0
LINE
  5
8D
330
70
100
AcDbEntity
  8
1 F v4_Sketch1
100
AcDbLine
 10
5.188819620341115
 20
8.380425665280675
 30
0.0
 11
5.570091057261072
 21
8.888823188019294
 31
0.0
  0
LINE
  5
8E
330
70
100
AcDbEntity
  8
1 F v4_Sketch1
100
AcDbLine
 10
5.188819620361233
 20
8.380425665295762
 30
0.0
 11
5.570091057267827
 21
7.872028142551171
 31
0.0
  0
LINE
  5
8F
330
70
100
AcDbEntity
  8
1 F v4_Sketch1
100
AcDbLine
 10
5.939115146132026
 20
9.380907578710168
 30
0.0
 11
5.939115146132026
 21
9.380889769582445
 31
0.0
  0
ARC
  5
90
330
70
100
AcDbEntity
  8
1 F v4_Sketch1
100
AcDbCircle
 10
2.789157699700542
 20
10.08049225969535
 30
0.0
 40
0.1999998931057277
100
AcDbArc
 50
270.0000330767413
 51
359.9999211612167
  0
LINE
  5
91
330
70
100
AcDbEntity
  8
1 F v4_Sketch1
100
AcDbLine
 10
2.18915792600969
 20
10.03049221321597
 30
0.0
 11
2.789157598184141
 21
9.880492213215969
 31
0.0
  0
ARC
  5
92
330
70
100
AcDbEntity
  8
1 F v4_Sketch1
100
AcDbCircle
 10
6.389437383743564
 20
9.080907578710164
 30
0.0
 40
0.3000000000000038
100
AcDbArc
 50
69.37445189481548
 51
89.99999999999864
  0
LINE
  5
93
330
70
100
AcDbEntity
  8
1 F v4_Sketch1
100
AcDbLine
 10
5.939115146132026
 20
9.380907578710168
 30
0.0
 11
5.939115146132026
 21
9.380889769582445
 31
0.0
  0
LINE
  5
94
330
70
100
AcDbEntity
  8
1 F v4_Sketch1
100
AcDbLine
 10
5.188732540119158
 20
4.380417372500119
 30
0.0
 11
5.570003977025992
 21
3.872019849755282
 31
0.0
  0
ARC
  5
95
330
70
100
AcDbEntity
  8
1 F v4_Sketch1
100
AcDbCircle
 10
2.789047747028359
 20
6.680474457959795
 30
0.0
 40
0.2000000001450723
100
AcDbArc
 50
0.0044607190000846
 51
89.99745556944523
  0
LINE
  5
96
330
70
100
AcDbEntity
  8
1 F v4_Sketch1
100
AcDbLine
 10
2.498958985843719
 20
9.380494186809382
 30
0.0
 11
2.498960952797487
 21
7.380493772933713
 31
0.0
  0
LINE
  5
97
330
70
100
AcDbEntity
  8
1 F v4_Sketch1
100
AcDbLine
 10
5.939115146132026
 20
9.380889769582445
 30
0.0
 11
5.939128502042338
 21
9.380907578710168
 31
0.0
  0
ARC
  5
98
330
70
100
AcDbEntity
  8
1 F v4_Sketch1
100
AcDbCircle
 10
5.488819620339313
 20
7.679943751848549
 30
0.0
 40
0.3000000000000042
100
AcDbArc
 50
249.3738629457253
 51
270.0000000000078
  0
ARC
  5
99
330
70
100
AcDbEntity
  8
1 F v4_Sketch1
100
AcDbCircle
 10
6.459889183944754
 20
9.268088090111362
 30
0.0
 40
0.1000000000000027
100
AcDbArc
 50
324.0246038578354
 51
69.37445189481614
  0
LINE
  5
9A
330
70
100
AcDbEntity
  8
1 F v4_Sketch1
100
AcDbLine
 10
2.18915792600969
 20
10.03049221321597
 30
0.0
 11
2.789157598184141
 21
9.880492213215969
 31
0.0
  0
ARC
  5
9B
330
70
100
AcDbEntity
  8
1 F v4_Sketch1
100
AcDbCircle
 10
5.488819620339265
 20
7.679943751848335
 30
0.0
 40
0.3000000000000061
100
AcDbArc
 50
249.3738629457253
 51
270.0000000000068
  0
LINE
  5
9C
330
70
100
AcDbEntity
  8
1 F v4_Sketch1
100
AcDbLine
 10
12.67877675079986
 20
8.37304476936416
 30
0.0
 11
13.00325184832836
 21
7.942791274381682
 31
0.0
  0
ARC
  5
9D
330
70
100
AcDbEntity
  8
1 F v4_Sketch1
100
AcDbCircle
 10
5.41840943681797
 20
10.49327765336156
 30
0.0
 40
0.099999999999995
100
AcDbArc
 50
144.0257021837344
 51
249.3738629457272
  0
ARC
  5
9E
330
70
100
AcDbEntity
  8
1 F v4_Sketch1
100
AcDbCircle
 10
5.418365896096288
 20
9.268087365920312
 30
0.0
 40
0.0999999999999988
100
AcDbArc
 50
110.6261370542812
 51
215.9742978162705
  0
ARC
  5
9F
330
70
100
AcDbEntity
  8
1 F v4_Sketch1
100
AcDbCircle
 10
2.789157598184145
 20
10.68049222811713
 30
0.0
 40
0.1999999999999957
100
AcDbArc
 50
359.9999999999995
 51
90.0
  0
LINE
  5
A0
330
70
100
AcDbEntity
  8
1 F v4_Sketch1
100
AcDbLine
 10
5.188819620341115
 20
8.380425665280675
 30
0.0
 11
5.570091057261072
 21
8.888823188019294
 31
0.0
  0
LINE
  5
A1
330
70
100
AcDbEntity
  8
1 F v4_Sketch1
100
AcDbLine
 10
5.939158686854012
 20
10.38047524969887
 30
0.0
 11
5.939158686854012
 21
10.38045744057178
 31
0.0
  0
ARC
  5
A2
330
70
100
AcDbEntity
  8
1 F v4_Sketch1
100
AcDbCircle
 10
5.488819620341123
 20
9.080907578710167
 30
0.0
 40
0.3000000000000043
100
AcDbArc
 50
90.00000000000067
 51
110.6261370542835
  0
ARC
  5
A3
330
70
100
AcDbEntity
  8
1 F v4_Sketch1
100
AcDbCircle
 10
2.789157466687404
 20
10.68049237283013
 30
0.0
 40
0.2000001272576711
100
AcDbArc
 50
359.9999114688155
 51
90.00003621790524
  0
LINE
  5
A4
330
70
100
AcDbEntity
  8
1 F v4_Sketch1
100
AcDbLine
 10
5.939115146132026
 20
9.380889769582445
 30
0.0
 11
5.939128502042338
 21
9.380907578710168
 31
0.0
  0
LINE
  5
A5
330
70
100
AcDbEntity
  8
1 F v4_Sketch1
100
AcDbLine
 10
5.570091057267791
 20
7.872028142550972
 30
0.0
 11
5.337437837472547
 21
7.551506192444827
 31
0.0
  0
LINE
  5
A6
330
70
100
AcDbEntity
  8
1 F v4_Sketch1
100
AcDbLine
 10
2.18915792600969
 20
10.03049221321597
 30
0.0
 11
2.789157598184141
 21
9.880492213215969
 31
0.0
  0
LINE
  5
A7
330
70
100
AcDbEntity
  8
1 F v4_Sketch1
100
AcDbLine
 10
5.188819620361105
 20
8.380425665295668
 30
0.0
 11
5.570091057267791
 21
7.872028142550972
 31
0.0
  0
LINE
  5
A8
330
70
100
AcDbEntity
  8
1 F v4_Sketch1
100
AcDbLine
 10
5.56995310892292
 20
1.889083701341942
 30
0.0
 11
5.188675659937688
 21
1.380678161955297
 31
0.0
  0
LINE
  5
A9
330
70
100
AcDbEntity
  8
1 F v4_Sketch1
100
AcDbLine
 10
2.98915759818414
 20
10.68049222811713
 30
0.0
 11
2.989157598184144
 21
10.08049221321597
 31
0.0
  0
ARC
  5
AA
330
70
100
AcDbEntity
  8
1 F v4_Sketch1
100
AcDbCircle
 10
5.488819620341123
 20
9.080907578710167
 30
0.0
 40
0.3000000000000043
100
AcDbArc
 50
90.00000000000067
 51
110.6261370542835
  0
ARC
  5
AB
330
70
100
AcDbEntity
  8
1 F v4_Sketch1
100
AcDbCircle
 10
2.789157598184145
 20
10.68049222811713
 30
0.0
 40
0.1999999999999957
100
AcDbArc
 50
359.9999999999995
 51
90.0
  0
LINE
  5
AC
330
70
100
AcDbEntity
  8
1 F v4_Sketch1
100
AcDbLine
 10
5.488732540098999
 20
5.380899285914493
 30
0.0
 11
6.389350303501451
 21
5.380899285914489
 31
0.0
  0
ARC
  5
AD
330
70
100
AcDbEntity
  8
1 F v4_Sketch1
100
AcDbCircle
 10
6.459889183943021
 20
7.492763240447491
 30
0.0
 40
0.0999999999999976
100
AcDbArc
 50
290.6255481051904
 51
35.97539614217359
  0
LINE
  5
AE
330
70
100
AcDbEntity
  8
1 F v4_Sketch1
100
AcDbLine
 10
6.308072854514842
 20
3.872011833096782
 30
0.0
 11
6.540729036254788
 21
3.551498726790312
 31
0.0
  0
LINE
  5
AF
330
70
100
AcDbEntity
  8
1 F v4_Sketch1
100
AcDbLine
 10
6.689293423333042
 20
1.380678161949526
 30
0.0
 11
6.308021986418456
 21
1.889075684689318
 31
0.0
  0
LINE
  5
B0
330
70
100
AcDbEntity
  8
1 F v4_Sketch1
100
AcDbLine
 10
6.308072854516794
 20
4.888822911871345
 30
0.0
 11
6.540729036256234
 21
5.209336018177245
 31
0.0
  0
ARC
  5
B1
330
70
100
AcDbEntity
  8
1 F v4_Sketch1
100
AcDbCircle
 10
6.459889183944754
 20
9.268088090111362
 30
0.0
 40
0.1000000000000027
100
AcDbArc
 50
324.0246038578354
 51
69.37445189481614
  0
LINE
  5
B2
330
70
100
AcDbEntity
  8
1 F v4_Sketch1
100
AcDbLine
 10
6.308159934758913
 20
8.888831204667024
 30
0.0
 11
6.540816116498357
 21
9.209344310972927
 31
0.0
  0
LINE
  5
B3
330
70
100
AcDbEntity
  8
1 F v4_Sketch1
100
AcDbLine
 10
6.308072854516785
 20
3.87201183309864
 30
0.0
 11
6.689350303501447
 21
4.380417372484992
 31
0.0
  0
LINE
  5
B4
330
70
100
AcDbEntity
  8
1 F v4_Sketch1
100
AcDbLine
 10
6.308203475479801
 20
10.87253381461547
 30
0.0
 11
6.540859657219642
 21
10.55202070830913
 31
0.0
  0
ARC
  5
B5
330
70
100
AcDbEntity
  8
1 F v4_Sketch1
100
AcDbCircle
 10
5.488732540099002
 20
5.080899285914489
 30
0.0
 40
0.3000000000000043
100
AcDbArc
 50
90.00000000000067
 51
110.6261370542835
  0
ARC
  5
B6
330
70
100
AcDbEntity
  8
1 F v4_Sketch1
100
AcDbCircle
 10
6.38943738374178
 20
7.679943751848478
 30
0.0
 40
0.3000000000000043
100
AcDbArc
 50
270.0000000000094
 51
290.6255481051938
  0
LINE
  5
B7
330
70
100
AcDbEntity
  8
1 F v4_Sketch1
100
AcDbLine
 10
12.68872850551269
 20
4.380564083966312
 30
0.0
 11
13.06999994241955
 21
3.872166561221698
 31
0.0
  0
LINE
  5
B8
330
70
100
AcDbEntity
  8
1 F v4_Sketch1
100
AcDbLine
 10
2.989047746567303
 20
6.680490028806502
 30
0.0
 11
2.989094456010613
 21
6.08053378224133
 31
0.0
  0
LINE
  5
B9
330
70
100
AcDbEntity
  8
1 F v4_Sketch1
100
AcDbLine
 10
5.488732540098999
 20
5.380899285914493
 30
0.0
 11
6.38935030350145
 21
5.380899285914489
 31
0.0
  0
ARC
  5
BA
330
70
100
AcDbEntity
  8
1 F v4_Sketch1
100
AcDbCircle
 10
5.418365896094462
 20
7.492763964638179
 30
0.0
 40
0.1000000000000012
100
AcDbArc
 50
144.0257021837294
 51
249.3738629457259
  0
LINE
  5
BB
330
70
100
AcDbEntity
  8
1 F v4_Sketch1
100
AcDbLine
 10
5.570091057267827
 20
7.872028142551171
 30
0.0
 11
5.337437837472595
 21
7.551506192445044
 31
0.0
  0
LINE
  5
BC
330
70
100
AcDbEntity
  8
1 F v4_Sketch1
100
AcDbLine
 10
5.188732540119158
 20
4.380417372500116
 30
0.0
 11
5.57000397702599
 21
3.872019849755282
 31
0.0
  0
LINE
  5
BD
330
70
100
AcDbEntity
  8
1 F v4_Sketch1
100
AcDbLine
 10
12.68872850551268
 20
4.380564083966312
 30
0.0
 11
13.06999994241955
 21
3.872166561221694
 31
0.0
  0
LINE
  5
BE
330
70
100
AcDbEntity
  8
1 F v4_Sketch1
100
AcDbLine
 10
2.18915869184451
 20
9.380494186809336
 30
0.0
 11
2.498958985843719
 21
9.380494186809382
 31
0.0
  0
LINE
  5
BF
330
70
100
AcDbEntity
  8
1 F v4_Sketch1
100
AcDbLine
 10
13.06999994241276
 20
4.888961606690021
 30
0.0
 11
12.83734672262606
 21
5.209483556784393
 31
0.0
  0
LINE
  5
C0
330
70
100
AcDbEntity
  8
1 F v4_Sketch1
100
AcDbLine
 10
2.18915869184451
 20
9.380494186809336
 30
0.0
 11
2.18915869184451
 21
9.880492235711489
 31
0.0
  0
ARC
  5
C1
330
70
100
AcDbEntity
  8
1 F v4_Sketch1
100
AcDbCircle
 10
6.459889183942998
 20
7.492763240447288
 30
0.0
 40
0.099999999999999
100
AcDbArc
 50
290.6255481051955
 51
35.97539614217228
  0
LINE
  5
C2
330
70
100
AcDbEntity
  8
1 F v4_Sketch1
100
AcDbLine
 10
5.188732540119026
 20
4.380417372500019
 30
0.0
 11
5.570003977025976
 21
3.872019849755048
 31
0.0
  0
LINE
  5
C3
330
70
100
AcDbEntity
  8
1 F v4_Sketch1
100
AcDbLine
 10
2.498960952797487
 20
7.380493772933713
 30
0.0
 11
2.189158691844506
 21
7.380493782897252
 31
0.0
  0
LINE
  5
C4
330
70
100
AcDbEntity
  8
1 F v4_Sketch1
100
AcDbLine
 10
2.498339127600876
 20
5.380489979219494
 30
0.0
 11
2.498341094550331
 21
3.380492141693648
 31
0.0
  0
LINE
  5
C5
330
70
100
AcDbEntity
  8
1 F v4_Sketch1
100
AcDbLine
 10
2.18915863957358
 20
6.730500200790234
 30
0.0
 11
2.789056628766516
 21
6.880474457907657
 31
0.0
  0
ARC
  5
C6
330
70
100
AcDbEntity
  8
1 F v4_Sketch1
100
AcDbCircle
 10
2.789157598184145
 20
10.68049222811713
 30
0.0
 40
0.1999999999999957
100
AcDbArc
 50
359.9999999999995
 51
90.0
  0
LINE
  5
C7
330
70
100
AcDbEntity
  8
1 F v4_Sketch1
100
AcDbLine
 10
5.570134597990103
 20
10.87254183127278
 30
0.0
 11
5.337481378196056
 21
10.5520198811682
 31
0.0
  0
LINE
  5
C8
330
70
100
AcDbEntity
  8
1 F v4_Sketch1
100
AcDbLine
 10
12.98880913475905
 20
9.381045870816866
 30
0.0
 11
13.8894268981615
 21
9.381045870816862
 31
0.0
  0
LINE
  5
C9
330
70
100
AcDbEntity
  8
1 F v4_Sketch1
100
AcDbLine
 10
5.570091057261072
 20
8.888823188019294
 30
0.0
 11
5.337437837474377
 21
9.209345138113665
 31
0.0
  0
LINE
  5
CA
330
70
100
AcDbEntity
  8
1 F v4_Sketch1
100
AcDbLine
 10
12.98880913475905
 20
9.381045870816866
 30
0.0
 11
13.8894268981615
 21
9.381045870816862
 31
0.0
  0
ARC
  5
CB
330
70
100
AcDbEntity
  8
1 F v4_Sketch1
100
AcDbCircle
 10
6.389437383741787
 20
7.679943751848673
 30
0.0
 40
0.3000000000000016
100
AcDbArc
 50
270.0000000000088
 51
290.6255481051953
  0
ARC
  5
CC
330
70
100
AcDbEntity
  8
1 F v4_Sketch1
100
AcDbCircle
 10
12.98880913475906
 20
9.081045870816861
 30
0.0
 40
0.3000000000000043
100
AcDbArc
 50
90.00000000000067
 51
110.6261370542835
  0
LINE
  5
CD
330
70
100
AcDbEntity
  8
1 F v4_Sketch1
100
AcDbLine
 10
5.48881962034112
 20
9.380907578710171
 30
0.0
 11
6.389437383743571
 21
9.380907578710168
 31
0.0
  0
LINE
  5
CE
330
70
100
AcDbEntity
  8
1 F v4_Sketch1
100
AcDbLine
 10
5.570091057261072
 20
8.888823188019294
 30
0.0
 11
5.337437837474377
 21
9.209345138113665
 31
0.0
  0
LINE
  5
CF
330
70
100
AcDbEntity
  8
1 F v4_Sketch1
100
AcDbLine
 10
6.308159934756657
 20
7.872020125892198
 30
0.0
 11
6.689437383743207
 21
8.380425665280942
 31
0.0
  0
LINE
  5
D0
330
70
100
AcDbEntity
  8
1 F v4_Sketch1
100
AcDbLine
 10
6.308159934758913
 20
8.888831204667024
 30
0.0
 11
6.540816116498357
 21
9.209344310972927
 31
0.0
  0
LINE
  5
D1
330
70
100
AcDbEntity
  8
1 F v4_Sketch1
100
AcDbLine
 10
6.308021986418456
 20
1.889075684689318
 30
0.0
 11
6.540675206208103
 21
2.20959763478768
 31
0.0
  0
LINE
  5
D2
330
70
100
AcDbEntity
  8
1 F v4_Sketch1
100
AcDbLine
 10
6.308072854516785
 20
3.87201183309864
 30
0.0
 11
6.689350303501447
 21
4.380417372484992
 31
0.0
  0
LINE
  5
D3
330
70
100
AcDbEntity
  8
1 F v4_Sketch1
100
AcDbLine
 10
6.308159934756657
 20
7.872020125892198
 30
0.0
 11
6.540816116496595
 21
7.551507019585736
 31
0.0
  0
LINE
  5
D4
330
70
100
AcDbEntity
  8
1 F v4_Sketch1
100
AcDbLine
 10
6.308072854514842
 20
3.872011833096782
 30
0.0
 11
6.689350303501123
 21
4.380417372485235
 31
0.0
  0
ARC
  5
D5
330
70
100
AcDbEntity
  8
1 F v4_Sketch1
100
AcDbCircle
 10
13.05016687622182
 20
7.674643265621782
 30
0.0
 40
0.3000000000000074
100
AcDbArc
 50
248.821684754528
 51
265.4575675067826
  0
ARC
  5
D6
330
70
100
AcDbEntity
  8
1 F v4_Sketch1
100
AcDbCircle
 10
12.91835541051422
 20
9.268225658027006
 30
0.0
 40
0.0999999999999988
100
AcDbArc
 50
110.6261370542812
 51
215.9742978162709
  0
LINE
  5
D7
330
70
100
AcDbEntity
  8
1 F v4_Sketch1
100
AcDbLine
 10
5.488732540098999
 20
5.380899285914493
 30
0.0
 11
6.389350303501451
 21
5.380899285914489
 31
0.0
  0
LINE
  5
D8
330
70
100
AcDbEntity
  8
1 F v4_Sketch1
100
AcDbLine
 10
6.38929342334138
 20
2.381160075384204
 30
0.0
 11
5.488675659939003
 21
2.381160075384287
 31
0.0
  0
LINE
  5
D9
330
70
100
AcDbEntity
  8
1 F v4_Sketch1
100
AcDbLine
 10
6.308159934756757
 20
7.87202012589229
 30
0.0
 11
6.540816116496609
 21
7.551507019585935
 31
0.0
  0
LINE
  5
DA
330
70
100
AcDbEntity
  8
1 F v4_Sketch1
100
AcDbLine
 10
6.308159934756757
 20
7.87202012589229
 30
0.0
 11
6.689437383743225
 21
8.380425665280931
 31
0.0
  0
LINE
  5
DB
330
70
100
AcDbEntity
  8
1 F v4_Sketch1
100
AcDbLine
 10
6.308072854516794
 20
4.888822911871343
 30
0.0
 11
6.689350303501447
 21
4.380417372484992
 31
0.0
  0
LINE
  5
DC
330
70
100
AcDbEntity
  8
1 F v4_Sketch1
100
AcDbLine
 10
6.308159934758913
 20
8.888831204667024
 30
0.0
 11
6.689437383743568
 21
8.380425665280672
 31
0.0
  0
ARC
  5
DD
330
70
100
AcDbEntity
  8
1 F v4_Sketch1
100
AcDbCircle
 10
12.81365302416221
 20
7.499748993593287
 30
0.0
 40
0.0999999999999981
100
AcDbArc
 50
144.8552059657615
 51
250.3374248139177
  0
ARC
  5
DE
330
70
100
AcDbEntity
  8
1 F v4_Sketch1
100
AcDbCircle
 10
13.01332850265442
 20
7.676684152037616
 30
0.0
 40
0.3000000000000058
100
AcDbArc
 50
249.1462114759882
 51
269.8547096243402
  0
LINE
  5
DF
330
70
100
AcDbEntity
  8
1 F v4_Sketch1
100
AcDbLine
 10
6.308159934758913
 20
8.888831204667024
 30
0.0
 11
6.689437383743568
 21
8.380425665280672
 31
0.0
  0
LINE
  5
E0
330
70
100
AcDbEntity
  8
1 F v4_Sketch1
100
AcDbLine
 10
6.308203475479801
 20
10.87253381461547
 30
0.0
 11
6.689480924466813
 21
11.38093935400532
 31
0.0
  0
ARC
  5
E1
330
70
100
AcDbEntity
  8
1 F v4_Sketch1
100
AcDbCircle
 10
12.9202072555553
 20
7.489564004930722
 30
0.0
 40
0.1000000000000025
100
AcDbArc
 50
143.9928780226855
 51
249.3379885854952
  0
ARC
  5
E2
330
70
100
AcDbEntity
  8
1 F v4_Sketch1
100
AcDbCircle
 10
12.98880913475906
 20
9.081045870816861
 30
0.0
 40
0.3000000000000043
100
AcDbArc
 50
90.00000000000067
 51
110.6261370542835
  0
LINE
  5
E3
330
70
100
AcDbEntity
  8
1 F v4_Sketch1
100
AcDbLine
 10
6.308072854516794
 20
4.888822911871345
 30
0.0
 11
6.689350303501447
 21
4.380417372484992
 31
0.0
  0
LINE
  5
E4
330
70
100
AcDbEntity
  8
1 F v4_Sketch1
100
AcDbLine
 10
6.308072854516794
 20
4.888822911871343
 30
0.0
 11
6.540729036256236
 21
5.209336018177243
 31
0.0
  0
ARC
  5
E5
330
70
100
AcDbEntity
  8
1 F v4_Sketch1
100
AcDbCircle
 10
12.91835541051422
 20
9.268225658027006
 30
0.0
 40
0.0999999999999988
100
AcDbArc
 50
110.6261370542812
 51
215.9742978162709
  0
ARC
  5
E6
330
70
100
AcDbEntity
  8
1 F v4_Sketch1
100
AcDbCircle
 10
12.9779125387693
 20
7.488151145897384
 30
0.0
 40
0.1000000000000009
100
AcDbArc
 50
143.5529230609993
 51
248.8216847545316
  0
ARC
  5
E7
330
70
100
AcDbEntity
  8
1 F v4_Sketch1
100
AcDbCircle
 10
12.94213162108562
 20
7.489785773085628
 30
0.0
 40
0.1000000000000009
100
AcDbArc
 50
143.8298442043541
 51
249.1462114759933
  0
LINE
  5
E8
330
70
100
AcDbEntity
  8
1 F v4_Sketch1
100
AcDbLine
 10
6.308072854516792
 20
4.888822911871344
 30
0.0
 11
6.540729036256234
 21
5.209336018177243
 31
0.0
  0
LINE
  5
E9
330
70
100
AcDbEntity
  8
1 F v4_Sketch1
100
AcDbLine
 10
6.308072854516792
 20
4.888822911871344
 30
0.0
 11
6.689350303501447
 21
4.380417372484992
 31
0.0
  0
ARC
  5
EA
330
70
100
AcDbEntity
  8
1 F v4_Sketch1
100
AcDbCircle
 10
12.9907781640582
 20
7.676699642565779
 30
0.0
 40
0.300000000000009
100
AcDbArc
 50
249.3379885854982
 51
269.9619775984205
  0
ARC
  5
EB
330
70
100
AcDbEntity
  8
1 F v4_Sketch1
100
AcDbCircle
 10
12.91835541051422
 20
9.268225658027006
 30
0.0
 40
0.0999999999999988
100
AcDbArc
 50
110.6261370542812
 51
215.9742978162709
  0
LINE
  5
EC
330
70
100
AcDbEntity
  8
1 F v4_Sketch1
100
AcDbLine
 10
12.99057907924368
 20
7.376699708623718
 30
0.0
 11
13.01256776484169
 21
7.376685116575862
 31
0.0
  0
LINE
  5
ED
330
70
100
AcDbEntity
  8
1 F v4_Sketch1
100
AcDbLine
 10
13.00847699941738
 20
7.377010115306755
 30
0.0
 11
13.89111831020859
 21
7.376741862385213
 31
0.0
  0
LINE
  5
EE
330
70
100
AcDbEntity
  8
1 F v4_Sketch1
100
AcDbLine
 10
5.488863161062822
 20
10.38045744057171
 30
0.0
 11
6.389480924464876
 21
10.38045744057185
 31
0.0
  0
LINE
  5
EF
330
70
100
AcDbEntity
  8
1 F v4_Sketch1
100
AcDbLine
 10
6.308072854516792
 20
4.888822911871344
 30
0.0
 11
6.689350303501447
 21
4.380417372484992
 31
0.0
  0
ARC
  5
F0
330
70
100
AcDbEntity
  8
1 F v4_Sketch1
100
AcDbCircle
 10
12.91835541051422
 20
9.268225658027006
 30
0.0
 40
0.0999999999999988
100
AcDbArc
 50
110.6261370542812
 51
215.9742978162709
  0
LINE
  5
F1
330
70
100
AcDbEntity
  8
1 F v4_Sketch1
100
AcDbLine
 10
12.85718985747015
 20
7.38902941316671
 30
0.0
 11
13.01256776484169
 21
7.376685116575862
 31
0.0
  0
LINE
  5
F2
330
70
100
AcDbEntity
  8
1 F v4_Sketch1
100
AcDbLine
 10
6.308072854516792
 20
4.888822911871344
 30
0.0
 11
6.540729036256234
 21
5.209336018177243
 31
0.0
  0
ARC
  5
F3
330
70
100
AcDbEntity
  8
1 F v4_Sketch1
100
AcDbCircle
 10
12.98880913475906
 20
9.081045870816861
 30
0.0
 40
0.3000000000000043
100
AcDbArc
 50
90.00000000000067
 51
110.6261370542835
  0
ARC
  5
F4
330
70
100
AcDbEntity
  8
1 F v4_Sketch1
100
AcDbCircle
 10
12.98880913475906
 20
9.081045870816861
 30
0.0
 40
0.3000000000000043
100
AcDbArc
 50
90.00000000000067
 51
110.6261370542835
  0
LINE
  5
F5
330
70
100
AcDbEntity
  8
1 F v4_Sketch1
100
AcDbLine
 10
5.488732540098999
 20
5.380899285914493
 30
0.0
 11
6.38935030350145
 21
5.380899285914489
 31
0.0
  0
ARC
  5
F6
330
70
100
AcDbEntity
  8
1 F v4_Sketch1
100
AcDbCircle
 10
12.88094907035513
 20
7.688087099580371
 30
0.0
 40
0.30000000000001
100
AcDbArc
 50
250.3374248139198
 51
265.4575675984984
  0
LINE
  5
F7
330
70
100
AcDbEntity
  8
1 F v4_Sketch1
100
AcDbLine
 10
5.488819620339301
 20
7.379943751848331
 30
0.0
 11
6.38943738374183
 21
7.379943751848474
 31
0.0
  0
LINE
  5
F8
330
70
100
AcDbEntity
  8
1 F v4_Sketch1
100
AcDbLine
 10
5.488732540097592
 20
3.379935459052541
 30
0.0
 11
6.389350303499805
 21
3.379935459052687
 31
0.0
  0
LINE
  5
F9
330
70
100
AcDbEntity
  8
1 F v4_Sketch1
100
AcDbLine
 10
12.98872850549118
 20
3.380082170519205
 30
0.0
 11
13.88934626889364
 21
3.380082170519428
 31
0.0
  0
LINE
  5
FA
330
70
100
AcDbEntity
  8
1 F v4_Sketch1
100
AcDbLine
 10
13.02640766285813
 20
7.375585579246158
 30
0.0
 11
13.01256776484169
 21
7.376685116575862
 31
0.0
  0
LINE
  5
FB
330
70
100
AcDbEntity
  8
1 F v4_Sketch1
100
AcDbLine
 10
13.00847699941738
 20
7.377010115306755
 30
0.0
 11
13.01256776484169
 21
7.376685116575862
 31
0.0
  0
LINE
  5
FC
330
70
100
AcDbEntity
  8
1 F v4_Sketch1
100
AcDbLine
 10
9.539119261312166
 20
9.380379768947683
 30
0.0
 11
9.539119261312166
 21
7.380379739145361
 31
0.0
  0
ARC
  5
FD
330
70
100
AcDbEntity
  8
1 F v4_Sketch1
100
AcDbCircle
 10
9.689119261312166
 20
7.380379739145361
 30
0.0
 40
0.1500000000000003
100
AcDbArc
 50
180.0
 51
0.0
  0
LINE
  5
FE
330
70
100
AcDbEntity
  8
1 F v4_Sketch1
100
AcDbLine
 10
9.839119261312166
 20
7.380379739145361
 30
0.0
 11
9.839119261312166
 21
9.380379768947683
 31
0.0
  0
ARC
  5
FF
330
70
100
AcDbEntity
  8
1 F v4_Sketch1
100
AcDbCircle
 10
9.689058039714048
 20
3.380371445953645
 30
0.0
 40
0.1500000000000003
100
AcDbArc
 50
180.0
 51
0.0
  0
LINE
  5
100
330
70
100
AcDbEntity
  8
1 F v4_Sketch1
100
AcDbLine
 10
9.839058039714048
 20
3.380371445953645
 30
0.0
 11
9.839058039714048
 21
5.380371475755968
 31
0.0
  0
ARC
  5
101
330
70
100
AcDbEntity
  8
1 F v4_Sketch1
100
AcDbCircle
 10
9.689058039714048
 20
5.380371475755968
 30
0.0
 40
0.1500000000000003
100
AcDbArc
 50
0.0
 51
180.0
  0
LINE
  5
102
330
70
100
AcDbEntity
  8
1 F v4_Sketch1
100
AcDbLine
 10
9.539058039714047
 20
5.380371475755968
 30
0.0
 11
9.539058039714047
 21
3.380371445953645
 31
0.0
  0
ARC
  5
103
330
70
100
AcDbEntity
  8
1 F v4_Sketch1
100
AcDbCircle
 10
9.689119261312166
 20
9.380379768947683
 30
0.0
 40
0.1500000000000003
100
AcDbArc
 50
0.0
 51
180.0
  0
LINE
  5
104
330
70
100
AcDbEntity
  8
1 F v4_Sketch1
100
AcDbLine
 10
2.189157598184143
 20
10.88049222811713
 30
0.0
 11
2.189157598184143
 21
10.7304922854866
 31
0.0
  0
ARC
  5
105
330
70
100
AcDbEntity
  8
1 F v4_Sketch1
100
AcDbCircle
 10
2.789157598184138
 20
10.08049221321597
 30
0.0
 40
0.2000000000000064
100
AcDbArc
 50
270.000000000001
 51
359.9999999999984
  0
ARC
  5
106
330
70
100
AcDbEntity
  8
1 F v4_Sketch1
100
AcDbCircle
 10
2.789157565004405
 20
2.68049229082433
 30
0.0
 40
0.2000000480922862
100
AcDbArc
 50
359.9999652618325
 51
90.00001192011737
  0
LINE
  5
107
330
70
100
AcDbEntity
  8
1 F v4_Sketch1
100
AcDbLine
 10
2.989157593944836
 20
10.6804920637978
 30
0.0
 11
2.98915759280608
 21
10.08049198449622
 31
0.0
  0
LINE
  5
108
330
70
100
AcDbEntity
  8
1 F v4_Sketch1
100
AcDbLine
 10
5.939158686854012
 20
10.38045744057178
 30
0.0
 11
5.939158686854012
 21
10.38047524969887
 31
0.0
  0
ARC
  5
109
330
70
100
AcDbEntity
  8
1 F v4_Sketch1
100
AcDbCircle
 10
6.389437383743564
 20
9.080907578710164
 30
0.0
 40
0.3000000000000038
100
AcDbArc
 50
69.37445189481548
 51
89.99999999999864
  0
LINE
  5
10A
330
70
100
AcDbEntity
  8
1 F v4_Sketch1
100
AcDbLine
 10
2.189158688788787
 20
2.730492634248274
 30
0.0
 11
2.789157523395336
 21
2.880492338916614
 31
0.0
  0
LINE
  5
10B
330
70
100
AcDbEntity
  8
1 F v4_Sketch1
100
AcDbLine
 10
13.06999994241276
 20
4.888961606690021
 30
0.0
 11
12.83734672262606
 21
5.209483556784393
 31
0.0
  0
LINE
  5
10C
330
70
100
AcDbEntity
  8
1 F v4_Sketch1
100
AcDbLine
 10
2.189158691844506
 20
10.88049290430238
 30
0.0
 11
2.189158691844506
 21
11.38093935409772
 31
0.0
  0
LINE
  5
10D
330
70
100
AcDbEntity
  8
1 F v4_Sketch1
100
AcDbLine
 10
2.189158691844509
 20
2.88049263335736
 30
0.0
 11
2.189158691844509
 21
3.380492210371345
 31
0.0
  0
LINE
  5
10E
330
70
100
AcDbEntity
  8
1 F v4_Sketch1
100
AcDbLine
 10
2.98915759818414
 20
10.68049222811713
 30
0.0
 11
2.989157598184144
 21
10.08049221321597
 31
0.0
  0
LINE
  5
10F
330
70
100
AcDbEntity
  8
1 F v4_Sketch1
100
AcDbLine
 10
2.189158691844509
 20
1.380939354097719
 30
0.0
 11
2.189158691844509
 21
1.880492058549652
 31
0.0
  0
LINE
  5
110
330
70
100
AcDbEntity
  8
1 F v4_Sketch1
100
AcDbLine
 10
5.939115146132026
 20
9.380907578710168
 30
0.0
 11
5.939115146132026
 21
9.380889769582445
 31
0.0
  0
ARC
  5
111
330
70
100
AcDbEntity
  8
1 F v4_Sketch1
100
AcDbCircle
 10
6.389350303501444
 20
5.080899285914485
 30
0.0
 40
0.3000000000000038
100
AcDbArc
 50
69.37445189481548
 51
89.99999999999864
  0
LINE
  5
112
330
70
100
AcDbEntity
  8
1 F v4_Sketch1
100
AcDbLine
 10
13.8080688199106
 20
4.88896962333775
 30
0.0
 11
14.18934626889526
 21
4.380564083951399
 31
0.0
  0
LINE
  5
113
330
70
100
AcDbEntity
  8
1 F v4_Sketch1
100
AcDbLine
 10
16.8803057479229
 20
7.380492232755235
 30
0.0
 11
17.18915869184451
 21
7.380492211052866
 31
0.0
  0
LINE
  5
114
330
70
100
AcDbEntity
  8
1 F v4_Sketch1
100
AcDbLine
 10
13.36344187408739
 20
1.101345532221921
 30
0.0
 11
13.36344187408739
 21
1.101345532221921
 31
0.0
  0
LINE
  5
115
330
70
100
AcDbEntity
  8
1 F v4_Sketch1
100
AcDbLine
 10
5.48881962034112
 20
9.380907578710171
 30
0.0
 11
6.389437383743571
 21
9.380907578710168
 31
0.0
  0
LINE
  5
116
330
70
100
AcDbEntity
  8
1 F v4_Sketch1
100
AcDbLine
 10
6.308072854516785
 20
3.87201183309864
 30
0.0
 11
6.689350303501447
 21
4.380417372484992
 31
0.0
  0
LINE
  5
117
330
70
100
AcDbEntity
  8
1 F v4_Sketch1
100
AcDbLine
 10
17.18915869184451
 20
9.380490217634243
 30
0.0
 11
16.88030671273798
 21
9.380490366626963
 31
0.0
  0
LINE
  5
118
330
70
100
AcDbEntity
  8
1 F v4_Sketch1
100
AcDbLine
 10
16.38915821434234
 20
10.68049214418247
 30
0.0
 11
16.38915821700447
 21
10.08049220505466
 31
0.0
  0
LINE
  5
119
330
70
100
AcDbEntity
  8
1 F v4_Sketch1
100
AcDbLine
 10
13.80806881990847
 20
3.872158544563061
 30
0.0
 11
14.18934626889493
 21
4.380564083951643
 31
0.0
  0
LINE
  5
11A
330
70
100
AcDbEntity
  8
1 F v4_Sketch1
100
AcDbLine
 10
13.80814944917685
 20
8.888969496773718
 30
0.0
 11
14.04080563091629
 21
9.209482603079617
 31
0.0
  0
LINE
  5
11B
330
70
100
AcDbEntity
  8
1 F v4_Sketch1
100
AcDbLine
 10
13.80806881990848
 20
3.872158544563065
 30
0.0
 11
14.18934626889493
 21
4.380564083951643
 31
0.0
  0
ARC
  5
11C
330
70
100
AcDbEntity
  8
1 F v4_Sketch1
100
AcDbCircle
 10
13.88942689815934
 20
7.680082043955467
 30
0.0
 40
0.3000000000000043
100
AcDbArc
 50
270.0000000000143
 51
290.6255481051987
  0
LINE
  5
11D
330
70
100
AcDbEntity
  8
1 F v4_Sketch1
100
AcDbLine
 10
13.43902403128371
 20
5.381045997380895
 30
0.0
 11
13.43902403128371
 21
5.381028188253172
 31
0.0
  0
ARC
  5
11E
330
70
100
AcDbEntity
  8
1 F v4_Sketch1
100
AcDbCircle
 10
16.58915828144677
 20
10.68049222558075
 30
0.0
 40
0.2000000671044503
100
AcDbArc
 50
89.9999878393217
 51
180.0000233188812
  0
ARC
  5
11F
330
70
100
AcDbEntity
  8
1 F v4_Sketch1
100
AcDbCircle
 10
6.389350303501442
 20
5.080899285914485
 30
0.0
 40
0.3000000000000038
100
AcDbArc
 50
69.37445189481548
 51
89.99999999999864
  0
LINE
  5
120
330
70
100
AcDbEntity
  8
1 F v4_Sketch1
100
AcDbLine
 10
13.43910466054996
 20
9.381028061689139
 30
0.0
 11
13.43911801646027
 21
9.381045870816862
 31
0.0
  0
LINE
  5
121
330
70
100
AcDbEntity
  8
1 F v4_Sketch1
100
AcDbLine
 10
13.43902403128371
 20
5.381045997380895
 30
0.0
 11
13.43902403128371
 21
5.381028188253172
 31
0.0
  0
LINE
  5
122
330
70
100
AcDbEntity
  8
1 F v4_Sketch1
100
AcDbLine
 10
17.18915869184451
 20
10.73049225332158
 30
0.0
 11
16.58915832389556
 21
10.88049229268519
 31
0.0
  0
LINE
  5
123
330
70
100
AcDbEntity
  8
1 F v4_Sketch1
100
AcDbLine
 10
11.37358237078577
 20
8.208874167315187
 30
0.0
 11
11.37358237078577
 21
8.208874167315187
 31
0.0
  0
LINE
  5
124
330
70
100
AcDbEntity
  8
1 F v4_Sketch1
100
AcDbLine
 10
13.8080688199106
 20
4.888969623337748
 30
0.0
 11
14.04072500165004
 21
5.20948272964365
 31
0.0
  0
LINE
  5
125
330
70
100
AcDbEntity
  8
1 F v4_Sketch1
100
AcDbLine
 10
17.18915869184451
 20
7.380492211052866
 30
0.0
 11
17.18915869184451
 21
6.730492146699225
 31
0.0
  0
LINE
  5
126
330
70
100
AcDbEntity
  8
1 F v4_Sketch1
100
AcDbLine
 10
13.80814944917685
 20
8.888969496773718
 30
0.0
 11
14.04080563091629
 21
9.209482603079621
 31
0.0
  0
LINE
  5
127
330
70
100
AcDbEntity
  8
1 F v4_Sketch1
100
AcDbLine
 10
17.18915872434582
 20
6.88049222810698
 30
0.0
 11
17.18915869184451
 21
7.380492211052866
 31
0.0
  0
LINE
  5
128
330
70
100
AcDbEntity
  8
1 F v4_Sketch1
100
AcDbLine
 10
13.8080688199106
 20
4.888969623337748
 30
0.0
 11
14.18934626889526
 21
4.3805640839514
 31
0.0
  0
ARC
  5
129
330
70
100
AcDbEntity
  8
1 F v4_Sketch1
100
AcDbCircle
 10
6.459802103702633
 20
5.268079797315678
 30
0.0
 40
0.1000000000000027
100
AcDbArc
 50
324.0246038578354
 51
69.37445189481728
  0
ARC
  5
12A
330
70
100
AcDbEntity
  8
1 F v4_Sketch1
100
AcDbCircle
 10
6.459802103702632
 20
5.268079797315678
 30
0.0
 40
0.1000000000000027
100
AcDbArc
 50
324.0246038578354
 51
69.37445189481502
  0
ARC
  5
12B
330
70
100
AcDbEntity
  8
1 F v4_Sketch1
100
AcDbCircle
 10
16.58915829366989
 20
10.08049217611683
 30
0.0
 40
0.2000000625892225
100
AcDbArc
 50
179.9999754769616
 51
270.0000107020033
  0
ARC
  5
12C
330
70
100
AcDbEntity
  8
1 F v4_Sketch1
100
AcDbCircle
 10
13.96156335197657
 20
7.489524505320664
 30
0.0
 40
0.0999999999999901
100
AcDbArc
 50
290.5955733580547
 51
35.94453522674527
  0
ARC
  5
12D
330
70
100
AcDbEntity
  8
1 F v4_Sketch1
100
AcDbCircle
 10
13.95979806909644
 20
5.268226508782086
 30
0.0
 40
0.1000000000000027
100
AcDbArc
 50
324.0246038578354
 51
69.37445189481842
  0
ARC
  5
12E
330
70
100
AcDbEntity
  8
1 F v4_Sketch1
100
AcDbCircle
 10
13.95988096842536
 20
7.492898702789101
 30
0.0
 40
0.1000000000000011
100
AcDbArc
 50
290.6255519785974
 51
35.97540096950401
  0
LINE
  5
12F
330
70
100
AcDbEntity
  8
1 F v4_Sketch1
100
AcDbLine
 10
17.1891579267821
 20
10.03049221012634
 30
0.0
 11
16.58915822679082
 21
9.880492202684692
 31
0.0
  0
LINE
  5
130
330
70
100
AcDbEntity
  8
1 F v4_Sketch1
100
AcDbLine
 10
17.18915869184451
 20
6.730492146699225
 30
0.0
 11
16.58915826808533
 21
6.880492254060889
 31
0.0
  0
ARC
  5
131
330
70
100
AcDbEntity
  8
1 F v4_Sketch1
100
AcDbCircle
 10
13.88942915557005
 20
7.680079209427487
 30
0.0
 40
0.3000000000000031
100
AcDbArc
 50
269.9998540678454
 51
290.6255519785984
  0
ARC
  5
132
330
70
100
AcDbEntity
  8
1 F v4_Sketch1
100
AcDbCircle
 10
12.98872850549111
 20
3.680082170519212
 30
0.0
 40
0.3000000000000065
100
AcDbArc
 50
249.3738629457311
 51
270.0000000000139
  0
ARC
  5
133
330
70
100
AcDbEntity
  8
1 F v4_Sketch1
100
AcDbCircle
 10
13.95987869836058
 20
7.492901532554286
 30
0.0
 40
0.0999999999999999
100
AcDbArc
 50
290.6255481051997
 51
35.97539614218002
  0
ARC
  5
134
330
70
100
AcDbEntity
  8
1 F v4_Sketch1
100
AcDbCircle
 10
13.95987869836058
 20
7.492901532554286
 30
0.0
 40
0.1000000000000015
100
AcDbArc
 50
290.6255481051993
 51
35.97539614217902
  0
LINE
  5
135
330
70
100
AcDbEntity
  8
1 F v4_Sketch1
100
AcDbLine
 10
13.8080688199106
 20
4.88896962333775
 30
0.0
 11
14.04072500165004
 21
5.209482729643649
 31
0.0
  0
ARC
  5
136
330
70
100
AcDbEntity
  8
1 F v4_Sketch1
100
AcDbCircle
 10
13.88942689815934
 20
7.680082043955467
 30
0.0
 40
0.3000000000000043
100
AcDbArc
 50
270.0000000000135
 51
290.6255481051986
  0
ARC
  5
137
330
70
100
AcDbEntity
  8
1 F v4_Sketch1
100
AcDbCircle
 10
13.89120948639962
 20
7.676741848530052
 30
0.0
 40
0.3000000000000017
100
AcDbArc
 50
269.9825866299391
 51
290.5955733580553
  0
LINE
  5
138
330
70
100
AcDbEntity
  8
1 F v4_Sketch1
100
AcDbLine
 10
17.1891586918445
 20
5.380493363852449
 30
0.0
 11
17.18915866250623
 21
5.880492213218191
 31
0.0
  0
ARC
  5
139
330
70
100
AcDbEntity
  8
1 F v4_Sketch1
100
AcDbCircle
 10
6.389350303501442
 20
5.080899285914485
 30
0.0
 40
0.3000000000000045
100
AcDbArc
 50
69.37445189481515
 51
89.99999999999864
  0
ARC
  5
13A
330
70
100
AcDbEntity
  8
1 F v4_Sketch1
100
AcDbCircle
 10
16.5891582610496
 20
6.680492245169696
 30
0.0
 40
0.2000000088911938
100
AcDbArc
 50
89.99999798440981
 51
180.0000037468787
  0
LINE
  5
13B
330
70
100
AcDbEntity
  8
1 F v4_Sketch1
100
AcDbLine
 10
13.80814944917458
 20
7.872158417998665
 30
0.0
 11
14.1894268981613
 21
8.380563957387517
 31
0.0
  0
LINE
  5
13C
330
70
100
AcDbEntity
  8
1 F v4_Sketch1
100
AcDbLine
 10
13.43910466054996
 20
9.381028061689139
 30
0.0
 11
13.43911801646027
 21
9.381045870816862
 31
0.0
  0
LINE
  5
13D
330
70
100
AcDbEntity
  8
1 F v4_Sketch1
100
AcDbLine
 10
13.80765571856296
 20
7.871661643079604
 30
0.0
 11
14.04252191363313
 21
7.548224686704532
 31
0.0
  0
ARC
  5
13E
330
70
100
AcDbEntity
  8
1 F v4_Sketch1
100
AcDbCircle
 10
13.8894268981615
 20
9.081045870816859
 30
0.0
 40
0.3000000000000038
100
AcDbArc
 50
69.37445189481548
 51
89.99999999999797
  0
LINE
  5
13F
330
70
100
AcDbEntity
  8
1 F v4_Sketch1
100
AcDbLine
 10
13.43902403128371
 20
5.381045997380895
 30
0.0
 11
13.43902403128371
 21
5.381028188253172
 31
0.0
  0
LINE
  5
140
330
70
100
AcDbEntity
  8
1 F v4_Sketch1
100
AcDbLine
 10
17.18915864379308
 20
9.880492213330587
 30
0.0
 11
17.18915869184451
 21
10.03049229822072
 31
0.0
  0
LINE
  5
141
330
70
100
AcDbEntity
  8
1 F v4_Sketch1
100
AcDbLine
 10
17.18915829085025
 20
10.73049228138975
 30
0.0
 11
16.58915825675999
 21
10.88049223286921
 31
0.0
  0
LINE
  5
142
330
70
100
AcDbEntity
  8
1 F v4_Sketch1
100
AcDbLine
 10
13.43910466054996
 20
9.381045870816862
 30
0.0
 11
13.43910466054996
 21
9.381028061689139
 31
0.0
  0
LINE
  5
143
330
70
100
AcDbEntity
  8
1 F v4_Sketch1
100
AcDbLine
 10
13.43910466054996
 20
9.381045870816862
 30
0.0
 11
13.43910466054996
 21
9.381028061689139
 31
0.0
  0
LINE
  5
144
330
70
100
AcDbEntity
  8
1 F v4_Sketch1
100
AcDbLine
 10
13.43902403128371
 20
5.381045997380895
 30
0.0
 11
13.43902403128371
 21
5.381028188253172
 31
0.0
  0
ARC
  5
145
330
70
100
AcDbEntity
  8
1 F v4_Sketch1
100
AcDbCircle
 10
13.95979806909644
 20
5.268226508782086
 30
0.0
 40
0.1000000000000027
100
AcDbArc
 50
324.0246038578354
 51
69.37445189481842
  0
LINE
  5
146
330
70
100
AcDbEntity
  8
1 F v4_Sketch1
100
AcDbLine
 10
13.43910466054996
 20
9.381045870816862
 30
0.0
 11
13.43910466054996
 21
9.381028061689139
 31
0.0
  0
LINE
  5
147
330
70
100
AcDbEntity
  8
1 F v4_Sketch1
100
AcDbLine
 10
13.43910466054996
 20
9.381045870816862
 30
0.0
 11
13.43910466054996
 21
9.381028061689139
 31
0.0
  0
LINE
  5
148
330
70
100
AcDbEntity
  8
1 F v4_Sketch1
100
AcDbLine
 10
13.43910466054996
 20
9.381045870816862
 30
0.0
 11
13.43910466054996
 21
9.381028061689139
 31
0.0
  0
LINE
  5
149
330
70
100
AcDbEntity
  8
1 F v4_Sketch1
100
AcDbLine
 10
17.18915869184451
 20
3.380493241589949
 30
0.0
 11
16.88232917764962
 21
3.380493270998786
 31
0.0
  0
LINE
  5
14A
330
70
100
AcDbEntity
  8
1 F v4_Sketch1
100
AcDbLine
 10
13.80814944917685
 20
8.888969496773718
 30
0.0
 11
14.1894268981615
 21
8.380563957387366
 31
0.0
  0
ARC
  5
14B
330
70
100
AcDbEntity
  8
1 F v4_Sketch1
100
AcDbCircle
 10
6.459747147586195
 20
2.268339862594334
 30
0.0
 40
0.0999999999999987
100
AcDbArc
 50
324.0257021837246
 51
69.3738629457122
  0
LINE
  5
14C
330
70
100
AcDbEntity
  8
1 F v4_Sketch1
100
AcDbLine
 10
13.43902403128371
 20
5.381045997380895
 30
0.0
 11
13.43902403128371
 21
5.381028188253172
 31
0.0
  0
LINE
  5
14D
330
70
100
AcDbEntity
  8
1 F v4_Sketch1
100
AcDbLine
 10
13.43910466054996
 20
9.381028061689139
 30
0.0
 11
13.43911801646027
 21
9.381045870816862
 31
0.0
  0
LINE
  5
14E
330
70
100
AcDbEntity
  8
1 F v4_Sketch1
100
AcDbLine
 10
13.43902403128371
 20
5.381028188253172
 30
0.0
 11
13.43903738719403
 21
5.381045997380895
 31
0.0
  0
LINE
  5
14F
330
70
100
AcDbEntity
  8
1 F v4_Sketch1
100
AcDbLine
 10
13.43914497303131
 20
10.38045744056895
 30
0.0
 11
13.43914497303131
 21
10.3804752496911
 31
0.0
  0
LINE
  5
150
330
70
100
AcDbEntity
  8
1 F v4_Sketch1
100
AcDbLine
 10
13.43910466054996
 20
9.381045870816862
 30
0.0
 11
13.43910466054996
 21
9.381028061689139
 31
0.0
  0
ARC
  5
151
330
70
100
AcDbEntity
  8
1 F v4_Sketch1
100
AcDbCircle
 10
13.95987869836268
 20
9.268226382218053
 30
0.0
 40
0.1000000000000027
100
AcDbArc
 50
324.0246038578354
 51
69.37445189481519
  0
LINE
  5
152
330
70
100
AcDbEntity
  8
1 F v4_Sketch1
100
AcDbLine
 10
17.18915869184451
 20
6.030492371131662
 30
0.0
 11
17.1891586918445
 21
5.380493363852449
 31
0.0
  0
LINE
  5
153
330
70
100
AcDbEntity
  8
1 F v4_Sketch1
100
AcDbLine
 10
13.43902403128371
 20
5.381045997380895
 30
0.0
 11
13.43902403128371
 21
5.381028188253172
 31
0.0
  0
LINE
  5
154
330
70
100
AcDbEntity
  8
1 F v4_Sketch1
100
AcDbLine
 10
17.18915872434582
 20
6.88049222810698
 30
0.0
 11
17.18915869184451
 21
6.730492146699225
 31
0.0
  0
LINE
  5
155
330
70
100
AcDbEntity
  8
1 F v4_Sketch1
100
AcDbLine
 10
13.8080688199106
 20
4.888969623337748
 30
0.0
 11
14.04072500165004
 21
5.20948272964365
 31
0.0
  0
LINE
  5
156
330
70
100
AcDbEntity
  8
1 F v4_Sketch1
100
AcDbLine
 10
17.18915869184451
 20
2.730492120969552
 30
0.0
 11
16.58915821130871
 21
2.880492240360344
 31
0.0
  0
LINE
  5
157
330
70
100
AcDbEntity
  8
1 F v4_Sketch1
100
AcDbLine
 10
13.80814944917458
 20
7.872158417998666
 30
0.0
 11
14.04080563091416
 21
7.551645311692739
 31
0.0
  0
LINE
  5
158
330
70
100
AcDbEntity
  8
1 F v4_Sketch1
100
AcDbLine
 10
13.43910466054996
 20
9.381045870816862
 30
0.0
 11
13.43910466054996
 21
9.381028061689139
 31
0.0
  0
LINE
  5
159
330
70
100
AcDbEntity
  8
1 F v4_Sketch1
100
AcDbLine
 10
13.43910466054996
 20
9.381045870816862
 30
0.0
 11
13.43910466054996
 21
9.381028061689139
 31
0.0
  0
ARC
  5
15A
330
70
100
AcDbEntity
  8
1 F v4_Sketch1
100
AcDbCircle
 10
13.88934626889525
 20
5.081045997380893
 30
0.0
 40
0.3000000000000038
100
AcDbArc
 50
69.37445189481548
 51
89.99999999999864
  0
LINE
  5
15B
330
70
100
AcDbEntity
  8
1 F v4_Sketch1
100
AcDbLine
 10
13.80814944917458
 20
7.872158417998666
 30
0.0
 11
14.1894268981613
 21
8.380563957387515
 31
0.0
  0
LINE
  5
15C
330
70
100
AcDbEntity
  8
1 F v4_Sketch1
100
AcDbLine
 10
13.43910466054996
 20
9.381028061689139
 30
0.0
 11
13.43911801646027
 21
9.381045870816862
 31
0.0
  0
LINE
  5
15D
330
70
100
AcDbEntity
  8
1 F v4_Sketch1
100
AcDbLine
 10
13.80765571856296
 20
7.871661643079604
 30
0.0
 11
14.18934272357484
 21
8.380627087187011
 31
0.0
  0
ARC
  5
15E
330
70
100
AcDbEntity
  8
1 F v4_Sketch1
100
AcDbCircle
 10
13.88934626889525
 20
5.081045997380892
 30
0.0
 40
0.3000000000000047
100
AcDbArc
 50
69.37445189481554
 51
89.99999999999864
  0
LINE
  5
15F
330
70
100
AcDbEntity
  8
1 F v4_Sketch1
100
AcDbLine
 10
13.43902403128371
 20
5.381028188253172
 30
0.0
 11
13.43903738719403
 21
5.381045997380895
 31
0.0
  0
ARC
  5
160
330
70
100
AcDbEntity
  8
1 F v4_Sketch1
100
AcDbCircle
 10
13.8894268981615
 20
9.081045870816858
 30
0.0
 40
0.3000000000000038
100
AcDbArc
 50
69.37445189481548
 51
89.99999999999864
  0
LINE
  5
161
330
70
100
AcDbEntity
  8
1 F v4_Sketch1
100
AcDbLine
 10
17.18915869184451
 20
10.03049229822072
 30
0.0
 11
16.58915833102694
 21
9.880492113527608
 31
0.0
  0
ARC
  5
162
330
70
100
AcDbEntity
  8
1 F v4_Sketch1
100
AcDbCircle
 10
13.95979806909644
 20
5.268226508782085
 30
0.0
 40
0.1000000000000027
100
AcDbArc
 50
324.0246038578354
 51
69.37445189481824
  0
ARC
  5
163
330
70
100
AcDbEntity
  8
1 F v4_Sketch1
100
AcDbCircle
 10
13.95987869836269
 20
9.268226382218056
 30
0.0
 40
0.1000000000000027
100
AcDbArc
 50
324.0246038578354
 51
69.37445189481614
  0
LINE
  5
164
330
70
100
AcDbEntity
  8
1 F v4_Sketch1
100
AcDbLine
 10
13.80818976165711
 20
10.87253381460613
 30
0.0
 11
14.18946721060244
 21
11.38093935385133
 31
0.0
  0
LINE
  5
165
330
70
100
AcDbEntity
  8
1 F v4_Sketch1
100
AcDbLine
 10
13.8080688199106
 20
4.888969623337748
 30
0.0
 11
14.18934626889526
 21
4.3805640839514
 31
0.0
  0
LINE
  5
166
330
70
100
AcDbEntity
  8
1 F v4_Sketch1
100
AcDbLine
 10
13.43902403128371
 20
5.381028188253172
 30
0.0
 11
13.43903738719403
 21
5.381045997380895
 31
0.0
  0
LINE
  5
167
330
70
100
AcDbEntity
  8
1 F v4_Sketch1
100
AcDbLine
 10
17.18915869184451
 20
3.380493241589949
 30
0.0
 11
17.18915869184451
 21
2.730492120969552
 31
0.0
  0
LINE
  5
168
330
70
100
AcDbEntity
  8
1 F v4_Sketch1
100
AcDbLine
 10
13.43914497303131
 20
10.3804752496911
 30
0.0
 11
13.43914497303131
 21
10.38045744056895
 31
0.0
  0
ARC
  5
169
330
70
100
AcDbEntity
  8
1 F v4_Sketch1
100
AcDbCircle
 10
13.8894268981615
 20
9.081045870816858
 30
0.0
 40
0.3000000000000038
100
AcDbArc
 50
69.37445189481548
 51
89.99999999999864
  0
ARC
  5
16A
330
70
100
AcDbEntity
  8
1 F v4_Sketch1
100
AcDbCircle
 10
13.88934626889357
 20
3.680082170519424
 30
0.0
 40
0.3000000000000043
100
AcDbArc
 50
270.0000000000143
 51
290.6255481051993
  0
LINE
  5
16B
330
70
100
AcDbEntity
  8
1 F v4_Sketch1
100
AcDbLine
 10
13.43902403128371
 20
5.381028188253172
 30
0.0
 11
13.43903738719403
 21
5.381045997380895
 31
0.0
  0
LINE
  5
16C
330
70
100
AcDbEntity
  8
1 F v4_Sketch1
100
AcDbLine
 10
13.43899707368498
 20
2.380637667088573
 30
0.0
 11
13.43899707368498
 21
2.380619857960967
 31
0.0
  0
LINE
  5
16D
330
70
100
AcDbEntity
  8
1 F v4_Sketch1
100
AcDbLine
 10
16.38915830251005
 20
2.680492349555408
 30
0.0
 11
16.38915829323192
 21
2.08049205802291
 31
0.0
  0
ARC
  5
16E
330
70
100
AcDbEntity
  8
1 F v4_Sketch1
100
AcDbCircle
 10
13.88934626889525
 20
5.081045997380893
 30
0.0
 40
0.3000000000000038
100
AcDbArc
 50
69.37445189481548
 51
89.99999999999864
  0
ARC
  5
16F
330
70
100
AcDbEntity
  8
1 F v4_Sketch1
100
AcDbCircle
 10
13.88934626889357
 20
3.680082170519432
 30
0.0
 40
0.3000000000000043
100
AcDbArc
 50
270.0000000000143
 51
290.6255481051997
  0
LINE
  5
170
330
70
100
AcDbEntity
  8
1 F v4_Sketch1
100
AcDbLine
 10
6.689293423333042
 20
1.380678161949526
 30
0.0
 11
12.68873082641465
 21
1.380230412675715
 31
0.0
  0
ARC
  5
171
330
70
100
AcDbEntity
  8
1 F v4_Sketch1
100
AcDbCircle
 10
13.95979806909481
 20
3.492901659118254
 30
0.0
 40
0.1
100
AcDbArc
 50
290.6255481051985
 51
35.9753961421784
  0
LINE
  5
172
330
70
100
AcDbEntity
  8
1 F v4_Sketch1
100
AcDbLine
 10
13.80814957636786
 20
7.872158549887978
 30
0.0
 11
14.04080789602963
 21
7.551642488745868
 31
0.0
  0
ARC
  5
173
330
70
100
AcDbEntity
  8
1 F v4_Sketch1
100
AcDbCircle
 10
13.95987869836269
 20
9.268226382218056
 30
0.0
 40
0.1000000000000027
100
AcDbArc
 50
324.0246038578354
 51
69.37445189481614
  0
LINE
  5
174
330
70
100
AcDbEntity
  8
1 F v4_Sketch1
100
AcDbLine
 10
13.43899707368498
 20
2.380619857960967
 30
0.0
 11
13.43898371777475
 21
2.380637667088573
 31
0.0
  0
LINE
  5
175
330
70
100
AcDbEntity
  8
1 F v4_Sketch1
100
AcDbLine
 10
13.43899707368498
 20
2.380619857960967
 30
0.0
 11
13.43899707368498
 21
2.380637667088573
 31
0.0
  0
LINE
  5
176
330
70
100
AcDbEntity
  8
1 F v4_Sketch1
100
AcDbLine
 10
13.80814944917685
 20
8.888969496773718
 30
0.0
 11
14.1894268981615
 21
8.380563957387366
 31
0.0
  0
LINE
  5
177
330
70
100
AcDbEntity
  8
1 F v4_Sketch1
100
AcDbLine
 10
13.80806881990847
 20
3.872158544563061
 30
0.0
 11
14.04072500164839
 21
3.551645438256697
 31
0.0
  0
ARC
  5
178
330
70
100
AcDbEntity
  8
1 F v4_Sketch1
100
AcDbCircle
 10
13.88934626889357
 20
3.680082170519426
 30
0.0
 40
0.3000000000000043
100
AcDbArc
 50
270.0000000000143
 51
290.6255481052008
  0
LINE
  5
179
330
70
100
AcDbEntity
  8
1 F v4_Sketch1
100
AcDbLine
 10
13.80806881990848
 20
3.872158544563065
 30
0.0
 11
14.04072500164839
 21
3.551645438256707
 31
0.0
  0
ARC
  5
17A
330
70
100
AcDbEntity
  8
1 F v4_Sketch1
100
AcDbCircle
 10
13.95974632372086
 20
2.267817454298989
 30
0.0
 40
0.0999999999999938
100
AcDbArc
 50
324.0257021837562
 51
69.37386294575469
  0
ARC
  5
17B
330
70
100
AcDbEntity
  8
1 F v4_Sketch1
100
AcDbCircle
 10
13.88929259947614
 20
2.080637667088802
 30
0.0
 40
0.3000000000000003
100
AcDbArc
 50
69.37386294575354
 51
90.00000000002849
  0
LINE
  5
17C
330
70
100
AcDbEntity
  8
1 F v4_Sketch1
100
AcDbLine
 10
13.43899707368498
 20
2.380637667088573
 30
0.0
 11
13.43899707368498
 21
2.380619857960967
 31
0.0
  0
ARC
  5
17D
330
70
100
AcDbEntity
  8
1 F v4_Sketch1
100
AcDbCircle
 10
13.95979806909481
 20
3.492901659118246
 30
0.0
 40
0.1000000000000009
100
AcDbArc
 50
290.6255481052006
 51
35.97539614217943
  0
ARC
  5
17E
330
70
100
AcDbEntity
  8
1 F v4_Sketch1
100
AcDbCircle
 10
12.91827478124632
 20
3.492902383309055
 30
0.0
 40
0.100000000000002
100
AcDbArc
 50
144.0257021837289
 51
249.3738629457315
  0
ARC
  5
17F
330
70
100
AcDbEntity
  8
1 F v4_Sketch1
100
AcDbCircle
 10
6.389350303499981
 20
3.679935459053053
 30
0.0
 40
0.3000000000000043
100
AcDbArc
 50
270.0000000000088
 51
290.6255481051932
  0
LINE
  5
180
330
70
100
AcDbEntity
  8
1 F v4_Sketch1
100
AcDbLine
 10
13.80802116255091
 20
1.888553276390537
 30
0.0
 11
14.04067438234279
 21
2.209075226492383
 31
0.0
  0
LINE
  5
181
330
70
100
AcDbEntity
  8
1 F v4_Sketch1
100
AcDbLine
 10
17.18915868685463
 20
2.03049243022681
 30
0.0
 11
16.58915819766693
 21
1.880492230437076
 31
0.0
  0
ARC
  5
182
330
70
100
AcDbEntity
  8
1 F v4_Sketch1
100
AcDbCircle
 10
6.459802103700981
 20
3.492754947651735
 30
0.0
 40
0.1000000000000042
100
AcDbArc
 50
290.6255481051933
 51
35.97539614217111
  0
ARC
  5
183
330
70
100
AcDbEntity
  8
1 F v4_Sketch1
100
AcDbCircle
 10
13.88934626889357
 20
3.680082170519421
 30
0.0
 40
0.3000000000000043
100
AcDbArc
 50
270.0000000000143
 51
290.6255481052011
  0
ARC
  5
184
330
70
100
AcDbEntity
  8
1 F v4_Sketch1
100
AcDbCircle
 10
6.45980210370098
 20
3.492754947651504
 30
0.0
 40
0.0999999999999983
100
AcDbArc
 50
290.6255481051951
 51
35.9753961421743
  0
LINE
  5
185
330
70
100
AcDbEntity
  8
1 F v4_Sketch1
100
AcDbLine
 10
13.80806881990847
 20
3.872158544563061
 30
0.0
 11
14.04072500164839
 21
3.551645438256699
 31
0.0
  0
ARC
  5
186
330
70
100
AcDbEntity
  8
1 F v4_Sketch1
100
AcDbCircle
 10
6.459802103700983
 20
3.492754947651733
 30
0.0
 40
0.0999999999999992
100
AcDbArc
 50
290.6255481051944
 51
35.97539614217258
  0
LINE
  5
187
330
70
100
AcDbEntity
  8
1 F v4_Sketch1
100
AcDbLine
 10
13.80806881990847
 20
3.872158544563062
 30
0.0
 11
14.0407250016484
 21
3.551645438256699
 31
0.0
  0
ARC
  5
188
330
70
100
AcDbEntity
  8
1 F v4_Sketch1
100
AcDbCircle
 10
13.95979806909481
 20
3.492901659118246
 30
0.0
 40
0.1000000000000013
100
AcDbArc
 50
290.6255481052005
 51
35.97539614217638
  0
ARC
  5
189
330
70
100
AcDbEntity
  8
1 F v4_Sketch1
100
AcDbCircle
 10
12.91822303587233
 20
2.267818178489498
 30
0.0
 40
0.0999999999999995
100
AcDbArc
 50
110.625548105228
 51
215.9753961421981
  0
ARC
  5
18A
330
70
100
AcDbEntity
  8
1 F v4_Sketch1
100
AcDbCircle
 10
6.459802103701196
 20
3.492754947651869
 30
0.0
 40
0.1000000000000017
100
AcDbArc
 50
290.6255481051939
 51
35.97539614217231
  0
ARC
  5
18B
330
70
100
AcDbEntity
  8
1 F v4_Sketch1
100
AcDbCircle
 10
12.9887285054911
 20
3.680082170519219
 30
0.0
 40
0.3000000000000056
100
AcDbArc
 50
249.3738629457318
 51
270.0000000000145
  0
ARC
  5
18C
330
70
100
AcDbEntity
  8
1 F v4_Sketch1
100
AcDbCircle
 10
12.91827478124632
 20
3.492902383309048
 30
0.0
 40
0.0999999999999992
100
AcDbArc
 50
144.0257021837276
 51
249.3738629457319
  0
ARC
  5
18D
330
70
100
AcDbEntity
  8
1 F v4_Sketch1
100
AcDbCircle
 10
6.389350303499758
 20
3.679935459052691
 30
0.0
 40
0.3000000000000043
100
AcDbArc
 50
270.0000000000088
 51
290.6255481051945
  0
ARC
  5
18E
330
70
100
AcDbEntity
  8
1 F v4_Sketch1
100
AcDbCircle
 10
13.8894268981615
 20
9.081045870816858
 30
0.0
 40
0.3000000000000038
100
AcDbArc
 50
69.37445189481548
 51
89.99999999999864
  0
ARC
  5
18F
330
70
100
AcDbEntity
  8
1 F v4_Sketch1
100
AcDbCircle
 10
12.9887285054911
 20
3.680082170519221
 30
0.0
 40
0.3000000000000056
100
AcDbArc
 50
249.3738629457318
 51
270.0000000000145
  0
LINE
  5
190
330
70
100
AcDbEntity
  8
1 F v4_Sketch1
100
AcDbLine
 10
17.18915829133714
 20
10.88049222811713
 30
0.0
 11
17.1891579710397
 21
11.38049213125958
 31
0.0
  0
LINE
  5
191
330
70
100
AcDbEntity
  8
1 F v4_Sketch1
100
AcDbLine
 10
13.80814944917685
 20
8.888969496773718
 30
0.0
 11
14.1894268981615
 21
8.380563957387366
 31
0.0
  0
LINE
  5
192
330
70
100
AcDbEntity
  8
1 F v4_Sketch1
100
AcDbLine
 10
13.80806881990847
 20
3.872158544563061
 30
0.0
 11
14.18934626889493
 21
4.380564083951643
 31
0.0
  0
ARC
  5
193
330
70
100
AcDbEntity
  8
1 F v4_Sketch1
100
AcDbCircle
 10
6.389293423341349
 20
2.081160075384199
 30
0.0
 40
0.2999999999999996
100
AcDbArc
 50
69.3738629457118
 51
89.99999999999422
  0
ARC
  5
194
330
70
100
AcDbEntity
  8
1 F v4_Sketch1
100
AcDbCircle
 10
12.98867483607366
 20
2.080637667088354
 30
0.0
 40
0.3000000000000016
100
AcDbArc
 50
90.00000000002849
 51
110.6255481052278
  0
ARC
  5
195
330
70
100
AcDbEntity
  8
1 F v4_Sketch1
100
AcDbCircle
 10
12.91827478124632
 20
3.492902383309056
 30
0.0
 40
0.0999999999999992
100
AcDbArc
 50
144.0257021837276
 51
249.3738629457319
  0
LINE
  5
196
330
70
100
AcDbEntity
  8
1 F v4_Sketch1
100
AcDbLine
 10
13.80814944917458
 20
7.872158417998665
 30
0.0
 11
14.04080563091416
 21
7.551645311692739
 31
0.0
  0
LINE
  5
197
330
70
100
AcDbEntity
  8
1 F v4_Sketch1
100
AcDbLine
 10
13.80814944917685
 20
8.888969496773718
 30
0.0
 11
14.1894268981615
 21
8.380563957387366
 31
0.0
  0
LINE
  5
198
330
70
100
AcDbEntity
  8
1 F v4_Sketch1
100
AcDbLine
 10
13.43902403128371
 20
5.381045997380895
 30
0.0
 11
13.43902403128371
 21
5.381028188253172
 31
0.0
  0
ARC
  5
199
330
70
100
AcDbEntity
  8
1 F v4_Sketch1
100
AcDbCircle
 10
16.58915822093035
 20
10.08049220661057
 30
0.0
 40
0.2000000039258758
100
AcDbArc
 50
180.0000004457341
 51
270.0000016789023
  0
ARC
  5
19A
330
70
100
AcDbEntity
  8
1 F v4_Sketch1
100
AcDbCircle
 10
16.58915824132107
 20
10.68049222140409
 30
0.0
 40
0.2000000114651149
100
AcDbArc
 50
89.99999557707614
 51
179.9999980030642
  0
LINE
  5
19B
330
70
100
AcDbEntity
  8
1 F v4_Sketch1
100
AcDbLine
 10
17.18915829133714
 20
10.88049222811713
 30
0.0
 11
17.18915829085025
 21
10.73049228138975
 31
0.0
  0
LINE
  5
19C
330
70
100
AcDbEntity
  8
1 F v4_Sketch1
100
AcDbLine
 10
13.80814957636786
 20
7.872158549887978
 30
0.0
 11
14.18942690940117
 21
8.380563948958203
 31
0.0
  0
ARC
  5
19D
330
70
100
AcDbEntity
  8
1 F v4_Sketch1
100
AcDbCircle
 10
6.389350303499766
 20
3.679935459052918
 30
0.0
 40
0.3000000000000043
100
AcDbArc
 50
270.0000000000074
 51
290.625548105193
  0
LINE
  5
19E
330
70
100
AcDbEntity
  8
1 F v4_Sketch1
100
AcDbLine
 10
13.80818976165711
 20
10.87253381460613
 30
0.0
 11
14.04084594339245
 21
10.55202070830664
 31
0.0
  0
LINE
  5
19F
330
70
100
AcDbEntity
  8
1 F v4_Sketch1
100
AcDbLine
 10
16.88030671273798
 20
9.380490366626963
 30
0.0
 11
16.8803057479229
 21
7.380492232755235
 31
0.0
  0
LINE
  5
1A0
330
70
100
AcDbEntity
  8
1 F v4_Sketch1
100
AcDbLine
 10
16.38915822985596
 20
10.68049222837471
 30
0.0
 11
16.38915823108069
 21
10.08049226171841
 31
0.0
  0
ARC
  5
1A1
330
70
100
AcDbEntity
  8
1 F v4_Sketch1
100
AcDbCircle
 10
13.88934626889525
 20
5.081045997380893
 30
0.0
 40
0.3000000000000038
100
AcDbArc
 50
69.37445189481548
 51
89.99999999999864
  0
ARC
  5
1A2
330
70
100
AcDbEntity
  8
1 F v4_Sketch1
100
AcDbCircle
 10
13.95991901083892
 20
10.49327692916812
 30
0.0
 40
0.0999999999999983
100
AcDbArc
 50
290.6255481052435
 51
35.97539614222765
  0
LINE
  5
1A3
330
70
100
AcDbEntity
  8
1 F v4_Sketch1
100
AcDbLine
 10
17.18915869184451
 20
11.38093935378974
 30
0.0
 11
17.18915869184451
 21
10.73049225332158
 31
0.0
  0
ARC
  5
1A4
330
70
100
AcDbEntity
  8
1 F v4_Sketch1
100
AcDbCircle
 10
13.88946721063753
 20
10.68045744056924
 30
0.0
 40
0.300000000000006
100
AcDbArc
 50
270.0000000000362
 51
290.6255481052447
  0
LINE
  5
1A5
330
70
100
AcDbEntity
  8
1 F v4_Sketch1
100
AcDbLine
 10
17.18915869184451
 20
6.030492371131662
 30
0.0
 11
16.58915825378261
 21
5.880492178047017
 31
0.0
  0
LINE
  5
1A6
330
70
100
AcDbEntity
  8
1 F v4_Sketch1
100
AcDbLine
 10
13.43903738720994
 20
4.380564873207245
 30
0.0
 11
13.43903738720994
 21
4.380564873207245
 31
0.0
  0
ARC
  5
1A7
330
70
100
AcDbEntity
  8
1 F v4_Sketch1
100
AcDbCircle
 10
13.95979806909644
 20
5.268226508782086
 30
0.0
 40
0.1000000000000027
100
AcDbArc
 50
324.0246038578354
 51
69.37445189481842
  0
LINE
  5
1A8
330
70
100
AcDbEntity
  8
1 F v4_Sketch1
100
AcDbLine
 10
13.8080688199106
 20
4.888969623337748
 30
0.0
 11
14.04072500165004
 21
5.20948272964365
 31
0.0
  0
ARC
  5
1A9
330
70
100
AcDbEntity
  8
1 F v4_Sketch1
100
AcDbCircle
 10
12.91827478124632
 20
3.492902383309056
 30
0.0
 40
0.0999999999999989
100
AcDbArc
 50
144.0257021837278
 51
249.3738629457318
  0
LINE
  5
1AA
330
70
100
AcDbEntity
  8
1 F v4_Sketch1
100
AcDbLine
 10
17.18915866250623
 20
5.880492213218191
 30
0.0
 11
17.18915869184451
 21
6.030492371131662
 31
0.0
  0
ARC
  5
1AB
330
70
100
AcDbEntity
  8
1 F v4_Sketch1
100
AcDbCircle
 10
16.58915824125132
 20
2.080492178456511
 30
0.0
 40
0.1999999480194326
100
AcDbArc
 50
180.0000345016943
 51
269.9999875139889
  0
LINE
  5
1AC
330
70
100
AcDbEntity
  8
1 F v4_Sketch1
100
AcDbLine
 10
13.43914497303131
 20
10.3804752496911
 30
0.0
 11
13.43915832893743
 21
10.38045744056895
 31
0.0
  0
ARC
  5
1AD
330
70
100
AcDbEntity
  8
1 F v4_Sketch1
100
AcDbCircle
 10
6.389350303499762
 20
3.679935459052919
 30
0.0
 40
0.3000000000000043
100
AcDbArc
 50
270.0000000000081
 51
290.6255481051943
  0
ARC
  5
1AE
330
70
100
AcDbEntity
  8
1 F v4_Sketch1
100
AcDbCircle
 10
13.95987869836269
 20
9.268226382218056
 30
0.0
 40
0.1000000000000027
100
AcDbArc
 50
324.0246038578354
 51
69.37445189481614
  0
LINE
  5
1AF
330
70
100
AcDbEntity
  8
1 F v4_Sketch1
100
AcDbLine
 10
16.88232936934453
 20
5.380493363852355
 30
0.0
 11
16.88232917764962
 21
3.380493270998786
 31
0.0
  0
ARC
  5
1B0
330
70
100
AcDbEntity
  8
1 F v4_Sketch1
100
AcDbCircle
 10
16.58915825845165
 20
2.680492284418748
 30
0.0
 40
0.1999999559416021
100
AcDbArc
 50
90.0000135054595
 51
179.9999813397173
  0
LINE
  5
1B1
330
70
100
AcDbEntity
  8
1 F v4_Sketch1
100
AcDbLine
 10
17.18915870758069
 20
2.880492228110292
 30
0.0
 11
17.18915869184451
 21
3.380493241589949
 31
0.0
  0
ARC
  5
1B2
330
70
100
AcDbEntity
  8
1 F v4_Sketch1
100
AcDbCircle
 10
12.98872850549111
 20
3.680082170519218
 30
0.0
 40
0.3000000000000044
100
AcDbArc
 50
249.373862945731
 51
270.0000000000132
  0
LINE
  5
1B3
330
70
100
AcDbEntity
  8
1 F v4_Sketch1
100
AcDbLine
 10
13.8080688199106
 20
4.888969623337748
 30
0.0
 11
14.18934626889526
 21
4.3805640839514
 31
0.0
  0
ARC
  5
1B4
330
70
100
AcDbEntity
  8
1 F v4_Sketch1
100
AcDbCircle
 10
16.58915825269061
 20
6.080492178544714
 30
0.0
 40
0.2000000004976954
100
AcDbArc
 50
180.0000002536637
 51
270.0000003128363
  0
LINE
  5
1B5
330
70
100
AcDbEntity
  8
1 F v4_Sketch1
100
AcDbLine
 10
13.43902403128371
 20
5.381045997380895
 30
0.0
 11
13.43902403128371
 21
5.381028188253172
 31
0.0
  0
ARC
  5
1B6
330
70
100
AcDbEntity
  8
1 F v4_Sketch1
100
AcDbCircle
 10
13.95979806909481
 20
3.492901659118244
 30
0.0
 40
0.0999999999999976
100
AcDbArc
 50
290.6255481052013
 51
35.97539614218001
  0
LINE
  5
1B7
330
70
100
AcDbEntity
  8
1 F v4_Sketch1
100
AcDbLine
 10
13.80806881990847
 20
3.872158544563062
 30
0.0
 11
14.18934626889493
 21
4.380564083951643
 31
0.0
  0
LINE
  5
1B8
330
70
100
AcDbEntity
  8
1 F v4_Sketch1
100
AcDbLine
 10
17.1891586918445
 20
5.380493363852449
 30
0.0
 11
16.88232936934453
 21
5.380493363852355
 31
0.0
  0
LINE
  5
1B9
330
70
100
AcDbEntity
  8
1 F v4_Sketch1
100
AcDbLine
 10
12.68872850551269
 20
4.380564083966314
 30
0.0
 11
13.06999994241955
 21
3.8721665612217
 31
0.0
  0
LINE
  5
1BA
330
70
100
AcDbEntity
  8
1 F v4_Sketch1
100
AcDbLine
 10
12.6887285054928
 20
4.380564083951402
 30
0.0
 11
13.06999994241276
 21
4.888961606690021
 31
0.0
  0
LINE
  5
1BB
330
70
100
AcDbEntity
  8
1 F v4_Sketch1
100
AcDbLine
 10
12.6892043802088
 20
8.380860453716703
 30
0.0
 11
13.07265729950352
 21
7.869439710561993
 31
0.0
  0
LINE
  5
1BC
330
70
100
AcDbEntity
  8
1 F v4_Sketch1
100
AcDbLine
 10
13.0857118325819
 20
7.855616141130867
 30
0.0
 11
12.8614048373736
 21
7.548804298918726
 31
0.0
  0
LINE
  5
1BD
330
70
100
AcDbEntity
  8
1 F v4_Sketch1
100
AcDbLine
 10
12.98880913475905
 20
9.381045870816866
 30
0.0
 11
13.8894268981615
 21
9.381045870816862
 31
0.0
  0
ARC
  5
1BE
330
70
100
AcDbEntity
  8
1 F v4_Sketch1
100
AcDbCircle
 10
12.98872850549281
 20
5.081045997380895
 30
0.0
 40
0.3000000000000043
100
AcDbArc
 50
90.00000000000067
 51
110.6261370542835
  0
LINE
  5
1BF
330
70
100
AcDbEntity
  8
1 F v4_Sketch1
100
AcDbLine
 10
17.18915864274933
 20
1.880492213218522
 30
0.0
 11
17.18915868685463
 21
2.03049243022681
 31
0.0
  0
LINE
  5
1C0
330
70
100
AcDbEntity
  8
1 F v4_Sketch1
100
AcDbLine
 10
12.98872850549281
 20
5.381045997380899
 30
0.0
 11
13.88934626889526
 21
5.381045997380897
 31
0.0
  0
LINE
  5
1C1
330
70
100
AcDbEntity
  8
1 F v4_Sketch1
100
AcDbLine
 10
13.06999994241276
 20
4.888961606690021
 30
0.0
 11
12.83734672262606
 21
5.209483556784393
 31
0.0
  0
LINE
  5
1C2
330
70
100
AcDbEntity
  8
1 F v4_Sketch1
100
AcDbLine
 10
12.69121314059592
 20
8.382367390165377
 30
0.0
 11
13.0857118325819
 21
7.855616141130867
 31
0.0
  0
LINE
  5
1C3
330
70
100
AcDbEntity
  8
1 F v4_Sketch1
100
AcDbLine
 10
17.18915870758069
 20
2.880492228110292
 30
0.0
 11
17.18915869184451
 21
2.730492120969552
 31
0.0
  0
LINE
  5
1C4
330
70
100
AcDbEntity
  8
1 F v4_Sketch1
100
AcDbLine
 10
13.07008057167901
 20
8.888961480125988
 30
0.0
 11
12.83742735189231
 21
9.209483430220359
 31
0.0
  0
LINE
  5
1C5
330
70
100
AcDbEntity
  8
1 F v4_Sketch1
100
AcDbLine
 10
13.07008057167901
 20
8.888961480125988
 30
0.0
 11
12.83742735189231
 21
9.209483430220359
 31
0.0
  0
LINE
  5
1C6
330
70
100
AcDbEntity
  8
1 F v4_Sketch1
100
AcDbLine
 10
12.68872850551268
 20
4.380564083966314
 30
0.0
 11
13.06999994241955
 21
3.872166561221701
 31
0.0
  0
LINE
  5
1C7
330
70
100
AcDbEntity
  8
1 F v4_Sketch1
100
AcDbLine
 10
12.6887285054928
 20
4.380564083951402
 30
0.0
 11
13.06999994241276
 21
4.888961606690021
 31
0.0
  0
LINE
  5
1C8
330
70
100
AcDbEntity
  8
1 F v4_Sketch1
100
AcDbLine
 10
13.06999994241955
 20
3.872166561221694
 30
0.0
 11
12.83734672262441
 21
3.551644611115698
 31
0.0
  0
LINE
  5
1C9
330
70
100
AcDbEntity
  8
1 F v4_Sketch1
100
AcDbLine
 10
12.68880913475905
 20
8.380563957387369
 30
0.0
 11
13.07008057167901
 21
8.888961480125988
 31
0.0
  0
LINE
  5
1CA
330
70
100
AcDbEntity
  8
1 F v4_Sketch1
100
AcDbLine
 10
13.06999994241276
 20
4.888961606690021
 30
0.0
 11
12.83734672262606
 21
5.209483556784393
 31
0.0
  0
LINE
  5
1CB
330
70
100
AcDbEntity
  8
1 F v4_Sketch1
100
AcDbLine
 10
13.06995228505851
 20
1.888561293045104
 30
0.0
 11
12.68867483607227
 21
1.380155753656955
 31
0.0
  0
ARC
  5
1CC
330
70
100
AcDbEntity
  8
1 F v4_Sketch1
100
AcDbCircle
 10
6.459802103702632
 20
5.268079797315678
 30
0.0
 40
0.1000000000000027
100
AcDbArc
 50
324.0246038578354
 51
69.37445189481502
  0
LINE
  5
1CD
330
70
100
AcDbEntity
  8
1 F v4_Sketch1
100
AcDbLine
 10
13.06999994241955
 20
3.872166561221698
 30
0.0
 11
12.83734672262441
 21
3.551644611115706
 31
0.0
  0
LINE
  5
1CE
330
70
100
AcDbEntity
  8
1 F v4_Sketch1
100
AcDbLine
 10
12.68880913475905
 20
8.380563957387369
 30
0.0
 11
13.07008057167901
 21
8.888961480125988
 31
0.0
  0
LINE
  5
1CF
330
70
100
AcDbEntity
  8
1 F v4_Sketch1
100
AcDbLine
 10
12.98880913475905
 20
9.381045870816866
 30
0.0
 11
13.88942689816151
 21
9.381045870816862
 31
0.0
  0
LINE
  5
1D0
330
70
100
AcDbEntity
  8
1 F v4_Sketch1
100
AcDbLine
 10
13.06995228505851
 20
1.888561293045104
 30
0.0
 11
12.83729610331876
 21
2.209074399351017
 31
0.0
  0
LINE
  5
1D1
330
70
100
AcDbEntity
  8
1 F v4_Sketch1
100
AcDbLine
 10
13.80814944917685
 20
8.888969496773718
 30
0.0
 11
14.04080563091629
 21
9.209482603079621
 31
0.0
  0
LINE
  5
1D2
330
70
100
AcDbEntity
  8
1 F v4_Sketch1
100
AcDbLine
 10
17.18915849612706
 20
1.380492131256866
 30
0.0
 11
17.18915864274933
 21
1.880492213218522
 31
0.0
  0
LINE
  5
1D3
330
70
100
AcDbEntity
  8
1 F v4_Sketch1
100
AcDbLine
 10
16.3891582521584
 20
6.680492232090621
 30
0.0
 11
16.38915825219291
 21
6.080492177659261
 31
0.0
  0
ARC
  5
1D4
330
70
100
AcDbEntity
  8
1 F v4_Sketch1
100
AcDbCircle
 10
6.459802103702632
 20
5.26807979731568
 30
0.0
 40
0.1000000000000027
100
AcDbArc
 50
324.0246038578354
 51
69.37445189481454
  0
LINE
  5
1D5
330
70
100
AcDbEntity
  8
1 F v4_Sketch1
100
AcDbLine
 10
14.18929259945908
 20
1.380155753653185
 30
0.0
 11
13.80802116255091
 21
1.888553276390537
 31
0.0
  0
ARC
  5
1D6
330
70
100
AcDbEntity
  8
1 F v4_Sketch1
100
AcDbCircle
 10
6.459932724666055
 20
10.49327692917068
 30
0.0
 40
0.0999999999999959
100
AcDbArc
 50
290.6255481051908
 51
35.9753961421746
  0
LINE
  5
1D7
330
70
100
AcDbEntity
  8
1 F v4_Sketch1
100
AcDbLine
 10
17.18915869184451
 20
9.380490217634243
 30
0.0
 11
17.18915864379308
 21
9.880492213330587
 31
0.0
  0
ARC
  5
1D8
330
70
100
AcDbEntity
  8
1 F v4_Sketch1
100
AcDbCircle
 10
12.98884944723697
 20
10.68045744056867
 30
0.0
 40
0.3000000000000016
100
AcDbArc
 50
249.37386294577
 51
270.0000000000356
  0
ARC
  5
1D9
330
70
100
AcDbEntity
  8
1 F v4_Sketch1
100
AcDbCircle
 10
6.389350303501444
 20
5.080899285914485
 30
0.0
 40
0.3000000000000038
100
AcDbArc
 50
69.37445189481548
 51
89.99999999999864
  0
LINE
  5
1DA
330
70
100
AcDbEntity
  8
1 F v4_Sketch1
100
AcDbLine
 10
14.18929259945908
 20
1.380155753653185
 30
0.0
 11
17.18915849612706
 21
1.380492131256866
 31
0.0
  0
ARC
  5
1DB
330
70
100
AcDbEntity
  8
1 F v4_Sketch1
100
AcDbCircle
 10
12.91839572299231
 20
10.49327765335846
 30
0.0
 40
0.0999999999999951
100
AcDbArc
 50
144.0257021837621
 51
249.3738629457721
  0
LINE
  5
1DC
330
70
100
AcDbEntity
  8
1 F v4_Sketch1
100
AcDbLine
 10
14.18946721060244
 20
11.38093935385133
 30
0.0
 11
17.18915869184451
 21
11.38093935378974
 31
0.0
  0
LINE
  5
1DD
330
70
100
AcDbEntity
  8
1 F v4_Sketch1
100
AcDbLine
 10
13.00325184832836
 20
7.942791274381682
 30
0.0
 11
12.73188303152357
 21
7.557313464440127
 31
0.0
  0
LINE
  5
1DE
330
70
100
AcDbEntity
  8
1 F v4_Sketch1
100
AcDbLine
 10
13.07008057167901
 20
8.888961480125988
 30
0.0
 11
12.83742735189231
 21
9.209483430220359
 31
0.0
  0
ARC
  5
1DF
330
70
100
AcDbEntity
  8
1 F v4_Sketch1
100
AcDbCircle
 10
6.38948092446483
 20
10.68045744057187
 30
0.0
 40
0.3000000000000167
100
AcDbArc
 50
270.0000000000088
 51
290.6255481051938
  0
LINE
  5
1E0
330
70
100
AcDbEntity
  8
1 F v4_Sketch1
100
AcDbLine
 10
5.939028065889905
 20
5.380899285914488
 30
0.0
 11
5.939028065889905
 21
5.380881476786766
 31
0.0
  0
LINE
  5
1E1
330
70
100
AcDbEntity
  8
1 F v4_Sketch1
100
AcDbLine
 10
5.188732540098994
 20
4.380417372484996
 30
0.0
 11
5.570003977018952
 21
4.888814895223616
 31
0.0
  0
LINE
  5
1E2
330
70
100
AcDbEntity
  8
1 F v4_Sketch1
100
AcDbLine
 10
17.18915869184451
 20
10.03049229822072
 30
0.0
 11
17.18915869184451
 21
9.380490217634243
 31
0.0
  0
LINE
  5
1E3
330
70
100
AcDbEntity
  8
1 F v4_Sketch1
100
AcDbLine
 10
6.689480924466813
 20
11.38093935400532
 30
0.0
 11
12.6888494475653
 21
11.38093935388214
 31
0.0
  0
LINE
  5
1E4
330
70
100
AcDbEntity
  8
1 F v4_Sketch1
100
AcDbLine
 10
2.189158691844506
 20
5.88050006339796
 30
0.0
 11
2.189158743783088
 21
6.03050006227941
 31
0.0
  0
LINE
  5
1E5
330
70
100
AcDbEntity
  8
1 F v4_Sketch1
100
AcDbLine
 10
13.06999994241955
 20
3.872166561221701
 30
0.0
 11
12.83734672262441
 21
3.551644611115706
 31
0.0
  0
LINE
  5
1E6
330
70
100
AcDbEntity
  8
1 F v4_Sketch1
100
AcDbLine
 10
5.939028065889905
 20
5.380899285914488
 30
0.0
 11
5.939028065889905
 21
5.380881476786766
 31
0.0
  0
LINE
  5
1E7
330
70
100
AcDbEntity
  8
1 F v4_Sketch1
100
AcDbLine
 10
2.189158691844506
 20
5.380489744255006
 30
0.0
 11
2.498339127600876
 21
5.380489979219494
 31
0.0
  0
LINE
  5
1E8
330
70
100
AcDbEntity
  8
1 F v4_Sketch1
100
AcDbLine
 10
13.80814944917685
 20
8.888969496773718
 30
0.0
 11
14.04080563091629
 21
9.209482603079621
 31
0.0
  0
LINE
  5
1E9
330
70
100
AcDbEntity
  8
1 F v4_Sketch1
100
AcDbLine
 10
5.570003977018952
 20
4.888814895223616
 30
0.0
 11
5.337350757232256
 21
5.209336845317986
 31
0.0
  0
LINE
  5
1EA
330
70
100
AcDbEntity
  8
1 F v4_Sketch1
100
AcDbLine
 10
5.188732540098994
 20
4.380417372484996
 30
0.0
 11
5.57000397701895
 21
4.888814895223616
 31
0.0
  0
LINE
  5
1EB
330
70
100
AcDbEntity
  8
1 F v4_Sketch1
100
AcDbLine
 10
12.6887285054928
 20
4.380564083951402
 30
0.0
 11
13.06999994241276
 21
4.888961606690021
 31
0.0
  0
LINE
  5
1EC
330
70
100
AcDbEntity
  8
1 F v4_Sketch1
100
AcDbLine
 10
5.570003977018952
 20
4.888814895223616
 30
0.0
 11
5.337350757232256
 21
5.209336845317986
 31
0.0
  0
LINE
  5
1ED
330
70
100
AcDbEntity
  8
1 F v4_Sketch1
100
AcDbLine
 10
5.939028065889905
 20
5.380881476786766
 30
0.0
 11
5.939041421800217
 21
5.380899285914488
 31
0.0
  0
LINE
  5
1EE
330
70
100
AcDbEntity
  8
1 F v4_Sketch1
100
AcDbLine
 10
13.10771741675545
 20
7.832239158936197
 30
0.0
 11
12.89747194431724
 21
7.547559148423983
 31
0.0
  0
ARC
  5
1EF
330
70
100
AcDbEntity
  8
1 F v4_Sketch1
100
AcDbCircle
 10
5.418278815854167
 20
5.268079073124633
 30
0.0
 40
0.0999999999999988
100
AcDbArc
 50
110.6261370542812
 51
215.974297816271
  0
LINE
  5
1F0
330
70
100
AcDbEntity
  8
1 F v4_Sketch1
100
AcDbLine
 10
2.189158691844506
 20
5.380489744255006
 30
0.0
 11
2.189158691844506
 21
5.88050006339796
 31
0.0
  0
LINE
  5
1F1
330
70
100
AcDbEntity
  8
1 F v4_Sketch1
100
AcDbLine
 10
12.98884944723716
 20
10.38045744056867
 30
0.0
 11
13.88946721063772
 21
10.38045744056924
 31
0.0
  0
ARC
  5
1F2
330
70
100
AcDbEntity
  8
1 F v4_Sketch1
100
AcDbCircle
 10
12.98872850549281
 20
5.081045997380895
 30
0.0
 40
0.3000000000000043
100
AcDbArc
 50
90.00000000000067
 51
110.6261370542835
  0
ARC
  5
1F3
330
70
100
AcDbEntity
  8
1 F v4_Sketch1
100
AcDbCircle
 10
12.91827478124798
 20
5.26822578459104
 30
0.0
 40
0.0999999999999988
100
AcDbArc
 50
110.6261370542812
 51
215.9742978162713
  0
LINE
  5
1F4
330
70
100
AcDbEntity
  8
1 F v4_Sketch1
100
AcDbLine
 10
5.188732540098994
 20
4.380417372484996
 30
0.0
 11
5.570003977018952
 21
4.888814895223616
 31
0.0
  0
LINE
  5
1F5
330
70
100
AcDbEntity
  8
1 F v4_Sketch1
100
AcDbLine
 10
12.98872850549281
 20
5.381045997380899
 30
0.0
 11
13.88934626889526
 21
5.381045997380896
 31
0.0
  0
ARC
  5
1F6
330
70
100
AcDbEntity
  8
1 F v4_Sketch1
100
AcDbCircle
 10
2.789094456471686
 20
6.080518211161686
 30
0.0
 40
0.2000000001450751
100
AcDbArc
 50
269.9972753049464
 51
0.0044607857314297
  0
LINE
  5
1F7
330
70
100
AcDbEntity
  8
1 F v4_Sketch1
100
AcDbLine
 10
12.68880913475905
 20
8.380563957387369
 30
0.0
 11
13.07008057167901
 21
8.888961480125988
 31
0.0
  0
LINE
  5
1F8
330
70
100
AcDbEntity
  8
1 F v4_Sketch1
100
AcDbLine
 10
5.188732540098994
 20
4.380417372484996
 30
0.0
 11
5.570003977018952
 21
4.888814895223616
 31
0.0
  0
LINE
  5
1F9
330
70
100
AcDbEntity
  8
1 F v4_Sketch1
100
AcDbLine
 10
5.57000397701895
 20
4.888814895223616
 30
0.0
 11
5.337350757232256
 21
5.209336845317986
 31
0.0
  0
ARC
  5
1FA
330
70
100
AcDbEntity
  8
1 F v4_Sketch1
100
AcDbCircle
 10
12.98872850549281
 20
5.081045997380895
 30
0.0
 40
0.3000000000000043
100
AcDbArc
 50
90.00000000000067
 51
110.6261370542835
  0
LINE
  5
1FB
330
70
100
AcDbEntity
  8
1 F v4_Sketch1
100
AcDbLine
 10
2.189158691844509
 20
1.880492058549652
 30
0.0
 11
2.189158688894821
 21
2.03049205812345
 31
0.0
  0
LINE
  5
1FC
330
70
100
AcDbEntity
  8
1 F v4_Sketch1
100
AcDbLine
 10
5.939028065889905
 20
5.380899285914488
 30
0.0
 11
5.939028065889905
 21
5.380881476786766
 31
0.0
  0
LINE
  5
1FD
330
70
100
AcDbEntity
  8
1 F v4_Sketch1
100
AcDbLine
 10
12.6888494475653
 20
11.38093935388214
 30
0.0
 11
13.07012088421512
 21
10.87254183133984
 31
0.0
  0
LINE
  5
1FE
330
70
100
AcDbEntity
  8
1 F v4_Sketch1
100
AcDbLine
 10
5.939028065889905
 20
5.380899285914488
 30
0.0
 11
5.939028065889905
 21
5.380881476786766
 31
0.0
  0
LINE
  5
1FF
330
70
100
AcDbEntity
  8
1 F v4_Sketch1
100
AcDbLine
 10
13.06999994241955
 20
3.8721665612217
 30
0.0
 11
12.83734672262441
 21
3.551644611115705
 31
0.0
  0
LINE
  5
200
330
70
100
AcDbEntity
  8
1 F v4_Sketch1
100
AcDbLine
 10
13.07008057167901
 20
8.888961480125988
 30
0.0
 11
12.83742735189231
 21
9.209483430220359
 31
0.0
  0
LINE
  5
201
330
70
100
AcDbEntity
  8
1 F v4_Sketch1
100
AcDbLine
 10
13.88929259947599
 20
2.380637667088804
 30
0.0
 11
12.98867483607351
 21
2.380637667088356
 31
0.0
  0
LINE
  5
202
330
70
100
AcDbEntity
  8
1 F v4_Sketch1
100
AcDbLine
 10
13.07012088421512
 20
10.87254183133984
 30
0.0
 11
12.83746766437037
 21
10.55201988116506
 31
0.0
  0
LINE
  5
203
330
70
100
AcDbEntity
  8
1 F v4_Sketch1
100
AcDbLine
 10
12.68880913475905
 20
8.380563957387369
 30
0.0
 11
13.07008057167901
 21
8.888961480125988
 31
0.0
  0
ARC
  5
204
330
70
100
AcDbEntity
  8
1 F v4_Sketch1
100
AcDbCircle
 10
12.98872850549281
 20
5.081045997380895
 30
0.0
 40
0.3000000000000043
100
AcDbArc
 50
90.00000000000067
 51
110.6261370542835
  0
LINE
  5
205
330
70
100
AcDbEntity
  8
1 F v4_Sketch1
100
AcDbLine
 10
12.98872850549281
 20
5.381045997380899
 30
0.0
 11
13.88934626889526
 21
5.381045997380897
 31
0.0
  0
LINE
  5
206
330
70
100
AcDbEntity
  8
1 F v4_Sketch1
100
AcDbLine
 10
5.188863161067218
 20
11.38093935403613
 30
0.0
 11
5.570134597990103
 21
10.87254183127278
 31
0.0
  0
LINE
  5
207
330
70
100
AcDbEntity
  8
1 F v4_Sketch1
100
AcDbLine
 10
5.939028065889905
 20
5.380881476786766
 30
0.0
 11
5.939041421800217
 21
5.380899285914488
 31
0.0
  0
LINE
  5
208
330
70
100
AcDbEntity
  8
1 F v4_Sketch1
100
AcDbLine
 10
5.56995310892292
 20
1.889083701341942
 30
0.0
 11
5.337296927184171
 21
2.209596807647058
 31
0.0
  0
LINE
  5
209
330
70
100
AcDbEntity
  8
1 F v4_Sketch1
100
AcDbLine
 10
5.938997897550503
 20
2.381142266256522
 30
0.0
 11
5.938984541640191
 21
2.381160075384245
 31
0.0
  0
ARC
  5
20A
330
70
100
AcDbEntity
  8
1 F v4_Sketch1
100
AcDbCircle
 10
5.418278815852771
 20
3.492755671842638
 30
0.0
 40
0.0999999999999986
100
AcDbArc
 50
144.025702183729
 51
249.3738629457259
  0
ARC
  5
20B
330
70
100
AcDbEntity
  8
1 F v4_Sketch1
100
AcDbCircle
 10
5.418223859737773
 20
2.268340586785482
 30
0.0
 40
0.0999999999999977
100
AcDbArc
 50
110.6255481051762
 51
215.9753961421595
  0
LINE
  5
20C
330
70
100
AcDbEntity
  8
1 F v4_Sketch1
100
AcDbLine
 10
2.189158688894821
 20
2.03049205812345
 30
0.0
 11
2.78915764449778
 21
1.880492236116256
 31
0.0
  0
LINE
  5
20D
330
70
100
AcDbEntity
  8
1 F v4_Sketch1
100
AcDbLine
 10
2.189158691844509
 20
2.88049263335736
 30
0.0
 11
2.189158688788787
 21
2.730492634248274
 31
0.0
  0
LINE
  5
20E
330
70
100
AcDbEntity
  8
1 F v4_Sketch1
100
AcDbLine
 10
5.939028065889905
 20
5.380899285914488
 30
0.0
 11
5.939028065889905
 21
5.380881476786766
 31
0.0
  0
LINE
  5
20F
330
70
100
AcDbEntity
  8
1 F v4_Sketch1
100
AcDbLine
 10
2.189158691844506
 20
11.38093935409772
 30
0.0
 11
5.188863161067218
 21
11.38093935403613
 31
0.0
  0
LINE
  5
210
330
70
100
AcDbEntity
  8
1 F v4_Sketch1
100
AcDbLine
 10
5.570003977018952
 20
4.888814895223616
 30
0.0
 11
5.337350757232256
 21
5.209336845317986
 31
0.0
  0
ARC
  5
211
330
70
100
AcDbEntity
  8
1 F v4_Sketch1
100
AcDbCircle
 10
5.488732540097579
 20
3.679935459052793
 30
0.0
 40
0.3000000000000064
100
AcDbArc
 50
249.3738629457244
 51
270.0000000000068
  0
ARC
  5
212
330
70
100
AcDbEntity
  8
1 F v4_Sketch1
100
AcDbCircle
 10
5.488732540097549
 20
3.679935459052545
 30
0.0
 40
0.3000000000000061
100
AcDbArc
 50
249.3738629457253
 51
270.0000000000081
  0
LINE
  5
213
330
70
100
AcDbEntity
  8
1 F v4_Sketch1
100
AcDbLine
 10
2.189158685065034
 20
10.73049290527574
 30
0.0
 11
2.789157340262985
 21
10.88049250008776
 31
0.0
  0
LINE
  5
214
330
70
100
AcDbEntity
  8
1 F v4_Sketch1
100
AcDbLine
 10
2.18915869184451
 20
9.880492235711489
 30
0.0
 11
2.189158694026676
 21
10.03049223465684
 31
0.0
  0
LINE
  5
215
330
70
100
AcDbEntity
  8
1 F v4_Sketch1
100
AcDbLine
 10
5.570003977026042
 20
3.872019849755497
 30
0.0
 11
5.337350757230855
 21
3.551497899649427
 31
0.0
  0
LINE
  5
216
330
70
100
AcDbEntity
  8
1 F v4_Sketch1
100
AcDbLine
 10
5.57000397702599
 20
3.872019849755282
 30
0.0
 11
5.337350757230859
 21
3.551497899649286
 31
0.0
  0
LINE
  5
217
330
70
100
AcDbEntity
  8
1 F v4_Sketch1
100
AcDbLine
 10
5.938997897550503
 20
2.381142266256522
 30
0.0
 11
5.938997897550507
 21
2.381160075384245
 31
0.0
  0
LINE
  5
218
330
70
100
AcDbEntity
  8
1 F v4_Sketch1
100
AcDbLine
 10
13.07265729950352
 20
7.869439710561993
 30
0.0
 11
12.8393128630283
 21
7.548352585945124
 31
0.0
  0
ARC
  5
219
330
70
100
AcDbEntity
  8
1 F v4_Sketch1
100
AcDbCircle
 10
5.418278815854167
 20
5.268079073124633
 30
0.0
 40
0.0999999999999988
100
AcDbArc
 50
110.6261370542812
 51
215.974297816271
  0
ARC
  5
21A
330
70
100
AcDbEntity
  8
1 F v4_Sketch1
100
AcDbCircle
 10
5.418278815852772
 20
3.492755671842638
 30
0.0
 40
0.0999999999999998
100
AcDbArc
 50
144.0257021837298
 51
249.373862945725
  0
LINE
  5
21B
330
70
100
AcDbEntity
  8
1 F v4_Sketch1
100
AcDbLine
 10
5.939028065889905
 20
5.380899285914488
 30
0.0
 11
5.939028065889905
 21
5.380881476786766
 31
0.0
  0
ARC
  5
21C
330
70
100
AcDbEntity
  8
1 F v4_Sketch1
100
AcDbCircle
 10
12.91827478124798
 20
5.26822578459104
 30
0.0
 40
0.0999999999999988
100
AcDbArc
 50
110.6261370542812
 51
215.9742978162713
  0
ARC
  5
21D
330
70
100
AcDbEntity
  8
1 F v4_Sketch1
100
AcDbCircle
 10
12.91827478124798
 20
5.26822578459104
 30
0.0
 40
0.0999999999999988
100
AcDbArc
 50
110.6261370542812
 51
215.9742978162713
  0
ARC
  5
21E
330
70
100
AcDbEntity
  8
1 F v4_Sketch1
100
AcDbCircle
 10
5.488675659938962
 20
2.081160075384283
 30
0.0
 40
0.3000000000000043
100
AcDbArc
 50
89.9999999999922
 51
110.6255481051816
  0
ARC
  5
21F
330
70
100
AcDbEntity
  8
1 F v4_Sketch1
100
AcDbCircle
 10
5.418278815852769
 20
3.492755671842779
 30
0.0
 40
0.1000000000000003
100
AcDbArc
 50
144.0257021837294
 51
249.3738629457261
  0
ARC
  5
220
330
70
100
AcDbEntity
  8
1 F v4_Sketch1
100
AcDbCircle
 10
5.488732540099002
 20
5.080899285914489
 30
0.0
 40
0.3000000000000043
100
AcDbArc
 50
90.00000000000067
 51
110.6261370542835
  0
LINE
  5
221
330
70
100
AcDbEntity
  8
1 F v4_Sketch1
100
AcDbLine
 10
5.939028065889905
 20
5.380899285914488
 30
0.0
 11
5.939028065889905
 21
5.380881476786766
 31
0.0
  0
LINE
  5
222
330
70
100
AcDbEntity
  8
1 F v4_Sketch1
100
AcDbLine
 10
5.938997897550507
 20
2.381160075384245
 30
0.0
 11
5.938997897550503
 21
2.381142266256522
 31
0.0
  0
ARC
  5
223
330
70
100
AcDbEntity
  8
1 F v4_Sketch1
100
AcDbCircle
 10
5.418278815852746
 20
3.492755671842388
 30
0.0
 40
0.1000000000000007
100
AcDbArc
 50
144.0257021837299
 51
249.3738629457258
  0
LINE
  5
224
330
70
100
AcDbEntity
  8
1 F v4_Sketch1
100
AcDbLine
 10
5.939028065889905
 20
5.380899285914488
 30
0.0
 11
5.939028065889905
 21
5.380881476786766
 31
0.0
  0
LINE
  5
225
330
70
100
AcDbEntity
  8
1 F v4_Sketch1
100
AcDbLine
 10
5.939028065889905
 20
5.380881476786766
 30
0.0
 11
5.939041421800217
 21
5.380899285914488
 31
0.0
  0
LINE
  5
226
330
70
100
AcDbEntity
  8
1 F v4_Sketch1
100
AcDbLine
 10
2.189158743783088
 20
6.03050006227941
 30
0.0
 11
2.789084945491723
 21
5.880518211242758
 31
0.0
  0
ARC
  5
227
330
70
100
AcDbEntity
  8
1 F v4_Sketch1
100
AcDbCircle
 10
5.488732540097579
 20
3.679935459052793
 30
0.0
 40
0.300000000000006
100
AcDbArc
 50
249.3738629457244
 51
270.0000000000064
  0
ARC
  5
228
330
70
100
AcDbEntity
  8
1 F v4_Sketch1
100
AcDbCircle
 10
12.91827478124798
 20
5.26822578459104
 30
0.0
 40
0.0999999999999988
100
AcDbArc
 50
110.6261370542812
 51
215.9742978162713
  0
ARC
  5
229
330
70
100
AcDbEntity
  8
1 F v4_Sketch1
100
AcDbCircle
 10
5.418278815854167
 20
5.268079073124633
 30
0.0
 40
0.0999999999999988
100
AcDbArc
 50
110.6261370542812
 51
215.974297816271
  0
ARC
  5
22A
330
70
100
AcDbEntity
  8
1 F v4_Sketch1
100
AcDbCircle
 10
5.488732540097576
 20
3.679935459052934
 30
0.0
 40
0.3000000000000054
100
AcDbArc
 50
249.3738629457247
 51
270.0000000000068
  0
ARC
  5
22B
330
70
100
AcDbEntity
  8
1 F v4_Sketch1
100
AcDbCircle
 10
2.789157598184138
 20
10.08049221321597
 30
0.0
 40
0.2000000000000064
100
AcDbArc
 50
270.000000000001
 51
359.9999999999984
  0
ARC
  5
22C
330
70
100
AcDbEntity
  8
1 F v4_Sketch1
100
AcDbCircle
 10
5.418365896096288
 20
9.268087365920312
 30
0.0
 40
0.0999999999999988
100
AcDbArc
 50
110.6261370542812
 51
215.9742978162705
  0
ARC
  5
22D
330
70
100
AcDbEntity
  8
1 F v4_Sketch1
100
AcDbCircle
 10
2.789157619303175
 20
2.080492223330209
 30
0.0
 40
0.1999999872139542
100
AcDbArc
 50
270.0000072177233
 51
359.9999841473094
  0
ARC
  5
22E
330
70
100
AcDbEntity
  8
1 F v4_Sketch1
100
AcDbCircle
 10
5.488732540099002
 20
5.080899285914489
 30
0.0
 40
0.3000000000000043
100
AcDbArc
 50
90.00000000000067
 51
110.6261370542835
  0
ARC
  5
22F
330
70
100
AcDbEntity
  8
1 F v4_Sketch1
100
AcDbCircle
 10
5.418278815854167
 20
5.268079073124633
 30
0.0
 40
0.0999999999999988
100
AcDbArc
 50
110.6261370542812
 51
215.974297816271
  0
LINE
  5
230
330
70
100
AcDbEntity
  8
1 F v4_Sketch1
100
AcDbLine
 10
2.189158691844506
 20
10.88049290430238
 30
0.0
 11
2.189158685065034
 21
10.73049290527574
 31
0.0
  0
LINE
  5
231
330
70
100
AcDbEntity
  8
1 F v4_Sketch1
100
AcDbLine
 10
5.938997897550507
 20
2.381160075384245
 30
0.0
 11
5.938997897550503
 21
2.381142266256522
 31
0.0
  0
LINE
  5
232
330
70
100
AcDbEntity
  8
1 F v4_Sketch1
100
AcDbLine
 10
2.189157598184143
 20
10.7304922854866
 30
0.0
 11
2.789157598184145
 21
10.88049222811713
 31
0.0
  0
LINE
  5
233
330
70
100
AcDbEntity
  8
1 F v4_Sketch1
100
AcDbLine
 10
2.189158691844509
 20
1.380939354097719
 30
0.0
 11
5.188714851911264
 21
1.38073042158019
 31
0.0
  0
LINE
  5
234
330
70
100
AcDbEntity
  8
1 F v4_Sketch1
100
AcDbLine
 10
2.189158694026676
 20
10.03049223465684
 30
0.0
 11
2.789157815160089
 21
9.880492366589653
 31
0.0
  0
LINE
  5
235
330
70
100
AcDbEntity
  8
1 F v4_Sketch1
100
AcDbLine
 10
5.570003977025992
 20
3.872019849755282
 30
0.0
 11
5.337350757230859
 21
3.551497899649286
 31
0.0
  0
ARC
  5
236
330
70
100
AcDbEntity
  8
1 F v4_Sketch1
100
AcDbCircle
 10
2.789157598184138
 20
10.08049221321597
 30
0.0
 40
0.2000000000000064
100
AcDbArc
 50
270.000000000001
 51
359.9999999999984
  0
LINE
  5
237
330
70
100
AcDbEntity
  8
1 F v4_Sketch1
100
AcDbLine
 10
2.189157598184143
 20
10.7304922854866
 30
0.0
 11
2.789157598184145
 21
10.88049222811713
 31
0.0
  0
LINE
  5
238
330
70
100
AcDbEntity
  8
1 F v4_Sketch1
100
AcDbLine
 10
5.939028065889905
 20
5.380881476786766
 30
0.0
 11
5.939041421800217
 21
5.380899285914488
 31
0.0
  0
ENDSEC
  0
SECTION
  2
OBJECTS
  0
DICTIONARY
  5
C
330
0
100
AcDbDictionary
281
     1
  3
ACAD_COLOR
350
63
  3
ACAD_DETAILVIEWSTYLE
350
6A
  3
ACAD_GROUP
350
D
  3
ACAD_LAYOUT
350
62
  3
ACAD_MATERIAL
350
10
  3
ACAD_MLEADERSTYLE
350
66
  3
ACAD_MLINESTYLE
350
5F
  3
ACAD_PLOTSETTINGS
350
61
  3
ACAD_PLOTSTYLENAME
350
E
  3
ACAD_SCALELIST
350
42
  3
ACAD_SECTIONVIEWSTYLE
350
68
  3
ACAD_TABLESTYLE
350
64
  3
ACAD_VISUALSTYLE
350
29
  3
ACDB_RECOMPOSE_DATA
350
241
  3
AcDbVariableDictionary
350
239
  0
DICTIONARY
  5
63
102
{ACAD_REACTORS
330
C
102
}
330
C
100
AcDbDictionary
281
     1
  0
DICTIONARY
  5
6A
102
{ACAD_REACTORS
330
C
102
}
330
C
100
AcDbDictionary
281
     1
  3
Imperial24
350
6B
  0
DICTIONARY
  5
D
102
{ACAD_REACTORS
330
C
102
}
330
C
100
AcDbDictionary
281
     1
  0
DICTIONARY
  5
62
102
{ACAD_REACTORS
330
C
102
}
330
C
100
AcDbDictionary
281
     1
  3
Layout1
350
6F
  3
Layout2
350
77
  3
Model
350
73
  0
DICTIONARY
  5
10
102
{ACAD_REACTORS
330
C
102
}
330
C
100
AcDbDictionary
281
     1
  3
ByBlock
350
19
  3
ByLayer
350
11
  3
Global
350
21
  0
DICTIONARY
  5
66
102
{ACAD_REACTORS
330
C
102
}
330
C
100
AcDbDictionary
281
     1
  3
Standard
350
67
  0
DICTIONARY
  5
5F
102
{ACAD_REACTORS
330
C
102
}
330
C
100
AcDbDictionary
281
     1
  3
Standard
350
60
  0
DICTIONARY
  5
61
102
{ACAD_REACTORS
330
C
102
}
330
C
100
AcDbDictionary
281
     1
  0
ACDBDICTIONARYWDFLT
  5
E
102
{ACAD_REACTORS
330
C
102
}
330
C
100
AcDbDictionary
281
     1
  3
Normal
350
F
100
AcDbDictionaryWithDefault
340
F
  0
DICTIONARY
  5
42
102
{ACAD_REACTORS
330
C
102
}
330
C
100
AcDbDictionary
281
     1
  3
A0
350
43
  3
A1
350
44
  3
A2
350
45
  3
A3
350
46
  3
A4
350
47
  3
A5
350
48
  3
A6
350
49
  3
A7
350
4A
  3
A8
350
4B
  3
A9
350
4C
  3
B0
350
4D
  3
B1
350
4E
  3
B2
350
4F
  3
B3
350
50
  3
B4
350
51
  3
B5
350
52
  3
B6
350
53
  0
DICTIONARY
  5
68
102
{ACAD_REACTORS
330
C
102
}
330
C
100
AcDbDictionary
281
     1
  3
Imperial24
350
69
  0
DICTIONARY
  5
64
102
{ACAD_REACTORS
330
C
102
}
330
C
100
AcDbDictionary
281
     1
  3
Standard
350
65
  0
DICTIONARY
  5
29
102
{ACAD_REACTORS
330
C
102
}
330
C
100
AcDbDictionary
281
     1
  3
2dWireframe
350
2F
  3
Basic
350
2E
  3
Brighten
350
35
  3
ColorChange
350
39
  3
Conceptual
350
32
  3
Dim
350
34
  3
EdgeColorOff
350
41
  3
Facepattern
350
38
  3
Flat
350
2A
  3
FlatWithEdges
350
2B
  3
Gouraud
350
2C
  3
GouraudWithEdges
350
2D
  3
Hidden
350
31
  3
JitterOff
350
3F
  3
Linepattern
350
37
  3
OverhangOff
350
40
  3
Realistic
350
33
  3
Shaded
350
3E
  3
Shaded with edges
350
3D
  3
Shades of Gray
350
3A
  3
Sketchy
350
3B
  3
Thicken
350
36
  3
Wireframe
350
30
  3
X-Ray
350
3C
  0
XRECORD
  5
241
102
{ACAD_REACTORS
330
C
102
}
330
C
100
AcDbXrecord
280
     1
 90
        1
330
65
  0
DICTIONARY
  5
239
102
{ACAD_REACTORS
330
C
102
}
330
C
100
AcDbDictionary
281
     1
  3
CANNOSCALE
350
23E
  3
CMLEADERSTYLE
350
23B
  3
CTABLESTYLE
350
23A
  3
CVIEWDETAILSTYLE
350
23C
  3
CVIEWSECTIONSTYLE
350
23D
  0
ACDBDETAILVIEWSTYLE
  5
6B
102
{ACAD_XDICTIONARY
360
244
102
}
102
{ACAD_REACTORS
330
6A
102
}
330
6A
100
AcDbModelDocViewStyle
 70
     0
  3
Imperial24
290
     0
100
AcDbDetailViewStyle
 70
     0
 71
     0
 90
        3
 71
     1
340
55
 62
   256
 40
0.24
340
0
 62
   256
 40
0.24
300

 40
0.36
280
     3
 71
     2
340
5D
 90
       25
 62
   256
 71
     3
340
55
 62
   256
 40
0.24
 90
        1
 40
0.75
 90
        1
300
%<\AcVar ViewType \f "%tc1">% %<\AcVar ViewDetailId>%\PSCALE %<\AcVar ViewScale \f "%sn">%
 71
     4
340
5D
 90
       25
 62
   256
340
5D
 90
       25
 62
   256
280
     0
  0
LAYOUT
  5
6F
102
{ACAD_REACTORS
330
62
102
}
330
62
100
AcDbPlotSettings
  1

  2

  4

  6

 40
0.0
 41
0.0
 42
0.0
 43
0.0
 44
0.0
 45
0.0
 46
0.0
 47
0.0
 48
0.0
 49
0.0
140
0.0
141
0.0
142
1.0
143
1.0
 70
   688
 72
     0
 73
     0
 74
     5
  7

 75
    16
147
1.0
 76
     0
 77
     2
 78
   300
148
0.0
149
0.0
100
AcDbLayout
  1
Layout1
 70
     1
 71
     1
 10
0.0
 20
0.0
 11
12.0
 21
9.0
 12
0.0
 22
0.0
 32
0.0
 14
0.0
 24
0.0
 34
0.0
 15
0.0
 25
0.0
 35
0.0
146
0.0
 13
0.0
 23
0.0
 33
0.0
 16
1.0
 26
0.0
 36
0.0
 17
0.0
 27
1.0
 37
0.0
 76
     0
330
6C
  0
LAYOUT
  5
77
102
{ACAD_REACTORS
330
62
102
}
330
62
100
AcDbPlotSettings
  1

  2

  4

  6

 40
0.0
 41
0.0
 42
0.0
 43
0.0
 44
0.0
 45
0.0
 46
0.0
 47
0.0
 48
0.0
 49
0.0
140
0.0
141
0.0
142
1.0
143
1.0
 70
   688
 72
     0
 73
     0
 74
     5
  7

 75
    16
147
1.0
 76
     0
 77
     2
 78
   300
148
0.0
149
0.0
100
AcDbLayout
  1
Layout2
 70
     1
 71
     2
 10
0.0
 20
0.0
 11
12.0
 21
9.0
 12
0.0
 22
0.0
 32
0.0
 14
0.0
 24
0.0
 34
0.0
 15
0.0
 25
0.0
 35
0.0
146
0.0
 13
0.0
 23
0.0
 33
0.0
 16
1.0
 26
0.0
 36
0.0
 17
0.0
 27
1.0
 37
0.0
 76
     0
330
74
  0
LAYOUT
  5
73
102
{ACAD_REACTORS
330
62
102
}
330
62
100
AcDbPlotSettings
  1

  2

  4

  6

 40
0.0
 41
0.0
 42
0.0
 43
0.0
 44
0.0
 45
0.0
 46
0.0
 47
0.0
 48
0.0
 49
0.0
140
0.0
141
0.0
142
1.0
143
1.0
 70
  1712
 72
     0
 73
     0
 74
     0
  7

 75
     0
147
1.0
 76
     0
 77
     2
 78
   300
148
0.0
149
0.0
100
AcDbLayout
  1
Model
 70
     1
 71
     0
 10
0.0
 20
0.0
 11
12.0
 21
9.0
 12
0.0
 22
0.0
 32
0.0
 14
0.0
 24
0.0
 34
0.0
 15
0.0
 25
0.0
 35
0.0
146
0.0
 13
0.0
 23
0.0
 33
0.0
 16
1.0
 26
0.0
 36
0.0
 17
0.0
 27
1.0
 37
0.0
 76
     0
330
70
  0
MATERIAL
  5
19
102
{ACAD_XDICTIONARY
360
1A
102
}
102
{ACAD_REACTORS
330
10
102
}
330
10
100
AcDbMaterial
  1
ByBlock
 72
     0
 43
0.0208333333333333
 43
0.0
 43
0.0
 43
0.0
 43
0.0
 43
0.0208333333333333
 43
0.0
 43
0.0
 43
0.0
 43
0.0
 43
1.0
 43
0.0
 43
0.0
 43
0.0
 43
0.0
 43
1.0
 77
     0
 47
0.0208333333333333
 47
0.0
 47
0.0
 47
0.0
 47
0.0
 47
0.0208333333333333
 47
0.0
 47
0.0
 47
0.0
 47
0.0
 47
1.0
 47
0.0
 47
0.0
 47
0.0
 47
0.0
 47
1.0
171
     0
 49
0.0208333333333333
 49
0.0
 49
0.0
 49
0.0
 49
0.0
 49
0.0208333333333333
 49
0.0
 49
0.0
 49
0.0
 49
0.0
 49
1.0
 49
0.0
 49
0.0
 49
0.0
 49
0.0
 49
1.0
175
     0
142
0.0208333333333333
142
0.0
142
0.0
142
0.0
142
0.0
142
0.0208333333333333
142
0.0
142
0.0
142
0.0
142
0.0
142
1.0
142
0.0
142
0.0
142
0.0
142
0.0
142
1.0
179
     0
144
0.0208333333333333
144
0.0
144
0.0
144
0.0
144
0.0
144
0.0208333333333333
144
0.0
144
0.0
144
0.0
144
0.0
144
1.0
144
0.0
144
0.0
144
0.0
144
0.0
144
1.0
147
0.0208333333333333
147
0.0
147
0.0
147
0.0
147
0.0
147
0.0208333333333333
147
0.0
147
0.0
147
0.0
147
0.0
147
1.0
147
0.0
147
0.0
147
0.0
147
0.0
147
1.0
  0
MATERIAL
  5
11
102
{ACAD_XDICTIONARY
360
12
102
}
102
{ACAD_REACTORS
330
10
102
}
330
10
100
AcDbMaterial
  1
ByLayer
 72
     0
 43
0.0208333333333333
 43
0.0
 43
0.0
 43
0.0
 43
0.0
 43
0.0208333333333333
 43
0.0
 43
0.0
 43
0.0
 43
0.0
 43
1.0
 43
0.0
 43
0.0
 43
0.0
 43
0.0
 43
1.0
 77
     0
 47
0.0208333333333333
 47
0.0
 47
0.0
 47
0.0
 47
0.0
 47
0.0208333333333333
 47
0.0
 47
0.0
 47
0.0
 47
0.0
 47
1.0
 47
0.0
 47
0.0
 47
0.0
 47
0.0
 47
1.0
171
     0
 49
0.0208333333333333
 49
0.0
 49
0.0
 49
0.0
 49
0.0
 49
0.0208333333333333
 49
0.0
 49
0.0
 49
0.0
 49
0.0
 49
1.0
 49
0.0
 49
0.0
 49
0.0
 49
0.0
 49
1.0
175
     0
142
0.0208333333333333
142
0.0
142
0.0
142
0.0
142
0.0
142
0.0208333333333333
142
0.0
142
0.0
142
0.0
142
0.0
142
1.0
142
0.0
142
0.0
142
0.0
142
0.0
142
1.0
179
     0
144
0.0208333333333333
144
0.0
144
0.0
144
0.0
144
0.0
144
0.0208333333333333
144
0.0
144
0.0
144
0.0
144
0.0
144
1.0
144
0.0
144
0.0
144
0.0
144
0.0
144
1.0
147
0.0208333333333333
147
0.0
147
0.0
147
0.0
147
0.0
147
0.0208333333333333
147
0.0
147
0.0
147
0.0
147
0.0
147
1.0
147
0.0
147
0.0
147
0.0
147
0.0
147
1.0
  0
MATERIAL
  5
21
102
{ACAD_XDICTIONARY
360
22
102
}
102
{ACAD_REACTORS
330
10
102
}
330
10
100
AcDbMaterial
  1
Global
 72
     0
 43
0.0208333333333333
 43
0.0
 43
0.0
 43
0.0
 43
0.0
 43
0.0208333333333333
 43
0.0
 43
0.0
 43
0.0
 43
0.0
 43
1.0
 43
0.0
 43
0.0
 43
0.0
 43
0.0
 43
1.0
 77
     0
 47
0.0208333333333333
 47
0.0
 47
0.0
 47
0.0
 47
0.0
 47
0.0208333333333333
 47
0.0
 47
0.0
 47
0.0
 47
0.0
 47
1.0
 47
0.0
 47
0.0
 47
0.0
 47
0.0
 47
1.0
171
     0
 49
0.0208333333333333
 49
0.0
 49
0.0
 49
0.0
 49
0.0
 49
0.0208333333333333
 49
0.0
 49
0.0
 49
0.0
 49
0.0
 49
1.0
 49
0.0
 49
0.0
 49
0.0
 49
0.0
 49
1.0
175
     0
142
0.0208333333333333
142
0.0
142
0.0
142
0.0
142
0.0
142
0.0208333333333333
142
0.0
142
0.0
142
0.0
142
0.0
142
1.0
142
0.0
142
0.0
142
0.0
142
0.0
142
1.0
179
     0
144
0.0208333333333333
144
0.0
144
0.0
144
0.0
144
0.0
144
0.0208333333333333
144
0.0
144
0.0
144
0.0
144
0.0
144
1.0
144
0.0
144
0.0
144
0.0
144
0.0
144
1.0
147
0.0208333333333333
147
0.0
147
0.0
147
0.0
147
0.0
147
0.0208333333333333
147
0.0
147
0.0
147
0.0
147
0.0
147
1.0
147
0.0
147
0.0
147
0.0
147
0.0
147
1.0
  0
MLEADERSTYLE
  5
67
102
{ACAD_REACTORS
330
66
102
}
330
66
100
AcDbMLeaderStyle
179
     2
170
     2
171
     1
172
     0
 90
        2
 40
0.0
 41
0.0
173
     1
 91
-1056964608
340
5B
 92
       -2
290
     1
 42
0.09
291
     1
 43
0.36
  3
Standard
 44
0.18
300

342
55
174
     1
178
     6
175
     1
176
     0
 93
-1056964608
 45
0.18
292
     0
297
     0
 46
0.18
 94
-1056964608
 47
1.0
 49
1.0
140
1.0
293
     1
141
0.0
294
     1
177
     0
142
1.0
295
     0
296
     0
143
0.125
271
     0
272
     9
273
     9
298
     1
  0
MLINESTYLE
  5
60
102
{ACAD_REACTORS
330
5F
102
}
330
5F
100
AcDbMlineStyle
  2
STANDARD
 70
     0
  3

 62
   256
 51
90.0
 52
90.0
 71
     2
 49
0.5
 62
   256
  6
BYLAYER
 49
-0.5
 62
   256
  6
BYLAYER
  0
ACDBPLACEHOLDER
  5
F
102
{ACAD_REACTORS
330
E
102
}
330
E
  0
SCALE
  5
43
102
{ACAD_REACTORS
330
42
102
}
330
42
100
AcDbScale
 70
     0
300
1:1
140
1.0
141
1.0
290
     1
  0
SCALE
  5
44
102
{ACAD_REACTORS
330
42
102
}
330
42
100
AcDbScale
 70
     0
300
1/128" = 1'-0"
140
0.0078125
141
12.0
290
     0
  0
SCALE
  5
45
102
{ACAD_REACTORS
330
42
102
}
330
42
100
AcDbScale
 70
     0
300
1/64" = 1'-0"
140
0.015625
141
12.0
290
     0
  0
SCALE
  5
46
102
{ACAD_REACTORS
330
42
102
}
330
42
100
AcDbScale
 70
     0
300
1/32" = 1'-0"
140
0.03125
141
12.0
290
     0
  0
SCALE
  5
47
102
{ACAD_REACTORS
330
42
102
}
330
42
100
AcDbScale
 70
     0
300
1/16" = 1'-0"
140
0.0625
141
12.0
290
     0
  0
SCALE
  5
48
102
{ACAD_REACTORS
330
42
102
}
330
42
100
AcDbScale
 70
     0
300
3/32" = 1'-0"
140
0.09375
141
12.0
290
     0
  0
SCALE
  5
49
102
{ACAD_REACTORS
330
42
102
}
330
42
100
AcDbScale
 70
     0
300
1/8" = 1'-0"
140
0.125
141
12.0
290
     0
  0
SCALE
  5
4A
102
{ACAD_REACTORS
330
42
102
}
330
42
100
AcDbScale
 70
     0
300
3/16" = 1'-0"
140
0.1875
141
12.0
290
     0
  0
SCALE
  5
4B
102
{ACAD_REACTORS
330
42
102
}
330
42
100
AcDbScale
 70
     0
300
1/4" = 1'-0"
140
0.25
141
12.0
290
     0
  0
SCALE
  5
4C
102
{ACAD_REACTORS
330
42
102
}
330
42
100
AcDbScale
 70
     0
300
3/8" = 1'-0"
140
0.375
141
12.0
290
     0
  0
SCALE
  5
4D
102
{ACAD_REACTORS
330
42
102
}
330
42
100
AcDbScale
 70
     0
300
1/2" = 1'-0"
140
0.5
141
12.0
290
     0
  0
SCALE
  5
4E
102
{ACAD_REACTORS
330
42
102
}
330
42
100
AcDbScale
 70
     0
300
3/4" = 1'-0"
140
0.75
141
12.0
290
     0
  0
SCALE
  5
4F
102
{ACAD_REACTORS
330
42
102
}
330
42
100
AcDbScale
 70
     0
300
1" = 1'-0"
140
1.0
141
12.0
290
     0
  0
SCALE
  5
50
102
{ACAD_REACTORS
330
42
102
}
330
42
100
AcDbScale
 70
     0
300
1-1/2" = 1'-0"
140
1.5
141
12.0
290
     0
  0
SCALE
  5
51
102
{ACAD_REACTORS
330
42
102
}
330
42
100
AcDbScale
 70
     0
300
3" = 1'-0"
140
3.0
141
12.0
290
     0
  0
SCALE
  5
52
102
{ACAD_REACTORS
330
42
102
}
330
42
100
AcDbScale
 70
     0
300
6" = 1'-0"
140
6.0
141
12.0
290
     0
  0
SCALE
  5
53
102
{ACAD_REACTORS
330
42
102
}
330
42
100
AcDbScale
 70
     0
300
1'-0" = 1'-0"
140
12.0
141
12.0
290
     0
  0
ACDBSECTIONVIEWSTYLE
  5
69
102
{ACAD_XDICTIONARY
360
242
102
}
102
{ACAD_REACTORS
330
68
102
}
330
68
100
AcDbModelDocViewStyle
 70
     0
  3
Imperial24
290
     0
100
AcDbSectionViewStyle
 70
     0
 71
     0
 90
       78
 71
     1
340
55
 62
   256
 40
0.24
340
0
340
0
 62
   256
 40
0.24
300
I, O, Q, S, X, Z
 40
0.48
 90
        3
 40
0.18
 90
        1
 71
     2
340
5D
 90
       25
 62
   256
340
5D
 90
       50
 62
   256
 40
0.24
 40
0.0
 40
0.24
 71
     3
340
55
 62
   256
 40
0.24
 90
        1
 40
0.75
 90
        1
300
%<\AcVar ViewType \f "%tc1">% %<\AcVar ViewSectionStartId>%-%<\AcVar ViewSectionEndId>%\PSCALE %<\AcVar ViewScale \f "%sn">%
 71
     4
 62
   256
 62
   257
300
ANSI31
 40
1.0
 90
        0
290
     0
290
     0
 90
        6
 40
0.0
 40
1.570796326794896
 40
0.2617993877991494
 40
1.308996938995747
 40
-0.2617993877991494
 40
1.832595714594046
  0
TABLESTYLE
  5
65
102
{ACAD_XDICTIONARY
360
23F
102
}
102
{ACAD_REACTORS
330
64
102
}
330
64
100
AcDbTableStyle
280
     0
  3
Standard
 70
     0
 71
     0
 40
0.06
 41
0.06
280
     0
281
     0
  7
Standard
140
0.18
170
     2
 62
     0
 63
     7
283
     0
 90
      512
 91
        0
  1

274
    -2
284
     1
 64
     0
275
    -2
285
     1
 65
     0
276
    -2
286
     1
 66
     0
277
    -2
287
     1
 67
     0
278
    -2
288
     1
 68
     0
279
    -2
289
     1
 69
     0
  7
Standard
140
0.25
170
     5
 62
     0
 63
     7
283
     0
 90
      512
 91
        0
  1

274
    -2
284
     1
 64
     0
275
    -2
285
     1
 65
     0
276
    -2
286
     1
 66
     0
277
    -2
287
     1
 67
     0
278
    -2
288
     1
 68
     0
279
    -2
289
     1
 69
     0
  7
Standard
140
0.18
170
     5
 62
     0
 63
     7
283
     0
 90
      512
 91
        0
  1

274
    -2
284
     1
 64
     0
275
    -2
285
     1
 65
     0
276
    -2
286
     1
 66
     0
277
    -2
287
     1
 67
     0
278
    -2
288
     1
 68
     0
279
    -2
289
     1
 69
     0
  0
VISUALSTYLE
  5
2F
102
{ACAD_REACTORS
330
29
102
}
330
29
100
AcDbVisualStyle
  2
2dWireframe
 70
     4
177
     3
291
     0
 70
    58
 90
        0
176
     1
 90
        2
176
     1
 90
        0
176
     1
 90
        0
176
     1
 40
0.6
176
     1
 40
30.0
176
     1
 62
     7
420
 16777215
176
     1
 90
        1
176
     1
 90
        4
176
     1
 62
     7
176
     1
 62
   257
176
     1
 90
        1
176
     1
 90
        1
176
     1
 40
1.0
176
     1
 90
        0
176
     1
 62
   257
176
     1
 40
1.0
176
     1
 90
        1
176
     1
 90
        6
176
     1
 90
        2
176
     1
 62
     7
176
     1
 90
        5
176
     1
 90
        0
176
     1
 90
        0
176
     1
290
     0
176
     1
 90
        1
176
     1
 40
0.0
176
     1
 90
        0
176
     1
290
     1
176
     1
290
     1
176
     1
290
     0
176
     1
290
     0
176
     1
290
     0
176
     1
290
     0
176
     1
290
     0
176
     1
290
     0
176
     1
290
     0
176
     1
 90
       50
176
     1
 40
0.0
176
     1
 40
1.0
176
     1
 90
        0
176
     1
 62
    18
420
        0
176
     1
 90
       50
176
     1
 90
        3
176
     1
 62
     5
420
      255
176
     1
290
     0
176
     1
 90
       50
176
     1
 90
       50
176
     1
 90
       50
176
     1
290
     0
176
     1
 90
       50
176
     1
 62
   256
176
     0
 40
1.0
176
     0
 90
        2
176
     1
  1
strokes_ogs.tif
176
     1
290
     0
176
     1
 40
1.0
176
     1
 40
1.0
176
     1
1001
ACAD
1000
AcDbSavedByObjectVersion
1070
     0
  0
VISUALSTYLE
  5
2E
102
{ACAD_REACTORS
330
29
102
}
330
29
100
AcDbVisualStyle
  2
Basic
 70
     7
177
     3
291
     1
 70
    58
 90
        1
176
     1
 90
        0
176
     1
 90
        1
176
     1
 90
        0
176
     1
 40
0.6
176
     1
 40
30.0
176
     1
 62
     7
420
 16777215
176
     1
 90
        0
176
     1
 90
        4
176
     1
 62
     7
176
     1
 62
   257
176
     1
 90
        1
176
     1
 90
        1
176
     1
 40
1.0
176
     1
 90
        8
176
     1
 62
     7
176
     1
 40
1.0
176
     1
 90
        1
176
     1
 90
        6
176
     1
 90
        2
176
     1
 62
     7
176
     1
 90
        5
176
     1
 90
        0
176
     1
 90
        0
176
     1
290
     0
176
     1
 90
        1
176
     1
 40
0.0
176
     1
 90
        0
176
     1
290
     0
176
     1
290
     1
176
     1
290
     1
176
     1
290
     0
176
     1
290
     0
176
     1
290
     0
176
     1
290
     0
176
     1
290
     0
176
     1
290
     0
176
     1
 90
       50
176
     1
 40
0.0
176
     1
 40
1.0
176
     1
 90
        0
176
     1
 62
    18
420
        0
176
     1
 90
       50
176
     1
 90
        3
176
     1
 62
     5
420
      255
176
     1
290
     0
176
     1
 90
       50
176
     1
 90
       50
176
     1
 90
       50
176
     1
290
     0
176
     1
 90
       50
176
     1
 62
   256
176
     0
 40
1.0
176
     0
 90
        2
176
     1
  1
strokes_ogs.tif
176
     1
290
     0
176
     1
 40
1.0
176
     1
 40
1.0
176
     1
1001
ACAD
1000
AcDbSavedByObjectVersion
1070
     0
  0
VISUALSTYLE
  5
35
102
{ACAD_REACTORS
330
29
102
}
330
29
100
AcDbVisualStyle
  2
Brighten
 70
    12
177
     3
291
     1
 70
    58
 90
        2
176
     1
 90
        2
176
     1
 90
        0
176
     1
 90
        0
176
     1
 40
0.6
176
     1
 40
30.0
176
     1
 62
     7
420
 16777215
176
     1
 90
        1
176
     1
 90
        4
176
     1
 62
     7
176
     1
 62
   257
176
     1
 90
        1
176
     1
 90
        1
176
     1
 40
1.0
176
     1
 90
        8
176
     1
 62
     7
176
     1
 40
1.0
176
     1
 90
        1
176
     1
 90
        6
176
     1
 90
        2
176
     1
 62
     7
176
     1
 90
        5
176
     1
 90
        0
176
     1
 90
        0
176
     1
290
     0
176
     1
 90
        1
176
     1
 40
50.0
176
     1
 90
        0
176
     1
290
     0
176
     1
290
     1
176
     1
290
     1
176
     1
290
     0
176
     1
290
     0
176
     1
290
     0
176
     1
290
     0
176
     1
290
     0
176
     1
290
     0
176
     1
 90
       50
176
     1
 40
0.0
176
     1
 40
1.0
176
     1
 90
        0
176
     1
 62
    18
420
        0
176
     1
 90
       50
176
     1
 90
        3
176
     1
 62
     5
420
      255
176
     1
290
     0
176
     1
 90
       50
176
     1
 90
       50
176
     1
 90
       50
176
     1
290
     0
176
     1
 90
       50
176
     1
 62
   256
176
     0
 40
1.0
176
     0
 90
        2
176
     1
  1
strokes_ogs.tif
176
     1
290
     0
176
     1
 40
1.0
176
     1
 40
1.0
176
     1
1001
ACAD
1000
AcDbSavedByObjectVersion
1070
     0
  0
VISUALSTYLE
  5
39
102
{ACAD_REACTORS
330
29
102
}
330
29
100
AcDbVisualStyle
  2
ColorChange
 70
    16
177
     3
291
     1
 70
    58
 90
        2
176
     1
 90
        2
176
     1
 90
        3
176
     1
 90
        0
176
     1
 40
0.6
176
     1
 40
30.0
176
     1
 62
     8
420
  8421504
176
     1
 90
        1
176
     1
 90
        4
176
     1
 62
     7
176
     1
 62
   257
176
     1
 90
        1
176
     1
 90
        1
176
     1
 40
1.0
176
     1
 90
        8
176
     1
 62
     8
420
  8421504
176
     1
 40
1.0
176
     1
 90
        1
176
     1
 90
        6
176
     1
 90
        2
176
     1
 62
     7
176
     1
 90
        5
176
     1
 90
        0
176
     1
 90
        0
176
     1
290
     0
176
     1
 90
        1
176
     1
 40
0.0
176
     1
 90
        0
176
     1
290
     0
176
     1
290
     1
176
     1
290
     1
176
     1
290
     0
176
     1
290
     0
176
     1
290
     0
176
     1
290
     0
176
     1
290
     0
176
     1
290
     0
176
     1
 90
       50
176
     1
 40
0.0
176
     1
 40
1.0
176
     1
 90
        0
176
     1
 62
    18
420
        0
176
     1
 90
       50
176
     1
 90
        3
176
     1
 62
     5
420
      255
176
     1
290
     0
176
     1
 90
       50
176
     1
 90
       50
176
     1
 90
       50
176
     1
290
     0
176
     1
 90
       50
176
     1
 62
   256
176
     0
 40
1.0
176
     0
 90
        2
176
     1
  1
strokes_ogs.tif
176
     1
290
     0
176
     1
 40
1.0
176
     1
 40
1.0
176
     1
1001
ACAD
1000
AcDbSavedByObjectVersion
1070
     0
  0
VISUALSTYLE
  5
32
102
{ACAD_REACTORS
330
29
102
}
330
29
100
AcDbVisualStyle
  2
Conceptual
 70
     9
177
     3
291
     0
 70
    58
 90
        3
176
     1
 90
        2
176
     1
 90
        0
176
     1
 90
        0
176
     1
 40
0.6
176
     1
 40
30.0
176
     1
 62
     7
420
 16777215
176
     1
 90
        2
176
     1
 90
        2
176
     1
 62
     7
176
     1
 62
   257
176
     1
 90
        1
176
     1
 90
        1
176
     1
 40
179.0
176
     1
 90
        8
176
     1
 62
     7
176
     1
 40
1.0
176
     1
 90
        1
176
     1
 90
        6
176
     1
 90
        2
176
     1
 62
     7
176
     1
 90
        3
176
     1
 90
        0
176
     1
 90
        0
176
     1
290
     0
176
     1
 90
        1
176
     1
 40
0.0
176
     1
 90
        0
176
     1
290
     0
176
     1
290
     1
176
     1
290
     1
176
     1
290
     0
176
     1
290
     0
176
     1
290
     0
176
     1
290
     0
176
     1
290
     0
176
     1
290
     0
176
     1
 90
       50
176
     1
 40
0.0
176
     1
 40
1.0
176
     1
 90
        0
176
     1
 62
    18
420
        0
176
     1
 90
       50
176
     1
 90
        3
176
     1
 62
     5
420
      255
176
     1
290
     0
176
     1
 90
       50
176
     1
 90
       50
176
     1
 90
       50
176
     1
290
     0
176
     1
 90
       50
176
     1
 62
   256
176
     0
 40
1.0
176
     0
 90
        2
176
     1
  1
strokes_ogs.tif
176
     1
290
     0
176
     1
 40
1.0
176
     1
 40
1.0
176
     1
1001
ACAD
1000
AcDbSavedByObjectVersion
1070
     0
  0
VISUALSTYLE
  5
34
102
{ACAD_REACTORS
330
29
102
}
330
29
100
AcDbVisualStyle
  2
Dim
 70
    11
177
     3
291
     1
 70
    58
 90
        2
176
     1
 90
        2
176
     1
 90
        0
176
     1
 90
        0
176
     1
 40
0.6
176
     1
 40
30.0
176
     1
 62
     7
420
 16777215
176
     1
 90
        1
176
     1
 90
        4
176
     1
 62
     7
176
     1
 62
   257
176
     1
 90
        1
176
     1
 90
        1
176
     1
 40
1.0
176
     1
 90
        8
176
     1
 62
     7
176
     1
 40
1.0
176
     1
 90
        1
176
     1
 90
        6
176
     1
 90
        2
176
     1
 62
     7
176
     1
 90
        5
176
     1
 90
        0
176
     1
 90
        0
176
     1
290
     0
176
     1
 90
        1
176
     1
 40
-50.0
176
     1
 90
        0
176
     1
290
     0
176
     1
290
     1
176
     1
290
     1
176
     1
290
     0
176
     1
290
     0
176
     1
290
     0
176
     1
290
     0
176
     1
290
     0
176
     1
290
     0
176
     1
 90
       50
176
     1
 40
0.0
176
     1
 40
1.0
176
     1
 90
        0
176
     1
 62
    18
420
        0
176
     1
 90
       50
176
     1
 90
        3
176
     1
 62
     5
420
      255
176
     1
290
     0
176
     1
 90
       50
176
     1
 90
       50
176
     1
 90
       50
176
     1
290
     0
176
     1
 90
       50
176
     1
 62
   256
176
     0
 40
1.0
176
     0
 90
        2
176
     1
  1
strokes_ogs.tif
176
     1
290
     0
176
     1
 40
1.0
176
     1
 40
1.0
176
     1
1001
ACAD
1000
AcDbSavedByObjectVersion
1070
     0
  0
VISUALSTYLE
  5
41
102
{ACAD_REACTORS
330
29
102
}
330
29
100
AcDbVisualStyle
  2
EdgeColorOff
 70
    22
177
     3
291
     1
 70
    58
 90
        2
176
     0
 90
        2
176
     0
 90
        0
176
     0
 90
        0
176
     0
 40
0.6
176
     0
 40
30.0
176
     0
 62
     7
420
 16777215
176
     0
 90
        1
176
     0
 90
        4
176
     0
 62
     7
176
     0
 62
   257
176
     0
 90
        1
176
     0
 90
        1
176
     0
 40
1.0
176
     0
 90
        8
176
     2
 62
     7
176
     0
 40
1.0
176
     0
 90
        1
176
     0
 90
        6
176
     0
 90
        2
176
     0
 62
     7
176
     0
 90
        5
176
     0
 90
        0
176
     0
 90
        0
176
     0
290
     0
176
     0
 90
        1
176
     0
 40
0.0
176
     0
 90
        0
176
     0
290
     0
176
     0
290
     1
176
     0
290
     1
176
     0
290
     0
176
     0
290
     0
176
     0
290
     0
176
     0
290
     0
176
     0
290
     0
176
     0
290
     0
176
     0
 90
       50
176
     0
 40
0.0
176
     0
 40
1.0
176
     0
 90
        0
176
     0
 62
    18
420
        0
176
     0
 90
       50
176
     0
 90
        3
176
     0
 62
     5
420
      255
176
     0
290
     0
176
     0
 90
       50
176
     0
 90
       50
176
     0
 90
       50
176
     0
290
     0
176
     0
 90
       50
176
     0
 62
   256
176
     0
 40
1.0
176
     0
 90
        2
176
     0
  1
strokes_ogs.tif
176
     0
290
     0
176
     0
 40
1.0
176
     0
 40
1.0
176
     0
1001
ACAD
1000
AcDbSavedByObjectVersion
1070
     0
  0
VISUALSTYLE
  5
38
102
{ACAD_REACTORS
330
29
102
}
330
29
100
AcDbVisualStyle
  2
Facepattern
 70
    15
177
     3
291
     1
 70
    58
 90
        2
176
     1
 90
        2
176
     1
 90
        0
176
     1
 90
        0
176
     1
 40
0.6
176
     1
 40
30.0
176
     1
 62
     7
420
 16777215
176
     1
 90
        1
176
     1
 90
        4
176
     1
 62
     7
176
     1
 62
   257
176
     1
 90
        1
176
     1
 90
        1
176
     1
 40
1.0
176
     1
 90
        8
176
     1
 62
     7
176
     1
 40
1.0
176
     1
 90
        1
176
     1
 90
        6
176
     1
 90
        2
176
     1
 62
     7
176
     1
 90
        5
176
     1
 90
        0
176
     1
 90
        0
176
     1
290
     0
176
     1
 90
        1
176
     1
 40
0.0
176
     1
 90
        0
176
     1
290
     0
176
     1
290
     1
176
     1
290
     1
176
     1
290
     0
176
     1
290
     0
176
     1
290
     0
176
     1
290
     0
176
     1
290
     0
176
     1
290
     0
176
     1
 90
       50
176
     1
 40
0.0
176
     1
 40
1.0
176
     1
 90
        0
176
     1
 62
    18
420
        0
176
     1
 90
       50
176
     1
 90
        3
176
     1
 62
     5
420
      255
176
     1
290
     0
176
     1
 90
       50
176
     1
 90
       50
176
     1
 90
       50
176
     1
290
     0
176
     1
 90
       50
176
     1
 62
   256
176
     0
 40
1.0
176
     0
 90
        2
176
     1
  1
strokes_ogs.tif
176
     1
290
     0
176
     1
 40
1.0
176
     1
 40
1.0
176
     1
1001
ACAD
1000
AcDbSavedByObjectVersion
1070
     0
  0
VISUALSTYLE
  5
2A
102
{ACAD_REACTORS
330
29
102
}
330
29
100
AcDbVisualStyle
  2
Flat
 70
     0
177
     3
291
     1
 70
    58
 90
        2
176
     1
 90
        1
176
     1
 90
        1
176
     1
 90
        2
176
     1
 40
0.6
176
     1
 40
30.0
176
     1
 62
     7
420
 16777215
176
     1
 90
        0
176
     1
 90
        0
176
     1
 62
     7
176
     1
 62
   257
176
     1
 90
        1
176
     1
 90
        1
176
     1
 40
1.0
176
     1
 90
        8
176
     1
 62
     7
176
     1
 40
1.0
176
     1
 90
        1
176
     1
 90
        6
176
     1
 90
        2
176
     1
 62
     7
176
     1
 90
        5
176
     1
 90
        0
176
     1
 90
        0
176
     1
290
     0
176
     1
 90
       13
176
     1
 40
0.0
176
     1
 90
        0
176
     1
290
     0
176
     1
290
     1
176
     1
290
     1
176
     1
290
     0
176
     1
290
     0
176
     1
290
     0
176
     1
290
     0
176
     1
290
     0
176
     1
290
     0
176
     1
 90
       50
176
     1
 40
0.0
176
     1
 40
1.0
176
     1
 90
        0
176
     1
 62
    18
420
        0
176
     1
 90
       50
176
     1
 90
        3
176
     1
 62
     5
420
      255
176
     1
290
     0
176
     1
 90
       50
176
     1
 90
       50
176
     1
 90
       50
176
     1
290
     0
176
     1
 90
       50
176
     1
 62
   256
176
     0
 40
1.0
176
     0
 90
        2
176
     1
  1
strokes_ogs.tif
176
     1
290
     0
176
     1
 40
1.0
176
     1
 40
1.0
176
     1
1001
ACAD
1000
AcDbSavedByObjectVersion
1070
     0
  0
VISUALSTYLE
  5
2B
102
{ACAD_REACTORS
330
29
102
}
330
29
100
AcDbVisualStyle
  2
FlatWithEdges
 70
     1
177
     3
291
     1
 70
    58
 90
        2
176
     1
 90
        1
176
     1
 90
        1
176
     1
 90
        2
176
     1
 40
0.6
176
     1
 40
30.0
176
     1
 62
     7
420
 16777215
176
     1
 90
        1
176
     1
 90
        0
176
     1
 62
     7
176
     1
 62
   257
176
     1
 90
        1
176
     1
 90
        1
176
     1
 40
1.0
176
     1
 90
        0
176
     1
 62
   257
176
     1
 40
1.0
176
     1
 90
        1
176
     1
 90
        6
176
     1
 90
        2
176
     1
 62
     7
176
     1
 90
        5
176
     1
 90
        0
176
     1
 90
        0
176
     1
290
     0
176
     1
 90
       13
176
     1
 40
0.0
176
     1
 90
        0
176
     1
290
     0
176
     1
290
     1
176
     1
290
     1
176
     1
290
     0
176
     1
290
     0
176
     1
290
     0
176
     1
290
     0
176
     1
290
     0
176
     1
290
     0
176
     1
 90
       50
176
     1
 40
0.0
176
     1
 40
1.0
176
     1
 90
        0
176
     1
 62
    18
420
        0
176
     1
 90
       50
176
     1
 90
        3
176
     1
 62
     5
420
      255
176
     1
290
     0
176
     1
 90
       50
176
     1
 90
       50
176
     1
 90
       50
176
     1
290
     0
176
     1
 90
       50
176
     1
 62
   256
176
     0
 40
1.0
176
     0
 90
        2
176
     1
  1
strokes_ogs.tif
176
     1
290
     0
176
     1
 40
1.0
176
     1
 40
1.0
176
     1
1001
ACAD
1000
AcDbSavedByObjectVersion
1070
     0
  0
VISUALSTYLE
  5
2C
102
{ACAD_REACTORS
330
29
102
}
330
29
100
AcDbVisualStyle
  2
Gouraud
 70
     2
177
     3
291
     1
 70
    58
 90
        2
176
     1
 90
        2
176
     1
 90
        1
176
     1
 90
        2
176
     1
 40
0.6
176
     1
 40
30.0
176
     1
 62
     7
420
 16777215
176
     1
 90
        0
176
     1
 90
        0
176
     1
 62
     7
176
     1
 62
   257
176
     1
 90
        1
176
     1
 90
        1
176
     1
 40
1.0
176
     1
 90
        0
176
     1
 62
     7
176
     1
 40
1.0
176
     1
 90
        1
176
     1
 90
        6
176
     1
 90
        2
176
     1
 62
     7
176
     1
 90
        5
176
     1
 90
        0
176
     1
 90
        0
176
     1
290
     0
176
     1
 90
       13
176
     1
 40
0.0
176
     1
 90
        0
176
     1
290
     0
176
     1
290
     1
176
     1
290
     1
176
     1
290
     0
176
     1
290
     0
176
     1
290
     0
176
     1
290
     0
176
     1
290
     0
176
     1
290
     0
176
     1
 90
       50
176
     1
 40
0.0
176
     1
 40
1.0
176
     1
 90
        0
176
     1
 62
    18
420
        0
176
     1
 90
       50
176
     1
 90
        3
176
     1
 62
     5
420
      255
176
     1
290
     0
176
     1
 90
       50
176
     1
 90
       50
176
     1
 90
       50
176
     1
290
     0
176
     1
 90
       50
176
     1
 62
   256
176
     0
 40
1.0
176
     0
 90
        2
176
     1
  1
strokes_ogs.tif
176
     1
290
     0
176
     1
 40
1.0
176
     1
 40
1.0
176
     1
1001
ACAD
1000
AcDbSavedByObjectVersion
1070
     0
  0
VISUALSTYLE
  5
2D
102
{ACAD_REACTORS
330
29
102
}
330
29
100
AcDbVisualStyle
  2
GouraudWithEdges
 70
     3
177
     3
291
     1
 70
    58
 90
        2
176
     1
 90
        2
176
     1
 90
        1
176
     1
 90
        2
176
     1
 40
0.6
176
     1
 40
30.0
176
     1
 62
     7
420
 16777215
176
     1
 90
        1
176
     1
 90
        0
176
     1
 62
     7
176
     1
 62
   257
176
     1
 90
        1
176
     1
 90
        1
176
     1
 40
1.0
176
     1
 90
        0
176
     1
 62
   257
176
     1
 40
1.0
176
     1
 90
        1
176
     1
 90
        6
176
     1
 90
        2
176
     1
 62
     7
176
     1
 90
        5
176
     1
 90
        0
176
     1
 90
        0
176
     1
290
     0
176
     1
 90
       13
176
     1
 40
0.0
176
     1
 90
        0
176
     1
290
     0
176
     1
290
     1
176
     1
290
     1
176
     1
290
     0
176
     1
290
     0
176
     1
290
     0
176
     1
290
     0
176
     1
290
     0
176
     1
290
     0
176
     1
 90
       50
176
     1
 40
0.0
176
     1
 40
1.0
176
     1
 90
        0
176
     1
 62
    18
420
        0
176
     1
 90
       50
176
     1
 90
        3
176
     1
 62
     5
420
      255
176
     1
290
     0
176
     1
 90
       50
176
     1
 90
       50
176
     1
 90
       50
176
     1
290
     0
176
     1
 90
       50
176
     1
 62
   256
176
     0
 40
1.0
176
     0
 90
        2
176
     1
  1
strokes_ogs.tif
176
     1
290
     0
176
     1
 40
1.0
176
     1
 40
1.0
176
     1
1001
ACAD
1000
AcDbSavedByObjectVersion
1070
     0
  0
VISUALSTYLE
  5
31
102
{ACAD_REACTORS
330
29
102
}
330
29
100
AcDbVisualStyle
  2
Hidden
 70
     6
177
     3
291
     0
 70
    58
 90
        1
176
     1
 90
        2
176
     1
 90
        2
176
     1
 90
        0
176
     1
 40
0.6
176
     1
 40
30.0
176
     1
 62
     7
420
 16777215
176
     1
 90
        2
176
     1
 90
        2
176
     1
 62
     7
176
     1
 62
   257
176
     1
 90
        2
176
     1
 90
        1
176
     1
 40
40.0
176
     1
 90
        0
176
     1
 62
   257
176
     1
 40
1.0
176
     1
 90
        1
176
     1
 90
        6
176
     1
 90
        2
176
     1
 62
     7
176
     1
 90
        3
176
     1
 90
        0
176
     1
 90
        0
176
     1
290
     0
176
     1
 90
        1
176
     1
 40
0.0
176
     1
 90
        0
176
     1
290
     0
176
     1
290
     1
176
     1
290
     1
176
     1
290
     0
176
     1
290
     0
176
     1
290
     0
176
     1
290
     0
176
     1
290
     0
176
     1
290
     0
176
     1
 90
       50
176
     1
 40
0.0
176
     1
 40
1.0
176
     1
 90
        0
176
     1
 62
    18
420
        0
176
     1
 90
       50
176
     1
 90
        3
176
     1
 62
     5
420
      255
176
     1
290
     0
176
     1
 90
       50
176
     1
 90
       50
176
     1
 90
       50
176
     1
290
     0
176
     1
 90
       50
176
     1
 62
   256
176
     0
 40
1.0
176
     0
 90
        2
176
     1
  1
strokes_ogs.tif
176
     1
290
     0
176
     1
 40
1.0
176
     1
 40
1.0
176
     1
1001
ACAD
1000
AcDbSavedByObjectVersion
1070
     0
  0
VISUALSTYLE
  5
3F
102
{ACAD_REACTORS
330
29
102
}
330
29
100
AcDbVisualStyle
  2
JitterOff
 70
    20
177
     3
291
     1
 70
    58
 90
        2
176
     0
 90
        2
176
     0
 90
        0
176
     0
 90
        0
176
     0
 40
0.6
176
     0
 40
30.0
176
     0
 62
     7
420
 16777215
176
     0
 90
        1
176
     0
 90
        4
176
     0
 62
     7
176
     0
 62
   257
176
     0
 90
        1
176
     0
 90
        1
176
     0
 40
1.0
176
     0
 90
       10
176
     2
 62
     7
176
     0
 40
1.0
176
     0
 90
        1
176
     0
 90
        6
176
     0
 90
        2
176
     0
 62
     7
176
     0
 90
        5
176
     0
 90
        0
176
     0
 90
        0
176
     0
290
     0
176
     0
 90
        1
176
     0
 40
0.0
176
     0
 90
        0
176
     0
290
     0
176
     0
290
     1
176
     0
290
     1
176
     0
290
     0
176
     0
290
     0
176
     0
290
     0
176
     0
290
     0
176
     0
290
     0
176
     0
290
     0
176
     0
 90
       50
176
     0
 40
0.0
176
     0
 40
1.0
176
     0
 90
        0
176
     0
 62
    18
420
        0
176
     0
 90
       50
176
     0
 90
        3
176
     0
 62
     5
420
      255
176
     0
290
     0
176
     0
 90
       50
176
     0
 90
       50
176
     0
 90
       50
176
     0
290
     0
176
     0
 90
       50
176
     0
 62
   256
176
     0
 40
1.0
176
     0
 90
        2
176
     0
  1
strokes_ogs.tif
176
     0
290
     0
176
     0
 40
1.0
176
     0
 40
1.0
176
     0
1001
ACAD
1000
AcDbSavedByObjectVersion
1070
     0
  0
VISUALSTYLE
  5
37
102
{ACAD_REACTORS
330
29
102
}
330
29
100
AcDbVisualStyle
  2
Linepattern
 70
    14
177
     3
291
     1
 70
    58
 90
        2
176
     1
 90
        2
176
     1
 90
        0
176
     1
 90
        0
176
     1
 40
0.6
176
     1
 40
30.0
176
     1
 62
     7
420
 16777215
176
     1
 90
        1
176
     1
 90
        4
176
     1
 62
     7
176
     1
 62
   257
176
     1
 90
        7
176
     1
 90
        7
176
     1
 40
1.0
176
     1
 90
        8
176
     1
 62
     7
176
     1
 40
1.0
176
     1
 90
        1
176
     1
 90
        6
176
     1
 90
        2
176
     1
 62
     7
176
     1
 90
        5
176
     1
 90
        0
176
     1
 90
        0
176
     1
290
     0
176
     1
 90
        1
176
     1
 40
0.0
176
     1
 90
        0
176
     1
290
     0
176
     1
290
     1
176
     1
290
     1
176
     1
290
     0
176
     1
290
     0
176
     1
290
     0
176
     1
290
     0
176
     1
290
     0
176
     1
290
     0
176
     1
 90
       50
176
     1
 40
0.0
176
     1
 40
1.0
176
     1
 90
        0
176
     1
 62
    18
420
        0
176
     1
 90
       50
176
     1
 90
        3
176
     1
 62
     5
420
      255
176
     1
290
     0
176
     1
 90
       50
176
     1
 90
       50
176
     1
 90
       50
176
     1
290
     0
176
     1
 90
       50
176
     1
 62
   256
176
     0
 40
1.0
176
     0
 90
        2
176
     1
  1
strokes_ogs.tif
176
     1
290
     0
176
     1
 40
1.0
176
     1
 40
1.0
176
     1
1001
ACAD
1000
AcDbSavedByObjectVersion
1070
     0
  0
VISUALSTYLE
  5
40
102
{ACAD_REACTORS
330
29
102
}
330
29
100
AcDbVisualStyle
  2
OverhangOff
 70
    21
177
     3
291
     1
 70
    58
 90
        2
176
     0
 90
        2
176
     0
 90
        0
176
     0
 90
        0
176
     0
 40
0.6
176
     0
 40
30.0
176
     0
 62
     7
420
 16777215
176
     0
 90
        1
176
     0
 90
        4
176
     0
 62
     7
176
     0
 62
   257
176
     0
 90
        1
176
     0
 90
        1
176
     0
 40
1.0
176
     0
 90
        9
176
     2
 62
     7
176
     0
 40
1.0
176
     0
 90
        1
176
     0
 90
        6
176
     0
 90
        2
176
     0
 62
     7
176
     0
 90
        5
176
     0
 90
        0
176
     0
 90
        0
176
     0
290
     0
176
     0
 90
        1
176
     0
 40
0.0
176
     0
 90
        0
176
     0
290
     0
176
     0
290
     1
176
     0
290
     1
176
     0
290
     0
176
     0
290
     0
176
     0
290
     0
176
     0
290
     0
176
     0
290
     0
176
     0
290
     0
176
     0
 90
       50
176
     0
 40
0.0
176
     0
 40
1.0
176
     0
 90
        0
176
     0
 62
    18
420
        0
176
     0
 90
       50
176
     0
 90
        3
176
     0
 62
     5
420
      255
176
     0
290
     0
176
     0
 90
       50
176
     0
 90
       50
176
     0
 90
       50
176
     0
290
     0
176
     0
 90
       50
176
     0
 62
   256
176
     0
 40
1.0
176
     0
 90
        2
176
     0
  1
strokes_ogs.tif
176
     0
290
     0
176
     0
 40
1.0
176
     0
 40
1.0
176
     0
1001
ACAD
1000
AcDbSavedByObjectVersion
1070
     0
  0
VISUALSTYLE
  5
33
102
{ACAD_REACTORS
330
29
102
}
330
29
100
AcDbVisualStyle
  2
Realistic
 70
     8
177
     3
291
     0
 70
    58
 90
        2
176
     1
 90
        3
176
     1
 90
        0
176
     1
 90
        2
176
     1
 40
0.6
176
     1
 40
30.0
176
     1
 62
     7
420
 16777215
176
     1
 90
        0
176
     1
 90
        0
176
     1
 62
     7
176
     1
 62
   257
176
     1
 90
        1
176
     1
 90
        1
176
     1
 40
1.0
176
     1
 90
        8
176
     1
 62
   257
176
     1
 40
1.0
176
     1
 90
        1
176
     1
 90
        6
176
     1
 90
        2
176
     1
 62
     7
176
     1
 90
        3
176
     1
 90
        0
176
     1
 90
        0
176
     1
290
     0
176
     1
 90
       13
176
     1
 40
0.0
176
     1
 90
        0
176
     1
290
     0
176
     1
290
     1
176
     1
290
     1
176
     1
290
     0
176
     1
290
     0
176
     1
290
     0
176
     1
290
     0
176
     1
290
     0
176
     1
290
     0
176
     1
 90
       50
176
     1
 40
0.0
176
     1
 40
1.0
176
     1
 90
        0
176
     1
 62
    18
420
        0
176
     1
 90
       50
176
     1
 90
        3
176
     1
 62
     5
420
      255
176
     1
290
     0
176
     1
 90
       50
176
     1
 90
       50
176
     1
 90
       50
176
     1
290
     0
176
     1
 90
       50
176
     1
 62
   256
176
     0
 40
1.0
176
     0
 90
        2
176
     1
  1
strokes_ogs.tif
176
     1
290
     0
176
     1
 40
1.0
176
     1
 40
1.0
176
     1
1001
ACAD
1000
AcDbSavedByObjectVersion
1070
     0
  0
VISUALSTYLE
  5
3E
102
{ACAD_REACTORS
330
29
102
}
330
29
100
AcDbVisualStyle
  2
Shaded
 70
    27
177
     3
291
     0
 70
    58
 90
        2
176
     1
 90
        2
176
     1
 90
        1
176
     1
 90
        2
176
     1
 40
0.6
176
     1
 40
30.0
176
     1
 62
     7
420
 16777215
176
     1
 90
        0
176
     1
 90
        4
176
     1
 62
     7
176
     1
 62
   257
176
     1
 90
        1
176
     1
 90
        1
176
     1
 40
1.0
176
     1
 90
        8
176
     1
 62
   257
176
     1
 40
1.0
176
     1
 90
        1
176
     1
 90
        6
176
     1
 90
        2
176
     1
 62
     8
420
  7895160
176
     1
 90
        3
176
     1
 90
        0
176
     1
 90
        0
176
     1
290
     0
176
     1
 90
        5
176
     1
 40
0.0
176
     1
 90
        0
176
     1
290
     0
176
     1
290
     1
176
     1
290
     1
176
     1
290
     0
176
     1
290
     0
176
     1
290
     0
176
     1
290
     0
176
     1
290
     0
176
     1
290
     0
176
     1
 90
       50
176
     1
 40
0.0
176
     1
 40
1.0
176
     1
 90
        0
176
     1
 62
    18
420
        0
176
     1
 90
       50
176
     1
 90
        3
176
     1
 62
     5
420
      255
176
     1
290
     0
176
     1
 90
       50
176
     1
 90
       50
176
     1
 90
       50
176
     1
290
     0
176
     1
 90
       50
176
     1
 62
   256
176
     0
 40
1.0
176
     0
 90
        2
176
     1
  1
strokes_ogs.tif
176
     1
290
     0
176
     1
 40
1.0
176
     1
 40
1.0
176
     1
1001
ACAD
1000
AcDbSavedByObjectVersion
1070
     0
  0
VISUALSTYLE
  5
3D
102
{ACAD_REACTORS
330
29
102
}
330
29
100
AcDbVisualStyle
  2
Shaded with edges
 70
    26
177
     3
291
     0
 70
    58
 90
        2
176
     1
 90
        2
176
     1
 90
        1
176
     1
 90
        2
176
     1
 40
0.6
176
     1
 40
30.0
176
     1
 62
     7
420
 16777215
176
     1
 90
        1
176
     1
 90
        2
176
     1
 62
     7
176
     1
 62
   257
176
     1
 90
        2
176
     1
 90
        1
176
     1
 40
1.0
176
     1
 90
        8
176
     1
 62
   257
176
     1
 40
1.0
176
     1
 90
        1
176
     1
 90
        6
176
     1
 90
        2
176
     1
 62
     7
176
     1
 90
        3
176
     1
 90
        0
176
     1
 90
        0
176
     1
290
     0
176
     1
 90
        5
176
     1
 40
0.0
176
     1
 90
        0
176
     1
290
     0
176
     1
290
     1
176
     1
290
     1
176
     1
290
     0
176
     1
290
     0
176
     1
290
     0
176
     1
290
     0
176
     1
290
     0
176
     1
290
     0
176
     1
 90
       50
176
     1
 40
0.0
176
     1
 40
1.0
176
     1
 90
        0
176
     1
 62
    18
420
        0
176
     1
 90
       50
176
     1
 90
        3
176
     1
 62
     5
420
      255
176
     1
290
     0
176
     1
 90
       50
176
     1
 90
       50
176
     1
 90
       50
176
     1
290
     0
176
     1
 90
       50
176
     1
 62
   256
176
     0
 40
1.0
176
     0
 90
        2
176
     1
  1
strokes_ogs.tif
176
     1
290
     0
176
     1
 40
1.0
176
     1
 40
1.0
176
     1
1001
ACAD
1000
AcDbSavedByObjectVersion
1070
     0
  0
VISUALSTYLE
  5
3A
102
{ACAD_REACTORS
330
29
102
}
330
29
100
AcDbVisualStyle
  2
Shades of Gray
 70
    23
177
     3
291
     0
 70
    58
 90
        2
176
     1
 90
        2
176
     1
 90
        3
176
     1
 90
        0
176
     1
 40
0.6
176
     1
 40
30.0
176
     1
 62
     7
420
 16777215
176
     1
 90
        2
176
     1
 90
        2
176
     1
 62
     7
176
     1
 62
     7
176
     1
 90
        1
176
     1
 90
        1
176
     1
 40
40.0
176
     1
 90
        8
176
     1
 62
     7
176
     1
 40
1.0
176
     1
 90
        1
176
     1
 90
        6
176
     1
 90
        2
176
     1
 62
     7
176
     1
 90
        3
176
     1
 90
        0
176
     1
 90
        0
176
     1
290
     0
176
     1
 90
        1
176
     1
 40
0.0
176
     1
 90
        0
176
     1
290
     0
176
     1
290
     1
176
     1
290
     1
176
     1
290
     0
176
     1
290
     0
176
     1
290
     0
176
     1
290
     0
176
     1
290
     0
176
     1
290
     0
176
     1
 90
       50
176
     1
 40
0.0
176
     1
 40
1.0
176
     1
 90
        0
176
     1
 62
    18
420
        0
176
     1
 90
       50
176
     1
 90
        3
176
     1
 62
     5
420
      255
176
     1
290
     0
176
     1
 90
       50
176
     1
 90
       50
176
     1
 90
       50
176
     1
290
     0
176
     1
 90
       50
176
     1
 62
   256
176
     0
 40
1.0
176
     0
 90
        2
176
     1
  1
strokes_ogs.tif
176
     1
290
     0
176
     1
 40
1.0
176
     1
 40
1.0
176
     1
1001
ACAD
1000
AcDbSavedByObjectVersion
1070
     0
  0
VISUALSTYLE
  5
3B
102
{ACAD_REACTORS
330
29
102
}
330
29
100
AcDbVisualStyle
  2
Sketchy
 70
    24
177
     3
291
     0
 70
    58
 90
        1
176
     1
 90
        2
176
     1
 90
        2
176
     1
 90
        0
176
     1
 40
0.6
176
     1
 40
30.0
176
     1
 62
     7
420
 16777215
176
     1
 90
        2
176
     1
 90
        2
176
     1
 62
     7
176
     1
 62
     7
176
     1
 90
        1
176
     1
 90
        1
176
     1
 40
40.0
176
     1
 90
       11
176
     1
 62
     7
176
     1
 40
1.0
176
     1
 90
        1
176
     1
 90
        6
176
     1
 90
        2
176
     1
 62
     7
176
     1
 90
        6
176
     1
 90
        0
176
     1
 90
        0
176
     1
290
     0
176
     1
 90
        1
176
     1
 40
0.0
176
     1
 90
        0
176
     1
290
     0
176
     1
290
     1
176
     1
290
     1
176
     1
290
     0
176
     1
290
     0
176
     1
290
     0
176
     1
290
     0
176
     1
290
     0
176
     1
290
     0
176
     1
 90
       50
176
     1
 40
0.0
176
     1
 40
1.0
176
     1
 90
        0
176
     1
 62
    18
420
        0
176
     1
 90
       50
176
     1
 90
        3
176
     1
 62
     5
420
      255
176
     1
290
     0
176
     1
 90
       50
176
     1
 90
       50
176
     1
 90
       50
176
     1
290
     0
176
     1
 90
       50
176
     1
 62
   256
176
     0
 40
1.0
176
     0
 90
        2
176
     1
  1
strokes_ogs.tif
176
     1
290
     0
176
     1
 40
1.0
176
     1
 40
1.0
176
     1
1001
ACAD
1000
AcDbSavedByObjectVersion
1070
     0
  0
VISUALSTYLE
  5
36
102
{ACAD_REACTORS
330
29
102
}
330
29
100
AcDbVisualStyle
  2
Thicken
 70
    13
177
     3
291
     1
 70
    58
 90
        2
176
     1
 90
        2
176
     1
 90
        0
176
     1
 90
        0
176
     1
 40
0.6
176
     1
 40
30.0
176
     1
 62
     7
420
 16777215
176
     1
 90
        1
176
     1
 90
        4
176
     1
 62
     7
176
     1
 62
   257
176
     1
 90
        1
176
     1
 90
        1
176
     1
 40
1.0
176
     1
 90
       12
176
     1
 62
     7
176
     1
 40
1.0
176
     1
 90
        1
176
     1
 90
        6
176
     1
 90
        2
176
     1
 62
     7
176
     1
 90
        5
176
     1
 90
        0
176
     1
 90
        0
176
     1
290
     0
176
     1
 90
        1
176
     1
 40
0.0
176
     1
 90
        0
176
     1
290
     0
176
     1
290
     1
176
     1
290
     1
176
     1
290
     0
176
     1
290
     0
176
     1
290
     0
176
     1
290
     0
176
     1
290
     0
176
     1
290
     0
176
     1
 90
       50
176
     1
 40
0.0
176
     1
 40
1.0
176
     1
 90
        0
176
     1
 62
    18
420
        0
176
     1
 90
       50
176
     1
 90
        3
176
     1
 62
     5
420
      255
176
     1
290
     0
176
     1
 90
       50
176
     1
 90
       50
176
     1
 90
       50
176
     1
290
     0
176
     1
 90
       50
176
     1
 62
   256
176
     0
 40
1.0
176
     0
 90
        2
176
     1
  1
strokes_ogs.tif
176
     1
290
     0
176
     1
 40
1.0
176
     1
 40
1.0
176
     1
1001
ACAD
1000
AcDbSavedByObjectVersion
1070
     0
  0
VISUALSTYLE
  5
30
102
{ACAD_REACTORS
330
29
102
}
330
29
100
AcDbVisualStyle
  2
Wireframe
 70
     5
177
     3
291
     0
 70
    58
 90
        0
176
     1
 90
        2
176
     1
 90
        0
176
     1
 90
        0
176
     1
 40
0.6
176
     1
 40
30.0
176
     1
 62
     7
420
 16777215
176
     1
 90
        1
176
     1
 90
        4
176
     1
 62
     7
176
     1
 62
   257
176
     1
 90
        1
176
     1
 90
        1
176
     1
 40
1.0
176
     1
 90
        0
176
     1
 62
   257
176
     1
 40
1.0
176
     1
 90
        1
176
     1
 90
        6
176
     1
 90
        2
176
     1
 62
     7
176
     1
 90
        3
176
     1
 90
        0
176
     1
 90
        0
176
     1
290
     0
176
     1
 90
        1
176
     1
 40
0.0
176
     1
 90
        0
176
     1
290
     0
176
     1
290
     1
176
     1
290
     1
176
     1
290
     0
176
     1
290
     0
176
     1
290
     0
176
     1
290
     0
176
     1
290
     0
176
     1
290
     0
176
     1
 90
       50
176
     1
 40
0.0
176
     1
 40
1.0
176
     1
 90
        0
176
     1
 62
    18
420
        0
176
     1
 90
       50
176
     1
 90
        3
176
     1
 62
     5
420
      255
176
     1
290
     0
176
     1
 90
       50
176
     1
 90
       50
176
     1
 90
       50
176
     1
290
     0
176
     1
 90
       50
176
     1
 62
   256
176
     0
 40
1.0
176
     0
 90
        2
176
     1
  1
strokes_ogs.tif
176
     1
290
     0
176
     1
 40
1.0
176
     1
 40
1.0
176
     1
1001
ACAD
1000
AcDbSavedByObjectVersion
1070
     0
  0
VISUALSTYLE
  5
3C
102
{ACAD_REACTORS
330
29
102
}
330
29
100
AcDbVisualStyle
  2
X-Ray
 70
    25
177
     3
291
     0
 70
    58
 90
        2
176
     1
 90
        2
176
     1
 90
        1
176
     1
 90
        1
176
     1
 40
0.5
176
     1
 40
30.0
176
     1
 62
     7
420
 16777215
176
     1
 90
        1
176
     1
 90
        0
176
     1
 62
     7
176
     1
 62
   257
176
     1
 90
        1
176
     1
 90
        1
176
     1
 40
1.0
176
     1
 90
        8
176
     1
 62
     7
176
     1
 40
1.0
176
     1
 90
        1
176
     1
 90
        6
176
     1
 90
        2
176
     1
 62
     7
176
     1
 90
        3
176
     1
 90
        0
176
     1
 90
        0
176
     1
290
     0
176
     1
 90
       13
176
     1
 40
0.0
176
     1
 90
        0
176
     1
290
     0
176
     1
290
     1
176
     1
290
     1
176
     1
290
     0
176
     1
290
     0
176
     1
290
     0
176
     1
290
     0
176
     1
290
     0
176
     1
290
     0
176
     1
 90
       50
176
     1
 40
0.0
176
     1
 40
1.0
176
     1
 90
        0
176
     1
 62
    18
420
        0
176
     1
 90
       50
176
     1
 90
        3
176
     1
 62
     5
420
      255
176
     1
290
     0
176
     1
 90
       50
176
     1
 90
       50
176
     1
 90
       50
176
     1
290
     0
176
     1
 90
       50
176
     1
 62
   256
176
     0
 40
1.0
176
     0
 90
        2
176
     1
  1
strokes_ogs.tif
176
     1
290
     0
176
     1
 40
1.0
176
     1
 40
1.0
176
     1
1001
ACAD
1000
AcDbSavedByObjectVersion
1070
     0
  0
DICTIONARYVAR
  5
23E
102
{ACAD_REACTORS
330
239
102
}
330
239
100
DictionaryVariables
280
     0
  1
1:1
  0
DICTIONARYVAR
  5
23B
102
{ACAD_REACTORS
330
239
102
}
330
239
100
DictionaryVariables
280
     0
  1
STANDARD
  0
DICTIONARYVAR
  5
23A
102
{ACAD_REACTORS
330
239
102
}
330
239
100
DictionaryVariables
280
     0
  1
STANDARD
  0
DICTIONARYVAR
  5
23C
102
{ACAD_REACTORS
330
239
102
}
330
239
100
DictionaryVariables
280
     0
  1
Imperial24
  0
DICTIONARYVAR
  5
23D
102
{ACAD_REACTORS
330
239
102
}
330
239
100
DictionaryVariables
280
     0
  1
Imperial24
  0
DICTIONARY
  5
244
330
6B
100
AcDbDictionary
280
     1
281
     1
  3
ACAD_XREC_ROUNDTRIP
360
245
  0
DICTIONARY
  5
1A
330
19
100
AcDbDictionary
280
     1
281
     1
  3
BUMPTILE
360
1C
  3
DIFFUSETILE
360
1B
  3
OPACITYTILE
360
1F
  3
REFLECTIONTILE
360
1E
  3
REFRACTIONTILE
360
20
  3
SPECULARTILE
360
1D
  0
DICTIONARY
  5
12
330
11
100
AcDbDictionary
280
     1
281
     1
  3
BUMPTILE
360
14
  3
DIFFUSETILE
360
13
  3
OPACITYTILE
360
17
  3
REFLECTIONTILE
360
16
  3
REFRACTIONTILE
360
18
  3
SPECULARTILE
360
15
  0
DICTIONARY
  5
22
330
21
100
AcDbDictionary
280
     1
281
     1
  3
BUMPTILE
360
24
  3
DIFFUSETILE
360
23
  3
OPACITYTILE
360
27
  3
REFLECTIONTILE
360
26
  3
REFRACTIONTILE
360
28
  3
SPECULARTILE
360
25
  0
DICTIONARY
  5
242
330
69
100
AcDbDictionary
280
     1
281
     1
  3
ACAD_XREC_ROUNDTRIP
360
243
  0
DICTIONARY
  5
23F
330
65
100
AcDbDictionary
280
     1
281
     1
  3
ACAD_ROUNDTRIP_2008_TABLESTYLE_CELLSTYLEMAP
360
240
  0
XRECORD
  5
245
102
{ACAD_REACTORS
330
244
102
}
330
244
100
AcDbXrecord
280
     1
102
DISPLAYNAME
  1
Imperial24
102
FLAGS
 90
        0
  0
XRECORD
  5
1C
102
{ACAD_REACTORS
330
1A
102
}
330
1A
100
AcDbXrecord
280
     1
270
     1
271
     1
  0
XRECORD
  5
1B
102
{ACAD_REACTORS
330
1A
102
}
330
1A
100
AcDbXrecord
280
     1
270
     1
271
     1
  0
XRECORD
  5
1F
102
{ACAD_REACTORS
330
1A
102
}
330
1A
100
AcDbXrecord
280
     1
270
     1
271
     1
  0
XRECORD
  5
1E
102
{ACAD_REACTORS
330
1A
102
}
330
1A
100
AcDbXrecord
280
     1
270
     1
271
     1
  0
XRECORD
  5
20
102
{ACAD_REACTORS
330
1A
102
}
330
1A
100
AcDbXrecord
280
     1
270
     1
271
     1
  0
XRECORD
  5
1D
102
{ACAD_REACTORS
330
1A
102
}
330
1A
100
AcDbXrecord
280
     1
270
     1
271
     1
  0
XRECORD
  5
14
102
{ACAD_REACTORS
330
12
102
}
330
12
100
AcDbXrecord
280
     1
270
     1
271
     1
  0
XRECORD
  5
13
102
{ACAD_REACTORS
330
12
102
}
330
12
100
AcDbXrecord
280
     1
270
     1
271
     1
  0
XRECORD
  5
17
102
{ACAD_REACTORS
330
12
102
}
330
12
100
AcDbXrecord
280
     1
270
     1
271
     1
  0
XRECORD
  5
16
102
{ACAD_REACTORS
330
12
102
}
330
12
100
AcDbXrecord
280
     1
270
     1
271
     1
  0
XRECORD
  5
18
102
{ACAD_REACTORS
330
12
102
}
330
12
100
AcDbXrecord
280
     1
270
     1
271
     1
  0
XRECORD
  5
15
102
{ACAD_REACTORS
330
12
102
}
330
12
100
AcDbXrecord
280
     1
270
     1
271
     1
  0
XRECORD
  5
24
102
{ACAD_REACTORS
330
22
102
}
330
22
100
AcDbXrecord
280
     1
270
     1
271
     1
  0
XRECORD
  5
23
102
{ACAD_REACTORS
330
22
102
}
330
22
100
AcDbXrecord
280
     1
270
     1
271
     1
  0
XRECORD
  5
27
102
{ACAD_REACTORS
330
22
102
}
330
22
100
AcDbXrecord
280
     1
270
     1
271
     1
  0
XRECORD
  5
26
102
{ACAD_REACTORS
330
22
102
}
330
22
100
AcDbXrecord
280
     1
270
     1
271
     1
  0
XRECORD
  5
28
102
{ACAD_REACTORS
330
22
102
}
330
22
100
AcDbXrecord
280
     1
270
     1
271
     1
  0
XRECORD
  5
25
102
{ACAD_REACTORS
330
22
102
}
330
22
100
AcDbXrecord
280
     1
270
     1
271
     1
  0
XRECORD
  5
243
102
{ACAD_REACTORS
330
242
102
}
330
242
100
AcDbXrecord
280
     1
102
DISPLAYNAME
  1
Imperial24
102
FLAGS
 90
        0
  0
CELLSTYLEMAP
  5
240
102
{ACAD_REACTORS
330
23F
102
}
330
23F
100
AcDbCellStyleMap
 90
        3
300
CELLSTYLE
  1
TABLEFORMAT_BEGIN
 90
        5
170
     1
 91
        0
 92
    32768
 62
   257
 93
        1
300
CONTENTFORMAT
  1
CONTENTFORMAT_BEGIN
 90
        0
 91
        0
 92
      512
 93
        0
300

 40
0.0
140
1.0
 94
        5
 62
     0
340
55
144
0.25
309
CONTENTFORMAT_END
171
     0
 94
        0
309
TABLEFORMAT_END
  1
CELLSTYLE_BEGIN
 90
        1
 91
        1
300
_TITLE
309
CELLSTYLE_END
300
CELLSTYLE
  1
TABLEFORMAT_BEGIN
 90
        5
170
     1
 91
        0
 92
        0
 62
   257
 93
        1
300
CONTENTFORMAT
  1
CONTENTFORMAT_BEGIN
 90
        0
 91
        0
 92
      512
 93
        0
300

 40
0.0
140
1.0
 94
        5
 62
     0
340
55
144
0.18
309
CONTENTFORMAT_END
171
     0
 94
        0
309
TABLEFORMAT_END
  1
CELLSTYLE_BEGIN
 90
        2
 91
        1
300
_HEADER
309
CELLSTYLE_END
300
CELLSTYLE
  1
TABLEFORMAT_BEGIN
 90
        5
170
     1
 91
        0
 92
        0
 62
   257
 93
        1
300
CONTENTFORMAT
  1
CONTENTFORMAT_BEGIN
 90
        0
 91
        0
 92
      512
 93
        0
300

 40
0.0
140
1.0
 94
        2
 62
     0
340
55
144
0.18
309
CONTENTFORMAT_END
171
     0
 94
        0
309
TABLEFORMAT_END
  1
CELLSTYLE_BEGIN
 90
        3
 91
        2
300
_DATA
309
CELLSTYLE_END
  0
ENDSEC
  0
EOF
