  0
SECTION
  2
HEADER
  9
$ACADVER
  1
AC1027
  9
$ACADMAINTVER
 70
   125
  9
$DWGCODEPAGE
  3
ANSI_1252
  9
$REQUIREDVERSIONS
160
                 0
  9
$INSBASE
 10
0.0
 20
0.0
 30
0.0
  9
$EXTMIN
 10
1.000000000000000E+20
 20
1.000000000000000E+20
 30
1.000000000000000E+20
  9
$EXTMAX
 10
-1.000000000000000E+20
 20
-1.000000000000000E+20
 30
-1.000000000000000E+20
  9
$LIMMIN
 10
0.0
 20
0.0
  9
$LIMMAX
 10
12.0
 20
9.0
  9
$ORTHOMODE
 70
     0
  9
$REGENMODE
 70
     1
  9
$FILLMODE
 70
     1
  9
$QTEXTMODE
 70
     0
  9
$MIRRTEXT
 70
     0
  9
$LTSCALE
 40
1.0
  9
$ATTMODE
 70
     1
  9
$TEXTSIZE
 40
0.2
  9
$TRACEWID
 40
0.05
  9
$TEXTSTYLE
  7
Standard
  9
$CLAYER
  8
0
  9
$CELTYPE
  6
ByLayer
  9
$CECOLOR
 62
   256
  9
$CELTSCALE
 40
1.0
  9
$DISPSILH
 70
     0
  9
$DIMSCALE
 40
1.0
  9
$DIMASZ
 40
0.18
  9
$DIMEXO
 40
0.0625
  9
$DIMDLI
 40
0.38
  9
$DIMRND
 40
0.0
  9
$DIMDLE
 40
0.0
  9
$DIMEXE
 40
0.18
  9
$DIMTP
 40
0.0
  9
$DIMTM
 40
0.0
  9
$DIMTXT
 40
0.18
  9
$DIMCEN
 40
0.09
  9
$DIMTSZ
 40
0.0
  9
$DIMTOL
 70
     0
  9
$DIMLIM
 70
     0
  9
$DIMTIH
 70
     1
  9
$DIMTOH
 70
     1
  9
$DIMSE1
 70
     0
  9
$DIMSE2
 70
     0
  9
$DIMTAD
 70
     0
  9
$DIMZIN
 70
     0
  9
$DIMBLK
  1

  9
$DIMASO
 70
     1
  9
$DIMSHO
 70
     1
  9
$DIMPOST
  1

  9
$DIMAPOST
  1

  9
$DIMALT
 70
     0
  9
$DIMALTD
 70
     2
  9
$DIMALTF
 40
25.4
  9
$DIMLFAC
 40
1.0
  9
$DIMTOFL
 70
     0
  9
$DIMTVP
 40
0.0
  9
$DIMTIX
 70
     0
  9
$DIMSOXD
 70
     0
  9
$DIMSAH
 70
     0
  9
$DIMBLK1
  1

  9
$DIMBLK2
  1

  9
$DIMSTYLE
  2
Standard
  9
$DIMCLRD
 70
     0
  9
$DIMCLRE
 70
     0
  9
$DIMCLRT
 70
     0
  9
$DIMTFAC
 40
1.0
  9
$DIMGAP
 40
0.09
  9
$DIMJUST
 70
     0
  9
$DIMSD1
 70
     0
  9
$DIMSD2
 70
     0
  9
$DIMTOLJ
 70
     1
  9
$DIMTZIN
 70
     0
  9
$DIMALTZ
 70
     0
  9
$DIMALTTZ
 70
     0
  9
$DIMUPT
 70
     0
  9
$DIMDEC
 70
     4
  9
$DIMTDEC
 70
     4
  9
$DIMALTU
 70
     2
  9
$DIMALTTD
 70
     2
  9
$DIMTXSTY
  7
Standard
  9
$DIMAUNIT
 70
     0
  9
$DIMADEC
 70
     0
  9
$DIMALTRND
 40
0.0
  9
$DIMAZIN
 70
     0
  9
$DIMDSEP
 70
    46
  9
$DIMATFIT
 70
     3
  9
$DIMFRAC
 70
     0
  9
$DIMLDRBLK
  1

  9
$DIMLUNIT
 70
     2
  9
$DIMLWD
 70
    -2
  9
$DIMLWE
 70
    -2
  9
$DIMTMOVE
 70
     0
  9
$DIMFXL
 40
1.0
  9
$DIMFXLON
 70
     0
  9
$DIMJOGANG
 40
0.7853981633974483
  9
$DIMTFILL
 70
     0
  9
$DIMTFILLCLR
 70
     0
  9
$DIMARCSYM
 70
     0
  9
$DIMLTYPE
  6

  9
$DIMLTEX1
  6

  9
$DIMLTEX2
  6

  9
$DIMTXTDIRECTION
 70
     0
  9
$LUNITS
 70
     2
  9
$LUPREC
 70
     4
  9
$SKETCHINC
 40
0.1
  9
$FILLETRAD
 40
0.0
  9
$AUNITS
 70
     0
  9
$AUPREC
 70
     0
  9
$MENU
  1
.
  9
$ELEVATION
 40
0.0
  9
$PELEVATION
 40
0.0
  9
$THICKNESS
 40
0.0
  9
$LIMCHECK
 70
     0
  9
$CHAMFERA
 40
0.0
  9
$CHAMFERB
 40
0.0
  9
$CHAMFERC
 40
0.0
  9
$CHAMFERD
 40
0.0
  9
$SKPOLY
 70
     0
  9
$TDCREATE
 40
2461217.146342593
  9
$TDUCREATE
 40
2461217.146342593
  9
$TDUPDATE
 40
2461217.146342593
  9
$TDUUPDATE
 40
2461217.146342593
  9
$TDINDWG
 40
0.0000000000
  9
$TDUSRTIMER
 40
0.0000000000
  9
$USRTIMER
 70
     1
  9
$ANGBASE
 50
0.0
  9
$ANGDIR
 70
     0
  9
$PDMODE
 70
     0
  9
$PDSIZE
 40
0.0
  9
$PLINEWID
 40
0.0
  9
$SPLFRAME
 70
     0
  9
$SPLINETYPE
 70
     6
  9
$SPLINESEGS
 70
     8
  9
$HANDSEED
  5
274
  9
$SURFTAB1
 70
     6
  9
$SURFTAB2
 70
     6
  9
$SURFTYPE
 70
     6
  9
$SURFU
 70
     6
  9
$SURFV
 70
     6
  9
$UCSBASE
  2

  9
$UCSNAME
  2

  9
$UCSORG
 10
0.0
 20
0.0
 30
0.0
  9
$UCSXDIR
 10
1.0
 20
0.0
 30
0.0
  9
$UCSYDIR
 10
0.0
 20
1.0
 30
0.0
  9
$UCSORTHOREF
  2

  9
$UCSORTHOVIEW
 70
     0
  9
$UCSORGTOP
 10
0.0
 20
0.0
 30
0.0
  9
$UCSORGBOTTOM
 10
0.0
 20
0.0
 30
0.0
  9
$UCSORGLEFT
 10
0.0
 20
0.0
 30
0.0
  9
$UCSORGRIGHT
 10
0.0
 20
0.0
 30
0.0
  9
$UCSORGFRONT
 10
0.0
 20
0.0
 30
0.0
  9
$UCSORGBACK
 10
0.0
 20
0.0
 30
0.0
  9
$PUCSBASE
  2

  9
$PUCSNAME
  2

  9
$PUCSORG
 10
0.0
 20
0.0
 30
0.0
  9
$PUCSXDIR
 10
1.0
 20
0.0
 30
0.0
  9
$PUCSYDIR
 10
0.0
 20
1.0
 30
0.0
  9
$PUCSORTHOREF
  2

  9
$PUCSORTHOVIEW
 70
     0
  9
$PUCSORGTOP
 10
0.0
 20
0.0
 30
0.0
  9
$PUCSORGBOTTOM
 10
0.0
 20
0.0
 30
0.0
  9
$PUCSORGLEFT
 10
0.0
 20
0.0
 30
0.0
  9
$PUCSORGRIGHT
 10
0.0
 20
0.0
 30
0.0
  9
$PUCSORGFRONT
 10
0.0
 20
0.0
 30
0.0
  9
$PUCSORGBACK
 10
0.0
 20
0.0
 30
0.0
  9
$USERI1
 70
     0
  9
$USERI2
 70
     0
  9
$USERI3
 70
     0
  9
$USERI4
 70
     0
  9
$USERI5
 70
     0
  9
$USERR1
 40
0.0
  9
$USERR2
 40
0.0
  9
$USERR3
 40
0.0
  9
$USERR4
 40
0.0
  9
$USERR5
 40
0.0
  9
$WORLDVIEW
 70
     1
  9
$SHADEDGE
 70
     3
  9
$SHADEDIF
 70
    70
  9
$TILEMODE
 70
     1
  9
$MAXACTVP
 70
    64
  9
$PINSBASE
 10
0.0
 20
0.0
 30
0.0
  9
$PLIMCHECK
 70
     0
  9
$PEXTMIN
 10
1.000000000000000E+20
 20
1.000000000000000E+20
 30
1.000000000000000E+20
  9
$PEXTMAX
 10
-1.000000000000000E+20
 20
-1.000000000000000E+20
 30
-1.000000000000000E+20
  9
$PLIMMIN
 10
0.0
 20
0.0
  9
$PLIMMAX
 10
12.0
 20
9.0
  9
$UNITMODE
 70
     0
  9
$VISRETAIN
 70
     1
  9
$PLINEGEN
 70
     0
  9
$PSLTSCALE
 70
     1
  9
$TREEDEPTH
 70
  3020
  9
$CMLSTYLE
  2
Standard
  9
$CMLJUST
 70
     0
  9
$CMLSCALE
 40
1.0
  9
$PROXYGRAPHICS
 70
     1
  9
$MEASUREMENT
 70
     0
  9
$CELWEIGHT
370
    -1
  9
$ENDCAPS
280
     0
  9
$JOINSTYLE
280
     0
  9
$LWDISPLAY
290
     0
  9
$INSUNITS
 70
     5
  9
$HYPERLINKBASE
  1

  9
$STYLESHEET
  1

  9
$XEDIT
290
     1
  9
$CEPSNTYPE
380
     0
  9
$PSTYLEMODE
290
     1
  9
$FINGERPRINTGUID
  2
{52223073-89C5-3545-B68B-F96AC5496FAF}
  9
$VERSIONGUID
  2
{401A4A5C-908C-6342-965B-01500808BC83}
  9
$EXTNAMES
290
     1
  9
$PSVPSCALE
 40
0.0
  9
$OLESTARTUP
290
     0
  9
$SORTENTS
280
   127
  9
$INDEXCTL
280
     0
  9
$HIDETEXT
280
     1
  9
$XCLIPFRAME
280
     2
  9
$HALOGAP
280
     0
  9
$OBSCOLOR
 70
   257
  9
$OBSLTYPE
280
     0
  9
$INTERSECTIONDISPLAY
280
     0
  9
$INTERSECTIONCOLOR
 70
   257
  9
$DIMASSOC
280
     2
  9
$PROJECTNAME
  1

  9
$CAMERADISPLAY
290
     0
  9
$LENSLENGTH
 40
50.0
  9
$CAMERAHEIGHT
 40
0.0
  9
$STEPSPERSEC
 40
2.0
  9
$STEPSIZE
 40
6.0
  9
$3DDWFPREC
 40
2.0
  9
$PSOLWIDTH
 40
0.25
  9
$PSOLHEIGHT
 40
4.0
  9
$LOFTANG1
 40
1.570796326794896
  9
$LOFTANG2
 40
1.570796326794896
  9
$LOFTMAG1
 40
0.0
  9
$LOFTMAG2
 40
0.0
  9
$LOFTPARAM
 70
     7
  9
$LOFTNORMALS
280
     1
  9
$LATITUDE
 40
37.795
  9
$LONGITUDE
 40
-122.394
  9
$NORTHDIRECTION
 40
0.0
  9
$TIMEZONE
 70
 -8000
  9
$LIGHTGLYPHDISPLAY
280
     1
  9
$TILEMODELIGHTSYNCH
280
     1
  9
$CMATERIAL
347
11
  9
$SOLIDHIST
280
     0
  9
$SHOWHIST
280
     1
  9
$DWFFRAME
280
     2
  9
$DGNFRAME
280
     0
  9
$REALWORLDSCALE
290
     1
  9
$INTERFERECOLOR
 62
     1
  9
$INTERFEREOBJVS
345
33
  9
$INTERFEREVPVS
346
30
  9
$CSHADOW
280
     0
  9
$SHADOWPLANELOCATION
 40
0.0
  0
ENDSEC
  0
SECTION
  2
CLASSES
  0
CLASS
  1
ACDBDICTIONARYWDFLT
  2
AcDbDictionaryWithDefault
  3
ObjectDBX Classes
 90
        0
 91
        1
280
     0
281
     0
  0
CLASS
  1
MATERIAL
  2
AcDbMaterial
  3
ObjectDBX Classes
 90
     1153
 91
        3
280
     0
281
     0
  0
CLASS
  1
VISUALSTYLE
  2
AcDbVisualStyle
  3
ObjectDBX Classes
 90
     4095
 91
       24
280
     0
281
     0
  0
CLASS
  1
SCALE
  2
AcDbScale
  3
ObjectDBX Classes
 90
     1153
 91
       17
280
     0
281
     0
  0
CLASS
  1
TABLESTYLE
  2
AcDbTableStyle
  3
ObjectDBX Classes
 90
     4095
 91
        1
280
     0
281
     0
  0
CLASS
  1
MLEADERSTYLE
  2
AcDbMLeaderStyle
  3
ACDB_MLEADERSTYLE_CLASS
 90
     4095
 91
        1
280
     0
281
     0
  0
CLASS
  1
ACDBSECTIONVIEWSTYLE
  2
AcDbSectionViewStyle
  3
ObjectDBX Classes
 90
     1025
 91
        1
280
     0
281
     0
  0
CLASS
  1
ACDBDETAILVIEWSTYLE
  2
AcDbDetailViewStyle
  3
ObjectDBX Classes
 90
     1025
 91
        1
280
     0
281
     0
  0
CLASS
  1
DICTIONARYVAR
  2
AcDbDictionaryVar
  3
ObjectDBX Classes
 90
        0
 91
        5
280
     0
281
     0
  0
CLASS
  1
CELLSTYLEMAP
  2
AcDbCellStyleMap
  3
ObjectDBX Classes
 90
     1152
 91
        1
280
     0
281
     0
  0
ENDSEC
  0
SECTION
  2
TABLES
  0
TABLE
  2
VPORT
  5
8
330
0
100
AcDbSymbolTable
 70
     1
1001
ACAD
1000
DbSaveVer
1071
      471
  0
VPORT
  5
57
330
8
100
AcDbSymbolTableRecord
100
AcDbViewportTableRecord
  2
*Active
 70
     0
 10
0.0
 20
0.0
 11
1.0
 21
1.0
 12
500.0
 22
500.0
 13
0.0
 23
0.0
 14
1.0
 24
1.0
 15
0.0
 25
0.0
 16
0.0
 26
0.0
 36
1.0
 17
0.0
 27
0.0
 37
0.0
 40
12.0
 41
1.0
 42
50.0
 43
0.0
 44
0.0
 50
0.0
 51
0.0
 71
     0
 72
   100
 73
     1
 74
     1
 75
     0
 76
     0
 77
     0
 78
     0
281
     0
 65
     1
110
0.0
120
0.0
130
0.0
111
1.0
121
0.0
131
0.0
112
0.0
122
1.0
132
0.0
 79
     0
146
0.0
 60
     3
 61
     5
292
     1
282
     1
141
0.0
142
0.0
 63
   250
421
  3355443
  0
ENDTAB
  0
TABLE
  2
LTYPE
  5
5
330
0
100
AcDbSymbolTable
 70
     1
  0
LTYPE
  5
5B
330
5
100
AcDbSymbolTableRecord
100
AcDbLinetypeTableRecord
  2
ByBlock
 70
     0
  3

 72
    65
 73
     0
 40
0.0
  0
LTYPE
  5
5C
330
5
100
AcDbSymbolTableRecord
100
AcDbLinetypeTableRecord
  2
ByLayer
 70
     0
  3

 72
    65
 73
     0
 40
0.0
  0
LTYPE
  5
5D
330
5
100
AcDbSymbolTableRecord
100
AcDbLinetypeTableRecord
  2
Continuous
 70
     0
  3
Solid line
 72
    65
 73
     0
 40
0.0
  0
ENDTAB
  0
TABLE
  2
LAYER
  5
2
330
0
100
AcDbSymbolTable
 70
     2
  0
LAYER
  5
54
330
2
100
AcDbSymbolTableRecord
100
AcDbLayerTableRecord
  2
0
 70
     0
 62
     7
  6
Continuous
370
    -3
390
F
347
21
348
0
  0
LAYER
  5
7A
330
2
100
AcDbSymbolTableRecord
100
AcDbLayerTableRecord
  2
1 v1_Sketch1
 70
     0
 62
     7
  6
Continuous
370
    -3
390
F
347
21
348
0
1001
NFusion_SketchTransform
1000
1.000000;0.000000;0.000000;0.000000;0.000000;0.000000;1.000000;0.000000;0.000000;-1.000000;0.000000;0.000000;0.000000;0.000000;0.000000;1.000000
  0
ENDTAB
  0
TABLE
  2
STYLE
  5
3
330
0
100
AcDbSymbolTable
 70
     2
  0
STYLE
  5
55
330
3
100
AcDbSymbolTableRecord
100
AcDbTextStyleTableRecord
  2
Standard
 70
     0
 40
0.0
 41
1.0
 50
0.0
 71
     0
 42
0.2
  3
txt
  4

  0
STYLE
  5
5A
330
3
100
AcDbSymbolTableRecord
100
AcDbTextStyleTableRecord
  2
Annotative
 70
     0
 40
0.0
 41
1.0
 50
0.0
 71
     0
 42
0.2
  3
txt
  4

1001
AcadAnnotative
1000
AnnotativeData
1002
{
1070
     1
1070
     1
1002
}
  0
ENDTAB
  0
TABLE
  2
VIEW
  5
6
330
0
100
AcDbSymbolTable
 70
     0
  0
ENDTAB
  0
TABLE
  2
UCS
  5
7
330
0
100
AcDbSymbolTable
 70
     0
  0
ENDTAB
  0
TABLE
  2
APPID
  5
9
330
0
100
AcDbSymbolTable
 70
     4
  0
APPID
  5
56
330
9
100
AcDbSymbolTableRecord
100
AcDbRegAppTableRecord
  2
ACAD
 70
     0
  0
APPID
  5
5E
330
9
100
AcDbSymbolTableRecord
100
AcDbRegAppTableRecord
  2
AcadAnnotative
 70
     0
  0
APPID
  5
78
330
9
100
AcDbSymbolTableRecord
100
AcDbRegAppTableRecord
  2
EDIT_IN_FUSION_ACAD_ADDIN
 70
     0
  0
APPID
  5
79
330
9
100
AcDbSymbolTableRecord
100
AcDbRegAppTableRecord
  2
NFusion_SketchTransform
 70
     0
  0
ENDTAB
  0
TABLE
  2
DIMSTYLE
  5
A
330
0
100
AcDbSymbolTable
 70
     2
100
AcDbDimStyleTable
 71
     0
  0
DIMSTYLE
105
58
330
A
100
AcDbSymbolTableRecord
100
AcDbDimStyleTableRecord
  2
Standard
 70
     0
340
55
  0
DIMSTYLE
105
59
330
A
100
AcDbSymbolTableRecord
100
AcDbDimStyleTableRecord
  2
Annotative
 70
     0
340
55
1001
AcadAnnotative
1000
AnnotativeData
1002
{
1070
     1
1070
     1
1002
}
  0
ENDTAB
  0
TABLE
  2
BLOCK_RECORD
  5
1
330
0
100
AcDbSymbolTable
 70
     1
  0
BLOCK_RECORD
  5
70
330
1
100
AcDbSymbolTableRecord
100
AcDbBlockTableRecord
  2
*Model_Space
340
73
 70
     0
280
     1
281
     0
  0
BLOCK_RECORD
  5
6C
330
1
100
AcDbSymbolTableRecord
100
AcDbBlockTableRecord
  2
*Paper_Space
340
6F
 70
     0
280
     1
281
     0
  0
BLOCK_RECORD
  5
74
330
1
100
AcDbSymbolTableRecord
100
AcDbBlockTableRecord
  2
*Paper_Space0
340
77
 70
     0
280
     1
281
     0
  0
ENDTAB
  0
ENDSEC
  0
SECTION
  2
BLOCKS
  0
BLOCK
  5
71
330
70
100
AcDbEntity
  8
0
100
AcDbBlockBegin
  2
*Model_Space
 70
     0
 10
0.0
 20
0.0
 30
0.0
  3
*Model_Space
  1

  0
ENDBLK
  5
72
330
70
100
AcDbEntity
  8
0
100
AcDbBlockEnd
  0
BLOCK
  5
6D
330
6C
100
AcDbEntity
 67
     1
  8
0
100
AcDbBlockBegin
  2
*Paper_Space
 70
     0
 10
0.0
 20
0.0
 30
0.0
  3
*Paper_Space
  1

  0
ENDBLK
  5
6E
330
6C
100
AcDbEntity
 67
     1
  8
0
100
AcDbBlockEnd
  0
BLOCK
  5
75
330
74
100
AcDbEntity
 67
     1
  8
0
100
AcDbBlockBegin
  2
*Paper_Space0
 70
     0
 10
0.0
 20
0.0
 30
0.0
  3
*Paper_Space0
  1

  0
ENDBLK
  5
76
330
74
100
AcDbEntity
 67
     1
  8
0
100
AcDbBlockEnd
  0
ENDSEC
  0
SECTION
  2
ENTITIES
  0
POINT
  5
7B
330
70
100
AcDbEntity
  8
1 v1_Sketch1
100
AcDbPoint
 10
-2.492230222874466
 20
0.0
 30
4.616878902096729
  0
POINT
  5
7C
330
70
100
AcDbEntity
  8
1 v1_Sketch1
100
AcDbPoint
 10
5.007846371785589
 20
0.0
 30
0.6167323171943649
  0
POINT
  5
7D
330
70
100
AcDbEntity
  8
1 v1_Sketch1
100
AcDbPoint
 10
5.007765742519342
 20
0.0
 30
4.616732190630406
  0
POINT
  5
7E
330
70
100
AcDbEntity
  8
1 v1_Sketch1
100
AcDbPoint
 10
5.007846371785589
 20
0.0
 30
0.6167340047268075
  0
POINT
  5
7F
330
70
100
AcDbEntity
  8
1 v1_Sketch1
100
AcDbPoint
 10
5.007846371785589
 20
0.0
 30
0.6167323171943631
  0
POINT
  5
80
330
70
100
AcDbEntity
  8
1 v1_Sketch1
100
AcDbPoint
 10
0.0
 20
0.0
 30
0.0
  0
POINT
  5
81
330
70
100
AcDbEntity
  8
1 v1_Sketch1
100
AcDbPoint
 10
5.007765742519342
 20
0.0
 30
4.616732190630406
  0
POINT
  5
82
330
70
100
AcDbEntity
  8
1 v1_Sketch1
100
AcDbPoint
 10
5.007765742519342
 20
0.0
 30
4.616732190630408
  0
POINT
  5
83
330
70
100
AcDbEntity
  8
1 v1_Sketch1
100
AcDbPoint
 10
-2.492230222874466
 20
0.0
 30
4.616878902096868
  0
POINT
  5
84
330
70
100
AcDbEntity
  8
1 v1_Sketch1
100
AcDbPoint
 10
-2.492230222874466
 20
0.0
 30
4.616878902096866
  0
POINT
  5
85
330
70
100
AcDbEntity
  8
1 v1_Sketch1
100
AcDbPoint
 10
5.007765742519342
 20
0.0
 30
4.616732190630406
  0
POINT
  5
86
330
70
100
AcDbEntity
  8
1 v1_Sketch1
100
AcDbPoint
 10
-2.492143142632345
 20
0.0
 30
0.6168706093011105
  0
POINT
  5
87
330
70
100
AcDbEntity
  8
1 v1_Sketch1
100
AcDbPoint
 10
5.007846371785589
 20
0.0
 30
0.6167323171943631
  0
LINE
  5
88
330
70
100
AcDbEntity
  8
1 v1_Sketch1
100
AcDbLine
 10
4.638871019998006
 20
0.0
 30
-2.875727470113113
 11
4.406217800211774
 21
0.0
 31
-2.555205520019387
  0
LINE
  5
89
330
70
100
AcDbEntity
  8
1 v1_Sketch1
100
AcDbLine
 10
-2.492221798280228
 20
0.0
 30
4.616861092968072
 11
-2.492208442369209
 21
0.0
 31
4.616878902096729
  0
LINE
  5
8A
330
70
100
AcDbEntity
  8
1 v1_Sketch1
100
AcDbLine
 10
-2.492134718038348
 20
0.0
 30
0.616852800172576
 11
-2.492121362127429
 21
0.0
 31
0.6168706093011105
  0
LINE
  5
8B
330
70
100
AcDbEntity
  8
1 v1_Sketch1
100
AcDbLine
 10
-2.492091177313346
 20
0.0
 30
-2.383643079422891
 11
-2.492091177313346
 21
0.0
 31
-2.38366088855066
  0
LINE
  5
8C
330
70
100
AcDbEntity
  8
1 v1_Sketch1
100
AcDbLine
 10
-2.861158806906955
 20
0.0
 30
-0.8920088268695787
 11
-3.093812026693649
 21
0.0
 31
-1.212530776963949
  0
ARC
  5
8D
330
70
100
AcDbEntity
  8
1 v1_Sketch1
100
AcDbCircle
 10
3.012883968073508
 20
0.504050396511329
 30
0.0
 40
0.0999999999999992
210
0.0
220
1.0
230
0.0
100
AcDbArc
 50
324.0257021837381
 51
69.37386294572736
  0
ARC
  5
8E
330
70
100
AcDbEntity
  8
1 v1_Sketch1
100
AcDbCircle
 10
2.041899560668264
 20
4.316878902096796
 30
0.0
 40
0.3000000000000043
210
0.0
220
1.0
230
0.0
100
AcDbArc
 50
90.00000000000746
 51
110.6255481051929
  0
ARC
  5
8F
330
70
100
AcDbEntity
  8
1 v1_Sketch1
100
AcDbCircle
 10
2.041899560668264
 20
4.316878902096796
 30
0.0
 40
0.3000000000000043
210
0.0
220
1.0
230
0.0
100
AcDbArc
 50
90.00000000000813
 51
110.625548105193
  0
LINE
  5
90
330
70
100
AcDbEntity
  8
1 v1_Sketch1
100
AcDbLine
 10
-2.492221798280359
 20
0.0
 30
4.61686109296817
 11
-2.492208442369316
 21
0.0
 31
4.616878902096866
  0
LINE
  5
91
330
70
100
AcDbEntity
  8
1 v1_Sketch1
100
AcDbLine
 10
-2.492221798278125
 20
0.0
 30
4.616878902097107
 11
-2.492221798278125
 21
0.0
 31
4.616861092966496
  0
LINE
  5
92
330
70
100
AcDbEntity
  8
1 v1_Sketch1
100
AcDbLine
 10
4.638702420888817
 20
0.0
 30
6.108253068106492
 11
4.257424971904219
 21
0.0
 31
6.616658607492739
  0
LINE
  5
93
330
70
100
AcDbEntity
  8
1 v1_Sketch1
100
AcDbLine
 10
-6.242091938158337
 20
0.0
 30
-2.033677852066253
 11
-5.642092265983885
 21
0.0
 31
-1.883677852066253
  0
ARC
  5
94
330
70
100
AcDbEntity
  8
1 v1_Sketch1
100
AcDbCircle
 10
2.04195644082681
 20
5.915654285765888
 30
0.0
 40
0.3000000000000033
210
0.0
220
1.0
230
0.0
100
AcDbArc
 50
249.3738629457171
 51
270.0
  0
ARC
  5
95
330
70
100
AcDbEntity
  8
1 v1_Sketch1
100
AcDbCircle
 10
-4.557478641323097
 20
4.31673219063051
 30
0.0
 40
0.3000000000000049
210
0.0
220
1.0
230
0.0
100
AcDbArc
 50
69.37386294573176
 51
90.00000000001426
  0
ARC
  5
96
330
70
100
AcDbEntity
  8
1 v1_Sketch1
100
AcDbCircle
 10
1.971447760467048
 20
4.504059413498215
 30
0.0
 40
0.0999999999999988
210
0.0
220
1.0
230
0.0
100
AcDbArc
 50
110.6255481051923
 51
215.9753961421731
  0
LINE
  5
97
330
70
100
AcDbEntity
  8
1 v1_Sketch1
100
AcDbLine
 10
-6.242091189831496
 20
0.0
 30
-1.883677874561773
 11
-6.242091188012564
 21
0.0
 31
-2.033677876953738
  0
LINE
  5
98
330
70
100
AcDbEntity
  8
1 v1_Sketch1
100
AcDbLine
 10
4.257559270610752
 20
0.0
 30
-0.3837495962524491
 11
4.6388307075172
 21
0.0
 31
0.1246479264917939
  0
LINE
  5
99
330
70
100
AcDbEntity
  8
1 v1_Sketch1
100
AcDbLine
 10
-2.123177009651234
 20
0.0
 30
3.107991449278371
 11
-1.890520827911791
 21
0.0
 31
2.787478342972468
  0
LINE
  5
9A
330
70
100
AcDbEntity
  8
1 v1_Sketch1
100
AcDbLine
 10
-2.492091177313346
 20
0.0
 30
-2.38366088855066
 11
-2.492091177313346
 21
0.0
 31
-2.383643079422891
  0
LINE
  5
9B
330
70
100
AcDbEntity
  8
1 v1_Sketch1
100
AcDbLine
 10
-5.442092265983886
 20
0.0
 30
-2.683677866967415
 11
-5.442092265983882
 21
0.0
 31
-2.083677852066254
  0
LINE
  5
9C
330
70
100
AcDbEntity
  8
1 v1_Sketch1
100
AcDbLine
 10
-2.123177009653185
 20
0.0
 30
4.124802528052933
 11
-1.890520827913237
 21
0.0
 31
4.445315634359404
  0
LINE
  5
9D
330
70
100
AcDbEntity
  8
1 v1_Sketch1
100
AcDbLine
 10
-2.942430243826906
 20
0.0
 30
-1.384093217560455
 11
-2.041812480424455
 21
0.0
 31
-1.384093217560452
  0
LINE
  5
9E
330
70
100
AcDbEntity
  8
1 v1_Sketch1
100
AcDbLine
 10
-2.492134718036004
 20
0.0
 30
0.6168706093013166
 11
-2.492134718036004
 21
0.0
 31
0.6168528001708174
  0
ARC
  5
9F
330
70
100
AcDbEntity
  8
1 v1_Sketch1
100
AcDbCircle
 10
-4.557478641323097
 20
4.31673219063051
 30
0.0
 40
0.3000000000000049
210
0.0
220
1.0
230
0.0
100
AcDbArc
 50
69.37386294573176
 51
90.00000000001426
  0
ARC
  5
A0
330
70
100
AcDbEntity
  8
1 v1_Sketch1
100
AcDbCircle
 10
5.642092265983881
 20
-2.683677866967417
 30
0.0
 40
0.1999999999999957
210
0.0
220
1.0
230
0.0
100
AcDbArc
 50
179.9999999999995
 51
270.0
  0
LINE
  5
A1
330
70
100
AcDbEntity
  8
1 v1_Sketch1
100
AcDbLine
 10
-5.442092270460348
 20
0.0
 30
-2.683677703363854
 11
-5.442092271588341
 21
0.0
 31
-2.083677622483896
  0
LINE
  5
A2
330
70
100
AcDbEntity
  8
1 v1_Sketch1
100
AcDbLine
 10
4.63883070751098
 20
0.0
 30
-0.8921471189762728
 11
4.406177487724285
 21
0.0
 31
-1.212669069070643
  0
LINE
  5
A3
330
70
100
AcDbEntity
  8
1 v1_Sketch1
100
AcDbLine
 10
-2.492134718036004
 20
0.0
 30
0.6168706093011105
 11
-2.492134718036004
 21
0.0
 31
0.6168528001708174
  0
ARC
  5
A4
330
70
100
AcDbEntity
  8
1 v1_Sketch1
100
AcDbCircle
 10
2.942430243828701
 20
0.3168706093011737
 30
0.0
 40
0.3000000000000045
210
0.0
220
1.0
230
0.0
100
AcDbArc
 50
69.37386294572521
 51
90.00000000000746
  0
ARC
  5
A5
330
70
100
AcDbEntity
  8
1 v1_Sketch1
100
AcDbCircle
 10
1.971447760466828
 20
4.504059413497849
 30
0.0
 40
0.0999999999999993
210
0.0
220
1.0
230
0.0
100
AcDbArc
 50
110.62554810519
 51
215.9753961421723
  0
ARC
  5
A6
330
70
100
AcDbEntity
  8
1 v1_Sketch1
100
AcDbCircle
 10
2.942517324070466
 20
4.316878902097176
 30
0.0
 40
0.3000000000000061
210
0.0
220
1.0
230
0.0
100
AcDbArc
 50
69.37386294572533
 51
90.00000000000813
  0
LINE
  5
A7
330
70
100
AcDbEntity
  8
1 v1_Sketch1
100
AcDbLine
 10
-3.242430243806927
 20
0.0
 30
-0.3836113041459468
 11
-2.861158806900268
 21
0.0
 31
0.1247862185987119
  0
LINE
  5
A8
330
70
100
AcDbEntity
  8
1 v1_Sketch1
100
AcDbLine
 10
4.638750078244733
 20
0.0
 30
3.107852754459694
 11
4.406096858458038
 21
0.0
 31
2.787330804365323
  0
ARC
  5
A9
330
70
100
AcDbEntity
  8
1 v1_Sketch1
100
AcDbCircle
 10
3.012883968073554
 20
0.5040503965115422
 30
0.0
 40
0.1000000000000015
210
0.0
220
1.0
230
0.0
100
AcDbArc
 50
324.0257021837396
 51
69.37386294572757
  0
LINE
  5
AA
330
70
100
AcDbEntity
  8
1 v1_Sketch1
100
AcDbLine
 10
-2.123177009653185
 20
0.0
 30
4.124802528052933
 11
-1.741899560666903
 21
0.0
 31
3.616396988664481
  0
LINE
  5
AB
330
70
100
AcDbEntity
  8
1 v1_Sketch1
100
AcDbLine
 10
-2.861158806900268
 20
0.0
 30
0.1247862185987119
 11
-3.093812026695479
 21
0.0
 31
0.4453081687049077
  0
ARC
  5
AC
330
70
100
AcDbEntity
  8
1 v1_Sketch1
100
AcDbCircle
 10
-1.257907701233563
 20
4.616322185186649
 30
0.0
 40
0.1000000014901161
210
0.0
220
1.0
230
0.0
100
AcDbArc
 50
0.0
 51
180.0
  0
LINE
  5
AD
330
70
100
AcDbEntity
  8
1 v1_Sketch1
100
AcDbLine
 10
-2.492134718036
 20
0.0
 30
-1.384093217560452
 11
-2.492134718036
 21
0.0
 31
-1.384075408432729
  0
ARC
  5
AE
330
70
100
AcDbEntity
  8
1 v1_Sketch1
100
AcDbCircle
 10
5.642202117277017
 20
1.316339902276498
 30
0.0
 40
0.199999999999996
210
0.0
220
1.0
230
0.0
100
AcDbArc
 50
180.0044607472346
 51
269.9974555456376
  0
ARC
  5
AF
330
70
100
AcDbEntity
  8
1 v1_Sketch1
100
AcDbCircle
 10
2.041899560668047
 20
4.316878902096661
 30
0.0
 40
0.3000000000000043
210
0.0
220
1.0
230
0.0
100
AcDbArc
 50
90.00000000000813
 51
110.6255481051924
  0
LINE
  5
B0
330
70
100
AcDbEntity
  8
1 v1_Sketch1
100
AcDbLine
 10
-6.242091938158337
 20
0.0
 30
-2.033677852066253
 11
-5.642092265983885
 21
0.0
 31
-1.883677852066253
  0
LINE
  5
B1
330
70
100
AcDbEntity
  8
1 v1_Sketch1
100
AcDbLine
 10
-3.242430243826911
 20
0.0
 30
-0.3836113041309597
 11
-2.861158806906955
 21
0.0
 31
-0.8920088268695787
  0
LINE
  5
B2
330
70
100
AcDbEntity
  8
1 v1_Sketch1
100
AcDbLine
 10
-2.861158806906955
 20
0.0
 30
-0.8920088268695787
 11
-3.093812026693649
 21
0.0
 31
-1.212530776963949
  0
LINE
  5
B3
330
70
100
AcDbEntity
  8
1 v1_Sketch1
100
AcDbLine
 10
-5.442092265983886
 20
0.0
 30
-2.683677866967415
 11
-5.442092265983882
 21
0.0
 31
-2.083677852066254
  0
LINE
  5
B4
330
70
100
AcDbEntity
  8
1 v1_Sketch1
100
AcDbLine
 10
-2.123089929411277
 20
0.0
 30
0.1247942352574283
 11
-1.741812480424806
 21
0.0
 31
-0.3836113041312155
  0
LINE
  5
B5
330
70
100
AcDbEntity
  8
1 v1_Sketch1
100
AcDbLine
 10
-2.492091177313346
 20
0.0
 30
-2.38366088855066
 11
-2.492077821402999
 21
0.0
 31
-2.383643079422891
  0
LINE
  5
B6
330
70
100
AcDbEntity
  8
1 v1_Sketch1
100
AcDbLine
 10
-2.492221798280356
 20
0.0
 30
4.61686109296817
 11
-2.492208442369312
 21
0.0
 31
4.616878902096868
  0
LINE
  5
B7
330
70
100
AcDbEntity
  8
1 v1_Sketch1
100
AcDbLine
 10
-6.242091189831496
 20
0.0
 30
-1.383679825666336
 11
-6.041682475551036
 21
0.0
 31
-1.383679825666336
  0
ARC
  5
B8
330
70
100
AcDbEntity
  8
1 v1_Sketch1
100
AcDbCircle
 10
5.642092265983889
 20
-2.083677852066259
 30
0.0
 40
0.2000000000000064
210
0.0
220
1.0
230
0.0
100
AcDbArc
 50
90.00000000000103
 51
179.9999999999984
  0
LINE
  5
B9
330
70
100
AcDbEntity
  8
1 v1_Sketch1
100
AcDbLine
 10
4.638750078244733
 20
0.0
 30
3.107852754459694
 11
4.406096858458038
 21
0.0
 31
2.787330804365323
  0
LINE
  5
BA
330
70
100
AcDbEntity
  8
1 v1_Sketch1
100
AcDbLine
 10
-3.242430243806802
 20
0.0
 30
-0.3836113041460409
 11
-2.861158806900229
 21
0.0
 31
0.1247862185985147
  0
LINE
  5
BB
330
70
100
AcDbEntity
  8
1 v1_Sketch1
100
AcDbLine
 10
-2.123089929409113
 20
0.0
 30
-0.8920168435173083
 11
-1.890433747669669
 21
0.0
 31
-1.212529949823211
  0
LINE
  5
BC
330
70
100
AcDbEntity
  8
1 v1_Sketch1
100
AcDbLine
 10
4.557478641324781
 20
0.0
 30
2.615768363768816
 11
5.458096404727232
 21
0.0
 31
2.61576836376882
  0
LINE
  5
BD
330
70
100
AcDbEntity
  8
1 v1_Sketch1
100
AcDbLine
 10
-6.242091938158337
 20
0.0
 30
-2.033677852066253
 11
-5.642092265983885
 21
0.0
 31
-1.883677852066253
  0
LINE
  5
BE
330
70
100
AcDbEntity
  8
1 v1_Sketch1
100
AcDbLine
 10
4.557559270591028
 20
0.0
 30
-1.38423150966715
 11
5.458177033993482
 21
0.0
 31
-1.384231509667146
  0
LINE
  5
BF
330
70
100
AcDbEntity
  8
1 v1_Sketch1
100
AcDbLine
 10
-6.242091189831496
 20
0.0
 30
1.116314161365367
 11
-6.242091189831496
 21
0.0
 31
0.616320578249753
  0
LINE
  5
C0
330
70
100
AcDbEntity
  8
1 v1_Sketch1
100
AcDbLine
 10
-6.242091189831496
 20
0.0
 30
1.116314161365367
 11
-6.242091241448763
 21
0.0
 31
1.266314163664821
  0
LINE
  5
C1
330
70
100
AcDbEntity
  8
1 v1_Sketch1
100
AcDbLine
 10
-3.242517324069032
 20
0.0
 30
3.616396988664719
 11
-2.861245887149076
 21
0.0
 31
3.1079994659261
  0
LINE
  5
C2
330
70
100
AcDbEntity
  8
1 v1_Sketch1
100
AcDbLine
 10
-6.041682475551043
 20
0.0
 30
0.6163205846951608
 11
-6.242091189831496
 21
0.0
 31
0.616320578249753
  0
LINE
  5
C3
330
70
100
AcDbEntity
  8
1 v1_Sketch1
100
AcDbLine
 10
4.257559270610748
 20
0.0
 30
-0.3837495962524491
 11
4.638830707517204
 21
0.0
 31
0.1246479264917957
  0
LINE
  5
C4
330
70
100
AcDbEntity
  8
1 v1_Sketch1
100
AcDbLine
 10
4.257559270610752
 20
0.0
 30
-0.3837495962524491
 11
4.638830707517204
 21
0.0
 31
0.1246479264917903
  0
LINE
  5
C5
330
70
100
AcDbEntity
  8
1 v1_Sketch1
100
AcDbLine
 10
-6.242091241448763
 20
0.0
 30
1.266314163664821
 11
-5.642193235455762
 21
0.0
 31
1.116339902473717
  0
LINE
  5
C6
330
70
100
AcDbEntity
  8
1 v1_Sketch1
100
AcDbLine
 10
4.557599583078516
 20
0.0
 30
-2.383643079422877
 11
5.458217346480964
 21
0.0
 31
-2.383643079422863
  0
LINE
  5
C7
330
70
100
AcDbEntity
  8
1 v1_Sketch1
100
AcDbLine
 10
-2.861115266184734
 20
0.0
 30
-2.875727470113129
 11
-3.093768485970963
 21
0.0
 31
-2.555205520019405
  0
LINE
  5
C8
330
70
100
AcDbEntity
  8
1 v1_Sketch1
100
AcDbLine
 10
-3.242517324048732
 20
0.0
 30
3.616396988649494
 11
-2.861245887142009
 21
0.0
 31
4.124794511394192
  0
ARC
  5
C9
330
70
100
AcDbEntity
  8
1 v1_Sketch1
100
AcDbCircle
 10
3.01297104831527
 20
4.504058689307331
 30
0.0
 40
0.0999999999999987
210
0.0
220
1.0
230
0.0
100
AcDbArc
 50
324.0257021837385
 51
69.3738629457259
  0
LINE
  5
CA
330
70
100
AcDbEntity
  8
1 v1_Sketch1
100
AcDbLine
 10
-3.242517324048874
 20
0.0
 30
3.616396988649601
 11
-2.861245887142063
 21
0.0
 31
4.124794511394405
  0
LINE
  5
CB
330
70
100
AcDbEntity
  8
1 v1_Sketch1
100
AcDbLine
 10
4.557559270588811
 20
0.0
 30
0.616732317194475
 11
5.458177033991383
 21
0.0
 31
0.6167323171942547
  0
LINE
  5
CC
330
70
100
AcDbEntity
  8
1 v1_Sketch1
100
AcDbLine
 10
-6.242091188012564
 20
0.0
 30
-2.033677876953738
 11
-5.642092049219096
 21
0.0
 31
-1.883678004561439
  0
ARC
  5
CD
330
70
100
AcDbEntity
  8
1 v1_Sketch1
100
AcDbCircle
 10
5.642092265983889
 20
-2.083677852066259
 30
0.0
 40
0.2000000000000064
210
0.0
220
1.0
230
0.0
100
AcDbArc
 50
90.00000000000103
 51
179.9999999999984
  0
ARC
  5
CE
330
70
100
AcDbEntity
  8
1 v1_Sketch1
100
AcDbCircle
 10
3.012840427349056
 20
-2.496463292212756
 30
0.0
 40
0.0999999999999955
210
0.0
220
1.0
230
0.0
100
AcDbArc
 50
324.025702183727
 51
69.37386294571833
  0
LINE
  5
CF
330
70
100
AcDbEntity
  8
1 v1_Sketch1
100
AcDbLine
 10
4.557562046114643
 20
0.0
 30
0.6167328578541698
 11
5.458178527303054
 21
0.0
 31
0.6167351517212678
  0
LINE
  5
D0
330
70
100
AcDbEntity
  8
1 v1_Sketch1
100
AcDbLine
 10
4.557478641323172
 20
0.0
 30
4.616732190630518
 11
5.458096404725619
 21
0.0
 31
4.616732190630296
  0
LINE
  5
D1
330
70
100
AcDbEntity
  8
1 v1_Sketch1
100
AcDbLine
 10
4.257478641324777
 20
0.0
 30
3.616250277198313
 11
4.638750078244733
 21
0.0
 31
3.107852754459694
  0
LINE
  5
D2
330
70
100
AcDbEntity
  8
1 v1_Sketch1
100
AcDbLine
 10
-6.242091938158337
 20
0.0
 30
-1.883677852066253
 11
-6.242091938158337
 21
0.0
 31
-2.033677852066253
  0
LINE
  5
D3
330
70
100
AcDbEntity
  8
1 v1_Sketch1
100
AcDbLine
 10
-6.041682475551036
 20
0.0
 30
-1.383679825666336
 11
-6.041682475551043
 21
0.0
 31
0.6163205846951608
  0
LINE
  5
D4
330
70
100
AcDbEntity
  8
1 v1_Sketch1
100
AcDbLine
 10
4.557559270591028
 20
0.0
 30
-1.38423150966715
 11
5.458177033993479
 21
0.0
 31
-1.384231509667146
  0
LINE
  5
D5
330
70
100
AcDbEntity
  8
1 v1_Sketch1
100
AcDbLine
 10
-2.123046388686377
 20
0.0
 30
-2.875719453465973
 11
-1.741768939701929
 21
0.0
 31
-3.384124992852082
  0
ARC
  5
D6
330
70
100
AcDbEntity
  8
1 v1_Sketch1
100
AcDbCircle
 10
-4.557478641323097
 20
4.316732190630514
 30
0.0
 40
0.3000000000000054
210
0.0
220
1.0
230
0.0
100
AcDbArc
 50
69.37386294573143
 51
90.00000000001426
  0
ARC
  5
D7
330
70
100
AcDbEntity
  8
1 v1_Sketch1
100
AcDbCircle
 10
2.041899560668271
 20
4.316878902097029
 30
0.0
 40
0.3000000000000043
210
0.0
220
1.0
230
0.0
100
AcDbArc
 50
90.00000000000952
 51
110.6255481051938
  0
LINE
  5
D8
330
70
100
AcDbEntity
  8
1 v1_Sketch1
100
AcDbLine
 10
-6.042092481557665
 20
0.0
 30
2.616322691826099
 11
-6.042092481557665
 21
0.0
 31
4.616322195205216
  0
LINE
  5
D9
330
70
100
AcDbEntity
  8
1 v1_Sketch1
100
AcDbLine
 10
-3.242517324049005
 20
0.0
 30
3.6163969886497
 11
-2.86124588714208
 21
0.0
 31
4.124794511394636
  0
ARC
  5
DA
330
70
100
AcDbEntity
  8
1 v1_Sketch1
100
AcDbCircle
 10
-4.487024917078315
 20
4.503911977840678
 30
0.0
 40
0.1000000000000013
210
0.0
220
1.0
230
0.0
100
AcDbArc
 50
324.0257021837433
 51
69.37386294573126
  0
LINE
  5
DB
330
70
100
AcDbEntity
  8
1 v1_Sketch1
100
AcDbLine
 10
4.557559270591028
 20
0.0
 30
-1.38423150966715
 11
5.458177033993479
 21
0.0
 31
-1.384231509667146
  0
ARC
  5
DC
330
70
100
AcDbEntity
  8
1 v1_Sketch1
100
AcDbCircle
 10
5.642092164693876
 20
-2.083677897667134
 30
0.0
 40
0.1999998931057277
210
0.0
220
1.0
230
0.0
100
AcDbArc
 50
90.00003308110533
 51
179.9999211657672
  0
LINE
  5
DD
330
70
100
AcDbEntity
  8
1 v1_Sketch1
100
AcDbLine
 10
-2.861245887149076
 20
0.0
 30
3.1079994659261
 11
-3.09389910693577
 21
0.0
 31
2.78747751583173
  0
LINE
  5
DE
330
70
100
AcDbEntity
  8
1 v1_Sketch1
100
AcDbLine
 10
-2.123089929409113
 20
0.0
 30
-0.8920168435173083
 11
-1.741812480424458
 21
0.0
 31
-0.3836113041309561
  0
LINE
  5
DF
330
70
100
AcDbEntity
  8
1 v1_Sketch1
100
AcDbLine
 10
-2.123089929409113
 20
0.0
 30
-0.8920168435173083
 11
-1.890433747669669
 21
0.0
 31
-1.212529949823211
  0
LINE
  5
E0
330
70
100
AcDbEntity
  8
1 v1_Sketch1
100
AcDbLine
 10
-6.242091189831496
 20
0.0
 30
-1.383679825666336
 11
-6.242091189831496
 21
0.0
 31
-1.883677874561773
  0
LINE
  5
E1
330
70
100
AcDbEntity
  8
1 v1_Sketch1
100
AcDbLine
 10
-1.741956440825441
 20
0.0
 30
6.616136199194616
 11
4.257480962246082
 21
0.0
 31
6.616583948474664
  0
LINE
  5
E2
330
70
100
AcDbEntity
  8
1 v1_Sketch1
100
AcDbLine
 10
4.557559270591028
 20
0.0
 30
-1.38423150966715
 11
5.458177033993479
 21
0.0
 31
-1.384231509667146
  0
LINE
  5
E3
330
70
100
AcDbEntity
  8
1 v1_Sketch1
100
AcDbLine
 10
-2.492134718038462
 20
0.0
 30
0.6168528001726612
 11
-2.492121362127457
 21
0.0
 31
0.6168706093013166
  0
ARC
  5
E4
330
70
100
AcDbEntity
  8
1 v1_Sketch1
100
AcDbCircle
 10
5.64209239771778
 20
-2.683678012402162
 30
0.0
 40
0.2000001272576711
210
0.0
220
1.0
230
0.0
100
AcDbArc
 50
179.9999114671026
 51
270.0000362163475
  0
LINE
  5
E5
330
70
100
AcDbEntity
  8
1 v1_Sketch1
100
AcDbLine
 10
5.45804273530669
 20
0.0
 30
5.616176694063456
 11
4.557424971904241
 21
0.0
 31
5.616176694063469
  0
LINE
  5
E6
330
70
100
AcDbEntity
  8
1 v1_Sketch1
100
AcDbLine
 10
4.638750078244733
 20
0.0
 30
3.107852754459694
 11
4.406096858458038
 21
0.0
 31
2.787330804365323
  0
ARC
  5
E7
330
70
100
AcDbEntity
  8
1 v1_Sketch1
100
AcDbCircle
 10
5.642092265983881
 20
-2.683677866967417
 30
0.0
 40
0.1999999999999957
210
0.0
220
1.0
230
0.0
100
AcDbArc
 50
179.9999999999995
 51
270.0
  0
LINE
  5
E8
330
70
100
AcDbEntity
  8
1 v1_Sketch1
100
AcDbLine
 10
-2.123177009651238
 20
0.0
 30
3.107991449278371
 11
-1.741899560666579
 21
0.0
 31
3.616396988664723
  0
LINE
  5
E9
330
70
100
AcDbEntity
  8
1 v1_Sketch1
100
AcDbLine
 10
-6.24209119627813
 20
0.0
 30
-2.733678540773976
 11
-5.642092524136762
 21
0.0
 31
-2.883678139659795
  0
ARC
  5
EA
330
70
100
AcDbEntity
  8
1 v1_Sketch1
100
AcDbCircle
 10
5.642092265983889
 20
-2.083677852066259
 30
0.0
 40
0.2000000000000064
210
0.0
220
1.0
230
0.0
100
AcDbArc
 50
90.00000000000103
 51
179.9999999999984
  0
LINE
  5
EB
330
70
100
AcDbEntity
  8
1 v1_Sketch1
100
AcDbLine
 10
-2.123177009651241
 20
0.0
 30
4.124802528051075
 11
-1.741899560666579
 21
0.0
 31
3.616396988664723
  0
LINE
  5
EC
330
70
100
AcDbEntity
  8
1 v1_Sketch1
100
AcDbLine
 10
-1.741956440825441
 20
0.0
 30
6.616136199194616
 11
-2.123227877746282
 21
0.0
 31
6.107738676456123
  0
ARC
  5
ED
330
70
100
AcDbEntity
  8
1 v1_Sketch1
100
AcDbCircle
 10
-1.257907701233563
 20
2.616322155384326
 30
0.0
 40
0.1000000014901161
210
0.0
220
1.0
230
0.0
100
AcDbArc
 50
180.0
 51
0.0
  0
ARC
  5
EE
330
70
100
AcDbEntity
  8
1 v1_Sketch1
100
AcDbCircle
 10
2.942386703104217
 20
-2.683643079422901
 30
0.0
 40
0.3000000000000041
210
0.0
220
1.0
230
0.0
100
AcDbArc
 50
69.37386294571574
 51
89.99999999999864
  0
LINE
  5
EF
330
70
100
AcDbEntity
  8
1 v1_Sketch1
100
AcDbLine
 10
-5.442202117883157
 20
0.0
 30
1.316324331331245
 11
-5.442155408431913
 21
0.0
 31
1.916280580129498
  0
LINE
  5
F0
330
70
100
AcDbEntity
  8
1 v1_Sketch1
100
AcDbLine
 10
-3.242430243826911
 20
0.0
 30
-0.3836113041309597
 11
-2.861158806906955
 21
0.0
 31
-0.8920088268695787
  0
LINE
  5
F1
330
70
100
AcDbEntity
  8
1 v1_Sketch1
100
AcDbLine
 10
4.557478641323172
 20
0.0
 30
4.616732190630518
 11
5.458096404725619
 21
0.0
 31
4.616732190630296
  0
ARC
  5
F2
330
70
100
AcDbEntity
  8
1 v1_Sketch1
100
AcDbCircle
 10
5.642092265983881
 20
-2.683677866967417
 30
0.0
 40
0.1999999999999957
210
0.0
220
1.0
230
0.0
100
AcDbArc
 50
179.9999999999995
 51
270.0
  0
LINE
  5
F3
330
70
100
AcDbEntity
  8
1 v1_Sketch1
100
AcDbLine
 10
4.638750078251472
 20
0.0
 30
4.124647799927966
 11
4.406096858456388
 21
0.0
 31
4.445169750034047
  0
ARC
  5
F4
330
70
100
AcDbEntity
  8
1 v1_Sketch1
100
AcDbCircle
 10
-4.487024917078315
 20
4.503911977840676
 30
0.0
 40
0.1000000000000003
210
0.0
220
1.0
230
0.0
100
AcDbArc
 50
324.0257021837442
 51
69.37386294573221
  0
LINE
  5
F5
330
70
100
AcDbEntity
  8
1 v1_Sketch1
100
AcDbLine
 10
4.257478641344651
 20
0.0
 30
3.616250277183409
 11
4.638750078251469
 21
0.0
 31
4.124647799927968
  0
ARC
  5
F6
330
70
100
AcDbEntity
  8
1 v1_Sketch1
100
AcDbCircle
 10
-4.487024917078315
 20
4.503911977840674
 30
0.0
 40
0.0999999999999988
210
0.0
220
1.0
230
0.0
100
AcDbArc
 50
324.0257021837436
 51
69.37386294573203
  0
LINE
  5
F7
330
70
100
AcDbEntity
  8
1 v1_Sketch1
100
AcDbLine
 10
-5.442092265983886
 20
0.0
 30
-2.683677866967415
 11
-5.442092265983882
 21
0.0
 31
-2.083677852066254
  0
LINE
  5
F8
330
70
100
AcDbEntity
  8
1 v1_Sketch1
100
AcDbLine
 10
-3.242517324048877
 20
0.0
 30
3.616396988649603
 11
-2.861245887142063
 21
0.0
 31
4.124794511394407
  0
LINE
  5
F9
330
70
100
AcDbEntity
  8
1 v1_Sketch1
100
AcDbLine
 10
4.557559270588807
 20
0.0
 30
0.6167323171944732
 11
5.458177033991383
 21
0.0
 31
0.616732317194253
  0
LINE
  5
FA
330
70
100
AcDbEntity
  8
1 v1_Sketch1
100
AcDbLine
 10
-2.861158806900229
 20
0.0
 30
0.1247862185985147
 11
-3.093812026695429
 21
0.0
 31
0.4453081687046936
  0
LINE
  5
FB
330
70
100
AcDbEntity
  8
1 v1_Sketch1
100
AcDbLine
 10
4.257559270591023
 20
0.0
 30
-0.3837495962376538
 11
4.63883070751098
 21
0.0
 31
-0.8921471189762728
  0
LINE
  5
FC
330
70
100
AcDbEntity
  8
1 v1_Sketch1
100
AcDbLine
 10
-2.492221798278121
 20
0.0
 30
2.615915075235227
 11
-2.492221798278121
 21
0.0
 31
2.615932884362949
  0
LINE
  5
FD
330
70
100
AcDbEntity
  8
1 v1_Sketch1
100
AcDbLine
 10
-2.942430243826906
 20
0.0
 30
-1.384093217560455
 11
-2.041812480424455
 21
0.0
 31
-1.384093217560452
  0
LINE
  5
FE
330
70
100
AcDbEntity
  8
1 v1_Sketch1
100
AcDbLine
 10
-2.123177009651234
 20
0.0
 30
3.107991449278371
 11
-1.741899560666579
 21
0.0
 31
3.616396988664723
  0
LINE
  5
FF
330
70
100
AcDbEntity
  8
1 v1_Sketch1
100
AcDbLine
 10
-2.942517324069028
 20
0.0
 30
2.615915075235223
 11
-2.041899560666577
 21
0.0
 31
2.615915075235227
  0
ARC
  5
100
330
70
100
AcDbEntity
  8
1 v1_Sketch1
100
AcDbCircle
 10
-4.557424971904245
 20
5.91617669406347
 30
0.0
 40
0.3000000000000016
210
0.0
220
1.0
230
0.0
100
AcDbArc
 50
270.0000000000007
 51
290.6255481051847
  0
LINE
  5
101
330
70
100
AcDbEntity
  8
1 v1_Sketch1
100
AcDbLine
 10
-2.942517324069028
 20
0.0
 30
2.615915075235223
 11
-2.041899560666577
 21
0.0
 31
2.615915075235227
  0
LINE
  5
102
330
70
100
AcDbEntity
  8
1 v1_Sketch1
100
AcDbLine
 10
-2.942517324070406
 20
0.0
 30
4.616878902096791
 11
-2.041899560668005
 21
0.0
 31
4.616878902096665
  0
LINE
  5
103
330
70
100
AcDbEntity
  8
1 v1_Sketch1
100
AcDbLine
 10
-2.123177009651241
 20
0.0
 30
4.124802528051075
 11
-1.741899560666579
 21
0.0
 31
3.616396988664723
  0
LINE
  5
104
330
70
100
AcDbEntity
  8
1 v1_Sketch1
100
AcDbLine
 10
-6.042092481557665
 20
0.0
 30
4.616322195205216
 11
-6.242091189831503
 21
0.0
 31
4.616322150780192
  0
LINE
  5
105
330
70
100
AcDbEntity
  8
1 v1_Sketch1
100
AcDbLine
 10
-2.942517324069028
 20
0.0
 30
2.615915075235223
 11
-2.041899560666577
 21
0.0
 31
2.615915075235227
  0
ARC
  5
106
330
70
100
AcDbEntity
  8
1 v1_Sketch1
100
AcDbCircle
 10
-4.486973171703054
 20
5.728996182662275
 30
0.0
 40
0.0999999999999988
210
0.0
220
1.0
230
0.0
100
AcDbArc
 50
290.6255481051836
 51
35.97539614216382
  0
LINE
  5
107
330
70
100
AcDbEntity
  8
1 v1_Sketch1
100
AcDbLine
 10
-2.942430243828662
 20
0.0
 30
0.616870609301178
 11
-2.041812480426193
 21
0.0
 31
0.6168706093010448
  0
LINE
  5
108
330
70
100
AcDbEntity
  8
1 v1_Sketch1
100
AcDbLine
 10
-2.123089929409113
 20
0.0
 30
-0.8920168435173083
 11
-1.741812480424458
 21
0.0
 31
-0.3836113041309561
  0
LINE
  5
109
330
70
100
AcDbEntity
  8
1 v1_Sketch1
100
AcDbLine
 10
-6.242091189831503
 20
0.0
 30
-2.883678543152664
 11
-6.242091189831503
 21
0.0
 31
-3.384124992852084
  0
LINE
  5
10A
330
70
100
AcDbEntity
  8
1 v1_Sketch1
100
AcDbLine
 10
-6.242092265983883
 20
0.0
 30
-2.733677924336885
 11
-5.642092265983881
 21
0.0
 31
-2.883677866967414
  0
ARC
  5
10B
330
70
100
AcDbEntity
  8
1 v1_Sketch1
100
AcDbCircle
 10
3.012971048315245
 20
4.504058689307084
 30
0.0
 40
0.0999999999999997
210
0.0
220
1.0
230
0.0
100
AcDbArc
 50
324.0257021837376
 51
69.373862945724
  0
LINE
  5
10C
330
70
100
AcDbEntity
  8
1 v1_Sketch1
100
AcDbLine
 10
4.257478641324777
 20
0.0
 30
3.616250277198313
 11
4.638750078244733
 21
0.0
 31
3.107852754459694
  0
LINE
  5
10D
330
70
100
AcDbEntity
  8
1 v1_Sketch1
100
AcDbLine
 10
4.257559270591023
 20
0.0
 30
-0.3837495962376538
 11
4.63883070751098
 21
0.0
 31
-0.8921471189762728
  0
LINE
  5
10E
330
70
100
AcDbEntity
  8
1 v1_Sketch1
100
AcDbLine
 10
4.638830707517204
 20
0.0
 30
0.1246479264917903
 11
4.406177487722027
 21
0.0
 31
0.4451698765980075
  0
ARC
  5
10F
330
70
100
AcDbEntity
  8
1 v1_Sketch1
100
AcDbCircle
 10
3.013026004430445
 20
5.728473774364695
 30
0.0
 40
0.0999999999999976
210
0.0
220
1.0
230
0.0
100
AcDbArc
 50
290.6255481051817
 51
35.97539614216412
  0
LINE
  5
110
330
70
100
AcDbEntity
  8
1 v1_Sketch1
100
AcDbLine
 10
-2.942517324069028
 20
0.0
 30
2.615915075235223
 11
-2.041899560666577
 21
0.0
 31
2.615915075235227
  0
LINE
  5
111
330
70
100
AcDbEntity
  8
1 v1_Sketch1
100
AcDbLine
 10
-2.942517324070403
 20
0.0
 30
4.616878902096933
 11
-2.041899560668225
 21
0.0
 31
4.6168789020968
  0
LINE
  5
112
330
70
100
AcDbEntity
  8
1 v1_Sketch1
100
AcDbLine
 10
-2.942517324070403
 20
0.0
 30
4.616878902096933
 11
-2.041899560668221
 21
0.0
 31
4.6168789020968
  0
LINE
  5
113
330
70
100
AcDbEntity
  8
1 v1_Sketch1
100
AcDbLine
 10
-2.123089929411277
 20
0.0
 30
0.1247942352574283
 11
-1.890433747671421
 21
0.0
 31
0.4453073415637823
  0
LINE
  5
114
330
70
100
AcDbEntity
  8
1 v1_Sketch1
100
AcDbLine
 10
-2.123177009651241
 20
0.0
 30
4.124802528051075
 11
-1.741899560666579
 21
0.0
 31
3.616396988664723
  0
LINE
  5
115
330
70
100
AcDbEntity
  8
1 v1_Sketch1
100
AcDbLine
 10
-2.123089929411372
 20
0.0
 30
0.1247942352575206
 11
-1.890433747671439
 21
0.0
 31
0.445307341563983
  0
LINE
  5
116
330
70
100
AcDbEntity
  8
1 v1_Sketch1
100
AcDbLine
 10
-2.86124588714208
 20
0.0
 30
4.124794511394636
 11
-3.093899106937191
 21
0.0
 31
4.445316461500697
  0
LINE
  5
117
330
70
100
AcDbEntity
  8
1 v1_Sketch1
100
AcDbLine
 10
-2.942517324070424
 20
0.0
 30
4.61687890209718
 11
-2.041899560668221
 21
0.0
 31
4.616878902097033
  0
LINE
  5
118
330
70
100
AcDbEntity
  8
1 v1_Sketch1
100
AcDbLine
 10
-2.942430243828711
 20
0.0
 30
0.6168706093013894
 11
-2.0418124804262
 21
0.0
 31
0.6168706093012455
  0
LINE
  5
119
330
70
100
AcDbEntity
  8
1 v1_Sketch1
100
AcDbLine
 10
4.6388307075172
 20
0.0
 30
0.1246479264917939
 11
4.406177487722027
 21
0.0
 31
0.4451698765980066
  0
LINE
  5
11A
330
70
100
AcDbEntity
  8
1 v1_Sketch1
100
AcDbLine
 10
-2.861245887142063
 20
0.0
 30
4.124794511394405
 11
-3.093899106937167
 21
0.0
 31
4.445316461500449
  0
LINE
  5
11B
330
70
100
AcDbEntity
  8
1 v1_Sketch1
100
AcDbLine
 10
-6.242091189831489
 20
0.0
 30
2.116314297751763
 11
-6.242091138653092
 21
0.0
 31
1.966314295376863
  0
ARC
  5
11C
330
70
100
AcDbEntity
  8
1 v1_Sketch1
100
AcDbCircle
 10
2.94243024382875
 20
0.3168706093013851
 30
0.0
 40
0.3000000000000049
210
0.0
220
1.0
230
0.0
100
AcDbArc
 50
69.37386294572596
 51
90.00000000000746
  0
LINE
  5
11D
330
70
100
AcDbEntity
  8
1 v1_Sketch1
100
AcDbLine
 10
-6.242091189831503
 20
0.0
 30
-3.384124992852084
 11
-3.242386703105912
 21
0.0
 31
-3.384124992852084
  0
LINE
  5
11E
330
70
100
AcDbEntity
  8
1 v1_Sketch1
100
AcDbLine
 10
-2.123177009651234
 20
0.0
 30
3.107991449278371
 11
-1.741899560666579
 21
0.0
 31
3.616396988664723
  0
LINE
  5
11F
330
70
100
AcDbEntity
  8
1 v1_Sketch1
100
AcDbLine
 10
4.257478641324777
 20
0.0
 30
3.616250277198313
 11
4.638750078244733
 21
0.0
 31
3.107852754459694
  0
LINE
  5
120
330
70
100
AcDbEntity
  8
1 v1_Sketch1
100
AcDbLine
 10
-6.242092265983883
 20
0.0
 30
-2.883677866967414
 11
-6.242092265983883
 21
0.0
 31
-2.733677924336885
  0
LINE
  5
121
330
70
100
AcDbEntity
  8
1 v1_Sketch1
100
AcDbLine
 10
-2.492221798278125
 20
0.0
 30
4.616878902096729
 11
-2.492221798278125
 21
0.0
 31
4.616861092966496
  0
LINE
  5
122
330
70
100
AcDbEntity
  8
1 v1_Sketch1
100
AcDbLine
 10
-2.123177009651238
 20
0.0
 30
3.107991449278371
 11
-1.890520827911794
 21
0.0
 31
2.787478342972471
  0
LINE
  5
123
330
70
100
AcDbEntity
  8
1 v1_Sketch1
100
AcDbLine
 10
4.557478641323164
 20
0.0
 30
4.616732190630516
 11
5.458096404725619
 21
0.0
 31
4.616732190630296
  0
LINE
  5
124
330
70
100
AcDbEntity
  8
1 v1_Sketch1
100
AcDbLine
 10
4.638833265621077
 20
0.0
 30
0.124650123032116
 11
4.406180927655947
 21
0.0
 31
0.4451702934132609
  0
LINE
  5
125
330
70
100
AcDbEntity
  8
1 v1_Sketch1
100
AcDbLine
 10
-3.242386703105912
 20
0.0
 30
-3.384124992852084
 11
-2.861115266184734
 21
0.0
 31
-2.875727470113129
  0
LINE
  5
126
330
70
100
AcDbEntity
  8
1 v1_Sketch1
100
AcDbLine
 10
4.557478641323172
 20
0.0
 30
4.616732190630518
 11
5.458096404725615
 21
0.0
 31
4.616732190630296
  0
ARC
  5
127
330
70
100
AcDbEntity
  8
1 v1_Sketch1
100
AcDbCircle
 10
5.642092244959558
 20
5.916322138819849
 30
0.0
 40
0.1999999872139549
210
0.0
220
1.0
230
0.0
100
AcDbArc
 50
90.000007225665
 51
179.999984155662
  0
ARC
  5
128
330
70
100
AcDbEntity
  8
1 v1_Sketch1
100
AcDbCircle
 10
2.942574204229254
 20
5.915654285765893
 30
0.0
 40
0.3000000000000043
210
0.0
220
1.0
230
0.0
100
AcDbArc
 50
270.0
 51
290.6255481051838
  0
LINE
  5
129
330
70
100
AcDbEntity
  8
1 v1_Sketch1
100
AcDbLine
 10
-2.04195644082681
 20
0.0
 30
5.615654285765883
 11
-2.942574204229254
 21
0.0
 31
5.615654285765889
  0
ARC
  5
12A
330
70
100
AcDbEntity
  8
1 v1_Sketch1
100
AcDbCircle
 10
3.012971048313859
 20
2.728735288025083
 30
0.0
 40
0.0999999999999988
210
0.0
220
1.0
230
0.0
100
AcDbArc
 50
290.6261370542812
 51
35.97429781627087
  0
LINE
  5
12B
330
70
100
AcDbEntity
  8
1 v1_Sketch1
100
AcDbLine
 10
4.638750078251472
 20
0.0
 30
4.124647799927966
 11
4.406096858456386
 21
0.0
 31
4.445169750034049
  0
LINE
  5
12C
330
70
100
AcDbEntity
  8
1 v1_Sketch1
100
AcDbLine
 10
-2.492251966617724
 20
0.0
 30
5.615672094893608
 11
-2.49225196661772
 21
0.0
 31
5.615654285765885
  0
LINE
  5
12D
330
70
100
AcDbEntity
  8
1 v1_Sketch1
100
AcDbLine
 10
-2.492221798280477
 20
0.0
 30
4.61686109296826
 11
-2.492208442369323
 21
0.0
 31
4.616878902097107
  0
LINE
  5
12E
330
70
100
AcDbEntity
  8
1 v1_Sketch1
100
AcDbLine
 10
-6.242091192697548
 20
0.0
 30
5.26632172997213
 11
-5.642092340862626
 21
0.0
 31
5.11632202112951
  0
LINE
  5
12F
330
70
100
AcDbEntity
  8
1 v1_Sketch1
100
AcDbLine
 10
-2.942386703104224
 20
0.0
 30
-2.383643079422896
 11
-2.041768939701773
 21
0.0
 31
-2.383643079422886
  0
LINE
  5
130
330
70
100
AcDbEntity
  8
1 v1_Sketch1
100
AcDbLine
 10
-6.242092265983883
 20
0.0
 30
-2.733677924336885
 11
-5.642092265983881
 21
0.0
 31
-2.883677866967414
  0
LINE
  5
131
330
70
100
AcDbEntity
  8
1 v1_Sketch1
100
AcDbLine
 10
4.557478641324781
 20
0.0
 30
2.615768363768816
 11
5.458096404727232
 21
0.0
 31
2.61576836376882
  0
LINE
  5
132
330
70
100
AcDbEntity
  8
1 v1_Sketch1
100
AcDbLine
 10
-2.492221798278125
 20
0.0
 30
4.616878902096866
 11
-2.492221798278125
 21
0.0
 31
4.616861092966496
  0
LINE
  5
133
330
70
100
AcDbEntity
  8
1 v1_Sketch1
100
AcDbLine
 10
-6.242092265983883
 20
0.0
 30
-2.733677924336885
 11
-5.642092265983881
 21
0.0
 31
-2.883677866967414
  0
LINE
  5
134
330
70
100
AcDbEntity
  8
1 v1_Sketch1
100
AcDbLine
 10
-6.242091189831503
 20
0.0
 30
6.615875007147916
 11
-3.242535012259219
 21
0.0
 31
6.616083939575525
  0
LINE
  5
135
330
70
100
AcDbEntity
  8
1 v1_Sketch1
100
AcDbLine
 10
-2.123089929411372
 20
0.0
 30
0.1247942352575206
 11
-1.741812480424821
 21
0.0
 31
-0.3836113041312261
  0
LINE
  5
136
330
70
100
AcDbEntity
  8
1 v1_Sketch1
100
AcDbLine
 10
4.638750078251469
 20
0.0
 30
4.124647799927968
 11
4.406096858456388
 21
0.0
 31
4.445169750034044
  0
LINE
  5
137
330
70
100
AcDbEntity
  8
1 v1_Sketch1
100
AcDbLine
 10
-6.242091189831503
 20
0.0
 30
-2.883678543152664
 11
-6.24209119627813
 21
0.0
 31
-2.733678540773976
  0
LINE
  5
138
330
70
100
AcDbEntity
  8
1 v1_Sketch1
100
AcDbLine
 10
-2.492221798278125
 20
0.0
 30
4.616878902096868
 11
-2.492221798278125
 21
0.0
 31
4.616861092966496
  0
LINE
  5
139
330
70
100
AcDbEntity
  8
1 v1_Sketch1
100
AcDbLine
 10
-2.123177009651234
 20
0.0
 30
3.107991449278371
 11
-1.890520827911791
 21
0.0
 31
2.787478342972468
  0
LINE
  5
13A
330
70
100
AcDbEntity
  8
1 v1_Sketch1
100
AcDbLine
 10
-2.123177009651234
 20
0.0
 30
3.107991449278371
 11
-1.741899560666579
 21
0.0
 31
3.616396988664723
  0
LINE
  5
13B
330
70
100
AcDbEntity
  8
1 v1_Sketch1
100
AcDbLine
 10
4.257599583076828
 20
0.0
 30
-3.38412499285208
 11
4.638871019998006
 21
0.0
 31
-2.875727470113113
  0
LINE
  5
13C
330
70
100
AcDbEntity
  8
1 v1_Sketch1
100
AcDbLine
 10
-2.861296755244486
 20
0.0
 30
6.107730659809182
 11
-3.093952936984043
 21
0.0
 31
5.787217553503126
  0
LINE
  5
13D
330
70
100
AcDbEntity
  8
1 v1_Sketch1
100
AcDbLine
 10
1.157907699743446
 20
0.0
 30
2.616322155384326
 11
1.157907699743446
 21
0.0
 31
4.616322185186649
  0
LINE
  5
13E
330
70
100
AcDbEntity
  8
1 v1_Sketch1
100
AcDbLine
 10
1.157907699743446
 20
0.0
 30
-1.383677904220317
 11
1.157907699743446
 21
0.0
 31
0.6163221255820046
  0
LINE
  5
13F
330
70
100
AcDbEntity
  8
1 v1_Sketch1
100
AcDbLine
 10
-6.242091191298696
 20
0.0
 30
5.966322300164216
 11
-5.64209221973723
 21
0.0
 31
6.116322126033802
  0
LINE
  5
140
330
70
100
AcDbEntity
  8
1 v1_Sketch1
100
AcDbLine
 10
1.357907702723679
 20
0.0
 30
4.616322185186649
 11
1.357907702723679
 21
0.0
 31
2.616322155384326
  0
LINE
  5
141
330
70
100
AcDbEntity
  8
1 v1_Sketch1
100
AcDbLine
 10
4.638750078251472
 20
0.0
 30
4.124647799927966
 11
4.406096858456386
 21
0.0
 31
4.445169750034049
  0
LINE
  5
142
330
70
100
AcDbEntity
  8
1 v1_Sketch1
100
AcDbLine
 10
4.638702420888817
 20
0.0
 30
6.108253068106492
 11
4.406046239149453
 21
0.0
 31
5.787739961800708
  0
LINE
  5
143
330
70
100
AcDbEntity
  8
1 v1_Sketch1
100
AcDbLine
 10
4.257478641344654
 20
0.0
 30
3.616250277183405
 11
4.638750078251472
 21
0.0
 31
4.124647799927966
  0
LINE
  5
144
330
70
100
AcDbEntity
  8
1 v1_Sketch1
100
AcDbLine
 10
7.957908387846427
 20
0.0
 30
1.316322129972135
 11
7.957908387873978
 21
0.0
 31
1.916322182484176
  0
LINE
  5
145
330
70
100
AcDbEntity
  8
1 v1_Sketch1
100
AcDbLine
 10
4.257478641344651
 20
0.0
 30
3.616250277183408
 11
4.638750078251472
 21
0.0
 31
4.124647799927966
  0
LINE
  5
146
330
70
100
AcDbEntity
  8
1 v1_Sketch1
100
AcDbLine
 10
4.63883070751098
 20
0.0
 30
-0.8921471189762728
 11
4.406177487724285
 21
0.0
 31
-1.212669069070643
  0
LINE
  5
147
330
70
100
AcDbEntity
  8
1 v1_Sketch1
100
AcDbLine
 10
-2.49225196661772
 20
0.0
 30
5.615654285765885
 11
-2.492251966617724
 21
0.0
 31
5.615672094893608
  0
LINE
  5
148
330
70
100
AcDbEntity
  8
1 v1_Sketch1
100
AcDbLine
 10
-2.492134718036
 20
0.0
 30
-1.384093217560452
 11
-2.492134718036
 21
0.0
 31
-1.384075408432729
  0
LINE
  5
149
330
70
100
AcDbEntity
  8
1 v1_Sketch1
100
AcDbLine
 10
-6.242091189831503
 20
0.0
 30
6.615875007147916
 11
-6.242091189831503
 21
0.0
 31
6.116322302600065
  0
LINE
  5
14A
330
70
100
AcDbEntity
  8
1 v1_Sketch1
100
AcDbLine
 10
-6.242091189831503
 20
0.0
 30
5.116321727792355
 11
-6.242091192697548
 21
0.0
 31
5.26632172997213
  0
LINE
  5
14B
330
70
100
AcDbEntity
  8
1 v1_Sketch1
100
AcDbLine
 10
-1.741768939701929
 20
0.0
 30
-3.384124992852082
 11
4.257599583076828
 21
0.0
 31
-3.38412499285208
  0
ARC
  5
14C
330
70
100
AcDbEntity
  8
1 v1_Sketch1
100
AcDbCircle
 10
2.942517324070442
 20
4.316878902096929
 30
0.0
 40
0.3000000000000065
210
0.0
220
1.0
230
0.0
100
AcDbArc
 50
69.37386294572462
 51
90.00000000000746
  0
LINE
  5
14D
330
70
100
AcDbEntity
  8
1 v1_Sketch1
100
AcDbLine
 10
-2.861245887142009
 20
0.0
 30
4.124794511394192
 11
-3.09389910693717
 21
0.0
 31
4.445316461500305
  0
ARC
  5
14E
330
70
100
AcDbEntity
  8
1 v1_Sketch1
100
AcDbCircle
 10
2.041768939701769
 20
-2.68364307942289
 30
0.0
 40
0.3000000000000043
210
0.0
220
1.0
230
0.0
100
AcDbArc
 50
89.99999999999934
 51
110.6255481051831
  0
LINE
  5
14F
330
70
100
AcDbEntity
  8
1 v1_Sketch1
100
AcDbLine
 10
5.758217346480794
 20
0.0
 30
-3.384124992852085
 11
8.757908810168498
 21
0.0
 31
-3.38412499285208
  0
LINE
  5
150
330
70
100
AcDbEntity
  8
1 v1_Sketch1
100
AcDbLine
 10
4.257559270591023
 20
0.0
 30
-0.3837495962376538
 11
4.63883070751098
 21
0.0
 31
-0.8921471189762728
  0
ARC
  5
151
330
70
100
AcDbEntity
  8
1 v1_Sketch1
100
AcDbCircle
 10
-4.557478641324784
 20
2.915768363768821
 30
0.0
 40
0.3000000000000043
210
0.0
220
1.0
230
0.0
100
AcDbArc
 50
270.0000000000007
 51
290.6261370542835
  0
ARC
  5
152
330
70
100
AcDbEntity
  8
1 v1_Sketch1
100
AcDbCircle
 10
-1.257907701233563
 20
0.6163221255820046
 30
0.0
 40
0.1000000014901161
210
0.0
220
1.0
230
0.0
100
AcDbArc
 50
0.0
 51
180.0
  0
LINE
  5
153
330
70
100
AcDbEntity
  8
1 v1_Sketch1
100
AcDbLine
 10
4.257559881334849
 20
0.0
 30
-0.3837500542634418
 11
4.638833265621077
 21
0.0
 31
0.124650123032116
  0
LINE
  5
154
330
70
100
AcDbEntity
  8
1 v1_Sketch1
100
AcDbLine
 10
-2.861245887142063
 20
0.0
 30
4.124794511394407
 11
-3.093899106937167
 21
0.0
 31
4.445316461500448
  0
ARC
  5
155
330
70
100
AcDbEntity
  8
1 v1_Sketch1
100
AcDbCircle
 10
2.041812480426235
 20
0.3168706093010405
 30
0.0
 40
0.3000000000000043
210
0.0
220
1.0
230
0.0
100
AcDbArc
 50
90.00000000000813
 51
110.6255481051924
  0
LINE
  5
156
330
70
100
AcDbEntity
  8
1 v1_Sketch1
100
AcDbLine
 10
4.63883070751098
 20
0.0
 30
-0.8921471189762728
 11
4.406177487724285
 21
0.0
 31
-1.212669069070643
  0
LINE
  5
157
330
70
100
AcDbEntity
  8
1 v1_Sketch1
100
AcDbLine
 10
4.257478641344651
 20
0.0
 30
3.616250277183405
 11
4.638750078251472
 21
0.0
 31
4.124647799927966
  0
ARC
  5
158
330
70
100
AcDbEntity
  8
1 v1_Sketch1
100
AcDbCircle
 10
2.041812480424463
 20
-1.084093217560448
 30
0.0
 40
0.3000000000000038
210
0.0
220
1.0
230
0.0
100
AcDbArc
 50
249.3744518948155
 51
269.9999999999986
  0
LINE
  5
159
330
70
100
AcDbEntity
  8
1 v1_Sketch1
100
AcDbLine
 10
-2.492221798278121
 20
0.0
 30
2.615915075235227
 11
-2.492221798278121
 21
0.0
 31
2.615932884362949
  0
LINE
  5
15A
330
70
100
AcDbEntity
  8
1 v1_Sketch1
100
AcDbLine
 10
4.257559270591023
 20
0.0
 30
-0.3837495962376538
 11
4.63883070751098
 21
0.0
 31
-0.8921471189762728
  0
LINE
  5
15B
330
70
100
AcDbEntity
  8
1 v1_Sketch1
100
AcDbLine
 10
8.557907883604407
 20
0.0
 30
0.6163221360440519
 11
8.757908810168492
 21
0.0
 31
0.6163221500976653
  0
LINE
  5
15C
330
70
100
AcDbEntity
  8
1 v1_Sketch1
100
AcDbLine
 10
8.757908810168498
 20
0.0
 30
-2.033677933729996
 11
8.757908810168498
 21
0.0
 31
-1.383677256378502
  0
LINE
  5
15D
330
70
100
AcDbEntity
  8
1 v1_Sketch1
100
AcDbLine
 10
5.758042735308027
 20
0.0
 30
6.616658607492158
 11
8.757908631958715
 21
0.0
 31
6.616322229887785
  0
LINE
  5
15E
330
70
100
AcDbEntity
  8
1 v1_Sketch1
100
AcDbLine
 10
4.557478641324781
 20
0.0
 30
2.615768363768816
 11
5.458096404727232
 21
0.0
 31
2.61576836376882
  0
LINE
  5
15F
330
70
100
AcDbEntity
  8
1 v1_Sketch1
100
AcDbLine
 10
-6.242091189831503
 20
0.0
 30
6.116322302600065
 11
-6.242091191298696
 21
0.0
 31
5.966322300164216
  0
ARC
  5
160
330
70
100
AcDbEntity
  8
1 v1_Sketch1
100
AcDbCircle
 10
-4.487024917079949
 20
2.728588576558676
 30
0.0
 40
0.0999999999999988
210
0.0
220
1.0
230
0.0
100
AcDbArc
 50
290.6261370542812
 51
35.97429781627101
  0
ARC
  5
161
330
70
100
AcDbEntity
  8
1 v1_Sketch1
100
AcDbCircle
 10
5.642092299285186
 20
5.316322069221794
 30
0.0
 40
0.2000000480922862
210
0.0
220
1.0
230
0.0
100
AcDbArc
 50
179.9999652523207
 51
270.0000119110564
  0
ARC
  5
162
330
70
100
AcDbEntity
  8
1 v1_Sketch1
100
AcDbCircle
 10
2.942517324070445
 20
4.316878902096787
 30
0.0
 40
0.3000000000000045
210
0.0
220
1.0
230
0.0
100
AcDbArc
 50
69.37386294572521
 51
90.00000000000746
  0
ARC
  5
163
330
70
100
AcDbEntity
  8
1 v1_Sketch1
100
AcDbCircle
 10
2.04181248042625
 20
0.3168706093012412
 30
0.0
 40
0.3000000000000043
210
0.0
220
1.0
230
0.0
100
AcDbArc
 50
90.00000000000952
 51
110.6255481051931
  0
ARC
  5
164
330
70
100
AcDbEntity
  8
1 v1_Sketch1
100
AcDbCircle
 10
3.012971048315245
 20
4.504058689307084
 30
0.0
 40
0.0999999999999992
210
0.0
220
1.0
230
0.0
100
AcDbArc
 50
324.0257021837381
 51
69.37386294572405
  0
LINE
  5
165
330
70
100
AcDbEntity
  8
1 v1_Sketch1
100
AcDbLine
 10
5.376899585008821
 20
0.0
 30
-0.8921551356240007
 11
5.609555766748261
 21
0.0
 31
-1.212668241929901
  0
ARC
  5
166
330
70
100
AcDbEntity
  8
1 v1_Sketch1
100
AcDbCircle
 10
2.942517324070442
 20
4.316878902096929
 30
0.0
 40
0.3000000000000074
210
0.0
220
1.0
230
0.0
100
AcDbArc
 50
69.37386294572469
 51
90.00000000000746
  0
ARC
  5
167
330
70
100
AcDbEntity
  8
1 v1_Sketch1
100
AcDbCircle
 10
-4.557478641324784
 20
2.915768363768821
 30
0.0
 40
0.3000000000000043
210
0.0
220
1.0
230
0.0
100
AcDbArc
 50
270.0000000000007
 51
290.6261370542835
  0
LINE
  5
168
330
70
100
AcDbEntity
  8
1 v1_Sketch1
100
AcDbLine
 10
4.638750078244733
 20
0.0
 30
3.107852754459694
 11
4.406096858458038
 21
0.0
 31
2.787330804365323
  0
LINE
  5
169
330
70
100
AcDbEntity
  8
1 v1_Sketch1
100
AcDbLine
 10
-6.242091189831503
 20
0.0
 30
5.116321727792355
 11
-6.242091189831503
 21
0.0
 31
4.616322150780192
  0
ARC
  5
16A
330
70
100
AcDbEntity
  8
1 v1_Sketch1
100
AcDbCircle
 10
-1.257907701233563
 20
-1.383677904220317
 30
0.0
 40
0.1000000014901161
210
0.0
220
1.0
230
0.0
100
AcDbArc
 50
180.0
 51
0.0
  0
LINE
  5
16B
330
70
100
AcDbEntity
  8
1 v1_Sketch1
100
AcDbLine
 10
4.63883070751098
 20
0.0
 30
-0.8921471189762728
 11
4.406177487724285
 21
0.0
 31
-1.212669069070643
  0
LINE
  5
16C
330
70
100
AcDbEntity
  8
1 v1_Sketch1
100
AcDbLine
 10
-5.442092251192937
 20
0.0
 30
5.316322190514105
 11
-5.442092257745612
 21
0.0
 31
5.916322194127018
  0
LINE
  5
16D
330
70
100
AcDbEntity
  8
1 v1_Sketch1
100
AcDbLine
 10
5.376899585008821
 20
0.0
 30
-0.8921551356240025
 11
5.609555766748265
 21
0.0
 31
-1.212668241929905
  0
LINE
  5
16E
330
70
100
AcDbEntity
  8
1 v1_Sketch1
100
AcDbLine
 10
5.376899585008821
 20
0.0
 30
-0.8921551356240025
 11
5.609555766748265
 21
0.0
 31
-1.212668241929905
  0
LINE
  5
16F
330
70
100
AcDbEntity
  8
1 v1_Sketch1
100
AcDbLine
 10
-2.861296755244486
 20
0.0
 30
6.107730659809182
 11
-3.242574204229031
 21
0.0
 31
6.616136199195399
  0
LINE
  5
170
330
70
100
AcDbEntity
  8
1 v1_Sketch1
100
AcDbLine
 10
-2.49225196661772
 20
0.0
 30
5.615654285765885
 11
-2.492251966617724
 21
0.0
 31
5.615672094893608
  0
ARC
  5
171
330
70
100
AcDbEntity
  8
1 v1_Sketch1
100
AcDbCircle
 10
3.012971048315248
 20
4.504058689306942
 30
0.0
 40
0.1000000000000002
210
0.0
220
1.0
230
0.0
100
AcDbArc
 50
324.0257021837372
 51
69.37386294572559
  0
LINE
  5
172
330
70
100
AcDbEntity
  8
1 v1_Sketch1
100
AcDbLine
 10
-2.492251966617724
 20
0.0
 30
5.615672094893608
 11
-2.492265322528036
 21
0.0
 31
5.615654285765885
  0
ARC
  5
173
330
70
100
AcDbEntity
  8
1 v1_Sketch1
100
AcDbCircle
 10
1.971317139500579
 20
-2.49646256802169
 30
0.0
 40
0.0999999999999947
210
0.0
220
1.0
230
0.0
100
AcDbArc
 50
110.6255481051801
 51
215.9753961421642
  0
LINE
  5
174
330
70
100
AcDbEntity
  8
1 v1_Sketch1
100
AcDbLine
 10
4.557478641324781
 20
0.0
 30
2.615768363768816
 11
5.458096404727232
 21
0.0
 31
2.61576836376882
  0
ARC
  5
175
330
70
100
AcDbEntity
  8
1 v1_Sketch1
100
AcDbCircle
 10
2.942430243826903
 20
-1.084093217560451
 30
0.0
 40
0.3000000000000043
210
0.0
220
1.0
230
0.0
100
AcDbArc
 50
270.0000000000007
 51
290.6261370542834
  0
LINE
  5
176
330
70
100
AcDbEntity
  8
1 v1_Sketch1
100
AcDbLine
 10
4.638830707517204
 20
0.0
 30
0.1246479264917957
 11
4.406177487722027
 21
0.0
 31
0.4451698765980066
  0
LINE
  5
177
330
70
100
AcDbEntity
  8
1 v1_Sketch1
100
AcDbLine
 10
-2.492134718036
 20
0.0
 30
-1.384075408432729
 11
-2.492121362125688
 21
0.0
 31
-1.384093217560452
  0
ARC
  5
178
330
70
100
AcDbEntity
  8
1 v1_Sketch1
100
AcDbCircle
 10
1.971360680225012
 20
0.5040511207022265
 30
0.0
 40
0.099999999999998
210
0.0
220
1.0
230
0.0
100
AcDbArc
 50
110.6255481051881
 51
215.9753961421723
  0
ARC
  5
179
330
70
100
AcDbEntity
  8
1 v1_Sketch1
100
AcDbCircle
 10
1.971360680225027
 20
0.5040511207024272
 30
0.0
 40
0.0999999999999993
210
0.0
220
1.0
230
0.0
100
AcDbArc
 50
110.62554810519
 51
215.9753961421735
  0
LINE
  5
17A
330
70
100
AcDbEntity
  8
1 v1_Sketch1
100
AcDbLine
 10
4.257478641324777
 20
0.0
 30
3.616250277198313
 11
4.638750078244733
 21
0.0
 31
3.107852754459694
  0
LINE
  5
17B
330
70
100
AcDbEntity
  8
1 v1_Sketch1
100
AcDbLine
 10
7.957908438237407
 20
0.0
 30
5.316322012679177
 11
7.957908429016275
 21
0.0
 31
5.916322303133577
  0
LINE
  5
17C
330
70
100
AcDbEntity
  8
1 v1_Sketch1
100
AcDbLine
 10
-3.242517324069032
 20
0.0
 30
3.616396988664719
 11
-2.861245887149076
 21
0.0
 31
3.1079994659261
  0
LINE
  5
17D
330
70
100
AcDbEntity
  8
1 v1_Sketch1
100
AcDbLine
 10
5.376818955742574
 20
0.0
 30
3.107844737811964
 11
5.758096404727229
 21
0.0
 31
3.616250277198316
  0
LINE
  5
17E
330
70
100
AcDbEntity
  8
1 v1_Sketch1
100
AcDbLine
 10
8.757908822686326
 20
0.0
 30
5.966321930917724
 11
8.157908333450965
 21
0.0
 31
6.116322130719771
  0
LINE
  5
17F
330
70
100
AcDbEntity
  8
1 v1_Sketch1
100
AcDbLine
 10
-2.492221798278121
 20
0.0
 30
2.615915075235227
 11
-2.492221798278121
 21
0.0
 31
2.615932884362949
  0
LINE
  5
180
330
70
100
AcDbEntity
  8
1 v1_Sketch1
100
AcDbLine
 10
8.757908810168498
 20
0.0
 30
-2.733677895579126
 11
8.157908459771924
 21
0.0
 31
-2.883677930706777
  0
ARC
  5
181
330
70
100
AcDbEntity
  8
1 v1_Sketch1
100
AcDbCircle
 10
-4.557478641324784
 20
2.915768363768821
 30
0.0
 40
0.3000000000000043
210
0.0
220
1.0
230
0.0
100
AcDbArc
 50
270.0000000000007
 51
290.6261370542835
  0
ARC
  5
182
330
70
100
AcDbEntity
  8
1 v1_Sketch1
100
AcDbCircle
 10
-4.487024917079949
 20
2.728588576558676
 30
0.0
 40
0.0999999999999988
210
0.0
220
1.0
230
0.0
100
AcDbArc
 50
290.6261370542812
 51
35.97429781627101
  0
LINE
  5
183
330
70
100
AcDbEntity
  8
1 v1_Sketch1
100
AcDbLine
 10
-2.492134718036
 20
0.0
 30
-1.384075408432729
 11
-2.492121362125688
 21
0.0
 31
-1.384093217560452
  0
ARC
  5
184
330
70
100
AcDbEntity
  8
1 v1_Sketch1
100
AcDbCircle
 10
-8.157908396737621
 20
1.316322116912286
 30
0.0
 40
0.2000000088911938
210
0.0
220
1.0
230
0.0
100
AcDbArc
 50
269.9999979791968
 51
0.0000037413710355
  0
LINE
  5
185
330
70
100
AcDbEntity
  8
1 v1_Sketch1
100
AcDbLine
 10
5.376899585006551
 20
0.0
 30
0.1246559431510468
 11
5.609555766746133
 21
0.0
 31
0.4451690494569763
  0
LINE
  5
186
330
70
100
AcDbEntity
  8
1 v1_Sketch1
100
AcDbLine
 10
1.357907702723679
 20
0.0
 30
0.6163221255820046
 11
1.357907702723679
 21
0.0
 31
-1.383677904220317
  0
LINE
  5
187
330
70
100
AcDbEntity
  8
1 v1_Sketch1
100
AcDbLine
 10
-2.492221798278121
 20
0.0
 30
2.615915075235227
 11
-2.492221798278121
 21
0.0
 31
2.615932884362949
  0
LINE
  5
188
330
70
100
AcDbEntity
  8
1 v1_Sketch1
100
AcDbLine
 10
8.75790881016849
 20
0.0
 30
2.616320997297385
 11
8.55790793481182
 21
0.0
 31
2.616320997297384
  0
ARC
  5
189
330
70
100
AcDbEntity
  8
1 v1_Sketch1
100
AcDbCircle
 10
3.012971048313859
 20
2.728735288025083
 30
0.0
 40
0.0999999999999988
210
0.0
220
1.0
230
0.0
100
AcDbArc
 50
290.6261370542812
 51
35.97429781627087
  0
LINE
  5
18A
330
70
100
AcDbEntity
  8
1 v1_Sketch1
100
AcDbLine
 10
8.75790881016849
 20
0.0
 30
1.966321993223596
 11
8.157908389488746
 21
0.0
 31
2.11632218207021
  0
LINE
  5
18B
330
70
100
AcDbEntity
  8
1 v1_Sketch1
100
AcDbLine
 10
8.757908427170477
 20
0.0
 30
-2.883677866967414
 11
8.757908426683558
 21
0.0
 31
-2.733677920257298
  0
LINE
  5
18C
330
70
100
AcDbEntity
  8
1 v1_Sketch1
100
AcDbLine
 10
5.376899585008821
 20
0.0
 30
-0.8921551356240025
 11
5.609555766748265
 21
0.0
 31
-1.212668241929905
  0
ARC
  5
18D
330
70
100
AcDbEntity
  8
1 v1_Sketch1
100
AcDbCircle
 10
2.942430243826903
 20
-1.084093217560451
 30
0.0
 40
0.3000000000000043
210
0.0
220
1.0
230
0.0
100
AcDbArc
 50
270.0000000000007
 51
290.6261370542834
  0
LINE
  5
18E
330
70
100
AcDbEntity
  8
1 v1_Sketch1
100
AcDbLine
 10
5.376939897496324
 20
0.0
 30
-2.875719453466001
 11
5.609596079235757
 21
0.0
 31
-2.5552063471601
  0
LINE
  5
18F
330
70
100
AcDbEntity
  8
1 v1_Sketch1
100
AcDbLine
 10
5.376818955740446
 20
0.0
 30
4.124655816586654
 11
5.758096404726902
 21
0.0
 31
3.616250277198073
  0
LINE
  5
190
330
70
100
AcDbEntity
  8
1 v1_Sketch1
100
AcDbLine
 10
8.75790881016849
 20
0.0
 30
4.61632111955976
 11
8.75790881016849
 21
0.0
 31
5.266322237064146
  0
ARC
  5
191
330
70
100
AcDbEntity
  8
1 v1_Sketch1
100
AcDbCircle
 10
-8.15790841731242
 20
-2.683677863602329
 30
0.0
 40
0.200000067104452
210
0.0
220
1.0
230
0.0
100
AcDbArc
 50
269.999987836252
 51
0.0000233156253494
  0
ARC
  5
192
330
70
100
AcDbEntity
  8
1 v1_Sketch1
100
AcDbCircle
 10
-4.487105546343954
 20
0.5039121044046331
 30
0.0
 40
0.0999999999999978
210
0.0
220
1.0
230
0.0
100
AcDbArc
 50
324.0257021837444
 51
69.37386294573386
  0
ARC
  5
193
330
70
100
AcDbEntity
  8
1 v1_Sketch1
100
AcDbCircle
 10
3.012883968071738
 20
-1.271273004770596
 30
0.0
 40
0.0999999999999988
210
0.0
220
1.0
230
0.0
100
AcDbArc
 50
290.6261370542812
 51
35.97429781627076
  0
LINE
  5
194
330
70
100
AcDbEntity
  8
1 v1_Sketch1
100
AcDbLine
 10
8.75790881016849
 20
0.0
 30
4.61632111955976
 11
8.557907743116881
 21
0.0
 31
4.616321100390163
  0
LINE
  5
195
330
70
100
AcDbEntity
  8
1 v1_Sketch1
100
AcDbLine
 10
5.376818955740446
 20
0.0
 30
4.124655816586653
 11
5.758096404726902
 21
0.0
 31
3.616250277198073
  0
LINE
  5
196
330
70
100
AcDbEntity
  8
1 v1_Sketch1
100
AcDbLine
 10
8.757908426683558
 20
0.0
 30
-2.733677920257298
 11
8.157908392324543
 21
0.0
 31
-2.88367787180018
  0
LINE
  5
197
330
70
100
AcDbEntity
  8
1 v1_Sketch1
100
AcDbLine
 10
8.757908781422585
 20
0.0
 30
2.116322147931542
 11
8.75790881016849
 21
0.0
 31
1.966321993223596
  0
LINE
  5
198
330
70
100
AcDbEntity
  8
1 v1_Sketch1
100
AcDbLine
 10
-2.861245887149076
 20
0.0
 30
3.1079994659261
 11
-3.09389910693577
 21
0.0
 31
2.78747751583173
  0
ARC
  5
199
330
70
100
AcDbEntity
  8
1 v1_Sketch1
100
AcDbCircle
 10
-4.487145858833684
 20
-2.496463292212738
 30
0.0
 40
0.0999999999999984
210
0.0
220
1.0
230
0.0
100
AcDbArc
 50
324.0257021837283
 51
69.37386294571656
  0
ARC
  5
19A
330
70
100
AcDbEntity
  8
1 v1_Sketch1
100
AcDbCircle
 10
-4.557478641324784
 20
2.915768363768821
 30
0.0
 40
0.3000000000000043
210
0.0
220
1.0
230
0.0
100
AcDbArc
 50
270.0000000000007
 51
290.6261370542835
  0
LINE
  5
19B
330
70
100
AcDbEntity
  8
1 v1_Sketch1
100
AcDbLine
 10
5.376818955742574
 20
0.0
 30
3.107844737811964
 11
5.758096404727229
 21
0.0
 31
3.616250277198316
  0
LINE
  5
19C
330
70
100
AcDbEntity
  8
1 v1_Sketch1
100
AcDbLine
 10
8.757908631958715
 20
0.0
 30
6.616322229887785
 11
8.757908778581022
 21
0.0
 31
6.116322147931193
  0
LINE
  5
19D
330
70
100
AcDbEntity
  8
1 v1_Sketch1
100
AcDbLine
 10
-3.242517324069032
 20
0.0
 30
3.616396988664719
 11
-2.861245887149076
 21
0.0
 31
3.1079994659261
  0
LINE
  5
19E
330
70
100
AcDbEntity
  8
1 v1_Sketch1
100
AcDbLine
 10
4.557559270588811
 20
0.0
 30
0.6167323171944732
 11
5.458177033991383
 21
0.0
 31
0.616732317194253
  0
LINE
  5
19F
330
70
100
AcDbEntity
  8
1 v1_Sketch1
100
AcDbLine
 10
8.757908810168498
 20
0.0
 30
-1.383677256378502
 11
8.757908788883877
 21
0.0
 31
-1.883677852091913
  0
ARC
  5
1A0
330
70
100
AcDbEntity
  8
1 v1_Sketch1
100
AcDbCircle
 10
-4.557599583078523
 20
-2.683643079422881
 30
0.0
 40
0.300000000000002
210
0.0
220
1.0
230
0.0
100
AcDbArc
 50
69.37386294571489
 51
89.99999999999864
  0
LINE
  5
1A1
330
70
100
AcDbEntity
  8
1 v1_Sketch1
100
AcDbLine
 10
5.758042735308027
 20
0.0
 30
6.616658607492158
 11
5.376771298387213
 21
0.0
 31
6.108261084753695
  0
LINE
  5
1A2
330
70
100
AcDbEntity
  8
1 v1_Sketch1
100
AcDbLine
 10
8.757908842317018
 20
0.0
 30
1.116322133042685
 11
8.757908810168492
 21
0.0
 31
0.6163221500976653
  0
ARC
  5
1A3
330
70
100
AcDbEntity
  8
1 v1_Sketch1
100
AcDbCircle
 10
-8.157908376890222
 20
-2.683677860335063
 30
0.0
 40
0.2000000114651167
210
0.0
220
1.0
230
0.0
100
AcDbArc
 50
269.9999955783931
 51
359.9999980044163
  0
LINE
  5
1A4
330
70
100
AcDbEntity
  8
1 v1_Sketch1
100
AcDbLine
 10
8.757908810168498
 20
0.0
 30
-2.033677933729996
 11
8.157908466625098
 21
0.0
 31
-1.883677753269046
  0
LINE
  5
1A5
330
70
100
AcDbEntity
  8
1 v1_Sketch1
100
AcDbLine
 10
5.376818955740446
 20
0.0
 30
4.124655816586653
 11
5.758096404726902
 21
0.0
 31
3.616250277198073
  0
LINE
  5
1A6
330
70
100
AcDbEntity
  8
1 v1_Sketch1
100
AcDbLine
 10
-2.492134718036
 20
0.0
 30
-1.384093217560452
 11
-2.492134718036
 21
0.0
 31
-1.384075408432729
  0
LINE
  5
1A7
330
70
100
AcDbEntity
  8
1 v1_Sketch1
100
AcDbLine
 10
8.757908827032265
 20
0.0
 30
5.116322133039418
 11
8.75790881016849
 21
0.0
 31
5.266322237064146
  0
LINE
  5
1A8
330
70
100
AcDbEntity
  8
1 v1_Sketch1
100
AcDbLine
 10
8.757908842317018
 20
0.0
 30
1.116322133042685
 11
8.757908810168492
 21
0.0
 31
1.266322211171824
  0
LINE
  5
1A9
330
70
100
AcDbEntity
  8
1 v1_Sketch1
100
AcDbLine
 10
4.932192009919365
 20
0.0
 30
6.895468828927794
 11
4.932192009919365
 21
0.0
 31
6.895468828927794
  0
ARC
  5
1AA
330
70
100
AcDbEntity
  8
1 v1_Sketch1
100
AcDbCircle
 10
-8.157908388371676
 20
1.916322181572513
 30
0.0
 40
0.2000000004976981
210
0.0
220
1.0
230
0.0
100
AcDbArc
 50
0.0000002611721376
 51
90.00000032001674
  0
LINE
  5
1AB
330
70
100
AcDbEntity
  8
1 v1_Sketch1
100
AcDbLine
 10
-3.242517324069032
 20
0.0
 30
3.616396988664719
 11
-2.861245887149076
 21
0.0
 31
3.1079994659261
  0
LINE
  5
1AC
330
70
100
AcDbEntity
  8
1 v1_Sketch1
100
AcDbLine
 10
7.957908365425109
 20
0.0
 30
-2.683677867300965
 11
7.957908366663236
 21
0.0
 31
-2.083677901443617
  0
LINE
  5
1AD
330
70
100
AcDbEntity
  8
1 v1_Sketch1
100
AcDbLine
 10
8.757908810168492
 20
0.0
 30
0.6163221500976653
 11
8.757908810168492
 21
0.0
 31
1.266322211171824
  0
LINE
  5
1AE
330
70
100
AcDbEntity
  8
1 v1_Sketch1
100
AcDbLine
 10
-2.492221798278121
 20
0.0
 30
2.615932884362949
 11
-2.492208442367809
 21
0.0
 31
2.615915075235227
  0
ARC
  5
1AF
330
70
100
AcDbEntity
  8
1 v1_Sketch1
100
AcDbCircle
 10
-4.487024917079949
 20
2.728588576558676
 30
0.0
 40
0.0999999999999988
210
0.0
220
1.0
230
0.0
100
AcDbArc
 50
290.6261370542812
 51
35.97429781627101
  0
LINE
  5
1B0
330
70
100
AcDbEntity
  8
1 v1_Sketch1
100
AcDbLine
 10
8.75790881016849
 20
0.0
 30
1.966321993223596
 11
8.75790881016849
 21
0.0
 31
2.616320997297385
  0
LINE
  5
1B1
330
70
100
AcDbEntity
  8
1 v1_Sketch1
100
AcDbLine
 10
8.757908427170477
 20
0.0
 30
-2.883677866967414
 11
8.757908106873101
 21
0.0
 31
-3.383677770109867
  0
ARC
  5
1B2
330
70
100
AcDbEntity
  8
1 v1_Sketch1
100
AcDbCircle
 10
-4.487105546346196
 20
-1.27141129687729
 30
0.0
 40
0.0999999999999988
210
0.0
220
1.0
230
0.0
100
AcDbArc
 50
290.6261370542812
 51
35.97429781627091
  0
LINE
  5
1B3
330
70
100
AcDbEntity
  8
1 v1_Sketch1
100
AcDbLine
 10
8.757908827032265
 20
0.0
 30
5.116322133039418
 11
8.75790881016849
 21
0.0
 31
4.61632111955976
  0
ARC
  5
1B4
330
70
100
AcDbEntity
  8
1 v1_Sketch1
100
AcDbCircle
 10
3.012883968071738
 20
-1.271273004770596
 30
0.0
 40
0.0999999999999988
210
0.0
220
1.0
230
0.0
100
AcDbArc
 50
290.6261370542812
 51
35.97429781627076
  0
ARC
  5
1B5
330
70
100
AcDbEntity
  8
1 v1_Sketch1
100
AcDbCircle
 10
2.942517324069024
 20
2.915915075235227
 30
0.0
 40
0.3000000000000043
210
0.0
220
1.0
230
0.0
100
AcDbArc
 50
270.0000000000007
 51
290.6261370542834
  0
LINE
  5
1B6
330
70
100
AcDbEntity
  8
1 v1_Sketch1
100
AcDbLine
 10
-2.492134718036
 20
0.0
 30
-1.384093217560452
 11
-2.492134718036
 21
0.0
 31
-1.384075408432729
  0
LINE
  5
1B7
330
70
100
AcDbEntity
  8
1 v1_Sketch1
100
AcDbLine
 10
8.75790881016849
 20
0.0
 30
2.616320997297385
 11
8.757908781422585
 21
0.0
 31
2.116322147931542
  0
ARC
  5
1B8
330
70
100
AcDbEntity
  8
1 v1_Sketch1
100
AcDbCircle
 10
-8.157908377035674
 20
5.916322182700335
 30
0.0
 40
0.1999999480194352
210
0.0
220
1.0
230
0.0
100
AcDbArc
 50
0.0000345015913785
 51
89.99998751389732
  0
ARC
  5
1B9
330
70
100
AcDbEntity
  8
1 v1_Sketch1
100
AcDbCircle
 10
5.642155407825798
 20
1.916296151087771
 30
0.0
 40
0.2000000000000234
210
0.0
220
1.0
230
0.0
100
AcDbArc
 50
89.9972753294368
 51
180.0044607509645
  0
LINE
  5
1BA
330
70
100
AcDbEntity
  8
1 v1_Sketch1
100
AcDbLine
 10
12.44140600436077
 20
0.0
 30
-3.174793340831301
 11
12.44140600436077
 21
0.0
 31
-3.174793340831301
  0
LINE
  5
1BB
330
70
100
AcDbEntity
  8
1 v1_Sketch1
100
AcDbLine
 10
5.376818955742574
 20
0.0
 30
3.107844737811964
 11
5.609475137482018
 21
0.0
 31
2.787331631506061
  0
LINE
  5
1BC
330
70
100
AcDbEntity
  8
1 v1_Sketch1
100
AcDbLine
 10
5.007895108869391
 20
0.0
 30
-2.383660888550637
 11
5.007895108869391
 21
0.0
 31
-2.38364307942287
  0
LINE
  5
1BD
330
70
100
AcDbEntity
  8
1 v1_Sketch1
100
AcDbLine
 10
5.376818955742574
 20
0.0
 30
3.107844737811964
 11
5.758096404727229
 21
0.0
 31
3.616250277198316
  0
ARC
  5
1BE
330
70
100
AcDbEntity
  8
1 v1_Sketch1
100
AcDbCircle
 10
-5.528548204928416
 20
2.728587852367626
 30
0.0
 40
0.1000000000000027
210
0.0
220
1.0
230
0.0
100
AcDbArc
 50
144.0246038578354
 51
249.3744518948162
  0
LINE
  5
1BF
330
70
100
AcDbEntity
  8
1 v1_Sketch1
100
AcDbLine
 10
5.007774167115687
 20
0.0
 30
2.61576836376882
 11
5.007774167115687
 21
0.0
 31
2.615786172896543
  0
ARC
  5
1C0
330
70
100
AcDbEntity
  8
1 v1_Sketch1
100
AcDbCircle
 10
2.942517324069024
 20
2.915915075235227
 30
0.0
 40
0.3000000000000043
210
0.0
220
1.0
230
0.0
100
AcDbArc
 50
270.0000000000007
 51
290.6261370542834
  0
ARC
  5
1C1
330
70
100
AcDbEntity
  8
1 v1_Sketch1
100
AcDbCircle
 10
3.012971048313859
 20
2.728735288025083
 30
0.0
 40
0.0999999999999988
210
0.0
220
1.0
230
0.0
100
AcDbArc
 50
290.6261370542812
 51
35.97429781627087
  0
LINE
  5
1C2
330
70
100
AcDbEntity
  8
1 v1_Sketch1
100
AcDbLine
 10
5.376818955742574
 20
0.0
 30
3.107844737811964
 11
5.609475137482018
 21
0.0
 31
2.787331631506061
  0
LINE
  5
1C3
330
70
100
AcDbEntity
  8
1 v1_Sketch1
100
AcDbLine
 10
5.007747209515775
 20
0.0
 30
5.61619450319117
 11
5.007733853605474
 21
0.0
 31
5.616176694063463
  0
LINE
  5
1C4
330
70
100
AcDbEntity
  8
1 v1_Sketch1
100
AcDbLine
 10
5.376818955740446
 20
0.0
 30
4.124655816586653
 11
5.609475137480369
 21
0.0
 31
4.445168922893016
  0
LINE
  5
1C5
330
70
100
AcDbEntity
  8
1 v1_Sketch1
100
AcDbLine
 10
8.757908778581022
 20
0.0
 30
6.116322147931193
 11
8.757908822686326
 21
0.0
 31
5.966321930917724
  0
ARC
  5
1C6
330
70
100
AcDbEntity
  8
1 v1_Sketch1
100
AcDbCircle
 10
2.942517324069024
 20
2.915915075235227
 30
0.0
 40
0.3000000000000043
210
0.0
220
1.0
230
0.0
100
AcDbArc
 50
270.0000000000007
 51
290.6261370542834
  0
ARC
  5
1C7
330
70
100
AcDbEntity
  8
1 v1_Sketch1
100
AcDbCircle
 10
1.971447760465393
 20
2.728734563834033
 30
0.0
 40
0.1000000000000027
210
0.0
220
1.0
230
0.0
100
AcDbArc
 50
144.0246038578354
 51
249.374451894816
  0
LINE
  5
1C8
330
70
100
AcDbEntity
  8
1 v1_Sketch1
100
AcDbLine
 10
5.007895108869391
 20
0.0
 30
-2.38364307942287
 11
5.007895108869391
 21
0.0
 31
-2.383660888550637
  0
LINE
  5
1C9
330
70
100
AcDbEntity
  8
1 v1_Sketch1
100
AcDbLine
 10
5.376899585008821
 20
0.0
 30
-0.8921551356240007
 11
5.758177033993476
 21
0.0
 31
-0.3837495962376502
  0
LINE
  5
1CA
330
70
100
AcDbEntity
  8
1 v1_Sketch1
100
AcDbLine
 10
5.007854796381934
 20
0.0
 30
-1.384231509667146
 11
5.007854796381934
 21
0.0
 31
-1.384213700539423
  0
LINE
  5
1CB
330
70
100
AcDbEntity
  8
1 v1_Sketch1
100
AcDbLine
 10
5.007774167115687
 20
0.0
 30
2.615786172896543
 11
5.007787523025999
 21
0.0
 31
2.61576836376882
  0
LINE
  5
1CC
330
70
100
AcDbEntity
  8
1 v1_Sketch1
100
AcDbLine
 10
-2.492221798278121
 20
0.0
 30
2.615915075235227
 11
-2.492221798278121
 21
0.0
 31
2.615932884362949
  0
ARC
  5
1CD
330
70
100
AcDbEntity
  8
1 v1_Sketch1
100
AcDbCircle
 10
-4.487108937065602
 20
0.5039125890186514
 30
0.0
 40
0.1000000000000017
210
0.0
220
1.0
230
0.0
100
AcDbArc
 50
324.0256541832833
 51
69.37381736640896
  0
LINE
  5
1CE
330
70
100
AcDbEntity
  8
1 v1_Sketch1
100
AcDbLine
 10
7.957908350207984
 20
0.0
 30
-2.683677782215416
 11
7.957908352872017
 21
0.0
 31
-2.083677843897603
  0
LINE
  5
1CF
330
70
100
AcDbEntity
  8
1 v1_Sketch1
100
AcDbLine
 10
5.007787523041912
 20
0.0
 30
3.61624948794247
 11
5.007787523041912
 21
0.0
 31
3.61624948794247
  0
ARC
  5
1D0
330
70
100
AcDbEntity
  8
1 v1_Sketch1
100
AcDbCircle
 10
2.942517324069024
 20
2.915915075235227
 30
0.0
 40
0.3000000000000043
210
0.0
220
1.0
230
0.0
100
AcDbArc
 50
270.0000000000007
 51
290.6261370542834
  0
ARC
  5
1D1
330
70
100
AcDbEntity
  8
1 v1_Sketch1
100
AcDbCircle
 10
-8.157908394178999
 20
5.316322077847634
 30
0.0
 40
0.1999999559416026
210
0.0
220
1.0
230
0.0
100
AcDbArc
 50
270.0000134967646
 51
359.9999813306081
  0
LINE
  5
1D2
330
70
100
AcDbEntity
  8
1 v1_Sketch1
100
AcDbLine
 10
-6.242091189831489
 20
0.0
 30
2.616322691826101
 11
-6.042092481557665
 21
0.0
 31
2.616322691826099
  0
LINE
  5
1D3
330
70
100
AcDbEntity
  8
1 v1_Sketch1
100
AcDbLine
 10
5.007774167115687
 20
0.0
 30
2.615786172896543
 11
5.007787523025999
 21
0.0
 31
2.61576836376882
  0
ARC
  5
1D4
330
70
100
AcDbEntity
  8
1 v1_Sketch1
100
AcDbCircle
 10
2.041812480424463
 20
-1.084093217560448
 30
0.0
 40
0.3000000000000038
210
0.0
220
1.0
230
0.0
100
AcDbArc
 50
249.3744518948155
 51
269.9999999999986
  0
LINE
  5
1D5
330
70
100
AcDbEntity
  8
1 v1_Sketch1
100
AcDbLine
 10
5.376818955740446
 20
0.0
 30
4.124655816586654
 11
5.609475137480369
 21
0.0
 31
4.445168922893017
  0
LINE
  5
1D6
330
70
100
AcDbEntity
  8
1 v1_Sketch1
100
AcDbLine
 10
5.007854796381934
 20
0.0
 30
-1.384231509667146
 11
5.007854796381934
 21
0.0
 31
-1.384213700539423
  0
LINE
  5
1D7
330
70
100
AcDbEntity
  8
1 v1_Sketch1
100
AcDbLine
 10
-2.492221798278121
 20
0.0
 30
2.615932884362949
 11
-2.492208442367809
 21
0.0
 31
2.615915075235227
  0
LINE
  5
1D8
330
70
100
AcDbEntity
  8
1 v1_Sketch1
100
AcDbLine
 10
8.55790793481182
 20
0.0
 30
2.616320997297384
 11
8.557907743116881
 21
0.0
 31
4.616321100390163
  0
LINE
  5
1D9
330
70
100
AcDbEntity
  8
1 v1_Sketch1
100
AcDbLine
 10
8.757908788883877
 20
0.0
 30
-1.883677852091913
 11
8.757908810168498
 21
0.0
 31
-2.033677933729996
  0
LINE
  5
1DA
330
70
100
AcDbEntity
  8
1 v1_Sketch1
100
AcDbLine
 10
5.376818955740446
 20
0.0
 30
4.124655816586653
 11
5.758096404726902
 21
0.0
 31
3.616250277198073
  0
LINE
  5
1DB
330
70
100
AcDbEntity
  8
1 v1_Sketch1
100
AcDbLine
 10
5.376899585006551
 20
0.0
 30
0.1246559431510485
 11
5.609555766746133
 21
0.0
 31
0.4451690494569763
  0
LINE
  5
1DC
330
70
100
AcDbEntity
  8
1 v1_Sketch1
100
AcDbLine
 10
8.757908810168492
 20
0.0
 30
1.266322211171824
 11
8.157908403791555
 21
0.0
 31
1.116322108021092
  0
LINE
  5
1DD
330
70
100
AcDbEntity
  8
1 v1_Sketch1
100
AcDbLine
 10
8.757908810168498
 20
0.0
 30
-3.38412499285208
 11
8.757908810168498
 21
0.0
 31
-2.733677895579126
  0
ARC
  5
1DE
330
70
100
AcDbEntity
  8
1 v1_Sketch1
100
AcDbCircle
 10
-5.528669146682155
 20
-2.496462568021668
 30
0.0
 40
0.0999999999999976
210
0.0
220
1.0
230
0.0
100
AcDbArc
 50
110.6255481051817
 51
215.9753961421627
  0
ARC
  5
1DF
330
70
100
AcDbEntity
  8
1 v1_Sketch1
100
AcDbCircle
 10
-5.458096404725541
 20
4.316732190630292
 30
0.0
 40
0.3000000000000043
210
0.0
220
1.0
230
0.0
100
AcDbArc
 50
90.00000000001426
 51
110.6255481051999
  0
ARC
  5
1E0
330
70
100
AcDbEntity
  8
1 v1_Sketch1
100
AcDbCircle
 10
-5.458096404727225
 20
2.915768363768824
 30
0.0
 40
0.3000000000000038
210
0.0
220
1.0
230
0.0
100
AcDbArc
 50
249.3744518948155
 51
269.9999999999986
  0
ARC
  5
1E1
330
70
100
AcDbEntity
  8
1 v1_Sketch1
100
AcDbCircle
 10
-8.15790842925244
 20
-2.083677815858266
 30
0.0
 40
0.2000000625892226
210
0.0
220
1.0
230
0.0
100
AcDbArc
 50
359.9999754816109
 51
90.00001070647448
  0
ARC
  5
1E2
330
70
100
AcDbEntity
  8
1 v1_Sketch1
100
AcDbCircle
 10
1.971360680223272
 20
-1.271273728961646
 30
0.0
 40
0.1000000000000027
210
0.0
220
1.0
230
0.0
100
AcDbArc
 50
144.0246038578354
 51
249.3744518948159
  0
ARC
  5
1E3
330
70
100
AcDbEntity
  8
1 v1_Sketch1
100
AcDbCircle
 10
3.012971048313859
 20
2.728735288025083
 30
0.0
 40
0.0999999999999988
210
0.0
220
1.0
230
0.0
100
AcDbArc
 50
290.6261370542812
 51
35.97429781627087
  0
LINE
  5
1E4
330
70
100
AcDbEntity
  8
1 v1_Sketch1
100
AcDbLine
 10
8.75790881016849
 20
0.0
 30
5.266322237064146
 11
8.157908347066413
 21
0.0
 31
5.116322121906037
  0
LINE
  5
1E5
330
70
100
AcDbEntity
  8
1 v1_Sketch1
100
AcDbLine
 10
-6.242091189831489
 20
0.0
 30
2.616322691826101
 11
-6.242091189831489
 21
0.0
 31
2.116314297751763
  0
LINE
  5
1E6
330
70
100
AcDbEntity
  8
1 v1_Sketch1
100
AcDbLine
 10
-2.492221798278121
 20
0.0
 30
2.615915075235227
 11
-2.492221798278121
 21
0.0
 31
2.615932884362949
  0
LINE
  5
1E7
330
70
100
AcDbEntity
  8
1 v1_Sketch1
100
AcDbLine
 10
5.007774167113414
 20
0.0
 30
4.616714381501791
 11
5.007787523024397
 21
0.0
 31
4.616732190630406
  0
LINE
  5
1E8
330
70
100
AcDbEntity
  8
1 v1_Sketch1
100
AcDbLine
 10
5.376818955742574
 20
0.0
 30
3.107844737811964
 11
5.758096404727229
 21
0.0
 31
3.616250277198316
  0
LINE
  5
1E9
330
70
100
AcDbEntity
  8
1 v1_Sketch1
100
AcDbLine
 10
8.757908062618252
 20
0.0
 30
-2.033677848959887
 11
8.157908362657751
 21
0.0
 31
-1.883677841527021
  0
LINE
  5
1EA
330
70
100
AcDbEntity
  8
1 v1_Sketch1
100
AcDbLine
 10
5.007774167115687
 20
0.0
 30
2.61576836376882
 11
5.007774167115687
 21
0.0
 31
2.615786172896543
  0
LINE
  5
1EB
330
70
100
AcDbEntity
  8
1 v1_Sketch1
100
AcDbLine
 10
-2.492221798278121
 20
0.0
 30
2.615915075235227
 11
-2.492221798278121
 21
0.0
 31
2.615932884362949
  0
LINE
  5
1EC
330
70
100
AcDbEntity
  8
1 v1_Sketch1
100
AcDbLine
 10
-2.492221798278121
 20
0.0
 30
2.615932884362949
 11
-2.492208442367809
 21
0.0
 31
2.615915075235227
  0
LINE
  5
1ED
330
70
100
AcDbEntity
  8
1 v1_Sketch1
100
AcDbLine
 10
-6.242091138653092
 20
0.0
 30
1.966314295376863
 11
-5.642164918720267
 21
0.0
 31
2.116296150861652
  0
LINE
  5
1EE
330
70
100
AcDbEntity
  8
1 v1_Sketch1
100
AcDbLine
 10
5.376939897496324
 20
0.0
 30
-2.875719453466001
 11
5.758217346480794
 21
0.0
 31
-3.384124992852085
  0
ARC
  5
1EF
330
70
100
AcDbEntity
  8
1 v1_Sketch1
100
AcDbCircle
 10
-8.157908356797893
 20
-2.083677845452897
 30
0.0
 40
0.2000000039258758
210
0.0
220
1.0
230
0.0
100
AcDbArc
 50
0.0000004455590621
 51
90.00000167872574
  0
LINE
  5
1F0
330
70
100
AcDbEntity
  8
1 v1_Sketch1
100
AcDbLine
 10
8.557907798466079
 20
0.0
 30
-1.38367724786462
 11
8.557907883604407
 21
0.0
 31
0.6163221360440519
  0
LINE
  5
1F1
330
70
100
AcDbEntity
  8
1 v1_Sketch1
100
AcDbLine
 10
5.37689971219984
 20
0.0
 30
0.1246558112617384
 11
5.609558031861602
 21
0.0
 31
0.4451718724038552
  0
LINE
  5
1F2
330
70
100
AcDbEntity
  8
1 v1_Sketch1
100
AcDbLine
 10
5.007774167115687
 20
0.0
 30
2.61576836376882
 11
5.007774167115687
 21
0.0
 31
2.615786172896543
  0
ARC
  5
1F3
330
70
100
AcDbEntity
  8
1 v1_Sketch1
100
AcDbCircle
 10
1.971360680223272
 20
-1.271273728961646
 30
0.0
 40
0.1000000000000027
210
0.0
220
1.0
230
0.0
100
AcDbArc
 50
144.0246038578354
 51
249.3744518948159
  0
LINE
  5
1F4
330
70
100
AcDbEntity
  8
1 v1_Sketch1
100
AcDbLine
 10
8.757908810168498
 20
0.0
 30
-1.383677256378502
 11
8.557907798466079
 21
0.0
 31
-1.38367724786462
  0
LINE
  5
1F5
330
70
100
AcDbEntity
  8
1 v1_Sketch1
100
AcDbLine
 10
-2.861245887149076
 20
0.0
 30
3.1079994659261
 11
-3.09389910693577
 21
0.0
 31
2.78747751583173
  0
LINE
  5
1F6
330
70
100
AcDbEntity
  8
1 v1_Sketch1
100
AcDbLine
 10
-2.861245887149076
 20
0.0
 30
3.1079994659261
 11
-3.09389910693577
 21
0.0
 31
2.78747751583173
  0
LINE
  5
1F7
330
70
100
AcDbEntity
  8
1 v1_Sketch1
100
AcDbLine
 10
-2.492221798278121
 20
0.0
 30
2.615915075235227
 11
-2.492221798278121
 21
0.0
 31
2.615932884362949
  0
ARC
  5
1F8
330
70
100
AcDbEntity
  8
1 v1_Sketch1
100
AcDbCircle
 10
-4.487024917079949
 20
2.728588576558676
 30
0.0
 40
0.0999999999999988
210
0.0
220
1.0
230
0.0
100
AcDbArc
 50
290.6261370542812
 51
35.97429781627101
  0
LINE
  5
1F9
330
70
100
AcDbEntity
  8
1 v1_Sketch1
100
AcDbLine
 10
-2.492221798278121
 20
0.0
 30
2.615932884362949
 11
-2.492208442367809
 21
0.0
 31
2.615915075235227
  0
LINE
  5
1FA
330
70
100
AcDbEntity
  8
1 v1_Sketch1
100
AcDbLine
 10
5.376899585006551
 20
0.0
 30
0.1246559431510468
 11
5.609555766746133
 21
0.0
 31
0.4451690494569763
  0
LINE
  5
1FB
330
70
100
AcDbEntity
  8
1 v1_Sketch1
100
AcDbLine
 10
5.007774167115687
 20
0.0
 30
2.61576836376882
 11
5.007774167115687
 21
0.0
 31
2.615786172896543
  0
LINE
  5
1FC
330
70
100
AcDbEntity
  8
1 v1_Sketch1
100
AcDbLine
 10
5.376818955740446
 20
0.0
 30
4.124655816586653
 11
5.609475137480369
 21
0.0
 31
4.445168922893017
  0
ARC
  5
1FD
330
70
100
AcDbEntity
  8
1 v1_Sketch1
100
AcDbCircle
 10
-4.557559270591031
 20
-1.084231509667145
 30
0.0
 40
0.3000000000000043
210
0.0
220
1.0
230
0.0
100
AcDbArc
 50
270.0000000000007
 51
290.6261370542835
  0
ARC
  5
1FE
330
70
100
AcDbEntity
  8
1 v1_Sketch1
100
AcDbCircle
 10
-4.557559270591031
 20
-1.084231509667145
 30
0.0
 40
0.3000000000000043
210
0.0
220
1.0
230
0.0
100
AcDbArc
 50
270.0000000000007
 51
290.6261370542835
  0
LINE
  5
1FF
330
70
100
AcDbEntity
  8
1 v1_Sketch1
100
AcDbLine
 10
5.007854796381934
 20
0.0
 30
-1.384231509667146
 11
5.007854796381934
 21
0.0
 31
-1.384213700539423
  0
LINE
  5
200
330
70
100
AcDbEntity
  8
1 v1_Sketch1
100
AcDbLine
 10
5.007854796381931
 20
0.0
 30
0.6167340047482642
 11
5.007854796381931
 21
0.0
 31
0.6167145080641232
  0
LINE
  5
201
330
70
100
AcDbEntity
  8
1 v1_Sketch1
100
AcDbLine
 10
5.007774167113414
 20
0.0
 30
4.616714381501791
 11
5.007787523024394
 21
0.0
 31
4.616732190630408
  0
ARC
  5
202
330
70
100
AcDbEntity
  8
1 v1_Sketch1
100
AcDbCircle
 10
-5.528496459551522
 20
5.728996906853314
 30
0.0
 40
0.0999999999999949
210
0.0
220
1.0
230
0.0
100
AcDbArc
 50
144.0257021837293
 51
249.3738629457201
  0
LINE
  5
203
330
70
100
AcDbEntity
  8
1 v1_Sketch1
100
AcDbLine
 10
5.007747209515775
 20
0.0
 30
5.616176694063463
 11
5.007747209515775
 21
0.0
 31
5.61619450319117
  0
LINE
  5
204
330
70
100
AcDbEntity
  8
1 v1_Sketch1
100
AcDbLine
 10
5.007854796381931
 20
0.0
 30
0.6167323171943631
 11
5.007854796381931
 21
0.0
 31
0.6167145080641232
  0
LINE
  5
205
330
70
100
AcDbEntity
  8
1 v1_Sketch1
100
AcDbLine
 10
5.007774167115687
 20
0.0
 30
2.615786172896543
 11
5.007787523025999
 21
0.0
 31
2.61576836376882
  0
ARC
  5
206
330
70
100
AcDbEntity
  8
1 v1_Sketch1
100
AcDbCircle
 10
-5.458096404727225
 20
2.915768363768824
 30
0.0
 40
0.3000000000000038
210
0.0
220
1.0
230
0.0
100
AcDbArc
 50
249.3744518948155
 51
269.9999999999986
  0
LINE
  5
207
330
70
100
AcDbEntity
  8
1 v1_Sketch1
100
AcDbLine
 10
5.007854796381934
 20
0.0
 30
-1.384213700539423
 11
5.007868152292246
 21
0.0
 31
-1.384231509667146
  0
LINE
  5
208
330
70
100
AcDbEntity
  8
1 v1_Sketch1
100
AcDbLine
 10
5.007774167115684
 20
0.0
 30
4.616732190630406
 11
5.007774167115684
 21
0.0
 31
4.61671438150009
  0
LINE
  5
209
330
70
100
AcDbEntity
  8
1 v1_Sketch1
100
AcDbLine
 10
5.007895108869391
 20
0.0
 30
-2.383660888550637
 11
5.007908464779735
 21
0.0
 31
-2.38364307942287
  0
LINE
  5
20A
330
70
100
AcDbEntity
  8
1 v1_Sketch1
100
AcDbLine
 10
5.007774167115684
 20
0.0
 30
4.616732190630406
 11
5.007774167115684
 21
0.0
 31
4.61671438150009
  0
LINE
  5
20B
330
70
100
AcDbEntity
  8
1 v1_Sketch1
100
AcDbLine
 10
5.376818955740446
 20
0.0
 30
4.124655816586653
 11
5.609475137480369
 21
0.0
 31
4.445168922893017
  0
LINE
  5
20C
330
70
100
AcDbEntity
  8
1 v1_Sketch1
100
AcDbLine
 10
5.007774167115687
 20
0.0
 30
2.61576836376882
 11
5.007774167115687
 21
0.0
 31
2.615786172896543
  0
LINE
  5
20D
330
70
100
AcDbEntity
  8
1 v1_Sketch1
100
AcDbLine
 10
5.376771298387213
 20
0.0
 30
6.108261084753695
 11
5.609424518173431
 21
0.0
 31
5.787739134659959
  0
ARC
  5
20E
330
70
100
AcDbEntity
  8
1 v1_Sketch1
100
AcDbCircle
 10
-5.458096404727225
 20
2.915768363768824
 30
0.0
 40
0.3000000000000038
210
0.0
220
1.0
230
0.0
100
AcDbArc
 50
249.3744518948155
 51
269.9999999999986
  0
LINE
  5
20F
330
70
100
AcDbEntity
  8
1 v1_Sketch1
100
AcDbLine
 10
5.376818955742574
 20
0.0
 30
3.107844737811964
 11
5.609475137482018
 21
0.0
 31
2.787331631506061
  0
LINE
  5
210
330
70
100
AcDbEntity
  8
1 v1_Sketch1
100
AcDbLine
 10
5.007854796381934
 20
0.0
 30
-1.384213700539423
 11
5.007868152292246
 21
0.0
 31
-1.384231509667146
  0
LINE
  5
211
330
70
100
AcDbEntity
  8
1 v1_Sketch1
100
AcDbLine
 10
5.007854796381934
 20
0.0
 30
-1.384231509667146
 11
5.007854796381934
 21
0.0
 31
-1.384213700539423
  0
LINE
  5
212
330
70
100
AcDbEntity
  8
1 v1_Sketch1
100
AcDbLine
 10
5.007854796381931
 20
0.0
 30
0.6167323171943649
 11
5.007854796381931
 21
0.0
 31
0.6167145080641232
  0
LINE
  5
213
330
70
100
AcDbEntity
  8
1 v1_Sketch1
100
AcDbLine
 10
5.007774167115687
 20
0.0
 30
2.61576836376882
 11
5.007774167115687
 21
0.0
 31
2.615786172896543
  0
LINE
  5
214
330
70
100
AcDbEntity
  8
1 v1_Sketch1
100
AcDbLine
 10
5.007855352448409
 20
0.0
 30
0.6167140910434723
 11
5.00787028670885
 21
0.0
 31
0.6167340047877188
  0
ARC
  5
215
330
70
100
AcDbEntity
  8
1 v1_Sketch1
100
AcDbCircle
 10
1.971447760465393
 20
2.728734563834033
 30
0.0
 40
0.1000000000000027
210
0.0
220
1.0
230
0.0
100
AcDbArc
 50
144.0246038578354
 51
249.374451894816
  0
LINE
  5
216
330
70
100
AcDbEntity
  8
1 v1_Sketch1
100
AcDbLine
 10
5.007854796381934
 20
0.0
 30
-1.384231509667146
 11
5.007854796381934
 21
0.0
 31
-1.384213700539423
  0
LINE
  5
217
330
70
100
AcDbEntity
  8
1 v1_Sketch1
100
AcDbLine
 10
5.007854796381934
 20
0.0
 30
-1.384231509667146
 11
5.007854796381934
 21
0.0
 31
-1.384213700539423
  0
ARC
  5
218
330
70
100
AcDbEntity
  8
1 v1_Sketch1
100
AcDbCircle
 10
-5.528548204926785
 20
4.503912702031469
 30
0.0
 40
0.1000000000000002
210
0.0
220
1.0
230
0.0
100
AcDbArc
 50
110.6255481051974
 51
215.9753961421786
  0
LINE
  5
219
330
70
100
AcDbEntity
  8
1 v1_Sketch1
100
AcDbLine
 10
5.376899585008821
 20
0.0
 30
-0.8921551356240025
 11
5.758177033993476
 21
0.0
 31
-0.3837495962376502
  0
ARC
  5
21A
330
70
100
AcDbEntity
  8
1 v1_Sketch1
100
AcDbCircle
 10
-5.458096404725544
 20
4.316732190630292
 30
0.0
 40
0.3000000000000043
210
0.0
220
1.0
230
0.0
100
AcDbArc
 50
90.00000000001426
 51
110.6255481051994
  0
ARC
  5
21B
330
70
100
AcDbEntity
  8
1 v1_Sketch1
100
AcDbCircle
 10
-5.458177033991312
 20
0.3167323171942487
 30
0.0
 40
0.3000000000000043
210
0.0
220
1.0
230
0.0
100
AcDbArc
 50
90.00000000001357
 51
110.6255481051988
  0
LINE
  5
21C
330
70
100
AcDbEntity
  8
1 v1_Sketch1
100
AcDbLine
 10
5.007774167115687
 20
0.0
 30
2.615786172896543
 11
5.007787523025999
 21
0.0
 31
2.61576836376882
  0
ARC
  5
21D
330
70
100
AcDbEntity
  8
1 v1_Sketch1
100
AcDbCircle
 10
-5.458177033993472
 20
-1.084231509667142
 30
0.0
 40
0.3000000000000038
210
0.0
220
1.0
230
0.0
100
AcDbArc
 50
249.3744518948155
 51
269.9999999999986
  0
ARC
  5
21E
330
70
100
AcDbEntity
  8
1 v1_Sketch1
100
AcDbCircle
 10
-5.458217346480967
 20
-2.683643079422869
 30
0.0
 40
0.300000000000006
210
0.0
220
1.0
230
0.0
100
AcDbArc
 50
89.99999999999934
 51
110.6255481051829
  0
ARC
  5
21F
330
70
100
AcDbEntity
  8
1 v1_Sketch1
100
AcDbCircle
 10
1.971447760465396
 20
2.728734563834031
 30
0.0
 40
0.1000000000000058
210
0.0
220
1.0
230
0.0
100
AcDbArc
 50
144.0246038578329
 51
249.374451894816
  0
LINE
  5
220
330
70
100
AcDbEntity
  8
1 v1_Sketch1
100
AcDbLine
 10
5.007854796381934
 20
0.0
 30
-1.384231509667146
 11
5.007854796381934
 21
0.0
 31
-1.384213700539423
  0
ARC
  5
221
330
70
100
AcDbEntity
  8
1 v1_Sketch1
100
AcDbCircle
 10
-5.458177033991308
 20
0.3167323171942504
 30
0.0
 40
0.3000000000000043
210
0.0
220
1.0
230
0.0
100
AcDbArc
 50
90.00000000001426
 51
110.6255481051995
  0
LINE
  5
222
330
70
100
AcDbEntity
  8
1 v1_Sketch1
100
AcDbLine
 10
5.007854796381931
 20
0.0
 30
0.6167323171943631
 11
5.007854796381931
 21
0.0
 31
0.6167145080641232
  0
LINE
  5
223
330
70
100
AcDbEntity
  8
1 v1_Sketch1
100
AcDbLine
 10
5.007774167115687
 20
0.0
 30
2.61576836376882
 11
5.007774167115687
 21
0.0
 31
2.615786172896543
  0
LINE
  5
224
330
70
100
AcDbEntity
  8
1 v1_Sketch1
100
AcDbLine
 10
5.376899585006551
 20
0.0
 30
0.1246559431510485
 11
5.758177033993273
 21
0.0
 31
-0.3837495962378012
  0
LINE
  5
225
330
70
100
AcDbEntity
  8
1 v1_Sketch1
100
AcDbLine
 10
5.007854796379348
 20
0.0
 30
0.6167145080660595
 11
5.007868152290097
 21
0.0
 31
0.6167323171943631
  0
ARC
  5
226
330
70
100
AcDbEntity
  8
1 v1_Sketch1
100
AcDbCircle
 10
-5.528548204928416
 20
2.728587852367626
 30
0.0
 40
0.1000000000000027
210
0.0
220
1.0
230
0.0
100
AcDbArc
 50
144.0246038578354
 51
249.3744518948162
  0
LINE
  5
227
330
70
100
AcDbEntity
  8
1 v1_Sketch1
100
AcDbLine
 10
5.007774167113414
 20
0.0
 30
4.616714381501791
 11
5.007787523024397
 21
0.0
 31
4.616732190630406
  0
LINE
  5
228
330
70
100
AcDbEntity
  8
1 v1_Sketch1
100
AcDbLine
 10
5.376899585008821
 20
0.0
 30
-0.8921551356240025
 11
5.758177033993476
 21
0.0
 31
-0.3837495962376502
  0
LINE
  5
229
330
70
100
AcDbEntity
  8
1 v1_Sketch1
100
AcDbLine
 10
5.007747209515775
 20
0.0
 30
5.616176694063463
 11
5.007747209515775
 21
0.0
 31
5.61619450319117
  0
LINE
  5
22A
330
70
100
AcDbEntity
  8
1 v1_Sketch1
100
AcDbLine
 10
5.007774167115684
 20
0.0
 30
4.616732190630406
 11
5.007774167115684
 21
0.0
 31
4.61671438150009
  0
ARC
  5
22B
330
70
100
AcDbEntity
  8
1 v1_Sketch1
100
AcDbCircle
 10
-4.557562810213614
 20
0.3167328578551354
 30
0.0
 40
0.3000000000000056
210
0.0
220
1.0
230
0.0
100
AcDbArc
 50
69.37381736640904
 51
89.99985406784615
  0
ARC
  5
22C
330
70
100
AcDbEntity
  8
1 v1_Sketch1
100
AcDbCircle
 10
-5.458096404725544
 20
4.316732190630292
 30
0.0
 40
0.3000000000000043
210
0.0
220
1.0
230
0.0
100
AcDbArc
 50
90.00000000001426
 51
110.6255481051994
  0
LINE
  5
22D
330
70
100
AcDbEntity
  8
1 v1_Sketch1
100
AcDbLine
 10
5.007854796381934
 20
0.0
 30
-1.384231509667146
 11
5.007854796381934
 21
0.0
 31
-1.384213700539423
  0
ARC
  5
22E
330
70
100
AcDbEntity
  8
1 v1_Sketch1
100
AcDbCircle
 10
-5.528548204928416
 20
2.728587852367626
 30
0.0
 40
0.1000000000000027
210
0.0
220
1.0
230
0.0
100
AcDbArc
 50
144.0246038578354
 51
249.3744518948162
  0
LINE
  5
22F
330
70
100
AcDbEntity
  8
1 v1_Sketch1
100
AcDbLine
 10
5.007854796381934
 20
0.0
 30
-1.384213700539423
 11
5.007868152292246
 21
0.0
 31
-1.384231509667146
  0
ARC
  5
230
330
70
100
AcDbEntity
  8
1 v1_Sketch1
100
AcDbCircle
 10
-5.458177033993472
 20
-1.084231509667142
 30
0.0
 40
0.3000000000000038
210
0.0
220
1.0
230
0.0
100
AcDbArc
 50
249.3744518948155
 51
269.9999999999986
  0
LINE
  5
231
330
70
100
AcDbEntity
  8
1 v1_Sketch1
100
AcDbLine
 10
5.00777416711341
 20
0.0
 30
4.616714381501793
 11
5.00778752302439
 21
0.0
 31
4.616732190630406
  0
LINE
  5
232
330
70
100
AcDbEntity
  8
1 v1_Sketch1
100
AcDbLine
 10
5.376899585006551
 20
0.0
 30
0.1246559431510468
 11
5.758177033993277
 21
0.0
 31
-0.3837495962377995
  0
LINE
  5
233
330
70
100
AcDbEntity
  8
1 v1_Sketch1
100
AcDbLine
 10
5.376899585006551
 20
0.0
 30
0.1246559431510468
 11
5.758177033993277
 21
0.0
 31
-0.3837495962377995
  0
LINE
  5
234
330
70
100
AcDbEntity
  8
1 v1_Sketch1
100
AcDbLine
 10
5.007854796379348
 20
0.0
 30
0.6167145080660595
 11
5.007868152290097
 21
0.0
 31
0.6167323171943631
  0
LINE
  5
235
330
70
100
AcDbEntity
  8
1 v1_Sketch1
100
AcDbLine
 10
5.007854796379348
 20
0.0
 30
0.6167145080660595
 11
5.007868152290097
 21
0.0
 31
0.6167323171943649
  0
ARC
  5
236
330
70
100
AcDbEntity
  8
1 v1_Sketch1
100
AcDbCircle
 10
-5.458177033991312
 20
0.3167323171942487
 30
0.0
 40
0.3000000000000043
210
0.0
220
1.0
230
0.0
100
AcDbArc
 50
90.00000000001357
 51
110.6255481051988
  0
ARC
  5
237
330
70
100
AcDbEntity
  8
1 v1_Sketch1
100
AcDbCircle
 10
-5.458096404725544
 20
4.316732190630292
 30
0.0
 40
0.3000000000000043
210
0.0
220
1.0
230
0.0
100
AcDbArc
 50
90.00000000001426
 51
110.6255481051994
  0
LINE
  5
238
330
70
100
AcDbEntity
  8
1 v1_Sketch1
100
AcDbLine
 10
5.37689971219984
 20
0.0
 30
0.1246558112617384
 11
5.758177045233146
 21
0.0
 31
-0.3837495878084853
  0
LINE
  5
239
330
70
100
AcDbEntity
  8
1 v1_Sketch1
100
AcDbLine
 10
5.007774167115684
 20
0.0
 30
4.616732190630408
 11
5.007774167115684
 21
0.0
 31
4.61671438150009
  0
LINE
  5
23A
330
70
100
AcDbEntity
  8
1 v1_Sketch1
100
AcDbLine
 10
5.007854796381934
 20
0.0
 30
-1.384213700539423
 11
5.007868152292246
 21
0.0
 31
-1.384231509667146
  0
ARC
  5
23B
330
70
100
AcDbEntity
  8
1 v1_Sketch1
100
AcDbCircle
 10
1.971447760465393
 20
2.728734563834033
 30
0.0
 40
0.1000000000000027
210
0.0
220
1.0
230
0.0
100
AcDbArc
 50
144.0246038578354
 51
249.374451894816
  0
ARC
  5
23C
330
70
100
AcDbEntity
  8
1 v1_Sketch1
100
AcDbCircle
 10
-5.458096404727225
 20
2.915768363768824
 30
0.0
 40
0.3000000000000038
210
0.0
220
1.0
230
0.0
100
AcDbArc
 50
249.3744518948155
 51
269.9999999999986
  0
ARC
  5
23D
330
70
100
AcDbEntity
  8
1 v1_Sketch1
100
AcDbCircle
 10
-5.458179291402029
 20
0.3167351517222352
 30
0.0
 40
0.3000000000000057
210
0.0
220
1.0
230
0.0
100
AcDbArc
 50
89.99985406784547
 51
110.625551978599
  0
ARC
  5
23E
330
70
100
AcDbEntity
  8
1 v1_Sketch1
100
AcDbCircle
 10
-4.557559270588743
 20
0.3167323171944689
 30
0.0
 40
0.3000000000000061
210
0.0
220
1.0
230
0.0
100
AcDbArc
 50
69.37386294573112
 51
90.00000000001305
  0
ARC
  5
23F
330
70
100
AcDbEntity
  8
1 v1_Sketch1
100
AcDbCircle
 10
-5.528628834194659
 20
-1.271412021068342
 30
0.0
 40
0.1000000000000058
210
0.0
220
1.0
230
0.0
100
AcDbArc
 50
144.0246038578329
 51
249.3744518948163
  0
ARC
  5
240
330
70
100
AcDbEntity
  8
1 v1_Sketch1
100
AcDbCircle
 10
-5.458177033993472
 20
-1.084231509667142
 30
0.0
 40
0.3000000000000038
210
0.0
220
1.0
230
0.0
100
AcDbArc
 50
249.3744518948155
 51
269.9999999999986
  0
ARC
  5
241
330
70
100
AcDbEntity
  8
1 v1_Sketch1
100
AcDbCircle
 10
-4.487105546346196
 20
-1.27141129687729
 30
0.0
 40
0.0999999999999988
210
0.0
220
1.0
230
0.0
100
AcDbArc
 50
290.6261370542812
 51
35.97429781627091
  0
ARC
  5
242
330
70
100
AcDbEntity
  8
1 v1_Sketch1
100
AcDbCircle
 10
-5.528628834192549
 20
0.5039128285954293
 30
0.0
 40
0.1000000000000009
210
0.0
220
1.0
230
0.0
100
AcDbArc
 50
110.6255481051984
 51
215.9753961421788
  0
LINE
  5
243
330
70
100
AcDbEntity
  8
1 v1_Sketch1
100
AcDbLine
 10
-2.123227877746282
 20
0.0
 30
6.107738676456123
 11
-1.890574657960057
 21
0.0
 31
5.787216726362388
  0
LINE
  5
244
330
70
100
AcDbEntity
  8
1 v1_Sketch1
100
AcDbLine
 10
-2.123177009651234
 20
0.0
 30
3.107991449278371
 11
-1.890520827911791
 21
0.0
 31
2.787478342972468
  0
LINE
  5
245
330
70
100
AcDbEntity
  8
1 v1_Sketch1
100
AcDbLine
 10
-2.123046388686377
 20
0.0
 30
-2.875719453465973
 11
-1.89039020694698
 21
0.0
 31
-2.555206347160122
  0
ARC
  5
246
330
70
100
AcDbEntity
  8
1 v1_Sketch1
100
AcDbCircle
 10
2.041899560666584
 20
2.915915075235231
 30
0.0
 40
0.3000000000000043
210
0.0
220
1.0
230
0.0
100
AcDbArc
 50
249.3744518948162
 51
269.9999999999986
  0
ARC
  5
247
330
70
100
AcDbEntity
  8
1 v1_Sketch1
100
AcDbCircle
 10
-5.458042735306687
 20
5.916176694063458
 30
0.0
 40
0.3000000000000016
210
0.0
220
1.0
230
0.0
100
AcDbArc
 50
249.373862945717
 51
269.9999999999993
  0
ARC
  5
248
330
70
100
AcDbEntity
  8
1 v1_Sketch1
100
AcDbCircle
 10
-4.487105546346196
 20
-1.27141129687729
 30
0.0
 40
0.0999999999999988
210
0.0
220
1.0
230
0.0
100
AcDbArc
 50
290.6261370542812
 51
35.97429781627091
  0
ARC
  5
249
330
70
100
AcDbEntity
  8
1 v1_Sketch1
100
AcDbCircle
 10
-4.557559270588743
 20
0.3167323171944689
 30
0.0
 40
0.3000000000000069
210
0.0
220
1.0
230
0.0
100
AcDbArc
 50
69.37386294573117
 51
90.0000000000122
  0
ARC
  5
24A
330
70
100
AcDbEntity
  8
1 v1_Sketch1
100
AcDbCircle
 10
-5.528628834192549
 20
0.5039128285954293
 30
0.0
 40
0.1000000000000009
210
0.0
220
1.0
230
0.0
100
AcDbArc
 50
110.6255481051984
 51
215.9753961421788
  0
ARC
  5
24B
330
70
100
AcDbEntity
  8
1 v1_Sketch1
100
AcDbCircle
 10
-4.487105546346196
 20
-1.27141129687729
 30
0.0
 40
0.0999999999999988
210
0.0
220
1.0
230
0.0
100
AcDbArc
 50
290.6261370542812
 51
35.97429781627091
  0
ARC
  5
24C
330
70
100
AcDbEntity
  8
1 v1_Sketch1
100
AcDbCircle
 10
-4.487105546343958
 20
0.5039121044046331
 30
0.0
 40
0.1000000000000011
210
0.0
220
1.0
230
0.0
100
AcDbArc
 50
324.0257021837452
 51
69.37386294573189
  0
ARC
  5
24D
330
70
100
AcDbEntity
  8
1 v1_Sketch1
100
AcDbCircle
 10
-4.557559270591031
 20
-1.084231509667145
 30
0.0
 40
0.3000000000000043
210
0.0
220
1.0
230
0.0
100
AcDbArc
 50
270.0000000000007
 51
290.6261370542835
  0
ARC
  5
24E
330
70
100
AcDbEntity
  8
1 v1_Sketch1
100
AcDbCircle
 10
-4.5574786413231
 20
4.316732190630512
 30
0.0
 40
0.3000000000000061
210
0.0
220
1.0
230
0.0
100
AcDbArc
 50
69.37386294573112
 51
90.0000000000122
  0
ARC
  5
24F
330
70
100
AcDbEntity
  8
1 v1_Sketch1
100
AcDbCircle
 10
-5.458177033993475
 20
-1.084231509667142
 30
0.0
 40
0.300000000000003
210
0.0
220
1.0
230
0.0
100
AcDbArc
 50
249.3744518948169
 51
269.9999999999986
  0
ARC
  5
250
330
70
100
AcDbEntity
  8
1 v1_Sketch1
100
AcDbCircle
 10
-4.557559270591031
 20
-1.084231509667145
 30
0.0
 40
0.3000000000000043
210
0.0
220
1.0
230
0.0
100
AcDbArc
 50
270.0000000000007
 51
290.6261370542835
  0
ARC
  5
251
330
70
100
AcDbEntity
  8
1 v1_Sketch1
100
AcDbCircle
 10
1.971447760467045
 20
4.504059413497984
 30
0.0
 40
0.1000000000000005
210
0.0
220
1.0
230
0.0
100
AcDbArc
 50
110.6255481051919
 51
215.9753961421711
  0
LINE
  5
252
330
70
100
AcDbEntity
  8
1 v1_Sketch1
100
AcDbLine
 10
5.376818955742574
 20
0.0
 30
3.107844737811964
 11
5.609475137482018
 21
0.0
 31
2.787331631506061
  0
ARC
  5
253
330
70
100
AcDbEntity
  8
1 v1_Sketch1
100
AcDbCircle
 10
-5.528628834194662
 20
-1.27141202106834
 30
0.0
 40
0.1000000000000027
210
0.0
220
1.0
230
0.0
100
AcDbArc
 50
144.0246038578354
 51
249.3744518948161
  0
ARC
  5
254
330
70
100
AcDbEntity
  8
1 v1_Sketch1
100
AcDbCircle
 10
-5.528628834194662
 20
-1.27141202106834
 30
0.0
 40
0.1000000000000027
210
0.0
220
1.0
230
0.0
100
AcDbArc
 50
144.0246038578354
 51
249.3744518948161
  0
ARC
  5
255
330
70
100
AcDbEntity
  8
1 v1_Sketch1
100
AcDbCircle
 10
1.971502716581971
 20
5.728474498555741
 30
0.0
 40
0.1000000000000002
210
0.0
220
1.0
230
0.0
100
AcDbArc
 50
144.0257021837303
 51
249.3738629457223
  0
ARC
  5
256
330
70
100
AcDbEntity
  8
1 v1_Sketch1
100
AcDbCircle
 10
-4.487024917078315
 20
4.503911977840674
 30
0.0
 40
0.1000000000000003
210
0.0
220
1.0
230
0.0
100
AcDbArc
 50
324.0257021837424
 51
69.37386294573174
  0
ARC
  5
257
330
70
100
AcDbEntity
  8
1 v1_Sketch1
100
AcDbCircle
 10
2.041899560666584
 20
2.915915075235231
 30
0.0
 40
0.3000000000000038
210
0.0
220
1.0
230
0.0
100
AcDbArc
 50
249.3744518948155
 51
269.9999999999986
  0
ARC
  5
258
330
70
100
AcDbEntity
  8
1 v1_Sketch1
100
AcDbCircle
 10
-5.528548204926785
 20
4.50391270203147
 30
0.0
 40
0.1000000000000002
210
0.0
220
1.0
230
0.0
100
AcDbArc
 50
110.6255481051974
 51
215.9753961421786
  0
ARC
  5
259
330
70
100
AcDbEntity
  8
1 v1_Sketch1
100
AcDbCircle
 10
-5.528548204926785
 20
4.50391270203147
 30
0.0
 40
0.0999999999999986
210
0.0
220
1.0
230
0.0
100
AcDbArc
 50
110.6255481051978
 51
215.9753961421788
  0
ARC
  5
25A
330
70
100
AcDbEntity
  8
1 v1_Sketch1
100
AcDbCircle
 10
-5.528548204926785
 20
4.50391270203147
 30
0.0
 40
0.0999999999999986
210
0.0
220
1.0
230
0.0
100
AcDbArc
 50
110.6255481051978
 51
215.9753961421788
  0
ARC
  5
25B
330
70
100
AcDbEntity
  8
1 v1_Sketch1
100
AcDbCircle
 10
-5.528631104257343
 20
0.5039156583606213
 30
0.0
 40
0.1000000000000019
210
0.0
220
1.0
230
0.0
100
AcDbArc
 50
110.6255519785971
 51
215.975400969504
  0
LINE
  5
25C
330
70
100
AcDbEntity
  8
1 v1_Sketch1
100
AcDbLine
 10
5.007774167115687
 20
0.0
 30
2.61576836376882
 11
5.007774167115687
 21
0.0
 31
2.615786172896543
  0
ARC
  5
25D
330
70
100
AcDbEntity
  8
1 v1_Sketch1
100
AcDbCircle
 10
-5.528628834194662
 20
-1.27141202106834
 30
0.0
 40
0.1000000000000027
210
0.0
220
1.0
230
0.0
100
AcDbArc
 50
144.0246038578354
 51
249.3744518948161
  0
ARC
  5
25E
330
70
100
AcDbEntity
  8
1 v1_Sketch1
100
AcDbCircle
 10
-5.528548204928416
 20
2.728587852367626
 30
0.0
 40
0.1000000000000027
210
0.0
220
1.0
230
0.0
100
AcDbArc
 50
144.0246038578354
 51
249.3744518948162
  0
ARC
  5
25F
330
70
100
AcDbEntity
  8
1 v1_Sketch1
100
AcDbCircle
 10
-5.528628834192552
 20
0.5039128285954293
 30
0.0
 40
0.0999999999999989
210
0.0
220
1.0
230
0.0
100
AcDbArc
 50
110.6255481051966
 51
215.9753961421799
  0
ARC
  5
260
330
70
100
AcDbEntity
  8
1 v1_Sketch1
100
AcDbCircle
 10
-4.487105546343958
 20
0.5039121044046331
 30
0.0
 40
0.1000000000000011
210
0.0
220
1.0
230
0.0
100
AcDbArc
 50
324.0257021837452
 51
69.37386294573184
  0
LINE
  5
261
330
70
100
AcDbEntity
  8
1 v1_Sketch1
100
AcDbLine
 10
5.007747209515775
 20
0.0
 30
5.61619450319117
 11
5.007747209515775
 21
0.0
 31
5.616176694063463
  0
ARC
  5
262
330
70
100
AcDbEntity
  8
1 v1_Sketch1
100
AcDbCircle
 10
-4.557559270588743
 20
0.3167323171944707
 30
0.0
 40
0.3000000000000052
210
0.0
220
1.0
230
0.0
100
AcDbArc
 50
69.37386294573106
 51
90.00000000001305
  0
ARC
  5
263
330
70
100
AcDbEntity
  8
1 v1_Sketch1
100
AcDbCircle
 10
2.041899560666584
 20
2.915915075235231
 30
0.0
 40
0.3000000000000038
210
0.0
220
1.0
230
0.0
100
AcDbArc
 50
249.3744518948155
 51
269.9999999999986
  0
ARC
  5
264
330
70
100
AcDbEntity
  8
1 v1_Sketch1
100
AcDbCircle
 10
2.041899560666584
 20
2.915915075235231
 30
0.0
 40
0.3000000000000038
210
0.0
220
1.0
230
0.0
100
AcDbArc
 50
249.3744518948155
 51
269.9999999999986
  0
ARC
  5
265
330
70
100
AcDbEntity
  8
1 v1_Sketch1
100
AcDbCircle
 10
1.971447760467045
 20
4.504059413497982
 30
0.0
 40
0.1000000000000005
210
0.0
220
1.0
230
0.0
100
AcDbArc
 50
110.6255481051919
 51
215.9753961421723
  0
LINE
  5
266
330
70
100
AcDbEntity
  8
1 v1_Sketch1
100
AcDbLine
 10
5.376899585008821
 20
0.0
 30
-0.8921551356240025
 11
5.758177033993476
 21
0.0
 31
-0.3837495962376502
  0
ENDSEC
  0
SECTION
  2
OBJECTS
  0
DICTIONARY
  5
C
330
0
100
AcDbDictionary
281
     1
  3
ACAD_COLOR
350
63
  3
ACAD_DETAILVIEWSTYLE
350
6A
  3
ACAD_GROUP
350
D
  3
ACAD_LAYOUT
350
62
  3
ACAD_MATERIAL
350
10
  3
ACAD_MLEADERSTYLE
350
66
  3
ACAD_MLINESTYLE
350
5F
  3
ACAD_PLOTSETTINGS
350
61
  3
ACAD_PLOTSTYLENAME
350
E
  3
ACAD_SCALELIST
350
42
  3
ACAD_SECTIONVIEWSTYLE
350
68
  3
ACAD_TABLESTYLE
350
64
  3
ACAD_VISUALSTYLE
350
29
  3
ACDB_RECOMPOSE_DATA
350
26F
  3
AcDbVariableDictionary
350
267
  0
DICTIONARY
  5
63
102
{ACAD_REACTORS
330
C
102
}
330
C
100
AcDbDictionary
281
     1
  0
DICTIONARY
  5
6A
102
{ACAD_REACTORS
330
C
102
}
330
C
100
AcDbDictionary
281
     1
  3
Imperial24
350
6B
  0
DICTIONARY
  5
D
102
{ACAD_REACTORS
330
C
102
}
330
C
100
AcDbDictionary
281
     1
  0
DICTIONARY
  5
62
102
{ACAD_REACTORS
330
C
102
}
330
C
100
AcDbDictionary
281
     1
  3
Layout1
350
6F
  3
Layout2
350
77
  3
Model
350
73
  0
DICTIONARY
  5
10
102
{ACAD_REACTORS
330
C
102
}
330
C
100
AcDbDictionary
281
     1
  3
ByBlock
350
19
  3
ByLayer
350
11
  3
Global
350
21
  0
DICTIONARY
  5
66
102
{ACAD_REACTORS
330
C
102
}
330
C
100
AcDbDictionary
281
     1
  3
Standard
350
67
  0
DICTIONARY
  5
5F
102
{ACAD_REACTORS
330
C
102
}
330
C
100
AcDbDictionary
281
     1
  3
Standard
350
60
  0
DICTIONARY
  5
61
102
{ACAD_REACTORS
330
C
102
}
330
C
100
AcDbDictionary
281
     1
  0
ACDBDICTIONARYWDFLT
  5
E
102
{ACAD_REACTORS
330
C
102
}
330
C
100
AcDbDictionary
281
     1
  3
Normal
350
F
100
AcDbDictionaryWithDefault
340
F
  0
DICTIONARY
  5
42
102
{ACAD_REACTORS
330
C
102
}
330
C
100
AcDbDictionary
281
     1
  3
A0
350
43
  3
A1
350
44
  3
A2
350
45
  3
A3
350
46
  3
A4
350
47
  3
A5
350
48
  3
A6
350
49
  3
A7
350
4A
  3
A8
350
4B
  3
A9
350
4C
  3
B0
350
4D
  3
B1
350
4E
  3
B2
350
4F
  3
B3
350
50
  3
B4
350
51
  3
B5
350
52
  3
B6
350
53
  0
DICTIONARY
  5
68
102
{ACAD_REACTORS
330
C
102
}
330
C
100
AcDbDictionary
281
     1
  3
Imperial24
350
69
  0
DICTIONARY
  5
64
102
{ACAD_REACTORS
330
C
102
}
330
C
100
AcDbDictionary
281
     1
  3
Standard
350
65
  0
DICTIONARY
  5
29
102
{ACAD_REACTORS
330
C
102
}
330
C
100
AcDbDictionary
281
     1
  3
2dWireframe
350
2F
  3
Basic
350
2E
  3
Brighten
350
35
  3
ColorChange
350
39
  3
Conceptual
350
32
  3
Dim
350
34
  3
EdgeColorOff
350
41
  3
Facepattern
350
38
  3
Flat
350
2A
  3
FlatWithEdges
350
2B
  3
Gouraud
350
2C
  3
GouraudWithEdges
350
2D
  3
Hidden
350
31
  3
JitterOff
350
3F
  3
Linepattern
350
37
  3
OverhangOff
350
40
  3
Realistic
350
33
  3
Shaded
350
3E
  3
Shaded with edges
350
3D
  3
Shades of Gray
350
3A
  3
Sketchy
350
3B
  3
Thicken
350
36
  3
Wireframe
350
30
  3
X-Ray
350
3C
  0
XRECORD
  5
26F
102
{ACAD_REACTORS
330
C
102
}
330
C
100
AcDbXrecord
280
     1
 90
        1
330
65
  0
DICTIONARY
  5
267
102
{ACAD_REACTORS
330
C
102
}
330
C
100
AcDbDictionary
281
     1
  3
CANNOSCALE
350
26C
  3
CMLEADERSTYLE
350
269
  3
CTABLESTYLE
350
268
  3
CVIEWDETAILSTYLE
350
26A
  3
CVIEWSECTIONSTYLE
350
26B
  0
ACDBDETAILVIEWSTYLE
  5
6B
102
{ACAD_XDICTIONARY
360
272
102
}
102
{ACAD_REACTORS
330
6A
102
}
330
6A
100
AcDbModelDocViewStyle
 70
     0
  3
Imperial24
290
     0
100
AcDbDetailViewStyle
 70
     0
 71
     0
 90
        3
 71
     1
340
55
 62
   256
 40
0.24
340
0
 62
   256
 40
0.24
300

 40
0.36
280
     3
 71
     2
340
5D
 90
       25
 62
   256
 71
     3
340
55
 62
   256
 40
0.24
 90
        1
 40
0.75
 90
        1
300
%<\AcVar ViewType \f "%tc1">% %<\AcVar ViewDetailId>%\PSCALE %<\AcVar ViewScale \f "%sn">%
 71
     4
340
5D
 90
       25
 62
   256
340
5D
 90
       25
 62
   256
280
     0
  0
LAYOUT
  5
6F
102
{ACAD_REACTORS
330
62
102
}
330
62
100
AcDbPlotSettings
  1

  2

  4

  6

 40
0.0
 41
0.0
 42
0.0
 43
0.0
 44
0.0
 45
0.0
 46
0.0
 47
0.0
 48
0.0
 49
0.0
140
0.0
141
0.0
142
1.0
143
1.0
 70
   688
 72
     0
 73
     0
 74
     5
  7

 75
    16
147
1.0
 76
     0
 77
     2
 78
   300
148
0.0
149
0.0
100
AcDbLayout
  1
Layout1
 70
     1
 71
     1
 10
0.0
 20
0.0
 11
12.0
 21
9.0
 12
0.0
 22
0.0
 32
0.0
 14
0.0
 24
0.0
 34
0.0
 15
0.0
 25
0.0
 35
0.0
146
0.0
 13
0.0
 23
0.0
 33
0.0
 16
1.0
 26
0.0
 36
0.0
 17
0.0
 27
1.0
 37
0.0
 76
     0
330
6C
  0
LAYOUT
  5
77
102
{ACAD_REACTORS
330
62
102
}
330
62
100
AcDbPlotSettings
  1

  2

  4

  6

 40
0.0
 41
0.0
 42
0.0
 43
0.0
 44
0.0
 45
0.0
 46
0.0
 47
0.0
 48
0.0
 49
0.0
140
0.0
141
0.0
142
1.0
143
1.0
 70
   688
 72
     0
 73
     0
 74
     5
  7

 75
    16
147
1.0
 76
     0
 77
     2
 78
   300
148
0.0
149
0.0
100
AcDbLayout
  1
Layout2
 70
     1
 71
     2
 10
0.0
 20
0.0
 11
12.0
 21
9.0
 12
0.0
 22
0.0
 32
0.0
 14
0.0
 24
0.0
 34
0.0
 15
0.0
 25
0.0
 35
0.0
146
0.0
 13
0.0
 23
0.0
 33
0.0
 16
1.0
 26
0.0
 36
0.0
 17
0.0
 27
1.0
 37
0.0
 76
     0
330
74
  0
LAYOUT
  5
73
102
{ACAD_REACTORS
330
62
102
}
330
62
100
AcDbPlotSettings
  1

  2

  4

  6

 40
0.0
 41
0.0
 42
0.0
 43
0.0
 44
0.0
 45
0.0
 46
0.0
 47
0.0
 48
0.0
 49
0.0
140
0.0
141
0.0
142
1.0
143
1.0
 70
  1712
 72
     0
 73
     0
 74
     0
  7

 75
     0
147
1.0
 76
     0
 77
     2
 78
   300
148
0.0
149
0.0
100
AcDbLayout
  1
Model
 70
     1
 71
     0
 10
0.0
 20
0.0
 11
12.0
 21
9.0
 12
0.0
 22
0.0
 32
0.0
 14
0.0
 24
0.0
 34
0.0
 15
0.0
 25
0.0
 35
0.0
146
0.0
 13
0.0
 23
0.0
 33
0.0
 16
1.0
 26
0.0
 36
0.0
 17
0.0
 27
1.0
 37
0.0
 76
     0
330
70
  0
MATERIAL
  5
19
102
{ACAD_XDICTIONARY
360
1A
102
}
102
{ACAD_REACTORS
330
10
102
}
330
10
100
AcDbMaterial
  1
ByBlock
 72
     0
 43
0.0208333333333333
 43
0.0
 43
0.0
 43
0.0
 43
0.0
 43
0.0208333333333333
 43
0.0
 43
0.0
 43
0.0
 43
0.0
 43
1.0
 43
0.0
 43
0.0
 43
0.0
 43
0.0
 43
1.0
 77
     0
 47
0.0208333333333333
 47
0.0
 47
0.0
 47
0.0
 47
0.0
 47
0.0208333333333333
 47
0.0
 47
0.0
 47
0.0
 47
0.0
 47
1.0
 47
0.0
 47
0.0
 47
0.0
 47
0.0
 47
1.0
171
     0
 49
0.0208333333333333
 49
0.0
 49
0.0
 49
0.0
 49
0.0
 49
0.0208333333333333
 49
0.0
 49
0.0
 49
0.0
 49
0.0
 49
1.0
 49
0.0
 49
0.0
 49
0.0
 49
0.0
 49
1.0
175
     0
142
0.0208333333333333
142
0.0
142
0.0
142
0.0
142
0.0
142
0.0208333333333333
142
0.0
142
0.0
142
0.0
142
0.0
142
1.0
142
0.0
142
0.0
142
0.0
142
0.0
142
1.0
179
     0
144
0.0208333333333333
144
0.0
144
0.0
144
0.0
144
0.0
144
0.0208333333333333
144
0.0
144
0.0
144
0.0
144
0.0
144
1.0
144
0.0
144
0.0
144
0.0
144
0.0
144
1.0
147
0.0208333333333333
147
0.0
147
0.0
147
0.0
147
0.0
147
0.0208333333333333
147
0.0
147
0.0
147
0.0
147
0.0
147
1.0
147
0.0
147
0.0
147
0.0
147
0.0
147
1.0
  0
MATERIAL
  5
11
102
{ACAD_XDICTIONARY
360
12
102
}
102
{ACAD_REACTORS
330
10
102
}
330
10
100
AcDbMaterial
  1
ByLayer
 72
     0
 43
0.0208333333333333
 43
0.0
 43
0.0
 43
0.0
 43
0.0
 43
0.0208333333333333
 43
0.0
 43
0.0
 43
0.0
 43
0.0
 43
1.0
 43
0.0
 43
0.0
 43
0.0
 43
0.0
 43
1.0
 77
     0
 47
0.0208333333333333
 47
0.0
 47
0.0
 47
0.0
 47
0.0
 47
0.0208333333333333
 47
0.0
 47
0.0
 47
0.0
 47
0.0
 47
1.0
 47
0.0
 47
0.0
 47
0.0
 47
0.0
 47
1.0
171
     0
 49
0.0208333333333333
 49
0.0
 49
0.0
 49
0.0
 49
0.0
 49
0.0208333333333333
 49
0.0
 49
0.0
 49
0.0
 49
0.0
 49
1.0
 49
0.0
 49
0.0
 49
0.0
 49
0.0
 49
1.0
175
     0
142
0.0208333333333333
142
0.0
142
0.0
142
0.0
142
0.0
142
0.0208333333333333
142
0.0
142
0.0
142
0.0
142
0.0
142
1.0
142
0.0
142
0.0
142
0.0
142
0.0
142
1.0
179
     0
144
0.0208333333333333
144
0.0
144
0.0
144
0.0
144
0.0
144
0.0208333333333333
144
0.0
144
0.0
144
0.0
144
0.0
144
1.0
144
0.0
144
0.0
144
0.0
144
0.0
144
1.0
147
0.0208333333333333
147
0.0
147
0.0
147
0.0
147
0.0
147
0.0208333333333333
147
0.0
147
0.0
147
0.0
147
0.0
147
1.0
147
0.0
147
0.0
147
0.0
147
0.0
147
1.0
  0
MATERIAL
  5
21
102
{ACAD_XDICTIONARY
360
22
102
}
102
{ACAD_REACTORS
330
10
102
}
330
10
100
AcDbMaterial
  1
Global
 72
     0
 43
0.0208333333333333
 43
0.0
 43
0.0
 43
0.0
 43
0.0
 43
0.0208333333333333
 43
0.0
 43
0.0
 43
0.0
 43
0.0
 43
1.0
 43
0.0
 43
0.0
 43
0.0
 43
0.0
 43
1.0
 77
     0
 47
0.0208333333333333
 47
0.0
 47
0.0
 47
0.0
 47
0.0
 47
0.0208333333333333
 47
0.0
 47
0.0
 47
0.0
 47
0.0
 47
1.0
 47
0.0
 47
0.0
 47
0.0
 47
0.0
 47
1.0
171
     0
 49
0.0208333333333333
 49
0.0
 49
0.0
 49
0.0
 49
0.0
 49
0.0208333333333333
 49
0.0
 49
0.0
 49
0.0
 49
0.0
 49
1.0
 49
0.0
 49
0.0
 49
0.0
 49
0.0
 49
1.0
175
     0
142
0.0208333333333333
142
0.0
142
0.0
142
0.0
142
0.0
142
0.0208333333333333
142
0.0
142
0.0
142
0.0
142
0.0
142
1.0
142
0.0
142
0.0
142
0.0
142
0.0
142
1.0
179
     0
144
0.0208333333333333
144
0.0
144
0.0
144
0.0
144
0.0
144
0.0208333333333333
144
0.0
144
0.0
144
0.0
144
0.0
144
1.0
144
0.0
144
0.0
144
0.0
144
0.0
144
1.0
147
0.0208333333333333
147
0.0
147
0.0
147
0.0
147
0.0
147
0.0208333333333333
147
0.0
147
0.0
147
0.0
147
0.0
147
1.0
147
0.0
147
0.0
147
0.0
147
0.0
147
1.0
  0
MLEADERSTYLE
  5
67
102
{ACAD_REACTORS
330
66
102
}
330
66
100
AcDbMLeaderStyle
179
     2
170
     2
171
     1
172
     0
 90
        2
 40
0.0
 41
0.0
173
     1
 91
-1056964608
340
5B
 92
       -2
290
     1
 42
0.09
291
     1
 43
0.36
  3
Standard
 44
0.18
300

342
55
174
     1
178
     6
175
     1
176
     0
 93
-1056964608
 45
0.18
292
     0
297
     0
 46
0.18
 94
-1056964608
 47
1.0
 49
1.0
140
1.0
293
     1
141
0.0
294
     1
177
     0
142
1.0
295
     0
296
     0
143
0.125
271
     0
272
     9
273
     9
298
     1
  0
MLINESTYLE
  5
60
102
{ACAD_REACTORS
330
5F
102
}
330
5F
100
AcDbMlineStyle
  2
STANDARD
 70
     0
  3

 62
   256
 51
90.0
 52
90.0
 71
     2
 49
0.5
 62
   256
  6
BYLAYER
 49
-0.5
 62
   256
  6
BYLAYER
  0
ACDBPLACEHOLDER
  5
F
102
{ACAD_REACTORS
330
E
102
}
330
E
  0
SCALE
  5
43
102
{ACAD_REACTORS
330
42
102
}
330
42
100
AcDbScale
 70
     0
300
1:1
140
1.0
141
1.0
290
     1
  0
SCALE
  5
44
102
{ACAD_REACTORS
330
42
102
}
330
42
100
AcDbScale
 70
     0
300
1/128" = 1'-0"
140
0.0078125
141
12.0
290
     0
  0
SCALE
  5
45
102
{ACAD_REACTORS
330
42
102
}
330
42
100
AcDbScale
 70
     0
300
1/64" = 1'-0"
140
0.015625
141
12.0
290
     0
  0
SCALE
  5
46
102
{ACAD_REACTORS
330
42
102
}
330
42
100
AcDbScale
 70
     0
300
1/32" = 1'-0"
140
0.03125
141
12.0
290
     0
  0
SCALE
  5
47
102
{ACAD_REACTORS
330
42
102
}
330
42
100
AcDbScale
 70
     0
300
1/16" = 1'-0"
140
0.0625
141
12.0
290
     0
  0
SCALE
  5
48
102
{ACAD_REACTORS
330
42
102
}
330
42
100
AcDbScale
 70
     0
300
3/32" = 1'-0"
140
0.09375
141
12.0
290
     0
  0
SCALE
  5
49
102
{ACAD_REACTORS
330
42
102
}
330
42
100
AcDbScale
 70
     0
300
1/8" = 1'-0"
140
0.125
141
12.0
290
     0
  0
SCALE
  5
4A
102
{ACAD_REACTORS
330
42
102
}
330
42
100
AcDbScale
 70
     0
300
3/16" = 1'-0"
140
0.1875
141
12.0
290
     0
  0
SCALE
  5
4B
102
{ACAD_REACTORS
330
42
102
}
330
42
100
AcDbScale
 70
     0
300
1/4" = 1'-0"
140
0.25
141
12.0
290
     0
  0
SCALE
  5
4C
102
{ACAD_REACTORS
330
42
102
}
330
42
100
AcDbScale
 70
     0
300
3/8" = 1'-0"
140
0.375
141
12.0
290
     0
  0
SCALE
  5
4D
102
{ACAD_REACTORS
330
42
102
}
330
42
100
AcDbScale
 70
     0
300
1/2" = 1'-0"
140
0.5
141
12.0
290
     0
  0
SCALE
  5
4E
102
{ACAD_REACTORS
330
42
102
}
330
42
100
AcDbScale
 70
     0
300
3/4" = 1'-0"
140
0.75
141
12.0
290
     0
  0
SCALE
  5
4F
102
{ACAD_REACTORS
330
42
102
}
330
42
100
AcDbScale
 70
     0
300
1" = 1'-0"
140
1.0
141
12.0
290
     0
  0
SCALE
  5
50
102
{ACAD_REACTORS
330
42
102
}
330
42
100
AcDbScale
 70
     0
300
1-1/2" = 1'-0"
140
1.5
141
12.0
290
     0
  0
SCALE
  5
51
102
{ACAD_REACTORS
330
42
102
}
330
42
100
AcDbScale
 70
     0
300
3" = 1'-0"
140
3.0
141
12.0
290
     0
  0
SCALE
  5
52
102
{ACAD_REACTORS
330
42
102
}
330
42
100
AcDbScale
 70
     0
300
6" = 1'-0"
140
6.0
141
12.0
290
     0
  0
SCALE
  5
53
102
{ACAD_REACTORS
330
42
102
}
330
42
100
AcDbScale
 70
     0
300
1'-0" = 1'-0"
140
12.0
141
12.0
290
     0
  0
ACDBSECTIONVIEWSTYLE
  5
69
102
{ACAD_XDICTIONARY
360
270
102
}
102
{ACAD_REACTORS
330
68
102
}
330
68
100
AcDbModelDocViewStyle
 70
     0
  3
Imperial24
290
     0
100
AcDbSectionViewStyle
 70
     0
 71
     0
 90
       78
 71
     1
340
55
 62
   256
 40
0.24
340
0
340
0
 62
   256
 40
0.24
300
I, O, Q, S, X, Z
 40
0.48
 90
        3
 40
0.18
 90
        1
 71
     2
340
5D
 90
       25
 62
   256
340
5D
 90
       50
 62
   256
 40
0.24
 40
0.0
 40
0.24
 71
     3
340
55
 62
   256
 40
0.24
 90
        1
 40
0.75
 90
        1
300
%<\AcVar ViewType \f "%tc1">% %<\AcVar ViewSectionStartId>%-%<\AcVar ViewSectionEndId>%\PSCALE %<\AcVar ViewScale \f "%sn">%
 71
     4
 62
   256
 62
   257
300
ANSI31
 40
1.0
 90
        0
290
     0
290
     0
 90
        6
 40
0.0
 40
1.570796326794896
 40
0.2617993877991494
 40
1.308996938995747
 40
-0.2617993877991494
 40
1.832595714594046
  0
TABLESTYLE
  5
65
102
{ACAD_XDICTIONARY
360
26D
102
}
102
{ACAD_REACTORS
330
64
102
}
330
64
100
AcDbTableStyle
280
     0
  3
Standard
 70
     0
 71
     0
 40
0.06
 41
0.06
280
     0
281
     0
  7
Standard
140
0.18
170
     2
 62
     0
 63
     7
283
     0
 90
      512
 91
        0
  1

274
    -2
284
     1
 64
     0
275
    -2
285
     1
 65
     0
276
    -2
286
     1
 66
     0
277
    -2
287
     1
 67
     0
278
    -2
288
     1
 68
     0
279
    -2
289
     1
 69
     0
  7
Standard
140
0.25
170
     5
 62
     0
 63
     7
283
     0
 90
      512
 91
        0
  1

274
    -2
284
     1
 64
     0
275
    -2
285
     1
 65
     0
276
    -2
286
     1
 66
     0
277
    -2
287
     1
 67
     0
278
    -2
288
     1
 68
     0
279
    -2
289
     1
 69
     0
  7
Standard
140
0.18
170
     5
 62
     0
 63
     7
283
     0
 90
      512
 91
        0
  1

274
    -2
284
     1
 64
     0
275
    -2
285
     1
 65
     0
276
    -2
286
     1
 66
     0
277
    -2
287
     1
 67
     0
278
    -2
288
     1
 68
     0
279
    -2
289
     1
 69
     0
  0
VISUALSTYLE
  5
2F
102
{ACAD_REACTORS
330
29
102
}
330
29
100
AcDbVisualStyle
  2
2dWireframe
 70
     4
177
     3
291
     0
 70
    58
 90
        0
176
     1
 90
        2
176
     1
 90
        0
176
     1
 90
        0
176
     1
 40
0.6
176
     1
 40
30.0
176
     1
 62
     7
420
 16777215
176
     1
 90
        1
176
     1
 90
        4
176
     1
 62
     7
176
     1
 62
   257
176
     1
 90
        1
176
     1
 90
        1
176
     1
 40
1.0
176
     1
 90
        0
176
     1
 62
   257
176
     1
 40
1.0
176
     1
 90
        1
176
     1
 90
        6
176
     1
 90
        2
176
     1
 62
     7
176
     1
 90
        5
176
     1
 90
        0
176
     1
 90
        0
176
     1
290
     0
176
     1
 90
        1
176
     1
 40
0.0
176
     1
 90
        0
176
     1
290
     1
176
     1
290
     1
176
     1
290
     0
176
     1
290
     0
176
     1
290
     0
176
     1
290
     0
176
     1
290
     0
176
     1
290
     0
176
     1
290
     0
176
     1
 90
       50
176
     1
 40
0.0
176
     1
 40
1.0
176
     1
 90
        0
176
     1
 62
    18
420
        0
176
     1
 90
       50
176
     1
 90
        3
176
     1
 62
     5
420
      255
176
     1
290
     0
176
     1
 90
       50
176
     1
 90
       50
176
     1
 90
       50
176
     1
290
     0
176
     1
 90
       50
176
     1
 62
   256
176
     0
 40
1.0
176
     0
 90
        2
176
     1
  1
strokes_ogs.tif
176
     1
290
     0
176
     1
 40
1.0
176
     1
 40
1.0
176
     1
1001
ACAD
1000
AcDbSavedByObjectVersion
1070
     0
  0
VISUALSTYLE
  5
2E
102
{ACAD_REACTORS
330
29
102
}
330
29
100
AcDbVisualStyle
  2
Basic
 70
     7
177
     3
291
     1
 70
    58
 90
        1
176
     1
 90
        0
176
     1
 90
        1
176
     1
 90
        0
176
     1
 40
0.6
176
     1
 40
30.0
176
     1
 62
     7
420
 16777215
176
     1
 90
        0
176
     1
 90
        4
176
     1
 62
     7
176
     1
 62
   257
176
     1
 90
        1
176
     1
 90
        1
176
     1
 40
1.0
176
     1
 90
        8
176
     1
 62
     7
176
     1
 40
1.0
176
     1
 90
        1
176
     1
 90
        6
176
     1
 90
        2
176
     1
 62
     7
176
     1
 90
        5
176
     1
 90
        0
176
     1
 90
        0
176
     1
290
     0
176
     1
 90
        1
176
     1
 40
0.0
176
     1
 90
        0
176
     1
290
     0
176
     1
290
     1
176
     1
290
     1
176
     1
290
     0
176
     1
290
     0
176
     1
290
     0
176
     1
290
     0
176
     1
290
     0
176
     1
290
     0
176
     1
 90
       50
176
     1
 40
0.0
176
     1
 40
1.0
176
     1
 90
        0
176
     1
 62
    18
420
        0
176
     1
 90
       50
176
     1
 90
        3
176
     1
 62
     5
420
      255
176
     1
290
     0
176
     1
 90
       50
176
     1
 90
       50
176
     1
 90
       50
176
     1
290
     0
176
     1
 90
       50
176
     1
 62
   256
176
     0
 40
1.0
176
     0
 90
        2
176
     1
  1
strokes_ogs.tif
176
     1
290
     0
176
     1
 40
1.0
176
     1
 40
1.0
176
     1
1001
ACAD
1000
AcDbSavedByObjectVersion
1070
     0
  0
VISUALSTYLE
  5
35
102
{ACAD_REACTORS
330
29
102
}
330
29
100
AcDbVisualStyle
  2
Brighten
 70
    12
177
     3
291
     1
 70
    58
 90
        2
176
     1
 90
        2
176
     1
 90
        0
176
     1
 90
        0
176
     1
 40
0.6
176
     1
 40
30.0
176
     1
 62
     7
420
 16777215
176
     1
 90
        1
176
     1
 90
        4
176
     1
 62
     7
176
     1
 62
   257
176
     1
 90
        1
176
     1
 90
        1
176
     1
 40
1.0
176
     1
 90
        8
176
     1
 62
     7
176
     1
 40
1.0
176
     1
 90
        1
176
     1
 90
        6
176
     1
 90
        2
176
     1
 62
     7
176
     1
 90
        5
176
     1
 90
        0
176
     1
 90
        0
176
     1
290
     0
176
     1
 90
        1
176
     1
 40
50.0
176
     1
 90
        0
176
     1
290
     0
176
     1
290
     1
176
     1
290
     1
176
     1
290
     0
176
     1
290
     0
176
     1
290
     0
176
     1
290
     0
176
     1
290
     0
176
     1
290
     0
176
     1
 90
       50
176
     1
 40
0.0
176
     1
 40
1.0
176
     1
 90
        0
176
     1
 62
    18
420
        0
176
     1
 90
       50
176
     1
 90
        3
176
     1
 62
     5
420
      255
176
     1
290
     0
176
     1
 90
       50
176
     1
 90
       50
176
     1
 90
       50
176
     1
290
     0
176
     1
 90
       50
176
     1
 62
   256
176
     0
 40
1.0
176
     0
 90
        2
176
     1
  1
strokes_ogs.tif
176
     1
290
     0
176
     1
 40
1.0
176
     1
 40
1.0
176
     1
1001
ACAD
1000
AcDbSavedByObjectVersion
1070
     0
  0
VISUALSTYLE
  5
39
102
{ACAD_REACTORS
330
29
102
}
330
29
100
AcDbVisualStyle
  2
ColorChange
 70
    16
177
     3
291
     1
 70
    58
 90
        2
176
     1
 90
        2
176
     1
 90
        3
176
     1
 90
        0
176
     1
 40
0.6
176
     1
 40
30.0
176
     1
 62
     8
420
  8421504
176
     1
 90
        1
176
     1
 90
        4
176
     1
 62
     7
176
     1
 62
   257
176
     1
 90
        1
176
     1
 90
        1
176
     1
 40
1.0
176
     1
 90
        8
176
     1
 62
     8
420
  8421504
176
     1
 40
1.0
176
     1
 90
        1
176
     1
 90
        6
176
     1
 90
        2
176
     1
 62
     7
176
     1
 90
        5
176
     1
 90
        0
176
     1
 90
        0
176
     1
290
     0
176
     1
 90
        1
176
     1
 40
0.0
176
     1
 90
        0
176
     1
290
     0
176
     1
290
     1
176
     1
290
     1
176
     1
290
     0
176
     1
290
     0
176
     1
290
     0
176
     1
290
     0
176
     1
290
     0
176
     1
290
     0
176
     1
 90
       50
176
     1
 40
0.0
176
     1
 40
1.0
176
     1
 90
        0
176
     1
 62
    18
420
        0
176
     1
 90
       50
176
     1
 90
        3
176
     1
 62
     5
420
      255
176
     1
290
     0
176
     1
 90
       50
176
     1
 90
       50
176
     1
 90
       50
176
     1
290
     0
176
     1
 90
       50
176
     1
 62
   256
176
     0
 40
1.0
176
     0
 90
        2
176
     1
  1
strokes_ogs.tif
176
     1
290
     0
176
     1
 40
1.0
176
     1
 40
1.0
176
     1
1001
ACAD
1000
AcDbSavedByObjectVersion
1070
     0
  0
VISUALSTYLE
  5
32
102
{ACAD_REACTORS
330
29
102
}
330
29
100
AcDbVisualStyle
  2
Conceptual
 70
     9
177
     3
291
     0
 70
    58
 90
        3
176
     1
 90
        2
176
     1
 90
        0
176
     1
 90
        0
176
     1
 40
0.6
176
     1
 40
30.0
176
     1
 62
     7
420
 16777215
176
     1
 90
        2
176
     1
 90
        2
176
     1
 62
     7
176
     1
 62
   257
176
     1
 90
        1
176
     1
 90
        1
176
     1
 40
179.0
176
     1
 90
        8
176
     1
 62
     7
176
     1
 40
1.0
176
     1
 90
        1
176
     1
 90
        6
176
     1
 90
        2
176
     1
 62
     7
176
     1
 90
        3
176
     1
 90
        0
176
     1
 90
        0
176
     1
290
     0
176
     1
 90
        1
176
     1
 40
0.0
176
     1
 90
        0
176
     1
290
     0
176
     1
290
     1
176
     1
290
     1
176
     1
290
     0
176
     1
290
     0
176
     1
290
     0
176
     1
290
     0
176
     1
290
     0
176
     1
290
     0
176
     1
 90
       50
176
     1
 40
0.0
176
     1
 40
1.0
176
     1
 90
        0
176
     1
 62
    18
420
        0
176
     1
 90
       50
176
     1
 90
        3
176
     1
 62
     5
420
      255
176
     1
290
     0
176
     1
 90
       50
176
     1
 90
       50
176
     1
 90
       50
176
     1
290
     0
176
     1
 90
       50
176
     1
 62
   256
176
     0
 40
1.0
176
     0
 90
        2
176
     1
  1
strokes_ogs.tif
176
     1
290
     0
176
     1
 40
1.0
176
     1
 40
1.0
176
     1
1001
ACAD
1000
AcDbSavedByObjectVersion
1070
     0
  0
VISUALSTYLE
  5
34
102
{ACAD_REACTORS
330
29
102
}
330
29
100
AcDbVisualStyle
  2
Dim
 70
    11
177
     3
291
     1
 70
    58
 90
        2
176
     1
 90
        2
176
     1
 90
        0
176
     1
 90
        0
176
     1
 40
0.6
176
     1
 40
30.0
176
     1
 62
     7
420
 16777215
176
     1
 90
        1
176
     1
 90
        4
176
     1
 62
     7
176
     1
 62
   257
176
     1
 90
        1
176
     1
 90
        1
176
     1
 40
1.0
176
     1
 90
        8
176
     1
 62
     7
176
     1
 40
1.0
176
     1
 90
        1
176
     1
 90
        6
176
     1
 90
        2
176
     1
 62
     7
176
     1
 90
        5
176
     1
 90
        0
176
     1
 90
        0
176
     1
290
     0
176
     1
 90
        1
176
     1
 40
-50.0
176
     1
 90
        0
176
     1
290
     0
176
     1
290
     1
176
     1
290
     1
176
     1
290
     0
176
     1
290
     0
176
     1
290
     0
176
     1
290
     0
176
     1
290
     0
176
     1
290
     0
176
     1
 90
       50
176
     1
 40
0.0
176
     1
 40
1.0
176
     1
 90
        0
176
     1
 62
    18
420
        0
176
     1
 90
       50
176
     1
 90
        3
176
     1
 62
     5
420
      255
176
     1
290
     0
176
     1
 90
       50
176
     1
 90
       50
176
     1
 90
       50
176
     1
290
     0
176
     1
 90
       50
176
     1
 62
   256
176
     0
 40
1.0
176
     0
 90
        2
176
     1
  1
strokes_ogs.tif
176
     1
290
     0
176
     1
 40
1.0
176
     1
 40
1.0
176
     1
1001
ACAD
1000
AcDbSavedByObjectVersion
1070
     0
  0
VISUALSTYLE
  5
41
102
{ACAD_REACTORS
330
29
102
}
330
29
100
AcDbVisualStyle
  2
EdgeColorOff
 70
    22
177
     3
291
     1
 70
    58
 90
        2
176
     0
 90
        2
176
     0
 90
        0
176
     0
 90
        0
176
     0
 40
0.6
176
     0
 40
30.0
176
     0
 62
     7
420
 16777215
176
     0
 90
        1
176
     0
 90
        4
176
     0
 62
     7
176
     0
 62
   257
176
     0
 90
        1
176
     0
 90
        1
176
     0
 40
1.0
176
     0
 90
        8
176
     2
 62
     7
176
     0
 40
1.0
176
     0
 90
        1
176
     0
 90
        6
176
     0
 90
        2
176
     0
 62
     7
176
     0
 90
        5
176
     0
 90
        0
176
     0
 90
        0
176
     0
290
     0
176
     0
 90
        1
176
     0
 40
0.0
176
     0
 90
        0
176
     0
290
     0
176
     0
290
     1
176
     0
290
     1
176
     0
290
     0
176
     0
290
     0
176
     0
290
     0
176
     0
290
     0
176
     0
290
     0
176
     0
290
     0
176
     0
 90
       50
176
     0
 40
0.0
176
     0
 40
1.0
176
     0
 90
        0
176
     0
 62
    18
420
        0
176
     0
 90
       50
176
     0
 90
        3
176
     0
 62
     5
420
      255
176
     0
290
     0
176
     0
 90
       50
176
     0
 90
       50
176
     0
 90
       50
176
     0
290
     0
176
     0
 90
       50
176
     0
 62
   256
176
     0
 40
1.0
176
     0
 90
        2
176
     0
  1
strokes_ogs.tif
176
     0
290
     0
176
     0
 40
1.0
176
     0
 40
1.0
176
     0
1001
ACAD
1000
AcDbSavedByObjectVersion
1070
     0
  0
VISUALSTYLE
  5
38
102
{ACAD_REACTORS
330
29
102
}
330
29
100
AcDbVisualStyle
  2
Facepattern
 70
    15
177
     3
291
     1
 70
    58
 90
        2
176
     1
 90
        2
176
     1
 90
        0
176
     1
 90
        0
176
     1
 40
0.6
176
     1
 40
30.0
176
     1
 62
     7
420
 16777215
176
     1
 90
        1
176
     1
 90
        4
176
     1
 62
     7
176
     1
 62
   257
176
     1
 90
        1
176
     1
 90
        1
176
     1
 40
1.0
176
     1
 90
        8
176
     1
 62
     7
176
     1
 40
1.0
176
     1
 90
        1
176
     1
 90
        6
176
     1
 90
        2
176
     1
 62
     7
176
     1
 90
        5
176
     1
 90
        0
176
     1
 90
        0
176
     1
290
     0
176
     1
 90
        1
176
     1
 40
0.0
176
     1
 90
        0
176
     1
290
     0
176
     1
290
     1
176
     1
290
     1
176
     1
290
     0
176
     1
290
     0
176
     1
290
     0
176
     1
290
     0
176
     1
290
     0
176
     1
290
     0
176
     1
 90
       50
176
     1
 40
0.0
176
     1
 40
1.0
176
     1
 90
        0
176
     1
 62
    18
420
        0
176
     1
 90
       50
176
     1
 90
        3
176
     1
 62
     5
420
      255
176
     1
290
     0
176
     1
 90
       50
176
     1
 90
       50
176
     1
 90
       50
176
     1
290
     0
176
     1
 90
       50
176
     1
 62
   256
176
     0
 40
1.0
176
     0
 90
        2
176
     1
  1
strokes_ogs.tif
176
     1
290
     0
176
     1
 40
1.0
176
     1
 40
1.0
176
     1
1001
ACAD
1000
AcDbSavedByObjectVersion
1070
     0
  0
VISUALSTYLE
  5
2A
102
{ACAD_REACTORS
330
29
102
}
330
29
100
AcDbVisualStyle
  2
Flat
 70
     0
177
     3
291
     1
 70
    58
 90
        2
176
     1
 90
        1
176
     1
 90
        1
176
     1
 90
        2
176
     1
 40
0.6
176
     1
 40
30.0
176
     1
 62
     7
420
 16777215
176
     1
 90
        0
176
     1
 90
        0
176
     1
 62
     7
176
     1
 62
   257
176
     1
 90
        1
176
     1
 90
        1
176
     1
 40
1.0
176
     1
 90
        8
176
     1
 62
     7
176
     1
 40
1.0
176
     1
 90
        1
176
     1
 90
        6
176
     1
 90
        2
176
     1
 62
     7
176
     1
 90
        5
176
     1
 90
        0
176
     1
 90
        0
176
     1
290
     0
176
     1
 90
       13
176
     1
 40
0.0
176
     1
 90
        0
176
     1
290
     0
176
     1
290
     1
176
     1
290
     1
176
     1
290
     0
176
     1
290
     0
176
     1
290
     0
176
     1
290
     0
176
     1
290
     0
176
     1
290
     0
176
     1
 90
       50
176
     1
 40
0.0
176
     1
 40
1.0
176
     1
 90
        0
176
     1
 62
    18
420
        0
176
     1
 90
       50
176
     1
 90
        3
176
     1
 62
     5
420
      255
176
     1
290
     0
176
     1
 90
       50
176
     1
 90
       50
176
     1
 90
       50
176
     1
290
     0
176
     1
 90
       50
176
     1
 62
   256
176
     0
 40
1.0
176
     0
 90
        2
176
     1
  1
strokes_ogs.tif
176
     1
290
     0
176
     1
 40
1.0
176
     1
 40
1.0
176
     1
1001
ACAD
1000
AcDbSavedByObjectVersion
1070
     0
  0
VISUALSTYLE
  5
2B
102
{ACAD_REACTORS
330
29
102
}
330
29
100
AcDbVisualStyle
  2
FlatWithEdges
 70
     1
177
     3
291
     1
 70
    58
 90
        2
176
     1
 90
        1
176
     1
 90
        1
176
     1
 90
        2
176
     1
 40
0.6
176
     1
 40
30.0
176
     1
 62
     7
420
 16777215
176
     1
 90
        1
176
     1
 90
        0
176
     1
 62
     7
176
     1
 62
   257
176
     1
 90
        1
176
     1
 90
        1
176
     1
 40
1.0
176
     1
 90
        0
176
     1
 62
   257
176
     1
 40
1.0
176
     1
 90
        1
176
     1
 90
        6
176
     1
 90
        2
176
     1
 62
     7
176
     1
 90
        5
176
     1
 90
        0
176
     1
 90
        0
176
     1
290
     0
176
     1
 90
       13
176
     1
 40
0.0
176
     1
 90
        0
176
     1
290
     0
176
     1
290
     1
176
     1
290
     1
176
     1
290
     0
176
     1
290
     0
176
     1
290
     0
176
     1
290
     0
176
     1
290
     0
176
     1
290
     0
176
     1
 90
       50
176
     1
 40
0.0
176
     1
 40
1.0
176
     1
 90
        0
176
     1
 62
    18
420
        0
176
     1
 90
       50
176
     1
 90
        3
176
     1
 62
     5
420
      255
176
     1
290
     0
176
     1
 90
       50
176
     1
 90
       50
176
     1
 90
       50
176
     1
290
     0
176
     1
 90
       50
176
     1
 62
   256
176
     0
 40
1.0
176
     0
 90
        2
176
     1
  1
strokes_ogs.tif
176
     1
290
     0
176
     1
 40
1.0
176
     1
 40
1.0
176
     1
1001
ACAD
1000
AcDbSavedByObjectVersion
1070
     0
  0
VISUALSTYLE
  5
2C
102
{ACAD_REACTORS
330
29
102
}
330
29
100
AcDbVisualStyle
  2
Gouraud
 70
     2
177
     3
291
     1
 70
    58
 90
        2
176
     1
 90
        2
176
     1
 90
        1
176
     1
 90
        2
176
     1
 40
0.6
176
     1
 40
30.0
176
     1
 62
     7
420
 16777215
176
     1
 90
        0
176
     1
 90
        0
176
     1
 62
     7
176
     1
 62
   257
176
     1
 90
        1
176
     1
 90
        1
176
     1
 40
1.0
176
     1
 90
        0
176
     1
 62
     7
176
     1
 40
1.0
176
     1
 90
        1
176
     1
 90
        6
176
     1
 90
        2
176
     1
 62
     7
176
     1
 90
        5
176
     1
 90
        0
176
     1
 90
        0
176
     1
290
     0
176
     1
 90
       13
176
     1
 40
0.0
176
     1
 90
        0
176
     1
290
     0
176
     1
290
     1
176
     1
290
     1
176
     1
290
     0
176
     1
290
     0
176
     1
290
     0
176
     1
290
     0
176
     1
290
     0
176
     1
290
     0
176
     1
 90
       50
176
     1
 40
0.0
176
     1
 40
1.0
176
     1
 90
        0
176
     1
 62
    18
420
        0
176
     1
 90
       50
176
     1
 90
        3
176
     1
 62
     5
420
      255
176
     1
290
     0
176
     1
 90
       50
176
     1
 90
       50
176
     1
 90
       50
176
     1
290
     0
176
     1
 90
       50
176
     1
 62
   256
176
     0
 40
1.0
176
     0
 90
        2
176
     1
  1
strokes_ogs.tif
176
     1
290
     0
176
     1
 40
1.0
176
     1
 40
1.0
176
     1
1001
ACAD
1000
AcDbSavedByObjectVersion
1070
     0
  0
VISUALSTYLE
  5
2D
102
{ACAD_REACTORS
330
29
102
}
330
29
100
AcDbVisualStyle
  2
GouraudWithEdges
 70
     3
177
     3
291
     1
 70
    58
 90
        2
176
     1
 90
        2
176
     1
 90
        1
176
     1
 90
        2
176
     1
 40
0.6
176
     1
 40
30.0
176
     1
 62
     7
420
 16777215
176
     1
 90
        1
176
     1
 90
        0
176
     1
 62
     7
176
     1
 62
   257
176
     1
 90
        1
176
     1
 90
        1
176
     1
 40
1.0
176
     1
 90
        0
176
     1
 62
   257
176
     1
 40
1.0
176
     1
 90
        1
176
     1
 90
        6
176
     1
 90
        2
176
     1
 62
     7
176
     1
 90
        5
176
     1
 90
        0
176
     1
 90
        0
176
     1
290
     0
176
     1
 90
       13
176
     1
 40
0.0
176
     1
 90
        0
176
     1
290
     0
176
     1
290
     1
176
     1
290
     1
176
     1
290
     0
176
     1
290
     0
176
     1
290
     0
176
     1
290
     0
176
     1
290
     0
176
     1
290
     0
176
     1
 90
       50
176
     1
 40
0.0
176
     1
 40
1.0
176
     1
 90
        0
176
     1
 62
    18
420
        0
176
     1
 90
       50
176
     1
 90
        3
176
     1
 62
     5
420
      255
176
     1
290
     0
176
     1
 90
       50
176
     1
 90
       50
176
     1
 90
       50
176
     1
290
     0
176
     1
 90
       50
176
     1
 62
   256
176
     0
 40
1.0
176
     0
 90
        2
176
     1
  1
strokes_ogs.tif
176
     1
290
     0
176
     1
 40
1.0
176
     1
 40
1.0
176
     1
1001
ACAD
1000
AcDbSavedByObjectVersion
1070
     0
  0
VISUALSTYLE
  5
31
102
{ACAD_REACTORS
330
29
102
}
330
29
100
AcDbVisualStyle
  2
Hidden
 70
     6
177
     3
291
     0
 70
    58
 90
        1
176
     1
 90
        2
176
     1
 90
        2
176
     1
 90
        0
176
     1
 40
0.6
176
     1
 40
30.0
176
     1
 62
     7
420
 16777215
176
     1
 90
        2
176
     1
 90
        2
176
     1
 62
     7
176
     1
 62
   257
176
     1
 90
        2
176
     1
 90
        1
176
     1
 40
40.0
176
     1
 90
        0
176
     1
 62
   257
176
     1
 40
1.0
176
     1
 90
        1
176
     1
 90
        6
176
     1
 90
        2
176
     1
 62
     7
176
     1
 90
        3
176
     1
 90
        0
176
     1
 90
        0
176
     1
290
     0
176
     1
 90
        1
176
     1
 40
0.0
176
     1
 90
        0
176
     1
290
     0
176
     1
290
     1
176
     1
290
     1
176
     1
290
     0
176
     1
290
     0
176
     1
290
     0
176
     1
290
     0
176
     1
290
     0
176
     1
290
     0
176
     1
 90
       50
176
     1
 40
0.0
176
     1
 40
1.0
176
     1
 90
        0
176
     1
 62
    18
420
        0
176
     1
 90
       50
176
     1
 90
        3
176
     1
 62
     5
420
      255
176
     1
290
     0
176
     1
 90
       50
176
     1
 90
       50
176
     1
 90
       50
176
     1
290
     0
176
     1
 90
       50
176
     1
 62
   256
176
     0
 40
1.0
176
     0
 90
        2
176
     1
  1
strokes_ogs.tif
176
     1
290
     0
176
     1
 40
1.0
176
     1
 40
1.0
176
     1
1001
ACAD
1000
AcDbSavedByObjectVersion
1070
     0
  0
VISUALSTYLE
  5
3F
102
{ACAD_REACTORS
330
29
102
}
330
29
100
AcDbVisualStyle
  2
JitterOff
 70
    20
177
     3
291
     1
 70
    58
 90
        2
176
     0
 90
        2
176
     0
 90
        0
176
     0
 90
        0
176
     0
 40
0.6
176
     0
 40
30.0
176
     0
 62
     7
420
 16777215
176
     0
 90
        1
176
     0
 90
        4
176
     0
 62
     7
176
     0
 62
   257
176
     0
 90
        1
176
     0
 90
        1
176
     0
 40
1.0
176
     0
 90
       10
176
     2
 62
     7
176
     0
 40
1.0
176
     0
 90
        1
176
     0
 90
        6
176
     0
 90
        2
176
     0
 62
     7
176
     0
 90
        5
176
     0
 90
        0
176
     0
 90
        0
176
     0
290
     0
176
     0
 90
        1
176
     0
 40
0.0
176
     0
 90
        0
176
     0
290
     0
176
     0
290
     1
176
     0
290
     1
176
     0
290
     0
176
     0
290
     0
176
     0
290
     0
176
     0
290
     0
176
     0
290
     0
176
     0
290
     0
176
     0
 90
       50
176
     0
 40
0.0
176
     0
 40
1.0
176
     0
 90
        0
176
     0
 62
    18
420
        0
176
     0
 90
       50
176
     0
 90
        3
176
     0
 62
     5
420
      255
176
     0
290
     0
176
     0
 90
       50
176
     0
 90
       50
176
     0
 90
       50
176
     0
290
     0
176
     0
 90
       50
176
     0
 62
   256
176
     0
 40
1.0
176
     0
 90
        2
176
     0
  1
strokes_ogs.tif
176
     0
290
     0
176
     0
 40
1.0
176
     0
 40
1.0
176
     0
1001
ACAD
1000
AcDbSavedByObjectVersion
1070
     0
  0
VISUALSTYLE
  5
37
102
{ACAD_REACTORS
330
29
102
}
330
29
100
AcDbVisualStyle
  2
Linepattern
 70
    14
177
     3
291
     1
 70
    58
 90
        2
176
     1
 90
        2
176
     1
 90
        0
176
     1
 90
        0
176
     1
 40
0.6
176
     1
 40
30.0
176
     1
 62
     7
420
 16777215
176
     1
 90
        1
176
     1
 90
        4
176
     1
 62
     7
176
     1
 62
   257
176
     1
 90
        7
176
     1
 90
        7
176
     1
 40
1.0
176
     1
 90
        8
176
     1
 62
     7
176
     1
 40
1.0
176
     1
 90
        1
176
     1
 90
        6
176
     1
 90
        2
176
     1
 62
     7
176
     1
 90
        5
176
     1
 90
        0
176
     1
 90
        0
176
     1
290
     0
176
     1
 90
        1
176
     1
 40
0.0
176
     1
 90
        0
176
     1
290
     0
176
     1
290
     1
176
     1
290
     1
176
     1
290
     0
176
     1
290
     0
176
     1
290
     0
176
     1
290
     0
176
     1
290
     0
176
     1
290
     0
176
     1
 90
       50
176
     1
 40
0.0
176
     1
 40
1.0
176
     1
 90
        0
176
     1
 62
    18
420
        0
176
     1
 90
       50
176
     1
 90
        3
176
     1
 62
     5
420
      255
176
     1
290
     0
176
     1
 90
       50
176
     1
 90
       50
176
     1
 90
       50
176
     1
290
     0
176
     1
 90
       50
176
     1
 62
   256
176
     0
 40
1.0
176
     0
 90
        2
176
     1
  1
strokes_ogs.tif
176
     1
290
     0
176
     1
 40
1.0
176
     1
 40
1.0
176
     1
1001
ACAD
1000
AcDbSavedByObjectVersion
1070
     0
  0
VISUALSTYLE
  5
40
102
{ACAD_REACTORS
330
29
102
}
330
29
100
AcDbVisualStyle
  2
OverhangOff
 70
    21
177
     3
291
     1
 70
    58
 90
        2
176
     0
 90
        2
176
     0
 90
        0
176
     0
 90
        0
176
     0
 40
0.6
176
     0
 40
30.0
176
     0
 62
     7
420
 16777215
176
     0
 90
        1
176
     0
 90
        4
176
     0
 62
     7
176
     0
 62
   257
176
     0
 90
        1
176
     0
 90
        1
176
     0
 40
1.0
176
     0
 90
        9
176
     2
 62
     7
176
     0
 40
1.0
176
     0
 90
        1
176
     0
 90
        6
176
     0
 90
        2
176
     0
 62
     7
176
     0
 90
        5
176
     0
 90
        0
176
     0
 90
        0
176
     0
290
     0
176
     0
 90
        1
176
     0
 40
0.0
176
     0
 90
        0
176
     0
290
     0
176
     0
290
     1
176
     0
290
     1
176
     0
290
     0
176
     0
290
     0
176
     0
290
     0
176
     0
290
     0
176
     0
290
     0
176
     0
290
     0
176
     0
 90
       50
176
     0
 40
0.0
176
     0
 40
1.0
176
     0
 90
        0
176
     0
 62
    18
420
        0
176
     0
 90
       50
176
     0
 90
        3
176
     0
 62
     5
420
      255
176
     0
290
     0
176
     0
 90
       50
176
     0
 90
       50
176
     0
 90
       50
176
     0
290
     0
176
     0
 90
       50
176
     0
 62
   256
176
     0
 40
1.0
176
     0
 90
        2
176
     0
  1
strokes_ogs.tif
176
     0
290
     0
176
     0
 40
1.0
176
     0
 40
1.0
176
     0
1001
ACAD
1000
AcDbSavedByObjectVersion
1070
     0
  0
VISUALSTYLE
  5
33
102
{ACAD_REACTORS
330
29
102
}
330
29
100
AcDbVisualStyle
  2
Realistic
 70
     8
177
     3
291
     0
 70
    58
 90
        2
176
     1
 90
        3
176
     1
 90
        0
176
     1
 90
        2
176
     1
 40
0.6
176
     1
 40
30.0
176
     1
 62
     7
420
 16777215
176
     1
 90
        0
176
     1
 90
        0
176
     1
 62
     7
176
     1
 62
   257
176
     1
 90
        1
176
     1
 90
        1
176
     1
 40
1.0
176
     1
 90
        8
176
     1
 62
   257
176
     1
 40
1.0
176
     1
 90
        1
176
     1
 90
        6
176
     1
 90
        2
176
     1
 62
     7
176
     1
 90
        3
176
     1
 90
        0
176
     1
 90
        0
176
     1
290
     0
176
     1
 90
       13
176
     1
 40
0.0
176
     1
 90
        0
176
     1
290
     0
176
     1
290
     1
176
     1
290
     1
176
     1
290
     0
176
     1
290
     0
176
     1
290
     0
176
     1
290
     0
176
     1
290
     0
176
     1
290
     0
176
     1
 90
       50
176
     1
 40
0.0
176
     1
 40
1.0
176
     1
 90
        0
176
     1
 62
    18
420
        0
176
     1
 90
       50
176
     1
 90
        3
176
     1
 62
     5
420
      255
176
     1
290
     0
176
     1
 90
       50
176
     1
 90
       50
176
     1
 90
       50
176
     1
290
     0
176
     1
 90
       50
176
     1
 62
   256
176
     0
 40
1.0
176
     0
 90
        2
176
     1
  1
strokes_ogs.tif
176
     1
290
     0
176
     1
 40
1.0
176
     1
 40
1.0
176
     1
1001
ACAD
1000
AcDbSavedByObjectVersion
1070
     0
  0
VISUALSTYLE
  5
3E
102
{ACAD_REACTORS
330
29
102
}
330
29
100
AcDbVisualStyle
  2
Shaded
 70
    27
177
     3
291
     0
 70
    58
 90
        2
176
     1
 90
        2
176
     1
 90
        1
176
     1
 90
        2
176
     1
 40
0.6
176
     1
 40
30.0
176
     1
 62
     7
420
 16777215
176
     1
 90
        0
176
     1
 90
        4
176
     1
 62
     7
176
     1
 62
   257
176
     1
 90
        1
176
     1
 90
        1
176
     1
 40
1.0
176
     1
 90
        8
176
     1
 62
   257
176
     1
 40
1.0
176
     1
 90
        1
176
     1
 90
        6
176
     1
 90
        2
176
     1
 62
     8
420
  7895160
176
     1
 90
        3
176
     1
 90
        0
176
     1
 90
        0
176
     1
290
     0
176
     1
 90
        5
176
     1
 40
0.0
176
     1
 90
        0
176
     1
290
     0
176
     1
290
     1
176
     1
290
     1
176
     1
290
     0
176
     1
290
     0
176
     1
290
     0
176
     1
290
     0
176
     1
290
     0
176
     1
290
     0
176
     1
 90
       50
176
     1
 40
0.0
176
     1
 40
1.0
176
     1
 90
        0
176
     1
 62
    18
420
        0
176
     1
 90
       50
176
     1
 90
        3
176
     1
 62
     5
420
      255
176
     1
290
     0
176
     1
 90
       50
176
     1
 90
       50
176
     1
 90
       50
176
     1
290
     0
176
     1
 90
       50
176
     1
 62
   256
176
     0
 40
1.0
176
     0
 90
        2
176
     1
  1
strokes_ogs.tif
176
     1
290
     0
176
     1
 40
1.0
176
     1
 40
1.0
176
     1
1001
ACAD
1000
AcDbSavedByObjectVersion
1070
     0
  0
VISUALSTYLE
  5
3D
102
{ACAD_REACTORS
330
29
102
}
330
29
100
AcDbVisualStyle
  2
Shaded with edges
 70
    26
177
     3
291
     0
 70
    58
 90
        2
176
     1
 90
        2
176
     1
 90
        1
176
     1
 90
        2
176
     1
 40
0.6
176
     1
 40
30.0
176
     1
 62
     7
420
 16777215
176
     1
 90
        1
176
     1
 90
        2
176
     1
 62
     7
176
     1
 62
   257
176
     1
 90
        2
176
     1
 90
        1
176
     1
 40
1.0
176
     1
 90
        8
176
     1
 62
   257
176
     1
 40
1.0
176
     1
 90
        1
176
     1
 90
        6
176
     1
 90
        2
176
     1
 62
     7
176
     1
 90
        3
176
     1
 90
        0
176
     1
 90
        0
176
     1
290
     0
176
     1
 90
        5
176
     1
 40
0.0
176
     1
 90
        0
176
     1
290
     0
176
     1
290
     1
176
     1
290
     1
176
     1
290
     0
176
     1
290
     0
176
     1
290
     0
176
     1
290
     0
176
     1
290
     0
176
     1
290
     0
176
     1
 90
       50
176
     1
 40
0.0
176
     1
 40
1.0
176
     1
 90
        0
176
     1
 62
    18
420
        0
176
     1
 90
       50
176
     1
 90
        3
176
     1
 62
     5
420
      255
176
     1
290
     0
176
     1
 90
       50
176
     1
 90
       50
176
     1
 90
       50
176
     1
290
     0
176
     1
 90
       50
176
     1
 62
   256
176
     0
 40
1.0
176
     0
 90
        2
176
     1
  1
strokes_ogs.tif
176
     1
290
     0
176
     1
 40
1.0
176
     1
 40
1.0
176
     1
1001
ACAD
1000
AcDbSavedByObjectVersion
1070
     0
  0
VISUALSTYLE
  5
3A
102
{ACAD_REACTORS
330
29
102
}
330
29
100
AcDbVisualStyle
  2
Shades of Gray
 70
    23
177
     3
291
     0
 70
    58
 90
        2
176
     1
 90
        2
176
     1
 90
        3
176
     1
 90
        0
176
     1
 40
0.6
176
     1
 40
30.0
176
     1
 62
     7
420
 16777215
176
     1
 90
        2
176
     1
 90
        2
176
     1
 62
     7
176
     1
 62
     7
176
     1
 90
        1
176
     1
 90
        1
176
     1
 40
40.0
176
     1
 90
        8
176
     1
 62
     7
176
     1
 40
1.0
176
     1
 90
        1
176
     1
 90
        6
176
     1
 90
        2
176
     1
 62
     7
176
     1
 90
        3
176
     1
 90
        0
176
     1
 90
        0
176
     1
290
     0
176
     1
 90
        1
176
     1
 40
0.0
176
     1
 90
        0
176
     1
290
     0
176
     1
290
     1
176
     1
290
     1
176
     1
290
     0
176
     1
290
     0
176
     1
290
     0
176
     1
290
     0
176
     1
290
     0
176
     1
290
     0
176
     1
 90
       50
176
     1
 40
0.0
176
     1
 40
1.0
176
     1
 90
        0
176
     1
 62
    18
420
        0
176
     1
 90
       50
176
     1
 90
        3
176
     1
 62
     5
420
      255
176
     1
290
     0
176
     1
 90
       50
176
     1
 90
       50
176
     1
 90
       50
176
     1
290
     0
176
     1
 90
       50
176
     1
 62
   256
176
     0
 40
1.0
176
     0
 90
        2
176
     1
  1
strokes_ogs.tif
176
     1
290
     0
176
     1
 40
1.0
176
     1
 40
1.0
176
     1
1001
ACAD
1000
AcDbSavedByObjectVersion
1070
     0
  0
VISUALSTYLE
  5
3B
102
{ACAD_REACTORS
330
29
102
}
330
29
100
AcDbVisualStyle
  2
Sketchy
 70
    24
177
     3
291
     0
 70
    58
 90
        1
176
     1
 90
        2
176
     1
 90
        2
176
     1
 90
        0
176
     1
 40
0.6
176
     1
 40
30.0
176
     1
 62
     7
420
 16777215
176
     1
 90
        2
176
     1
 90
        2
176
     1
 62
     7
176
     1
 62
     7
176
     1
 90
        1
176
     1
 90
        1
176
     1
 40
40.0
176
     1
 90
       11
176
     1
 62
     7
176
     1
 40
1.0
176
     1
 90
        1
176
     1
 90
        6
176
     1
 90
        2
176
     1
 62
     7
176
     1
 90
        6
176
     1
 90
        0
176
     1
 90
        0
176
     1
290
     0
176
     1
 90
        1
176
     1
 40
0.0
176
     1
 90
        0
176
     1
290
     0
176
     1
290
     1
176
     1
290
     1
176
     1
290
     0
176
     1
290
     0
176
     1
290
     0
176
     1
290
     0
176
     1
290
     0
176
     1
290
     0
176
     1
 90
       50
176
     1
 40
0.0
176
     1
 40
1.0
176
     1
 90
        0
176
     1
 62
    18
420
        0
176
     1
 90
       50
176
     1
 90
        3
176
     1
 62
     5
420
      255
176
     1
290
     0
176
     1
 90
       50
176
     1
 90
       50
176
     1
 90
       50
176
     1
290
     0
176
     1
 90
       50
176
     1
 62
   256
176
     0
 40
1.0
176
     0
 90
        2
176
     1
  1
strokes_ogs.tif
176
     1
290
     0
176
     1
 40
1.0
176
     1
 40
1.0
176
     1
1001
ACAD
1000
AcDbSavedByObjectVersion
1070
     0
  0
VISUALSTYLE
  5
36
102
{ACAD_REACTORS
330
29
102
}
330
29
100
AcDbVisualStyle
  2
Thicken
 70
    13
177
     3
291
     1
 70
    58
 90
        2
176
     1
 90
        2
176
     1
 90
        0
176
     1
 90
        0
176
     1
 40
0.6
176
     1
 40
30.0
176
     1
 62
     7
420
 16777215
176
     1
 90
        1
176
     1
 90
        4
176
     1
 62
     7
176
     1
 62
   257
176
     1
 90
        1
176
     1
 90
        1
176
     1
 40
1.0
176
     1
 90
       12
176
     1
 62
     7
176
     1
 40
1.0
176
     1
 90
        1
176
     1
 90
        6
176
     1
 90
        2
176
     1
 62
     7
176
     1
 90
        5
176
     1
 90
        0
176
     1
 90
        0
176
     1
290
     0
176
     1
 90
        1
176
     1
 40
0.0
176
     1
 90
        0
176
     1
290
     0
176
     1
290
     1
176
     1
290
     1
176
     1
290
     0
176
     1
290
     0
176
     1
290
     0
176
     1
290
     0
176
     1
290
     0
176
     1
290
     0
176
     1
 90
       50
176
     1
 40
0.0
176
     1
 40
1.0
176
     1
 90
        0
176
     1
 62
    18
420
        0
176
     1
 90
       50
176
     1
 90
        3
176
     1
 62
     5
420
      255
176
     1
290
     0
176
     1
 90
       50
176
     1
 90
       50
176
     1
 90
       50
176
     1
290
     0
176
     1
 90
       50
176
     1
 62
   256
176
     0
 40
1.0
176
     0
 90
        2
176
     1
  1
strokes_ogs.tif
176
     1
290
     0
176
     1
 40
1.0
176
     1
 40
1.0
176
     1
1001
ACAD
1000
AcDbSavedByObjectVersion
1070
     0
  0
VISUALSTYLE
  5
30
102
{ACAD_REACTORS
330
29
102
}
330
29
100
AcDbVisualStyle
  2
Wireframe
 70
     5
177
     3
291
     0
 70
    58
 90
        0
176
     1
 90
        2
176
     1
 90
        0
176
     1
 90
        0
176
     1
 40
0.6
176
     1
 40
30.0
176
     1
 62
     7
420
 16777215
176
     1
 90
        1
176
     1
 90
        4
176
     1
 62
     7
176
     1
 62
   257
176
     1
 90
        1
176
     1
 90
        1
176
     1
 40
1.0
176
     1
 90
        0
176
     1
 62
   257
176
     1
 40
1.0
176
     1
 90
        1
176
     1
 90
        6
176
     1
 90
        2
176
     1
 62
     7
176
     1
 90
        3
176
     1
 90
        0
176
     1
 90
        0
176
     1
290
     0
176
     1
 90
        1
176
     1
 40
0.0
176
     1
 90
        0
176
     1
290
     0
176
     1
290
     1
176
     1
290
     1
176
     1
290
     0
176
     1
290
     0
176
     1
290
     0
176
     1
290
     0
176
     1
290
     0
176
     1
290
     0
176
     1
 90
       50
176
     1
 40
0.0
176
     1
 40
1.0
176
     1
 90
        0
176
     1
 62
    18
420
        0
176
     1
 90
       50
176
     1
 90
        3
176
     1
 62
     5
420
      255
176
     1
290
     0
176
     1
 90
       50
176
     1
 90
       50
176
     1
 90
       50
176
     1
290
     0
176
     1
 90
       50
176
     1
 62
   256
176
     0
 40
1.0
176
     0
 90
        2
176
     1
  1
strokes_ogs.tif
176
     1
290
     0
176
     1
 40
1.0
176
     1
 40
1.0
176
     1
1001
ACAD
1000
AcDbSavedByObjectVersion
1070
     0
  0
VISUALSTYLE
  5
3C
102
{ACAD_REACTORS
330
29
102
}
330
29
100
AcDbVisualStyle
  2
X-Ray
 70
    25
177
     3
291
     0
 70
    58
 90
        2
176
     1
 90
        2
176
     1
 90
        1
176
     1
 90
        1
176
     1
 40
0.5
176
     1
 40
30.0
176
     1
 62
     7
420
 16777215
176
     1
 90
        1
176
     1
 90
        0
176
     1
 62
     7
176
     1
 62
   257
176
     1
 90
        1
176
     1
 90
        1
176
     1
 40
1.0
176
     1
 90
        8
176
     1
 62
     7
176
     1
 40
1.0
176
     1
 90
        1
176
     1
 90
        6
176
     1
 90
        2
176
     1
 62
     7
176
     1
 90
        3
176
     1
 90
        0
176
     1
 90
        0
176
     1
290
     0
176
     1
 90
       13
176
     1
 40
0.0
176
     1
 90
        0
176
     1
290
     0
176
     1
290
     1
176
     1
290
     1
176
     1
290
     0
176
     1
290
     0
176
     1
290
     0
176
     1
290
     0
176
     1
290
     0
176
     1
290
     0
176
     1
 90
       50
176
     1
 40
0.0
176
     1
 40
1.0
176
     1
 90
        0
176
     1
 62
    18
420
        0
176
     1
 90
       50
176
     1
 90
        3
176
     1
 62
     5
420
      255
176
     1
290
     0
176
     1
 90
       50
176
     1
 90
       50
176
     1
 90
       50
176
     1
290
     0
176
     1
 90
       50
176
     1
 62
   256
176
     0
 40
1.0
176
     0
 90
        2
176
     1
  1
strokes_ogs.tif
176
     1
290
     0
176
     1
 40
1.0
176
     1
 40
1.0
176
     1
1001
ACAD
1000
AcDbSavedByObjectVersion
1070
     0
  0
DICTIONARYVAR
  5
26C
102
{ACAD_REACTORS
330
267
102
}
330
267
100
DictionaryVariables
280
     0
  1
1:1
  0
DICTIONARYVAR
  5
269
102
{ACAD_REACTORS
330
267
102
}
330
267
100
DictionaryVariables
280
     0
  1
STANDARD
  0
DICTIONARYVAR
  5
268
102
{ACAD_REACTORS
330
267
102
}
330
267
100
DictionaryVariables
280
     0
  1
STANDARD
  0
DICTIONARYVAR
  5
26A
102
{ACAD_REACTORS
330
267
102
}
330
267
100
DictionaryVariables
280
     0
  1
Imperial24
  0
DICTIONARYVAR
  5
26B
102
{ACAD_REACTORS
330
267
102
}
330
267
100
DictionaryVariables
280
     0
  1
Imperial24
  0
DICTIONARY
  5
272
330
6B
100
AcDbDictionary
280
     1
281
     1
  3
ACAD_XREC_ROUNDTRIP
360
273
  0
DICTIONARY
  5
1A
330
19
100
AcDbDictionary
280
     1
281
     1
  3
BUMPTILE
360
1C
  3
DIFFUSETILE
360
1B
  3
OPACITYTILE
360
1F
  3
REFLECTIONTILE
360
1E
  3
REFRACTIONTILE
360
20
  3
SPECULARTILE
360
1D
  0
DICTIONARY
  5
12
330
11
100
AcDbDictionary
280
     1
281
     1
  3
BUMPTILE
360
14
  3
DIFFUSETILE
360
13
  3
OPACITYTILE
360
17
  3
REFLECTIONTILE
360
16
  3
REFRACTIONTILE
360
18
  3
SPECULARTILE
360
15
  0
DICTIONARY
  5
22
330
21
100
AcDbDictionary
280
     1
281
     1
  3
BUMPTILE
360
24
  3
DIFFUSETILE
360
23
  3
OPACITYTILE
360
27
  3
REFLECTIONTILE
360
26
  3
REFRACTIONTILE
360
28
  3
SPECULARTILE
360
25
  0
DICTIONARY
  5
270
330
69
100
AcDbDictionary
280
     1
281
     1
  3
ACAD_XREC_ROUNDTRIP
360
271
  0
DICTIONARY
  5
26D
330
65
100
AcDbDictionary
280
     1
281
     1
  3
ACAD_ROUNDTRIP_2008_TABLESTYLE_CELLSTYLEMAP
360
26E
  0
XRECORD
  5
273
102
{ACAD_REACTORS
330
272
102
}
330
272
100
AcDbXrecord
280
     1
102
DISPLAYNAME
  1
Imperial24
102
FLAGS
 90
        0
  0
XRECORD
  5
1C
102
{ACAD_REACTORS
330
1A
102
}
330
1A
100
AcDbXrecord
280
     1
270
     1
271
     1
  0
XRECORD
  5
1B
102
{ACAD_REACTORS
330
1A
102
}
330
1A
100
AcDbXrecord
280
     1
270
     1
271
     1
  0
XRECORD
  5
1F
102
{ACAD_REACTORS
330
1A
102
}
330
1A
100
AcDbXrecord
280
     1
270
     1
271
     1
  0
XRECORD
  5
1E
102
{ACAD_REACTORS
330
1A
102
}
330
1A
100
AcDbXrecord
280
     1
270
     1
271
     1
  0
XRECORD
  5
20
102
{ACAD_REACTORS
330
1A
102
}
330
1A
100
AcDbXrecord
280
     1
270
     1
271
     1
  0
XRECORD
  5
1D
102
{ACAD_REACTORS
330
1A
102
}
330
1A
100
AcDbXrecord
280
     1
270
     1
271
     1
  0
XRECORD
  5
14
102
{ACAD_REACTORS
330
12
102
}
330
12
100
AcDbXrecord
280
     1
270
     1
271
     1
  0
XRECORD
  5
13
102
{ACAD_REACTORS
330
12
102
}
330
12
100
AcDbXrecord
280
     1
270
     1
271
     1
  0
XRECORD
  5
17
102
{ACAD_REACTORS
330
12
102
}
330
12
100
AcDbXrecord
280
     1
270
     1
271
     1
  0
XRECORD
  5
16
102
{ACAD_REACTORS
330
12
102
}
330
12
100
AcDbXrecord
280
     1
270
     1
271
     1
  0
XRECORD
  5
18
102
{ACAD_REACTORS
330
12
102
}
330
12
100
AcDbXrecord
280
     1
270
     1
271
     1
  0
XRECORD
  5
15
102
{ACAD_REACTORS
330
12
102
}
330
12
100
AcDbXrecord
280
     1
270
     1
271
     1
  0
XRECORD
  5
24
102
{ACAD_REACTORS
330
22
102
}
330
22
100
AcDbXrecord
280
     1
270
     1
271
     1
  0
XRECORD
  5
23
102
{ACAD_REACTORS
330
22
102
}
330
22
100
AcDbXrecord
280
     1
270
     1
271
     1
  0
XRECORD
  5
27
102
{ACAD_REACTORS
330
22
102
}
330
22
100
AcDbXrecord
280
     1
270
     1
271
     1
  0
XRECORD
  5
26
102
{ACAD_REACTORS
330
22
102
}
330
22
100
AcDbXrecord
280
     1
270
     1
271
     1
  0
XRECORD
  5
28
102
{ACAD_REACTORS
330
22
102
}
330
22
100
AcDbXrecord
280
     1
270
     1
271
     1
  0
XRECORD
  5
25
102
{ACAD_REACTORS
330
22
102
}
330
22
100
AcDbXrecord
280
     1
270
     1
271
     1
  0
XRECORD
  5
271
102
{ACAD_REACTORS
330
270
102
}
330
270
100
AcDbXrecord
280
     1
102
DISPLAYNAME
  1
Imperial24
102
FLAGS
 90
        0
  0
CELLSTYLEMAP
  5
26E
102
{ACAD_REACTORS
330
26D
102
}
330
26D
100
AcDbCellStyleMap
 90
        3
300
CELLSTYLE
  1
TABLEFORMAT_BEGIN
 90
        5
170
     1
 91
        0
 92
    32768
 62
   257
 93
        1
300
CONTENTFORMAT
  1
CONTENTFORMAT_BEGIN
 90
        0
 91
        0
 92
      512
 93
        0
300

 40
0.0
140
1.0
 94
        5
 62
     0
340
55
144
0.25
309
CONTENTFORMAT_END
171
     0
 94
        0
309
TABLEFORMAT_END
  1
CELLSTYLE_BEGIN
 90
        1
 91
        1
300
_TITLE
309
CELLSTYLE_END
300
CELLSTYLE
  1
TABLEFORMAT_BEGIN
 90
        5
170
     1
 91
        0
 92
        0
 62
   257
 93
        1
300
CONTENTFORMAT
  1
CONTENTFORMAT_BEGIN
 90
        0
 91
        0
 92
      512
 93
        0
300

 40
0.0
140
1.0
 94
        5
 62
     0
340
55
144
0.18
309
CONTENTFORMAT_END
171
     0
 94
        0
309
TABLEFORMAT_END
  1
CELLSTYLE_BEGIN
 90
        2
 91
        1
300
_HEADER
309
CELLSTYLE_END
300
CELLSTYLE
  1
TABLEFORMAT_BEGIN
 90
        5
170
     1
 91
        0
 92
        0
 62
   257
 93
        1
300
CONTENTFORMAT
  1
CONTENTFORMAT_BEGIN
 90
        0
 91
        0
 92
      512
 93
        0
300

 40
0.0
140
1.0
 94
        2
 62
     0
340
55
144
0.18
309
CONTENTFORMAT_END
171
     0
 94
        0
309
TABLEFORMAT_END
  1
CELLSTYLE_BEGIN
 90
        3
 91
        2
300
_DATA
309
CELLSTYLE_END
  0
ENDSEC
  0
EOF
