  0
SECTION
  2
HEADER
  9
$ACADVER
  1
AC1027
  9
$ACADMAINTVER
 70
   125
  9
$DWGCODEPAGE
  3
ANSI_1252
  9
$REQUIREDVERSIONS
160
                 0
  9
$INSBASE
 10
0.0
 20
0.0
 30
0.0
  9
$EXTMIN
 10
1.000000000000000E+20
 20
1.000000000000000E+20
 30
1.000000000000000E+20
  9
$EXTMAX
 10
-1.000000000000000E+20
 20
-1.000000000000000E+20
 30
-1.000000000000000E+20
  9
$LIMMIN
 10
0.0
 20
0.0
  9
$LIMMAX
 10
12.0
 20
9.0
  9
$ORTHOMODE
 70
     0
  9
$REGENMODE
 70
     1
  9
$FILLMODE
 70
     1
  9
$QTEXTMODE
 70
     0
  9
$MIRRTEXT
 70
     0
  9
$LTSCALE
 40
1.0
  9
$ATTMODE
 70
     1
  9
$TEXTSIZE
 40
0.2
  9
$TRACEWID
 40
0.05
  9
$TEXTSTYLE
  7
Standard
  9
$CLAYER
  8
0
  9
$CELTYPE
  6
ByLayer
  9
$CECOLOR
 62
   256
  9
$CELTSCALE
 40
1.0
  9
$DISPSILH
 70
     0
  9
$DIMSCALE
 40
1.0
  9
$DIMASZ
 40
0.18
  9
$DIMEXO
 40
0.0625
  9
$DIMDLI
 40
0.38
  9
$DIMRND
 40
0.0
  9
$DIMDLE
 40
0.0
  9
$DIMEXE
 40
0.18
  9
$DIMTP
 40
0.0
  9
$DIMTM
 40
0.0
  9
$DIMTXT
 40
0.18
  9
$DIMCEN
 40
0.09
  9
$DIMTSZ
 40
0.0
  9
$DIMTOL
 70
     0
  9
$DIMLIM
 70
     0
  9
$DIMTIH
 70
     1
  9
$DIMTOH
 70
     1
  9
$DIMSE1
 70
     0
  9
$DIMSE2
 70
     0
  9
$DIMTAD
 70
     0
  9
$DIMZIN
 70
     0
  9
$DIMBLK
  1

  9
$DIMASO
 70
     1
  9
$DIMSHO
 70
     1
  9
$DIMPOST
  1

  9
$DIMAPOST
  1

  9
$DIMALT
 70
     0
  9
$DIMALTD
 70
     2
  9
$DIMALTF
 40
25.4
  9
$DIMLFAC
 40
1.0
  9
$DIMTOFL
 70
     0
  9
$DIMTVP
 40
0.0
  9
$DIMTIX
 70
     0
  9
$DIMSOXD
 70
     0
  9
$DIMSAH
 70
     0
  9
$DIMBLK1
  1

  9
$DIMBLK2
  1

  9
$DIMSTYLE
  2
Standard
  9
$DIMCLRD
 70
     0
  9
$DIMCLRE
 70
     0
  9
$DIMCLRT
 70
     0
  9
$DIMTFAC
 40
1.0
  9
$DIMGAP
 40
0.09
  9
$DIMJUST
 70
     0
  9
$DIMSD1
 70
     0
  9
$DIMSD2
 70
     0
  9
$DIMTOLJ
 70
     1
  9
$DIMTZIN
 70
     0
  9
$DIMALTZ
 70
     0
  9
$DIMALTTZ
 70
     0
  9
$DIMUPT
 70
     0
  9
$DIMDEC
 70
     4
  9
$DIMTDEC
 70
     4
  9
$DIMALTU
 70
     2
  9
$DIMALTTD
 70
     2
  9
$DIMTXSTY
  7
Standard
  9
$DIMAUNIT
 70
     0
  9
$DIMADEC
 70
     0
  9
$DIMALTRND
 40
0.0
  9
$DIMAZIN
 70
     0
  9
$DIMDSEP
 70
    46
  9
$DIMATFIT
 70
     3
  9
$DIMFRAC
 70
     0
  9
$DIMLDRBLK
  1

  9
$DIMLUNIT
 70
     2
  9
$DIMLWD
 70
    -2
  9
$DIMLWE
 70
    -2
  9
$DIMTMOVE
 70
     0
  9
$DIMFXL
 40
1.0
  9
$DIMFXLON
 70
     0
  9
$DIMJOGANG
 40
0.7853981633974483
  9
$DIMTFILL
 70
     0
  9
$DIMTFILLCLR
 70
     0
  9
$DIMARCSYM
 70
     0
  9
$DIMLTYPE
  6

  9
$DIMLTEX1
  6

  9
$DIMLTEX2
  6

  9
$DIMTXTDIRECTION
 70
     0
  9
$LUNITS
 70
     2
  9
$LUPREC
 70
     4
  9
$SKETCHINC
 40
0.1
  9
$FILLETRAD
 40
0.0
  9
$AUNITS
 70
     0
  9
$AUPREC
 70
     0
  9
$MENU
  1
.
  9
$ELEVATION
 40
0.0
  9
$PELEVATION
 40
0.0
  9
$THICKNESS
 40
0.0
  9
$LIMCHECK
 70
     0
  9
$CHAMFERA
 40
0.0
  9
$CHAMFERB
 40
0.0
  9
$CHAMFERC
 40
0.0
  9
$CHAMFERD
 40
0.0
  9
$SKPOLY
 70
     0
  9
$TDCREATE
 40
2461230.135555556
  9
$TDUCREATE
 40
2461230.135555556
  9
$TDUPDATE
 40
2461230.135555556
  9
$TDUUPDATE
 40
2461230.135555556
  9
$TDINDWG
 40
0.0000000000
  9
$TDUSRTIMER
 40
0.0000000000
  9
$USRTIMER
 70
     1
  9
$ANGBASE
 50
0.0
  9
$ANGDIR
 70
     0
  9
$PDMODE
 70
     0
  9
$PDSIZE
 40
0.0
  9
$PLINEWID
 40
0.0
  9
$SPLFRAME
 70
     0
  9
$SPLINETYPE
 70
     6
  9
$SPLINESEGS
 70
     8
  9
$HANDSEED
  5
2DA
  9
$SURFTAB1
 70
     6
  9
$SURFTAB2
 70
     6
  9
$SURFTYPE
 70
     6
  9
$SURFU
 70
     6
  9
$SURFV
 70
     6
  9
$UCSBASE
  2

  9
$UCSNAME
  2

  9
$UCSORG
 10
0.0
 20
0.0
 30
0.0
  9
$UCSXDIR
 10
1.0
 20
0.0
 30
0.0
  9
$UCSYDIR
 10
0.0
 20
1.0
 30
0.0
  9
$UCSORTHOREF
  2

  9
$UCSORTHOVIEW
 70
     0
  9
$UCSORGTOP
 10
0.0
 20
0.0
 30
0.0
  9
$UCSORGBOTTOM
 10
0.0
 20
0.0
 30
0.0
  9
$UCSORGLEFT
 10
0.0
 20
0.0
 30
0.0
  9
$UCSORGRIGHT
 10
0.0
 20
0.0
 30
0.0
  9
$UCSORGFRONT
 10
0.0
 20
0.0
 30
0.0
  9
$UCSORGBACK
 10
0.0
 20
0.0
 30
0.0
  9
$PUCSBASE
  2

  9
$PUCSNAME
  2

  9
$PUCSORG
 10
0.0
 20
0.0
 30
0.0
  9
$PUCSXDIR
 10
1.0
 20
0.0
 30
0.0
  9
$PUCSYDIR
 10
0.0
 20
1.0
 30
0.0
  9
$PUCSORTHOREF
  2

  9
$PUCSORTHOVIEW
 70
     0
  9
$PUCSORGTOP
 10
0.0
 20
0.0
 30
0.0
  9
$PUCSORGBOTTOM
 10
0.0
 20
0.0
 30
0.0
  9
$PUCSORGLEFT
 10
0.0
 20
0.0
 30
0.0
  9
$PUCSORGRIGHT
 10
0.0
 20
0.0
 30
0.0
  9
$PUCSORGFRONT
 10
0.0
 20
0.0
 30
0.0
  9
$PUCSORGBACK
 10
0.0
 20
0.0
 30
0.0
  9
$USERI1
 70
     0
  9
$USERI2
 70
     0
  9
$USERI3
 70
     0
  9
$USERI4
 70
     0
  9
$USERI5
 70
     0
  9
$USERR1
 40
0.0
  9
$USERR2
 40
0.0
  9
$USERR3
 40
0.0
  9
$USERR4
 40
0.0
  9
$USERR5
 40
0.0
  9
$WORLDVIEW
 70
     1
  9
$SHADEDGE
 70
     3
  9
$SHADEDIF
 70
    70
  9
$TILEMODE
 70
     1
  9
$MAXACTVP
 70
    64
  9
$PINSBASE
 10
0.0
 20
0.0
 30
0.0
  9
$PLIMCHECK
 70
     0
  9
$PEXTMIN
 10
1.000000000000000E+20
 20
1.000000000000000E+20
 30
1.000000000000000E+20
  9
$PEXTMAX
 10
-1.000000000000000E+20
 20
-1.000000000000000E+20
 30
-1.000000000000000E+20
  9
$PLIMMIN
 10
0.0
 20
0.0
  9
$PLIMMAX
 10
12.0
 20
9.0
  9
$UNITMODE
 70
     0
  9
$VISRETAIN
 70
     1
  9
$PLINEGEN
 70
     0
  9
$PSLTSCALE
 70
     1
  9
$TREEDEPTH
 70
  3020
  9
$CMLSTYLE
  2
Standard
  9
$CMLJUST
 70
     0
  9
$CMLSCALE
 40
1.0
  9
$PROXYGRAPHICS
 70
     1
  9
$MEASUREMENT
 70
     0
  9
$CELWEIGHT
370
    -1
  9
$ENDCAPS
280
     0
  9
$JOINSTYLE
280
     0
  9
$LWDISPLAY
290
     0
  9
$INSUNITS
 70
     5
  9
$HYPERLINKBASE
  1

  9
$STYLESHEET
  1

  9
$XEDIT
290
     1
  9
$CEPSNTYPE
380
     0
  9
$PSTYLEMODE
290
     1
  9
$FINGERPRINTGUID
  2
{FC8B2ACE-2BAC-E94C-A15C-38613DF7F7BC}
  9
$VERSIONGUID
  2
{632CF24B-1F1A-C34D-AB99-C37FF25F585E}
  9
$EXTNAMES
290
     1
  9
$PSVPSCALE
 40
0.0
  9
$OLESTARTUP
290
     0
  9
$SORTENTS
280
   127
  9
$INDEXCTL
280
     0
  9
$HIDETEXT
280
     1
  9
$XCLIPFRAME
280
     2
  9
$HALOGAP
280
     0
  9
$OBSCOLOR
 70
   257
  9
$OBSLTYPE
280
     0
  9
$INTERSECTIONDISPLAY
280
     0
  9
$INTERSECTIONCOLOR
 70
   257
  9
$DIMASSOC
280
     2
  9
$PROJECTNAME
  1

  9
$CAMERADISPLAY
290
     0
  9
$LENSLENGTH
 40
50.0
  9
$CAMERAHEIGHT
 40
0.0
  9
$STEPSPERSEC
 40
2.0
  9
$STEPSIZE
 40
6.0
  9
$3DDWFPREC
 40
2.0
  9
$PSOLWIDTH
 40
0.25
  9
$PSOLHEIGHT
 40
4.0
  9
$LOFTANG1
 40
1.570796326794896
  9
$LOFTANG2
 40
1.570796326794896
  9
$LOFTMAG1
 40
0.0
  9
$LOFTMAG2
 40
0.0
  9
$LOFTPARAM
 70
     7
  9
$LOFTNORMALS
280
     1
  9
$LATITUDE
 40
37.795
  9
$LONGITUDE
 40
-122.394
  9
$NORTHDIRECTION
 40
0.0
  9
$TIMEZONE
 70
 -8000
  9
$LIGHTGLYPHDISPLAY
280
     1
  9
$TILEMODELIGHTSYNCH
280
     1
  9
$CMATERIAL
347
11
  9
$SOLIDHIST
280
     0
  9
$SHOWHIST
280
     1
  9
$DWFFRAME
280
     2
  9
$DGNFRAME
280
     0
  9
$REALWORLDSCALE
290
     1
  9
$INTERFERECOLOR
 62
     1
  9
$INTERFEREOBJVS
345
33
  9
$INTERFEREVPVS
346
30
  9
$CSHADOW
280
     0
  9
$SHADOWPLANELOCATION
 40
0.0
  0
ENDSEC
  0
SECTION
  2
CLASSES
  0
CLASS
  1
ACDBDICTIONARYWDFLT
  2
AcDbDictionaryWithDefault
  3
ObjectDBX Classes
 90
        0
 91
        1
280
     0
281
     0
  0
CLASS
  1
MATERIAL
  2
AcDbMaterial
  3
ObjectDBX Classes
 90
     1153
 91
        3
280
     0
281
     0
  0
CLASS
  1
VISUALSTYLE
  2
AcDbVisualStyle
  3
ObjectDBX Classes
 90
     4095
 91
       24
280
     0
281
     0
  0
CLASS
  1
SCALE
  2
AcDbScale
  3
ObjectDBX Classes
 90
     1153
 91
       17
280
     0
281
     0
  0
CLASS
  1
TABLESTYLE
  2
AcDbTableStyle
  3
ObjectDBX Classes
 90
     4095
 91
        1
280
     0
281
     0
  0
CLASS
  1
MLEADERSTYLE
  2
AcDbMLeaderStyle
  3
ACDB_MLEADERSTYLE_CLASS
 90
     4095
 91
        1
280
     0
281
     0
  0
CLASS
  1
ACDBSECTIONVIEWSTYLE
  2
AcDbSectionViewStyle
  3
ObjectDBX Classes
 90
     1025
 91
        1
280
     0
281
     0
  0
CLASS
  1
ACDBDETAILVIEWSTYLE
  2
AcDbDetailViewStyle
  3
ObjectDBX Classes
 90
     1025
 91
        1
280
     0
281
     0
  0
CLASS
  1
DICTIONARYVAR
  2
AcDbDictionaryVar
  3
ObjectDBX Classes
 90
        0
 91
        5
280
     0
281
     0
  0
CLASS
  1
CELLSTYLEMAP
  2
AcDbCellStyleMap
  3
ObjectDBX Classes
 90
     1152
 91
        1
280
     0
281
     0
  0
ENDSEC
  0
SECTION
  2
TABLES
  0
TABLE
  2
VPORT
  5
8
330
0
100
AcDbSymbolTable
 70
     1
1001
ACAD
1000
DbSaveVer
1071
      471
  0
VPORT
  5
57
330
8
100
AcDbSymbolTableRecord
100
AcDbViewportTableRecord
  2
*Active
 70
     0
 10
0.0
 20
0.0
 11
1.0
 21
1.0
 12
500.0
 22
500.0
 13
0.0
 23
0.0
 14
1.0
 24
1.0
 15
0.0
 25
0.0
 16
0.0
 26
0.0
 36
1.0
 17
0.0
 27
0.0
 37
0.0
 40
12.0
 41
1.0
 42
50.0
 43
0.0
 44
0.0
 50
0.0
 51
0.0
 71
     0
 72
   100
 73
     1
 74
     1
 75
     0
 76
     0
 77
     0
 78
     0
281
     0
 65
     1
110
0.0
120
0.0
130
0.0
111
1.0
121
0.0
131
0.0
112
0.0
122
1.0
132
0.0
 79
     0
146
0.0
 60
     3
 61
     5
292
     1
282
     1
141
0.0
142
0.0
 63
   250
421
  3355443
  0
ENDTAB
  0
TABLE
  2
LTYPE
  5
5
330
0
100
AcDbSymbolTable
 70
     1
  0
LTYPE
  5
5B
330
5
100
AcDbSymbolTableRecord
100
AcDbLinetypeTableRecord
  2
ByBlock
 70
     0
  3

 72
    65
 73
     0
 40
0.0
  0
LTYPE
  5
5C
330
5
100
AcDbSymbolTableRecord
100
AcDbLinetypeTableRecord
  2
ByLayer
 70
     0
  3

 72
    65
 73
     0
 40
0.0
  0
LTYPE
  5
5D
330
5
100
AcDbSymbolTableRecord
100
AcDbLinetypeTableRecord
  2
Continuous
 70
     0
  3
Solid line
 72
    65
 73
     0
 40
0.0
  0
ENDTAB
  0
TABLE
  2
LAYER
  5
2
330
0
100
AcDbSymbolTable
 70
     2
  0
LAYER
  5
54
330
2
100
AcDbSymbolTableRecord
100
AcDbLayerTableRecord
  2
0
 70
     0
 62
     7
  6
Continuous
370
    -3
390
F
347
21
348
0
  0
LAYER
  5
7A
330
2
100
AcDbSymbolTableRecord
100
AcDbLayerTableRecord
  2
EXTERIOR v2_Sketch2
 70
     0
 62
     7
  6
Continuous
370
    -3
390
F
347
21
348
0
1001
NFusion_SketchTransform
1000
1.000000;0.000000;0.000000;0.000000;0.000000;1.000000;0.000000;0.000000;0.000000;0.000000;1.000000;0.000000;0.000000;0.000000;0.000000;1.000000
  0
ENDTAB
  0
TABLE
  2
STYLE
  5
3
330
0
100
AcDbSymbolTable
 70
     2
  0
STYLE
  5
55
330
3
100
AcDbSymbolTableRecord
100
AcDbTextStyleTableRecord
  2
Standard
 70
     0
 40
0.0
 41
1.0
 50
0.0
 71
     0
 42
0.2
  3
txt
  4

  0
STYLE
  5
5A
330
3
100
AcDbSymbolTableRecord
100
AcDbTextStyleTableRecord
  2
Annotative
 70
     0
 40
0.0
 41
1.0
 50
0.0
 71
     0
 42
0.2
  3
txt
  4

1001
AcadAnnotative
1000
AnnotativeData
1002
{
1070
     1
1070
     1
1002
}
  0
ENDTAB
  0
TABLE
  2
VIEW
  5
6
330
0
100
AcDbSymbolTable
 70
     0
  0
ENDTAB
  0
TABLE
  2
UCS
  5
7
330
0
100
AcDbSymbolTable
 70
     0
  0
ENDTAB
  0
TABLE
  2
APPID
  5
9
330
0
100
AcDbSymbolTable
 70
     4
  0
APPID
  5
56
330
9
100
AcDbSymbolTableRecord
100
AcDbRegAppTableRecord
  2
ACAD
 70
     0
  0
APPID
  5
5E
330
9
100
AcDbSymbolTableRecord
100
AcDbRegAppTableRecord
  2
AcadAnnotative
 70
     0
  0
APPID
  5
78
330
9
100
AcDbSymbolTableRecord
100
AcDbRegAppTableRecord
  2
EDIT_IN_FUSION_ACAD_ADDIN
 70
     0
  0
APPID
  5
79
330
9
100
AcDbSymbolTableRecord
100
AcDbRegAppTableRecord
  2
NFusion_SketchTransform
 70
     0
  0
ENDTAB
  0
TABLE
  2
DIMSTYLE
  5
A
330
0
100
AcDbSymbolTable
 70
     2
100
AcDbDimStyleTable
 71
     0
  0
DIMSTYLE
105
58
330
A
100
AcDbSymbolTableRecord
100
AcDbDimStyleTableRecord
  2
Standard
 70
     0
340
55
  0
DIMSTYLE
105
59
330
A
100
AcDbSymbolTableRecord
100
AcDbDimStyleTableRecord
  2
Annotative
 70
     0
340
55
1001
AcadAnnotative
1000
AnnotativeData
1002
{
1070
     1
1070
     1
1002
}
  0
ENDTAB
  0
TABLE
  2
BLOCK_RECORD
  5
1
330
0
100
AcDbSymbolTable
 70
     1
  0
BLOCK_RECORD
  5
70
330
1
100
AcDbSymbolTableRecord
100
AcDbBlockTableRecord
  2
*Model_Space
340
73
 70
     0
280
     1
281
     0
  0
BLOCK_RECORD
  5
6C
330
1
100
AcDbSymbolTableRecord
100
AcDbBlockTableRecord
  2
*Paper_Space
340
6F
 70
     0
280
     1
281
     0
  0
BLOCK_RECORD
  5
74
330
1
100
AcDbSymbolTableRecord
100
AcDbBlockTableRecord
  2
*Paper_Space0
340
77
 70
     0
280
     1
281
     0
  0
ENDTAB
  0
ENDSEC
  0
SECTION
  2
BLOCKS
  0
BLOCK
  5
71
330
70
100
AcDbEntity
  8
0
100
AcDbBlockBegin
  2
*Model_Space
 70
     0
 10
0.0
 20
0.0
 30
0.0
  3
*Model_Space
  1

  0
ENDBLK
  5
72
330
70
100
AcDbEntity
  8
0
100
AcDbBlockEnd
  0
BLOCK
  5
6D
330
6C
100
AcDbEntity
 67
     1
  8
0
100
AcDbBlockBegin
  2
*Paper_Space
 70
     0
 10
0.0
 20
0.0
 30
0.0
  3
*Paper_Space
  1

  0
ENDBLK
  5
6E
330
6C
100
AcDbEntity
 67
     1
  8
0
100
AcDbBlockEnd
  0
BLOCK
  5
75
330
74
100
AcDbEntity
 67
     1
  8
0
100
AcDbBlockBegin
  2
*Paper_Space0
 70
     0
 10
0.0
 20
0.0
 30
0.0
  3
*Paper_Space0
  1

  0
ENDBLK
  5
76
330
74
100
AcDbEntity
 67
     1
  8
0
100
AcDbBlockEnd
  0
ENDSEC
  0
SECTION
  2
ENTITIES
  0
POINT
  5
7B
330
70
100
AcDbEntity
  8
EXTERIOR v2_Sketch2
100
AcDbPoint
 10
0.0
 20
0.0
 30
0.0
  0
POINT
  5
7C
330
70
100
AcDbEntity
  8
EXTERIOR v2_Sketch2
100
AcDbPoint
 10
9.40478480776623
 20
3.835940774982344
 30
0.0
  0
POINT
  5
7D
330
70
100
AcDbEntity
  8
EXTERIOR v2_Sketch2
100
AcDbPoint
 10
9.329189294643683
 20
0.556721433997021
 30
0.0
  0
POINT
  5
7E
330
70
100
AcDbEntity
  8
EXTERIOR v2_Sketch2
100
AcDbPoint
 10
12.0329078982326
 20
8.273429166370583
 30
0.0
  0
POINT
  5
7F
330
70
100
AcDbEntity
  8
EXTERIOR v2_Sketch2
100
AcDbPoint
 10
9.404902809146221
 20
7.835852893028794
 30
0.0
  0
LINE
  5
80
330
70
100
AcDbEntity
  8
EXTERIOR v2_Sketch2
100
AcDbLine
 10
12.64650057299554
 20
3.467797511654025
 30
0.0
 11
12.32598746668921
 21
3.235141329914184
 31
0.0
  0
LINE
  5
81
330
70
100
AcDbEntity
  8
EXTERIOR v2_Sketch2
100
AcDbLine
 10
12.64650858965285
 20
8.205874681939359
 30
0.0
 11
12.32598663954827
 21
8.438527901733408
 31
0.0
  0
LINE
  5
82
330
70
100
AcDbEntity
  8
EXTERIOR v2_Sketch2
100
AcDbLine
 10
-1.845093887614595
 20
3.085484392575426
 30
0.0
 11
-1.336696364851245
 21
3.46675582949831
 31
0.0
  0
ARC
  5
83
330
70
100
AcDbEntity
  8
EXTERIOR v2_Sketch2
100
AcDbCircle
 10
-1.144611974150187
 20
3.385484392570986
 30
0.0
 40
0.300000000000004
100
AcDbArc
 50
339.3738629457244
 51
0.000000000008227
  0
LINE
  5
84
330
70
100
AcDbEntity
  8
EXTERIOR v2_Sketch2
100
AcDbLine
 10
9.404744494241269
 20
1.835995759736066
 30
0.0
 11
9.404744494241269
 21
1.836013568863672
 31
0.0
  0
ARC
  5
85
330
70
100
AcDbEntity
  8
EXTERIOR v2_Sketch2
100
AcDbCircle
 10
9.925545489651105
 20
2.948277560893345
 30
0.0
 40
0.1000000000000009
100
AcDbArc
 50
290.6255481052006
 51
35.97539614217943
  0
LINE
  5
86
330
70
100
AcDbEntity
  8
EXTERIOR v2_Sketch2
100
AcDbLine
 10
9.404771451840005
 20
4.836421899155994
 30
0.0
 11
9.404771451840005
 21
4.836404090028271
 31
0.0
  0
ARC
  5
87
330
70
100
AcDbEntity
  8
EXTERIOR v2_Sketch2
100
AcDbCircle
 10
9.855040020032436
 20
1.536013568863901
 30
0.0
 40
0.3000000000000003
100
AcDbArc
 50
69.37386294575354
 51
90.00000000002849
  0
LINE
  5
88
330
70
100
AcDbEntity
  8
EXTERIOR v2_Sketch2
100
AcDbLine
 10
-1.336696364851245
 20
3.46675582949831
 30
0.0
 11
-1.016174414746668
 21
3.234102609704261
 31
0.0
  0
ARC
  5
89
330
70
100
AcDbEntity
  8
EXTERIOR v2_Sketch2
100
AcDbCircle
 10
-0.9574321869400321
 20
3.315030668326175
 30
0.0
 40
0.099999999999994
100
AcDbArc
 50
234.0257021837352
 51
339.3738629457272
  0
LINE
  5
8A
330
70
100
AcDbEntity
  8
EXTERIOR v2_Sketch2
100
AcDbLine
 10
12.64650858965286
 20
4.205866389143724
 30
0.0
 11
12.32598663954828
 21
4.438519608937771
 31
0.0
  0
LINE
  5
8B
330
70
100
AcDbEntity
  8
EXTERIOR v2_Sketch2
100
AcDbLine
 10
12.8549061124008
 20
5.836833090760932
 30
0.0
 11
12.85490611239217
 21
6.536833090760931
 31
0.0
  0
LINE
  5
8C
330
70
100
AcDbEntity
  8
EXTERIOR v2_Sketch2
100
AcDbLine
 10
1.154479960675448
 20
3.835793274275218
 30
0.0
 11
1.535751397582282
 21
3.327395751530382
 31
0.0
  0
LINE
  5
8D
330
70
100
AcDbEntity
  8
EXTERIOR v2_Sketch2
100
AcDbLine
 10
-0.8446119741501831
 20
3.385484392571028
 30
0.0
 11
-0.8446119741503217
 21
4.286102155973078
 31
0.0
  0
ARC
  5
8E
330
70
100
AcDbEntity
  8
EXTERIOR v2_Sketch2
100
AcDbCircle
 10
8.95442225662995
 20
1.536013568863453
 30
0.0
 40
0.3000000000000016
100
AcDbArc
 50
90.00000000002849
 51
110.6255481052278
  0
LINE
  5
8F
330
70
100
AcDbEntity
  8
EXTERIOR v2_Sketch2
100
AcDbLine
 10
9.404771451840005
 20
4.836421899155994
 30
0.0
 11
9.404771451840005
 21
4.836404090028271
 31
0.0
  0
LINE
  5
90
330
70
100
AcDbEntity
  8
EXTERIOR v2_Sketch2
100
AcDbLine
 10
2.273769406974746
 20
1.344451586464418
 30
0.0
 11
2.506422626764393
 21
1.664973536562779
 31
0.0
  0
ARC
  5
91
330
70
100
AcDbEntity
  8
EXTERIOR v2_Sketch2
100
AcDbCircle
 10
9.855093689451543
 20
4.536421899155992
 30
0.0
 40
0.3000000000000038
100
AcDbArc
 50
69.37445189481548
 51
89.99999999999864
  0
LINE
  5
92
330
70
100
AcDbEntity
  8
EXTERIOR v2_Sketch2
100
AcDbLine
 10
9.035747362975845
 20
3.3275424629968
 30
0.0
 11
8.803094143180704
 21
3.007020512890805
 31
0.0
  0
LINE
  5
93
330
70
100
AcDbEntity
  8
EXTERIOR v2_Sketch2
100
AcDbLine
 10
9.773816240464764
 20
3.32753444633816
 30
0.0
 11
10.00647242220468
 21
3.007021340031796
 31
0.0
  0
ARC
  5
94
330
70
100
AcDbEntity
  8
EXTERIOR v2_Sketch2
100
AcDbCircle
 10
9.925545489652735
 20
4.723602410557185
 30
0.0
 40
0.1000000000000027
100
AcDbArc
 50
324.0246038578354
 51
69.37445189481842
  0
ARC
  5
95
330
70
100
AcDbEntity
  8
EXTERIOR v2_Sketch2
100
AcDbCircle
 10
9.855093689451543
 20
4.536421899155991
 30
0.0
 40
0.3000000000000047
100
AcDbArc
 50
69.37445189481554
 51
89.99999999999864
  0
LINE
  5
96
330
70
100
AcDbEntity
  8
EXTERIOR v2_Sketch2
100
AcDbLine
 10
8.654593927448971
 20
7.835852103787864
 30
0.0
 11
9.035865364355835
 21
7.327454581043248
 31
0.0
  0
LINE
  5
97
330
70
100
AcDbEntity
  8
EXTERIOR v2_Sketch2
100
AcDbLine
 10
5.804825356323199
 20
5.135684927429948
 30
0.0
 11
5.804846783843727
 21
6.535684927101992
 31
0.0
  0
LINE
  5
98
330
70
100
AcDbEntity
  8
EXTERIOR v2_Sketch2
100
AcDbLine
 10
5.504846783878866
 20
6.535689518713534
 30
0.0
 11
5.504825356358338
 21
5.13568951904149
 31
0.0
  0
LINE
  5
99
330
70
100
AcDbEntity
  8
EXTERIOR v2_Sketch2
100
AcDbLine
 10
2.655040843889333
 20
0.8360540637246254
 30
0.0
 11
8.65447824697094
 21
0.8356063144508144
 31
0.0
  0
LINE
  5
9A
330
70
100
AcDbEntity
  8
EXTERIOR v2_Sketch2
100
AcDbLine
 10
-1.845093887614595
 20
3.085484392575426
 30
0.0
 11
-1.336696364851245
 21
3.46675582949831
 31
0.0
  0
LINE
  5
9B
330
70
100
AcDbEntity
  8
EXTERIOR v2_Sketch2
100
AcDbLine
 10
-1.336696364851245
 20
3.46675582949831
 30
0.0
 11
-1.016174414746668
 21
3.234102609704261
 31
0.0
  0
ARC
  5
9C
330
70
100
AcDbEntity
  8
EXTERIOR v2_Sketch2
100
AcDbCircle
 10
9.925545489651099
 20
2.948277560893345
 30
0.0
 40
0.1000000000000013
100
AcDbArc
 50
290.6255481052005
 51
35.97539614217638
  0
ARC
  5
9D
330
70
100
AcDbEntity
  8
EXTERIOR v2_Sketch2
100
AcDbCircle
 10
-0.9574321869400321
 20
3.315030668326175
 30
0.0
 40
0.099999999999994
100
AcDbArc
 50
234.0257021837352
 51
339.3738629457272
  0
LINE
  5
9E
330
70
100
AcDbEntity
  8
EXTERIOR v2_Sketch2
100
AcDbLine
 10
1.45456704089741
 20
8.836283480485271
 30
0.0
 11
2.355184804299861
 21
8.836283480485267
 31
0.0
  0
LINE
  5
9F
330
70
100
AcDbEntity
  8
EXTERIOR v2_Sketch2
100
AcDbLine
 10
1.904745318106794
 20
1.836518168031621
 30
0.0
 11
1.904745318106797
 21
1.836535977159345
 31
0.0
  0
LINE
  5
A0
330
70
100
AcDbEntity
  8
EXTERIOR v2_Sketch2
100
AcDbLine
 10
8.654593927429086
 20
7.835852103772952
 30
0.0
 11
9.035865364349042
 21
8.344249626511571
 31
0.0
  0
ARC
  5
A1
330
70
100
AcDbEntity
  8
EXTERIOR v2_Sketch2
100
AcDbCircle
 10
9.85509368944986
 20
3.135458072294525
 30
0.0
 40
0.3000000000000043
100
AcDbArc
 50
270.0000000000143
 51
290.6255481052008
  0
ARC
  5
A2
330
70
100
AcDbEntity
  8
EXTERIOR v2_Sketch2
100
AcDbCircle
 10
9.925545489652733
 20
4.723602410557184
 30
0.0
 40
0.1000000000000027
100
AcDbArc
 50
324.0246038578354
 51
69.37445189481824
  0
LINE
  5
A3
330
70
100
AcDbEntity
  8
EXTERIOR v2_Sketch2
100
AcDbLine
 10
9.773816240464766
 20
3.327534446338161
 30
0.0
 11
10.00647242220469
 21
3.007021340031798
 31
0.0
  0
LINE
  5
A4
330
70
100
AcDbEntity
  8
EXTERIOR v2_Sketch2
100
AcDbLine
 10
9.404771451840005
 20
4.836421899155994
 30
0.0
 11
9.404771451840005
 21
4.836404090028271
 31
0.0
  0
ARC
  5
A5
330
70
100
AcDbEntity
  8
EXTERIOR v2_Sketch2
100
AcDbCircle
 10
8.884022201802615
 20
2.948278285084155
 30
0.0
 40
0.0999999999999992
100
AcDbArc
 50
144.0257021837276
 51
249.3738629457319
  0
LINE
  5
A6
330
70
100
AcDbEntity
  8
EXTERIOR v2_Sketch2
100
AcDbLine
 10
8.654593927448971
 20
7.835852103787862
 30
0.0
 11
9.035865364355835
 21
7.327454581043248
 31
0.0
  0
LINE
  5
A7
330
70
100
AcDbEntity
  8
EXTERIOR v2_Sketch2
100
AcDbLine
 10
9.404771451840005
 20
4.836404090028271
 30
0.0
 11
9.404784807750317
 21
4.836421899155994
 31
0.0
  0
ARC
  5
A8
330
70
100
AcDbEntity
  8
EXTERIOR v2_Sketch2
100
AcDbCircle
 10
8.9544759260474
 20
3.135458072294311
 30
0.0
 40
0.3000000000000065
100
AcDbArc
 50
249.3738629457311
 51
270.0000000000139
  0
ARC
  5
A9
330
70
100
AcDbEntity
  8
EXTERIOR v2_Sketch2
100
AcDbCircle
 10
8.9544759260474
 20
3.135458072294317
 30
0.0
 40
0.3000000000000044
100
AcDbArc
 50
249.373862945731
 51
270.0000000000132
  0
LINE
  5
AA
330
70
100
AcDbEntity
  8
EXTERIOR v2_Sketch2
100
AcDbLine
 10
9.035699705614801
 20
1.343937194820203
 30
0.0
 11
8.803043523875055
 21
1.664450301126116
 31
0.0
  0
ARC
  5
AB
330
70
100
AcDbEntity
  8
EXTERIOR v2_Sketch2
100
AcDbCircle
 10
12.26724441174164
 20
4.357591550315857
 30
0.0
 40
0.099999999999994
100
AcDbArc
 50
54.02570218373523
 51
159.3738629457272
  0
LINE
  5
AC
330
70
100
AcDbEntity
  8
EXTERIOR v2_Sketch2
100
AcDbLine
 10
9.855040020032287
 20
1.836013568863903
 30
0.0
 11
8.954422256629801
 21
1.836013568863455
 31
0.0
  0
LINE
  5
AD
330
70
100
AcDbEntity
  8
EXTERIOR v2_Sketch2
100
AcDbLine
 10
9.404771451840005
 20
4.836421899155994
 30
0.0
 11
9.404771451840005
 21
4.836404090028271
 31
0.0
  0
ARC
  5
AE
330
70
100
AcDbEntity
  8
EXTERIOR v2_Sketch2
100
AcDbCircle
 10
9.925545489651105
 20
2.948277560893343
 30
0.0
 40
0.0999999999999976
100
AcDbArc
 50
290.6255481052013
 51
35.97539614218001
  0
ARC
  5
AF
330
70
100
AcDbEntity
  8
EXTERIOR v2_Sketch2
100
AcDbCircle
 10
1.383971280294064
 20
1.723716488560581
 30
0.0
 40
0.0999999999999977
100
AcDbArc
 50
110.6255481051762
 51
215.9753961421596
  0
ARC
  5
B0
330
70
100
AcDbEntity
  8
EXTERIOR v2_Sketch2
100
AcDbCircle
 10
-1.144611974150187
 20
3.385484392570986
 30
0.0
 40
0.300000000000004
100
AcDbArc
 50
339.3738629457244
 51
0.000000000008227
  0
LINE
  5
B1
330
70
100
AcDbEntity
  8
EXTERIOR v2_Sketch2
100
AcDbLine
 10
8.654475926049094
 20
3.835939985726501
 30
0.0
 11
9.035747362969051
 21
4.344337508465121
 31
0.0
  0
LINE
  5
B2
330
70
100
AcDbEntity
  8
EXTERIOR v2_Sketch2
100
AcDbLine
 10
-1.336696364851245
 20
3.46675582949831
 30
0.0
 11
-1.016174414746668
 21
3.234102609704261
 31
0.0
  0
LINE
  5
B3
330
70
100
AcDbEntity
  8
EXTERIOR v2_Sketch2
100
AcDbLine
 10
8.654475926068977
 20
3.835939985741413
 30
0.0
 11
9.035747362975845
 21
3.3275424629968
 31
0.0
  0
ARC
  5
B4
330
70
100
AcDbEntity
  8
EXTERIOR v2_Sketch2
100
AcDbCircle
 10
-0.9574321869400321
 20
3.315030668326175
 30
0.0
 40
0.099999999999994
100
AcDbArc
 50
234.0257021837352
 51
339.3738629457272
  0
ARC
  5
B5
330
70
100
AcDbEntity
  8
EXTERIOR v2_Sketch2
100
AcDbCircle
 10
9.855093689451543
 20
4.536421899155992
 30
0.0
 40
0.3000000000000038
100
AcDbArc
 50
69.37445189481548
 51
89.99999999999864
  0
LINE
  5
B6
330
70
100
AcDbEntity
  8
EXTERIOR v2_Sketch2
100
AcDbLine
 10
9.404771451840005
 20
4.836404090028271
 30
0.0
 11
9.404784807750317
 21
4.836421899155994
 31
0.0
  0
LINE
  5
B7
330
70
100
AcDbEntity
  8
EXTERIOR v2_Sketch2
100
AcDbLine
 10
9.773768583107205
 20
1.343929178165636
 30
0.0
 11
10.00642180289908
 21
1.664451128267482
 31
0.0
  0
ARC
  5
B8
330
70
100
AcDbEntity
  8
EXTERIOR v2_Sketch2
100
AcDbCircle
 10
9.925545489652735
 20
4.723602410557185
 30
0.0
 40
0.1000000000000027
100
AcDbArc
 50
324.0246038578354
 51
69.37445189481842
  0
LINE
  5
B9
330
70
100
AcDbEntity
  8
EXTERIOR v2_Sketch2
100
AcDbLine
 10
9.404744494241269
 20
1.835995759736066
 30
0.0
 11
9.404731138331044
 21
1.836013568863672
 31
0.0
  0
ARC
  5
BA
330
70
100
AcDbEntity
  8
EXTERIOR v2_Sketch2
100
AcDbCircle
 10
-1.144611974150187
 20
3.385484392570986
 30
0.0
 40
0.300000000000004
100
AcDbArc
 50
339.3738629457244
 51
0.000000000008227
  0
LINE
  5
BB
330
70
100
AcDbEntity
  8
EXTERIOR v2_Sketch2
100
AcDbLine
 10
9.404771451840005
 20
4.836404090028271
 30
0.0
 11
9.404784807750317
 21
4.836421899155994
 31
0.0
  0
LINE
  5
BC
330
70
100
AcDbEntity
  8
EXTERIOR v2_Sketch2
100
AcDbLine
 10
8.654475926049094
 20
3.835939985726501
 30
0.0
 11
9.035747362969051
 21
4.344337508465121
 31
0.0
  0
LINE
  5
BD
330
70
100
AcDbEntity
  8
EXTERIOR v2_Sketch2
100
AcDbLine
 10
9.404771451840005
 20
4.836421899155994
 30
0.0
 11
9.404771451840005
 21
4.836404090028271
 31
0.0
  0
LINE
  5
BE
330
70
100
AcDbEntity
  8
EXTERIOR v2_Sketch2
100
AcDbLine
 10
9.404744494241269
 20
1.836013568863672
 30
0.0
 11
9.404744494241269
 21
1.835995759736066
 31
0.0
  0
LINE
  5
BF
330
70
100
AcDbEntity
  8
EXTERIOR v2_Sketch2
100
AcDbLine
 10
-1.845093887614595
 20
3.085484392575426
 30
0.0
 11
-1.336696364851245
 21
3.46675582949831
 31
0.0
  0
ARC
  5
C0
330
70
100
AcDbEntity
  8
EXTERIOR v2_Sketch2
100
AcDbCircle
 10
-1.144611974150187
 20
3.385484392570986
 30
0.0
 40
0.300000000000004
100
AcDbArc
 50
339.3738629457244
 51
0.000000000008227
  0
ARC
  5
C1
330
70
100
AcDbEntity
  8
EXTERIOR v2_Sketch2
100
AcDbCircle
 10
8.884022201802615
 20
2.948278285084147
 30
0.0
 40
0.0999999999999992
100
AcDbArc
 50
144.0257021837276
 51
249.3738629457319
  0
ARC
  5
C2
330
70
100
AcDbEntity
  8
EXTERIOR v2_Sketch2
100
AcDbCircle
 10
8.884140203182607
 20
6.948190403130604
 30
0.0
 40
0.1000000000000012
100
AcDbArc
 50
144.0257021837294
 51
249.3738629457324
  0
ARC
  5
C3
330
70
100
AcDbEntity
  8
EXTERIOR v2_Sketch2
100
AcDbCircle
 10
2.425636604501045
 20
8.723463991886461
 30
0.0
 40
0.1000000000000027
100
AcDbArc
 50
324.0246038578354
 51
69.3744518948159
  0
LINE
  5
C4
330
70
100
AcDbEntity
  8
EXTERIOR v2_Sketch2
100
AcDbLine
 10
-1.545093887604844
 20
1.660899824226175
 30
0.0
 11
-1.845093887604844
 21
1.660899824224122
 31
0.0
  0
LINE
  5
C5
330
70
100
AcDbEntity
  8
EXTERIOR v2_Sketch2
100
AcDbLine
 10
1.15447996067559
 20
3.835793274275322
 30
0.0
 11
1.535751397582332
 21
3.327395751530596
 31
0.0
  0
LINE
  5
C6
330
70
100
AcDbEntity
  8
EXTERIOR v2_Sketch2
100
AcDbLine
 10
1.454567040895591
 20
6.83531965362343
 30
0.0
 11
2.35518480429812
 21
6.835319653623573
 31
0.0
  0
ARC
  5
C7
330
70
100
AcDbEntity
  8
EXTERIOR v2_Sketch2
100
AcDbCircle
 10
2.425680145222345
 20
9.948652830945786
 30
0.0
 40
0.0999999999999959
100
AcDbArc
 50
290.6255481051908
 51
35.9753961421749
  0
LINE
  5
C8
330
70
100
AcDbEntity
  8
EXTERIOR v2_Sketch2
100
AcDbLine
 10
-0.8446119741501831
 20
3.385484392571028
 30
0.0
 11
-0.8446119741503217
 21
4.286102155973078
 31
0.0
  0
LINE
  5
C9
330
70
100
AcDbEntity
  8
EXTERIOR v2_Sketch2
100
AcDbLine
 10
2.273907355315204
 20
8.344207106442123
 30
0.0
 11
2.506563537054647
 21
8.664720212748026
 31
0.0
  0
ARC
  5
CA
330
70
100
AcDbEntity
  8
EXTERIOR v2_Sketch2
100
AcDbCircle
 10
8.954593927427392
 20
7.135370190340761
 30
0.0
 40
0.3000000000000078
100
AcDbArc
 50
249.3738629457312
 51
270.0000000000143
  0
ARC
  5
CB
330
70
100
AcDbEntity
  8
EXTERIOR v2_Sketch2
100
AcDbCircle
 10
5.654899976386657
 20
10.01110265374068
 30
0.0
 40
0.1499999999999995
100
AcDbArc
 50
359.9991230667915
 51
179.9991222130179
  0
LINE
  5
CC
330
70
100
AcDbEntity
  8
EXTERIOR v2_Sketch2
100
AcDbLine
 10
10.15521463115873
 20
10.83631525562643
 30
0.0
 11
13.1549061124008
 21
10.83631525556485
 31
0.0
  0
ARC
  5
CD
330
70
100
AcDbEntity
  8
EXTERIOR v2_Sketch2
100
AcDbCircle
 10
8.954593927427389
 20
7.13537019034077
 30
0.0
 40
0.3000000000000049
100
AcDbArc
 50
249.3738629457317
 51
270.0000000000149
  0
LINE
  5
CE
330
70
100
AcDbEntity
  8
EXTERIOR v2_Sketch2
100
AcDbLine
 10
1.154479960675317
 20
3.835793274275118
 30
0.0
 11
1.535751397582266
 21
3.327395751530147
 31
0.0
  0
LINE
  5
CF
330
70
100
AcDbEntity
  8
EXTERIOR v2_Sketch2
100
AcDbLine
 10
2.273950896036092
 20
10.32790971639057
 30
0.0
 11
2.655228345023104
 21
10.83631525578042
 31
0.0
  0
LINE
  5
D0
330
70
100
AcDbEntity
  8
EXTERIOR v2_Sketch2
100
AcDbLine
 10
-1.845093887614595
 20
3.085484392575426
 30
0.0
 11
-1.845093887608951
 21
2.260899824224122
 31
0.0
  0
ARC
  5
D1
330
70
100
AcDbEntity
  8
EXTERIOR v2_Sketch2
100
AcDbCircle
 10
8.884140203182607
 20
6.948190403130606
 30
0.0
 40
0.0999999999999984
100
AcDbArc
 50
144.0257021837282
 51
249.3738629457328
  0
LINE
  5
D2
330
70
100
AcDbEntity
  8
EXTERIOR v2_Sketch2
100
AcDbLine
 10
12.85490611240645
 20
10.01173068721149
 30
0.0
 11
13.15490611240645
 21
10.01173068721354
 31
0.0
  0
LINE
  5
D3
330
70
100
AcDbEntity
  8
EXTERIOR v2_Sketch2
100
AcDbLine
 10
13.15490611240645
 20
10.01173068721354
 30
0.0
 11
13.1549061124008
 21
10.83631525556485
 31
0.0
  0
LINE
  5
D4
330
70
100
AcDbEntity
  8
EXTERIOR v2_Sketch2
100
AcDbLine
 10
-1.336696364851245
 20
3.46675582949831
 30
0.0
 11
-1.016174414746668
 21
3.234102609704261
 31
0.0
  0
LINE
  5
D5
330
70
100
AcDbEntity
  8
EXTERIOR v2_Sketch2
100
AcDbLine
 10
2.273907355315204
 20
8.344207106442123
 30
0.0
 11
2.655184804299858
 21
7.835801567055771
 31
0.0
  0
LINE
  5
D6
330
70
100
AcDbEntity
  8
EXTERIOR v2_Sketch2
100
AcDbLine
 10
10.15504002001538
 20
0.835531655428285
 30
0.0
 11
13.15490591668335
 21
0.8358680330319653
 31
0.0
  0
LINE
  5
D7
330
70
100
AcDbEntity
  8
EXTERIOR v2_Sketch2
100
AcDbLine
 10
12.85490611241055
 20
9.411730687211495
 30
0.0
 11
13.15490611241055
 21
9.411730687213548
 31
0.0
  0
LINE
  5
D8
330
70
100
AcDbEntity
  8
EXTERIOR v2_Sketch2
100
AcDbLine
 10
9.773816240464764
 20
3.32753444633816
 30
0.0
 11
10.15509368945122
 21
3.835939985726742
 31
0.0
  0
LINE
  5
D9
330
70
100
AcDbEntity
  8
EXTERIOR v2_Sketch2
100
AcDbLine
 10
2.273820275073076
 20
3.327387734873739
 30
0.0
 11
2.655097724057737
 21
3.835793274260091
 31
0.0
  0
LINE
  5
DA
330
70
100
AcDbEntity
  8
EXTERIOR v2_Sketch2
100
AcDbLine
 10
9.035865364355839
 20
7.327454581043243
 30
0.0
 11
8.803212144560696
 21
7.006932630937248
 31
0.0
  0
LINE
  5
DB
330
70
100
AcDbEntity
  8
EXTERIOR v2_Sketch2
100
AcDbLine
 10
-0.8446119741501831
 20
3.385484392571028
 30
0.0
 11
-0.8446119741503217
 21
4.286102155973078
 31
0.0
  0
LINE
  5
DC
330
70
100
AcDbEntity
  8
EXTERIOR v2_Sketch2
100
AcDbLine
 10
9.773934241846887
 20
8.3442576431593
 30
0.0
 11
10.00659042358633
 21
8.664770749465199
 31
0.0
  0
LINE
  5
DD
330
70
100
AcDbEntity
  8
EXTERIOR v2_Sketch2
100
AcDbLine
 10
2.273907355315204
 20
8.344207106442123
 30
0.0
 11
2.655184804299858
 21
7.835801567055771
 31
0.0
  0
LINE
  5
DE
330
70
100
AcDbEntity
  8
EXTERIOR v2_Sketch2
100
AcDbLine
 10
-1.545093887606897
 20
1.960899824226175
 30
0.0
 11
-1.545093887604844
 21
1.660899824226175
 31
0.0
  0
ARC
  5
DF
330
70
100
AcDbEntity
  8
EXTERIOR v2_Sketch2
100
AcDbCircle
 10
2.425636604499288
 20
6.948139142222387
 30
0.0
 40
0.099999999999999
100
AcDbArc
 50
290.6255481051955
 51
35.97539614217228
  0
LINE
  5
E0
330
70
100
AcDbEntity
  8
EXTERIOR v2_Sketch2
100
AcDbLine
 10
9.773937182213407
 20
10.32790971638123
 30
0.0
 11
10.00659336394874
 21
10.00739661008174
 31
0.0
  0
LINE
  5
E1
330
70
100
AcDbEntity
  8
EXTERIOR v2_Sketch2
100
AcDbLine
 10
9.035865364355835
 20
7.327454581043248
 30
0.0
 11
8.803212144560692
 21
7.006932630937253
 31
0.0
  0
LINE
  5
E2
330
70
100
AcDbEntity
  8
EXTERIOR v2_Sketch2
100
AcDbLine
 10
12.15442419895178
 20
8.28714611886664
 30
0.0
 11
12.15442419895192
 21
7.386528355464593
 31
0.0
  0
LINE
  5
E3
330
70
100
AcDbEntity
  8
EXTERIOR v2_Sketch2
100
AcDbLine
 10
1.154479960675448
 20
3.835793274275215
 30
0.0
 11
1.535751397582281
 21
3.327395751530381
 31
0.0
  0
ARC
  5
E4
330
70
100
AcDbEntity
  8
EXTERIOR v2_Sketch2
100
AcDbCircle
 10
-0.9574321869400321
 20
3.315030668326175
 30
0.0
 40
0.099999999999994
100
AcDbArc
 50
234.0257021837352
 51
339.3738629457272
  0
LINE
  5
E5
330
70
100
AcDbEntity
  8
EXTERIOR v2_Sketch2
100
AcDbLine
 10
9.773816240464768
 20
3.327534446338164
 30
0.0
 11
10.15509368945122
 21
3.835939985726742
 31
0.0
  0
LINE
  5
E6
330
70
100
AcDbEntity
  8
EXTERIOR v2_Sketch2
100
AcDbLine
 10
9.773937182213407
 20
10.32790971638123
 30
0.0
 11
10.15521463115873
 21
10.83631525562643
 31
0.0
  0
LINE
  5
E7
330
70
100
AcDbEntity
  8
EXTERIOR v2_Sketch2
100
AcDbLine
 10
2.273820275073076
 20
3.327387734873739
 30
0.0
 11
2.655097724057737
 21
3.835793274260091
 31
0.0
  0
ARC
  5
E8
330
70
100
AcDbEntity
  8
EXTERIOR v2_Sketch2
100
AcDbCircle
 10
8.954593927427392
 20
7.135370190340767
 30
0.0
 40
0.3000000000000044
100
AcDbArc
 50
249.373862945731
 51
270.0000000000128
  0
LINE
  5
E9
330
70
100
AcDbEntity
  8
EXTERIOR v2_Sketch2
100
AcDbLine
 10
1.454610581619112
 20
9.835833342346816
 30
0.0
 11
2.355228345021167
 21
9.835833342346953
 31
0.0
  0
LINE
  5
EA
330
70
100
AcDbEntity
  8
EXTERIOR v2_Sketch2
100
AcDbLine
 10
-1.845093887604844
 20
1.660899824224122
 30
0.0
 11
-1.845093887599199
 21
0.8363152558728184
 31
0.0
  0
LINE
  5
EB
330
70
100
AcDbEntity
  8
EXTERIOR v2_Sketch2
100
AcDbLine
 10
-1.845093887599199
 20
0.8363152558728184
 30
0.0
 11
1.154462272467554
 21
0.8361063233552899
 31
0.0
  0
ARC
  5
EC
330
70
100
AcDbEntity
  8
EXTERIOR v2_Sketch2
100
AcDbCircle
 10
8.954593927427389
 20
7.135370190340768
 30
0.0
 40
0.3000000000000065
100
AcDbArc
 50
249.3738629457318
 51
270.0000000000143
  0
LINE
  5
ED
330
70
100
AcDbEntity
  8
EXTERIOR v2_Sketch2
100
AcDbLine
 10
-1.545093887599196
 20
5.835797420676741
 30
0.0
 11
-1.545093887607828
 21
6.535797420676741
 31
0.0
  0
LINE
  5
EE
330
70
100
AcDbEntity
  8
EXTERIOR v2_Sketch2
100
AcDbLine
 10
1.454610581619112
 20
9.835833342346816
 30
0.0
 11
2.355228345021167
 21
9.835833342346953
 31
0.0
  0
LINE
  5
EF
330
70
100
AcDbEntity
  8
EXTERIOR v2_Sketch2
100
AcDbLine
 10
-1.545093887606897
 20
1.960899824226175
 30
0.0
 11
-1.545093887608951
 21
2.260899824226175
 31
0.0
  0
LINE
  5
F0
330
70
100
AcDbEntity
  8
EXTERIOR v2_Sketch2
100
AcDbLine
 10
-1.845093887614595
 20
3.085484392575426
 30
0.0
 11
-1.336696364851245
 21
3.46675582949831
 31
0.0
  0
ARC
  5
F1
330
70
100
AcDbEntity
  8
EXTERIOR v2_Sketch2
100
AcDbCircle
 10
2.425680145222345
 20
9.948652830945786
 30
0.0
 40
0.0999999999999959
100
AcDbArc
 50
290.6255481051908
 51
35.9753961421749
  0
LINE
  5
F2
330
70
100
AcDbEntity
  8
EXTERIOR v2_Sketch2
100
AcDbLine
 10
9.773816240464764
 20
3.327534446338161
 30
0.0
 11
10.15509368945122
 21
3.835939985726742
 31
0.0
  0
ARC
  5
F3
330
70
100
AcDbEntity
  8
EXTERIOR v2_Sketch2
100
AcDbCircle
 10
9.925666431395208
 20
9.94865283094322
 30
0.0
 40
0.0999999999999983
100
AcDbArc
 50
290.6255481052435
 51
35.97539614222765
  0
LINE
  5
F4
330
70
100
AcDbEntity
  8
EXTERIOR v2_Sketch2
100
AcDbLine
 10
1.45456704089741
 20
8.836283480485271
 30
0.0
 11
2.355184804299861
 21
8.836283480485267
 31
0.0
  0
LINE
  5
F5
330
70
100
AcDbEntity
  8
EXTERIOR v2_Sketch2
100
AcDbLine
 10
13.1549061124162
 20
8.587146118862243
 30
0.0
 11
13.15490611241055
 21
9.411730687213548
 31
0.0
  0
ARC
  5
F6
330
70
100
AcDbEntity
  8
EXTERIOR v2_Sketch2
100
AcDbCircle
 10
8.884140203182607
 20
6.948190403130606
 30
0.0
 40
0.0999999999999984
100
AcDbArc
 50
144.0257021837282
 51
249.3738629457328
  0
LINE
  5
F7
330
70
100
AcDbEntity
  8
EXTERIOR v2_Sketch2
100
AcDbLine
 10
12.15442419895179
 20
4.287137826071004
 30
0.0
 11
12.15442419895193
 21
3.386520062668952
 31
0.0
  0
LINE
  5
F8
330
70
100
AcDbEntity
  8
EXTERIOR v2_Sketch2
100
AcDbLine
 10
-1.545093887608951
 20
2.260899824226175
 30
0.0
 11
-1.845093887608951
 21
2.260899824224122
 31
0.0
  0
LINE
  5
F9
330
70
100
AcDbEntity
  8
EXTERIOR v2_Sketch2
100
AcDbLine
 10
2.273820275073076
 20
3.327387734873739
 30
0.0
 11
2.655097724057737
 21
3.835793274260091
 31
0.0
  0
LINE
  5
FA
330
70
100
AcDbEntity
  8
EXTERIOR v2_Sketch2
100
AcDbLine
 10
-0.8446119741501831
 20
3.385484392571028
 30
0.0
 11
-0.8446119741503217
 21
4.286102155973078
 31
0.0
  0
LINE
  5
FB
330
70
100
AcDbEntity
  8
EXTERIOR v2_Sketch2
100
AcDbLine
 10
2.273820275071132
 20
3.327387734871881
 30
0.0
 11
2.655097724057414
 21
3.835793274260334
 31
0.0
  0
LINE
  5
FC
330
70
100
AcDbEntity
  8
EXTERIOR v2_Sketch2
100
AcDbLine
 10
9.035865364355835
 20
7.32745458104325
 30
0.0
 11
8.803212144560696
 21
7.006932630937255
 31
0.0
  0
ARC
  5
FD
330
70
100
AcDbEntity
  8
EXTERIOR v2_Sketch2
100
AcDbCircle
 10
8.954596867793267
 20
10.13583334234377
 30
0.0
 40
0.3000000000000016
100
AcDbArc
 50
249.37386294577
 51
270.0000000000356
  0
ARC
  5
FE
330
70
100
AcDbEntity
  8
EXTERIOR v2_Sketch2
100
AcDbCircle
 10
8.884140203182607
 20
6.948190403130597
 30
0.0
 40
0.0999999999999994
100
AcDbArc
 50
144.0257021837274
 51
249.373862945732
  0
LINE
  5
FF
330
70
100
AcDbEntity
  8
EXTERIOR v2_Sketch2
100
AcDbLine
 10
1.53570052947921
 20
1.344459603117041
 30
0.0
 11
1.154423080493979
 21
0.8360540637303968
 31
0.0
  0
ARC
  5
100
330
70
100
AcDbEntity
  8
EXTERIOR v2_Sketch2
100
AcDbCircle
 10
9.85521463119382
 20
10.13583334234434
 30
0.0
 40
0.300000000000006
100
AcDbArc
 50
270.0000000000362
 51
290.6255481052447
  0
LINE
  5
101
330
70
100
AcDbEntity
  8
EXTERIOR v2_Sketch2
100
AcDbLine
 10
12.15442419895179
 20
4.287137826071004
 30
0.0
 11
12.15442419895193
 21
3.386520062668952
 31
0.0
  0
ARC
  5
102
330
70
100
AcDbEntity
  8
EXTERIOR v2_Sketch2
100
AcDbCircle
 10
8.954475926049102
 20
4.536421899155994
 30
0.0
 40
0.3000000000000043
100
AcDbArc
 50
90.00000000000067
 51
110.6261370542835
  0
ARC
  5
103
330
70
100
AcDbEntity
  8
EXTERIOR v2_Sketch2
100
AcDbCircle
 10
9.855211690829854
 20
7.135370190340974
 30
0.0
 40
0.3000000000000043
100
AcDbArc
 50
270.0000000000135
 51
290.6255481052001
  0
LINE
  5
104
330
70
100
AcDbEntity
  8
EXTERIOR v2_Sketch2
100
AcDbLine
 10
12.15442419895179
 20
4.287137826071004
 30
0.0
 11
12.15442419895193
 21
3.386520062668952
 31
0.0
  0
LINE
  5
105
330
70
100
AcDbEntity
  8
EXTERIOR v2_Sketch2
100
AcDbLine
 10
9.773934241846887
 20
8.344257643159298
 30
0.0
 11
10.00659042358633
 21
8.664770749465199
 31
0.0
  0
ARC
  5
106
330
70
100
AcDbEntity
  8
EXTERIOR v2_Sketch2
100
AcDbCircle
 10
9.925545489651103
 20
2.948277560893353
 30
0.0
 40
0.1
100
AcDbArc
 50
290.6255481051985
 51
35.9753961421784
  0
ARC
  5
107
330
70
100
AcDbEntity
  8
EXTERIOR v2_Sketch2
100
AcDbCircle
 10
12.26724368755075
 20
7.316076555263413
 30
0.0
 40
0.0999999999999942
100
AcDbArc
 50
200.6255481051911
 51
305.9753961421744
  0
LINE
  5
108
330
70
100
AcDbEntity
  8
EXTERIOR v2_Sketch2
100
AcDbLine
 10
9.404892393587598
 20
9.835851151466203
 30
0.0
 11
9.404892393587598
 21
9.835833342344054
 31
0.0
  0
LINE
  5
109
330
70
100
AcDbEntity
  8
EXTERIOR v2_Sketch2
100
AcDbLine
 10
12.15442419895178
 20
8.28714611886664
 30
0.0
 11
12.15442419895192
 21
7.386528355464593
 31
0.0
  0
LINE
  5
10A
330
70
100
AcDbEntity
  8
EXTERIOR v2_Sketch2
100
AcDbLine
 10
12.64650057299554
 20
7.467805804449664
 30
0.0
 11
13.15490611238539
 21
7.086528355462656
 31
0.0
  0
LINE
  5
10B
330
70
100
AcDbEntity
  8
EXTERIOR v2_Sketch2
100
AcDbLine
 10
12.64650057299554
 20
7.467805804449664
 30
0.0
 11
13.15490611238539
 21
7.086528355462656
 31
0.0
  0
LINE
  5
10C
330
70
100
AcDbEntity
  8
EXTERIOR v2_Sketch2
100
AcDbLine
 10
12.15442419895179
 20
4.287137826071004
 30
0.0
 11
12.15442419895193
 21
3.386520062668952
 31
0.0
  0
LINE
  5
10D
330
70
100
AcDbEntity
  8
EXTERIOR v2_Sketch2
100
AcDbLine
 10
2.273950896036092
 20
10.32790971639057
 30
0.0
 11
2.506607077775933
 21
10.00739661008423
 31
0.0
  0
LINE
  5
10E
330
70
100
AcDbEntity
  8
EXTERIOR v2_Sketch2
100
AcDbLine
 10
9.773934241846887
 20
8.344257643159298
 30
0.0
 11
10.15521169083154
 21
7.83585210377295
 31
0.0
  0
LINE
  5
10F
330
70
100
AcDbEntity
  8
EXTERIOR v2_Sketch2
100
AcDbLine
 10
2.273950896036092
 20
10.32790971639057
 30
0.0
 11
2.506607077775933
 21
10.00739661008423
 31
0.0
  0
LINE
  5
110
330
70
100
AcDbEntity
  8
EXTERIOR v2_Sketch2
100
AcDbLine
 10
-1.545093887591499
 20
9.711212852323793
 30
0.0
 11
-1.545093887593553
 21
10.01121285232379
 31
0.0
  0
LINE
  5
111
330
70
100
AcDbEntity
  8
EXTERIOR v2_Sketch2
100
AcDbLine
 10
9.773934241844756
 20
7.32744656438461
 30
0.0
 11
10.15521169083121
 21
7.835852103773193
 31
0.0
  0
LINE
  5
112
330
70
100
AcDbEntity
  8
EXTERIOR v2_Sketch2
100
AcDbLine
 10
-0.8446119741501902
 20
7.385492685366672
 30
0.0
 11
-0.8446119741503288
 21
8.286110448768724
 31
0.0
  0
LINE
  5
113
330
70
100
AcDbEntity
  8
EXTERIOR v2_Sketch2
100
AcDbLine
 10
2.273907355315204
 20
8.344207106442123
 30
0.0
 11
2.506563537054647
 21
8.664720212748026
 31
0.0
  0
ARC
  5
114
330
70
100
AcDbEntity
  8
EXTERIOR v2_Sketch2
100
AcDbCircle
 10
-1.144611974150194
 20
7.385492685366629
 30
0.0
 40
0.3000000000000038
100
AcDbArc
 50
339.3738629457246
 51
0.0000000000081422
  0
ARC
  5
115
330
70
100
AcDbEntity
  8
EXTERIOR v2_Sketch2
100
AcDbCircle
 10
2.355228345021121
 20
10.13583334234697
 30
0.0
 40
0.3000000000000167
100
AcDbArc
 50
270.0000000000088
 51
290.6255481051938
  0
ARC
  5
116
330
70
100
AcDbEntity
  8
EXTERIOR v2_Sketch2
100
AcDbCircle
 10
2.355228345021121
 20
10.13583334234697
 30
0.0
 40
0.3000000000000167
100
AcDbArc
 50
270.0000000000088
 51
290.6255481051938
  0
LINE
  5
117
330
70
100
AcDbEntity
  8
EXTERIOR v2_Sketch2
100
AcDbLine
 10
2.655228345023104
 20
10.83631525578042
 30
0.0
 11
8.654596868121597
 21
10.83631525565724
 31
0.0
  0
LINE
  5
118
330
70
100
AcDbEntity
  8
EXTERIOR v2_Sketch2
100
AcDbLine
 10
9.035865364349042
 20
8.344249626511571
 30
0.0
 11
8.803212144562348
 21
8.664771576605943
 31
0.0
  0
LINE
  5
119
330
70
100
AcDbEntity
  8
EXTERIOR v2_Sketch2
100
AcDbLine
 10
9.404892393587598
 20
9.835833342344054
 30
0.0
 11
9.404892393587598
 21
9.835851151466203
 31
0.0
  0
LINE
  5
11A
330
70
100
AcDbEntity
  8
EXTERIOR v2_Sketch2
100
AcDbLine
 10
13.15490611239217
 20
6.536833090764631
 30
0.0
 11
13.15490611238539
 21
7.086528355462656
 31
0.0
  0
ARC
  5
11B
330
70
100
AcDbEntity
  8
EXTERIOR v2_Sketch2
100
AcDbCircle
 10
9.925663491031095
 20
6.948189678939796
 30
0.0
 40
0.1000000000000021
100
AcDbArc
 50
290.6255481052003
 51
35.97539614217984
  0
ARC
  5
11C
330
70
100
AcDbEntity
  8
EXTERIOR v2_Sketch2
100
AcDbCircle
 10
12.45442419895194
 20
7.38652835546464
 30
0.0
 40
0.3000000000000149
100
AcDbArc
 50
180.0000000000088
 51
200.6255481051942
  0
ARC
  5
11D
330
70
100
AcDbEntity
  8
EXTERIOR v2_Sketch2
100
AcDbCircle
 10
12.45442419895194
 20
7.38652835546464
 30
0.0
 40
0.3000000000000149
100
AcDbArc
 50
180.0000000000088
 51
200.6255481051942
  0
LINE
  5
11E
330
70
100
AcDbEntity
  8
EXTERIOR v2_Sketch2
100
AcDbLine
 10
5.504899976404226
 20
10.01110494954645
 30
0.0
 11
5.504890793181143
 21
9.411104949687008
 31
0.0
  0
ARC
  5
11F
330
70
100
AcDbEntity
  8
EXTERIOR v2_Sketch2
100
AcDbCircle
 10
9.855211690829854
 20
7.135370190340982
 30
0.0
 40
0.3000000000000043
100
AcDbArc
 50
270.0000000000143
 51
290.6255481051997
  0
LINE
  5
120
330
70
100
AcDbEntity
  8
EXTERIOR v2_Sketch2
100
AcDbLine
 10
9.773934241844759
 20
7.327446564384613
 30
0.0
 11
10.15521169083121
 21
7.835852103773193
 31
0.0
  0
LINE
  5
121
330
70
100
AcDbEntity
  8
EXTERIOR v2_Sketch2
100
AcDbLine
 10
12.64650057299554
 20
7.467805804449664
 30
0.0
 11
12.3259874666892
 21
7.235149622709825
 31
0.0
  0
LINE
  5
122
330
70
100
AcDbEntity
  8
EXTERIOR v2_Sketch2
100
AcDbLine
 10
2.273950896036092
 20
10.32790971639057
 30
0.0
 11
2.655228345023104
 21
10.83631525578042
 31
0.0
  0
LINE
  5
123
330
70
100
AcDbEntity
  8
EXTERIOR v2_Sketch2
100
AcDbLine
 10
1.154567040897406
 20
7.835801567055774
 30
0.0
 11
1.535838477817362
 21
8.344199089794393
 31
0.0
  0
LINE
  5
124
330
70
100
AcDbEntity
  8
EXTERIOR v2_Sketch2
100
AcDbLine
 10
9.035868304771414
 20
10.32791773311494
 30
0.0
 11
8.803215084926662
 21
10.00739578294016
 31
0.0
  0
LINE
  5
125
330
70
100
AcDbEntity
  8
EXTERIOR v2_Sketch2
100
AcDbLine
 10
-1.545093887593553
 20
10.01121285232379
 30
0.0
 11
-1.845093887593553
 21
10.01121285232174
 31
0.0
  0
ARC
  5
126
330
70
100
AcDbEntity
  8
EXTERIOR v2_Sketch2
100
AcDbCircle
 10
12.26724441174164
 20
4.357591550315857
 30
0.0
 40
0.099999999999994
100
AcDbArc
 50
54.02570218373523
 51
159.3738629457272
  0
ARC
  5
127
330
70
100
AcDbEntity
  8
EXTERIOR v2_Sketch2
100
AcDbCircle
 10
12.26724368755075
 20
7.316076555263413
 30
0.0
 40
0.0999999999999942
100
AcDbArc
 50
200.6255481051911
 51
305.9753961421744
  0
LINE
  5
128
330
70
100
AcDbEntity
  8
EXTERIOR v2_Sketch2
100
AcDbLine
 10
1.904862566688317
 20
8.836283480485267
 30
0.0
 11
1.904862566688317
 21
8.836265671357544
 31
0.0
  0
LINE
  5
129
330
70
100
AcDbEntity
  8
EXTERIOR v2_Sketch2
100
AcDbLine
 10
2.273907355313047
 20
7.327396027667389
 30
0.0
 11
2.655184804299516
 21
7.83580156705603
 31
0.0
  0
LINE
  5
12A
330
70
100
AcDbEntity
  8
EXTERIOR v2_Sketch2
100
AcDbLine
 10
9.773816240464766
 20
3.327534446338161
 30
0.0
 11
10.15509368945122
 21
3.835939985726742
 31
0.0
  0
LINE
  5
12B
330
70
100
AcDbEntity
  8
EXTERIOR v2_Sketch2
100
AcDbLine
 10
2.273907355313047
 20
7.327396027667389
 30
0.0
 11
2.506563537052899
 21
7.006882921361034
 31
0.0
  0
LINE
  5
12C
330
70
100
AcDbEntity
  8
EXTERIOR v2_Sketch2
100
AcDbLine
 10
12.64650057299554
 20
7.467805804449664
 30
0.0
 11
13.15490611238539
 21
7.086528355462656
 31
0.0
  0
LINE
  5
12D
330
70
100
AcDbEntity
  8
EXTERIOR v2_Sketch2
100
AcDbLine
 10
12.15442419895178
 20
8.28714611886664
 30
0.0
 11
12.15442419895192
 21
7.386528355464593
 31
0.0
  0
LINE
  5
12E
330
70
100
AcDbEntity
  8
EXTERIOR v2_Sketch2
100
AcDbLine
 10
8.954596867793453
 20
9.83583334234377
 30
0.0
 11
9.85521463119401
 21
9.835833342344338
 31
0.0
  0
ARC
  5
12F
330
70
100
AcDbEntity
  8
EXTERIOR v2_Sketch2
100
AcDbCircle
 10
2.425636604501045
 20
8.723463991886461
 30
0.0
 40
0.1000000000000027
100
AcDbArc
 50
324.0246038578354
 51
69.3744518948159
  0
LINE
  5
130
330
70
100
AcDbEntity
  8
EXTERIOR v2_Sketch2
100
AcDbLine
 10
9.773934241846887
 20
8.3442576431593
 30
0.0
 11
10.15521169083154
 21
7.835852103772948
 31
0.0
  0
ARC
  5
131
330
70
100
AcDbEntity
  8
EXTERIOR v2_Sketch2
100
AcDbCircle
 10
2.355184804299854
 20
8.536283480485263
 30
0.0
 40
0.3000000000000038
100
AcDbArc
 50
69.37445189481548
 51
89.99999999999864
  0
LINE
  5
132
330
70
100
AcDbEntity
  8
EXTERIOR v2_Sketch2
100
AcDbLine
 10
12.8549061124085
 20
9.71173068721149
 30
0.0
 11
12.85490611240645
 21
10.01173068721149
 31
0.0
  0
ARC
  5
133
330
70
100
AcDbEntity
  8
EXTERIOR v2_Sketch2
100
AcDbCircle
 10
2.425636604499311
 20
6.94813914222259
 30
0.0
 40
0.0999999999999976
100
AcDbArc
 50
290.6255481051904
 51
35.97539614217359
  0
LINE
  5
134
330
70
100
AcDbEntity
  8
EXTERIOR v2_Sketch2
100
AcDbLine
 10
12.64650057299554
 20
7.467805804449664
 30
0.0
 11
12.3259874666892
 21
7.235149622709825
 31
0.0
  0
LINE
  5
135
330
70
100
AcDbEntity
  8
EXTERIOR v2_Sketch2
100
AcDbLine
 10
9.404892393587598
 20
9.835851151466203
 30
0.0
 11
9.404905749493726
 21
9.835833342344054
 31
0.0
  0
LINE
  5
136
330
70
100
AcDbEntity
  8
EXTERIOR v2_Sketch2
100
AcDbLine
 10
5.804890793146004
 20
9.411100358075465
 30
0.0
 11
5.804899976369087
 21
10.01110035793491
 31
0.0
  0
LINE
  5
137
330
70
100
AcDbEntity
  8
EXTERIOR v2_Sketch2
100
AcDbLine
 10
9.035865364355835
 20
7.327454581043248
 30
0.0
 11
8.803212144560696
 21
7.006932630937255
 31
0.0
  0
LINE
  5
138
330
70
100
AcDbEntity
  8
EXTERIOR v2_Sketch2
100
AcDbLine
 10
2.273907355312948
 20
7.327396027667298
 30
0.0
 11
2.506563537052885
 21
7.006882921360835
 31
0.0
  0
LINE
  5
139
330
70
100
AcDbEntity
  8
EXTERIOR v2_Sketch2
100
AcDbLine
 10
-0.8446119741501902
 20
7.385492685366672
 30
0.0
 11
-0.8446119741503288
 21
8.286110448768724
 31
0.0
  0
ARC
  5
13A
330
70
100
AcDbEntity
  8
EXTERIOR v2_Sketch2
100
AcDbCircle
 10
8.884143143548605
 20
9.94865355513356
 30
0.0
 40
0.0999999999999951
100
AcDbArc
 50
144.0257021837621
 51
249.3738629457721
  0
ARC
  5
13B
330
70
100
AcDbEntity
  8
EXTERIOR v2_Sketch2
100
AcDbCircle
 10
12.26724368755075
 20
7.316076555263413
 30
0.0
 40
0.0999999999999942
100
AcDbArc
 50
200.6255481051911
 51
305.9753961421744
  0
ARC
  5
13C
330
70
100
AcDbEntity
  8
EXTERIOR v2_Sketch2
100
AcDbCircle
 10
2.355184804298071
 20
7.135319653623577
 30
0.0
 40
0.3000000000000043
100
AcDbArc
 50
270.0000000000094
 51
290.6255481051938
  0
LINE
  5
13D
330
70
100
AcDbEntity
  8
EXTERIOR v2_Sketch2
100
AcDbLine
 10
12.8549061124085
 20
9.71173068721149
 30
0.0
 11
12.85490611241055
 21
9.411730687211495
 31
0.0
  0
LINE
  5
13E
330
70
100
AcDbEntity
  8
EXTERIOR v2_Sketch2
100
AcDbLine
 10
9.773934241846887
 20
8.344257643159298
 30
0.0
 11
10.15521169083154
 21
7.83585210377295
 31
0.0
  0
LINE
  5
13F
330
70
100
AcDbEntity
  8
EXTERIOR v2_Sketch2
100
AcDbLine
 10
9.773816240466894
 20
4.344345525112847
 30
0.0
 11
10.00647242220634
 21
4.664858631418749
 31
0.0
  0
LINE
  5
140
330
70
100
AcDbEntity
  8
EXTERIOR v2_Sketch2
100
AcDbLine
 10
-1.845093887589445
 20
9.411212852321737
 30
0.0
 11
-1.845093887583796
 21
8.586110448770661
 31
0.0
  0
ARC
  5
141
330
70
100
AcDbEntity
  8
EXTERIOR v2_Sketch2
100
AcDbCircle
 10
5.654846783861296
 20
6.535687222907763
 30
0.0
 40
0.1499999999999995
100
AcDbArc
 50
359.9991230667915
 51
179.9991222130179
  0
ARC
  5
142
330
70
100
AcDbEntity
  8
EXTERIOR v2_Sketch2
100
AcDbCircle
 10
-1.144611974150194
 20
7.385492685366629
 30
0.0
 40
0.3000000000000038
100
AcDbArc
 50
339.3738629457246
 51
0.0000000000081422
  0
LINE
  5
143
330
70
100
AcDbEntity
  8
EXTERIOR v2_Sketch2
100
AcDbLine
 10
-1.845093887614606
 20
7.08549268537107
 30
0.0
 11
-1.336696364851253
 21
7.466764122293952
 31
0.0
  0
LINE
  5
144
330
70
100
AcDbEntity
  8
EXTERIOR v2_Sketch2
100
AcDbLine
 10
1.535838477824082
 20
7.327404044326071
 30
0.0
 11
1.303185258028838
 21
7.006882094219927
 31
0.0
  0
LINE
  5
145
330
70
100
AcDbEntity
  8
EXTERIOR v2_Sketch2
100
AcDbLine
 10
-1.336696364851253
 20
7.466764122293952
 30
0.0
 11
-1.016174414746675
 21
7.234110902499905
 31
0.0
  0
ARC
  5
146
330
70
100
AcDbEntity
  8
EXTERIOR v2_Sketch2
100
AcDbCircle
 10
1.454610581619069
 20
10.13583334234682
 30
0.0
 40
0.3000000000000034
100
AcDbArc
 50
249.3738629457248
 51
270.0000000000082
  0
ARC
  5
147
330
70
100
AcDbEntity
  8
EXTERIOR v2_Sketch2
100
AcDbCircle
 10
8.884022201804267
 20
4.723601686366139
 30
0.0
 40
0.0999999999999988
100
AcDbArc
 50
110.6261370542812
 51
215.9742978162713
  0
LINE
  5
148
330
70
100
AcDbEntity
  8
EXTERIOR v2_Sketch2
100
AcDbLine
 10
9.773934241846887
 20
8.344257643159298
 30
0.0
 11
10.15521169083154
 21
7.83585210377295
 31
0.0
  0
ARC
  5
149
330
70
100
AcDbEntity
  8
EXTERIOR v2_Sketch2
100
AcDbCircle
 10
8.954475926049102
 20
4.536421899155994
 30
0.0
 40
0.3000000000000043
100
AcDbArc
 50
90.00000000000067
 51
110.6261370542835
  0
LINE
  5
14A
330
70
100
AcDbEntity
  8
EXTERIOR v2_Sketch2
100
AcDbLine
 10
-1.336696364851253
 20
7.466764122293952
 30
0.0
 11
-1.016174414746675
 21
7.234110902499905
 31
0.0
  0
ARC
  5
14B
330
70
100
AcDbEntity
  8
EXTERIOR v2_Sketch2
100
AcDbCircle
 10
-0.9574321869400392
 20
7.315038961121819
 30
0.0
 40
0.099999999999994
100
AcDbArc
 50
234.0257021837352
 51
339.373862945727
  0
LINE
  5
14C
330
70
100
AcDbEntity
  8
EXTERIOR v2_Sketch2
100
AcDbLine
 10
1.535882018546393
 20
10.32791773304787
 30
0.0
 11
1.303228798752346
 21
10.0073957829433
 31
0.0
  0
ARC
  5
14D
330
70
100
AcDbEntity
  8
EXTERIOR v2_Sketch2
100
AcDbCircle
 10
1.384156857374261
 20
9.948653555136663
 30
0.0
 40
0.099999999999995
100
AcDbArc
 50
144.0257021837344
 51
249.3738629457268
  0
ARC
  5
14E
330
70
100
AcDbEntity
  8
EXTERIOR v2_Sketch2
100
AcDbCircle
 10
12.26724368755075
 20
7.316076555263413
 30
0.0
 40
0.0999999999999942
100
AcDbArc
 50
200.6255481051911
 51
305.9753961421744
  0
LINE
  5
14F
330
70
100
AcDbEntity
  8
EXTERIOR v2_Sketch2
100
AcDbLine
 10
-1.845093887599202
 20
10.83631525587282
 30
0.0
 11
-1.845093887593553
 21
10.01121285232174
 31
0.0
  0
LINE
  5
150
330
70
100
AcDbEntity
  8
EXTERIOR v2_Sketch2
100
AcDbLine
 10
9.773934241844756
 20
7.32744656438461
 30
0.0
 11
10.00659042358467
 21
7.006933458078247
 31
0.0
  0
ARC
  5
151
330
70
100
AcDbEntity
  8
EXTERIOR v2_Sketch2
100
AcDbCircle
 10
5.654890793163573
 20
9.411102653881236
 30
0.0
 40
0.1499999999999995
100
AcDbArc
 50
179.9991230667914
 51
359.999122213018
  0
LINE
  5
152
330
70
100
AcDbEntity
  8
EXTERIOR v2_Sketch2
100
AcDbLine
 10
1.904906107410303
 20
9.835851151473972
 30
0.0
 11
1.904906107410303
 21
9.835833342346884
 31
0.0
  0
ARC
  5
153
330
70
100
AcDbEntity
  8
EXTERIOR v2_Sketch2
100
AcDbCircle
 10
2.355184804299854
 20
8.536283480485263
 30
0.0
 40
0.3000000000000038
100
AcDbArc
 50
69.37445189481548
 51
89.99999999999864
  0
ARC
  5
154
330
70
100
AcDbEntity
  8
EXTERIOR v2_Sketch2
100
AcDbCircle
 10
-0.9574321869400392
 20
7.315038961121819
 30
0.0
 40
0.099999999999994
100
AcDbArc
 50
234.0257021837352
 51
339.373862945727
  0
ARC
  5
155
330
70
100
AcDbEntity
  8
EXTERIOR v2_Sketch2
100
AcDbCircle
 10
8.884022201804267
 20
4.723601686366139
 30
0.0
 40
0.0999999999999988
100
AcDbArc
 50
110.6261370542812
 51
215.9742978162713
  0
ARC
  5
156
330
70
100
AcDbEntity
  8
EXTERIOR v2_Sketch2
100
AcDbCircle
 10
9.925663491031091
 20
6.948189678939794
 30
0.0
 40
0.1000000000000005
100
AcDbArc
 50
290.6255481052006
 51
35.97539614217637
  0
LINE
  5
157
330
70
100
AcDbEntity
  8
EXTERIOR v2_Sketch2
100
AcDbLine
 10
-0.8446119741501902
 20
7.385492685366672
 30
0.0
 11
-0.8446119741503288
 21
8.286110448768724
 31
0.0
  0
LINE
  5
158
330
70
100
AcDbEntity
  8
EXTERIOR v2_Sketch2
100
AcDbLine
 10
1.154610581623509
 20
10.83631525581123
 30
0.0
 11
1.535882018546393
 21
10.32791773304787
 31
0.0
  0
LINE
  5
159
330
70
100
AcDbEntity
  8
EXTERIOR v2_Sketch2
100
AcDbLine
 10
12.15442419895178
 20
8.28714611886664
 30
0.0
 11
12.15442419895192
 21
7.386528355464593
 31
0.0
  0
LINE
  5
15A
330
70
100
AcDbEntity
  8
EXTERIOR v2_Sketch2
100
AcDbLine
 10
1.904906107410303
 20
9.835851151473972
 30
0.0
 11
1.904919463320139
 21
9.835833342346884
 31
0.0
  0
LINE
  5
15B
330
70
100
AcDbEntity
  8
EXTERIOR v2_Sketch2
100
AcDbLine
 10
2.273907355312948
 20
7.327396027667298
 30
0.0
 11
2.655184804299498
 21
7.835801567056041
 31
0.0
  0
ARC
  5
15C
330
70
100
AcDbEntity
  8
EXTERIOR v2_Sketch2
100
AcDbCircle
 10
1.384156857374261
 20
9.948653555136663
 30
0.0
 40
0.099999999999995
100
AcDbArc
 50
144.0257021837344
 51
249.3738629457268
  0
LINE
  5
15D
330
70
100
AcDbEntity
  8
EXTERIOR v2_Sketch2
100
AcDbLine
 10
-1.845093887614606
 20
7.08549268537107
 30
0.0
 11
-1.336696364851253
 21
7.466764122293952
 31
0.0
  0
ARC
  5
15E
330
70
100
AcDbEntity
  8
EXTERIOR v2_Sketch2
100
AcDbCircle
 10
8.884022201804267
 20
4.723601686366139
 30
0.0
 40
0.0999999999999988
100
AcDbArc
 50
110.6261370542812
 51
215.9742978162713
  0
ARC
  5
15F
330
70
100
AcDbEntity
  8
EXTERIOR v2_Sketch2
100
AcDbCircle
 10
2.355184804298078
 20
7.135319653623772
 30
0.0
 40
0.3000000000000016
100
AcDbArc
 50
270.0000000000088
 51
290.6255481051952
  0
LINE
  5
160
330
70
100
AcDbEntity
  8
EXTERIOR v2_Sketch2
100
AcDbLine
 10
13.15490611241621
 20
4.587137826066604
 30
0.0
 11
12.64650858965286
 21
4.205866389143724
 31
0.0
  0
LINE
  5
161
330
70
100
AcDbEntity
  8
EXTERIOR v2_Sketch2
100
AcDbLine
 10
9.404744494241269
 20
1.836013568863672
 30
0.0
 11
9.404744494241269
 21
1.835995759736066
 31
0.0
  0
LINE
  5
162
330
70
100
AcDbEntity
  8
EXTERIOR v2_Sketch2
100
AcDbLine
 10
9.773934241844756
 20
7.32744656438461
 30
0.0
 11
10.00659042358467
 21
7.006933458078249
 31
0.0
  0
LINE
  5
163
330
70
100
AcDbEntity
  8
EXTERIOR v2_Sketch2
100
AcDbLine
 10
12.64650057299554
 20
7.467805804449664
 30
0.0
 11
13.15490611238539
 21
7.086528355462656
 31
0.0
  0
LINE
  5
164
330
70
100
AcDbEntity
  8
EXTERIOR v2_Sketch2
100
AcDbLine
 10
-1.845093887599202
 20
10.83631525587282
 30
0.0
 11
1.154610581623509
 21
10.83631525581123
 31
0.0
  0
ARC
  5
165
330
70
100
AcDbEntity
  8
EXTERIOR v2_Sketch2
100
AcDbCircle
 10
1.454567040897414
 20
8.536283480485266
 30
0.0
 40
0.3000000000000043
100
AcDbArc
 50
90.00000000000067
 51
110.6261370542834
  0
ARC
  5
166
330
70
100
AcDbEntity
  8
EXTERIOR v2_Sketch2
100
AcDbCircle
 10
9.925663491031095
 20
6.948189678939803
 30
0.0
 40
0.0999999999999992
100
AcDbArc
 50
290.6255481051987
 51
35.97539614217879
  0
ARC
  5
167
330
70
100
AcDbEntity
  8
EXTERIOR v2_Sketch2
100
AcDbCircle
 10
9.855211690829854
 20
7.135370190340973
 30
0.0
 40
0.3000000000000043
100
AcDbArc
 50
270.0000000000149
 51
290.6255481051997
  0
ARC
  5
168
330
70
100
AcDbEntity
  8
EXTERIOR v2_Sketch2
100
AcDbCircle
 10
12.4544241989518
 20
4.287137826071047
 30
0.0
 40
0.3000000000000038
100
AcDbArc
 50
159.3738629457246
 51
180.0000000000081
  0
ARC
  5
169
330
70
100
AcDbEntity
  8
EXTERIOR v2_Sketch2
100
AcDbCircle
 10
-0.9574321869400392
 20
7.315038961121819
 30
0.0
 40
0.099999999999994
100
AcDbArc
 50
234.0257021837352
 51
339.373862945727
  0
LINE
  5
16A
330
70
100
AcDbEntity
  8
EXTERIOR v2_Sketch2
100
AcDbLine
 10
-1.845093887614606
 20
7.08549268537107
 30
0.0
 11
-1.336696364851253
 21
7.466764122293952
 31
0.0
  0
LINE
  5
16B
330
70
100
AcDbEntity
  8
EXTERIOR v2_Sketch2
100
AcDbLine
 10
12.64650057299554
 20
7.467805804449664
 30
0.0
 11
12.3259874666892
 21
7.235149622709825
 31
0.0
  0
LINE
  5
16C
330
70
100
AcDbEntity
  8
EXTERIOR v2_Sketch2
100
AcDbLine
 10
9.773816240464764
 20
3.327534446338161
 30
0.0
 11
10.00647242220468
 21
3.007021340031798
 31
0.0
  0
LINE
  5
16D
330
70
100
AcDbEntity
  8
EXTERIOR v2_Sketch2
100
AcDbLine
 10
12.85490611239217
 20
6.536833090760931
 30
0.0
 11
13.15490611239217
 21
6.536833090764631
 31
0.0
  0
LINE
  5
16E
330
70
100
AcDbEntity
  8
EXTERIOR v2_Sketch2
100
AcDbLine
 10
9.035747362969051
 20
4.344337508465121
 30
0.0
 11
8.803094143182356
 21
4.664859458559492
 31
0.0
  0
LINE
  5
16F
330
70
100
AcDbEntity
  8
EXTERIOR v2_Sketch2
100
AcDbLine
 10
12.64650057299554
 20
7.467805804449664
 30
0.0
 11
12.3259874666892
 21
7.235149622709825
 31
0.0
  0
LINE
  5
170
330
70
100
AcDbEntity
  8
EXTERIOR v2_Sketch2
100
AcDbLine
 10
9.773934241844756
 20
7.327446564384612
 30
0.0
 11
10.00659042358468
 21
7.006933458078247
 31
0.0
  0
LINE
  5
171
330
70
100
AcDbEntity
  8
EXTERIOR v2_Sketch2
100
AcDbLine
 10
1.535882018546393
 20
10.32791773304787
 30
0.0
 11
1.303228798752346
 21
10.0073957829433
 31
0.0
  0
LINE
  5
172
330
70
100
AcDbEntity
  8
EXTERIOR v2_Sketch2
100
AcDbLine
 10
9.773934241844756
 20
7.32744656438461
 30
0.0
 11
10.15521169083121
 21
7.835852103773193
 31
0.0
  0
LINE
  5
173
330
70
100
AcDbEntity
  8
EXTERIOR v2_Sketch2
100
AcDbLine
 10
9.773934241846887
 20
8.344257643159298
 30
0.0
 11
10.00659042358633
 21
8.664770749465199
 31
0.0
  0
LINE
  5
174
330
70
100
AcDbEntity
  8
EXTERIOR v2_Sketch2
100
AcDbLine
 10
12.64650858965286
 20
4.205866389143724
 30
0.0
 11
12.32598663954828
 21
4.438519608937771
 31
0.0
  0
LINE
  5
175
330
70
100
AcDbEntity
  8
EXTERIOR v2_Sketch2
100
AcDbLine
 10
-1.545093887591499
 20
9.711212852323793
 30
0.0
 11
-1.545093887589446
 21
9.411212852323792
 31
0.0
  0
ARC
  5
176
330
70
100
AcDbEntity
  8
EXTERIOR v2_Sketch2
100
AcDbCircle
 10
8.884022201804267
 20
4.723601686366139
 30
0.0
 40
0.0999999999999988
100
AcDbArc
 50
110.6261370542812
 51
215.9742978162713
  0
LINE
  5
177
330
70
100
AcDbEntity
  8
EXTERIOR v2_Sketch2
100
AcDbLine
 10
1.904906107410303
 20
9.835833342346884
 30
0.0
 11
1.904906107410303
 21
9.835851151473972
 31
0.0
  0
ARC
  5
178
330
70
100
AcDbEntity
  8
EXTERIOR v2_Sketch2
100
AcDbCircle
 10
12.45442419895194
 20
7.38652835546464
 30
0.0
 40
0.3000000000000149
100
AcDbArc
 50
180.0000000000088
 51
200.6255481051942
  0
ARC
  5
179
330
70
100
AcDbEntity
  8
EXTERIOR v2_Sketch2
100
AcDbCircle
 10
12.45442419895194
 20
7.38652835546464
 30
0.0
 40
0.3000000000000149
100
AcDbArc
 50
180.0000000000088
 51
200.6255481051942
  0
LINE
  5
17A
330
70
100
AcDbEntity
  8
EXTERIOR v2_Sketch2
100
AcDbLine
 10
9.773816240466894
 20
4.344345525112847
 30
0.0
 11
10.00647242220634
 21
4.664858631418749
 31
0.0
  0
LINE
  5
17B
330
70
100
AcDbEntity
  8
EXTERIOR v2_Sketch2
100
AcDbLine
 10
1.904906107410303
 20
9.835851151473972
 30
0.0
 11
1.904919463320139
 21
9.835833342346884
 31
0.0
  0
ARC
  5
17C
330
70
100
AcDbEntity
  8
EXTERIOR v2_Sketch2
100
AcDbCircle
 10
9.925663491031095
 20
6.948189678939794
 30
0.0
 40
0.0999999999999989
100
AcDbArc
 50
290.625548105201
 51
35.97539614217961
  0
LINE
  5
17D
330
70
100
AcDbEntity
  8
EXTERIOR v2_Sketch2
100
AcDbLine
 10
1.904862566688317
 20
8.836283480485267
 30
0.0
 11
1.904862566688317
 21
8.836265671357544
 31
0.0
  0
LINE
  5
17E
330
70
100
AcDbEntity
  8
EXTERIOR v2_Sketch2
100
AcDbLine
 10
12.64650858965286
 20
4.205866389143724
 30
0.0
 11
12.32598663954828
 21
4.438519608937771
 31
0.0
  0
ARC
  5
17F
330
70
100
AcDbEntity
  8
EXTERIOR v2_Sketch2
100
AcDbCircle
 10
-1.144611974150194
 20
7.385492685366629
 30
0.0
 40
0.3000000000000038
100
AcDbArc
 50
339.3738629457246
 51
0.0000000000081422
  0
ARC
  5
180
330
70
100
AcDbEntity
  8
EXTERIOR v2_Sketch2
100
AcDbCircle
 10
1.384113316650752
 20
6.948139866413278
 30
0.0
 40
0.1000000000000012
100
AcDbArc
 50
144.0257021837294
 51
249.3738629457259
  0
LINE
  5
181
330
70
100
AcDbEntity
  8
EXTERIOR v2_Sketch2
100
AcDbLine
 10
-1.545093887607828
 20
6.535797420676741
 30
0.0
 11
-1.845093887607827
 21
6.535797420673042
 31
0.0
  0
LINE
  5
182
330
70
100
AcDbEntity
  8
EXTERIOR v2_Sketch2
100
AcDbLine
 10
12.64650057299554
 20
3.467797511654025
 30
0.0
 11
12.32598746668921
 21
3.235141329914184
 31
0.0
  0
LINE
  5
183
330
70
100
AcDbEntity
  8
EXTERIOR v2_Sketch2
100
AcDbLine
 10
13.1549061124162
 20
8.587146118862243
 30
0.0
 11
12.64650858965285
 21
8.205874681939359
 31
0.0
  0
LINE
  5
184
330
70
100
AcDbEntity
  8
EXTERIOR v2_Sketch2
100
AcDbLine
 10
-1.336696364851253
 20
7.466764122293952
 30
0.0
 11
-1.016174414746675
 21
7.234110902499905
 31
0.0
  0
LINE
  5
185
330
70
100
AcDbEntity
  8
EXTERIOR v2_Sketch2
100
AcDbLine
 10
1.904745318106794
 20
1.836518168031621
 30
0.0
 11
1.904731962196482
 21
1.836535977159345
 31
0.0
  0
LINE
  5
186
330
70
100
AcDbEntity
  8
EXTERIOR v2_Sketch2
100
AcDbLine
 10
8.954593927427467
 20
6.835370190340753
 30
0.0
 11
9.855211690829928
 21
6.835370190340977
 31
0.0
  0
ARC
  5
187
330
70
100
AcDbEntity
  8
EXTERIOR v2_Sketch2
100
AcDbCircle
 10
12.26724368755076
 20
3.316068262467772
 30
0.0
 40
0.0999999999999942
100
AcDbArc
 50
200.6255481051911
 51
305.9753961421744
  0
LINE
  5
188
330
70
100
AcDbEntity
  8
EXTERIOR v2_Sketch2
100
AcDbLine
 10
-0.8446119741502577
 20
7.835788211157861
 30
0.0
 11
-0.8446297832773481
 21
7.835788211157861
 31
0.0
  0
LINE
  5
189
330
70
100
AcDbEntity
  8
EXTERIOR v2_Sketch2
100
AcDbLine
 10
9.035747362969051
 20
4.344337508465121
 30
0.0
 11
8.803094143182356
 21
4.664859458559492
 31
0.0
  0
LINE
  5
18A
330
70
100
AcDbEntity
  8
EXTERIOR v2_Sketch2
100
AcDbLine
 10
-0.8446297832773481
 20
7.835788211157861
 30
0.0
 11
-0.8446119741502577
 21
7.835801567067697
 31
0.0
  0
LINE
  5
18B
330
70
100
AcDbEntity
  8
EXTERIOR v2_Sketch2
100
AcDbLine
 10
9.035865364349042
 20
8.344249626511571
 30
0.0
 11
8.803212144562348
 21
8.664771576605943
 31
0.0
  0
LINE
  5
18C
330
70
100
AcDbEntity
  8
EXTERIOR v2_Sketch2
100
AcDbLine
 10
13.15490611241621
 20
4.587137826066604
 30
0.0
 11
12.64650858965286
 21
4.205866389143724
 31
0.0
  0
ARC
  5
18D
330
70
100
AcDbEntity
  8
EXTERIOR v2_Sketch2
100
AcDbCircle
 10
1.454567040897414
 20
8.536283480485266
 30
0.0
 40
0.3000000000000043
100
AcDbArc
 50
90.00000000000067
 51
110.6261370542834
  0
LINE
  5
18E
330
70
100
AcDbEntity
  8
EXTERIOR v2_Sketch2
100
AcDbLine
 10
1.904862566688317
 20
8.836283480485267
 30
0.0
 11
1.904862566688317
 21
8.836265671357544
 31
0.0
  0
LINE
  5
18F
330
70
100
AcDbEntity
  8
EXTERIOR v2_Sketch2
100
AcDbLine
 10
12.64650057299554
 20
3.467797511654025
 30
0.0
 11
13.1549061123854
 21
3.086520062667016
 31
0.0
  0
ARC
  5
190
330
70
100
AcDbEntity
  8
EXTERIOR v2_Sketch2
100
AcDbCircle
 10
2.425494568142486
 20
1.723715764369433
 30
0.0
 40
0.0999999999999987
100
AcDbArc
 50
324.0257021837246
 51
69.37386294571253
  0
LINE
  5
191
330
70
100
AcDbEntity
  8
EXTERIOR v2_Sketch2
100
AcDbLine
 10
1.535838477824118
 20
7.32740404432627
 30
0.0
 11
1.303185258028886
 21
7.006882094220143
 31
0.0
  0
LINE
  5
192
330
70
100
AcDbEntity
  8
EXTERIOR v2_Sketch2
100
AcDbLine
 10
2.35504084389767
 20
1.836535977159303
 30
0.0
 11
1.454423080495294
 21
1.836535977159386
 31
0.0
  0
LINE
  5
193
330
70
100
AcDbEntity
  8
EXTERIOR v2_Sketch2
100
AcDbLine
 10
1.154567040897406
 20
7.835801567055774
 30
0.0
 11
1.535838477817362
 21
8.344199089794393
 31
0.0
  0
LINE
  5
194
330
70
100
AcDbEntity
  8
EXTERIOR v2_Sketch2
100
AcDbLine
 10
-1.845093887614606
 20
7.08549268537107
 30
0.0
 11
-1.336696364851253
 21
7.466764122293952
 31
0.0
  0
LINE
  5
195
330
70
100
AcDbEntity
  8
EXTERIOR v2_Sketch2
100
AcDbLine
 10
9.035747362975847
 20
3.327542462996793
 30
0.0
 11
8.803094143180704
 21
3.007020512890797
 31
0.0
  0
LINE
  5
196
330
70
100
AcDbEntity
  8
EXTERIOR v2_Sketch2
100
AcDbLine
 10
12.15444200807894
 20
7.836850593075451
 30
0.0
 11
12.15442419895185
 21
7.836837237165616
 31
0.0
  0
ARC
  5
197
330
70
100
AcDbEntity
  8
EXTERIOR v2_Sketch2
100
AcDbCircle
 10
8.954593927429094
 20
8.536334017202445
 30
0.0
 40
0.3000000000000043
100
AcDbArc
 50
90.00000000000067
 51
110.6261370542835
  0
ARC
  5
198
330
70
100
AcDbEntity
  8
EXTERIOR v2_Sketch2
100
AcDbCircle
 10
8.954475926049102
 20
4.536421899155994
 30
0.0
 40
0.3000000000000043
100
AcDbArc
 50
90.00000000000067
 51
110.6261370542835
  0
ARC
  5
199
330
70
100
AcDbEntity
  8
EXTERIOR v2_Sketch2
100
AcDbCircle
 10
-1.144611974150194
 20
7.385492685366629
 30
0.0
 40
0.3000000000000038
100
AcDbArc
 50
339.3738629457246
 51
0.0000000000081422
  0
LINE
  5
19A
330
70
100
AcDbEntity
  8
EXTERIOR v2_Sketch2
100
AcDbLine
 10
2.655040843889333
 20
0.8360540637246254
 30
0.0
 11
2.273769406974746
 21
1.344451586464418
 31
0.0
  0
ARC
  5
19B
330
70
100
AcDbEntity
  8
EXTERIOR v2_Sketch2
100
AcDbCircle
 10
2.35504084389764
 20
1.536535977159299
 30
0.0
 40
0.2999999999999996
100
AcDbArc
 50
69.3738629457118
 51
89.99999999999422
  0
LINE
  5
19C
330
70
100
AcDbEntity
  8
EXTERIOR v2_Sketch2
100
AcDbLine
 10
12.64650858965285
 20
8.205874681939359
 30
0.0
 11
12.32598663954827
 21
8.438527901733408
 31
0.0
  0
ARC
  5
19D
330
70
100
AcDbEntity
  8
EXTERIOR v2_Sketch2
100
AcDbCircle
 10
12.26724368755076
 20
3.316068262467772
 30
0.0
 40
0.0999999999999942
100
AcDbArc
 50
200.6255481051911
 51
305.9753961421744
  0
LINE
  5
19E
330
70
100
AcDbEntity
  8
EXTERIOR v2_Sketch2
100
AcDbLine
 10
9.035747362975843
 20
3.327542462996798
 30
0.0
 11
8.803094143180704
 21
3.007020512890806
 31
0.0
  0
ARC
  5
19F
330
70
100
AcDbEntity
  8
EXTERIOR v2_Sketch2
100
AcDbCircle
 10
9.85509368944986
 20
3.13545807229452
 30
0.0
 40
0.3000000000000043
100
AcDbArc
 50
270.0000000000143
 51
290.6255481052011
  0
ARC
  5
1A0
330
70
100
AcDbEntity
  8
EXTERIOR v2_Sketch2
100
AcDbCircle
 10
9.855093689449864
 20
3.135458072294523
 30
0.0
 40
0.3000000000000043
100
AcDbArc
 50
270.0000000000143
 51
290.6255481051993
  0
ARC
  5
1A1
330
70
100
AcDbEntity
  8
EXTERIOR v2_Sketch2
100
AcDbCircle
 10
9.855211690829854
 20
7.135370190340971
 30
0.0
 40
0.3000000000000043
100
AcDbArc
 50
270.0000000000135
 51
290.6255481052001
  0
LINE
  5
1A2
330
70
100
AcDbEntity
  8
EXTERIOR v2_Sketch2
100
AcDbLine
 10
12.64650057299554
 20
3.467797511654025
 30
0.0
 11
13.1549061123854
 21
3.086520062667016
 31
0.0
  0
LINE
  5
1A3
330
70
100
AcDbEntity
  8
EXTERIOR v2_Sketch2
100
AcDbLine
 10
12.15444200807894
 20
7.836850593075451
 30
0.0
 11
12.15442419895185
 21
7.836837237165616
 31
0.0
  0
LINE
  5
1A4
330
70
100
AcDbEntity
  8
EXTERIOR v2_Sketch2
100
AcDbLine
 10
12.64650858965285
 20
8.205874681939359
 30
0.0
 11
12.32598663954827
 21
8.438527901733408
 31
0.0
  0
LINE
  5
1A5
330
70
100
AcDbEntity
  8
EXTERIOR v2_Sketch2
100
AcDbLine
 10
12.15442419895186
 20
3.836842300279815
 30
0.0
 11
12.15444200807895
 21
3.836842300279815
 31
0.0
  0
LINE
  5
1A6
330
70
100
AcDbEntity
  8
EXTERIOR v2_Sketch2
100
AcDbLine
 10
9.773934241846887
 20
8.344257643159298
 30
0.0
 11
10.00659042358633
 21
8.664770749465199
 31
0.0
  0
LINE
  5
1A7
330
70
100
AcDbEntity
  8
EXTERIOR v2_Sketch2
100
AcDbLine
 10
-1.845093887614606
 20
7.08549268537107
 30
0.0
 11
-1.845093887607827
 21
6.535797420673042
 31
0.0
  0
LINE
  5
1A8
330
70
100
AcDbEntity
  8
EXTERIOR v2_Sketch2
100
AcDbLine
 10
12.64650858965286
 20
4.205866389143724
 30
0.0
 11
12.32598663954828
 21
4.438519608937771
 31
0.0
  0
ARC
  5
1A9
330
70
100
AcDbEntity
  8
EXTERIOR v2_Sketch2
100
AcDbCircle
 10
8.954475926049102
 20
4.536421899155994
 30
0.0
 40
0.3000000000000043
100
AcDbArc
 50
90.00000000000067
 51
110.6261370542835
  0
ARC
  5
1AA
330
70
100
AcDbEntity
  8
EXTERIOR v2_Sketch2
100
AcDbCircle
 10
8.954593927429094
 20
8.536334017202445
 30
0.0
 40
0.3000000000000043
100
AcDbArc
 50
90.00000000000067
 51
110.6261370542835
  0
LINE
  5
1AB
330
70
100
AcDbEntity
  8
EXTERIOR v2_Sketch2
100
AcDbLine
 10
12.15444200807895
 20
3.836842300279815
 30
0.0
 11
12.15442419895186
 21
3.836828944369979
 31
0.0
  0
LINE
  5
1AC
330
70
100
AcDbEntity
  8
EXTERIOR v2_Sketch2
100
AcDbLine
 10
12.64650057299554
 20
3.467797511654025
 30
0.0
 11
12.32598746668921
 21
3.235141329914184
 31
0.0
  0
ARC
  5
1AD
330
70
100
AcDbEntity
  8
EXTERIOR v2_Sketch2
100
AcDbCircle
 10
8.884140203184259
 20
8.72351380441259
 30
0.0
 40
0.0999999999999988
100
AcDbArc
 50
110.6261370542812
 51
215.9742978162709
  0
LINE
  5
1AE
330
70
100
AcDbEntity
  8
EXTERIOR v2_Sketch2
100
AcDbLine
 10
12.15442419895185
 20
7.836850593075451
 30
0.0
 11
12.15444200807894
 21
7.836850593075451
 31
0.0
  0
LINE
  5
1AF
330
70
100
AcDbEntity
  8
EXTERIOR v2_Sketch2
100
AcDbLine
 10
-1.336696364851253
 20
7.466764122293952
 30
0.0
 11
-1.016174414746675
 21
7.234110902499905
 31
0.0
  0
ARC
  5
1B0
330
70
100
AcDbEntity
  8
EXTERIOR v2_Sketch2
100
AcDbCircle
 10
12.26724441174164
 20
8.357599843111493
 30
0.0
 40
0.099999999999994
100
AcDbArc
 50
54.02570218373523
 51
159.3738629457277
  0
LINE
  5
1B1
330
70
100
AcDbEntity
  8
EXTERIOR v2_Sketch2
100
AcDbLine
 10
1.904745318106797
 20
1.836535977159345
 30
0.0
 11
1.904745318106794
 21
1.836518168031621
 31
0.0
  0
LINE
  5
1B2
330
70
100
AcDbEntity
  8
EXTERIOR v2_Sketch2
100
AcDbLine
 10
9.773934241844759
 20
7.327446564384613
 30
0.0
 11
10.00659042358468
 21
7.006933458078256
 31
0.0
  0
LINE
  5
1B3
330
70
100
AcDbEntity
  8
EXTERIOR v2_Sketch2
100
AcDbLine
 10
1.53570052947921
 20
1.344459603117041
 30
0.0
 11
1.303044347740462
 21
1.664972709422157
 31
0.0
  0
LINE
  5
1B4
330
70
100
AcDbEntity
  8
EXTERIOR v2_Sketch2
100
AcDbLine
 10
9.773934241844756
 20
7.327446564384612
 30
0.0
 11
10.15521169083121
 21
7.835852103773193
 31
0.0
  0
ARC
  5
1B5
330
70
100
AcDbEntity
  8
EXTERIOR v2_Sketch2
100
AcDbCircle
 10
8.884140203184259
 20
8.72351380441259
 30
0.0
 40
0.0999999999999988
100
AcDbArc
 50
110.6261370542812
 51
215.9742978162709
  0
LINE
  5
1B6
330
70
100
AcDbEntity
  8
EXTERIOR v2_Sketch2
100
AcDbLine
 10
-0.8446119741501902
 20
7.385492685366672
 30
0.0
 11
-0.8446119741503288
 21
8.286110448768724
 31
0.0
  0
LINE
  5
1B7
330
70
100
AcDbEntity
  8
EXTERIOR v2_Sketch2
100
AcDbLine
 10
12.8549061123931
 20
1.961417659113885
 30
0.0
 11
12.85490611239105
 21
2.261417659113885
 31
0.0
  0
LINE
  5
1B8
330
70
100
AcDbEntity
  8
EXTERIOR v2_Sketch2
100
AcDbLine
 10
12.15444200807895
 20
3.836842300279815
 30
0.0
 11
12.15442419895186
 21
3.836828944369979
 31
0.0
  0
LINE
  5
1B9
330
70
100
AcDbEntity
  8
EXTERIOR v2_Sketch2
100
AcDbLine
 10
12.15444200807895
 20
3.836842300279815
 30
0.0
 11
12.15442419895186
 21
3.836828944369979
 31
0.0
  0
ARC
  5
1BA
330
70
100
AcDbEntity
  8
EXTERIOR v2_Sketch2
100
AcDbCircle
 10
-0.9574321869400392
 20
7.315038961121819
 30
0.0
 40
0.099999999999994
100
AcDbArc
 50
234.0257021837352
 51
339.373862945727
  0
ARC
  5
1BB
330
70
100
AcDbEntity
  8
EXTERIOR v2_Sketch2
100
AcDbCircle
 10
12.45442419895194
 20
3.386520062668998
 30
0.0
 40
0.3000000000000149
100
AcDbArc
 50
180.0000000000088
 51
200.6255481051941
  0
LINE
  5
1BC
330
70
100
AcDbEntity
  8
EXTERIOR v2_Sketch2
100
AcDbLine
 10
1.904745318106797
 20
1.836535977159345
 30
0.0
 11
1.904745318106794
 21
1.836518168031621
 31
0.0
  0
ARC
  5
1BD
330
70
100
AcDbEntity
  8
EXTERIOR v2_Sketch2
100
AcDbCircle
 10
-1.144611974150343
 20
8.286110448768678
 30
0.0
 40
0.3000000000000149
100
AcDbArc
 50
0.0000000000088207
 51
20.62554810519424
  0
ARC
  5
1BE
330
70
100
AcDbEntity
  8
EXTERIOR v2_Sketch2
100
AcDbCircle
 10
1.454567040895556
 20
7.135319653623434
 30
0.0
 40
0.3000000000000061
100
AcDbArc
 50
249.3738629457253
 51
270.0000000000068
  0
ARC
  5
1BF
330
70
100
AcDbEntity
  8
EXTERIOR v2_Sketch2
100
AcDbCircle
 10
12.26724441174164
 20
8.357599843111493
 30
0.0
 40
0.099999999999994
100
AcDbArc
 50
54.02570218373523
 51
159.3738629457277
  0
LINE
  5
1C0
330
70
100
AcDbEntity
  8
EXTERIOR v2_Sketch2
100
AcDbLine
 10
-0.8446297832773481
 20
7.835788211157861
 30
0.0
 11
-0.8446119741502577
 21
7.835788211157861
 31
0.0
  0
LINE
  5
1C1
330
70
100
AcDbEntity
  8
EXTERIOR v2_Sketch2
100
AcDbLine
 10
9.773816240464768
 20
3.327534446338164
 30
0.0
 11
10.00647242220469
 21
3.007021340031806
 31
0.0
  0
LINE
  5
1C2
330
70
100
AcDbEntity
  8
EXTERIOR v2_Sketch2
100
AcDbLine
 10
9.773816240466894
 20
4.344345525112847
 30
0.0
 11
10.15509368945155
 21
3.835939985726499
 31
0.0
  0
LINE
  5
1C3
330
70
100
AcDbEntity
  8
EXTERIOR v2_Sketch2
100
AcDbLine
 10
-1.336688348193941
 20
8.204832999783651
 30
0.0
 11
-1.016175241887605
 21
8.437489181523492
 31
0.0
  0
LINE
  5
1C4
330
70
100
AcDbEntity
  8
EXTERIOR v2_Sketch2
100
AcDbLine
 10
9.404889453219997
 20
8.836334017202444
 30
0.0
 11
9.404889453219997
 21
8.836316208074721
 31
0.0
  0
LINE
  5
1C5
330
70
100
AcDbEntity
  8
EXTERIOR v2_Sketch2
100
AcDbLine
 10
1.535838477817362
 20
8.344199089794393
 30
0.0
 11
1.303185258030667
 21
8.664721039888764
 31
0.0
  0
LINE
  5
1C6
330
70
100
AcDbEntity
  8
EXTERIOR v2_Sketch2
100
AcDbLine
 10
-1.336688348193941
 20
8.204832999783651
 30
0.0
 11
-1.845093887583796
 21
8.586110448770661
 31
0.0
  0
ARC
  5
1C7
330
70
100
AcDbEntity
  8
EXTERIOR v2_Sketch2
100
AcDbCircle
 10
9.855211690831534
 20
8.536334017202442
 30
0.0
 40
0.3000000000000038
100
AcDbArc
 50
69.37445189481548
 51
89.99999999999864
  0
LINE
  5
1C8
330
70
100
AcDbEntity
  8
EXTERIOR v2_Sketch2
100
AcDbLine
 10
-0.8446297832773481
 20
7.835788211157861
 30
0.0
 11
-0.8446119741502577
 21
7.835801567067697
 31
0.0
  0
LINE
  5
1C9
330
70
100
AcDbEntity
  8
EXTERIOR v2_Sketch2
100
AcDbLine
 10
12.15442419895185
 20
7.836850593075451
 30
0.0
 11
12.15444200807894
 21
7.836850593075451
 31
0.0
  0
LINE
  5
1CA
330
70
100
AcDbEntity
  8
EXTERIOR v2_Sketch2
100
AcDbLine
 10
1.154567040917395
 20
7.835801567070767
 30
0.0
 11
1.535838477824082
 21
7.327404044326071
 31
0.0
  0
ARC
  5
1CB
330
70
100
AcDbEntity
  8
EXTERIOR v2_Sketch2
100
AcDbCircle
 10
12.45442419895179
 20
8.287146118866683
 30
0.0
 40
0.300000000000004
100
AcDbArc
 50
159.3738629457244
 51
180.0000000000081
  0
ARC
  5
1CC
330
70
100
AcDbEntity
  8
EXTERIOR v2_Sketch2
100
AcDbCircle
 10
12.45442419895194
 20
3.386520062668998
 30
0.0
 40
0.3000000000000149
100
AcDbArc
 50
180.0000000000088
 51
200.6255481051941
  0
LINE
  5
1CD
330
70
100
AcDbEntity
  8
EXTERIOR v2_Sketch2
100
AcDbLine
 10
9.404889453219997
 20
8.836316208074721
 30
0.0
 11
9.404902809130309
 21
8.836334017202444
 31
0.0
  0
ARC
  5
1CE
330
70
100
AcDbEntity
  8
EXTERIOR v2_Sketch2
100
AcDbCircle
 10
12.45442419895179
 20
8.287146118866683
 30
0.0
 40
0.300000000000004
100
AcDbArc
 50
159.3738629457244
 51
180.0000000000081
  0
ARC
  5
1CF
330
70
100
AcDbEntity
  8
EXTERIOR v2_Sketch2
100
AcDbCircle
 10
9.855211690831534
 20
8.536334017202442
 30
0.0
 40
0.3000000000000038
100
AcDbArc
 50
69.37445189481548
 51
89.99999999999864
  0
LINE
  5
1D0
330
70
100
AcDbEntity
  8
EXTERIOR v2_Sketch2
100
AcDbLine
 10
9.035747362969051
 20
4.344337508465121
 30
0.0
 11
8.803094143182356
 21
4.664859458559492
 31
0.0
  0
ARC
  5
1D1
330
70
100
AcDbEntity
  8
EXTERIOR v2_Sketch2
100
AcDbCircle
 10
12.26724441174164
 20
8.357599843111493
 30
0.0
 40
0.099999999999994
100
AcDbArc
 50
54.02570218373523
 51
159.3738629457277
  0
LINE
  5
1D2
330
70
100
AcDbEntity
  8
EXTERIOR v2_Sketch2
100
AcDbLine
 10
9.773816240466894
 20
4.344345525112849
 30
0.0
 11
10.15509368945155
 21
3.835939985726498
 31
0.0
  0
ARC
  5
1D3
330
70
100
AcDbEntity
  8
EXTERIOR v2_Sketch2
100
AcDbCircle
 10
-0.9574314627491595
 20
8.356562248969904
 30
0.0
 40
0.0999999999999942
100
AcDbArc
 50
20.62554810519113
 51
125.9753961421745
  0
LINE
  5
1D4
330
70
100
AcDbEntity
  8
EXTERIOR v2_Sketch2
100
AcDbLine
 10
12.64650057299554
 20
3.467797511654025
 30
0.0
 11
13.1549061123854
 21
3.086520062667016
 31
0.0
  0
LINE
  5
1D5
330
70
100
AcDbEntity
  8
EXTERIOR v2_Sketch2
100
AcDbLine
 10
-0.8446119741502577
 20
7.835788211157861
 30
0.0
 11
-0.8446297832773481
 21
7.835788211157861
 31
0.0
  0
LINE
  5
1D6
330
70
100
AcDbEntity
  8
EXTERIOR v2_Sketch2
100
AcDbLine
 10
-0.8446297832773481
 20
7.835788211157861
 30
0.0
 11
-0.8446119741502577
 21
7.835788211157861
 31
0.0
  0
ARC
  5
1D7
330
70
100
AcDbEntity
  8
EXTERIOR v2_Sketch2
100
AcDbCircle
 10
8.954475926047397
 20
3.135458072294321
 30
0.0
 40
0.3000000000000056
100
AcDbArc
 50
249.3738629457318
 51
270.0000000000145
  0
ARC
  5
1D8
330
70
100
AcDbEntity
  8
EXTERIOR v2_Sketch2
100
AcDbCircle
 10
9.855211690831534
 20
8.536334017202442
 30
0.0
 40
0.3000000000000038
100
AcDbArc
 50
69.37445189481548
 51
89.99999999999864
  0
LINE
  5
1D9
330
70
100
AcDbEntity
  8
EXTERIOR v2_Sketch2
100
AcDbLine
 10
9.404889453219997
 20
8.836316208074721
 30
0.0
 11
9.404902809130309
 21
8.836334017202444
 31
0.0
  0
ARC
  5
1DA
330
70
100
AcDbEntity
  8
EXTERIOR v2_Sketch2
100
AcDbCircle
 10
12.26724368755076
 20
3.316068262467772
 30
0.0
 40
0.0999999999999942
100
AcDbArc
 50
200.6255481051911
 51
305.9753961421744
  0
ARC
  5
1DB
330
70
100
AcDbEntity
  8
EXTERIOR v2_Sketch2
100
AcDbCircle
 10
12.26724441174164
 20
8.357599843111493
 30
0.0
 40
0.099999999999994
100
AcDbArc
 50
54.02570218373523
 51
159.3738629457277
  0
LINE
  5
1DC
330
70
100
AcDbEntity
  8
EXTERIOR v2_Sketch2
100
AcDbLine
 10
-1.336688348193941
 20
8.204832999783651
 30
0.0
 11
-1.016175241887605
 21
8.437489181523492
 31
0.0
  0
LINE
  5
1DD
330
70
100
AcDbEntity
  8
EXTERIOR v2_Sketch2
100
AcDbLine
 10
13.15490611239105
 20
2.26141765911594
 30
0.0
 11
13.1549061123854
 21
3.086520062667016
 31
0.0
  0
LINE
  5
1DE
330
70
100
AcDbEntity
  8
EXTERIOR v2_Sketch2
100
AcDbLine
 10
12.15444200807895
 20
3.836842300279815
 30
0.0
 11
12.15442419895186
 21
3.836828944369979
 31
0.0
  0
LINE
  5
1DF
330
70
100
AcDbEntity
  8
EXTERIOR v2_Sketch2
100
AcDbLine
 10
9.404771451840005
 20
4.836421899155994
 30
0.0
 11
9.404771451840005
 21
4.836404090028271
 31
0.0
  0
ARC
  5
1E0
330
70
100
AcDbEntity
  8
EXTERIOR v2_Sketch2
100
AcDbCircle
 10
-0.9574314627491595
 20
8.356562248969904
 30
0.0
 40
0.0999999999999942
100
AcDbArc
 50
20.62554810519113
 51
125.9753961421745
  0
LINE
  5
1E1
330
70
100
AcDbEntity
  8
EXTERIOR v2_Sketch2
100
AcDbLine
 10
8.954475926049099
 20
4.836421899155999
 30
0.0
 11
9.85509368945155
 21
4.836421899155996
 31
0.0
  0
LINE
  5
1E2
330
70
100
AcDbEntity
  8
EXTERIOR v2_Sketch2
100
AcDbLine
 10
1.904862566688317
 20
8.836283480485267
 30
0.0
 11
1.904862566688317
 21
8.836265671357544
 31
0.0
  0
LINE
  5
1E3
330
70
100
AcDbEntity
  8
EXTERIOR v2_Sketch2
100
AcDbLine
 10
9.773816240466894
 20
4.344345525112847
 30
0.0
 11
10.15509368945155
 21
3.835939985726499
 31
0.0
  0
ARC
  5
1E4
330
70
100
AcDbEntity
  8
EXTERIOR v2_Sketch2
100
AcDbCircle
 10
8.884022201802615
 20
2.948278285084155
 30
0.0
 40
0.0999999999999989
100
AcDbArc
 50
144.0257021837278
 51
249.3738629457318
  0
LINE
  5
1E5
330
70
100
AcDbEntity
  8
EXTERIOR v2_Sketch2
100
AcDbLine
 10
13.15490611241621
 20
4.587137826066604
 30
0.0
 11
13.15490611240943
 21
5.136833090764631
 31
0.0
  0
LINE
  5
1E6
330
70
100
AcDbEntity
  8
EXTERIOR v2_Sketch2
100
AcDbLine
 10
1.904906107410303
 20
9.835833342346884
 30
0.0
 11
1.904906107410303
 21
9.835851151473972
 31
0.0
  0
LINE
  5
1E7
330
70
100
AcDbEntity
  8
EXTERIOR v2_Sketch2
100
AcDbLine
 10
12.15444200807894
 20
7.836850593075451
 30
0.0
 11
12.15442419895185
 21
7.836837237165616
 31
0.0
  0
LINE
  5
1E8
330
70
100
AcDbEntity
  8
EXTERIOR v2_Sketch2
100
AcDbLine
 10
9.404771451840005
 20
4.836404090028271
 30
0.0
 11
9.404784807750317
 21
4.836421899155994
 31
0.0
  0
LINE
  5
1E9
330
70
100
AcDbEntity
  8
EXTERIOR v2_Sketch2
100
AcDbLine
 10
-1.336688348193941
 20
8.204832999783651
 30
0.0
 11
-1.016175241887605
 21
8.437489181523492
 31
0.0
  0
ARC
  5
1EA
330
70
100
AcDbEntity
  8
EXTERIOR v2_Sketch2
100
AcDbCircle
 10
1.384113316652578
 20
8.723463267695411
 30
0.0
 40
0.0999999999999988
100
AcDbArc
 50
110.6261370542812
 51
215.9742978162705
  0
ARC
  5
1EB
330
70
100
AcDbEntity
  8
EXTERIOR v2_Sketch2
100
AcDbCircle
 10
12.45442419895194
 20
3.386520062668998
 30
0.0
 40
0.3000000000000149
100
AcDbArc
 50
180.0000000000088
 51
200.6255481051941
  0
ARC
  5
1EC
330
70
100
AcDbEntity
  8
EXTERIOR v2_Sketch2
100
AcDbCircle
 10
9.855093689449862
 20
3.135458072294531
 30
0.0
 40
0.3000000000000043
100
AcDbArc
 50
270.0000000000143
 51
290.6255481051997
  0
LINE
  5
1ED
330
70
100
AcDbEntity
  8
EXTERIOR v2_Sketch2
100
AcDbLine
 10
12.64650057299554
 20
3.467797511654025
 30
0.0
 11
12.32598746668921
 21
3.235141329914184
 31
0.0
  0
LINE
  5
1EE
330
70
100
AcDbEntity
  8
EXTERIOR v2_Sketch2
100
AcDbLine
 10
12.85490611239515
 20
1.661417659113884
 30
0.0
 11
13.15490611239515
 21
1.661417659115938
 31
0.0
  0
LINE
  5
1EF
330
70
100
AcDbEntity
  8
EXTERIOR v2_Sketch2
100
AcDbLine
 10
12.15444200807894
 20
7.836850593075451
 30
0.0
 11
12.15442419895185
 21
7.836837237165616
 31
0.0
  0
LINE
  5
1F0
330
70
100
AcDbEntity
  8
EXTERIOR v2_Sketch2
100
AcDbLine
 10
12.15444200807895
 20
3.836842300279815
 30
0.0
 11
12.15442419895186
 21
3.836842300279815
 31
0.0
  0
ARC
  5
1F1
330
70
100
AcDbEntity
  8
EXTERIOR v2_Sketch2
100
AcDbCircle
 10
12.4544241989518
 20
4.287137826071047
 30
0.0
 40
0.3000000000000038
100
AcDbArc
 50
159.3738629457246
 51
180.0000000000081
  0
LINE
  5
1F2
330
70
100
AcDbEntity
  8
EXTERIOR v2_Sketch2
100
AcDbLine
 10
9.404889453219997
 20
8.836334017202444
 30
0.0
 11
9.404889453219997
 21
8.836316208074721
 31
0.0
  0
LINE
  5
1F3
330
70
100
AcDbEntity
  8
EXTERIOR v2_Sketch2
100
AcDbLine
 10
-0.8446297832773481
 20
7.835788211157861
 30
0.0
 11
-0.8446119741502577
 21
7.835788211157861
 31
0.0
  0
ARC
  5
1F4
330
70
100
AcDbEntity
  8
EXTERIOR v2_Sketch2
100
AcDbCircle
 10
-1.144611974150343
 20
8.286110448768678
 30
0.0
 40
0.3000000000000149
100
AcDbArc
 50
0.0000000000088207
 51
20.62554810519424
  0
ARC
  5
1F5
330
70
100
AcDbEntity
  8
EXTERIOR v2_Sketch2
100
AcDbCircle
 10
12.45442419895179
 20
8.287146118866683
 30
0.0
 40
0.300000000000004
100
AcDbArc
 50
159.3738629457244
 51
180.0000000000081
  0
LINE
  5
1F6
330
70
100
AcDbEntity
  8
EXTERIOR v2_Sketch2
100
AcDbLine
 10
1.154610581623509
 20
10.83631525581123
 30
0.0
 11
1.535882018546393
 21
10.32791773304787
 31
0.0
  0
LINE
  5
1F7
330
70
100
AcDbEntity
  8
EXTERIOR v2_Sketch2
100
AcDbLine
 10
12.15442419895185
 20
7.836850593075451
 30
0.0
 11
12.15444200807894
 21
7.836850593075451
 31
0.0
  0
LINE
  5
1F8
330
70
100
AcDbEntity
  8
EXTERIOR v2_Sketch2
100
AcDbLine
 10
1.904862566688317
 20
8.836265671357544
 30
0.0
 11
1.904875922598629
 21
8.836283480485267
 31
0.0
  0
LINE
  5
1F9
330
70
100
AcDbEntity
  8
EXTERIOR v2_Sketch2
100
AcDbLine
 10
-1.336688348193941
 20
8.204832999783651
 30
0.0
 11
-1.845093887583796
 21
8.586110448770661
 31
0.0
  0
LINE
  5
1FA
330
70
100
AcDbEntity
  8
EXTERIOR v2_Sketch2
100
AcDbLine
 10
12.85490611239105
 20
2.261417659113885
 30
0.0
 11
13.15490611239105
 21
2.26141765911594
 31
0.0
  0
LINE
  5
1FB
330
70
100
AcDbEntity
  8
EXTERIOR v2_Sketch2
100
AcDbLine
 10
9.773816240466894
 20
4.344345525112847
 30
0.0
 11
10.15509368945155
 21
3.835939985726499
 31
0.0
  0
LINE
  5
1FC
330
70
100
AcDbEntity
  8
EXTERIOR v2_Sketch2
100
AcDbLine
 10
-0.8446297832773481
 20
7.835788211157861
 30
0.0
 11
-0.8446119741502577
 21
7.835801567067697
 31
0.0
  0
ARC
  5
1FD
330
70
100
AcDbEntity
  8
EXTERIOR v2_Sketch2
100
AcDbCircle
 10
12.45442419895179
 20
8.287146118866683
 30
0.0
 40
0.300000000000004
100
AcDbArc
 50
159.3738629457244
 51
180.0000000000081
  0
LINE
  5
1FE
330
70
100
AcDbEntity
  8
EXTERIOR v2_Sketch2
100
AcDbLine
 10
9.404889453219997
 20
8.836334017202444
 30
0.0
 11
9.404889453219997
 21
8.836316208074721
 31
0.0
  0
LINE
  5
1FF
330
70
100
AcDbEntity
  8
EXTERIOR v2_Sketch2
100
AcDbLine
 10
-1.336688348193941
 20
8.204832999783651
 30
0.0
 11
-1.845093887583796
 21
8.586110448770661
 31
0.0
  0
LINE
  5
200
330
70
100
AcDbEntity
  8
EXTERIOR v2_Sketch2
100
AcDbLine
 10
12.15444200807894
 20
7.836850593075451
 30
0.0
 11
12.15442419895185
 21
7.836850593075451
 31
0.0
  0
ARC
  5
201
330
70
100
AcDbEntity
  8
EXTERIOR v2_Sketch2
100
AcDbCircle
 10
12.4544241989518
 20
4.287137826071047
 30
0.0
 40
0.3000000000000038
100
AcDbArc
 50
159.3738629457246
 51
180.0000000000081
  0
LINE
  5
202
330
70
100
AcDbEntity
  8
EXTERIOR v2_Sketch2
100
AcDbLine
 10
13.1549061124008
 20
0.8363152555648611
 30
0.0
 11
13.15490611239515
 21
1.661417659115938
 31
0.0
  0
ARC
  5
203
330
70
100
AcDbEntity
  8
EXTERIOR v2_Sketch2
100
AcDbCircle
 10
1.384113316652578
 20
8.723463267695411
 30
0.0
 40
0.0999999999999988
100
AcDbArc
 50
110.6261370542812
 51
215.9742978162705
  0
LINE
  5
204
330
70
100
AcDbEntity
  8
EXTERIOR v2_Sketch2
100
AcDbLine
 10
-0.8446119741502577
 20
7.835788211157861
 30
0.0
 11
-0.8446297832773481
 21
7.835788211157861
 31
0.0
  0
ARC
  5
205
330
70
100
AcDbEntity
  8
EXTERIOR v2_Sketch2
100
AcDbCircle
 10
-1.144611974150343
 20
8.286110448768678
 30
0.0
 40
0.3000000000000149
100
AcDbArc
 50
0.0000000000088207
 51
20.62554810519424
  0
ARC
  5
206
330
70
100
AcDbEntity
  8
EXTERIOR v2_Sketch2
100
AcDbCircle
 10
9.925663491032725
 20
8.723514528603635
 30
0.0
 40
0.1000000000000027
100
AcDbArc
 50
324.0246038578354
 51
69.37445189481746
  0
ARC
  5
207
330
70
100
AcDbEntity
  8
EXTERIOR v2_Sketch2
100
AcDbCircle
 10
9.925663491032729
 20
8.723514528603635
 30
0.0
 40
0.1000000000000027
100
AcDbArc
 50
324.0246038578354
 51
69.37445189481938
  0
LINE
  5
208
330
70
100
AcDbEntity
  8
EXTERIOR v2_Sketch2
100
AcDbLine
 10
8.95459392742909
 20
8.83633401720245
 30
0.0
 11
9.855211690831541
 21
8.836334017202446
 31
0.0
  0
LINE
  5
209
330
70
100
AcDbEntity
  8
EXTERIOR v2_Sketch2
100
AcDbLine
 10
9.404889453219997
 20
8.836316208074721
 30
0.0
 11
9.404902809130309
 21
8.836334017202444
 31
0.0
  0
ARC
  5
20A
330
70
100
AcDbEntity
  8
EXTERIOR v2_Sketch2
100
AcDbCircle
 10
12.26724441174164
 20
4.357591550315857
 30
0.0
 40
0.099999999999994
100
AcDbArc
 50
54.02570218373523
 51
159.3738629457272
  0
LINE
  5
20B
330
70
100
AcDbEntity
  8
EXTERIOR v2_Sketch2
100
AcDbLine
 10
-0.8446297832773481
 20
7.835788211157861
 30
0.0
 11
-0.8446119741502577
 21
7.835788211157861
 31
0.0
  0
LINE
  5
20C
330
70
100
AcDbEntity
  8
EXTERIOR v2_Sketch2
100
AcDbLine
 10
9.035865364349042
 20
8.344249626511571
 30
0.0
 11
8.803212144562348
 21
8.664771576605943
 31
0.0
  0
LINE
  5
20D
330
70
100
AcDbEntity
  8
EXTERIOR v2_Sketch2
100
AcDbLine
 10
1.904906107410303
 20
9.835851151473972
 30
0.0
 11
1.904906107410303
 21
9.835833342346884
 31
0.0
  0
ARC
  5
20E
330
70
100
AcDbEntity
  8
EXTERIOR v2_Sketch2
100
AcDbCircle
 10
9.925663491032729
 20
8.723514528603635
 30
0.0
 40
0.1000000000000027
100
AcDbArc
 50
324.0246038578354
 51
69.37445189481938
  0
LINE
  5
20F
330
70
100
AcDbEntity
  8
EXTERIOR v2_Sketch2
100
AcDbLine
 10
8.95459392742909
 20
8.83633401720245
 30
0.0
 11
9.855211690831541
 21
8.836334017202446
 31
0.0
  0
LINE
  5
210
330
70
100
AcDbEntity
  8
EXTERIOR v2_Sketch2
100
AcDbLine
 10
-1.545093887589446
 20
9.411212852323792
 30
0.0
 11
-1.845093887589445
 21
9.411212852321737
 31
0.0
  0
LINE
  5
211
330
70
100
AcDbEntity
  8
EXTERIOR v2_Sketch2
100
AcDbLine
 10
8.95459392742909
 20
8.83633401720245
 30
0.0
 11
9.855211690831541
 21
8.836334017202446
 31
0.0
  0
ARC
  5
212
330
70
100
AcDbEntity
  8
EXTERIOR v2_Sketch2
100
AcDbCircle
 10
9.855093689451543
 20
4.536421899155992
 30
0.0
 40
0.3000000000000038
100
AcDbArc
 50
69.37445189481548
 51
89.99999999999864
  0
ARC
  5
213
330
70
100
AcDbEntity
  8
EXTERIOR v2_Sketch2
100
AcDbCircle
 10
8.88397045642862
 20
1.723194080264597
 30
0.0
 40
0.0999999999999995
100
AcDbArc
 50
110.625548105228
 51
215.9753961421982
  0
LINE
  5
214
330
70
100
AcDbEntity
  8
EXTERIOR v2_Sketch2
100
AcDbLine
 10
-1.336688348193941
 20
8.204832999783651
 30
0.0
 11
-1.845093887583796
 21
8.586110448770661
 31
0.0
  0
LINE
  5
215
330
70
100
AcDbEntity
  8
EXTERIOR v2_Sketch2
100
AcDbLine
 10
8.95459392742909
 20
8.83633401720245
 30
0.0
 11
9.855211690831541
 21
8.836334017202446
 31
0.0
  0
LINE
  5
216
330
70
100
AcDbEntity
  8
EXTERIOR v2_Sketch2
100
AcDbLine
 10
12.15444200807895
 20
3.836842300279815
 30
0.0
 11
12.15442419895186
 21
3.836842300279815
 31
0.0
  0
LINE
  5
217
330
70
100
AcDbEntity
  8
EXTERIOR v2_Sketch2
100
AcDbLine
 10
-0.8446297832773481
 20
7.835788211157861
 30
0.0
 11
-0.8446119741502577
 21
7.835801567067697
 31
0.0
  0
LINE
  5
218
330
70
100
AcDbEntity
  8
EXTERIOR v2_Sketch2
100
AcDbLine
 10
12.15442419895186
 20
3.836842300279815
 30
0.0
 11
12.15444200807895
 21
3.836842300279815
 31
0.0
  0
LINE
  5
219
330
70
100
AcDbEntity
  8
EXTERIOR v2_Sketch2
100
AcDbLine
 10
9.404889453219997
 20
8.836334017202444
 30
0.0
 11
9.404889453219997
 21
8.836316208074721
 31
0.0
  0
ARC
  5
21A
330
70
100
AcDbEntity
  8
EXTERIOR v2_Sketch2
100
AcDbCircle
 10
-0.9574314627491595
 20
8.356562248969904
 30
0.0
 40
0.0999999999999942
100
AcDbArc
 50
20.62554810519113
 51
125.9753961421745
  0
LINE
  5
21B
330
70
100
AcDbEntity
  8
EXTERIOR v2_Sketch2
100
AcDbLine
 10
-1.336688348193941
 20
8.204832999783651
 30
0.0
 11
-1.016175241887605
 21
8.437489181523492
 31
0.0
  0
ARC
  5
21C
330
70
100
AcDbEntity
  8
EXTERIOR v2_Sketch2
100
AcDbCircle
 10
9.925663491032729
 20
8.723514528603635
 30
0.0
 40
0.1000000000000027
100
AcDbArc
 50
324.0246038578354
 51
69.37445189481938
  0
ARC
  5
21D
330
70
100
AcDbEntity
  8
EXTERIOR v2_Sketch2
100
AcDbCircle
 10
9.855211690831534
 20
8.536334017202442
 30
0.0
 40
0.3000000000000038
100
AcDbArc
 50
69.37445189481548
 51
89.99999999999864
  0
LINE
  5
21E
330
70
100
AcDbEntity
  8
EXTERIOR v2_Sketch2
100
AcDbLine
 10
10.15504002001538
 20
0.835531655428285
 30
0.0
 11
9.773768583107205
 21
1.343929178165636
 31
0.0
  0
LINE
  5
21F
330
70
100
AcDbEntity
  8
EXTERIOR v2_Sketch2
100
AcDbLine
 10
9.404771451840005
 20
4.836421899155994
 30
0.0
 11
9.404771451840005
 21
4.836404090028271
 31
0.0
  0
LINE
  5
220
330
70
100
AcDbEntity
  8
EXTERIOR v2_Sketch2
100
AcDbLine
 10
13.15490611241621
 20
4.587137826066604
 30
0.0
 11
12.64650858965286
 21
4.205866389143724
 31
0.0
  0
LINE
  5
221
330
70
100
AcDbEntity
  8
EXTERIOR v2_Sketch2
100
AcDbLine
 10
9.035865364349042
 20
8.344249626511571
 30
0.0
 11
8.803212144562348
 21
8.664771576605943
 31
0.0
  0
LINE
  5
222
330
70
100
AcDbEntity
  8
EXTERIOR v2_Sketch2
100
AcDbLine
 10
12.15444200807895
 20
3.836842300279815
 30
0.0
 11
12.15442419895186
 21
3.836842300279815
 31
0.0
  0
LINE
  5
223
330
70
100
AcDbEntity
  8
EXTERIOR v2_Sketch2
100
AcDbLine
 10
9.404889453219997
 20
8.836334017202444
 30
0.0
 11
9.404889453219997
 21
8.836316208074721
 31
0.0
  0
LINE
  5
224
330
70
100
AcDbEntity
  8
EXTERIOR v2_Sketch2
100
AcDbLine
 10
13.15490611241621
 20
4.587137826066604
 30
0.0
 11
12.64650858965286
 21
4.205866389143724
 31
0.0
  0
LINE
  5
225
330
70
100
AcDbEntity
  8
EXTERIOR v2_Sketch2
100
AcDbLine
 10
12.8549061124008
 20
5.836833090760932
 30
0.0
 11
12.85490611240943
 21
5.136833090760933
 31
0.0
  0
LINE
  5
226
330
70
100
AcDbEntity
  8
EXTERIOR v2_Sketch2
100
AcDbLine
 10
12.15442419895186
 20
3.836842300279815
 30
0.0
 11
12.15444200807895
 21
3.836842300279815
 31
0.0
  0
ARC
  5
227
330
70
100
AcDbEntity
  8
EXTERIOR v2_Sketch2
100
AcDbCircle
 10
12.4544241989518
 20
4.287137826071047
 30
0.0
 40
0.3000000000000038
100
AcDbArc
 50
159.3738629457246
 51
180.0000000000081
  0
LINE
  5
228
330
70
100
AcDbEntity
  8
EXTERIOR v2_Sketch2
100
AcDbLine
 10
9.404771451840005
 20
4.836421899155994
 30
0.0
 11
9.404771451840005
 21
4.836404090028271
 31
0.0
  0
ARC
  5
229
330
70
100
AcDbEntity
  8
EXTERIOR v2_Sketch2
100
AcDbCircle
 10
8.884140203184259
 20
8.72351380441259
 30
0.0
 40
0.0999999999999988
100
AcDbArc
 50
110.6261370542812
 51
215.9742978162709
  0
LINE
  5
22A
330
70
100
AcDbEntity
  8
EXTERIOR v2_Sketch2
100
AcDbLine
 10
12.15444200807894
 20
7.836850593075451
 30
0.0
 11
12.15442419895185
 21
7.836850593075451
 31
0.0
  0
LINE
  5
22B
330
70
100
AcDbEntity
  8
EXTERIOR v2_Sketch2
100
AcDbLine
 10
8.954475926049099
 20
4.836421899155999
 30
0.0
 11
9.85509368945155
 21
4.836421899155995
 31
0.0
  0
LINE
  5
22C
330
70
100
AcDbEntity
  8
EXTERIOR v2_Sketch2
100
AcDbLine
 10
8.954475926049099
 20
4.836421899155999
 30
0.0
 11
9.85509368945155
 21
4.836421899155996
 31
0.0
  0
LINE
  5
22D
330
70
100
AcDbEntity
  8
EXTERIOR v2_Sketch2
100
AcDbLine
 10
1.535838477817362
 20
8.344199089794393
 30
0.0
 11
1.303185258030667
 21
8.664721039888764
 31
0.0
  0
LINE
  5
22E
330
70
100
AcDbEntity
  8
EXTERIOR v2_Sketch2
100
AcDbLine
 10
1.904862566688317
 20
8.836265671357544
 30
0.0
 11
1.904875922598629
 21
8.836283480485267
 31
0.0
  0
ARC
  5
22F
330
70
100
AcDbEntity
  8
EXTERIOR v2_Sketch2
100
AcDbCircle
 10
1.454610581619069
 20
10.13583334234682
 30
0.0
 40
0.3000000000000034
100
AcDbArc
 50
249.3738629457248
 51
270.0000000000082
  0
ARC
  5
230
330
70
100
AcDbEntity
  8
EXTERIOR v2_Sketch2
100
AcDbCircle
 10
-1.144611974150343
 20
8.286110448768678
 30
0.0
 40
0.3000000000000149
100
AcDbArc
 50
0.0000000000088207
 51
20.62554810519424
  0
LINE
  5
231
330
70
100
AcDbEntity
  8
EXTERIOR v2_Sketch2
100
AcDbLine
 10
9.035747362975843
 20
3.327542462996799
 30
0.0
 11
8.8030941431807
 21
3.007020512890804
 31
0.0
  0
LINE
  5
232
330
70
100
AcDbEntity
  8
EXTERIOR v2_Sketch2
100
AcDbLine
 10
9.404889453219997
 20
8.836334017202444
 30
0.0
 11
9.404889453219997
 21
8.836316208074721
 31
0.0
  0
LINE
  5
233
330
70
100
AcDbEntity
  8
EXTERIOR v2_Sketch2
100
AcDbLine
 10
9.404889453219997
 20
8.836334017202444
 30
0.0
 11
9.404889453219997
 21
8.836316208074721
 31
0.0
  0
LINE
  5
234
330
70
100
AcDbEntity
  8
EXTERIOR v2_Sketch2
100
AcDbLine
 10
12.85490611240943
 20
5.136833090760933
 30
0.0
 11
13.15490611240943
 21
5.136833090764631
 31
0.0
  0
LINE
  5
235
330
70
100
AcDbEntity
  8
EXTERIOR v2_Sketch2
100
AcDbLine
 10
13.1549061124162
 20
8.587146118862243
 30
0.0
 11
12.64650858965285
 21
8.205874681939359
 31
0.0
  0
ARC
  5
236
330
70
100
AcDbEntity
  8
EXTERIOR v2_Sketch2
100
AcDbCircle
 10
8.884022201802615
 20
2.948278285084154
 30
0.0
 40
0.100000000000002
100
AcDbArc
 50
144.0257021837289
 51
249.3738629457315
  0
LINE
  5
237
330
70
100
AcDbEntity
  8
EXTERIOR v2_Sketch2
100
AcDbLine
 10
8.954475926047473
 20
2.835458072294304
 30
0.0
 11
9.855093689449937
 21
2.835458072294527
 31
0.0
  0
LINE
  5
238
330
70
100
AcDbEntity
  8
EXTERIOR v2_Sketch2
100
AcDbLine
 10
9.404889453219997
 20
8.836316208074721
 30
0.0
 11
9.404902809130309
 21
8.836334017202444
 31
0.0
  0
LINE
  5
239
330
70
100
AcDbEntity
  8
EXTERIOR v2_Sketch2
100
AcDbLine
 10
9.404889453219997
 20
8.836334017202444
 30
0.0
 11
9.404889453219997
 21
8.836316208074721
 31
0.0
  0
ARC
  5
23A
330
70
100
AcDbEntity
  8
EXTERIOR v2_Sketch2
100
AcDbCircle
 10
9.925545489652735
 20
4.723602410557185
 30
0.0
 40
0.1000000000000027
100
AcDbArc
 50
324.0246038578354
 51
69.37445189481842
  0
LINE
  5
23B
330
70
100
AcDbEntity
  8
EXTERIOR v2_Sketch2
100
AcDbLine
 10
1.154567040917523
 20
7.835801567070861
 30
0.0
 11
1.535838477824118
 21
7.32740404432627
 31
0.0
  0
LINE
  5
23C
330
70
100
AcDbEntity
  8
EXTERIOR v2_Sketch2
100
AcDbLine
 10
8.954475926049099
 20
4.836421899155999
 30
0.0
 11
9.85509368945155
 21
4.836421899155996
 31
0.0
  0
LINE
  5
23D
330
70
100
AcDbEntity
  8
EXTERIOR v2_Sketch2
100
AcDbLine
 10
-0.8446119741502577
 20
7.835788211157861
 30
0.0
 11
-0.8446297832773481
 21
7.835788211157861
 31
0.0
  0
LINE
  5
23E
330
70
100
AcDbEntity
  8
EXTERIOR v2_Sketch2
100
AcDbLine
 10
13.1549061124162
 20
8.587146118862243
 30
0.0
 11
12.64650858965285
 21
8.205874681939359
 31
0.0
  0
ARC
  5
23F
330
70
100
AcDbEntity
  8
EXTERIOR v2_Sketch2
100
AcDbCircle
 10
9.925493744277147
 20
1.723193356074089
 30
0.0
 40
0.0999999999999938
100
AcDbArc
 50
324.0257021837562
 51
69.37386294575469
  0
ARC
  5
240
330
70
100
AcDbEntity
  8
EXTERIOR v2_Sketch2
100
AcDbCircle
 10
8.954475926047395
 20
3.135458072294318
 30
0.0
 40
0.3000000000000056
100
AcDbArc
 50
249.3738629457318
 51
270.0000000000145
  0
LINE
  5
241
330
70
100
AcDbEntity
  8
EXTERIOR v2_Sketch2
100
AcDbLine
 10
12.64650057299554
 20
3.467797511654025
 30
0.0
 11
13.1549061123854
 21
3.086520062667016
 31
0.0
  0
LINE
  5
242
330
70
100
AcDbEntity
  8
EXTERIOR v2_Sketch2
100
AcDbLine
 10
1.904775486446196
 20
4.836257378561865
 30
0.0
 11
1.904788842356508
 21
4.836275187689587
 31
0.0
  0
LINE
  5
243
330
70
100
AcDbEntity
  8
EXTERIOR v2_Sketch2
100
AcDbLine
 10
1.454479960655289
 20
4.836275187689592
 30
0.0
 11
2.355097724057742
 21
4.836275187689588
 31
0.0
  0
LINE
  5
244
330
70
100
AcDbEntity
  8
EXTERIOR v2_Sketch2
100
AcDbLine
 10
9.773816240466894
 20
4.344345525112847
 30
0.0
 11
10.00647242220634
 21
4.664858631418749
 31
0.0
  0
LINE
  5
245
330
70
100
AcDbEntity
  8
EXTERIOR v2_Sketch2
100
AcDbLine
 10
1.154479960655285
 20
3.835793274260095
 30
0.0
 11
1.535751397575241
 21
4.344190796998715
 31
0.0
  0
ARC
  5
246
330
70
100
AcDbEntity
  8
EXTERIOR v2_Sketch2
100
AcDbCircle
 10
1.384026236410457
 20
4.723454974899732
 30
0.0
 40
0.0999999999999988
100
AcDbArc
 50
110.6261370542812
 51
215.9742978162709
  0
ARC
  5
247
330
70
100
AcDbEntity
  8
EXTERIOR v2_Sketch2
100
AcDbCircle
 10
1.454479960655293
 20
4.536275187689588
 30
0.0
 40
0.3000000000000043
100
AcDbArc
 50
90.00000000000067
 51
110.6261370542834
  0
LINE
  5
248
330
70
100
AcDbEntity
  8
EXTERIOR v2_Sketch2
100
AcDbLine
 10
9.773816240466894
 20
4.344345525112849
 30
0.0
 11
10.00647242220633
 21
4.664858631418749
 31
0.0
  0
LINE
  5
249
330
70
100
AcDbEntity
  8
EXTERIOR v2_Sketch2
100
AcDbLine
 10
1.904775486446196
 20
4.836275187689587
 30
0.0
 11
1.904775486446196
 21
4.836257378561865
 31
0.0
  0
LINE
  5
24A
330
70
100
AcDbEntity
  8
EXTERIOR v2_Sketch2
100
AcDbLine
 10
8.654475926049094
 20
3.835939985726501
 30
0.0
 11
9.035747362969051
 21
4.344337508465121
 31
0.0
  0
LINE
  5
24B
330
70
100
AcDbEntity
  8
EXTERIOR v2_Sketch2
100
AcDbLine
 10
8.654593927448967
 20
7.835852103787862
 30
0.0
 11
9.035865364355839
 21
7.327454581043243
 31
0.0
  0
LINE
  5
24C
330
70
100
AcDbEntity
  8
EXTERIOR v2_Sketch2
100
AcDbLine
 10
8.654593927429086
 20
7.835852103772952
 30
0.0
 11
9.035865364349042
 21
8.344249626511571
 31
0.0
  0
ARC
  5
24D
330
70
100
AcDbEntity
  8
EXTERIOR v2_Sketch2
100
AcDbCircle
 10
5.65477217174107
 20
1.660789627599163
 30
0.0
 40
0.1499999999999995
100
AcDbArc
 50
179.9991230667914
 51
359.9991222130177
  0
LINE
  5
24E
330
70
100
AcDbEntity
  8
EXTERIOR v2_Sketch2
100
AcDbLine
 10
8.654475926068979
 20
3.835939985741413
 30
0.0
 11
9.035747362975843
 21
3.327542462996799
 31
0.0
  0
ARC
  5
24F
330
70
100
AcDbEntity
  8
EXTERIOR v2_Sketch2
100
AcDbCircle
 10
5.654825356340769
 20
5.135687223235719
 30
0.0
 40
0.1499999999999995
100
AcDbArc
 50
179.9991230667914
 51
359.999122213018
  0
ARC
  5
250
330
70
100
AcDbEntity
  8
EXTERIOR v2_Sketch2
100
AcDbCircle
 10
5.654781354964153
 20
2.26078962745861
 30
0.0
 40
0.1499999999999995
100
AcDbArc
 50
359.9991230667915
 51
179.9991222130178
  0
LINE
  5
251
330
70
100
AcDbEntity
  8
EXTERIOR v2_Sketch2
100
AcDbLine
 10
5.804772171723501
 20
1.660787331793392
 30
0.0
 11
5.804781354946584
 21
2.260787331652839
 31
0.0
  0
LINE
  5
252
330
70
100
AcDbEntity
  8
EXTERIOR v2_Sketch2
100
AcDbLine
 10
8.654593927448971
 20
7.835852103787864
 30
0.0
 11
9.035865364355835
 21
7.32745458104325
 31
0.0
  0
ARC
  5
253
330
70
100
AcDbEntity
  8
EXTERIOR v2_Sketch2
100
AcDbCircle
 10
1.384113316650802
 20
6.948139866413493
 30
0.0
 40
0.1000000000000037
100
AcDbArc
 50
144.0257021837292
 51
249.3738629457251
  0
LINE
  5
254
330
70
100
AcDbEntity
  8
EXTERIOR v2_Sketch2
100
AcDbLine
 10
2.273820275073083
 20
4.344198813646444
 30
0.0
 11
2.655097724057737
 21
3.835793274260091
 31
0.0
  0
LINE
  5
255
330
70
100
AcDbEntity
  8
EXTERIOR v2_Sketch2
100
AcDbLine
 10
2.273820275073084
 20
4.344198813646444
 30
0.0
 11
2.655097724057737
 21
3.835793274260091
 31
0.0
  0
ARC
  5
256
330
70
100
AcDbEntity
  8
EXTERIOR v2_Sketch2
100
AcDbCircle
 10
-0.9574314627491595
 20
8.356562248969904
 30
0.0
 40
0.0999999999999942
100
AcDbArc
 50
20.62554810519113
 51
125.9753961421745
  0
ARC
  5
257
330
70
100
AcDbEntity
  8
EXTERIOR v2_Sketch2
100
AcDbCircle
 10
8.954593927429094
 20
8.536334017202445
 30
0.0
 40
0.3000000000000043
100
AcDbArc
 50
90.00000000000067
 51
110.6261370542835
  0
LINE
  5
258
330
70
100
AcDbEntity
  8
EXTERIOR v2_Sketch2
100
AcDbLine
 10
12.15442419895186
 20
3.836842300279815
 30
0.0
 11
12.15444200807895
 21
3.836842300279815
 31
0.0
  0
ARC
  5
259
330
70
100
AcDbEntity
  8
EXTERIOR v2_Sketch2
100
AcDbCircle
 10
1.454479960655293
 20
4.536275187689588
 30
0.0
 40
0.3000000000000043
100
AcDbArc
 50
90.00000000000067
 51
110.6261370542834
  0
ARC
  5
25A
330
70
100
AcDbEntity
  8
EXTERIOR v2_Sketch2
100
AcDbCircle
 10
1.384026236410457
 20
4.723454974899732
 30
0.0
 40
0.0999999999999988
100
AcDbArc
 50
110.6261370542812
 51
215.9742978162709
  0
LINE
  5
25B
330
70
100
AcDbEntity
  8
EXTERIOR v2_Sketch2
100
AcDbLine
 10
8.654593927429086
 20
7.835852103772952
 30
0.0
 11
9.035865364349042
 21
8.344249626511571
 31
0.0
  0
LINE
  5
25C
330
70
100
AcDbEntity
  8
EXTERIOR v2_Sketch2
100
AcDbLine
 10
9.035699705614801
 20
1.343937194820203
 30
0.0
 11
8.654422256628565
 21
0.8355316554320548
 31
0.0
  0
LINE
  5
25D
330
70
100
AcDbEntity
  8
EXTERIOR v2_Sketch2
100
AcDbLine
 10
1.535751397575243
 20
4.344190796998715
 30
0.0
 11
1.303098177788546
 21
4.664712747093085
 31
0.0
  0
LINE
  5
25E
330
70
100
AcDbEntity
  8
EXTERIOR v2_Sketch2
100
AcDbLine
 10
1.904775486446196
 20
4.836275187689587
 30
0.0
 11
1.904775486446196
 21
4.836257378561865
 31
0.0
  0
LINE
  5
25F
330
70
100
AcDbEntity
  8
EXTERIOR v2_Sketch2
100
AcDbLine
 10
1.454479960655289
 20
4.836275187689592
 30
0.0
 11
2.35509772405774
 21
4.836275187689588
 31
0.0
  0
ARC
  5
260
330
70
100
AcDbEntity
  8
EXTERIOR v2_Sketch2
100
AcDbCircle
 10
2.355097724057735
 20
4.536275187689584
 30
0.0
 40
0.3000000000000038
100
AcDbArc
 50
69.37445189481548
 51
89.99999999999864
  0
LINE
  5
261
330
70
100
AcDbEntity
  8
EXTERIOR v2_Sketch2
100
AcDbLine
 10
1.154479960655285
 20
3.835793274260095
 30
0.0
 11
1.535751397575243
 21
4.344190796998715
 31
0.0
  0
ARC
  5
262
330
70
100
AcDbEntity
  8
EXTERIOR v2_Sketch2
100
AcDbCircle
 10
1.384026236410457
 20
4.723454974899732
 30
0.0
 40
0.0999999999999988
100
AcDbArc
 50
110.6261370542812
 51
215.9742978162709
  0
LINE
  5
263
330
70
100
AcDbEntity
  8
EXTERIOR v2_Sketch2
100
AcDbLine
 10
1.154479960655285
 20
3.835793274260095
 30
0.0
 11
1.535751397575243
 21
4.344190796998715
 31
0.0
  0
ARC
  5
264
330
70
100
AcDbEntity
  8
EXTERIOR v2_Sketch2
100
AcDbCircle
 10
1.384026236410457
 20
4.723454974899732
 30
0.0
 40
0.0999999999999988
100
AcDbArc
 50
110.6261370542812
 51
215.9742978162709
  0
LINE
  5
265
330
70
100
AcDbEntity
  8
EXTERIOR v2_Sketch2
100
AcDbLine
 10
8.654475926049094
 20
3.835939985726501
 30
0.0
 11
9.035747362969051
 21
4.344337508465121
 31
0.0
  0
ARC
  5
266
330
70
100
AcDbEntity
  8
EXTERIOR v2_Sketch2
100
AcDbCircle
 10
12.45442419895194
 20
3.386520062668998
 30
0.0
 40
0.3000000000000149
100
AcDbArc
 50
180.0000000000088
 51
200.6255481051941
  0
LINE
  5
267
330
70
100
AcDbEntity
  8
EXTERIOR v2_Sketch2
100
AcDbLine
 10
1.454479960655289
 20
4.836275187689592
 30
0.0
 11
2.35509772405774
 21
4.836275187689588
 31
0.0
  0
LINE
  5
268
330
70
100
AcDbEntity
  8
EXTERIOR v2_Sketch2
100
AcDbLine
 10
5.504781354981723
 20
2.260791923264381
 30
0.0
 11
5.50477217175864
 21
1.660791923404934
 31
0.0
  0
LINE
  5
269
330
70
100
AcDbEntity
  8
EXTERIOR v2_Sketch2
100
AcDbLine
 10
12.15444200807895
 20
3.836842300279815
 30
0.0
 11
12.15442419895186
 21
3.836842300279815
 31
0.0
  0
ARC
  5
26A
330
70
100
AcDbEntity
  8
EXTERIOR v2_Sketch2
100
AcDbCircle
 10
8.884140203184259
 20
8.72351380441259
 30
0.0
 40
0.0999999999999988
100
AcDbArc
 50
110.6261370542812
 51
215.9742978162709
  0
LINE
  5
26B
330
70
100
AcDbEntity
  8
EXTERIOR v2_Sketch2
100
AcDbLine
 10
9.035747362969051
 20
4.344337508465121
 30
0.0
 11
8.803094143182356
 21
4.664859458559492
 31
0.0
  0
LINE
  5
26C
330
70
100
AcDbEntity
  8
EXTERIOR v2_Sketch2
100
AcDbLine
 10
1.904775486446196
 20
4.836275187689587
 30
0.0
 11
1.904775486446196
 21
4.836257378561865
 31
0.0
  0
LINE
  5
26D
330
70
100
AcDbEntity
  8
EXTERIOR v2_Sketch2
100
AcDbLine
 10
12.8549061123931
 20
1.961417659113885
 30
0.0
 11
12.85490611239515
 21
1.661417659113884
 31
0.0
  0
LINE
  5
26E
330
70
100
AcDbEntity
  8
EXTERIOR v2_Sketch2
100
AcDbLine
 10
13.1549061124162
 20
8.587146118862243
 30
0.0
 11
12.64650858965285
 21
8.205874681939359
 31
0.0
  0
LINE
  5
26F
330
70
100
AcDbEntity
  8
EXTERIOR v2_Sketch2
100
AcDbLine
 10
1.154479960655285
 20
3.835793274260095
 30
0.0
 11
1.535751397575243
 21
4.344190796998715
 31
0.0
  0
LINE
  5
270
330
70
100
AcDbEntity
  8
EXTERIOR v2_Sketch2
100
AcDbLine
 10
12.15444200807894
 20
7.836850593075451
 30
0.0
 11
12.15442419895185
 21
7.836850593075451
 31
0.0
  0
LINE
  5
271
330
70
100
AcDbEntity
  8
EXTERIOR v2_Sketch2
100
AcDbLine
 10
1.904775486446196
 20
4.836257378561865
 30
0.0
 11
1.904788842356508
 21
4.836275187689587
 31
0.0
  0
ARC
  5
272
330
70
100
AcDbEntity
  8
EXTERIOR v2_Sketch2
100
AcDbCircle
 10
8.954593927429094
 20
8.536334017202445
 30
0.0
 40
0.3000000000000043
100
AcDbArc
 50
90.00000000000067
 51
110.6261370542835
  0
LINE
  5
273
330
70
100
AcDbEntity
  8
EXTERIOR v2_Sketch2
100
AcDbLine
 10
1.454479960655289
 20
4.836275187689592
 30
0.0
 11
2.355097724057742
 21
4.836275187689588
 31
0.0
  0
ARC
  5
274
330
70
100
AcDbEntity
  8
EXTERIOR v2_Sketch2
100
AcDbCircle
 10
1.454479960655293
 20
4.536275187689588
 30
0.0
 40
0.3000000000000043
100
AcDbArc
 50
90.00000000000067
 51
110.6261370542834
  0
ARC
  5
275
330
70
100
AcDbEntity
  8
EXTERIOR v2_Sketch2
100
AcDbCircle
 10
12.26724441174164
 20
4.357591550315857
 30
0.0
 40
0.099999999999994
100
AcDbArc
 50
54.02570218373523
 51
159.3738629457272
  0
ARC
  5
276
330
70
100
AcDbEntity
  8
EXTERIOR v2_Sketch2
100
AcDbCircle
 10
1.454567040895604
 20
7.135319653623648
 30
0.0
 40
0.3000000000000042
100
AcDbArc
 50
249.3738629457253
 51
270.0000000000078
  0
ARC
  5
277
330
70
100
AcDbEntity
  8
EXTERIOR v2_Sketch2
100
AcDbCircle
 10
12.26724368755076
 20
3.316068262467772
 30
0.0
 40
0.0999999999999942
100
AcDbArc
 50
200.6255481051911
 51
305.9753961421744
  0
LINE
  5
278
330
70
100
AcDbEntity
  8
EXTERIOR v2_Sketch2
100
AcDbLine
 10
1.904775486446196
 20
4.836257378561865
 30
0.0
 11
1.904788842356508
 21
4.836275187689587
 31
0.0
  0
LINE
  5
279
330
70
100
AcDbEntity
  8
EXTERIOR v2_Sketch2
100
AcDbLine
 10
1.904775486446196
 20
4.836275187689587
 30
0.0
 11
1.904775486446196
 21
4.836257378561865
 31
0.0
  0
LINE
  5
27A
330
70
100
AcDbEntity
  8
EXTERIOR v2_Sketch2
100
AcDbLine
 10
1.535751397575243
 20
4.344190796998715
 30
0.0
 11
1.303098177788546
 21
4.664712747093085
 31
0.0
  0
ARC
  5
27B
330
70
100
AcDbEntity
  8
EXTERIOR v2_Sketch2
100
AcDbCircle
 10
1.454479960655293
 20
4.536275187689588
 30
0.0
 40
0.3000000000000043
100
AcDbArc
 50
90.00000000000067
 51
110.6261370542834
  0
LINE
  5
27C
330
70
100
AcDbEntity
  8
EXTERIOR v2_Sketch2
100
AcDbLine
 10
12.15442419895185
 20
7.836850593075451
 30
0.0
 11
12.15444200807894
 21
7.836850593075451
 31
0.0
  0
LINE
  5
27D
330
70
100
AcDbEntity
  8
EXTERIOR v2_Sketch2
100
AcDbLine
 10
1.904775486446196
 20
4.836275187689587
 30
0.0
 11
1.904775486446196
 21
4.836257378561865
 31
0.0
  0
LINE
  5
27E
330
70
100
AcDbEntity
  8
EXTERIOR v2_Sketch2
100
AcDbLine
 10
1.904775486446196
 20
4.836275187689587
 30
0.0
 11
1.904775486446196
 21
4.836257378561865
 31
0.0
  0
LINE
  5
27F
330
70
100
AcDbEntity
  8
EXTERIOR v2_Sketch2
100
AcDbLine
 10
12.15444200807894
 20
7.836850593075451
 30
0.0
 11
12.15442419895185
 21
7.836850593075451
 31
0.0
  0
LINE
  5
280
330
70
100
AcDbEntity
  8
EXTERIOR v2_Sketch2
100
AcDbLine
 10
1.535751397575241
 20
4.344190796998715
 30
0.0
 11
1.303098177788546
 21
4.664712747093085
 31
0.0
  0
LINE
  5
281
330
70
100
AcDbEntity
  8
EXTERIOR v2_Sketch2
100
AcDbLine
 10
12.64650858965285
 20
8.205874681939359
 30
0.0
 11
12.32598663954827
 21
8.438527901733408
 31
0.0
  0
LINE
  5
282
330
70
100
AcDbEntity
  8
EXTERIOR v2_Sketch2
100
AcDbLine
 10
-1.336688348193934
 20
4.204824706988005
 30
0.0
 11
-1.016175241887598
 21
4.437480888727846
 31
0.0
  0
LINE
  5
283
330
70
100
AcDbEntity
  8
EXTERIOR v2_Sketch2
100
AcDbLine
 10
-1.336688348193934
 20
4.204824706988005
 30
0.0
 11
-1.845093887583786
 21
4.586102155975015
 31
0.0
  0
ARC
  5
284
330
70
100
AcDbEntity
  8
EXTERIOR v2_Sketch2
100
AcDbCircle
 10
2.425549524258924
 20
4.723455699090777
 30
0.0
 40
0.1000000000000027
100
AcDbArc
 50
324.0246038578354
 51
69.37445189481728
  0
ARC
  5
285
330
70
100
AcDbEntity
  8
EXTERIOR v2_Sketch2
100
AcDbCircle
 10
2.355097724057733
 20
4.536275187689584
 30
0.0
 40
0.3000000000000038
100
AcDbArc
 50
69.37445189481548
 51
89.99999999999864
  0
LINE
  5
286
330
70
100
AcDbEntity
  8
EXTERIOR v2_Sketch2
100
AcDbLine
 10
1.904775486446196
 20
4.836275187689587
 30
0.0
 11
1.904775486446196
 21
4.836257378561865
 31
0.0
  0
ARC
  5
287
330
70
100
AcDbEntity
  8
EXTERIOR v2_Sketch2
100
AcDbCircle
 10
-1.144611974150336
 20
4.286102155973032
 30
0.0
 40
0.3000000000000149
100
AcDbArc
 50
0.0000000000088207
 51
20.62554810519424
  0
ARC
  5
288
330
70
100
AcDbEntity
  8
EXTERIOR v2_Sketch2
100
AcDbCircle
 10
-0.9574314627491524
 20
4.356553956174258
 30
0.0
 40
0.0999999999999942
100
AcDbArc
 50
20.62554810519113
 51
125.9753961421743
  0
LINE
  5
289
330
70
100
AcDbEntity
  8
EXTERIOR v2_Sketch2
100
AcDbLine
 10
1.535751397582266
 20
3.327395751530147
 30
0.0
 11
1.303098177787122
 21
3.006873801424135
 31
0.0
  0
ARC
  5
28A
330
70
100
AcDbEntity
  8
EXTERIOR v2_Sketch2
100
AcDbCircle
 10
2.425549524257487
 20
2.948130849426968
 30
0.0
 40
0.1000000000000017
100
AcDbArc
 50
290.6255481051939
 51
35.97539614217231
  0
ARC
  5
28B
330
70
100
AcDbEntity
  8
EXTERIOR v2_Sketch2
100
AcDbCircle
 10
2.425549524257272
 20
2.948130849426834
 30
0.0
 40
0.1000000000000042
100
AcDbArc
 50
290.6255481051933
 51
35.97539614217111
  0
LINE
  5
28C
330
70
100
AcDbEntity
  8
EXTERIOR v2_Sketch2
100
AcDbLine
 10
1.535751397582281
 20
3.327395751530381
 30
0.0
 11
1.303098177787149
 21
3.006873801424385
 31
0.0
  0
ARC
  5
28D
330
70
100
AcDbEntity
  8
EXTERIOR v2_Sketch2
100
AcDbCircle
 10
1.45447996065387
 20
3.135311360827893
 30
0.0
 40
0.3000000000000064
100
AcDbArc
 50
249.3738629457244
 51
270.0000000000068
  0
ARC
  5
28E
330
70
100
AcDbEntity
  8
EXTERIOR v2_Sketch2
100
AcDbCircle
 10
2.355097724056049
 20
3.13531136082779
 30
0.0
 40
0.3000000000000043
100
AcDbArc
 50
270.0000000000088
 51
290.6255481051945
  0
ARC
  5
28F
330
70
100
AcDbEntity
  8
EXTERIOR v2_Sketch2
100
AcDbCircle
 10
1.454479960653866
 20
3.135311360828033
 30
0.0
 40
0.3000000000000054
100
AcDbArc
 50
249.3738629457247
 51
270.0000000000068
  0
ARC
  5
290
330
70
100
AcDbEntity
  8
EXTERIOR v2_Sketch2
100
AcDbCircle
 10
2.355097724057733
 20
4.536275187689584
 30
0.0
 40
0.3000000000000045
100
AcDbArc
 50
69.37445189481515
 51
89.99999999999864
  0
LINE
  5
291
330
70
100
AcDbEntity
  8
EXTERIOR v2_Sketch2
100
AcDbLine
 10
2.273820275073084
 20
4.344198813646444
 30
0.0
 11
2.506476456812524
 21
4.664711919952344
 31
0.0
  0
LINE
  5
292
330
70
100
AcDbEntity
  8
EXTERIOR v2_Sketch2
100
AcDbLine
 10
-1.336688348193934
 20
4.204824706988005
 30
0.0
 11
-1.845093887583786
 21
4.586102155975015
 31
0.0
  0
LINE
  5
293
330
70
100
AcDbEntity
  8
EXTERIOR v2_Sketch2
100
AcDbLine
 10
2.273820275073083
 20
4.344198813646444
 30
0.0
 11
2.506476456812524
 21
4.664711919952342
 31
0.0
  0
LINE
  5
294
330
70
100
AcDbEntity
  8
EXTERIOR v2_Sketch2
100
AcDbLine
 10
8.654475926068979
 20
3.835939985741411
 30
0.0
 11
9.035747362975843
 21
3.327542462996798
 31
0.0
  0
ARC
  5
295
330
70
100
AcDbEntity
  8
EXTERIOR v2_Sketch2
100
AcDbCircle
 10
2.355097724056053
 20
3.135311360828018
 30
0.0
 40
0.3000000000000043
100
AcDbArc
 50
270.0000000000081
 51
290.6255481051943
  0
ARC
  5
296
330
70
100
AcDbEntity
  8
EXTERIOR v2_Sketch2
100
AcDbCircle
 10
2.425549524258922
 20
4.723455699090777
 30
0.0
 40
0.1000000000000027
100
AcDbArc
 50
324.0246038578354
 51
69.37445189481526
  0
LINE
  5
297
330
70
100
AcDbEntity
  8
EXTERIOR v2_Sketch2
100
AcDbLine
 10
2.273820275073084
 20
4.344198813646443
 30
0.0
 11
2.655097724057737
 21
3.835793274260091
 31
0.0
  0
LINE
  5
298
330
70
100
AcDbEntity
  8
EXTERIOR v2_Sketch2
100
AcDbLine
 10
1.535751397575243
 20
4.344190796998715
 30
0.0
 11
1.303098177788546
 21
4.664712747093085
 31
0.0
  0
LINE
  5
299
330
70
100
AcDbEntity
  8
EXTERIOR v2_Sketch2
100
AcDbLine
 10
-0.8446119741502506
 20
3.835779918362218
 30
0.0
 11
-0.844629783277341
 21
3.835779918362218
 31
0.0
  0
LINE
  5
29A
330
70
100
AcDbEntity
  8
EXTERIOR v2_Sketch2
100
AcDbLine
 10
8.654475926068975
 20
3.835939985741411
 30
0.0
 11
9.035747362975847
 21
3.327542462996793
 31
0.0
  0
LINE
  5
29B
330
70
100
AcDbEntity
  8
EXTERIOR v2_Sketch2
100
AcDbLine
 10
2.273820275071132
 20
3.327387734871881
 30
0.0
 11
2.506476456811078
 21
3.006874628565411
 31
0.0
  0
ARC
  5
29C
330
70
100
AcDbEntity
  8
EXTERIOR v2_Sketch2
100
AcDbCircle
 10
2.355097724056056
 20
3.135311360828017
 30
0.0
 40
0.3000000000000043
100
AcDbArc
 50
270.0000000000074
 51
290.625548105193
  0
LINE
  5
29D
330
70
100
AcDbEntity
  8
EXTERIOR v2_Sketch2
100
AcDbLine
 10
-0.8446119741502506
 20
3.835779918362218
 30
0.0
 11
-0.844629783277341
 21
3.835779918362218
 31
0.0
  0
ARC
  5
29E
330
70
100
AcDbEntity
  8
EXTERIOR v2_Sketch2
100
AcDbCircle
 10
2.425549524258922
 20
4.723455699090777
 30
0.0
 40
0.1000000000000027
100
AcDbArc
 50
324.0246038578354
 51
69.37445189481526
  0
LINE
  5
29F
330
70
100
AcDbEntity
  8
EXTERIOR v2_Sketch2
100
AcDbLine
 10
-1.336688348193934
 20
4.204824706988005
 30
0.0
 11
-1.016175241887598
 21
4.437480888727846
 31
0.0
  0
LINE
  5
2A0
330
70
100
AcDbEntity
  8
EXTERIOR v2_Sketch2
100
AcDbLine
 10
1.535751397582332
 20
3.327395751530596
 30
0.0
 11
1.303098177787146
 21
3.006873801424526
 31
0.0
  0
ARC
  5
2A1
330
70
100
AcDbEntity
  8
EXTERIOR v2_Sketch2
100
AcDbCircle
 10
-1.144611974150336
 20
4.286102155973032
 30
0.0
 40
0.3000000000000149
100
AcDbArc
 50
0.0000000000088207
 51
20.62554810519424
  0
LINE
  5
2A2
330
70
100
AcDbEntity
  8
EXTERIOR v2_Sketch2
100
AcDbLine
 10
-0.844629783277341
 20
3.835779918362218
 30
0.0
 11
-0.8446119741502506
 21
3.835793274272054
 31
0.0
  0
LINE
  5
2A3
330
70
100
AcDbEntity
  8
EXTERIOR v2_Sketch2
100
AcDbLine
 10
-0.8446119741502506
 20
3.835779918362218
 30
0.0
 11
-0.844629783277341
 21
3.835779918362218
 31
0.0
  0
LINE
  5
2A4
330
70
100
AcDbEntity
  8
EXTERIOR v2_Sketch2
100
AcDbLine
 10
2.273820275073083
 20
4.344198813646444
 30
0.0
 11
2.506476456812524
 21
4.664711919952342
 31
0.0
  0
ARC
  5
2A5
330
70
100
AcDbEntity
  8
EXTERIOR v2_Sketch2
100
AcDbCircle
 10
-0.9574314627491524
 20
4.356553956174258
 30
0.0
 40
0.0999999999999942
100
AcDbArc
 50
20.62554810519113
 51
125.9753961421743
  0
ARC
  5
2A6
330
70
100
AcDbEntity
  8
EXTERIOR v2_Sketch2
100
AcDbCircle
 10
1.45447996065387
 20
3.135311360827892
 30
0.0
 40
0.300000000000006
100
AcDbArc
 50
249.3738629457244
 51
270.0000000000064
  0
LINE
  5
2A7
330
70
100
AcDbEntity
  8
EXTERIOR v2_Sketch2
100
AcDbLine
 10
-0.844629783277341
 20
3.835779918362218
 30
0.0
 11
-0.8446119741502506
 21
3.835793274272054
 31
0.0
  0
ARC
  5
2A8
330
70
100
AcDbEntity
  8
EXTERIOR v2_Sketch2
100
AcDbCircle
 10
2.355097724056271
 20
3.135311360828152
 30
0.0
 40
0.3000000000000043
100
AcDbArc
 50
270.0000000000088
 51
290.6255481051932
  0
ARC
  5
2A9
330
70
100
AcDbEntity
  8
EXTERIOR v2_Sketch2
100
AcDbCircle
 10
1.384026236409036
 20
2.948131573617487
 30
0.0
 40
0.1000000000000007
100
AcDbArc
 50
144.0257021837299
 51
249.3738629457256
  0
LINE
  5
2AA
330
70
100
AcDbEntity
  8
EXTERIOR v2_Sketch2
100
AcDbLine
 10
-0.844629783277341
 20
3.835779918362218
 30
0.0
 11
-0.8446119741502506
 21
3.835779918362218
 31
0.0
  0
LINE
  5
2AB
330
70
100
AcDbEntity
  8
EXTERIOR v2_Sketch2
100
AcDbLine
 10
-1.336688348193934
 20
4.204824706988005
 30
0.0
 11
-1.845093887583786
 21
4.586102155975015
 31
0.0
  0
LINE
  5
2AC
330
70
100
AcDbEntity
  8
EXTERIOR v2_Sketch2
100
AcDbLine
 10
-0.8446119741502506
 20
3.835779918362218
 30
0.0
 11
-0.844629783277341
 21
3.835779918362218
 31
0.0
  0
LINE
  5
2AD
330
70
100
AcDbEntity
  8
EXTERIOR v2_Sketch2
100
AcDbLine
 10
-0.844629783277341
 20
3.835779918362218
 30
0.0
 11
-0.8446119741502506
 21
3.835779918362218
 31
0.0
  0
LINE
  5
2AE
330
70
100
AcDbEntity
  8
EXTERIOR v2_Sketch2
100
AcDbLine
 10
-1.336688348193934
 20
4.204824706988005
 30
0.0
 11
-1.016175241887598
 21
4.437480888727846
 31
0.0
  0
ARC
  5
2AF
330
70
100
AcDbEntity
  8
EXTERIOR v2_Sketch2
100
AcDbCircle
 10
1.384026236409063
 20
2.948131573617737
 30
0.0
 40
0.0999999999999998
100
AcDbArc
 50
144.0257021837298
 51
249.3738629457251
  0
ARC
  5
2B0
330
70
100
AcDbEntity
  8
EXTERIOR v2_Sketch2
100
AcDbCircle
 10
1.45447996065384
 20
3.135311360827644
 30
0.0
 40
0.3000000000000061
100
AcDbArc
 50
249.3738629457253
 51
270.0000000000082
  0
LINE
  5
2B1
330
70
100
AcDbEntity
  8
EXTERIOR v2_Sketch2
100
AcDbLine
 10
-1.336688348193934
 20
4.204824706988005
 30
0.0
 11
-1.016175241887598
 21
4.437480888727846
 31
0.0
  0
ARC
  5
2B2
330
70
100
AcDbEntity
  8
EXTERIOR v2_Sketch2
100
AcDbCircle
 10
-0.9574314627491524
 20
4.356553956174258
 30
0.0
 40
0.0999999999999942
100
AcDbArc
 50
20.62554810519113
 51
125.9753961421743
  0
ARC
  5
2B3
330
70
100
AcDbEntity
  8
EXTERIOR v2_Sketch2
100
AcDbCircle
 10
2.42554952425727
 20
2.948130849426604
 30
0.0
 40
0.0999999999999983
100
AcDbArc
 50
290.6255481051951
 51
35.97539614217401
  0
LINE
  5
2B4
330
70
100
AcDbEntity
  8
EXTERIOR v2_Sketch2
100
AcDbLine
 10
1.904775486446196
 20
4.836275187689587
 30
0.0
 11
1.904775486446196
 21
4.836257378561865
 31
0.0
  0
ARC
  5
2B5
330
70
100
AcDbEntity
  8
EXTERIOR v2_Sketch2
100
AcDbCircle
 10
2.425549524258922
 20
4.723455699090779
 30
0.0
 40
0.1000000000000027
100
AcDbArc
 50
324.0246038578354
 51
69.37445189481502
  0
ARC
  5
2B6
330
70
100
AcDbEntity
  8
EXTERIOR v2_Sketch2
100
AcDbCircle
 10
-1.144611974150336
 20
4.286102155973032
 30
0.0
 40
0.3000000000000149
100
AcDbArc
 50
0.0000000000088207
 51
20.62554810519424
  0
LINE
  5
2B7
330
70
100
AcDbEntity
  8
EXTERIOR v2_Sketch2
100
AcDbLine
 10
-0.844629783277341
 20
3.835779918362218
 30
0.0
 11
-0.8446119741502506
 21
3.835793274272054
 31
0.0
  0
LINE
  5
2B8
330
70
100
AcDbEntity
  8
EXTERIOR v2_Sketch2
100
AcDbLine
 10
-0.844629783277341
 20
3.835779918362218
 30
0.0
 11
-0.8446119741502506
 21
3.835779918362218
 31
0.0
  0
LINE
  5
2B9
330
70
100
AcDbEntity
  8
EXTERIOR v2_Sketch2
100
AcDbLine
 10
-0.844629783277341
 20
3.835779918362218
 30
0.0
 11
-0.8446119741502506
 21
3.835779918362218
 31
0.0
  0
LINE
  5
2BA
330
70
100
AcDbEntity
  8
EXTERIOR v2_Sketch2
100
AcDbLine
 10
1.904775486446196
 20
4.836257378561865
 30
0.0
 11
1.904788842356508
 21
4.836275187689587
 31
0.0
  0
ARC
  5
2BB
330
70
100
AcDbEntity
  8
EXTERIOR v2_Sketch2
100
AcDbCircle
 10
-0.9574314627491524
 20
4.356553956174258
 30
0.0
 40
0.0999999999999942
100
AcDbArc
 50
20.62554810519113
 51
125.9753961421743
  0
ARC
  5
2BC
330
70
100
AcDbEntity
  8
EXTERIOR v2_Sketch2
100
AcDbCircle
 10
2.355097724057735
 20
4.536275187689584
 30
0.0
 40
0.3000000000000038
100
AcDbArc
 50
69.37445189481548
 51
89.99999999999864
  0
LINE
  5
2BD
330
70
100
AcDbEntity
  8
EXTERIOR v2_Sketch2
100
AcDbLine
 10
-0.844629783277341
 20
3.835779918362218
 30
0.0
 11
-0.8446119741502506
 21
3.835793274272054
 31
0.0
  0
LINE
  5
2BE
330
70
100
AcDbEntity
  8
EXTERIOR v2_Sketch2
100
AcDbLine
 10
-1.336688348193934
 20
4.204824706988005
 30
0.0
 11
-1.845093887583786
 21
4.586102155975015
 31
0.0
  0
LINE
  5
2BF
330
70
100
AcDbEntity
  8
EXTERIOR v2_Sketch2
100
AcDbLine
 10
2.273820275073084
 20
4.344198813646443
 30
0.0
 11
2.506476456812526
 21
4.664711919952342
 31
0.0
  0
LINE
  5
2C0
330
70
100
AcDbEntity
  8
EXTERIOR v2_Sketch2
100
AcDbLine
 10
8.654593927429086
 20
7.835852103772952
 30
0.0
 11
9.035865364349042
 21
8.344249626511571
 31
0.0
  0
LINE
  5
2C1
330
70
100
AcDbEntity
  8
EXTERIOR v2_Sketch2
100
AcDbLine
 10
2.273820275073083
 20
4.344198813646444
 30
0.0
 11
2.655097724057737
 21
3.835793274260091
 31
0.0
  0
ARC
  5
2C2
330
70
100
AcDbEntity
  8
EXTERIOR v2_Sketch2
100
AcDbCircle
 10
2.425549524257274
 20
2.948130849426832
 30
0.0
 40
0.0999999999999992
100
AcDbArc
 50
290.6255481051944
 51
35.97539614217228
  0
LINE
  5
2C3
330
70
100
AcDbEntity
  8
EXTERIOR v2_Sketch2
100
AcDbLine
 10
8.654596868121597
 20
10.83631525565724
 30
0.0
 11
9.035868304771414
 21
10.32791773311494
 31
0.0
  0
ARC
  5
2C4
330
70
100
AcDbEntity
  8
EXTERIOR v2_Sketch2
100
AcDbCircle
 10
1.454423080495253
 20
1.536535977159382
 30
0.0
 40
0.3000000000000043
100
AcDbArc
 50
89.9999999999922
 51
110.6255481051816
  0
LINE
  5
2C5
330
70
100
AcDbEntity
  8
EXTERIOR v2_Sketch2
100
AcDbLine
 10
-1.545093887590564
 20
5.135797420676741
 30
0.0
 11
-1.845093887590564
 21
5.135797420673042
 31
0.0
  0
LINE
  5
2C6
330
70
100
AcDbEntity
  8
EXTERIOR v2_Sketch2
100
AcDbLine
 10
-1.545093887599196
 20
5.835797420676741
 30
0.0
 11
-1.545093887590564
 21
5.135797420676741
 31
0.0
  0
LINE
  5
2C7
330
70
100
AcDbEntity
  8
EXTERIOR v2_Sketch2
100
AcDbLine
 10
1.454479960653882
 20
2.83531136082764
 30
0.0
 11
2.355097724056095
 21
2.835311360827786
 31
0.0
  0
ARC
  5
2C8
330
70
100
AcDbEntity
  8
EXTERIOR v2_Sketch2
100
AcDbCircle
 10
-1.144611974150336
 20
4.286102155973032
 30
0.0
 40
0.3000000000000149
100
AcDbArc
 50
0.0000000000088207
 51
20.62554810519424
  0
LINE
  5
2C9
330
70
100
AcDbEntity
  8
EXTERIOR v2_Sketch2
100
AcDbLine
 10
1.535751397582282
 20
3.327395751530382
 30
0.0
 11
1.303098177787149
 21
3.006873801424385
 31
0.0
  0
LINE
  5
2CA
330
70
100
AcDbEntity
  8
EXTERIOR v2_Sketch2
100
AcDbLine
 10
-1.845093887590564
 20
5.135797420673042
 30
0.0
 11
-1.845093887583786
 21
4.586102155975015
 31
0.0
  0
ARC
  5
2CB
330
70
100
AcDbEntity
  8
EXTERIOR v2_Sketch2
100
AcDbCircle
 10
1.384026236409061
 20
2.948131573617737
 30
0.0
 40
0.0999999999999986
100
AcDbArc
 50
144.025702183729
 51
249.3738629457261
  0
ARC
  5
2CC
330
70
100
AcDbEntity
  8
EXTERIOR v2_Sketch2
100
AcDbCircle
 10
1.384026236409059
 20
2.948131573617878
 30
0.0
 40
0.1000000000000003
100
AcDbArc
 50
144.0257021837294
 51
249.373862945726
  0
ENDSEC
  0
SECTION
  2
OBJECTS
  0
DICTIONARY
  5
C
330
0
100
AcDbDictionary
281
     1
  3
ACAD_COLOR
350
63
  3
ACAD_DETAILVIEWSTYLE
350
6A
  3
ACAD_GROUP
350
D
  3
ACAD_LAYOUT
350
62
  3
ACAD_MATERIAL
350
10
  3
ACAD_MLEADERSTYLE
350
66
  3
ACAD_MLINESTYLE
350
5F
  3
ACAD_PLOTSETTINGS
350
61
  3
ACAD_PLOTSTYLENAME
350
E
  3
ACAD_SCALELIST
350
42
  3
ACAD_SECTIONVIEWSTYLE
350
68
  3
ACAD_TABLESTYLE
350
64
  3
ACAD_VISUALSTYLE
350
29
  3
ACDB_RECOMPOSE_DATA
350
2D5
  3
AcDbVariableDictionary
350
2CD
  0
DICTIONARY
  5
63
102
{ACAD_REACTORS
330
C
102
}
330
C
100
AcDbDictionary
281
     1
  0
DICTIONARY
  5
6A
102
{ACAD_REACTORS
330
C
102
}
330
C
100
AcDbDictionary
281
     1
  3
Imperial24
350
6B
  0
DICTIONARY
  5
D
102
{ACAD_REACTORS
330
C
102
}
330
C
100
AcDbDictionary
281
     1
  0
DICTIONARY
  5
62
102
{ACAD_REACTORS
330
C
102
}
330
C
100
AcDbDictionary
281
     1
  3
Layout1
350
6F
  3
Layout2
350
77
  3
Model
350
73
  0
DICTIONARY
  5
10
102
{ACAD_REACTORS
330
C
102
}
330
C
100
AcDbDictionary
281
     1
  3
ByBlock
350
19
  3
ByLayer
350
11
  3
Global
350
21
  0
DICTIONARY
  5
66
102
{ACAD_REACTORS
330
C
102
}
330
C
100
AcDbDictionary
281
     1
  3
Standard
350
67
  0
DICTIONARY
  5
5F
102
{ACAD_REACTORS
330
C
102
}
330
C
100
AcDbDictionary
281
     1
  3
Standard
350
60
  0
DICTIONARY
  5
61
102
{ACAD_REACTORS
330
C
102
}
330
C
100
AcDbDictionary
281
     1
  0
ACDBDICTIONARYWDFLT
  5
E
102
{ACAD_REACTORS
330
C
102
}
330
C
100
AcDbDictionary
281
     1
  3
Normal
350
F
100
AcDbDictionaryWithDefault
340
F
  0
DICTIONARY
  5
42
102
{ACAD_REACTORS
330
C
102
}
330
C
100
AcDbDictionary
281
     1
  3
A0
350
43
  3
A1
350
44
  3
A2
350
45
  3
A3
350
46
  3
A4
350
47
  3
A5
350
48
  3
A6
350
49
  3
A7
350
4A
  3
A8
350
4B
  3
A9
350
4C
  3
B0
350
4D
  3
B1
350
4E
  3
B2
350
4F
  3
B3
350
50
  3
B4
350
51
  3
B5
350
52
  3
B6
350
53
  0
DICTIONARY
  5
68
102
{ACAD_REACTORS
330
C
102
}
330
C
100
AcDbDictionary
281
     1
  3
Imperial24
350
69
  0
DICTIONARY
  5
64
102
{ACAD_REACTORS
330
C
102
}
330
C
100
AcDbDictionary
281
     1
  3
Standard
350
65
  0
DICTIONARY
  5
29
102
{ACAD_REACTORS
330
C
102
}
330
C
100
AcDbDictionary
281
     1
  3
2dWireframe
350
2F
  3
Basic
350
2E
  3
Brighten
350
35
  3
ColorChange
350
39
  3
Conceptual
350
32
  3
Dim
350
34
  3
EdgeColorOff
350
41
  3
Facepattern
350
38
  3
Flat
350
2A
  3
FlatWithEdges
350
2B
  3
Gouraud
350
2C
  3
GouraudWithEdges
350
2D
  3
Hidden
350
31
  3
JitterOff
350
3F
  3
Linepattern
350
37
  3
OverhangOff
350
40
  3
Realistic
350
33
  3
Shaded
350
3E
  3
Shaded with edges
350
3D
  3
Shades of Gray
350
3A
  3
Sketchy
350
3B
  3
Thicken
350
36
  3
Wireframe
350
30
  3
X-Ray
350
3C
  0
XRECORD
  5
2D5
102
{ACAD_REACTORS
330
C
102
}
330
C
100
AcDbXrecord
280
     1
 90
        1
330
65
  0
DICTIONARY
  5
2CD
102
{ACAD_REACTORS
330
C
102
}
330
C
100
AcDbDictionary
281
     1
  3
CANNOSCALE
350
2D2
  3
CMLEADERSTYLE
350
2CF
  3
CTABLESTYLE
350
2CE
  3
CVIEWDETAILSTYLE
350
2D0
  3
CVIEWSECTIONSTYLE
350
2D1
  0
ACDBDETAILVIEWSTYLE
  5
6B
102
{ACAD_XDICTIONARY
360
2D8
102
}
102
{ACAD_REACTORS
330
6A
102
}
330
6A
100
AcDbModelDocViewStyle
 70
     0
  3
Imperial24
290
     0
100
AcDbDetailViewStyle
 70
     0
 71
     0
 90
        3
 71
     1
340
55
 62
   256
 40
0.24
340
0
 62
   256
 40
0.24
300

 40
0.36
280
     3
 71
     2
340
5D
 90
       25
 62
   256
 71
     3
340
55
 62
   256
 40
0.24
 90
        1
 40
0.75
 90
        1
300
%<\AcVar ViewType \f "%tc1">% %<\AcVar ViewDetailId>%\PSCALE %<\AcVar ViewScale \f "%sn">%
 71
     4
340
5D
 90
       25
 62
   256
340
5D
 90
       25
 62
   256
280
     0
  0
LAYOUT
  5
6F
102
{ACAD_REACTORS
330
62
102
}
330
62
100
AcDbPlotSettings
  1

  2

  4

  6

 40
0.0
 41
0.0
 42
0.0
 43
0.0
 44
0.0
 45
0.0
 46
0.0
 47
0.0
 48
0.0
 49
0.0
140
0.0
141
0.0
142
1.0
143
1.0
 70
   688
 72
     0
 73
     0
 74
     5
  7

 75
    16
147
1.0
 76
     0
 77
     2
 78
   300
148
0.0
149
0.0
100
AcDbLayout
  1
Layout1
 70
     1
 71
     1
 10
0.0
 20
0.0
 11
12.0
 21
9.0
 12
0.0
 22
0.0
 32
0.0
 14
0.0
 24
0.0
 34
0.0
 15
0.0
 25
0.0
 35
0.0
146
0.0
 13
0.0
 23
0.0
 33
0.0
 16
1.0
 26
0.0
 36
0.0
 17
0.0
 27
1.0
 37
0.0
 76
     0
330
6C
  0
LAYOUT
  5
77
102
{ACAD_REACTORS
330
62
102
}
330
62
100
AcDbPlotSettings
  1

  2

  4

  6

 40
0.0
 41
0.0
 42
0.0
 43
0.0
 44
0.0
 45
0.0
 46
0.0
 47
0.0
 48
0.0
 49
0.0
140
0.0
141
0.0
142
1.0
143
1.0
 70
   688
 72
     0
 73
     0
 74
     5
  7

 75
    16
147
1.0
 76
     0
 77
     2
 78
   300
148
0.0
149
0.0
100
AcDbLayout
  1
Layout2
 70
     1
 71
     2
 10
0.0
 20
0.0
 11
12.0
 21
9.0
 12
0.0
 22
0.0
 32
0.0
 14
0.0
 24
0.0
 34
0.0
 15
0.0
 25
0.0
 35
0.0
146
0.0
 13
0.0
 23
0.0
 33
0.0
 16
1.0
 26
0.0
 36
0.0
 17
0.0
 27
1.0
 37
0.0
 76
     0
330
74
  0
LAYOUT
  5
73
102
{ACAD_REACTORS
330
62
102
}
330
62
100
AcDbPlotSettings
  1

  2

  4

  6

 40
0.0
 41
0.0
 42
0.0
 43
0.0
 44
0.0
 45
0.0
 46
0.0
 47
0.0
 48
0.0
 49
0.0
140
0.0
141
0.0
142
1.0
143
1.0
 70
  1712
 72
     0
 73
     0
 74
     0
  7

 75
     0
147
1.0
 76
     0
 77
     2
 78
   300
148
0.0
149
0.0
100
AcDbLayout
  1
Model
 70
     1
 71
     0
 10
0.0
 20
0.0
 11
12.0
 21
9.0
 12
0.0
 22
0.0
 32
0.0
 14
0.0
 24
0.0
 34
0.0
 15
0.0
 25
0.0
 35
0.0
146
0.0
 13
0.0
 23
0.0
 33
0.0
 16
1.0
 26
0.0
 36
0.0
 17
0.0
 27
1.0
 37
0.0
 76
     0
330
70
  0
MATERIAL
  5
19
102
{ACAD_XDICTIONARY
360
1A
102
}
102
{ACAD_REACTORS
330
10
102
}
330
10
100
AcDbMaterial
  1
ByBlock
 72
     0
 43
0.0208333333333333
 43
0.0
 43
0.0
 43
0.0
 43
0.0
 43
0.0208333333333333
 43
0.0
 43
0.0
 43
0.0
 43
0.0
 43
1.0
 43
0.0
 43
0.0
 43
0.0
 43
0.0
 43
1.0
 77
     0
 47
0.0208333333333333
 47
0.0
 47
0.0
 47
0.0
 47
0.0
 47
0.0208333333333333
 47
0.0
 47
0.0
 47
0.0
 47
0.0
 47
1.0
 47
0.0
 47
0.0
 47
0.0
 47
0.0
 47
1.0
171
     0
 49
0.0208333333333333
 49
0.0
 49
0.0
 49
0.0
 49
0.0
 49
0.0208333333333333
 49
0.0
 49
0.0
 49
0.0
 49
0.0
 49
1.0
 49
0.0
 49
0.0
 49
0.0
 49
0.0
 49
1.0
175
     0
142
0.0208333333333333
142
0.0
142
0.0
142
0.0
142
0.0
142
0.0208333333333333
142
0.0
142
0.0
142
0.0
142
0.0
142
1.0
142
0.0
142
0.0
142
0.0
142
0.0
142
1.0
179
     0
144
0.0208333333333333
144
0.0
144
0.0
144
0.0
144
0.0
144
0.0208333333333333
144
0.0
144
0.0
144
0.0
144
0.0
144
1.0
144
0.0
144
0.0
144
0.0
144
0.0
144
1.0
147
0.0208333333333333
147
0.0
147
0.0
147
0.0
147
0.0
147
0.0208333333333333
147
0.0
147
0.0
147
0.0
147
0.0
147
1.0
147
0.0
147
0.0
147
0.0
147
0.0
147
1.0
  0
MATERIAL
  5
11
102
{ACAD_XDICTIONARY
360
12
102
}
102
{ACAD_REACTORS
330
10
102
}
330
10
100
AcDbMaterial
  1
ByLayer
 72
     0
 43
0.0208333333333333
 43
0.0
 43
0.0
 43
0.0
 43
0.0
 43
0.0208333333333333
 43
0.0
 43
0.0
 43
0.0
 43
0.0
 43
1.0
 43
0.0
 43
0.0
 43
0.0
 43
0.0
 43
1.0
 77
     0
 47
0.0208333333333333
 47
0.0
 47
0.0
 47
0.0
 47
0.0
 47
0.0208333333333333
 47
0.0
 47
0.0
 47
0.0
 47
0.0
 47
1.0
 47
0.0
 47
0.0
 47
0.0
 47
0.0
 47
1.0
171
     0
 49
0.0208333333333333
 49
0.0
 49
0.0
 49
0.0
 49
0.0
 49
0.0208333333333333
 49
0.0
 49
0.0
 49
0.0
 49
0.0
 49
1.0
 49
0.0
 49
0.0
 49
0.0
 49
0.0
 49
1.0
175
     0
142
0.0208333333333333
142
0.0
142
0.0
142
0.0
142
0.0
142
0.0208333333333333
142
0.0
142
0.0
142
0.0
142
0.0
142
1.0
142
0.0
142
0.0
142
0.0
142
0.0
142
1.0
179
     0
144
0.0208333333333333
144
0.0
144
0.0
144
0.0
144
0.0
144
0.0208333333333333
144
0.0
144
0.0
144
0.0
144
0.0
144
1.0
144
0.0
144
0.0
144
0.0
144
0.0
144
1.0
147
0.0208333333333333
147
0.0
147
0.0
147
0.0
147
0.0
147
0.0208333333333333
147
0.0
147
0.0
147
0.0
147
0.0
147
1.0
147
0.0
147
0.0
147
0.0
147
0.0
147
1.0
  0
MATERIAL
  5
21
102
{ACAD_XDICTIONARY
360
22
102
}
102
{ACAD_REACTORS
330
10
102
}
330
10
100
AcDbMaterial
  1
Global
 72
     0
 43
0.0208333333333333
 43
0.0
 43
0.0
 43
0.0
 43
0.0
 43
0.0208333333333333
 43
0.0
 43
0.0
 43
0.0
 43
0.0
 43
1.0
 43
0.0
 43
0.0
 43
0.0
 43
0.0
 43
1.0
 77
     0
 47
0.0208333333333333
 47
0.0
 47
0.0
 47
0.0
 47
0.0
 47
0.0208333333333333
 47
0.0
 47
0.0
 47
0.0
 47
0.0
 47
1.0
 47
0.0
 47
0.0
 47
0.0
 47
0.0
 47
1.0
171
     0
 49
0.0208333333333333
 49
0.0
 49
0.0
 49
0.0
 49
0.0
 49
0.0208333333333333
 49
0.0
 49
0.0
 49
0.0
 49
0.0
 49
1.0
 49
0.0
 49
0.0
 49
0.0
 49
0.0
 49
1.0
175
     0
142
0.0208333333333333
142
0.0
142
0.0
142
0.0
142
0.0
142
0.0208333333333333
142
0.0
142
0.0
142
0.0
142
0.0
142
1.0
142
0.0
142
0.0
142
0.0
142
0.0
142
1.0
179
     0
144
0.0208333333333333
144
0.0
144
0.0
144
0.0
144
0.0
144
0.0208333333333333
144
0.0
144
0.0
144
0.0
144
0.0
144
1.0
144
0.0
144
0.0
144
0.0
144
0.0
144
1.0
147
0.0208333333333333
147
0.0
147
0.0
147
0.0
147
0.0
147
0.0208333333333333
147
0.0
147
0.0
147
0.0
147
0.0
147
1.0
147
0.0
147
0.0
147
0.0
147
0.0
147
1.0
  0
MLEADERSTYLE
  5
67
102
{ACAD_REACTORS
330
66
102
}
330
66
100
AcDbMLeaderStyle
179
     2
170
     2
171
     1
172
     0
 90
        2
 40
0.0
 41
0.0
173
     1
 91
-1056964608
340
5B
 92
       -2
290
     1
 42
0.09
291
     1
 43
0.36
  3
Standard
 44
0.18
300

342
55
174
     1
178
     6
175
     1
176
     0
 93
-1056964608
 45
0.18
292
     0
297
     0
 46
0.18
 94
-1056964608
 47
1.0
 49
1.0
140
1.0
293
     1
141
0.0
294
     1
177
     0
142
1.0
295
     0
296
     0
143
0.125
271
     0
272
     9
273
     9
298
     1
  0
MLINESTYLE
  5
60
102
{ACAD_REACTORS
330
5F
102
}
330
5F
100
AcDbMlineStyle
  2
STANDARD
 70
     0
  3

 62
   256
 51
90.0
 52
90.0
 71
     2
 49
0.5
 62
   256
  6
BYLAYER
 49
-0.5
 62
   256
  6
BYLAYER
  0
ACDBPLACEHOLDER
  5
F
102
{ACAD_REACTORS
330
E
102
}
330
E
  0
SCALE
  5
43
102
{ACAD_REACTORS
330
42
102
}
330
42
100
AcDbScale
 70
     0
300
1:1
140
1.0
141
1.0
290
     1
  0
SCALE
  5
44
102
{ACAD_REACTORS
330
42
102
}
330
42
100
AcDbScale
 70
     0
300
1/128" = 1'-0"
140
0.0078125
141
12.0
290
     0
  0
SCALE
  5
45
102
{ACAD_REACTORS
330
42
102
}
330
42
100
AcDbScale
 70
     0
300
1/64" = 1'-0"
140
0.015625
141
12.0
290
     0
  0
SCALE
  5
46
102
{ACAD_REACTORS
330
42
102
}
330
42
100
AcDbScale
 70
     0
300
1/32" = 1'-0"
140
0.03125
141
12.0
290
     0
  0
SCALE
  5
47
102
{ACAD_REACTORS
330
42
102
}
330
42
100
AcDbScale
 70
     0
300
1/16" = 1'-0"
140
0.0625
141
12.0
290
     0
  0
SCALE
  5
48
102
{ACAD_REACTORS
330
42
102
}
330
42
100
AcDbScale
 70
     0
300
3/32" = 1'-0"
140
0.09375
141
12.0
290
     0
  0
SCALE
  5
49
102
{ACAD_REACTORS
330
42
102
}
330
42
100
AcDbScale
 70
     0
300
1/8" = 1'-0"
140
0.125
141
12.0
290
     0
  0
SCALE
  5
4A
102
{ACAD_REACTORS
330
42
102
}
330
42
100
AcDbScale
 70
     0
300
3/16" = 1'-0"
140
0.1875
141
12.0
290
     0
  0
SCALE
  5
4B
102
{ACAD_REACTORS
330
42
102
}
330
42
100
AcDbScale
 70
     0
300
1/4" = 1'-0"
140
0.25
141
12.0
290
     0
  0
SCALE
  5
4C
102
{ACAD_REACTORS
330
42
102
}
330
42
100
AcDbScale
 70
     0
300
3/8" = 1'-0"
140
0.375
141
12.0
290
     0
  0
SCALE
  5
4D
102
{ACAD_REACTORS
330
42
102
}
330
42
100
AcDbScale
 70
     0
300
1/2" = 1'-0"
140
0.5
141
12.0
290
     0
  0
SCALE
  5
4E
102
{ACAD_REACTORS
330
42
102
}
330
42
100
AcDbScale
 70
     0
300
3/4" = 1'-0"
140
0.75
141
12.0
290
     0
  0
SCALE
  5
4F
102
{ACAD_REACTORS
330
42
102
}
330
42
100
AcDbScale
 70
     0
300
1" = 1'-0"
140
1.0
141
12.0
290
     0
  0
SCALE
  5
50
102
{ACAD_REACTORS
330
42
102
}
330
42
100
AcDbScale
 70
     0
300
1-1/2" = 1'-0"
140
1.5
141
12.0
290
     0
  0
SCALE
  5
51
102
{ACAD_REACTORS
330
42
102
}
330
42
100
AcDbScale
 70
     0
300
3" = 1'-0"
140
3.0
141
12.0
290
     0
  0
SCALE
  5
52
102
{ACAD_REACTORS
330
42
102
}
330
42
100
AcDbScale
 70
     0
300
6" = 1'-0"
140
6.0
141
12.0
290
     0
  0
SCALE
  5
53
102
{ACAD_REACTORS
330
42
102
}
330
42
100
AcDbScale
 70
     0
300
1'-0" = 1'-0"
140
12.0
141
12.0
290
     0
  0
ACDBSECTIONVIEWSTYLE
  5
69
102
{ACAD_XDICTIONARY
360
2D6
102
}
102
{ACAD_REACTORS
330
68
102
}
330
68
100
AcDbModelDocViewStyle
 70
     0
  3
Imperial24
290
     0
100
AcDbSectionViewStyle
 70
     0
 71
     0
 90
       78
 71
     1
340
55
 62
   256
 40
0.24
340
0
340
0
 62
   256
 40
0.24
300
I, O, Q, S, X, Z
 40
0.48
 90
        3
 40
0.18
 90
        1
 71
     2
340
5D
 90
       25
 62
   256
340
5D
 90
       50
 62
   256
 40
0.24
 40
0.0
 40
0.24
 71
     3
340
55
 62
   256
 40
0.24
 90
        1
 40
0.75
 90
        1
300
%<\AcVar ViewType \f "%tc1">% %<\AcVar ViewSectionStartId>%-%<\AcVar ViewSectionEndId>%\PSCALE %<\AcVar ViewScale \f "%sn">%
 71
     4
 62
   256
 62
   257
300
ANSI31
 40
1.0
 90
        0
290
     0
290
     0
 90
        6
 40
0.0
 40
1.570796326794896
 40
0.2617993877991494
 40
1.308996938995747
 40
-0.2617993877991494
 40
1.832595714594046
  0
TABLESTYLE
  5
65
102
{ACAD_XDICTIONARY
360
2D3
102
}
102
{ACAD_REACTORS
330
64
102
}
330
64
100
AcDbTableStyle
280
     0
  3
Standard
 70
     0
 71
     0
 40
0.06
 41
0.06
280
     0
281
     0
  7
Standard
140
0.18
170
     2
 62
     0
 63
     7
283
     0
 90
      512
 91
        0
  1

274
    -2
284
     1
 64
     0
275
    -2
285
     1
 65
     0
276
    -2
286
     1
 66
     0
277
    -2
287
     1
 67
     0
278
    -2
288
     1
 68
     0
279
    -2
289
     1
 69
     0
  7
Standard
140
0.25
170
     5
 62
     0
 63
     7
283
     0
 90
      512
 91
        0
  1

274
    -2
284
     1
 64
     0
275
    -2
285
     1
 65
     0
276
    -2
286
     1
 66
     0
277
    -2
287
     1
 67
     0
278
    -2
288
     1
 68
     0
279
    -2
289
     1
 69
     0
  7
Standard
140
0.18
170
     5
 62
     0
 63
     7
283
     0
 90
      512
 91
        0
  1

274
    -2
284
     1
 64
     0
275
    -2
285
     1
 65
     0
276
    -2
286
     1
 66
     0
277
    -2
287
     1
 67
     0
278
    -2
288
     1
 68
     0
279
    -2
289
     1
 69
     0
  0
VISUALSTYLE
  5
2F
102
{ACAD_REACTORS
330
29
102
}
330
29
100
AcDbVisualStyle
  2
2dWireframe
 70
     4
177
     3
291
     0
 70
    58
 90
        0
176
     1
 90
        2
176
     1
 90
        0
176
     1
 90
        0
176
     1
 40
0.6
176
     1
 40
30.0
176
     1
 62
     7
420
 16777215
176
     1
 90
        1
176
     1
 90
        4
176
     1
 62
     7
176
     1
 62
   257
176
     1
 90
        1
176
     1
 90
        1
176
     1
 40
1.0
176
     1
 90
        0
176
     1
 62
   257
176
     1
 40
1.0
176
     1
 90
        1
176
     1
 90
        6
176
     1
 90
        2
176
     1
 62
     7
176
     1
 90
        5
176
     1
 90
        0
176
     1
 90
        0
176
     1
290
     0
176
     1
 90
        1
176
     1
 40
0.0
176
     1
 90
        0
176
     1
290
     1
176
     1
290
     1
176
     1
290
     0
176
     1
290
     0
176
     1
290
     0
176
     1
290
     0
176
     1
290
     0
176
     1
290
     0
176
     1
290
     0
176
     1
 90
       50
176
     1
 40
0.0
176
     1
 40
1.0
176
     1
 90
        0
176
     1
 62
    18
420
        0
176
     1
 90
       50
176
     1
 90
        3
176
     1
 62
     5
420
      255
176
     1
290
     0
176
     1
 90
       50
176
     1
 90
       50
176
     1
 90
       50
176
     1
290
     0
176
     1
 90
       50
176
     1
 62
   256
176
     0
 40
1.0
176
     0
 90
        2
176
     1
  1
strokes_ogs.tif
176
     1
290
     0
176
     1
 40
1.0
176
     1
 40
1.0
176
     1
1001
ACAD
1000
AcDbSavedByObjectVersion
1070
     0
  0
VISUALSTYLE
  5
2E
102
{ACAD_REACTORS
330
29
102
}
330
29
100
AcDbVisualStyle
  2
Basic
 70
     7
177
     3
291
     1
 70
    58
 90
        1
176
     1
 90
        0
176
     1
 90
        1
176
     1
 90
        0
176
     1
 40
0.6
176
     1
 40
30.0
176
     1
 62
     7
420
 16777215
176
     1
 90
        0
176
     1
 90
        4
176
     1
 62
     7
176
     1
 62
   257
176
     1
 90
        1
176
     1
 90
        1
176
     1
 40
1.0
176
     1
 90
        8
176
     1
 62
     7
176
     1
 40
1.0
176
     1
 90
        1
176
     1
 90
        6
176
     1
 90
        2
176
     1
 62
     7
176
     1
 90
        5
176
     1
 90
        0
176
     1
 90
        0
176
     1
290
     0
176
     1
 90
        1
176
     1
 40
0.0
176
     1
 90
        0
176
     1
290
     0
176
     1
290
     1
176
     1
290
     1
176
     1
290
     0
176
     1
290
     0
176
     1
290
     0
176
     1
290
     0
176
     1
290
     0
176
     1
290
     0
176
     1
 90
       50
176
     1
 40
0.0
176
     1
 40
1.0
176
     1
 90
        0
176
     1
 62
    18
420
        0
176
     1
 90
       50
176
     1
 90
        3
176
     1
 62
     5
420
      255
176
     1
290
     0
176
     1
 90
       50
176
     1
 90
       50
176
     1
 90
       50
176
     1
290
     0
176
     1
 90
       50
176
     1
 62
   256
176
     0
 40
1.0
176
     0
 90
        2
176
     1
  1
strokes_ogs.tif
176
     1
290
     0
176
     1
 40
1.0
176
     1
 40
1.0
176
     1
1001
ACAD
1000
AcDbSavedByObjectVersion
1070
     0
  0
VISUALSTYLE
  5
35
102
{ACAD_REACTORS
330
29
102
}
330
29
100
AcDbVisualStyle
  2
Brighten
 70
    12
177
     3
291
     1
 70
    58
 90
        2
176
     1
 90
        2
176
     1
 90
        0
176
     1
 90
        0
176
     1
 40
0.6
176
     1
 40
30.0
176
     1
 62
     7
420
 16777215
176
     1
 90
        1
176
     1
 90
        4
176
     1
 62
     7
176
     1
 62
   257
176
     1
 90
        1
176
     1
 90
        1
176
     1
 40
1.0
176
     1
 90
        8
176
     1
 62
     7
176
     1
 40
1.0
176
     1
 90
        1
176
     1
 90
        6
176
     1
 90
        2
176
     1
 62
     7
176
     1
 90
        5
176
     1
 90
        0
176
     1
 90
        0
176
     1
290
     0
176
     1
 90
        1
176
     1
 40
50.0
176
     1
 90
        0
176
     1
290
     0
176
     1
290
     1
176
     1
290
     1
176
     1
290
     0
176
     1
290
     0
176
     1
290
     0
176
     1
290
     0
176
     1
290
     0
176
     1
290
     0
176
     1
 90
       50
176
     1
 40
0.0
176
     1
 40
1.0
176
     1
 90
        0
176
     1
 62
    18
420
        0
176
     1
 90
       50
176
     1
 90
        3
176
     1
 62
     5
420
      255
176
     1
290
     0
176
     1
 90
       50
176
     1
 90
       50
176
     1
 90
       50
176
     1
290
     0
176
     1
 90
       50
176
     1
 62
   256
176
     0
 40
1.0
176
     0
 90
        2
176
     1
  1
strokes_ogs.tif
176
     1
290
     0
176
     1
 40
1.0
176
     1
 40
1.0
176
     1
1001
ACAD
1000
AcDbSavedByObjectVersion
1070
     0
  0
VISUALSTYLE
  5
39
102
{ACAD_REACTORS
330
29
102
}
330
29
100
AcDbVisualStyle
  2
ColorChange
 70
    16
177
     3
291
     1
 70
    58
 90
        2
176
     1
 90
        2
176
     1
 90
        3
176
     1
 90
        0
176
     1
 40
0.6
176
     1
 40
30.0
176
     1
 62
     8
420
  8421504
176
     1
 90
        1
176
     1
 90
        4
176
     1
 62
     7
176
     1
 62
   257
176
     1
 90
        1
176
     1
 90
        1
176
     1
 40
1.0
176
     1
 90
        8
176
     1
 62
     8
420
  8421504
176
     1
 40
1.0
176
     1
 90
        1
176
     1
 90
        6
176
     1
 90
        2
176
     1
 62
     7
176
     1
 90
        5
176
     1
 90
        0
176
     1
 90
        0
176
     1
290
     0
176
     1
 90
        1
176
     1
 40
0.0
176
     1
 90
        0
176
     1
290
     0
176
     1
290
     1
176
     1
290
     1
176
     1
290
     0
176
     1
290
     0
176
     1
290
     0
176
     1
290
     0
176
     1
290
     0
176
     1
290
     0
176
     1
 90
       50
176
     1
 40
0.0
176
     1
 40
1.0
176
     1
 90
        0
176
     1
 62
    18
420
        0
176
     1
 90
       50
176
     1
 90
        3
176
     1
 62
     5
420
      255
176
     1
290
     0
176
     1
 90
       50
176
     1
 90
       50
176
     1
 90
       50
176
     1
290
     0
176
     1
 90
       50
176
     1
 62
   256
176
     0
 40
1.0
176
     0
 90
        2
176
     1
  1
strokes_ogs.tif
176
     1
290
     0
176
     1
 40
1.0
176
     1
 40
1.0
176
     1
1001
ACAD
1000
AcDbSavedByObjectVersion
1070
     0
  0
VISUALSTYLE
  5
32
102
{ACAD_REACTORS
330
29
102
}
330
29
100
AcDbVisualStyle
  2
Conceptual
 70
     9
177
     3
291
     0
 70
    58
 90
        3
176
     1
 90
        2
176
     1
 90
        0
176
     1
 90
        0
176
     1
 40
0.6
176
     1
 40
30.0
176
     1
 62
     7
420
 16777215
176
     1
 90
        2
176
     1
 90
        2
176
     1
 62
     7
176
     1
 62
   257
176
     1
 90
        1
176
     1
 90
        1
176
     1
 40
179.0
176
     1
 90
        8
176
     1
 62
     7
176
     1
 40
1.0
176
     1
 90
        1
176
     1
 90
        6
176
     1
 90
        2
176
     1
 62
     7
176
     1
 90
        3
176
     1
 90
        0
176
     1
 90
        0
176
     1
290
     0
176
     1
 90
        1
176
     1
 40
0.0
176
     1
 90
        0
176
     1
290
     0
176
     1
290
     1
176
     1
290
     1
176
     1
290
     0
176
     1
290
     0
176
     1
290
     0
176
     1
290
     0
176
     1
290
     0
176
     1
290
     0
176
     1
 90
       50
176
     1
 40
0.0
176
     1
 40
1.0
176
     1
 90
        0
176
     1
 62
    18
420
        0
176
     1
 90
       50
176
     1
 90
        3
176
     1
 62
     5
420
      255
176
     1
290
     0
176
     1
 90
       50
176
     1
 90
       50
176
     1
 90
       50
176
     1
290
     0
176
     1
 90
       50
176
     1
 62
   256
176
     0
 40
1.0
176
     0
 90
        2
176
     1
  1
strokes_ogs.tif
176
     1
290
     0
176
     1
 40
1.0
176
     1
 40
1.0
176
     1
1001
ACAD
1000
AcDbSavedByObjectVersion
1070
     0
  0
VISUALSTYLE
  5
34
102
{ACAD_REACTORS
330
29
102
}
330
29
100
AcDbVisualStyle
  2
Dim
 70
    11
177
     3
291
     1
 70
    58
 90
        2
176
     1
 90
        2
176
     1
 90
        0
176
     1
 90
        0
176
     1
 40
0.6
176
     1
 40
30.0
176
     1
 62
     7
420
 16777215
176
     1
 90
        1
176
     1
 90
        4
176
     1
 62
     7
176
     1
 62
   257
176
     1
 90
        1
176
     1
 90
        1
176
     1
 40
1.0
176
     1
 90
        8
176
     1
 62
     7
176
     1
 40
1.0
176
     1
 90
        1
176
     1
 90
        6
176
     1
 90
        2
176
     1
 62
     7
176
     1
 90
        5
176
     1
 90
        0
176
     1
 90
        0
176
     1
290
     0
176
     1
 90
        1
176
     1
 40
-50.0
176
     1
 90
        0
176
     1
290
     0
176
     1
290
     1
176
     1
290
     1
176
     1
290
     0
176
     1
290
     0
176
     1
290
     0
176
     1
290
     0
176
     1
290
     0
176
     1
290
     0
176
     1
 90
       50
176
     1
 40
0.0
176
     1
 40
1.0
176
     1
 90
        0
176
     1
 62
    18
420
        0
176
     1
 90
       50
176
     1
 90
        3
176
     1
 62
     5
420
      255
176
     1
290
     0
176
     1
 90
       50
176
     1
 90
       50
176
     1
 90
       50
176
     1
290
     0
176
     1
 90
       50
176
     1
 62
   256
176
     0
 40
1.0
176
     0
 90
        2
176
     1
  1
strokes_ogs.tif
176
     1
290
     0
176
     1
 40
1.0
176
     1
 40
1.0
176
     1
1001
ACAD
1000
AcDbSavedByObjectVersion
1070
     0
  0
VISUALSTYLE
  5
41
102
{ACAD_REACTORS
330
29
102
}
330
29
100
AcDbVisualStyle
  2
EdgeColorOff
 70
    22
177
     3
291
     1
 70
    58
 90
        2
176
     0
 90
        2
176
     0
 90
        0
176
     0
 90
        0
176
     0
 40
0.6
176
     0
 40
30.0
176
     0
 62
     7
420
 16777215
176
     0
 90
        1
176
     0
 90
        4
176
     0
 62
     7
176
     0
 62
   257
176
     0
 90
        1
176
     0
 90
        1
176
     0
 40
1.0
176
     0
 90
        8
176
     2
 62
     7
176
     0
 40
1.0
176
     0
 90
        1
176
     0
 90
        6
176
     0
 90
        2
176
     0
 62
     7
176
     0
 90
        5
176
     0
 90
        0
176
     0
 90
        0
176
     0
290
     0
176
     0
 90
        1
176
     0
 40
0.0
176
     0
 90
        0
176
     0
290
     0
176
     0
290
     1
176
     0
290
     1
176
     0
290
     0
176
     0
290
     0
176
     0
290
     0
176
     0
290
     0
176
     0
290
     0
176
     0
290
     0
176
     0
 90
       50
176
     0
 40
0.0
176
     0
 40
1.0
176
     0
 90
        0
176
     0
 62
    18
420
        0
176
     0
 90
       50
176
     0
 90
        3
176
     0
 62
     5
420
      255
176
     0
290
     0
176
     0
 90
       50
176
     0
 90
       50
176
     0
 90
       50
176
     0
290
     0
176
     0
 90
       50
176
     0
 62
   256
176
     0
 40
1.0
176
     0
 90
        2
176
     0
  1
strokes_ogs.tif
176
     0
290
     0
176
     0
 40
1.0
176
     0
 40
1.0
176
     0
1001
ACAD
1000
AcDbSavedByObjectVersion
1070
     0
  0
VISUALSTYLE
  5
38
102
{ACAD_REACTORS
330
29
102
}
330
29
100
AcDbVisualStyle
  2
Facepattern
 70
    15
177
     3
291
     1
 70
    58
 90
        2
176
     1
 90
        2
176
     1
 90
        0
176
     1
 90
        0
176
     1
 40
0.6
176
     1
 40
30.0
176
     1
 62
     7
420
 16777215
176
     1
 90
        1
176
     1
 90
        4
176
     1
 62
     7
176
     1
 62
   257
176
     1
 90
        1
176
     1
 90
        1
176
     1
 40
1.0
176
     1
 90
        8
176
     1
 62
     7
176
     1
 40
1.0
176
     1
 90
        1
176
     1
 90
        6
176
     1
 90
        2
176
     1
 62
     7
176
     1
 90
        5
176
     1
 90
        0
176
     1
 90
        0
176
     1
290
     0
176
     1
 90
        1
176
     1
 40
0.0
176
     1
 90
        0
176
     1
290
     0
176
     1
290
     1
176
     1
290
     1
176
     1
290
     0
176
     1
290
     0
176
     1
290
     0
176
     1
290
     0
176
     1
290
     0
176
     1
290
     0
176
     1
 90
       50
176
     1
 40
0.0
176
     1
 40
1.0
176
     1
 90
        0
176
     1
 62
    18
420
        0
176
     1
 90
       50
176
     1
 90
        3
176
     1
 62
     5
420
      255
176
     1
290
     0
176
     1
 90
       50
176
     1
 90
       50
176
     1
 90
       50
176
     1
290
     0
176
     1
 90
       50
176
     1
 62
   256
176
     0
 40
1.0
176
     0
 90
        2
176
     1
  1
strokes_ogs.tif
176
     1
290
     0
176
     1
 40
1.0
176
     1
 40
1.0
176
     1
1001
ACAD
1000
AcDbSavedByObjectVersion
1070
     0
  0
VISUALSTYLE
  5
2A
102
{ACAD_REACTORS
330
29
102
}
330
29
100
AcDbVisualStyle
  2
Flat
 70
     0
177
     3
291
     1
 70
    58
 90
        2
176
     1
 90
        1
176
     1
 90
        1
176
     1
 90
        2
176
     1
 40
0.6
176
     1
 40
30.0
176
     1
 62
     7
420
 16777215
176
     1
 90
        0
176
     1
 90
        0
176
     1
 62
     7
176
     1
 62
   257
176
     1
 90
        1
176
     1
 90
        1
176
     1
 40
1.0
176
     1
 90
        8
176
     1
 62
     7
176
     1
 40
1.0
176
     1
 90
        1
176
     1
 90
        6
176
     1
 90
        2
176
     1
 62
     7
176
     1
 90
        5
176
     1
 90
        0
176
     1
 90
        0
176
     1
290
     0
176
     1
 90
       13
176
     1
 40
0.0
176
     1
 90
        0
176
     1
290
     0
176
     1
290
     1
176
     1
290
     1
176
     1
290
     0
176
     1
290
     0
176
     1
290
     0
176
     1
290
     0
176
     1
290
     0
176
     1
290
     0
176
     1
 90
       50
176
     1
 40
0.0
176
     1
 40
1.0
176
     1
 90
        0
176
     1
 62
    18
420
        0
176
     1
 90
       50
176
     1
 90
        3
176
     1
 62
     5
420
      255
176
     1
290
     0
176
     1
 90
       50
176
     1
 90
       50
176
     1
 90
       50
176
     1
290
     0
176
     1
 90
       50
176
     1
 62
   256
176
     0
 40
1.0
176
     0
 90
        2
176
     1
  1
strokes_ogs.tif
176
     1
290
     0
176
     1
 40
1.0
176
     1
 40
1.0
176
     1
1001
ACAD
1000
AcDbSavedByObjectVersion
1070
     0
  0
VISUALSTYLE
  5
2B
102
{ACAD_REACTORS
330
29
102
}
330
29
100
AcDbVisualStyle
  2
FlatWithEdges
 70
     1
177
     3
291
     1
 70
    58
 90
        2
176
     1
 90
        1
176
     1
 90
        1
176
     1
 90
        2
176
     1
 40
0.6
176
     1
 40
30.0
176
     1
 62
     7
420
 16777215
176
     1
 90
        1
176
     1
 90
        0
176
     1
 62
     7
176
     1
 62
   257
176
     1
 90
        1
176
     1
 90
        1
176
     1
 40
1.0
176
     1
 90
        0
176
     1
 62
   257
176
     1
 40
1.0
176
     1
 90
        1
176
     1
 90
        6
176
     1
 90
        2
176
     1
 62
     7
176
     1
 90
        5
176
     1
 90
        0
176
     1
 90
        0
176
     1
290
     0
176
     1
 90
       13
176
     1
 40
0.0
176
     1
 90
        0
176
     1
290
     0
176
     1
290
     1
176
     1
290
     1
176
     1
290
     0
176
     1
290
     0
176
     1
290
     0
176
     1
290
     0
176
     1
290
     0
176
     1
290
     0
176
     1
 90
       50
176
     1
 40
0.0
176
     1
 40
1.0
176
     1
 90
        0
176
     1
 62
    18
420
        0
176
     1
 90
       50
176
     1
 90
        3
176
     1
 62
     5
420
      255
176
     1
290
     0
176
     1
 90
       50
176
     1
 90
       50
176
     1
 90
       50
176
     1
290
     0
176
     1
 90
       50
176
     1
 62
   256
176
     0
 40
1.0
176
     0
 90
        2
176
     1
  1
strokes_ogs.tif
176
     1
290
     0
176
     1
 40
1.0
176
     1
 40
1.0
176
     1
1001
ACAD
1000
AcDbSavedByObjectVersion
1070
     0
  0
VISUALSTYLE
  5
2C
102
{ACAD_REACTORS
330
29
102
}
330
29
100
AcDbVisualStyle
  2
Gouraud
 70
     2
177
     3
291
     1
 70
    58
 90
        2
176
     1
 90
        2
176
     1
 90
        1
176
     1
 90
        2
176
     1
 40
0.6
176
     1
 40
30.0
176
     1
 62
     7
420
 16777215
176
     1
 90
        0
176
     1
 90
        0
176
     1
 62
     7
176
     1
 62
   257
176
     1
 90
        1
176
     1
 90
        1
176
     1
 40
1.0
176
     1
 90
        0
176
     1
 62
     7
176
     1
 40
1.0
176
     1
 90
        1
176
     1
 90
        6
176
     1
 90
        2
176
     1
 62
     7
176
     1
 90
        5
176
     1
 90
        0
176
     1
 90
        0
176
     1
290
     0
176
     1
 90
       13
176
     1
 40
0.0
176
     1
 90
        0
176
     1
290
     0
176
     1
290
     1
176
     1
290
     1
176
     1
290
     0
176
     1
290
     0
176
     1
290
     0
176
     1
290
     0
176
     1
290
     0
176
     1
290
     0
176
     1
 90
       50
176
     1
 40
0.0
176
     1
 40
1.0
176
     1
 90
        0
176
     1
 62
    18
420
        0
176
     1
 90
       50
176
     1
 90
        3
176
     1
 62
     5
420
      255
176
     1
290
     0
176
     1
 90
       50
176
     1
 90
       50
176
     1
 90
       50
176
     1
290
     0
176
     1
 90
       50
176
     1
 62
   256
176
     0
 40
1.0
176
     0
 90
        2
176
     1
  1
strokes_ogs.tif
176
     1
290
     0
176
     1
 40
1.0
176
     1
 40
1.0
176
     1
1001
ACAD
1000
AcDbSavedByObjectVersion
1070
     0
  0
VISUALSTYLE
  5
2D
102
{ACAD_REACTORS
330
29
102
}
330
29
100
AcDbVisualStyle
  2
GouraudWithEdges
 70
     3
177
     3
291
     1
 70
    58
 90
        2
176
     1
 90
        2
176
     1
 90
        1
176
     1
 90
        2
176
     1
 40
0.6
176
     1
 40
30.0
176
     1
 62
     7
420
 16777215
176
     1
 90
        1
176
     1
 90
        0
176
     1
 62
     7
176
     1
 62
   257
176
     1
 90
        1
176
     1
 90
        1
176
     1
 40
1.0
176
     1
 90
        0
176
     1
 62
   257
176
     1
 40
1.0
176
     1
 90
        1
176
     1
 90
        6
176
     1
 90
        2
176
     1
 62
     7
176
     1
 90
        5
176
     1
 90
        0
176
     1
 90
        0
176
     1
290
     0
176
     1
 90
       13
176
     1
 40
0.0
176
     1
 90
        0
176
     1
290
     0
176
     1
290
     1
176
     1
290
     1
176
     1
290
     0
176
     1
290
     0
176
     1
290
     0
176
     1
290
     0
176
     1
290
     0
176
     1
290
     0
176
     1
 90
       50
176
     1
 40
0.0
176
     1
 40
1.0
176
     1
 90
        0
176
     1
 62
    18
420
        0
176
     1
 90
       50
176
     1
 90
        3
176
     1
 62
     5
420
      255
176
     1
290
     0
176
     1
 90
       50
176
     1
 90
       50
176
     1
 90
       50
176
     1
290
     0
176
     1
 90
       50
176
     1
 62
   256
176
     0
 40
1.0
176
     0
 90
        2
176
     1
  1
strokes_ogs.tif
176
     1
290
     0
176
     1
 40
1.0
176
     1
 40
1.0
176
     1
1001
ACAD
1000
AcDbSavedByObjectVersion
1070
     0
  0
VISUALSTYLE
  5
31
102
{ACAD_REACTORS
330
29
102
}
330
29
100
AcDbVisualStyle
  2
Hidden
 70
     6
177
     3
291
     0
 70
    58
 90
        1
176
     1
 90
        2
176
     1
 90
        2
176
     1
 90
        0
176
     1
 40
0.6
176
     1
 40
30.0
176
     1
 62
     7
420
 16777215
176
     1
 90
        2
176
     1
 90
        2
176
     1
 62
     7
176
     1
 62
   257
176
     1
 90
        2
176
     1
 90
        1
176
     1
 40
40.0
176
     1
 90
        0
176
     1
 62
   257
176
     1
 40
1.0
176
     1
 90
        1
176
     1
 90
        6
176
     1
 90
        2
176
     1
 62
     7
176
     1
 90
        3
176
     1
 90
        0
176
     1
 90
        0
176
     1
290
     0
176
     1
 90
        1
176
     1
 40
0.0
176
     1
 90
        0
176
     1
290
     0
176
     1
290
     1
176
     1
290
     1
176
     1
290
     0
176
     1
290
     0
176
     1
290
     0
176
     1
290
     0
176
     1
290
     0
176
     1
290
     0
176
     1
 90
       50
176
     1
 40
0.0
176
     1
 40
1.0
176
     1
 90
        0
176
     1
 62
    18
420
        0
176
     1
 90
       50
176
     1
 90
        3
176
     1
 62
     5
420
      255
176
     1
290
     0
176
     1
 90
       50
176
     1
 90
       50
176
     1
 90
       50
176
     1
290
     0
176
     1
 90
       50
176
     1
 62
   256
176
     0
 40
1.0
176
     0
 90
        2
176
     1
  1
strokes_ogs.tif
176
     1
290
     0
176
     1
 40
1.0
176
     1
 40
1.0
176
     1
1001
ACAD
1000
AcDbSavedByObjectVersion
1070
     0
  0
VISUALSTYLE
  5
3F
102
{ACAD_REACTORS
330
29
102
}
330
29
100
AcDbVisualStyle
  2
JitterOff
 70
    20
177
     3
291
     1
 70
    58
 90
        2
176
     0
 90
        2
176
     0
 90
        0
176
     0
 90
        0
176
     0
 40
0.6
176
     0
 40
30.0
176
     0
 62
     7
420
 16777215
176
     0
 90
        1
176
     0
 90
        4
176
     0
 62
     7
176
     0
 62
   257
176
     0
 90
        1
176
     0
 90
        1
176
     0
 40
1.0
176
     0
 90
       10
176
     2
 62
     7
176
     0
 40
1.0
176
     0
 90
        1
176
     0
 90
        6
176
     0
 90
        2
176
     0
 62
     7
176
     0
 90
        5
176
     0
 90
        0
176
     0
 90
        0
176
     0
290
     0
176
     0
 90
        1
176
     0
 40
0.0
176
     0
 90
        0
176
     0
290
     0
176
     0
290
     1
176
     0
290
     1
176
     0
290
     0
176
     0
290
     0
176
     0
290
     0
176
     0
290
     0
176
     0
290
     0
176
     0
290
     0
176
     0
 90
       50
176
     0
 40
0.0
176
     0
 40
1.0
176
     0
 90
        0
176
     0
 62
    18
420
        0
176
     0
 90
       50
176
     0
 90
        3
176
     0
 62
     5
420
      255
176
     0
290
     0
176
     0
 90
       50
176
     0
 90
       50
176
     0
 90
       50
176
     0
290
     0
176
     0
 90
       50
176
     0
 62
   256
176
     0
 40
1.0
176
     0
 90
        2
176
     0
  1
strokes_ogs.tif
176
     0
290
     0
176
     0
 40
1.0
176
     0
 40
1.0
176
     0
1001
ACAD
1000
AcDbSavedByObjectVersion
1070
     0
  0
VISUALSTYLE
  5
37
102
{ACAD_REACTORS
330
29
102
}
330
29
100
AcDbVisualStyle
  2
Linepattern
 70
    14
177
     3
291
     1
 70
    58
 90
        2
176
     1
 90
        2
176
     1
 90
        0
176
     1
 90
        0
176
     1
 40
0.6
176
     1
 40
30.0
176
     1
 62
     7
420
 16777215
176
     1
 90
        1
176
     1
 90
        4
176
     1
 62
     7
176
     1
 62
   257
176
     1
 90
        7
176
     1
 90
        7
176
     1
 40
1.0
176
     1
 90
        8
176
     1
 62
     7
176
     1
 40
1.0
176
     1
 90
        1
176
     1
 90
        6
176
     1
 90
        2
176
     1
 62
     7
176
     1
 90
        5
176
     1
 90
        0
176
     1
 90
        0
176
     1
290
     0
176
     1
 90
        1
176
     1
 40
0.0
176
     1
 90
        0
176
     1
290
     0
176
     1
290
     1
176
     1
290
     1
176
     1
290
     0
176
     1
290
     0
176
     1
290
     0
176
     1
290
     0
176
     1
290
     0
176
     1
290
     0
176
     1
 90
       50
176
     1
 40
0.0
176
     1
 40
1.0
176
     1
 90
        0
176
     1
 62
    18
420
        0
176
     1
 90
       50
176
     1
 90
        3
176
     1
 62
     5
420
      255
176
     1
290
     0
176
     1
 90
       50
176
     1
 90
       50
176
     1
 90
       50
176
     1
290
     0
176
     1
 90
       50
176
     1
 62
   256
176
     0
 40
1.0
176
     0
 90
        2
176
     1
  1
strokes_ogs.tif
176
     1
290
     0
176
     1
 40
1.0
176
     1
 40
1.0
176
     1
1001
ACAD
1000
AcDbSavedByObjectVersion
1070
     0
  0
VISUALSTYLE
  5
40
102
{ACAD_REACTORS
330
29
102
}
330
29
100
AcDbVisualStyle
  2
OverhangOff
 70
    21
177
     3
291
     1
 70
    58
 90
        2
176
     0
 90
        2
176
     0
 90
        0
176
     0
 90
        0
176
     0
 40
0.6
176
     0
 40
30.0
176
     0
 62
     7
420
 16777215
176
     0
 90
        1
176
     0
 90
        4
176
     0
 62
     7
176
     0
 62
   257
176
     0
 90
        1
176
     0
 90
        1
176
     0
 40
1.0
176
     0
 90
        9
176
     2
 62
     7
176
     0
 40
1.0
176
     0
 90
        1
176
     0
 90
        6
176
     0
 90
        2
176
     0
 62
     7
176
     0
 90
        5
176
     0
 90
        0
176
     0
 90
        0
176
     0
290
     0
176
     0
 90
        1
176
     0
 40
0.0
176
     0
 90
        0
176
     0
290
     0
176
     0
290
     1
176
     0
290
     1
176
     0
290
     0
176
     0
290
     0
176
     0
290
     0
176
     0
290
     0
176
     0
290
     0
176
     0
290
     0
176
     0
 90
       50
176
     0
 40
0.0
176
     0
 40
1.0
176
     0
 90
        0
176
     0
 62
    18
420
        0
176
     0
 90
       50
176
     0
 90
        3
176
     0
 62
     5
420
      255
176
     0
290
     0
176
     0
 90
       50
176
     0
 90
       50
176
     0
 90
       50
176
     0
290
     0
176
     0
 90
       50
176
     0
 62
   256
176
     0
 40
1.0
176
     0
 90
        2
176
     0
  1
strokes_ogs.tif
176
     0
290
     0
176
     0
 40
1.0
176
     0
 40
1.0
176
     0
1001
ACAD
1000
AcDbSavedByObjectVersion
1070
     0
  0
VISUALSTYLE
  5
33
102
{ACAD_REACTORS
330
29
102
}
330
29
100
AcDbVisualStyle
  2
Realistic
 70
     8
177
     3
291
     0
 70
    58
 90
        2
176
     1
 90
        3
176
     1
 90
        0
176
     1
 90
        2
176
     1
 40
0.6
176
     1
 40
30.0
176
     1
 62
     7
420
 16777215
176
     1
 90
        0
176
     1
 90
        0
176
     1
 62
     7
176
     1
 62
   257
176
     1
 90
        1
176
     1
 90
        1
176
     1
 40
1.0
176
     1
 90
        8
176
     1
 62
   257
176
     1
 40
1.0
176
     1
 90
        1
176
     1
 90
        6
176
     1
 90
        2
176
     1
 62
     7
176
     1
 90
        3
176
     1
 90
        0
176
     1
 90
        0
176
     1
290
     0
176
     1
 90
       13
176
     1
 40
0.0
176
     1
 90
        0
176
     1
290
     0
176
     1
290
     1
176
     1
290
     1
176
     1
290
     0
176
     1
290
     0
176
     1
290
     0
176
     1
290
     0
176
     1
290
     0
176
     1
290
     0
176
     1
 90
       50
176
     1
 40
0.0
176
     1
 40
1.0
176
     1
 90
        0
176
     1
 62
    18
420
        0
176
     1
 90
       50
176
     1
 90
        3
176
     1
 62
     5
420
      255
176
     1
290
     0
176
     1
 90
       50
176
     1
 90
       50
176
     1
 90
       50
176
     1
290
     0
176
     1
 90
       50
176
     1
 62
   256
176
     0
 40
1.0
176
     0
 90
        2
176
     1
  1
strokes_ogs.tif
176
     1
290
     0
176
     1
 40
1.0
176
     1
 40
1.0
176
     1
1001
ACAD
1000
AcDbSavedByObjectVersion
1070
     0
  0
VISUALSTYLE
  5
3E
102
{ACAD_REACTORS
330
29
102
}
330
29
100
AcDbVisualStyle
  2
Shaded
 70
    27
177
     3
291
     0
 70
    58
 90
        2
176
     1
 90
        2
176
     1
 90
        1
176
     1
 90
        2
176
     1
 40
0.6
176
     1
 40
30.0
176
     1
 62
     7
420
 16777215
176
     1
 90
        0
176
     1
 90
        4
176
     1
 62
     7
176
     1
 62
   257
176
     1
 90
        1
176
     1
 90
        1
176
     1
 40
1.0
176
     1
 90
        8
176
     1
 62
   257
176
     1
 40
1.0
176
     1
 90
        1
176
     1
 90
        6
176
     1
 90
        2
176
     1
 62
     8
420
  7895160
176
     1
 90
        3
176
     1
 90
        0
176
     1
 90
        0
176
     1
290
     0
176
     1
 90
        5
176
     1
 40
0.0
176
     1
 90
        0
176
     1
290
     0
176
     1
290
     1
176
     1
290
     1
176
     1
290
     0
176
     1
290
     0
176
     1
290
     0
176
     1
290
     0
176
     1
290
     0
176
     1
290
     0
176
     1
 90
       50
176
     1
 40
0.0
176
     1
 40
1.0
176
     1
 90
        0
176
     1
 62
    18
420
        0
176
     1
 90
       50
176
     1
 90
        3
176
     1
 62
     5
420
      255
176
     1
290
     0
176
     1
 90
       50
176
     1
 90
       50
176
     1
 90
       50
176
     1
290
     0
176
     1
 90
       50
176
     1
 62
   256
176
     0
 40
1.0
176
     0
 90
        2
176
     1
  1
strokes_ogs.tif
176
     1
290
     0
176
     1
 40
1.0
176
     1
 40
1.0
176
     1
1001
ACAD
1000
AcDbSavedByObjectVersion
1070
     0
  0
VISUALSTYLE
  5
3D
102
{ACAD_REACTORS
330
29
102
}
330
29
100
AcDbVisualStyle
  2
Shaded with edges
 70
    26
177
     3
291
     0
 70
    58
 90
        2
176
     1
 90
        2
176
     1
 90
        1
176
     1
 90
        2
176
     1
 40
0.6
176
     1
 40
30.0
176
     1
 62
     7
420
 16777215
176
     1
 90
        1
176
     1
 90
        2
176
     1
 62
     7
176
     1
 62
   257
176
     1
 90
        2
176
     1
 90
        1
176
     1
 40
1.0
176
     1
 90
        8
176
     1
 62
   257
176
     1
 40
1.0
176
     1
 90
        1
176
     1
 90
        6
176
     1
 90
        2
176
     1
 62
     7
176
     1
 90
        3
176
     1
 90
        0
176
     1
 90
        0
176
     1
290
     0
176
     1
 90
        5
176
     1
 40
0.0
176
     1
 90
        0
176
     1
290
     0
176
     1
290
     1
176
     1
290
     1
176
     1
290
     0
176
     1
290
     0
176
     1
290
     0
176
     1
290
     0
176
     1
290
     0
176
     1
290
     0
176
     1
 90
       50
176
     1
 40
0.0
176
     1
 40
1.0
176
     1
 90
        0
176
     1
 62
    18
420
        0
176
     1
 90
       50
176
     1
 90
        3
176
     1
 62
     5
420
      255
176
     1
290
     0
176
     1
 90
       50
176
     1
 90
       50
176
     1
 90
       50
176
     1
290
     0
176
     1
 90
       50
176
     1
 62
   256
176
     0
 40
1.0
176
     0
 90
        2
176
     1
  1
strokes_ogs.tif
176
     1
290
     0
176
     1
 40
1.0
176
     1
 40
1.0
176
     1
1001
ACAD
1000
AcDbSavedByObjectVersion
1070
     0
  0
VISUALSTYLE
  5
3A
102
{ACAD_REACTORS
330
29
102
}
330
29
100
AcDbVisualStyle
  2
Shades of Gray
 70
    23
177
     3
291
     0
 70
    58
 90
        2
176
     1
 90
        2
176
     1
 90
        3
176
     1
 90
        0
176
     1
 40
0.6
176
     1
 40
30.0
176
     1
 62
     7
420
 16777215
176
     1
 90
        2
176
     1
 90
        2
176
     1
 62
     7
176
     1
 62
     7
176
     1
 90
        1
176
     1
 90
        1
176
     1
 40
40.0
176
     1
 90
        8
176
     1
 62
     7
176
     1
 40
1.0
176
     1
 90
        1
176
     1
 90
        6
176
     1
 90
        2
176
     1
 62
     7
176
     1
 90
        3
176
     1
 90
        0
176
     1
 90
        0
176
     1
290
     0
176
     1
 90
        1
176
     1
 40
0.0
176
     1
 90
        0
176
     1
290
     0
176
     1
290
     1
176
     1
290
     1
176
     1
290
     0
176
     1
290
     0
176
     1
290
     0
176
     1
290
     0
176
     1
290
     0
176
     1
290
     0
176
     1
 90
       50
176
     1
 40
0.0
176
     1
 40
1.0
176
     1
 90
        0
176
     1
 62
    18
420
        0
176
     1
 90
       50
176
     1
 90
        3
176
     1
 62
     5
420
      255
176
     1
290
     0
176
     1
 90
       50
176
     1
 90
       50
176
     1
 90
       50
176
     1
290
     0
176
     1
 90
       50
176
     1
 62
   256
176
     0
 40
1.0
176
     0
 90
        2
176
     1
  1
strokes_ogs.tif
176
     1
290
     0
176
     1
 40
1.0
176
     1
 40
1.0
176
     1
1001
ACAD
1000
AcDbSavedByObjectVersion
1070
     0
  0
VISUALSTYLE
  5
3B
102
{ACAD_REACTORS
330
29
102
}
330
29
100
AcDbVisualStyle
  2
Sketchy
 70
    24
177
     3
291
     0
 70
    58
 90
        1
176
     1
 90
        2
176
     1
 90
        2
176
     1
 90
        0
176
     1
 40
0.6
176
     1
 40
30.0
176
     1
 62
     7
420
 16777215
176
     1
 90
        2
176
     1
 90
        2
176
     1
 62
     7
176
     1
 62
     7
176
     1
 90
        1
176
     1
 90
        1
176
     1
 40
40.0
176
     1
 90
       11
176
     1
 62
     7
176
     1
 40
1.0
176
     1
 90
        1
176
     1
 90
        6
176
     1
 90
        2
176
     1
 62
     7
176
     1
 90
        6
176
     1
 90
        0
176
     1
 90
        0
176
     1
290
     0
176
     1
 90
        1
176
     1
 40
0.0
176
     1
 90
        0
176
     1
290
     0
176
     1
290
     1
176
     1
290
     1
176
     1
290
     0
176
     1
290
     0
176
     1
290
     0
176
     1
290
     0
176
     1
290
     0
176
     1
290
     0
176
     1
 90
       50
176
     1
 40
0.0
176
     1
 40
1.0
176
     1
 90
        0
176
     1
 62
    18
420
        0
176
     1
 90
       50
176
     1
 90
        3
176
     1
 62
     5
420
      255
176
     1
290
     0
176
     1
 90
       50
176
     1
 90
       50
176
     1
 90
       50
176
     1
290
     0
176
     1
 90
       50
176
     1
 62
   256
176
     0
 40
1.0
176
     0
 90
        2
176
     1
  1
strokes_ogs.tif
176
     1
290
     0
176
     1
 40
1.0
176
     1
 40
1.0
176
     1
1001
ACAD
1000
AcDbSavedByObjectVersion
1070
     0
  0
VISUALSTYLE
  5
36
102
{ACAD_REACTORS
330
29
102
}
330
29
100
AcDbVisualStyle
  2
Thicken
 70
    13
177
     3
291
     1
 70
    58
 90
        2
176
     1
 90
        2
176
     1
 90
        0
176
     1
 90
        0
176
     1
 40
0.6
176
     1
 40
30.0
176
     1
 62
     7
420
 16777215
176
     1
 90
        1
176
     1
 90
        4
176
     1
 62
     7
176
     1
 62
   257
176
     1
 90
        1
176
     1
 90
        1
176
     1
 40
1.0
176
     1
 90
       12
176
     1
 62
     7
176
     1
 40
1.0
176
     1
 90
        1
176
     1
 90
        6
176
     1
 90
        2
176
     1
 62
     7
176
     1
 90
        5
176
     1
 90
        0
176
     1
 90
        0
176
     1
290
     0
176
     1
 90
        1
176
     1
 40
0.0
176
     1
 90
        0
176
     1
290
     0
176
     1
290
     1
176
     1
290
     1
176
     1
290
     0
176
     1
290
     0
176
     1
290
     0
176
     1
290
     0
176
     1
290
     0
176
     1
290
     0
176
     1
 90
       50
176
     1
 40
0.0
176
     1
 40
1.0
176
     1
 90
        0
176
     1
 62
    18
420
        0
176
     1
 90
       50
176
     1
 90
        3
176
     1
 62
     5
420
      255
176
     1
290
     0
176
     1
 90
       50
176
     1
 90
       50
176
     1
 90
       50
176
     1
290
     0
176
     1
 90
       50
176
     1
 62
   256
176
     0
 40
1.0
176
     0
 90
        2
176
     1
  1
strokes_ogs.tif
176
     1
290
     0
176
     1
 40
1.0
176
     1
 40
1.0
176
     1
1001
ACAD
1000
AcDbSavedByObjectVersion
1070
     0
  0
VISUALSTYLE
  5
30
102
{ACAD_REACTORS
330
29
102
}
330
29
100
AcDbVisualStyle
  2
Wireframe
 70
     5
177
     3
291
     0
 70
    58
 90
        0
176
     1
 90
        2
176
     1
 90
        0
176
     1
 90
        0
176
     1
 40
0.6
176
     1
 40
30.0
176
     1
 62
     7
420
 16777215
176
     1
 90
        1
176
     1
 90
        4
176
     1
 62
     7
176
     1
 62
   257
176
     1
 90
        1
176
     1
 90
        1
176
     1
 40
1.0
176
     1
 90
        0
176
     1
 62
   257
176
     1
 40
1.0
176
     1
 90
        1
176
     1
 90
        6
176
     1
 90
        2
176
     1
 62
     7
176
     1
 90
        3
176
     1
 90
        0
176
     1
 90
        0
176
     1
290
     0
176
     1
 90
        1
176
     1
 40
0.0
176
     1
 90
        0
176
     1
290
     0
176
     1
290
     1
176
     1
290
     1
176
     1
290
     0
176
     1
290
     0
176
     1
290
     0
176
     1
290
     0
176
     1
290
     0
176
     1
290
     0
176
     1
 90
       50
176
     1
 40
0.0
176
     1
 40
1.0
176
     1
 90
        0
176
     1
 62
    18
420
        0
176
     1
 90
       50
176
     1
 90
        3
176
     1
 62
     5
420
      255
176
     1
290
     0
176
     1
 90
       50
176
     1
 90
       50
176
     1
 90
       50
176
     1
290
     0
176
     1
 90
       50
176
     1
 62
   256
176
     0
 40
1.0
176
     0
 90
        2
176
     1
  1
strokes_ogs.tif
176
     1
290
     0
176
     1
 40
1.0
176
     1
 40
1.0
176
     1
1001
ACAD
1000
AcDbSavedByObjectVersion
1070
     0
  0
VISUALSTYLE
  5
3C
102
{ACAD_REACTORS
330
29
102
}
330
29
100
AcDbVisualStyle
  2
X-Ray
 70
    25
177
     3
291
     0
 70
    58
 90
        2
176
     1
 90
        2
176
     1
 90
        1
176
     1
 90
        1
176
     1
 40
0.5
176
     1
 40
30.0
176
     1
 62
     7
420
 16777215
176
     1
 90
        1
176
     1
 90
        0
176
     1
 62
     7
176
     1
 62
   257
176
     1
 90
        1
176
     1
 90
        1
176
     1
 40
1.0
176
     1
 90
        8
176
     1
 62
     7
176
     1
 40
1.0
176
     1
 90
        1
176
     1
 90
        6
176
     1
 90
        2
176
     1
 62
     7
176
     1
 90
        3
176
     1
 90
        0
176
     1
 90
        0
176
     1
290
     0
176
     1
 90
       13
176
     1
 40
0.0
176
     1
 90
        0
176
     1
290
     0
176
     1
290
     1
176
     1
290
     1
176
     1
290
     0
176
     1
290
     0
176
     1
290
     0
176
     1
290
     0
176
     1
290
     0
176
     1
290
     0
176
     1
 90
       50
176
     1
 40
0.0
176
     1
 40
1.0
176
     1
 90
        0
176
     1
 62
    18
420
        0
176
     1
 90
       50
176
     1
 90
        3
176
     1
 62
     5
420
      255
176
     1
290
     0
176
     1
 90
       50
176
     1
 90
       50
176
     1
 90
       50
176
     1
290
     0
176
     1
 90
       50
176
     1
 62
   256
176
     0
 40
1.0
176
     0
 90
        2
176
     1
  1
strokes_ogs.tif
176
     1
290
     0
176
     1
 40
1.0
176
     1
 40
1.0
176
     1
1001
ACAD
1000
AcDbSavedByObjectVersion
1070
     0
  0
DICTIONARYVAR
  5
2D2
102
{ACAD_REACTORS
330
2CD
102
}
330
2CD
100
DictionaryVariables
280
     0
  1
1:1
  0
DICTIONARYVAR
  5
2CF
102
{ACAD_REACTORS
330
2CD
102
}
330
2CD
100
DictionaryVariables
280
     0
  1
STANDARD
  0
DICTIONARYVAR
  5
2CE
102
{ACAD_REACTORS
330
2CD
102
}
330
2CD
100
DictionaryVariables
280
     0
  1
STANDARD
  0
DICTIONARYVAR
  5
2D0
102
{ACAD_REACTORS
330
2CD
102
}
330
2CD
100
DictionaryVariables
280
     0
  1
Imperial24
  0
DICTIONARYVAR
  5
2D1
102
{ACAD_REACTORS
330
2CD
102
}
330
2CD
100
DictionaryVariables
280
     0
  1
Imperial24
  0
DICTIONARY
  5
2D8
330
6B
100
AcDbDictionary
280
     1
281
     1
  3
ACAD_XREC_ROUNDTRIP
360
2D9
  0
DICTIONARY
  5
1A
330
19
100
AcDbDictionary
280
     1
281
     1
  3
BUMPTILE
360
1C
  3
DIFFUSETILE
360
1B
  3
OPACITYTILE
360
1F
  3
REFLECTIONTILE
360
1E
  3
REFRACTIONTILE
360
20
  3
SPECULARTILE
360
1D
  0
DICTIONARY
  5
12
330
11
100
AcDbDictionary
280
     1
281
     1
  3
BUMPTILE
360
14
  3
DIFFUSETILE
360
13
  3
OPACITYTILE
360
17
  3
REFLECTIONTILE
360
16
  3
REFRACTIONTILE
360
18
  3
SPECULARTILE
360
15
  0
DICTIONARY
  5
22
330
21
100
AcDbDictionary
280
     1
281
     1
  3
BUMPTILE
360
24
  3
DIFFUSETILE
360
23
  3
OPACITYTILE
360
27
  3
REFLECTIONTILE
360
26
  3
REFRACTIONTILE
360
28
  3
SPECULARTILE
360
25
  0
DICTIONARY
  5
2D6
330
69
100
AcDbDictionary
280
     1
281
     1
  3
ACAD_XREC_ROUNDTRIP
360
2D7
  0
DICTIONARY
  5
2D3
330
65
100
AcDbDictionary
280
     1
281
     1
  3
ACAD_ROUNDTRIP_2008_TABLESTYLE_CELLSTYLEMAP
360
2D4
  0
XRECORD
  5
2D9
102
{ACAD_REACTORS
330
2D8
102
}
330
2D8
100
AcDbXrecord
280
     1
102
DISPLAYNAME
  1
Imperial24
102
FLAGS
 90
        0
  0
XRECORD
  5
1C
102
{ACAD_REACTORS
330
1A
102
}
330
1A
100
AcDbXrecord
280
     1
270
     1
271
     1
  0
XRECORD
  5
1B
102
{ACAD_REACTORS
330
1A
102
}
330
1A
100
AcDbXrecord
280
     1
270
     1
271
     1
  0
XRECORD
  5
1F
102
{ACAD_REACTORS
330
1A
102
}
330
1A
100
AcDbXrecord
280
     1
270
     1
271
     1
  0
XRECORD
  5
1E
102
{ACAD_REACTORS
330
1A
102
}
330
1A
100
AcDbXrecord
280
     1
270
     1
271
     1
  0
XRECORD
  5
20
102
{ACAD_REACTORS
330
1A
102
}
330
1A
100
AcDbXrecord
280
     1
270
     1
271
     1
  0
XRECORD
  5
1D
102
{ACAD_REACTORS
330
1A
102
}
330
1A
100
AcDbXrecord
280
     1
270
     1
271
     1
  0
XRECORD
  5
14
102
{ACAD_REACTORS
330
12
102
}
330
12
100
AcDbXrecord
280
     1
270
     1
271
     1
  0
XRECORD
  5
13
102
{ACAD_REACTORS
330
12
102
}
330
12
100
AcDbXrecord
280
     1
270
     1
271
     1
  0
XRECORD
  5
17
102
{ACAD_REACTORS
330
12
102
}
330
12
100
AcDbXrecord
280
     1
270
     1
271
     1
  0
XRECORD
  5
16
102
{ACAD_REACTORS
330
12
102
}
330
12
100
AcDbXrecord
280
     1
270
     1
271
     1
  0
XRECORD
  5
18
102
{ACAD_REACTORS
330
12
102
}
330
12
100
AcDbXrecord
280
     1
270
     1
271
     1
  0
XRECORD
  5
15
102
{ACAD_REACTORS
330
12
102
}
330
12
100
AcDbXrecord
280
     1
270
     1
271
     1
  0
XRECORD
  5
24
102
{ACAD_REACTORS
330
22
102
}
330
22
100
AcDbXrecord
280
     1
270
     1
271
     1
  0
XRECORD
  5
23
102
{ACAD_REACTORS
330
22
102
}
330
22
100
AcDbXrecord
280
     1
270
     1
271
     1
  0
XRECORD
  5
27
102
{ACAD_REACTORS
330
22
102
}
330
22
100
AcDbXrecord
280
     1
270
     1
271
     1
  0
XRECORD
  5
26
102
{ACAD_REACTORS
330
22
102
}
330
22
100
AcDbXrecord
280
     1
270
     1
271
     1
  0
XRECORD
  5
28
102
{ACAD_REACTORS
330
22
102
}
330
22
100
AcDbXrecord
280
     1
270
     1
271
     1
  0
XRECORD
  5
25
102
{ACAD_REACTORS
330
22
102
}
330
22
100
AcDbXrecord
280
     1
270
     1
271
     1
  0
XRECORD
  5
2D7
102
{ACAD_REACTORS
330
2D6
102
}
330
2D6
100
AcDbXrecord
280
     1
102
DISPLAYNAME
  1
Imperial24
102
FLAGS
 90
        0
  0
CELLSTYLEMAP
  5
2D4
102
{ACAD_REACTORS
330
2D3
102
}
330
2D3
100
AcDbCellStyleMap
 90
        3
300
CELLSTYLE
  1
TABLEFORMAT_BEGIN
 90
        5
170
     1
 91
        0
 92
    32768
 62
   257
 93
        1
300
CONTENTFORMAT
  1
CONTENTFORMAT_BEGIN
 90
        0
 91
        0
 92
      512
 93
        0
300

 40
0.0
140
1.0
 94
        5
 62
     0
340
55
144
0.25
309
CONTENTFORMAT_END
171
     0
 94
        0
309
TABLEFORMAT_END
  1
CELLSTYLE_BEGIN
 90
        1
 91
        1
300
_TITLE
309
CELLSTYLE_END
300
CELLSTYLE
  1
TABLEFORMAT_BEGIN
 90
        5
170
     1
 91
        0
 92
        0
 62
   257
 93
        1
300
CONTENTFORMAT
  1
CONTENTFORMAT_BEGIN
 90
        0
 91
        0
 92
      512
 93
        0
300

 40
0.0
140
1.0
 94
        5
 62
     0
340
55
144
0.18
309
CONTENTFORMAT_END
171
     0
 94
        0
309
TABLEFORMAT_END
  1
CELLSTYLE_BEGIN
 90
        2
 91
        1
300
_HEADER
309
CELLSTYLE_END
300
CELLSTYLE
  1
TABLEFORMAT_BEGIN
 90
        5
170
     1
 91
        0
 92
        0
 62
   257
 93
        1
300
CONTENTFORMAT
  1
CONTENTFORMAT_BEGIN
 90
        0
 91
        0
 92
      512
 93
        0
300

 40
0.0
140
1.0
 94
        2
 62
     0
340
55
144
0.18
309
CONTENTFORMAT_END
171
     0
 94
        0
309
TABLEFORMAT_END
  1
CELLSTYLE_BEGIN
 90
        3
 91
        2
300
_DATA
309
CELLSTYLE_END
  0
ENDSEC
  0
EOF
