  0
SECTION
  2
HEADER
  9
$ACADVER
  1
AC1027
  9
$ACADMAINTVER
 70
   125
  9
$DWGCODEPAGE
  3
ANSI_1252
  9
$REQUIREDVERSIONS
160
                 0
  9
$INSBASE
 10
0.0
 20
0.0
 30
0.0
  9
$EXTMIN
 10
1.000000000000000E+20
 20
1.000000000000000E+20
 30
1.000000000000000E+20
  9
$EXTMAX
 10
-1.000000000000000E+20
 20
-1.000000000000000E+20
 30
-1.000000000000000E+20
  9
$LIMMIN
 10
0.0
 20
0.0
  9
$LIMMAX
 10
12.0
 20
9.0
  9
$ORTHOMODE
 70
     0
  9
$REGENMODE
 70
     1
  9
$FILLMODE
 70
     1
  9
$QTEXTMODE
 70
     0
  9
$MIRRTEXT
 70
     0
  9
$LTSCALE
 40
1.0
  9
$ATTMODE
 70
     1
  9
$TEXTSIZE
 40
0.2
  9
$TRACEWID
 40
0.05
  9
$TEXTSTYLE
  7
Standard
  9
$CLAYER
  8
0
  9
$CELTYPE
  6
ByLayer
  9
$CECOLOR
 62
   256
  9
$CELTSCALE
 40
1.0
  9
$DISPSILH
 70
     0
  9
$DIMSCALE
 40
1.0
  9
$DIMASZ
 40
0.18
  9
$DIMEXO
 40
0.0625
  9
$DIMDLI
 40
0.38
  9
$DIMRND
 40
0.0
  9
$DIMDLE
 40
0.0
  9
$DIMEXE
 40
0.18
  9
$DIMTP
 40
0.0
  9
$DIMTM
 40
0.0
  9
$DIMTXT
 40
0.18
  9
$DIMCEN
 40
0.09
  9
$DIMTSZ
 40
0.0
  9
$DIMTOL
 70
     0
  9
$DIMLIM
 70
     0
  9
$DIMTIH
 70
     1
  9
$DIMTOH
 70
     1
  9
$DIMSE1
 70
     0
  9
$DIMSE2
 70
     0
  9
$DIMTAD
 70
     0
  9
$DIMZIN
 70
     0
  9
$DIMBLK
  1

  9
$DIMASO
 70
     1
  9
$DIMSHO
 70
     1
  9
$DIMPOST
  1

  9
$DIMAPOST
  1

  9
$DIMALT
 70
     0
  9
$DIMALTD
 70
     2
  9
$DIMALTF
 40
25.4
  9
$DIMLFAC
 40
1.0
  9
$DIMTOFL
 70
     0
  9
$DIMTVP
 40
0.0
  9
$DIMTIX
 70
     0
  9
$DIMSOXD
 70
     0
  9
$DIMSAH
 70
     0
  9
$DIMBLK1
  1

  9
$DIMBLK2
  1

  9
$DIMSTYLE
  2
Standard
  9
$DIMCLRD
 70
     0
  9
$DIMCLRE
 70
     0
  9
$DIMCLRT
 70
     0
  9
$DIMTFAC
 40
1.0
  9
$DIMGAP
 40
0.09
  9
$DIMJUST
 70
     0
  9
$DIMSD1
 70
     0
  9
$DIMSD2
 70
     0
  9
$DIMTOLJ
 70
     1
  9
$DIMTZIN
 70
     0
  9
$DIMALTZ
 70
     0
  9
$DIMALTTZ
 70
     0
  9
$DIMUPT
 70
     0
  9
$DIMDEC
 70
     4
  9
$DIMTDEC
 70
     4
  9
$DIMALTU
 70
     2
  9
$DIMALTTD
 70
     2
  9
$DIMTXSTY
  7
Standard
  9
$DIMAUNIT
 70
     0
  9
$DIMADEC
 70
     0
  9
$DIMALTRND
 40
0.0
  9
$DIMAZIN
 70
     0
  9
$DIMDSEP
 70
    46
  9
$DIMATFIT
 70
     3
  9
$DIMFRAC
 70
     0
  9
$DIMLDRBLK
  1

  9
$DIMLUNIT
 70
     2
  9
$DIMLWD
 70
    -2
  9
$DIMLWE
 70
    -2
  9
$DIMTMOVE
 70
     0
  9
$DIMFXL
 40
1.0
  9
$DIMFXLON
 70
     0
  9
$DIMJOGANG
 40
0.7853981633974483
  9
$DIMTFILL
 70
     0
  9
$DIMTFILLCLR
 70
     0
  9
$DIMARCSYM
 70
     0
  9
$DIMLTYPE
  6

  9
$DIMLTEX1
  6

  9
$DIMLTEX2
  6

  9
$DIMTXTDIRECTION
 70
     0
  9
$LUNITS
 70
     2
  9
$LUPREC
 70
     4
  9
$SKETCHINC
 40
0.1
  9
$FILLETRAD
 40
0.0
  9
$AUNITS
 70
     0
  9
$AUPREC
 70
     0
  9
$MENU
  1
.
  9
$ELEVATION
 40
0.0
  9
$PELEVATION
 40
0.0
  9
$THICKNESS
 40
0.0
  9
$LIMCHECK
 70
     0
  9
$CHAMFERA
 40
0.0
  9
$CHAMFERB
 40
0.0
  9
$CHAMFERC
 40
0.0
  9
$CHAMFERD
 40
0.0
  9
$SKPOLY
 70
     0
  9
$TDCREATE
 40
2461230.136273148
  9
$TDUCREATE
 40
2461230.136273148
  9
$TDUPDATE
 40
2461230.136273148
  9
$TDUUPDATE
 40
2461230.136273148
  9
$TDINDWG
 40
0.0000000000
  9
$TDUSRTIMER
 40
0.0000000000
  9
$USRTIMER
 70
     1
  9
$ANGBASE
 50
0.0
  9
$ANGDIR
 70
     0
  9
$PDMODE
 70
     0
  9
$PDSIZE
 40
0.0
  9
$PLINEWID
 40
0.0
  9
$SPLFRAME
 70
     0
  9
$SPLINETYPE
 70
     6
  9
$SPLINESEGS
 70
     8
  9
$HANDSEED
  5
1B9
  9
$SURFTAB1
 70
     6
  9
$SURFTAB2
 70
     6
  9
$SURFTYPE
 70
     6
  9
$SURFU
 70
     6
  9
$SURFV
 70
     6
  9
$UCSBASE
  2

  9
$UCSNAME
  2

  9
$UCSORG
 10
0.0
 20
0.0
 30
0.0
  9
$UCSXDIR
 10
1.0
 20
0.0
 30
0.0
  9
$UCSYDIR
 10
0.0
 20
1.0
 30
0.0
  9
$UCSORTHOREF
  2

  9
$UCSORTHOVIEW
 70
     0
  9
$UCSORGTOP
 10
0.0
 20
0.0
 30
0.0
  9
$UCSORGBOTTOM
 10
0.0
 20
0.0
 30
0.0
  9
$UCSORGLEFT
 10
0.0
 20
0.0
 30
0.0
  9
$UCSORGRIGHT
 10
0.0
 20
0.0
 30
0.0
  9
$UCSORGFRONT
 10
0.0
 20
0.0
 30
0.0
  9
$UCSORGBACK
 10
0.0
 20
0.0
 30
0.0
  9
$PUCSBASE
  2

  9
$PUCSNAME
  2

  9
$PUCSORG
 10
0.0
 20
0.0
 30
0.0
  9
$PUCSXDIR
 10
1.0
 20
0.0
 30
0.0
  9
$PUCSYDIR
 10
0.0
 20
1.0
 30
0.0
  9
$PUCSORTHOREF
  2

  9
$PUCSORTHOVIEW
 70
     0
  9
$PUCSORGTOP
 10
0.0
 20
0.0
 30
0.0
  9
$PUCSORGBOTTOM
 10
0.0
 20
0.0
 30
0.0
  9
$PUCSORGLEFT
 10
0.0
 20
0.0
 30
0.0
  9
$PUCSORGRIGHT
 10
0.0
 20
0.0
 30
0.0
  9
$PUCSORGFRONT
 10
0.0
 20
0.0
 30
0.0
  9
$PUCSORGBACK
 10
0.0
 20
0.0
 30
0.0
  9
$USERI1
 70
     0
  9
$USERI2
 70
     0
  9
$USERI3
 70
     0
  9
$USERI4
 70
     0
  9
$USERI5
 70
     0
  9
$USERR1
 40
0.0
  9
$USERR2
 40
0.0
  9
$USERR3
 40
0.0
  9
$USERR4
 40
0.0
  9
$USERR5
 40
0.0
  9
$WORLDVIEW
 70
     1
  9
$SHADEDGE
 70
     3
  9
$SHADEDIF
 70
    70
  9
$TILEMODE
 70
     1
  9
$MAXACTVP
 70
    64
  9
$PINSBASE
 10
0.0
 20
0.0
 30
0.0
  9
$PLIMCHECK
 70
     0
  9
$PEXTMIN
 10
1.000000000000000E+20
 20
1.000000000000000E+20
 30
1.000000000000000E+20
  9
$PEXTMAX
 10
-1.000000000000000E+20
 20
-1.000000000000000E+20
 30
-1.000000000000000E+20
  9
$PLIMMIN
 10
0.0
 20
0.0
  9
$PLIMMAX
 10
12.0
 20
9.0
  9
$UNITMODE
 70
     0
  9
$VISRETAIN
 70
     1
  9
$PLINEGEN
 70
     0
  9
$PSLTSCALE
 70
     1
  9
$TREEDEPTH
 70
  3020
  9
$CMLSTYLE
  2
Standard
  9
$CMLJUST
 70
     0
  9
$CMLSCALE
 40
1.0
  9
$PROXYGRAPHICS
 70
     1
  9
$MEASUREMENT
 70
     0
  9
$CELWEIGHT
370
    -1
  9
$ENDCAPS
280
     0
  9
$JOINSTYLE
280
     0
  9
$LWDISPLAY
290
     0
  9
$INSUNITS
 70
     5
  9
$HYPERLINKBASE
  1

  9
$STYLESHEET
  1

  9
$XEDIT
290
     1
  9
$CEPSNTYPE
380
     0
  9
$PSTYLEMODE
290
     1
  9
$FINGERPRINTGUID
  2
{32EBA659-5777-0648-945E-FCCA943B8AC3}
  9
$VERSIONGUID
  2
{D66EEB1B-3B99-174D-B469-66416C3AA526}
  9
$EXTNAMES
290
     1
  9
$PSVPSCALE
 40
0.0
  9
$OLESTARTUP
290
     0
  9
$SORTENTS
280
   127
  9
$INDEXCTL
280
     0
  9
$HIDETEXT
280
     1
  9
$XCLIPFRAME
280
     2
  9
$HALOGAP
280
     0
  9
$OBSCOLOR
 70
   257
  9
$OBSLTYPE
280
     0
  9
$INTERSECTIONDISPLAY
280
     0
  9
$INTERSECTIONCOLOR
 70
   257
  9
$DIMASSOC
280
     2
  9
$PROJECTNAME
  1

  9
$CAMERADISPLAY
290
     0
  9
$LENSLENGTH
 40
50.0
  9
$CAMERAHEIGHT
 40
0.0
  9
$STEPSPERSEC
 40
2.0
  9
$STEPSIZE
 40
6.0
  9
$3DDWFPREC
 40
2.0
  9
$PSOLWIDTH
 40
0.25
  9
$PSOLHEIGHT
 40
4.0
  9
$LOFTANG1
 40
1.570796326794896
  9
$LOFTANG2
 40
1.570796326794896
  9
$LOFTMAG1
 40
0.0
  9
$LOFTMAG2
 40
0.0
  9
$LOFTPARAM
 70
     7
  9
$LOFTNORMALS
280
     1
  9
$LATITUDE
 40
37.795
  9
$LONGITUDE
 40
-122.394
  9
$NORTHDIRECTION
 40
0.0
  9
$TIMEZONE
 70
 -8000
  9
$LIGHTGLYPHDISPLAY
280
     1
  9
$TILEMODELIGHTSYNCH
280
     1
  9
$CMATERIAL
347
11
  9
$SOLIDHIST
280
     0
  9
$SHOWHIST
280
     1
  9
$DWFFRAME
280
     2
  9
$DGNFRAME
280
     0
  9
$REALWORLDSCALE
290
     1
  9
$INTERFERECOLOR
 62
     1
  9
$INTERFEREOBJVS
345
33
  9
$INTERFEREVPVS
346
30
  9
$CSHADOW
280
     0
  9
$SHADOWPLANELOCATION
 40
0.0
  0
ENDSEC
  0
SECTION
  2
CLASSES
  0
CLASS
  1
ACDBDICTIONARYWDFLT
  2
AcDbDictionaryWithDefault
  3
ObjectDBX Classes
 90
        0
 91
        1
280
     0
281
     0
  0
CLASS
  1
MATERIAL
  2
AcDbMaterial
  3
ObjectDBX Classes
 90
     1153
 91
        3
280
     0
281
     0
  0
CLASS
  1
VISUALSTYLE
  2
AcDbVisualStyle
  3
ObjectDBX Classes
 90
     4095
 91
       24
280
     0
281
     0
  0
CLASS
  1
SCALE
  2
AcDbScale
  3
ObjectDBX Classes
 90
     1153
 91
       17
280
     0
281
     0
  0
CLASS
  1
TABLESTYLE
  2
AcDbTableStyle
  3
ObjectDBX Classes
 90
     4095
 91
        1
280
     0
281
     0
  0
CLASS
  1
MLEADERSTYLE
  2
AcDbMLeaderStyle
  3
ACDB_MLEADERSTYLE_CLASS
 90
     4095
 91
        1
280
     0
281
     0
  0
CLASS
  1
ACDBSECTIONVIEWSTYLE
  2
AcDbSectionViewStyle
  3
ObjectDBX Classes
 90
     1025
 91
        1
280
     0
281
     0
  0
CLASS
  1
ACDBDETAILVIEWSTYLE
  2
AcDbDetailViewStyle
  3
ObjectDBX Classes
 90
     1025
 91
        1
280
     0
281
     0
  0
CLASS
  1
DICTIONARYVAR
  2
AcDbDictionaryVar
  3
ObjectDBX Classes
 90
        0
 91
        5
280
     0
281
     0
  0
CLASS
  1
CELLSTYLEMAP
  2
AcDbCellStyleMap
  3
ObjectDBX Classes
 90
     1152
 91
        1
280
     0
281
     0
  0
ENDSEC
  0
SECTION
  2
TABLES
  0
TABLE
  2
VPORT
  5
8
330
0
100
AcDbSymbolTable
 70
     1
1001
ACAD
1000
DbSaveVer
1071
      471
  0
VPORT
  5
57
330
8
100
AcDbSymbolTableRecord
100
AcDbViewportTableRecord
  2
*Active
 70
     0
 10
0.0
 20
0.0
 11
1.0
 21
1.0
 12
500.0
 22
500.0
 13
0.0
 23
0.0
 14
1.0
 24
1.0
 15
0.0
 25
0.0
 16
0.0
 26
0.0
 36
1.0
 17
0.0
 27
0.0
 37
0.0
 40
12.0
 41
1.0
 42
50.0
 43
0.0
 44
0.0
 50
0.0
 51
0.0
 71
     0
 72
   100
 73
     1
 74
     1
 75
     0
 76
     0
 77
     0
 78
     0
281
     0
 65
     1
110
0.0
120
0.0
130
0.0
111
1.0
121
0.0
131
0.0
112
0.0
122
1.0
132
0.0
 79
     0
146
0.0
 60
     3
 61
     5
292
     1
282
     1
141
0.0
142
0.0
 63
   250
421
  3355443
  0
ENDTAB
  0
TABLE
  2
LTYPE
  5
5
330
0
100
AcDbSymbolTable
 70
     1
  0
LTYPE
  5
5B
330
5
100
AcDbSymbolTableRecord
100
AcDbLinetypeTableRecord
  2
ByBlock
 70
     0
  3

 72
    65
 73
     0
 40
0.0
  0
LTYPE
  5
5C
330
5
100
AcDbSymbolTableRecord
100
AcDbLinetypeTableRecord
  2
ByLayer
 70
     0
  3

 72
    65
 73
     0
 40
0.0
  0
LTYPE
  5
5D
330
5
100
AcDbSymbolTableRecord
100
AcDbLinetypeTableRecord
  2
Continuous
 70
     0
  3
Solid line
 72
    65
 73
     0
 40
0.0
  0
ENDTAB
  0
TABLE
  2
LAYER
  5
2
330
0
100
AcDbSymbolTable
 70
     2
  0
LAYER
  5
54
330
2
100
AcDbSymbolTableRecord
100
AcDbLayerTableRecord
  2
0
 70
     0
 62
     7
  6
Continuous
370
    -3
390
F
347
21
348
0
  0
LAYER
  5
7A
330
2
100
AcDbSymbolTableRecord
100
AcDbLayerTableRecord
  2
INTERIOR v4_Sketch2
 70
     0
 62
     7
  6
Continuous
370
    -3
390
F
347
21
348
0
1001
NFusion_SketchTransform
1000
1.000000;0.000000;0.000000;0.000000;0.000000;1.000000;0.000000;0.000000;0.000000;0.000000;1.000000;0.000000;0.000000;0.000000;0.000000;1.000000
  0
ENDTAB
  0
TABLE
  2
STYLE
  5
3
330
0
100
AcDbSymbolTable
 70
     2
  0
STYLE
  5
55
330
3
100
AcDbSymbolTableRecord
100
AcDbTextStyleTableRecord
  2
Standard
 70
     0
 40
0.0
 41
1.0
 50
0.0
 71
     0
 42
0.2
  3
txt
  4

  0
STYLE
  5
5A
330
3
100
AcDbSymbolTableRecord
100
AcDbTextStyleTableRecord
  2
Annotative
 70
     0
 40
0.0
 41
1.0
 50
0.0
 71
     0
 42
0.2
  3
txt
  4

1001
AcadAnnotative
1000
AnnotativeData
1002
{
1070
     1
1070
     1
1002
}
  0
ENDTAB
  0
TABLE
  2
VIEW
  5
6
330
0
100
AcDbSymbolTable
 70
     0
  0
ENDTAB
  0
TABLE
  2
UCS
  5
7
330
0
100
AcDbSymbolTable
 70
     0
  0
ENDTAB
  0
TABLE
  2
APPID
  5
9
330
0
100
AcDbSymbolTable
 70
     4
  0
APPID
  5
56
330
9
100
AcDbSymbolTableRecord
100
AcDbRegAppTableRecord
  2
ACAD
 70
     0
  0
APPID
  5
5E
330
9
100
AcDbSymbolTableRecord
100
AcDbRegAppTableRecord
  2
AcadAnnotative
 70
     0
  0
APPID
  5
78
330
9
100
AcDbSymbolTableRecord
100
AcDbRegAppTableRecord
  2
EDIT_IN_FUSION_ACAD_ADDIN
 70
     0
  0
APPID
  5
79
330
9
100
AcDbSymbolTableRecord
100
AcDbRegAppTableRecord
  2
NFusion_SketchTransform
 70
     0
  0
ENDTAB
  0
TABLE
  2
DIMSTYLE
  5
A
330
0
100
AcDbSymbolTable
 70
     2
100
AcDbDimStyleTable
 71
     0
  0
DIMSTYLE
105
58
330
A
100
AcDbSymbolTableRecord
100
AcDbDimStyleTableRecord
  2
Standard
 70
     0
340
55
  0
DIMSTYLE
105
59
330
A
100
AcDbSymbolTableRecord
100
AcDbDimStyleTableRecord
  2
Annotative
 70
     0
340
55
1001
AcadAnnotative
1000
AnnotativeData
1002
{
1070
     1
1070
     1
1002
}
  0
ENDTAB
  0
TABLE
  2
BLOCK_RECORD
  5
1
330
0
100
AcDbSymbolTable
 70
     1
  0
BLOCK_RECORD
  5
70
330
1
100
AcDbSymbolTableRecord
100
AcDbBlockTableRecord
  2
*Model_Space
340
73
 70
     0
280
     1
281
     0
  0
BLOCK_RECORD
  5
6C
330
1
100
AcDbSymbolTableRecord
100
AcDbBlockTableRecord
  2
*Paper_Space
340
6F
 70
     0
280
     1
281
     0
  0
BLOCK_RECORD
  5
74
330
1
100
AcDbSymbolTableRecord
100
AcDbBlockTableRecord
  2
*Paper_Space0
340
77
 70
     0
280
     1
281
     0
  0
ENDTAB
  0
ENDSEC
  0
SECTION
  2
BLOCKS
  0
BLOCK
  5
71
330
70
100
AcDbEntity
  8
0
100
AcDbBlockBegin
  2
*Model_Space
 70
     0
 10
0.0
 20
0.0
 30
0.0
  3
*Model_Space
  1

  0
ENDBLK
  5
72
330
70
100
AcDbEntity
  8
0
100
AcDbBlockEnd
  0
BLOCK
  5
6D
330
6C
100
AcDbEntity
 67
     1
  8
0
100
AcDbBlockBegin
  2
*Paper_Space
 70
     0
 10
0.0
 20
0.0
 30
0.0
  3
*Paper_Space
  1

  0
ENDBLK
  5
6E
330
6C
100
AcDbEntity
 67
     1
  8
0
100
AcDbBlockEnd
  0
BLOCK
  5
75
330
74
100
AcDbEntity
 67
     1
  8
0
100
AcDbBlockBegin
  2
*Paper_Space0
 70
     0
 10
0.0
 20
0.0
 30
0.0
  3
*Paper_Space0
  1

  0
ENDBLK
  5
76
330
74
100
AcDbEntity
 67
     1
  8
0
100
AcDbBlockEnd
  0
ENDSEC
  0
SECTION
  2
ENTITIES
  0
POINT
  5
7B
330
70
100
AcDbEntity
  8
INTERIOR v4_Sketch2
100
AcDbPoint
 10
0.0
 20
0.0
 30
0.0
  0
LINE
  5
7C
330
70
100
AcDbEntity
  8
INTERIOR v4_Sketch2
100
AcDbLine
 10
-4.313065753481495
 20
8.249470888263171
 30
0.0
 11
-4.313065753481634
 21
9.150088651665225
 31
0.0
  0
LINE
  5
7D
330
70
100
AcDbEntity
  8
INTERIOR v4_Sketch2
100
AcDbLine
 10
-5.013547666930502
 20
6.699775623573242
 30
0.0
 11
-5.013547666939132
 21
7.399775623573242
 31
0.0
  0
LINE
  5
7E
330
70
100
AcDbEntity
  8
INTERIOR v4_Sketch2
100
AcDbLine
 10
6.305483402882103
 20
11.19188791927773
 30
0.0
 11
6.538139584617439
 21
10.87137481297824
 31
0.0
  0
ARC
  5
7F
330
70
100
AcDbEntity
  8
INTERIOR v4_Sketch2
100
AcDbCircle
 10
8.798789908219461
 20
8.180054758159915
 30
0.0
 40
0.0999999999999909
100
AcDbArc
 50
200.6255481051918
 51
305.9753961421744
  0
ARC
  5
80
330
70
100
AcDbEntity
  8
INTERIOR v4_Sketch2
100
AcDbCircle
 10
-4.613065753481492
 20
4.249462595467487
 30
0.0
 40
0.300000000000004
100
AcDbArc
 50
339.3738629457244
 51
0.0000000000081422
  0
ARC
  5
81
330
70
100
AcDbEntity
  8
INTERIOR v4_Sketch2
100
AcDbCircle
 10
2.186393004529989
 20
7.399665425804264
 30
0.0
 40
0.150000000000003
100
AcDbArc
 50
359.9991230667915
 51
179.9991222130179
  0
ARC
  5
82
330
70
100
AcDbEntity
  8
INTERIOR v4_Sketch2
100
AcDbCircle
 10
8.985970419620649
 20
8.250506558361141
 30
0.0
 40
0.3000000000000185
100
AcDbArc
 50
180.0000000000088
 51
200.625548105194
  0
LINE
  5
83
330
70
100
AcDbEntity
  8
INTERIOR v4_Sketch2
100
AcDbLine
 10
-0.8134129354419741
 20
1.700032266621126
 30
0.0
 11
5.186024467639633
 21
1.699584517347315
 31
0.0
  0
LINE
  5
84
330
70
100
AcDbEntity
  8
INTERIOR v4_Sketch2
100
AcDbLine
 10
9.386452333069506
 20
6.700811293657435
 30
0.0
 11
9.386452333060873
 21
7.400811293657434
 31
0.0
  0
LINE
  5
85
330
70
100
AcDbEntity
  8
INTERIOR v4_Sketch2
100
AcDbLine
 10
2.336318392392193
 20
2.524765534689893
 30
0.0
 11
2.336327575615278
 21
3.124765534549339
 31
0.0
  0
LINE
  5
86
330
70
100
AcDbEntity
  8
INTERIOR v4_Sketch2
100
AcDbLine
 10
6.686586240684071
 20
1.699509858324785
 30
0.0
 11
9.686452137352048
 21
1.699846235928466
 31
0.0
  0
LINE
  5
87
330
70
100
AcDbEntity
  8
INTERIOR v4_Sketch2
100
AcDbLine
 10
-4.313065753481495
 20
8.249470888263171
 30
0.0
 11
-4.313065753481634
 21
9.150088651665225
 31
0.0
  0
ARC
  5
88
330
70
100
AcDbEntity
  8
INTERIOR v4_Sketch2
100
AcDbCircle
 10
8.985970419620649
 20
8.250506558361141
 30
0.0
 40
0.3000000000000185
100
AcDbArc
 50
180.0000000000088
 51
200.625548105194
  0
LINE
  5
89
330
70
100
AcDbEntity
  8
INTERIOR v4_Sketch2
100
AcDbLine
 10
-4.313065753481556
 20
4.699758121258719
 30
0.0
 11
-4.313083562608646
 21
4.699758121258719
 31
0.0
  0
LINE
  5
8A
330
70
100
AcDbEntity
  8
INTERIOR v4_Sketch2
100
AcDbLine
 10
-4.313065753481488
 20
4.249462595467529
 30
0.0
 11
-4.313065753481627
 21
5.150080358869579
 31
0.0
  0
LINE
  5
8B
330
70
100
AcDbEntity
  8
INTERIOR v4_Sketch2
100
AcDbLine
 10
-1.563547671921
 20
10.69982935437047
 30
0.0
 11
-1.563534316011164
 21
10.69981154524338
 31
0.0
  0
LINE
  5
8C
330
70
100
AcDbEntity
  8
INTERIOR v4_Sketch2
100
AcDbLine
 10
-4.313065753481495
 20
8.249470888263171
 30
0.0
 11
-4.313065753481634
 21
9.150088651665225
 31
0.0
  0
LINE
  5
8D
330
70
100
AcDbEntity
  8
INTERIOR v4_Sketch2
100
AcDbLine
 10
6.686760851827429
 20
11.70029345852293
 30
0.0
 11
9.686452333069496
 21
11.70029345846135
 31
0.0
  0
LINE
  5
8E
330
70
100
AcDbEntity
  8
INTERIOR v4_Sketch2
100
AcDbLine
 10
-0.813225434308201
 20
11.70029345867692
 30
0.0
 11
5.186143088790291
 21
11.70029345855374
 31
0.0
  0
ARC
  5
8F
330
70
100
AcDbEntity
  8
INTERIOR v4_Sketch2
100
AcDbCircle
 10
8.985970419620649
 20
8.250506558361141
 30
0.0
 40
0.3000000000000185
100
AcDbArc
 50
180.0000000000088
 51
200.625548105194
  0
LINE
  5
90
330
70
100
AcDbEntity
  8
INTERIOR v4_Sketch2
100
AcDbLine
 10
-4.313065753481495
 20
8.249470888263171
 30
0.0
 11
-4.313065753481634
 21
9.150088651665225
 31
0.0
  0
LINE
  5
91
330
70
100
AcDbEntity
  8
INTERIOR v4_Sketch2
100
AcDbLine
 10
-4.313065753481488
 20
4.249462595467529
 30
0.0
 11
-4.313065753481627
 21
5.150080358869579
 31
0.0
  0
LINE
  5
92
330
70
100
AcDbEntity
  8
INTERIOR v4_Sketch2
100
AcDbLine
 10
-5.013547666939132
 20
7.399775623573242
 30
0.0
 11
-5.313547666939133
 21
7.399775623569543
 31
0.0
  0
LINE
  5
93
330
70
100
AcDbEntity
  8
INTERIOR v4_Sketch2
100
AcDbLine
 10
-5.013547666930502
 20
6.699775623573242
 30
0.0
 11
-5.013547666921869
 21
5.999775623573242
 31
0.0
  0
LINE
  5
94
330
70
100
AcDbEntity
  8
INTERIOR v4_Sketch2
100
AcDbLine
 10
9.386452333060873
 20
7.400811293657434
 30
0.0
 11
9.686452333060877
 21
7.400811293661133
 31
0.0
  0
LINE
  5
95
330
70
100
AcDbEntity
  8
INTERIOR v4_Sketch2
100
AcDbLine
 10
-4.313065753481488
 20
4.249462595467529
 30
0.0
 11
-4.313065753481627
 21
5.150080358869579
 31
0.0
  0
LINE
  5
96
330
70
100
AcDbEntity
  8
INTERIOR v4_Sketch2
100
AcDbLine
 10
-5.013547666921869
 20
5.999775623573242
 30
0.0
 11
-5.31354766692187
 21
5.999775623569543
 31
0.0
  0
ARC
  5
97
330
70
100
AcDbEntity
  8
INTERIOR v4_Sketch2
100
AcDbCircle
 10
-4.425885242080465
 20
9.220540451866405
 30
0.0
 40
0.0999999999999942
100
AcDbArc
 50
20.62554810519113
 51
125.9753961421747
  0
LINE
  5
98
330
70
100
AcDbEntity
  8
INTERIOR v4_Sketch2
100
AcDbLine
 10
-4.313065753481488
 20
4.249462595467529
 30
0.0
 11
-4.313065753481627
 21
5.150080358869579
 31
0.0
  0
ARC
  5
99
330
70
100
AcDbEntity
  8
INTERIOR v4_Sketch2
100
AcDbCircle
 10
-4.613065753481642
 20
5.150080358869533
 30
0.0
 40
0.3000000000000149
100
AcDbArc
 50
0.0000000000088207
 51
20.62554810519422
  0
LINE
  5
9A
330
70
100
AcDbEntity
  8
INTERIOR v4_Sketch2
100
AcDbLine
 10
8.685970419620559
 20
8.700828795971954
 30
0.0
 11
8.685988228747653
 21
8.700828795971954
 31
0.0
  0
LINE
  5
9B
330
70
100
AcDbEntity
  8
INTERIOR v4_Sketch2
100
AcDbLine
 10
-5.31354766692187
 20
5.999775623569543
 30
0.0
 11
-5.313547666915091
 21
5.450080358871516
 31
0.0
  0
ARC
  5
9C
330
70
100
AcDbEntity
  8
INTERIOR v4_Sketch2
100
AcDbCircle
 10
-4.613065753481642
 20
5.150080358869533
 30
0.0
 40
0.3000000000000149
100
AcDbArc
 50
0.0000000000088207
 51
20.62554810519422
  0
LINE
  5
9D
330
70
100
AcDbEntity
  8
INTERIOR v4_Sketch2
100
AcDbLine
 10
9.178046793664243
 20
8.331784007346168
 30
0.0
 11
8.857533687357907
 21
8.099127825606327
 31
0.0
  0
ARC
  5
9E
330
70
100
AcDbEntity
  8
INTERIOR v4_Sketch2
100
AcDbCircle
 10
-4.425885242080465
 20
9.220540451866405
 30
0.0
 40
0.0999999999999942
100
AcDbArc
 50
20.62554810519113
 51
125.9753961421747
  0
LINE
  5
9F
330
70
100
AcDbEntity
  8
INTERIOR v4_Sketch2
100
AcDbLine
 10
-5.013547666924857
 20
10.87519105522029
 30
0.0
 11
-5.313547666924858
 21
10.87519105521824
 31
0.0
  0
ARC
  5
A0
330
70
100
AcDbEntity
  8
INTERIOR v4_Sketch2
100
AcDbCircle
 10
6.457212652063901
 20
10.81263103383972
 30
0.0
 40
0.099999999999999
100
AcDbArc
 50
290.6255481052445
 51
35.97539614222684
  0
LINE
  5
A1
330
70
100
AcDbEntity
  8
INTERIOR v4_Sketch2
100
AcDbLine
 10
-4.805142127525247
 20
9.068811202680151
 30
0.0
 11
-5.313547666915102
 21
9.450088651667162
 31
0.0
  0
LINE
  5
A2
330
70
100
AcDbEntity
  8
INTERIOR v4_Sketch2
100
AcDbLine
 10
-4.805142127525247
 20
9.068811202680151
 30
0.0
 11
-5.313547666915102
 21
9.450088651667162
 31
0.0
  0
LINE
  5
A3
330
70
100
AcDbEntity
  8
INTERIOR v4_Sketch2
100
AcDbLine
 10
8.685988228747653
 20
8.700828795971954
 30
0.0
 11
8.685970419620559
 21
8.700815440062118
 31
0.0
  0
LINE
  5
A4
330
70
100
AcDbEntity
  8
INTERIOR v4_Sketch2
100
AcDbLine
 10
-4.80514212752524
 20
5.068802909884506
 30
0.0
 11
-4.484629021218903
 21
5.301459091624347
 31
0.0
  0
LINE
  5
A5
330
70
100
AcDbEntity
  8
INTERIOR v4_Sketch2
100
AcDbLine
 10
-4.313065753481556
 20
4.699758121258719
 30
0.0
 11
-4.313083562608646
 21
4.699758121258719
 31
0.0
  0
LINE
  5
A6
330
70
100
AcDbEntity
  8
INTERIOR v4_Sketch2
100
AcDbLine
 10
-4.805142127525247
 20
9.068811202680151
 30
0.0
 11
-4.484629021218911
 21
9.301467384419993
 31
0.0
  0
ARC
  5
A7
330
70
100
AcDbEntity
  8
INTERIOR v4_Sketch2
100
AcDbCircle
 10
-4.425885242080457
 20
5.220532159070759
 30
0.0
 40
0.0999999999999942
100
AcDbArc
 50
20.62554810519113
 51
125.9753961421743
  0
LINE
  5
A8
330
70
100
AcDbEntity
  8
INTERIOR v4_Sketch2
100
AcDbLine
 10
-4.80514212752524
 20
5.068802909884506
 30
0.0
 11
-4.484629021218903
 21
5.301459091624347
 31
0.0
  0
ARC
  5
A9
330
70
100
AcDbEntity
  8
INTERIOR v4_Sketch2
100
AcDbCircle
 10
6.457039964945842
 20
2.587171558970589
 30
0.0
 40
0.0999999999999938
100
AcDbArc
 50
324.0257021837562
 51
69.37386294575573
  0
LINE
  5
AA
330
70
100
AcDbEntity
  8
INTERIOR v4_Sketch2
100
AcDbLine
 10
-4.805142127525247
 20
9.068811202680151
 30
0.0
 11
-4.484629021218911
 21
9.301467384419993
 31
0.0
  0
ARC
  5
AB
330
70
100
AcDbEntity
  8
INTERIOR v4_Sketch2
100
AcDbCircle
 10
-4.425885242080457
 20
5.220532159070759
 30
0.0
 40
0.0999999999999942
100
AcDbArc
 50
20.62554810519113
 51
125.9753961421743
  0
LINE
  5
AC
330
70
100
AcDbEntity
  8
INTERIOR v4_Sketch2
100
AcDbLine
 10
8.685988228747653
 20
8.700828795971954
 30
0.0
 11
8.685970419620559
 21
8.700828795971954
 31
0.0
  0
LINE
  5
AD
330
70
100
AcDbEntity
  8
INTERIOR v4_Sketch2
100
AcDbLine
 10
-5.313547666930507
 20
11.70029345876932
 30
0.0
 11
-5.313547666924858
 21
10.87519105521824
 31
0.0
  0
LINE
  5
AE
330
70
100
AcDbEntity
  8
INTERIOR v4_Sketch2
100
AcDbLine
 10
8.685988228747653
 20
8.700828795971954
 30
0.0
 11
8.685970419620559
 21
8.700815440062118
 31
0.0
  0
LINE
  5
AF
330
70
100
AcDbEntity
  8
INTERIOR v4_Sketch2
100
AcDbLine
 10
-4.805142127525247
 20
9.068811202680151
 30
0.0
 11
-5.313547666915102
 21
9.450088651667162
 31
0.0
  0
LINE
  5
B0
330
70
100
AcDbEntity
  8
INTERIOR v4_Sketch2
100
AcDbLine
 10
6.3053148037759
 20
2.207907381062137
 30
0.0
 11
6.537968023567778
 21
2.528429331163983
 31
0.0
  0
LINE
  5
B1
330
70
100
AcDbEntity
  8
INTERIOR v4_Sketch2
100
AcDbLine
 10
9.178046793664243
 20
8.331784007346168
 30
0.0
 11
9.686452333054099
 21
7.950506558359159
 31
0.0
  0
LINE
  5
B2
330
70
100
AcDbEntity
  8
INTERIOR v4_Sketch2
100
AcDbLine
 10
-4.80514212752524
 20
5.068802909884506
 30
0.0
 11
-5.313547666915091
 21
5.450080358871516
 31
0.0
  0
LINE
  5
B3
330
70
100
AcDbEntity
  8
INTERIOR v4_Sketch2
100
AcDbLine
 10
-5.013547666922804
 20
10.57519105522029
 30
0.0
 11
-5.01354766692075
 21
10.27519105522029
 31
0.0
  0
LINE
  5
B4
330
70
100
AcDbEntity
  8
INTERIOR v4_Sketch2
100
AcDbLine
 10
-4.805142127525247
 20
9.068811202680151
 30
0.0
 11
-4.484629021218911
 21
9.301467384419993
 31
0.0
  0
LINE
  5
B5
330
70
100
AcDbEntity
  8
INTERIOR v4_Sketch2
100
AcDbLine
 10
-4.80514212752524
 20
5.068802909884506
 30
0.0
 11
-4.484629021218903
 21
5.301459091624347
 31
0.0
  0
LINE
  5
B6
330
70
100
AcDbEntity
  8
INTERIOR v4_Sketch2
100
AcDbLine
 10
-4.805142127525247
 20
9.068811202680151
 30
0.0
 11
-4.484629021218911
 21
9.301467384419993
 31
0.0
  0
LINE
  5
B7
330
70
100
AcDbEntity
  8
INTERIOR v4_Sketch2
100
AcDbLine
 10
2.036393004547562
 20
7.399667721610035
 30
0.0
 11
2.036371577027033
 21
5.999667721937991
 31
0.0
  0
ARC
  5
B8
330
70
100
AcDbEntity
  8
INTERIOR v4_Sketch2
100
AcDbCircle
 10
-4.425885242080465
 20
9.220540451866405
 30
0.0
 40
0.0999999999999942
100
AcDbArc
 50
20.62554810519113
 51
125.9753961421747
  0
ARC
  5
B9
330
70
100
AcDbEntity
  8
INTERIOR v4_Sketch2
100
AcDbCircle
 10
2.186371577009463
 20
5.99966542613222
 30
0.0
 40
0.1499999999999995
100
AcDbArc
 50
179.9991230667914
 51
359.999122213018
  0
LINE
  5
BA
330
70
100
AcDbEntity
  8
INTERIOR v4_Sketch2
100
AcDbLine
 10
8.685988228747653
 20
8.700828795971954
 30
0.0
 11
8.685970419620559
 21
8.700828795971954
 31
0.0
  0
LINE
  5
BB
330
70
100
AcDbEntity
  8
INTERIOR v4_Sketch2
100
AcDbLine
 10
9.178046793664243
 20
8.331784007346168
 30
0.0
 11
8.857533687357907
 21
8.099127825606327
 31
0.0
  0
ARC
  5
BC
330
70
100
AcDbEntity
  8
INTERIOR v4_Sketch2
100
AcDbCircle
 10
-4.613065753481642
 20
5.150080358869533
 30
0.0
 40
0.3000000000000149
100
AcDbArc
 50
0.0000000000088207
 51
20.62554810519422
  0
LINE
  5
BD
330
70
100
AcDbEntity
  8
INTERIOR v4_Sketch2
100
AcDbLine
 10
-4.805142127525247
 20
9.068811202680151
 30
0.0
 11
-5.313547666915102
 21
9.450088651667162
 31
0.0
  0
ARC
  5
BE
330
70
100
AcDbEntity
  8
INTERIOR v4_Sketch2
100
AcDbCircle
 10
-4.613065753481649
 20
9.150088651665178
 30
0.0
 40
0.3000000000000149
100
AcDbArc
 50
0.0000000000088207
 51
20.62554810519422
  0
LINE
  5
BF
330
70
100
AcDbEntity
  8
INTERIOR v4_Sketch2
100
AcDbLine
 10
9.178046793664243
 20
8.331784007346168
 30
0.0
 11
8.857533687357907
 21
8.099127825606327
 31
0.0
  0
LINE
  5
C0
330
70
100
AcDbEntity
  8
INTERIOR v4_Sketch2
100
AcDbLine
 10
-4.80514212752524
 20
5.068802909884506
 30
0.0
 11
-5.313547666915091
 21
5.450080358871516
 31
0.0
  0
LINE
  5
C1
330
70
100
AcDbEntity
  8
INTERIOR v4_Sketch2
100
AcDbLine
 10
8.685970419620559
 20
8.700828795971954
 30
0.0
 11
8.685988228747653
 21
8.700828795971954
 31
0.0
  0
LINE
  5
C2
330
70
100
AcDbEntity
  8
INTERIOR v4_Sketch2
100
AcDbLine
 10
-4.80514212752524
 20
5.068802909884506
 30
0.0
 11
-5.313547666915091
 21
5.450080358871516
 31
0.0
  0
ARC
  5
C3
330
70
100
AcDbEntity
  8
INTERIOR v4_Sketch2
100
AcDbCircle
 10
-4.613065753481649
 20
9.150088651665178
 30
0.0
 40
0.3000000000000149
100
AcDbArc
 50
0.0000000000088207
 51
20.62554810519422
  0
LINE
  5
C4
330
70
100
AcDbEntity
  8
INTERIOR v4_Sketch2
100
AcDbLine
 10
2.036327575650417
 20
3.124770126160882
 30
0.0
 11
2.036318392427332
 21
2.524770126301435
 31
0.0
  0
ARC
  5
C5
330
70
100
AcDbEntity
  8
INTERIOR v4_Sketch2
100
AcDbCircle
 10
-4.425885242080465
 20
9.220540451866405
 30
0.0
 40
0.0999999999999942
100
AcDbArc
 50
20.62554810519113
 51
125.9753961421747
  0
ARC
  5
C6
330
70
100
AcDbEntity
  8
INTERIOR v4_Sketch2
100
AcDbCircle
 10
-4.613065753481642
 20
5.150080358869533
 30
0.0
 40
0.3000000000000149
100
AcDbArc
 50
0.0000000000088207
 51
20.62554810519422
  0
LINE
  5
C7
330
70
100
AcDbEntity
  8
INTERIOR v4_Sketch2
100
AcDbLine
 10
-5.313547666920751
 20
10.27519105521824
 30
0.0
 11
-5.313547666915102
 21
9.450088651667162
 31
0.0
  0
LINE
  5
C8
330
70
100
AcDbEntity
  8
INTERIOR v4_Sketch2
100
AcDbLine
 10
-5.013547666922804
 20
10.57519105522029
 30
0.0
 11
-5.013547666924857
 21
10.87519105522029
 31
0.0
  0
LINE
  5
C9
330
70
100
AcDbEntity
  8
INTERIOR v4_Sketch2
100
AcDbLine
 10
5.567414525440106
 20
11.19189593601144
 30
0.0
 11
5.334761305595357
 21
10.87137398583666
 31
0.0
  0
ARC
  5
CA
330
70
100
AcDbEntity
  8
INTERIOR v4_Sketch2
100
AcDbCircle
 10
-4.425885242080457
 20
5.220532159070759
 30
0.0
 40
0.0999999999999942
100
AcDbArc
 50
20.62554810519113
 51
125.9753961421743
  0
ARC
  5
CB
330
70
100
AcDbEntity
  8
INTERIOR v4_Sketch2
100
AcDbCircle
 10
5.485968477298644
 20
2.399991771759954
 30
0.0
 40
0.3000000000000016
100
AcDbArc
 50
90.00000000002849
 51
110.6255481052273
  0
LINE
  5
CC
330
70
100
AcDbEntity
  8
INTERIOR v4_Sketch2
100
AcDbLine
 10
-2.313843197707797
 20
11.70029345870773
 30
0.0
 11
-1.932571760784909
 21
11.19189593594438
 31
0.0
  0
ARC
  5
CD
330
70
100
AcDbEntity
  8
INTERIOR v4_Sketch2
100
AcDbCircle
 10
5.415516677097315
 20
2.587172283161098
 30
0.0
 40
0.0999999999999989
100
AcDbArc
 50
110.6255481052271
 51
215.9753961421972
  0
ARC
  5
CE
330
70
100
AcDbEntity
  8
INTERIOR v4_Sketch2
100
AcDbCircle
 10
-4.613065753481649
 20
9.150088651665178
 30
0.0
 40
0.3000000000000149
100
AcDbArc
 50
0.0000000000088207
 51
20.62554810519422
  0
ARC
  5
CF
330
70
100
AcDbEntity
  8
INTERIOR v4_Sketch2
100
AcDbCircle
 10
-4.613065753481649
 20
9.150088651665178
 30
0.0
 40
0.3000000000000149
100
AcDbArc
 50
0.0000000000088207
 51
20.62554810519422
  0
LINE
  5
D0
330
70
100
AcDbEntity
  8
INTERIOR v4_Sketch2
100
AcDbLine
 10
8.685988228747653
 20
8.700828795971954
 30
0.0
 11
8.685970419620559
 21
8.700828795971954
 31
0.0
  0
LINE
  5
D1
330
70
100
AcDbEntity
  8
INTERIOR v4_Sketch2
100
AcDbLine
 10
2.336437013814698
 20
10.27507856097196
 30
0.0
 11
2.33644619703778
 21
10.87507856083141
 31
0.0
  0
LINE
  5
D2
330
70
100
AcDbEntity
  8
INTERIOR v4_Sketch2
100
AcDbLine
 10
5.186143088790291
 20
11.70029345855374
 30
0.0
 11
5.567414525440106
 21
11.19189593601144
 31
0.0
  0
ARC
  5
D3
330
70
100
AcDbEntity
  8
INTERIOR v4_Sketch2
100
AcDbCircle
 10
2.186446197055353
 20
10.87508085663718
 30
0.0
 40
0.1499999999999959
100
AcDbArc
 50
359.9991230667915
 51
179.999123920565
  0
LINE
  5
D4
330
70
100
AcDbEntity
  8
INTERIOR v4_Sketch2
100
AcDbLine
 10
-4.80514212752524
 20
5.068802909884506
 30
0.0
 11
-5.313547666915091
 21
5.450080358871516
 31
0.0
  0
LINE
  5
D5
330
70
100
AcDbEntity
  8
INTERIOR v4_Sketch2
100
AcDbLine
 10
-4.80514212752524
 20
5.068802909884506
 30
0.0
 11
-4.484629021218903
 21
5.301459091624347
 31
0.0
  0
LINE
  5
D6
330
70
100
AcDbEntity
  8
INTERIOR v4_Sketch2
100
AcDbLine
 10
-5.01354766692075
 20
10.27519105522029
 30
0.0
 11
-5.313547666920751
 21
10.27519105521824
 31
0.0
  0
LINE
  5
D7
330
70
100
AcDbEntity
  8
INTERIOR v4_Sketch2
100
AcDbLine
 10
9.178046793664243
 20
8.331784007346168
 30
0.0
 11
9.686452333054099
 21
7.950506558359159
 31
0.0
  0
ARC
  5
D8
330
70
100
AcDbEntity
  8
INTERIOR v4_Sketch2
100
AcDbCircle
 10
-4.425885242080457
 20
5.220532159070759
 30
0.0
 40
0.0999999999999942
100
AcDbArc
 50
20.62554810519113
 51
125.9753961421743
  0
LINE
  5
D9
330
70
100
AcDbEntity
  8
INTERIOR v4_Sketch2
100
AcDbLine
 10
-4.313083562608646
 20
4.699758121258719
 30
0.0
 11
-4.313065753481556
 21
4.699758121258719
 31
0.0
  0
LINE
  5
DA
330
70
100
AcDbEntity
  8
INTERIOR v4_Sketch2
100
AcDbLine
 10
-4.313083562608653
 20
8.699766414054362
 30
0.0
 11
-4.313065753481563
 21
8.699766414054362
 31
0.0
  0
ARC
  5
DB
330
70
100
AcDbEntity
  8
INTERIOR v4_Sketch2
100
AcDbCircle
 10
-2.084296921957044
 20
10.81263175803316
 30
0.0
 40
0.099999999999995
100
AcDbArc
 50
144.0257021837344
 51
249.3738629457268
  0
LINE
  5
DC
330
70
100
AcDbEntity
  8
INTERIOR v4_Sketch2
100
AcDbLine
 10
9.386452333063864
 20
2.525395862010389
 30
0.0
 11
9.686452333063861
 21
2.525395862012443
 31
0.0
  0
ARC
  5
DD
330
70
100
AcDbEntity
  8
INTERIOR v4_Sketch2
100
AcDbCircle
 10
-2.013843197712233
 20
10.99981154524332
 30
0.0
 40
0.300000000000004
100
AcDbArc
 50
249.3738629457244
 51
270.0000000000082
  0
LINE
  5
DE
330
70
100
AcDbEntity
  8
INTERIOR v4_Sketch2
100
AcDbLine
 10
8.68598822874766
 20
4.700820503176318
 30
0.0
 11
8.685970419620566
 21
4.700820503176318
 31
0.0
  0
LINE
  5
DF
330
70
100
AcDbEntity
  8
INTERIOR v4_Sketch2
100
AcDbLine
 10
-4.313065753481563
 20
8.699766414054362
 30
0.0
 11
-4.313083562608653
 21
8.699766414054362
 31
0.0
  0
LINE
  5
E0
330
70
100
AcDbEntity
  8
INTERIOR v4_Sketch2
100
AcDbLine
 10
-4.313083562608646
 20
4.699758121258719
 30
0.0
 11
-4.313065753481556
 21
4.699771477168555
 31
0.0
  0
ARC
  5
E1
330
70
100
AcDbEntity
  8
INTERIOR v4_Sketch2
100
AcDbCircle
 10
-1.113225434310184
 20
10.99981154524347
 30
0.0
 40
0.3000000000000167
100
AcDbArc
 50
270.0000000000088
 51
290.6255481051941
  0
LINE
  5
E2
330
70
100
AcDbEntity
  8
INTERIOR v4_Sketch2
100
AcDbLine
 10
9.178054810321562
 20
5.069844592040229
 30
0.0
 11
8.857532860216984
 21
5.302497811834275
 31
0.0
  0
LINE
  5
E3
330
70
100
AcDbEntity
  8
INTERIOR v4_Sketch2
100
AcDbLine
 10
-5.013547666938201
 20
2.824878027122676
 30
0.0
 11
-5.013547666940254
 21
3.124878027122676
 31
0.0
  0
LINE
  5
E4
330
70
100
AcDbEntity
  8
INTERIOR v4_Sketch2
100
AcDbLine
 10
9.386452333061811
 20
2.82539586201039
 30
0.0
 11
9.386452333063864
 21
2.525395862010389
 31
0.0
  0
LINE
  5
E5
330
70
100
AcDbEntity
  8
INTERIOR v4_Sketch2
100
AcDbLine
 10
-4.313083562608653
 20
8.699766414054362
 30
0.0
 11
-4.313065753481563
 21
8.699779769964198
 31
0.0
  0
ARC
  5
E6
330
70
100
AcDbEntity
  8
INTERIOR v4_Sketch2
100
AcDbCircle
 10
-2.013843197712233
 20
10.99981154524332
 30
0.0
 40
0.300000000000004
100
AcDbArc
 50
249.3738629457244
 51
270.0000000000082
  0
LINE
  5
E7
330
70
100
AcDbEntity
  8
INTERIOR v4_Sketch2
100
AcDbLine
 10
-4.313083562608646
 20
4.699758121258719
 30
0.0
 11
-4.313065753481556
 21
4.699771477168555
 31
0.0
  0
LINE
  5
E8
330
70
100
AcDbEntity
  8
INTERIOR v4_Sketch2
100
AcDbLine
 10
8.685970419620566
 20
4.700820503176318
 30
0.0
 11
8.68598822874766
 21
4.700820503176318
 31
0.0
  0
LINE
  5
E9
330
70
100
AcDbEntity
  8
INTERIOR v4_Sketch2
100
AcDbLine
 10
9.686452333084915
 20
5.451116028963109
 30
0.0
 11
9.686452333078136
 21
6.000811293661135
 31
0.0
  0
LINE
  5
EA
330
70
100
AcDbEntity
  8
INTERIOR v4_Sketch2
100
AcDbLine
 10
-4.313083562608653
 20
8.699766414054362
 30
0.0
 11
-4.313065753481563
 21
8.699766414054362
 31
0.0
  0
LINE
  5
EB
330
70
100
AcDbEntity
  8
INTERIOR v4_Sketch2
100
AcDbLine
 10
9.686452333059754
 20
3.125395862012447
 30
0.0
 11
9.686452333054106
 21
3.95049826556352
 31
0.0
  0
ARC
  5
EC
330
70
100
AcDbEntity
  8
INTERIOR v4_Sketch2
100
AcDbCircle
 10
8.798790632410344
 20
9.221578046007996
 30
0.0
 40
0.0999999999999919
100
AcDbArc
 50
54.02570218373688
 51
159.373862945727
  0
ARC
  5
ED
330
70
100
AcDbEntity
  8
INTERIOR v4_Sketch2
100
AcDbCircle
 10
-2.084296921957044
 20
10.81263175803316
 30
0.0
 40
0.099999999999995
100
AcDbArc
 50
144.0257021837344
 51
249.3738629457268
  0
ARC
  5
EE
330
70
100
AcDbEntity
  8
INTERIOR v4_Sketch2
100
AcDbCircle
 10
-1.042773634108961
 20
10.81263103384229
 30
0.0
 40
0.0999999999999972
100
AcDbArc
 50
290.6255481051927
 51
35.97539614217438
  0
LINE
  5
EF
330
70
100
AcDbEntity
  8
INTERIOR v4_Sketch2
100
AcDbLine
 10
5.936438614256292
 20
10.69981154524055
 30
0.0
 11
5.936438614256292
 21
10.6998293543627
 31
0.0
  0
LINE
  5
F0
330
70
100
AcDbEntity
  8
INTERIOR v4_Sketch2
100
AcDbLine
 10
8.68598822874766
 20
4.700820503176318
 30
0.0
 11
8.685970419620566
 21
4.700807147266482
 31
0.0
  0
LINE
  5
F1
330
70
100
AcDbEntity
  8
INTERIOR v4_Sketch2
100
AcDbLine
 10
-2.013843197712191
 20
10.69981154524332
 30
0.0
 11
-1.113225434310137
 21
10.69981154524345
 31
0.0
  0
LINE
  5
F2
330
70
100
AcDbEntity
  8
INTERIOR v4_Sketch2
100
AcDbLine
 10
8.68598822874766
 20
4.700820503176318
 30
0.0
 11
8.685970419620566
 21
4.700820503176318
 31
0.0
  0
LINE
  5
F3
330
70
100
AcDbEntity
  8
INTERIOR v4_Sketch2
100
AcDbLine
 10
-4.313083562608646
 20
4.699758121258719
 30
0.0
 11
-4.313065753481556
 21
4.699758121258719
 31
0.0
  0
ARC
  5
F4
330
70
100
AcDbEntity
  8
INTERIOR v4_Sketch2
100
AcDbCircle
 10
8.798790632410351
 20
5.22156975321236
 30
0.0
 40
0.0999999999999919
100
AcDbArc
 50
54.02570218373688
 51
159.3738629457275
  0
LINE
  5
F5
330
70
100
AcDbEntity
  8
INTERIOR v4_Sketch2
100
AcDbLine
 10
-4.313083562608653
 20
8.699766414054362
 30
0.0
 11
-4.313065753481563
 21
8.699766414054362
 31
0.0
  0
ARC
  5
F6
330
70
100
AcDbEntity
  8
INTERIOR v4_Sketch2
100
AcDbCircle
 10
-4.425885966271337
 20
4.179008871222676
 30
0.0
 40
0.099999999999994
100
AcDbArc
 50
234.0257021837352
 51
339.3738629457271
  0
ARC
  5
F7
330
70
100
AcDbEntity
  8
INTERIOR v4_Sketch2
100
AcDbCircle
 10
8.798790632410351
 20
5.22156975321236
 30
0.0
 40
0.0999999999999919
100
AcDbArc
 50
54.02570218373688
 51
159.3738629457275
  0
ARC
  5
F8
330
70
100
AcDbEntity
  8
INTERIOR v4_Sketch2
100
AcDbCircle
 10
8.798790632410351
 20
5.22156975321236
 30
0.0
 40
0.0999999999999919
100
AcDbArc
 50
54.02570218373688
 51
159.3738629457275
  0
LINE
  5
F9
330
70
100
AcDbEntity
  8
INTERIOR v4_Sketch2
100
AcDbLine
 10
-4.313083562608653
 20
8.699766414054362
 30
0.0
 11
-4.313065753481563
 21
8.699766414054362
 31
0.0
  0
ARC
  5
FA
330
70
100
AcDbEntity
  8
INTERIOR v4_Sketch2
100
AcDbCircle
 10
8.798790632410351
 20
5.22156975321236
 30
0.0
 40
0.0999999999999919
100
AcDbArc
 50
54.02570218373688
 51
159.3738629457275
  0
LINE
  5
FB
330
70
100
AcDbEntity
  8
INTERIOR v4_Sketch2
100
AcDbLine
 10
-5.013547666936148
 20
2.524878027122676
 30
0.0
 11
-5.313547666936148
 21
2.524878027120623
 31
0.0
  0
LINE
  5
FC
330
70
100
AcDbEntity
  8
INTERIOR v4_Sketch2
100
AcDbLine
 10
8.685970419620566
 20
4.700820503176318
 30
0.0
 11
8.68598822874766
 21
4.700820503176318
 31
0.0
  0
ARC
  5
FD
330
70
100
AcDbEntity
  8
INTERIOR v4_Sketch2
100
AcDbCircle
 10
8.985970419620507
 20
5.151116028967551
 30
0.0
 40
0.3000000000000067
100
AcDbArc
 50
159.373862945725
 51
180.0000000000081
  0
ARC
  5
FE
330
70
100
AcDbEntity
  8
INTERIOR v4_Sketch2
100
AcDbCircle
 10
-1.042773634108961
 20
10.81263103384229
 30
0.0
 40
0.0999999999999972
100
AcDbArc
 50
290.6255481051927
 51
35.97539614217438
  0
LINE
  5
FF
330
70
100
AcDbEntity
  8
INTERIOR v4_Sketch2
100
AcDbLine
 10
2.036446197072919
 20
10.87508315244295
 30
0.0
 11
2.036437013849837
 21
10.27508315258351
 31
0.0
  0
LINE
  5
100
330
70
100
AcDbEntity
  8
INTERIOR v4_Sketch2
100
AcDbLine
 10
-2.013843197712191
 20
10.69981154524332
 30
0.0
 11
-1.113225434310137
 21
10.69981154524345
 31
0.0
  0
ARC
  5
101
330
70
100
AcDbEntity
  8
INTERIOR v4_Sketch2
100
AcDbCircle
 10
8.9859704196205
 20
9.151124321763186
 30
0.0
 40
0.3000000000000074
100
AcDbArc
 50
159.3738629457247
 51
180.0000000000084
  0
LINE
  5
102
330
70
100
AcDbEntity
  8
INTERIOR v4_Sketch2
100
AcDbLine
 10
-1.563547671921
 20
10.69982935437047
 30
0.0
 11
-1.563547671921
 21
10.69981154524338
 31
0.0
  0
ARC
  5
103
330
70
100
AcDbEntity
  8
INTERIOR v4_Sketch2
100
AcDbCircle
 10
8.798790632410344
 20
9.221578046007996
 30
0.0
 40
0.0999999999999919
100
AcDbArc
 50
54.02570218373688
 51
159.373862945727
  0
LINE
  5
104
330
70
100
AcDbEntity
  8
INTERIOR v4_Sketch2
100
AcDbLine
 10
-4.313083562608646
 20
4.699758121258719
 30
0.0
 11
-4.313065753481556
 21
4.699758121258719
 31
0.0
  0
LINE
  5
105
330
70
100
AcDbEntity
  8
INTERIOR v4_Sketch2
100
AcDbLine
 10
-2.313843197707797
 20
11.70029345870773
 30
0.0
 11
-1.932571760784909
 21
11.19189593594438
 31
0.0
  0
ARC
  5
106
330
70
100
AcDbEntity
  8
INTERIOR v4_Sketch2
100
AcDbCircle
 10
8.9859704196205
 20
9.151124321763186
 30
0.0
 40
0.3000000000000074
100
AcDbArc
 50
159.3738629457247
 51
180.0000000000084
  0
LINE
  5
107
330
70
100
AcDbEntity
  8
INTERIOR v4_Sketch2
100
AcDbLine
 10
-1.932571760784909
 20
11.19189593594438
 30
0.0
 11
-2.165224980578958
 21
10.8713739858398
 31
0.0
  0
LINE
  5
108
330
70
100
AcDbEntity
  8
INTERIOR v4_Sketch2
100
AcDbLine
 10
-1.194502883295214
 20
11.19188791928707
 30
0.0
 11
-0.9618467015553733
 21
10.87137481298073
 31
0.0
  0
ARC
  5
109
330
70
100
AcDbEntity
  8
INTERIOR v4_Sketch2
100
AcDbCircle
 10
8.798789908219468
 20
4.180046465364276
 30
0.0
 40
0.0999999999999906
100
AcDbArc
 50
200.6255481051914
 51
305.9753961421747
  0
LINE
  5
10A
330
70
100
AcDbEntity
  8
INTERIOR v4_Sketch2
100
AcDbLine
 10
-4.313083562608653
 20
8.699766414054362
 30
0.0
 11
-4.313065753481563
 21
8.699779769964198
 31
0.0
  0
ARC
  5
10B
330
70
100
AcDbEntity
  8
INTERIOR v4_Sketch2
100
AcDbCircle
 10
-4.613065753481492
 20
4.249462595467487
 30
0.0
 40
0.300000000000004
100
AcDbArc
 50
339.3738629457244
 51
0.0000000000081422
  0
LINE
  5
10C
330
70
100
AcDbEntity
  8
INTERIOR v4_Sketch2
100
AcDbLine
 10
8.68598822874766
 20
4.700820503176318
 30
0.0
 11
8.685970419620566
 21
4.700820503176318
 31
0.0
  0
ARC
  5
10D
330
70
100
AcDbEntity
  8
INTERIOR v4_Sketch2
100
AcDbCircle
 10
8.798789908219468
 20
4.180046465364276
 30
0.0
 40
0.0999999999999906
100
AcDbArc
 50
200.6255481051914
 51
305.9753961421747
  0
LINE
  5
10E
330
70
100
AcDbEntity
  8
INTERIOR v4_Sketch2
100
AcDbLine
 10
9.178054810321555
 20
9.069852884835862
 30
0.0
 11
8.857532860216977
 21
9.302506104629911
 31
0.0
  0
LINE
  5
10F
330
70
100
AcDbEntity
  8
INTERIOR v4_Sketch2
100
AcDbLine
 10
-5.313547666930507
 20
11.70029345876932
 30
0.0
 11
-2.313843197707797
 21
11.70029345870773
 31
0.0
  0
LINE
  5
110
330
70
100
AcDbEntity
  8
INTERIOR v4_Sketch2
100
AcDbLine
 10
8.685970419620566
 20
4.700820503176318
 30
0.0
 11
8.68598822874766
 21
4.700820503176318
 31
0.0
  0
LINE
  5
111
330
70
100
AcDbEntity
  8
INTERIOR v4_Sketch2
100
AcDbLine
 10
9.178046793664243
 20
8.331784007346168
 30
0.0
 11
9.686452333054099
 21
7.950506558359159
 31
0.0
  0
LINE
  5
112
330
70
100
AcDbEntity
  8
INTERIOR v4_Sketch2
100
AcDbLine
 10
9.68645233306951
 20
1.700293458461367
 30
0.0
 11
9.686452333063861
 21
2.525395862012443
 31
0.0
  0
LINE
  5
113
330
70
100
AcDbEntity
  8
INTERIOR v4_Sketch2
100
AcDbLine
 10
-1.194502883295214
 20
11.19188791928707
 30
0.0
 11
-0.813225434308201
 21
11.70029345867692
 31
0.0
  0
ARC
  5
114
330
70
100
AcDbEntity
  8
INTERIOR v4_Sketch2
100
AcDbCircle
 10
8.798790632410344
 20
9.221578046007996
 30
0.0
 40
0.0999999999999919
100
AcDbArc
 50
54.02570218373688
 51
159.373862945727
  0
LINE
  5
115
330
70
100
AcDbEntity
  8
INTERIOR v4_Sketch2
100
AcDbLine
 10
9.686452333084908
 20
9.451124321758745
 30
0.0
 11
9.178054810321555
 21
9.069852884835862
 31
0.0
  0
ARC
  5
116
330
70
100
AcDbEntity
  8
INTERIOR v4_Sketch2
100
AcDbCircle
 10
2.186437013832268
 20
10.27508085677774
 30
0.0
 40
0.1499999999999995
100
AcDbArc
 50
179.9991230667914
 51
359.999122213018
  0
LINE
  5
117
330
70
100
AcDbEntity
  8
INTERIOR v4_Sketch2
100
AcDbLine
 10
-4.313065753481563
 20
8.699766414054362
 30
0.0
 11
-4.313083562608653
 21
8.699766414054362
 31
0.0
  0
LINE
  5
118
330
70
100
AcDbEntity
  8
INTERIOR v4_Sketch2
100
AcDbLine
 10
-5.3135476669459
 20
3.949462595471927
 30
0.0
 11
-4.805150144182551
 21
4.33073403239481
 31
0.0
  0
ARC
  5
119
330
70
100
AcDbEntity
  8
INTERIOR v4_Sketch2
100
AcDbCircle
 10
-4.425885966271337
 20
4.179008871222676
 30
0.0
 40
0.099999999999994
100
AcDbArc
 50
234.0257021837352
 51
339.3738629457271
  0
LINE
  5
11A
330
70
100
AcDbEntity
  8
INTERIOR v4_Sketch2
100
AcDbLine
 10
-4.805150144182551
 20
4.33073403239481
 30
0.0
 11
-4.484628194077973
 21
4.098080812600762
 31
0.0
  0
LINE
  5
11B
330
70
100
AcDbEntity
  8
INTERIOR v4_Sketch2
100
AcDbLine
 10
-1.113412935433636
 20
2.700514180055804
 30
0.0
 11
-2.014030698836009
 21
2.700514180055887
 31
0.0
  0
LINE
  5
11C
330
70
100
AcDbEntity
  8
INTERIOR v4_Sketch2
100
AcDbLine
 10
-1.194684372356558
 20
2.208429789360919
 30
0.0
 11
-0.9620311525669116
 21
2.52895173945928
 31
0.0
  0
ARC
  5
11D
330
70
100
AcDbEntity
  8
INTERIOR v4_Sketch2
100
AcDbCircle
 10
8.798790632410344
 20
9.221578046007996
 30
0.0
 40
0.0999999999999919
100
AcDbArc
 50
54.02570218373688
 51
159.373862945727
  0
LINE
  5
11E
330
70
100
AcDbEntity
  8
INTERIOR v4_Sketch2
100
AcDbLine
 10
9.178054810321562
 20
5.069844592040229
 30
0.0
 11
8.857532860216984
 21
5.302497811834275
 31
0.0
  0
LINE
  5
11F
330
70
100
AcDbEntity
  8
INTERIOR v4_Sketch2
100
AcDbLine
 10
-5.013547666940254
 20
3.124878027122676
 30
0.0
 11
-5.313547666940255
 21
3.124878027120622
 31
0.0
  0
LINE
  5
120
330
70
100
AcDbEntity
  8
INTERIOR v4_Sketch2
100
AcDbLine
 10
-1.932753249852094
 20
2.208437806013542
 30
0.0
 11
-2.314030698837328
 21
1.700032266626897
 31
0.0
  0
LINE
  5
121
330
70
100
AcDbEntity
  8
INTERIOR v4_Sketch2
100
AcDbLine
 10
9.686452333084915
 20
5.451116028963109
 30
0.0
 11
9.178054810321562
 21
5.069844592040229
 31
0.0
  0
LINE
  5
122
330
70
100
AcDbEntity
  8
INTERIOR v4_Sketch2
100
AcDbLine
 10
-4.805150144182551
 20
4.33073403239481
 30
0.0
 11
-4.484628194077973
 21
4.098080812600762
 31
0.0
  0
LINE
  5
123
330
70
100
AcDbEntity
  8
INTERIOR v4_Sketch2
100
AcDbLine
 10
9.686452333084908
 20
9.451124321758745
 30
0.0
 11
9.178054810321555
 21
9.069852884835862
 31
0.0
  0
LINE
  5
124
330
70
100
AcDbEntity
  8
INTERIOR v4_Sketch2
100
AcDbLine
 10
9.386452333069506
 20
6.700811293657435
 30
0.0
 11
9.386452333078139
 21
6.000811293657436
 31
0.0
  0
LINE
  5
125
330
70
100
AcDbEntity
  8
INTERIOR v4_Sketch2
100
AcDbLine
 10
9.178054810321562
 20
5.069844592040229
 30
0.0
 11
8.857532860216984
 21
5.302497811834275
 31
0.0
  0
LINE
  5
126
330
70
100
AcDbEntity
  8
INTERIOR v4_Sketch2
100
AcDbLine
 10
9.386452333077208
 20
10.57570889010799
 30
0.0
 11
9.386452333075155
 21
10.87570889010799
 31
0.0
  0
LINE
  5
127
330
70
100
AcDbEntity
  8
INTERIOR v4_Sketch2
100
AcDbLine
 10
9.178054810321555
 20
9.069852884835862
 30
0.0
 11
8.857532860216977
 21
9.302506104629911
 31
0.0
  0
LINE
  5
128
330
70
100
AcDbEntity
  8
INTERIOR v4_Sketch2
100
AcDbLine
 10
9.17804679366425
 20
4.33177571455053
 30
0.0
 11
9.686452333054106
 21
3.95049826556352
 31
0.0
  0
LINE
  5
129
330
70
100
AcDbEntity
  8
INTERIOR v4_Sketch2
100
AcDbLine
 10
9.178054810321555
 20
9.069852884835862
 30
0.0
 11
8.857532860216977
 21
9.302506104629911
 31
0.0
  0
LINE
  5
12A
330
70
100
AcDbEntity
  8
INTERIOR v4_Sketch2
100
AcDbLine
 10
-5.313547666936148
 20
2.524878027120623
 30
0.0
 11
-5.313547666930503
 21
1.700293458769319
 31
0.0
  0
LINE
  5
12B
330
70
100
AcDbEntity
  8
INTERIOR v4_Sketch2
100
AcDbLine
 10
9.686452333084915
 20
5.451116028963109
 30
0.0
 11
9.178054810321562
 21
5.069844592040229
 31
0.0
  0
LINE
  5
12C
330
70
100
AcDbEntity
  8
INTERIOR v4_Sketch2
100
AcDbLine
 10
8.68598822874766
 20
4.700820503176318
 30
0.0
 11
8.685970419620566
 21
4.700807147266482
 31
0.0
  0
LINE
  5
12D
330
70
100
AcDbEntity
  8
INTERIOR v4_Sketch2
100
AcDbLine
 10
9.17804679366425
 20
4.33177571455053
 30
0.0
 11
9.686452333054106
 21
3.95049826556352
 31
0.0
  0
ARC
  5
12E
330
70
100
AcDbEntity
  8
INTERIOR v4_Sketch2
100
AcDbCircle
 10
8.985970419620507
 20
5.151116028967551
 30
0.0
 40
0.3000000000000067
100
AcDbArc
 50
159.373862945725
 51
180.0000000000081
  0
LINE
  5
12F
330
70
100
AcDbEntity
  8
INTERIOR v4_Sketch2
100
AcDbLine
 10
9.386452333075155
 20
10.87570889010799
 30
0.0
 11
9.686452333075152
 21
10.87570889011004
 31
0.0
  0
ARC
  5
130
330
70
100
AcDbEntity
  8
INTERIOR v4_Sketch2
100
AcDbCircle
 10
8.985970419620656
 20
4.250498265565503
 30
0.0
 40
0.3000000000000185
100
AcDbArc
 50
180.0000000000088
 51
200.6255481051941
  0
LINE
  5
131
330
70
100
AcDbEntity
  8
INTERIOR v4_Sketch2
100
AcDbLine
 10
9.386452333061811
 20
2.82539586201039
 30
0.0
 11
9.386452333059757
 21
3.125395862010391
 31
0.0
  0
LINE
  5
132
330
70
100
AcDbEntity
  8
INTERIOR v4_Sketch2
100
AcDbLine
 10
9.386452333078139
 20
6.000811293657436
 30
0.0
 11
9.686452333078136
 21
6.000811293661135
 31
0.0
  0
LINE
  5
133
330
70
100
AcDbEntity
  8
INTERIOR v4_Sketch2
100
AcDbLine
 10
-5.013547666938201
 20
2.824878027122676
 30
0.0
 11
-5.013547666936148
 21
2.524878027122676
 31
0.0
  0
LINE
  5
134
330
70
100
AcDbEntity
  8
INTERIOR v4_Sketch2
100
AcDbLine
 10
9.686452333084908
 20
9.451124321758745
 30
0.0
 11
9.178054810321555
 21
9.069852884835862
 31
0.0
  0
LINE
  5
135
330
70
100
AcDbEntity
  8
INTERIOR v4_Sketch2
100
AcDbLine
 10
-5.3135476669459
 20
3.949462595471927
 30
0.0
 11
-4.805150144182551
 21
4.33073403239481
 31
0.0
  0
LINE
  5
136
330
70
100
AcDbEntity
  8
INTERIOR v4_Sketch2
100
AcDbLine
 10
9.17804679366425
 20
4.33177571455053
 30
0.0
 11
8.857533687357914
 21
4.099119532810689
 31
0.0
  0
LINE
  5
137
330
70
100
AcDbEntity
  8
INTERIOR v4_Sketch2
100
AcDbLine
 10
9.386452333079262
 20
10.27570889010799
 30
0.0
 11
9.686452333079259
 21
10.27570889011005
 31
0.0
  0
LINE
  5
138
330
70
100
AcDbEntity
  8
INTERIOR v4_Sketch2
100
AcDbLine
 10
-4.313083562608646
 20
4.699758121258719
 30
0.0
 11
-4.313065753481556
 21
4.699771477168555
 31
0.0
  0
ARC
  5
139
330
70
100
AcDbEntity
  8
INTERIOR v4_Sketch2
100
AcDbCircle
 10
8.985970419620507
 20
5.151116028967551
 30
0.0
 40
0.3000000000000067
100
AcDbArc
 50
159.373862945725
 51
180.0000000000081
  0
ARC
  5
13A
330
70
100
AcDbEntity
  8
INTERIOR v4_Sketch2
100
AcDbCircle
 10
8.985970419620507
 20
5.151116028967551
 30
0.0
 40
0.3000000000000067
100
AcDbArc
 50
159.373862945725
 51
180.0000000000081
  0
LINE
  5
13B
330
70
100
AcDbEntity
  8
INTERIOR v4_Sketch2
100
AcDbLine
 10
9.386452333059757
 20
3.125395862010391
 30
0.0
 11
9.686452333059754
 21
3.125395862012447
 31
0.0
  0
ARC
  5
13C
330
70
100
AcDbEntity
  8
INTERIOR v4_Sketch2
100
AcDbCircle
 10
-4.425885966271337
 20
4.179008871222676
 30
0.0
 40
0.099999999999994
100
AcDbArc
 50
234.0257021837352
 51
339.3738629457271
  0
LINE
  5
13D
330
70
100
AcDbEntity
  8
INTERIOR v4_Sketch2
100
AcDbLine
 10
9.386452333077208
 20
10.57570889010799
 30
0.0
 11
9.386452333079262
 21
10.27570889010799
 31
0.0
  0
LINE
  5
13E
330
70
100
AcDbEntity
  8
INTERIOR v4_Sketch2
100
AcDbLine
 10
9.17804679366425
 20
4.33177571455053
 30
0.0
 11
8.857533687357914
 21
4.099119532810689
 31
0.0
  0
ARC
  5
13F
330
70
100
AcDbEntity
  8
INTERIOR v4_Sketch2
100
AcDbCircle
 10
8.798789908219468
 20
4.180046465364276
 30
0.0
 40
0.0999999999999906
100
AcDbArc
 50
200.6255481051914
 51
305.9753961421747
  0
LINE
  5
140
330
70
100
AcDbEntity
  8
INTERIOR v4_Sketch2
100
AcDbLine
 10
-5.3135476669459
 20
3.949462595471927
 30
0.0
 11
-5.313547666940255
 21
3.124878027120622
 31
0.0
  0
ARC
  5
141
330
70
100
AcDbEntity
  8
INTERIOR v4_Sketch2
100
AcDbCircle
 10
8.9859704196205
 20
9.151124321763186
 30
0.0
 40
0.3000000000000074
100
AcDbArc
 50
159.3738629457247
 51
180.0000000000084
  0
LINE
  5
142
330
70
100
AcDbEntity
  8
INTERIOR v4_Sketch2
100
AcDbLine
 10
9.686452333084915
 20
5.451116028963109
 30
0.0
 11
9.178054810321562
 21
5.069844592040229
 31
0.0
  0
LINE
  5
143
330
70
100
AcDbEntity
  8
INTERIOR v4_Sketch2
100
AcDbLine
 10
-5.3135476669459
 20
3.949462595471927
 30
0.0
 11
-4.805150144182551
 21
4.33073403239481
 31
0.0
  0
ARC
  5
144
330
70
100
AcDbEntity
  8
INTERIOR v4_Sketch2
100
AcDbCircle
 10
-1.042959211188819
 20
2.587693967265934
 30
0.0
 40
0.0999999999999987
100
AcDbArc
 50
324.0257021837246
 51
69.37386294571232
  0
LINE
  5
145
330
70
100
AcDbEntity
  8
INTERIOR v4_Sketch2
100
AcDbLine
 10
-4.805150144182551
 20
4.33073403239481
 30
0.0
 11
-4.484628194077973
 21
4.098080812600762
 31
0.0
  0
LINE
  5
146
330
70
100
AcDbEntity
  8
INTERIOR v4_Sketch2
100
AcDbLine
 10
9.17804679366425
 20
4.33177571455053
 30
0.0
 11
9.686452333054106
 21
3.95049826556352
 31
0.0
  0
LINE
  5
147
330
70
100
AcDbEntity
  8
INTERIOR v4_Sketch2
100
AcDbLine
 10
-4.313065753481556
 20
4.699758121258719
 30
0.0
 11
-4.313083562608646
 21
4.699758121258719
 31
0.0
  0
LINE
  5
148
330
70
100
AcDbEntity
  8
INTERIOR v4_Sketch2
100
AcDbLine
 10
9.17804679366425
 20
4.33177571455053
 30
0.0
 11
8.857533687357914
 21
4.099119532810689
 31
0.0
  0
ARC
  5
149
330
70
100
AcDbEntity
  8
INTERIOR v4_Sketch2
100
AcDbCircle
 10
8.985970419620656
 20
4.250498265565503
 30
0.0
 40
0.3000000000000185
100
AcDbArc
 50
180.0000000000088
 51
200.6255481051941
  0
LINE
  5
14A
330
70
100
AcDbEntity
  8
INTERIOR v4_Sketch2
100
AcDbLine
 10
8.685970419620566
 20
4.700820503176318
 30
0.0
 11
8.68598822874766
 21
4.700820503176318
 31
0.0
  0
LINE
  5
14B
330
70
100
AcDbEntity
  8
INTERIOR v4_Sketch2
100
AcDbLine
 10
9.686452333084908
 20
9.451124321758745
 30
0.0
 11
9.686452333079259
 21
10.27570889011005
 31
0.0
  0
LINE
  5
14C
330
70
100
AcDbEntity
  8
INTERIOR v4_Sketch2
100
AcDbLine
 10
9.686452333075152
 20
10.87570889011004
 30
0.0
 11
9.686452333069496
 21
11.70029345846135
 31
0.0
  0
LINE
  5
14D
330
70
100
AcDbEntity
  8
INTERIOR v4_Sketch2
100
AcDbLine
 10
9.178054810321562
 20
5.069844592040229
 30
0.0
 11
8.857532860216984
 21
5.302497811834275
 31
0.0
  0
ARC
  5
14E
330
70
100
AcDbEntity
  8
INTERIOR v4_Sketch2
100
AcDbCircle
 10
-2.084482499037243
 20
2.587694691457082
 30
0.0
 40
0.0999999999999971
100
AcDbArc
 50
110.6255481051753
 51
215.9753961421597
  0
ARC
  5
14F
330
70
100
AcDbEntity
  8
INTERIOR v4_Sketch2
100
AcDbCircle
 10
8.985970419620656
 20
4.250498265565503
 30
0.0
 40
0.3000000000000185
100
AcDbArc
 50
180.0000000000088
 51
200.6255481051941
  0
ARC
  5
150
330
70
100
AcDbEntity
  8
INTERIOR v4_Sketch2
100
AcDbCircle
 10
-1.113412935433665
 20
2.400514180055799
 30
0.0
 40
0.2999999999999996
100
AcDbArc
 50
69.3738629457118
 51
89.99999999999461
  0
ARC
  5
151
330
70
100
AcDbEntity
  8
INTERIOR v4_Sketch2
100
AcDbCircle
 10
-4.425885966271337
 20
4.179008871222676
 30
0.0
 40
0.099999999999994
100
AcDbArc
 50
234.0257021837352
 51
339.3738629457271
  0
LINE
  5
152
330
70
100
AcDbEntity
  8
INTERIOR v4_Sketch2
100
AcDbLine
 10
8.68598822874766
 20
4.700820503176318
 30
0.0
 11
8.685970419620566
 21
4.700807147266482
 31
0.0
  0
LINE
  5
153
330
70
100
AcDbEntity
  8
INTERIOR v4_Sketch2
100
AcDbLine
 10
9.178054810321555
 20
9.069852884835862
 30
0.0
 11
8.857532860216977
 21
9.302506104629911
 31
0.0
  0
LINE
  5
154
330
70
100
AcDbEntity
  8
INTERIOR v4_Sketch2
100
AcDbLine
 10
9.686452333084915
 20
5.451116028963109
 30
0.0
 11
9.178054810321562
 21
5.069844592040229
 31
0.0
  0
LINE
  5
155
330
70
100
AcDbEntity
  8
INTERIOR v4_Sketch2
100
AcDbLine
 10
-1.932753249852094
 20
2.208437806013542
 30
0.0
 11
-2.165409431590845
 21
2.528950912318657
 31
0.0
  0
LINE
  5
156
330
70
100
AcDbEntity
  8
INTERIOR v4_Sketch2
100
AcDbLine
 10
9.17804679366425
 20
4.33177571455053
 30
0.0
 11
8.857533687357914
 21
4.099119532810689
 31
0.0
  0
LINE
  5
157
330
70
100
AcDbEntity
  8
INTERIOR v4_Sketch2
100
AcDbLine
 10
-4.805150144182551
 20
4.33073403239481
 30
0.0
 11
-4.484628194077973
 21
4.098080812600762
 31
0.0
  0
ARC
  5
158
330
70
100
AcDbEntity
  8
INTERIOR v4_Sketch2
100
AcDbCircle
 10
8.985970419620656
 20
4.250498265565503
 30
0.0
 40
0.3000000000000185
100
AcDbArc
 50
180.0000000000088
 51
200.6255481051941
  0
LINE
  5
159
330
70
100
AcDbEntity
  8
INTERIOR v4_Sketch2
100
AcDbLine
 10
8.68598822874766
 20
4.700820503176318
 30
0.0
 11
8.685970419620566
 21
4.700807147266482
 31
0.0
  0
ARC
  5
15A
330
70
100
AcDbEntity
  8
INTERIOR v4_Sketch2
100
AcDbCircle
 10
-2.014030698836052
 20
2.400514180055883
 30
0.0
 40
0.3000000000000043
100
AcDbArc
 50
89.99999999999186
 51
110.6255481051816
  0
LINE
  5
15B
330
70
100
AcDbEntity
  8
INTERIOR v4_Sketch2
100
AcDbLine
 10
8.68598822874766
 20
4.700820503176318
 30
0.0
 11
8.685970419620566
 21
4.700820503176318
 31
0.0
  0
ARC
  5
15C
330
70
100
AcDbEntity
  8
INTERIOR v4_Sketch2
100
AcDbCircle
 10
8.798789908219468
 20
4.180046465364276
 30
0.0
 40
0.0999999999999906
100
AcDbArc
 50
200.6255481051914
 51
305.9753961421747
  0
LINE
  5
15D
330
70
100
AcDbEntity
  8
INTERIOR v4_Sketch2
100
AcDbLine
 10
-0.8134129354419741
 20
1.700032266621126
 30
0.0
 11
-1.194684372356558
 21
2.208429789360919
 31
0.0
  0
LINE
  5
15E
330
70
100
AcDbEntity
  8
INTERIOR v4_Sketch2
100
AcDbLine
 10
-5.313547666945911
 20
7.949470888267571
 30
0.0
 11
-4.805150144182558
 21
8.330742325190453
 31
0.0
  0
ARC
  5
15F
330
70
100
AcDbEntity
  8
INTERIOR v4_Sketch2
100
AcDbCircle
 10
2.186327575632848
 20
3.124767830355111
 30
0.0
 40
0.1499999999999995
100
AcDbArc
 50
359.9991230667915
 51
179.9991222130178
  0
LINE
  5
160
330
70
100
AcDbEntity
  8
INTERIOR v4_Sketch2
100
AcDbLine
 10
-4.805150144182558
 20
8.330742325190453
 30
0.0
 11
-4.484628194077981
 21
8.098089105396406
 31
0.0
  0
LINE
  5
161
330
70
100
AcDbEntity
  8
INTERIOR v4_Sketch2
100
AcDbLine
 10
8.685988228747653
 20
8.700828795971954
 30
0.0
 11
8.685970419620559
 21
8.700815440062118
 31
0.0
  0
LINE
  5
162
330
70
100
AcDbEntity
  8
INTERIOR v4_Sketch2
100
AcDbLine
 10
-5.313547666945911
 20
7.949470888267571
 30
0.0
 11
-4.805150144182558
 21
8.330742325190453
 31
0.0
  0
LINE
  5
163
330
70
100
AcDbEntity
  8
INTERIOR v4_Sketch2
100
AcDbLine
 10
9.178046793664243
 20
8.331784007346168
 30
0.0
 11
9.686452333054099
 21
7.950506558359159
 31
0.0
  0
LINE
  5
164
330
70
100
AcDbEntity
  8
INTERIOR v4_Sketch2
100
AcDbLine
 10
-4.805150144182558
 20
8.330742325190453
 30
0.0
 11
-4.484628194077981
 21
8.098089105396406
 31
0.0
  0
ARC
  5
165
330
70
100
AcDbEntity
  8
INTERIOR v4_Sketch2
100
AcDbCircle
 10
-4.613065753481492
 20
4.249462595467487
 30
0.0
 40
0.300000000000004
100
AcDbArc
 50
339.3738629457244
 51
0.0000000000081422
  0
LINE
  5
166
330
70
100
AcDbEntity
  8
INTERIOR v4_Sketch2
100
AcDbLine
 10
-5.313547666945911
 20
7.949470888267571
 30
0.0
 11
-5.313547666939133
 21
7.399775623569543
 31
0.0
  0
LINE
  5
167
330
70
100
AcDbEntity
  8
INTERIOR v4_Sketch2
100
AcDbLine
 10
-5.3135476669459
 20
3.949462595471927
 30
0.0
 11
-4.805150144182551
 21
4.33073403239481
 31
0.0
  0
LINE
  5
168
330
70
100
AcDbEntity
  8
INTERIOR v4_Sketch2
100
AcDbLine
 10
5.486143088462149
 20
10.69981154524027
 30
0.0
 11
6.386760851862703
 21
10.69981154524084
 31
0.0
  0
LINE
  5
169
330
70
100
AcDbEntity
  8
INTERIOR v4_Sketch2
100
AcDbLine
 10
-1.563547671921
 20
10.69981154524338
 30
0.0
 11
-1.563547671921
 21
10.69982935437047
 31
0.0
  0
ARC
  5
16A
330
70
100
AcDbEntity
  8
INTERIOR v4_Sketch2
100
AcDbCircle
 10
2.186318392409766
 20
2.524767830495664
 30
0.0
 40
0.150000000000003
100
AcDbArc
 50
179.9991230667914
 51
359.9991222130177
  0
LINE
  5
16B
330
70
100
AcDbEntity
  8
INTERIOR v4_Sketch2
100
AcDbLine
 10
8.685970419620495
 20
9.151124321763143
 30
0.0
 11
8.68597041962063
 21
8.250506558361095
 31
0.0
  0
LINE
  5
16C
330
70
100
AcDbEntity
  8
INTERIOR v4_Sketch2
100
AcDbLine
 10
-4.313065753481556
 20
4.699758121258719
 30
0.0
 11
-4.313083562608646
 21
4.699758121258719
 31
0.0
  0
ARC
  5
16D
330
70
100
AcDbEntity
  8
INTERIOR v4_Sketch2
100
AcDbCircle
 10
5.4156893642173
 20
10.81263175803006
 30
0.0
 40
0.0999999999999951
100
AcDbArc
 50
144.0257021837621
 51
249.3738629457717
  0
LINE
  5
16E
330
70
100
AcDbEntity
  8
INTERIOR v4_Sketch2
100
AcDbLine
 10
-1.563547671921
 20
10.69982935437047
 30
0.0
 11
-1.563534316011164
 21
10.69981154524338
 31
0.0
  0
LINE
  5
16F
330
70
100
AcDbEntity
  8
INTERIOR v4_Sketch2
100
AcDbLine
 10
6.305483402882103
 20
11.19188791927773
 30
0.0
 11
6.686760851827429
 21
11.70029345852293
 31
0.0
  0
ARC
  5
170
330
70
100
AcDbEntity
  8
INTERIOR v4_Sketch2
100
AcDbCircle
 10
5.486143088461961
 20
10.99981154524027
 30
0.0
 40
0.3000000000000016
100
AcDbArc
 50
249.37386294577
 51
270.0000000000359
  0
ARC
  5
171
330
70
100
AcDbEntity
  8
INTERIOR v4_Sketch2
100
AcDbCircle
 10
-4.6130657534815
 20
8.249470888263129
 30
0.0
 40
0.3000000000000034
100
AcDbArc
 50
339.3738629457248
 51
0.0000000000081422
  0
LINE
  5
172
330
70
100
AcDbEntity
  8
INTERIOR v4_Sketch2
100
AcDbLine
 10
-1.194502883295214
 20
11.19188791928707
 30
0.0
 11
-0.9618467015553733
 21
10.87137481298073
 31
0.0
  0
ARC
  5
173
330
70
100
AcDbEntity
  8
INTERIOR v4_Sketch2
100
AcDbCircle
 10
-4.6130657534815
 20
8.249470888263129
 30
0.0
 40
0.3000000000000034
100
AcDbArc
 50
339.3738629457248
 51
0.0000000000081422
  0
LINE
  5
174
330
70
100
AcDbEntity
  8
INTERIOR v4_Sketch2
100
AcDbLine
 10
5.567245926283497
 20
2.207915397716704
 30
0.0
 11
5.334589744543748
 21
2.528428504022617
 31
0.0
  0
LINE
  5
175
330
70
100
AcDbEntity
  8
INTERIOR v4_Sketch2
100
AcDbLine
 10
-4.313083562608653
 20
8.699766414054362
 30
0.0
 11
-4.313065753481563
 21
8.699779769964198
 31
0.0
  0
LINE
  5
176
330
70
100
AcDbEntity
  8
INTERIOR v4_Sketch2
100
AcDbLine
 10
-1.563547671921
 20
10.69982935437047
 30
0.0
 11
-1.563547671921
 21
10.69981154524338
 31
0.0
  0
LINE
  5
177
330
70
100
AcDbEntity
  8
INTERIOR v4_Sketch2
100
AcDbLine
 10
-1.563708461224511
 20
2.700496370928122
 30
0.0
 11
-1.563721817134823
 21
2.700514180055845
 31
0.0
  0
ARC
  5
178
330
70
100
AcDbEntity
  8
INTERIOR v4_Sketch2
100
AcDbCircle
 10
8.985970419620649
 20
8.250506558361141
 30
0.0
 40
0.3000000000000185
100
AcDbArc
 50
180.0000000000088
 51
200.625548105194
  0
LINE
  5
179
330
70
100
AcDbEntity
  8
INTERIOR v4_Sketch2
100
AcDbLine
 10
6.386586240700982
 20
2.699991771760404
 30
0.0
 11
5.485968477298495
 21
2.699991771759956
 31
0.0
  0
ARC
  5
17A
330
70
100
AcDbEntity
  8
INTERIOR v4_Sketch2
100
AcDbCircle
 10
-4.425885966271344
 20
8.17901716401832
 30
0.0
 40
0.099999999999994
100
AcDbArc
 50
234.0257021837352
 51
339.3738629457276
  0
LINE
  5
17B
330
70
100
AcDbEntity
  8
INTERIOR v4_Sketch2
100
AcDbLine
 10
8.685970419620559
 20
8.700828795971954
 30
0.0
 11
8.685988228747653
 21
8.700828795971954
 31
0.0
  0
LINE
  5
17C
330
70
100
AcDbEntity
  8
INTERIOR v4_Sketch2
100
AcDbLine
 10
6.686586240684071
 20
1.699509858324785
 30
0.0
 11
6.3053148037759
 21
2.207907381062137
 31
0.0
  0
LINE
  5
17D
330
70
100
AcDbEntity
  8
INTERIOR v4_Sketch2
100
AcDbLine
 10
8.685970419620495
 20
9.151124321763143
 30
0.0
 11
8.68597041962063
 21
8.250506558361095
 31
0.0
  0
LINE
  5
17E
330
70
100
AcDbEntity
  8
INTERIOR v4_Sketch2
100
AcDbLine
 10
8.685970419620502
 20
5.151116028967509
 30
0.0
 11
8.685970419620637
 21
4.250498265565457
 31
0.0
  0
LINE
  5
17F
330
70
100
AcDbEntity
  8
INTERIOR v4_Sketch2
100
AcDbLine
 10
9.686452333084908
 20
9.451124321758745
 30
0.0
 11
9.178054810321555
 21
9.069852884835862
 31
0.0
  0
LINE
  5
180
330
70
100
AcDbEntity
  8
INTERIOR v4_Sketch2
100
AcDbLine
 10
5.936438614256292
 20
10.6998293543627
 30
0.0
 11
5.936438614256292
 21
10.69981154524055
 31
0.0
  0
ARC
  5
181
330
70
100
AcDbEntity
  8
INTERIOR v4_Sketch2
100
AcDbCircle
 10
8.798789908219461
 20
8.180054758159915
 30
0.0
 40
0.0999999999999909
100
AcDbArc
 50
200.6255481051918
 51
305.9753961421744
  0
LINE
  5
182
330
70
100
AcDbEntity
  8
INTERIOR v4_Sketch2
100
AcDbLine
 10
9.686452333060877
 20
7.400811293661133
 30
0.0
 11
9.686452333054099
 21
7.950506558359159
 31
0.0
  0
ARC
  5
183
330
70
100
AcDbEntity
  8
INTERIOR v4_Sketch2
100
AcDbCircle
 10
-4.425885966271344
 20
8.17901716401832
 30
0.0
 40
0.099999999999994
100
AcDbArc
 50
234.0257021837352
 51
339.3738629457276
  0
LINE
  5
184
330
70
100
AcDbEntity
  8
INTERIOR v4_Sketch2
100
AcDbLine
 10
-1.563708461224507
 20
2.700514180055845
 30
0.0
 11
-1.563708461224511
 21
2.700496370928122
 31
0.0
  0
ARC
  5
185
330
70
100
AcDbEntity
  8
INTERIOR v4_Sketch2
100
AcDbCircle
 10
8.798789908219461
 20
8.180054758159915
 30
0.0
 40
0.0999999999999909
100
AcDbArc
 50
200.6255481051918
 51
305.9753961421744
  0
ARC
  5
186
330
70
100
AcDbEntity
  8
INTERIOR v4_Sketch2
100
AcDbCircle
 10
-4.6130657534815
 20
8.249470888263129
 30
0.0
 40
0.3000000000000034
100
AcDbArc
 50
339.3738629457248
 51
0.0000000000081422
  0
LINE
  5
187
330
70
100
AcDbEntity
  8
INTERIOR v4_Sketch2
100
AcDbLine
 10
8.685970419620495
 20
9.151124321763143
 30
0.0
 11
8.68597041962063
 21
8.250506558361095
 31
0.0
  0
LINE
  5
188
330
70
100
AcDbEntity
  8
INTERIOR v4_Sketch2
100
AcDbLine
 10
2.336371576991894
 20
5.999663130326449
 30
0.0
 11
2.336393004512423
 21
7.399663129998493
 31
0.0
  0
LINE
  5
189
330
70
100
AcDbEntity
  8
INTERIOR v4_Sketch2
100
AcDbLine
 10
8.685970419620559
 20
8.700828795971954
 30
0.0
 11
8.685988228747653
 21
8.700828795971954
 31
0.0
  0
LINE
  5
18A
330
70
100
AcDbEntity
  8
INTERIOR v4_Sketch2
100
AcDbLine
 10
-4.805150144182558
 20
8.330742325190453
 30
0.0
 11
-4.484628194077981
 21
8.098089105396406
 31
0.0
  0
ARC
  5
18B
330
70
100
AcDbEntity
  8
INTERIOR v4_Sketch2
100
AcDbCircle
 10
-4.425885966271344
 20
8.17901716401832
 30
0.0
 40
0.099999999999994
100
AcDbArc
 50
234.0257021837352
 51
339.3738629457276
  0
LINE
  5
18C
330
70
100
AcDbEntity
  8
INTERIOR v4_Sketch2
100
AcDbLine
 10
-5.313547666945911
 20
7.949470888267571
 30
0.0
 11
-4.805150144182558
 21
8.330742325190453
 31
0.0
  0
LINE
  5
18D
330
70
100
AcDbEntity
  8
INTERIOR v4_Sketch2
100
AcDbLine
 10
8.685970419620495
 20
9.151124321763143
 30
0.0
 11
8.68597041962063
 21
8.250506558361095
 31
0.0
  0
LINE
  5
18E
330
70
100
AcDbEntity
  8
INTERIOR v4_Sketch2
100
AcDbLine
 10
8.685970419620502
 20
5.151116028967509
 30
0.0
 11
8.685970419620637
 21
4.250498265565457
 31
0.0
  0
ARC
  5
18F
330
70
100
AcDbEntity
  8
INTERIOR v4_Sketch2
100
AcDbCircle
 10
-4.613065753481492
 20
4.249462595467487
 30
0.0
 40
0.300000000000004
100
AcDbArc
 50
339.3738629457244
 51
0.0000000000081422
  0
LINE
  5
190
330
70
100
AcDbEntity
  8
INTERIOR v4_Sketch2
100
AcDbLine
 10
8.685988228747653
 20
8.700828795971954
 30
0.0
 11
8.685970419620559
 21
8.700828795971954
 31
0.0
  0
LINE
  5
191
330
70
100
AcDbEntity
  8
INTERIOR v4_Sketch2
100
AcDbLine
 10
-1.932571760784909
 20
11.19189593594438
 30
0.0
 11
-2.165224980578958
 21
10.8713739858398
 31
0.0
  0
LINE
  5
192
330
70
100
AcDbEntity
  8
INTERIOR v4_Sketch2
100
AcDbLine
 10
-4.313065753481563
 20
8.699766414054362
 30
0.0
 11
-4.313083562608653
 21
8.699766414054362
 31
0.0
  0
ARC
  5
193
330
70
100
AcDbEntity
  8
INTERIOR v4_Sketch2
100
AcDbCircle
 10
-4.425885966271344
 20
8.17901716401832
 30
0.0
 40
0.099999999999994
100
AcDbArc
 50
234.0257021837352
 51
339.3738629457276
  0
LINE
  5
194
330
70
100
AcDbEntity
  8
INTERIOR v4_Sketch2
100
AcDbLine
 10
9.17804679366425
 20
4.33177571455053
 30
0.0
 11
9.686452333054106
 21
3.95049826556352
 31
0.0
  0
LINE
  5
195
330
70
100
AcDbEntity
  8
INTERIOR v4_Sketch2
100
AcDbLine
 10
-1.194502883295214
 20
11.19188791928707
 30
0.0
 11
-0.813225434308201
 21
11.70029345867692
 31
0.0
  0
LINE
  5
196
330
70
100
AcDbEntity
  8
INTERIOR v4_Sketch2
100
AcDbLine
 10
8.685988228747653
 20
8.700828795971954
 30
0.0
 11
8.685970419620559
 21
8.700815440062118
 31
0.0
  0
LINE
  5
197
330
70
100
AcDbEntity
  8
INTERIOR v4_Sketch2
100
AcDbLine
 10
-1.563708461224507
 20
2.700514180055845
 30
0.0
 11
-1.563708461224511
 21
2.700496370928122
 31
0.0
  0
LINE
  5
198
330
70
100
AcDbEntity
  8
INTERIOR v4_Sketch2
100
AcDbLine
 10
-1.563708461224511
 20
2.700496370928122
 30
0.0
 11
-1.563708461224507
 21
2.700514180055845
 31
0.0
  0
LINE
  5
199
330
70
100
AcDbEntity
  8
INTERIOR v4_Sketch2
100
AcDbLine
 10
-4.805150144182558
 20
8.330742325190453
 30
0.0
 11
-4.484628194077981
 21
8.098089105396406
 31
0.0
  0
ARC
  5
19A
330
70
100
AcDbEntity
  8
INTERIOR v4_Sketch2
100
AcDbCircle
 10
6.386760851862515
 20
10.99981154524084
 30
0.0
 40
0.300000000000006
100
AcDbArc
 50
270.0000000000359
 51
290.6255481052445
  0
LINE
  5
19B
330
70
100
AcDbEntity
  8
INTERIOR v4_Sketch2
100
AcDbLine
 10
-5.313547666945911
 20
7.949470888267571
 30
0.0
 11
-4.805150144182558
 21
8.330742325190453
 31
0.0
  0
LINE
  5
19C
330
70
100
AcDbEntity
  8
INTERIOR v4_Sketch2
100
AcDbLine
 10
9.178046793664243
 20
8.331784007346168
 30
0.0
 11
8.857533687357907
 21
8.099127825606327
 31
0.0
  0
LINE
  5
19D
330
70
100
AcDbEntity
  8
INTERIOR v4_Sketch2
100
AcDbLine
 10
-4.313083562608646
 20
4.699758121258719
 30
0.0
 11
-4.313065753481556
 21
4.699758121258719
 31
0.0
  0
ARC
  5
19E
330
70
100
AcDbEntity
  8
INTERIOR v4_Sketch2
100
AcDbCircle
 10
8.9859704196205
 20
9.151124321763186
 30
0.0
 40
0.3000000000000074
100
AcDbArc
 50
159.3738629457247
 51
180.0000000000084
  0
LINE
  5
19F
330
70
100
AcDbEntity
  8
INTERIOR v4_Sketch2
100
AcDbLine
 10
-5.313547666930503
 20
1.700293458769319
 30
0.0
 11
-2.31399150686375
 21
1.70008452625179
 31
0.0
  0
ARC
  5
1A0
330
70
100
AcDbEntity
  8
INTERIOR v4_Sketch2
100
AcDbCircle
 10
6.386586240701131
 20
2.399991771760402
 30
0.0
 40
0.2999999999999997
100
AcDbArc
 50
69.37386294575387
 51
90.00000000002849
  0
LINE
  5
1A1
330
70
100
AcDbEntity
  8
INTERIOR v4_Sketch2
100
AcDbLine
 10
-4.313083562608646
 20
4.699758121258719
 30
0.0
 11
-4.313065753481556
 21
4.699771477168555
 31
0.0
  0
LINE
  5
1A2
330
70
100
AcDbEntity
  8
INTERIOR v4_Sketch2
100
AcDbLine
 10
8.685970419620502
 20
5.151116028967509
 30
0.0
 11
8.685970419620637
 21
4.250498265565457
 31
0.0
  0
ARC
  5
1A3
330
70
100
AcDbEntity
  8
INTERIOR v4_Sketch2
100
AcDbCircle
 10
8.798789908219461
 20
8.180054758159915
 30
0.0
 40
0.0999999999999909
100
AcDbArc
 50
200.6255481051918
 51
305.9753961421744
  0
LINE
  5
1A4
330
70
100
AcDbEntity
  8
INTERIOR v4_Sketch2
100
AcDbLine
 10
-4.313065753481563
 20
8.699766414054362
 30
0.0
 11
-4.313083562608653
 21
8.699766414054362
 31
0.0
  0
LINE
  5
1A5
330
70
100
AcDbEntity
  8
INTERIOR v4_Sketch2
100
AcDbLine
 10
5.936438614256292
 20
10.6998293543627
 30
0.0
 11
5.936451970162423
 21
10.69981154524055
 31
0.0
  0
LINE
  5
1A6
330
70
100
AcDbEntity
  8
INTERIOR v4_Sketch2
100
AcDbLine
 10
8.685970419620502
 20
5.151116028967509
 30
0.0
 11
8.685970419620637
 21
4.250498265565457
 31
0.0
  0
LINE
  5
1A7
330
70
100
AcDbEntity
  8
INTERIOR v4_Sketch2
100
AcDbLine
 10
-4.313083562608653
 20
8.699766414054362
 30
0.0
 11
-4.313065753481563
 21
8.699779769964198
 31
0.0
  0
ARC
  5
1A8
330
70
100
AcDbEntity
  8
INTERIOR v4_Sketch2
100
AcDbCircle
 10
-4.6130657534815
 20
8.249470888263129
 30
0.0
 40
0.3000000000000034
100
AcDbArc
 50
339.3738629457248
 51
0.0000000000081422
  0
LINE
  5
1A9
330
70
100
AcDbEntity
  8
INTERIOR v4_Sketch2
100
AcDbLine
 10
-1.563547671921
 20
10.69981154524338
 30
0.0
 11
-1.563547671921
 21
10.69982935437047
 31
0.0
  0
LINE
  5
1AA
330
70
100
AcDbEntity
  8
INTERIOR v4_Sketch2
100
AcDbLine
 10
5.567245926283497
 20
2.207915397716704
 30
0.0
 11
5.185968477297258
 21
1.699509858328555
 31
0.0
  0
ARC
  5
1AB
330
70
100
AcDbEntity
  8
INTERIOR v4_Sketch2
100
AcDbCircle
 10
-1.113225434310184
 20
10.99981154524347
 30
0.0
 40
0.3000000000000167
100
AcDbArc
 50
270.0000000000088
 51
290.6255481051941
  0
ENDSEC
  0
SECTION
  2
OBJECTS
  0
DICTIONARY
  5
C
330
0
100
AcDbDictionary
281
     1
  3
ACAD_COLOR
350
63
  3
ACAD_DETAILVIEWSTYLE
350
6A
  3
ACAD_GROUP
350
D
  3
ACAD_LAYOUT
350
62
  3
ACAD_MATERIAL
350
10
  3
ACAD_MLEADERSTYLE
350
66
  3
ACAD_MLINESTYLE
350
5F
  3
ACAD_PLOTSETTINGS
350
61
  3
ACAD_PLOTSTYLENAME
350
E
  3
ACAD_SCALELIST
350
42
  3
ACAD_SECTIONVIEWSTYLE
350
68
  3
ACAD_TABLESTYLE
350
64
  3
ACAD_VISUALSTYLE
350
29
  3
ACDB_RECOMPOSE_DATA
350
1B4
  3
AcDbVariableDictionary
350
1AC
  0
DICTIONARY
  5
63
102
{ACAD_REACTORS
330
C
102
}
330
C
100
AcDbDictionary
281
     1
  0
DICTIONARY
  5
6A
102
{ACAD_REACTORS
330
C
102
}
330
C
100
AcDbDictionary
281
     1
  3
Imperial24
350
6B
  0
DICTIONARY
  5
D
102
{ACAD_REACTORS
330
C
102
}
330
C
100
AcDbDictionary
281
     1
  0
DICTIONARY
  5
62
102
{ACAD_REACTORS
330
C
102
}
330
C
100
AcDbDictionary
281
     1
  3
Layout1
350
6F
  3
Layout2
350
77
  3
Model
350
73
  0
DICTIONARY
  5
10
102
{ACAD_REACTORS
330
C
102
}
330
C
100
AcDbDictionary
281
     1
  3
ByBlock
350
19
  3
ByLayer
350
11
  3
Global
350
21
  0
DICTIONARY
  5
66
102
{ACAD_REACTORS
330
C
102
}
330
C
100
AcDbDictionary
281
     1
  3
Standard
350
67
  0
DICTIONARY
  5
5F
102
{ACAD_REACTORS
330
C
102
}
330
C
100
AcDbDictionary
281
     1
  3
Standard
350
60
  0
DICTIONARY
  5
61
102
{ACAD_REACTORS
330
C
102
}
330
C
100
AcDbDictionary
281
     1
  0
ACDBDICTIONARYWDFLT
  5
E
102
{ACAD_REACTORS
330
C
102
}
330
C
100
AcDbDictionary
281
     1
  3
Normal
350
F
100
AcDbDictionaryWithDefault
340
F
  0
DICTIONARY
  5
42
102
{ACAD_REACTORS
330
C
102
}
330
C
100
AcDbDictionary
281
     1
  3
A0
350
43
  3
A1
350
44
  3
A2
350
45
  3
A3
350
46
  3
A4
350
47
  3
A5
350
48
  3
A6
350
49
  3
A7
350
4A
  3
A8
350
4B
  3
A9
350
4C
  3
B0
350
4D
  3
B1
350
4E
  3
B2
350
4F
  3
B3
350
50
  3
B4
350
51
  3
B5
350
52
  3
B6
350
53
  0
DICTIONARY
  5
68
102
{ACAD_REACTORS
330
C
102
}
330
C
100
AcDbDictionary
281
     1
  3
Imperial24
350
69
  0
DICTIONARY
  5
64
102
{ACAD_REACTORS
330
C
102
}
330
C
100
AcDbDictionary
281
     1
  3
Standard
350
65
  0
DICTIONARY
  5
29
102
{ACAD_REACTORS
330
C
102
}
330
C
100
AcDbDictionary
281
     1
  3
2dWireframe
350
2F
  3
Basic
350
2E
  3
Brighten
350
35
  3
ColorChange
350
39
  3
Conceptual
350
32
  3
Dim
350
34
  3
EdgeColorOff
350
41
  3
Facepattern
350
38
  3
Flat
350
2A
  3
FlatWithEdges
350
2B
  3
Gouraud
350
2C
  3
GouraudWithEdges
350
2D
  3
Hidden
350
31
  3
JitterOff
350
3F
  3
Linepattern
350
37
  3
OverhangOff
350
40
  3
Realistic
350
33
  3
Shaded
350
3E
  3
Shaded with edges
350
3D
  3
Shades of Gray
350
3A
  3
Sketchy
350
3B
  3
Thicken
350
36
  3
Wireframe
350
30
  3
X-Ray
350
3C
  0
XRECORD
  5
1B4
102
{ACAD_REACTORS
330
C
102
}
330
C
100
AcDbXrecord
280
     1
 90
        1
330
65
  0
DICTIONARY
  5
1AC
102
{ACAD_REACTORS
330
C
102
}
330
C
100
AcDbDictionary
281
     1
  3
CANNOSCALE
350
1B1
  3
CMLEADERSTYLE
350
1AE
  3
CTABLESTYLE
350
1AD
  3
CVIEWDETAILSTYLE
350
1AF
  3
CVIEWSECTIONSTYLE
350
1B0
  0
ACDBDETAILVIEWSTYLE
  5
6B
102
{ACAD_XDICTIONARY
360
1B7
102
}
102
{ACAD_REACTORS
330
6A
102
}
330
6A
100
AcDbModelDocViewStyle
 70
     0
  3
Imperial24
290
     0
100
AcDbDetailViewStyle
 70
     0
 71
     0
 90
        3
 71
     1
340
55
 62
   256
 40
0.24
340
0
 62
   256
 40
0.24
300

 40
0.36
280
     3
 71
     2
340
5D
 90
       25
 62
   256
 71
     3
340
55
 62
   256
 40
0.24
 90
        1
 40
0.75
 90
        1
300
%<\AcVar ViewType \f "%tc1">% %<\AcVar ViewDetailId>%\PSCALE %<\AcVar ViewScale \f "%sn">%
 71
     4
340
5D
 90
       25
 62
   256
340
5D
 90
       25
 62
   256
280
     0
  0
LAYOUT
  5
6F
102
{ACAD_REACTORS
330
62
102
}
330
62
100
AcDbPlotSettings
  1

  2

  4

  6

 40
0.0
 41
0.0
 42
0.0
 43
0.0
 44
0.0
 45
0.0
 46
0.0
 47
0.0
 48
0.0
 49
0.0
140
0.0
141
0.0
142
1.0
143
1.0
 70
   688
 72
     0
 73
     0
 74
     5
  7

 75
    16
147
1.0
 76
     0
 77
     2
 78
   300
148
0.0
149
0.0
100
AcDbLayout
  1
Layout1
 70
     1
 71
     1
 10
0.0
 20
0.0
 11
12.0
 21
9.0
 12
0.0
 22
0.0
 32
0.0
 14
0.0
 24
0.0
 34
0.0
 15
0.0
 25
0.0
 35
0.0
146
0.0
 13
0.0
 23
0.0
 33
0.0
 16
1.0
 26
0.0
 36
0.0
 17
0.0
 27
1.0
 37
0.0
 76
     0
330
6C
  0
LAYOUT
  5
77
102
{ACAD_REACTORS
330
62
102
}
330
62
100
AcDbPlotSettings
  1

  2

  4

  6

 40
0.0
 41
0.0
 42
0.0
 43
0.0
 44
0.0
 45
0.0
 46
0.0
 47
0.0
 48
0.0
 49
0.0
140
0.0
141
0.0
142
1.0
143
1.0
 70
   688
 72
     0
 73
     0
 74
     5
  7

 75
    16
147
1.0
 76
     0
 77
     2
 78
   300
148
0.0
149
0.0
100
AcDbLayout
  1
Layout2
 70
     1
 71
     2
 10
0.0
 20
0.0
 11
12.0
 21
9.0
 12
0.0
 22
0.0
 32
0.0
 14
0.0
 24
0.0
 34
0.0
 15
0.0
 25
0.0
 35
0.0
146
0.0
 13
0.0
 23
0.0
 33
0.0
 16
1.0
 26
0.0
 36
0.0
 17
0.0
 27
1.0
 37
0.0
 76
     0
330
74
  0
LAYOUT
  5
73
102
{ACAD_REACTORS
330
62
102
}
330
62
100
AcDbPlotSettings
  1

  2

  4

  6

 40
0.0
 41
0.0
 42
0.0
 43
0.0
 44
0.0
 45
0.0
 46
0.0
 47
0.0
 48
0.0
 49
0.0
140
0.0
141
0.0
142
1.0
143
1.0
 70
  1712
 72
     0
 73
     0
 74
     0
  7

 75
     0
147
1.0
 76
     0
 77
     2
 78
   300
148
0.0
149
0.0
100
AcDbLayout
  1
Model
 70
     1
 71
     0
 10
0.0
 20
0.0
 11
12.0
 21
9.0
 12
0.0
 22
0.0
 32
0.0
 14
0.0
 24
0.0
 34
0.0
 15
0.0
 25
0.0
 35
0.0
146
0.0
 13
0.0
 23
0.0
 33
0.0
 16
1.0
 26
0.0
 36
0.0
 17
0.0
 27
1.0
 37
0.0
 76
     0
330
70
  0
MATERIAL
  5
19
102
{ACAD_XDICTIONARY
360
1A
102
}
102
{ACAD_REACTORS
330
10
102
}
330
10
100
AcDbMaterial
  1
ByBlock
 72
     0
 43
0.0208333333333333
 43
0.0
 43
0.0
 43
0.0
 43
0.0
 43
0.0208333333333333
 43
0.0
 43
0.0
 43
0.0
 43
0.0
 43
1.0
 43
0.0
 43
0.0
 43
0.0
 43
0.0
 43
1.0
 77
     0
 47
0.0208333333333333
 47
0.0
 47
0.0
 47
0.0
 47
0.0
 47
0.0208333333333333
 47
0.0
 47
0.0
 47
0.0
 47
0.0
 47
1.0
 47
0.0
 47
0.0
 47
0.0
 47
0.0
 47
1.0
171
     0
 49
0.0208333333333333
 49
0.0
 49
0.0
 49
0.0
 49
0.0
 49
0.0208333333333333
 49
0.0
 49
0.0
 49
0.0
 49
0.0
 49
1.0
 49
0.0
 49
0.0
 49
0.0
 49
0.0
 49
1.0
175
     0
142
0.0208333333333333
142
0.0
142
0.0
142
0.0
142
0.0
142
0.0208333333333333
142
0.0
142
0.0
142
0.0
142
0.0
142
1.0
142
0.0
142
0.0
142
0.0
142
0.0
142
1.0
179
     0
144
0.0208333333333333
144
0.0
144
0.0
144
0.0
144
0.0
144
0.0208333333333333
144
0.0
144
0.0
144
0.0
144
0.0
144
1.0
144
0.0
144
0.0
144
0.0
144
0.0
144
1.0
147
0.0208333333333333
147
0.0
147
0.0
147
0.0
147
0.0
147
0.0208333333333333
147
0.0
147
0.0
147
0.0
147
0.0
147
1.0
147
0.0
147
0.0
147
0.0
147
0.0
147
1.0
  0
MATERIAL
  5
11
102
{ACAD_XDICTIONARY
360
12
102
}
102
{ACAD_REACTORS
330
10
102
}
330
10
100
AcDbMaterial
  1
ByLayer
 72
     0
 43
0.0208333333333333
 43
0.0
 43
0.0
 43
0.0
 43
0.0
 43
0.0208333333333333
 43
0.0
 43
0.0
 43
0.0
 43
0.0
 43
1.0
 43
0.0
 43
0.0
 43
0.0
 43
0.0
 43
1.0
 77
     0
 47
0.0208333333333333
 47
0.0
 47
0.0
 47
0.0
 47
0.0
 47
0.0208333333333333
 47
0.0
 47
0.0
 47
0.0
 47
0.0
 47
1.0
 47
0.0
 47
0.0
 47
0.0
 47
0.0
 47
1.0
171
     0
 49
0.0208333333333333
 49
0.0
 49
0.0
 49
0.0
 49
0.0
 49
0.0208333333333333
 49
0.0
 49
0.0
 49
0.0
 49
0.0
 49
1.0
 49
0.0
 49
0.0
 49
0.0
 49
0.0
 49
1.0
175
     0
142
0.0208333333333333
142
0.0
142
0.0
142
0.0
142
0.0
142
0.0208333333333333
142
0.0
142
0.0
142
0.0
142
0.0
142
1.0
142
0.0
142
0.0
142
0.0
142
0.0
142
1.0
179
     0
144
0.0208333333333333
144
0.0
144
0.0
144
0.0
144
0.0
144
0.0208333333333333
144
0.0
144
0.0
144
0.0
144
0.0
144
1.0
144
0.0
144
0.0
144
0.0
144
0.0
144
1.0
147
0.0208333333333333
147
0.0
147
0.0
147
0.0
147
0.0
147
0.0208333333333333
147
0.0
147
0.0
147
0.0
147
0.0
147
1.0
147
0.0
147
0.0
147
0.0
147
0.0
147
1.0
  0
MATERIAL
  5
21
102
{ACAD_XDICTIONARY
360
22
102
}
102
{ACAD_REACTORS
330
10
102
}
330
10
100
AcDbMaterial
  1
Global
 72
     0
 43
0.0208333333333333
 43
0.0
 43
0.0
 43
0.0
 43
0.0
 43
0.0208333333333333
 43
0.0
 43
0.0
 43
0.0
 43
0.0
 43
1.0
 43
0.0
 43
0.0
 43
0.0
 43
0.0
 43
1.0
 77
     0
 47
0.0208333333333333
 47
0.0
 47
0.0
 47
0.0
 47
0.0
 47
0.0208333333333333
 47
0.0
 47
0.0
 47
0.0
 47
0.0
 47
1.0
 47
0.0
 47
0.0
 47
0.0
 47
0.0
 47
1.0
171
     0
 49
0.0208333333333333
 49
0.0
 49
0.0
 49
0.0
 49
0.0
 49
0.0208333333333333
 49
0.0
 49
0.0
 49
0.0
 49
0.0
 49
1.0
 49
0.0
 49
0.0
 49
0.0
 49
0.0
 49
1.0
175
     0
142
0.0208333333333333
142
0.0
142
0.0
142
0.0
142
0.0
142
0.0208333333333333
142
0.0
142
0.0
142
0.0
142
0.0
142
1.0
142
0.0
142
0.0
142
0.0
142
0.0
142
1.0
179
     0
144
0.0208333333333333
144
0.0
144
0.0
144
0.0
144
0.0
144
0.0208333333333333
144
0.0
144
0.0
144
0.0
144
0.0
144
1.0
144
0.0
144
0.0
144
0.0
144
0.0
144
1.0
147
0.0208333333333333
147
0.0
147
0.0
147
0.0
147
0.0
147
0.0208333333333333
147
0.0
147
0.0
147
0.0
147
0.0
147
1.0
147
0.0
147
0.0
147
0.0
147
0.0
147
1.0
  0
MLEADERSTYLE
  5
67
102
{ACAD_REACTORS
330
66
102
}
330
66
100
AcDbMLeaderStyle
179
     2
170
     2
171
     1
172
     0
 90
        2
 40
0.0
 41
0.0
173
     1
 91
-1056964608
340
5B
 92
       -2
290
     1
 42
0.09
291
     1
 43
0.36
  3
Standard
 44
0.18
300

342
55
174
     1
178
     6
175
     1
176
     0
 93
-1056964608
 45
0.18
292
     0
297
     0
 46
0.18
 94
-1056964608
 47
1.0
 49
1.0
140
1.0
293
     1
141
0.0
294
     1
177
     0
142
1.0
295
     0
296
     0
143
0.125
271
     0
272
     9
273
     9
298
     1
  0
MLINESTYLE
  5
60
102
{ACAD_REACTORS
330
5F
102
}
330
5F
100
AcDbMlineStyle
  2
STANDARD
 70
     0
  3

 62
   256
 51
90.0
 52
90.0
 71
     2
 49
0.5
 62
   256
  6
BYLAYER
 49
-0.5
 62
   256
  6
BYLAYER
  0
ACDBPLACEHOLDER
  5
F
102
{ACAD_REACTORS
330
E
102
}
330
E
  0
SCALE
  5
43
102
{ACAD_REACTORS
330
42
102
}
330
42
100
AcDbScale
 70
     0
300
1:1
140
1.0
141
1.0
290
     1
  0
SCALE
  5
44
102
{ACAD_REACTORS
330
42
102
}
330
42
100
AcDbScale
 70
     0
300
1/128" = 1'-0"
140
0.0078125
141
12.0
290
     0
  0
SCALE
  5
45
102
{ACAD_REACTORS
330
42
102
}
330
42
100
AcDbScale
 70
     0
300
1/64" = 1'-0"
140
0.015625
141
12.0
290
     0
  0
SCALE
  5
46
102
{ACAD_REACTORS
330
42
102
}
330
42
100
AcDbScale
 70
     0
300
1/32" = 1'-0"
140
0.03125
141
12.0
290
     0
  0
SCALE
  5
47
102
{ACAD_REACTORS
330
42
102
}
330
42
100
AcDbScale
 70
     0
300
1/16" = 1'-0"
140
0.0625
141
12.0
290
     0
  0
SCALE
  5
48
102
{ACAD_REACTORS
330
42
102
}
330
42
100
AcDbScale
 70
     0
300
3/32" = 1'-0"
140
0.09375
141
12.0
290
     0
  0
SCALE
  5
49
102
{ACAD_REACTORS
330
42
102
}
330
42
100
AcDbScale
 70
     0
300
1/8" = 1'-0"
140
0.125
141
12.0
290
     0
  0
SCALE
  5
4A
102
{ACAD_REACTORS
330
42
102
}
330
42
100
AcDbScale
 70
     0
300
3/16" = 1'-0"
140
0.1875
141
12.0
290
     0
  0
SCALE
  5
4B
102
{ACAD_REACTORS
330
42
102
}
330
42
100
AcDbScale
 70
     0
300
1/4" = 1'-0"
140
0.25
141
12.0
290
     0
  0
SCALE
  5
4C
102
{ACAD_REACTORS
330
42
102
}
330
42
100
AcDbScale
 70
     0
300
3/8" = 1'-0"
140
0.375
141
12.0
290
     0
  0
SCALE
  5
4D
102
{ACAD_REACTORS
330
42
102
}
330
42
100
AcDbScale
 70
     0
300
1/2" = 1'-0"
140
0.5
141
12.0
290
     0
  0
SCALE
  5
4E
102
{ACAD_REACTORS
330
42
102
}
330
42
100
AcDbScale
 70
     0
300
3/4" = 1'-0"
140
0.75
141
12.0
290
     0
  0
SCALE
  5
4F
102
{ACAD_REACTORS
330
42
102
}
330
42
100
AcDbScale
 70
     0
300
1" = 1'-0"
140
1.0
141
12.0
290
     0
  0
SCALE
  5
50
102
{ACAD_REACTORS
330
42
102
}
330
42
100
AcDbScale
 70
     0
300
1-1/2" = 1'-0"
140
1.5
141
12.0
290
     0
  0
SCALE
  5
51
102
{ACAD_REACTORS
330
42
102
}
330
42
100
AcDbScale
 70
     0
300
3" = 1'-0"
140
3.0
141
12.0
290
     0
  0
SCALE
  5
52
102
{ACAD_REACTORS
330
42
102
}
330
42
100
AcDbScale
 70
     0
300
6" = 1'-0"
140
6.0
141
12.0
290
     0
  0
SCALE
  5
53
102
{ACAD_REACTORS
330
42
102
}
330
42
100
AcDbScale
 70
     0
300
1'-0" = 1'-0"
140
12.0
141
12.0
290
     0
  0
ACDBSECTIONVIEWSTYLE
  5
69
102
{ACAD_XDICTIONARY
360
1B5
102
}
102
{ACAD_REACTORS
330
68
102
}
330
68
100
AcDbModelDocViewStyle
 70
     0
  3
Imperial24
290
     0
100
AcDbSectionViewStyle
 70
     0
 71
     0
 90
       78
 71
     1
340
55
 62
   256
 40
0.24
340
0
340
0
 62
   256
 40
0.24
300
I, O, Q, S, X, Z
 40
0.48
 90
        3
 40
0.18
 90
        1
 71
     2
340
5D
 90
       25
 62
   256
340
5D
 90
       50
 62
   256
 40
0.24
 40
0.0
 40
0.24
 71
     3
340
55
 62
   256
 40
0.24
 90
        1
 40
0.75
 90
        1
300
%<\AcVar ViewType \f "%tc1">% %<\AcVar ViewSectionStartId>%-%<\AcVar ViewSectionEndId>%\PSCALE %<\AcVar ViewScale \f "%sn">%
 71
     4
 62
   256
 62
   257
300
ANSI31
 40
1.0
 90
        0
290
     0
290
     0
 90
        6
 40
0.0
 40
1.570796326794896
 40
0.2617993877991494
 40
1.308996938995747
 40
-0.2617993877991494
 40
1.832595714594046
  0
TABLESTYLE
  5
65
102
{ACAD_XDICTIONARY
360
1B2
102
}
102
{ACAD_REACTORS
330
64
102
}
330
64
100
AcDbTableStyle
280
     0
  3
Standard
 70
     0
 71
     0
 40
0.06
 41
0.06
280
     0
281
     0
  7
Standard
140
0.18
170
     2
 62
     0
 63
     7
283
     0
 90
      512
 91
        0
  1

274
    -2
284
     1
 64
     0
275
    -2
285
     1
 65
     0
276
    -2
286
     1
 66
     0
277
    -2
287
     1
 67
     0
278
    -2
288
     1
 68
     0
279
    -2
289
     1
 69
     0
  7
Standard
140
0.25
170
     5
 62
     0
 63
     7
283
     0
 90
      512
 91
        0
  1

274
    -2
284
     1
 64
     0
275
    -2
285
     1
 65
     0
276
    -2
286
     1
 66
     0
277
    -2
287
     1
 67
     0
278
    -2
288
     1
 68
     0
279
    -2
289
     1
 69
     0
  7
Standard
140
0.18
170
     5
 62
     0
 63
     7
283
     0
 90
      512
 91
        0
  1

274
    -2
284
     1
 64
     0
275
    -2
285
     1
 65
     0
276
    -2
286
     1
 66
     0
277
    -2
287
     1
 67
     0
278
    -2
288
     1
 68
     0
279
    -2
289
     1
 69
     0
  0
VISUALSTYLE
  5
2F
102
{ACAD_REACTORS
330
29
102
}
330
29
100
AcDbVisualStyle
  2
2dWireframe
 70
     4
177
     3
291
     0
 70
    58
 90
        0
176
     1
 90
        2
176
     1
 90
        0
176
     1
 90
        0
176
     1
 40
0.6
176
     1
 40
30.0
176
     1
 62
     7
420
 16777215
176
     1
 90
        1
176
     1
 90
        4
176
     1
 62
     7
176
     1
 62
   257
176
     1
 90
        1
176
     1
 90
        1
176
     1
 40
1.0
176
     1
 90
        0
176
     1
 62
   257
176
     1
 40
1.0
176
     1
 90
        1
176
     1
 90
        6
176
     1
 90
        2
176
     1
 62
     7
176
     1
 90
        5
176
     1
 90
        0
176
     1
 90
        0
176
     1
290
     0
176
     1
 90
        1
176
     1
 40
0.0
176
     1
 90
        0
176
     1
290
     1
176
     1
290
     1
176
     1
290
     0
176
     1
290
     0
176
     1
290
     0
176
     1
290
     0
176
     1
290
     0
176
     1
290
     0
176
     1
290
     0
176
     1
 90
       50
176
     1
 40
0.0
176
     1
 40
1.0
176
     1
 90
        0
176
     1
 62
    18
420
        0
176
     1
 90
       50
176
     1
 90
        3
176
     1
 62
     5
420
      255
176
     1
290
     0
176
     1
 90
       50
176
     1
 90
       50
176
     1
 90
       50
176
     1
290
     0
176
     1
 90
       50
176
     1
 62
   256
176
     0
 40
1.0
176
     0
 90
        2
176
     1
  1
strokes_ogs.tif
176
     1
290
     0
176
     1
 40
1.0
176
     1
 40
1.0
176
     1
1001
ACAD
1000
AcDbSavedByObjectVersion
1070
     0
  0
VISUALSTYLE
  5
2E
102
{ACAD_REACTORS
330
29
102
}
330
29
100
AcDbVisualStyle
  2
Basic
 70
     7
177
     3
291
     1
 70
    58
 90
        1
176
     1
 90
        0
176
     1
 90
        1
176
     1
 90
        0
176
     1
 40
0.6
176
     1
 40
30.0
176
     1
 62
     7
420
 16777215
176
     1
 90
        0
176
     1
 90
        4
176
     1
 62
     7
176
     1
 62
   257
176
     1
 90
        1
176
     1
 90
        1
176
     1
 40
1.0
176
     1
 90
        8
176
     1
 62
     7
176
     1
 40
1.0
176
     1
 90
        1
176
     1
 90
        6
176
     1
 90
        2
176
     1
 62
     7
176
     1
 90
        5
176
     1
 90
        0
176
     1
 90
        0
176
     1
290
     0
176
     1
 90
        1
176
     1
 40
0.0
176
     1
 90
        0
176
     1
290
     0
176
     1
290
     1
176
     1
290
     1
176
     1
290
     0
176
     1
290
     0
176
     1
290
     0
176
     1
290
     0
176
     1
290
     0
176
     1
290
     0
176
     1
 90
       50
176
     1
 40
0.0
176
     1
 40
1.0
176
     1
 90
        0
176
     1
 62
    18
420
        0
176
     1
 90
       50
176
     1
 90
        3
176
     1
 62
     5
420
      255
176
     1
290
     0
176
     1
 90
       50
176
     1
 90
       50
176
     1
 90
       50
176
     1
290
     0
176
     1
 90
       50
176
     1
 62
   256
176
     0
 40
1.0
176
     0
 90
        2
176
     1
  1
strokes_ogs.tif
176
     1
290
     0
176
     1
 40
1.0
176
     1
 40
1.0
176
     1
1001
ACAD
1000
AcDbSavedByObjectVersion
1070
     0
  0
VISUALSTYLE
  5
35
102
{ACAD_REACTORS
330
29
102
}
330
29
100
AcDbVisualStyle
  2
Brighten
 70
    12
177
     3
291
     1
 70
    58
 90
        2
176
     1
 90
        2
176
     1
 90
        0
176
     1
 90
        0
176
     1
 40
0.6
176
     1
 40
30.0
176
     1
 62
     7
420
 16777215
176
     1
 90
        1
176
     1
 90
        4
176
     1
 62
     7
176
     1
 62
   257
176
     1
 90
        1
176
     1
 90
        1
176
     1
 40
1.0
176
     1
 90
        8
176
     1
 62
     7
176
     1
 40
1.0
176
     1
 90
        1
176
     1
 90
        6
176
     1
 90
        2
176
     1
 62
     7
176
     1
 90
        5
176
     1
 90
        0
176
     1
 90
        0
176
     1
290
     0
176
     1
 90
        1
176
     1
 40
50.0
176
     1
 90
        0
176
     1
290
     0
176
     1
290
     1
176
     1
290
     1
176
     1
290
     0
176
     1
290
     0
176
     1
290
     0
176
     1
290
     0
176
     1
290
     0
176
     1
290
     0
176
     1
 90
       50
176
     1
 40
0.0
176
     1
 40
1.0
176
     1
 90
        0
176
     1
 62
    18
420
        0
176
     1
 90
       50
176
     1
 90
        3
176
     1
 62
     5
420
      255
176
     1
290
     0
176
     1
 90
       50
176
     1
 90
       50
176
     1
 90
       50
176
     1
290
     0
176
     1
 90
       50
176
     1
 62
   256
176
     0
 40
1.0
176
     0
 90
        2
176
     1
  1
strokes_ogs.tif
176
     1
290
     0
176
     1
 40
1.0
176
     1
 40
1.0
176
     1
1001
ACAD
1000
AcDbSavedByObjectVersion
1070
     0
  0
VISUALSTYLE
  5
39
102
{ACAD_REACTORS
330
29
102
}
330
29
100
AcDbVisualStyle
  2
ColorChange
 70
    16
177
     3
291
     1
 70
    58
 90
        2
176
     1
 90
        2
176
     1
 90
        3
176
     1
 90
        0
176
     1
 40
0.6
176
     1
 40
30.0
176
     1
 62
     8
420
  8421504
176
     1
 90
        1
176
     1
 90
        4
176
     1
 62
     7
176
     1
 62
   257
176
     1
 90
        1
176
     1
 90
        1
176
     1
 40
1.0
176
     1
 90
        8
176
     1
 62
     8
420
  8421504
176
     1
 40
1.0
176
     1
 90
        1
176
     1
 90
        6
176
     1
 90
        2
176
     1
 62
     7
176
     1
 90
        5
176
     1
 90
        0
176
     1
 90
        0
176
     1
290
     0
176
     1
 90
        1
176
     1
 40
0.0
176
     1
 90
        0
176
     1
290
     0
176
     1
290
     1
176
     1
290
     1
176
     1
290
     0
176
     1
290
     0
176
     1
290
     0
176
     1
290
     0
176
     1
290
     0
176
     1
290
     0
176
     1
 90
       50
176
     1
 40
0.0
176
     1
 40
1.0
176
     1
 90
        0
176
     1
 62
    18
420
        0
176
     1
 90
       50
176
     1
 90
        3
176
     1
 62
     5
420
      255
176
     1
290
     0
176
     1
 90
       50
176
     1
 90
       50
176
     1
 90
       50
176
     1
290
     0
176
     1
 90
       50
176
     1
 62
   256
176
     0
 40
1.0
176
     0
 90
        2
176
     1
  1
strokes_ogs.tif
176
     1
290
     0
176
     1
 40
1.0
176
     1
 40
1.0
176
     1
1001
ACAD
1000
AcDbSavedByObjectVersion
1070
     0
  0
VISUALSTYLE
  5
32
102
{ACAD_REACTORS
330
29
102
}
330
29
100
AcDbVisualStyle
  2
Conceptual
 70
     9
177
     3
291
     0
 70
    58
 90
        3
176
     1
 90
        2
176
     1
 90
        0
176
     1
 90
        0
176
     1
 40
0.6
176
     1
 40
30.0
176
     1
 62
     7
420
 16777215
176
     1
 90
        2
176
     1
 90
        2
176
     1
 62
     7
176
     1
 62
   257
176
     1
 90
        1
176
     1
 90
        1
176
     1
 40
179.0
176
     1
 90
        8
176
     1
 62
     7
176
     1
 40
1.0
176
     1
 90
        1
176
     1
 90
        6
176
     1
 90
        2
176
     1
 62
     7
176
     1
 90
        3
176
     1
 90
        0
176
     1
 90
        0
176
     1
290
     0
176
     1
 90
        1
176
     1
 40
0.0
176
     1
 90
        0
176
     1
290
     0
176
     1
290
     1
176
     1
290
     1
176
     1
290
     0
176
     1
290
     0
176
     1
290
     0
176
     1
290
     0
176
     1
290
     0
176
     1
290
     0
176
     1
 90
       50
176
     1
 40
0.0
176
     1
 40
1.0
176
     1
 90
        0
176
     1
 62
    18
420
        0
176
     1
 90
       50
176
     1
 90
        3
176
     1
 62
     5
420
      255
176
     1
290
     0
176
     1
 90
       50
176
     1
 90
       50
176
     1
 90
       50
176
     1
290
     0
176
     1
 90
       50
176
     1
 62
   256
176
     0
 40
1.0
176
     0
 90
        2
176
     1
  1
strokes_ogs.tif
176
     1
290
     0
176
     1
 40
1.0
176
     1
 40
1.0
176
     1
1001
ACAD
1000
AcDbSavedByObjectVersion
1070
     0
  0
VISUALSTYLE
  5
34
102
{ACAD_REACTORS
330
29
102
}
330
29
100
AcDbVisualStyle
  2
Dim
 70
    11
177
     3
291
     1
 70
    58
 90
        2
176
     1
 90
        2
176
     1
 90
        0
176
     1
 90
        0
176
     1
 40
0.6
176
     1
 40
30.0
176
     1
 62
     7
420
 16777215
176
     1
 90
        1
176
     1
 90
        4
176
     1
 62
     7
176
     1
 62
   257
176
     1
 90
        1
176
     1
 90
        1
176
     1
 40
1.0
176
     1
 90
        8
176
     1
 62
     7
176
     1
 40
1.0
176
     1
 90
        1
176
     1
 90
        6
176
     1
 90
        2
176
     1
 62
     7
176
     1
 90
        5
176
     1
 90
        0
176
     1
 90
        0
176
     1
290
     0
176
     1
 90
        1
176
     1
 40
-50.0
176
     1
 90
        0
176
     1
290
     0
176
     1
290
     1
176
     1
290
     1
176
     1
290
     0
176
     1
290
     0
176
     1
290
     0
176
     1
290
     0
176
     1
290
     0
176
     1
290
     0
176
     1
 90
       50
176
     1
 40
0.0
176
     1
 40
1.0
176
     1
 90
        0
176
     1
 62
    18
420
        0
176
     1
 90
       50
176
     1
 90
        3
176
     1
 62
     5
420
      255
176
     1
290
     0
176
     1
 90
       50
176
     1
 90
       50
176
     1
 90
       50
176
     1
290
     0
176
     1
 90
       50
176
     1
 62
   256
176
     0
 40
1.0
176
     0
 90
        2
176
     1
  1
strokes_ogs.tif
176
     1
290
     0
176
     1
 40
1.0
176
     1
 40
1.0
176
     1
1001
ACAD
1000
AcDbSavedByObjectVersion
1070
     0
  0
VISUALSTYLE
  5
41
102
{ACAD_REACTORS
330
29
102
}
330
29
100
AcDbVisualStyle
  2
EdgeColorOff
 70
    22
177
     3
291
     1
 70
    58
 90
        2
176
     0
 90
        2
176
     0
 90
        0
176
     0
 90
        0
176
     0
 40
0.6
176
     0
 40
30.0
176
     0
 62
     7
420
 16777215
176
     0
 90
        1
176
     0
 90
        4
176
     0
 62
     7
176
     0
 62
   257
176
     0
 90
        1
176
     0
 90
        1
176
     0
 40
1.0
176
     0
 90
        8
176
     2
 62
     7
176
     0
 40
1.0
176
     0
 90
        1
176
     0
 90
        6
176
     0
 90
        2
176
     0
 62
     7
176
     0
 90
        5
176
     0
 90
        0
176
     0
 90
        0
176
     0
290
     0
176
     0
 90
        1
176
     0
 40
0.0
176
     0
 90
        0
176
     0
290
     0
176
     0
290
     1
176
     0
290
     1
176
     0
290
     0
176
     0
290
     0
176
     0
290
     0
176
     0
290
     0
176
     0
290
     0
176
     0
290
     0
176
     0
 90
       50
176
     0
 40
0.0
176
     0
 40
1.0
176
     0
 90
        0
176
     0
 62
    18
420
        0
176
     0
 90
       50
176
     0
 90
        3
176
     0
 62
     5
420
      255
176
     0
290
     0
176
     0
 90
       50
176
     0
 90
       50
176
     0
 90
       50
176
     0
290
     0
176
     0
 90
       50
176
     0
 62
   256
176
     0
 40
1.0
176
     0
 90
        2
176
     0
  1
strokes_ogs.tif
176
     0
290
     0
176
     0
 40
1.0
176
     0
 40
1.0
176
     0
1001
ACAD
1000
AcDbSavedByObjectVersion
1070
     0
  0
VISUALSTYLE
  5
38
102
{ACAD_REACTORS
330
29
102
}
330
29
100
AcDbVisualStyle
  2
Facepattern
 70
    15
177
     3
291
     1
 70
    58
 90
        2
176
     1
 90
        2
176
     1
 90
        0
176
     1
 90
        0
176
     1
 40
0.6
176
     1
 40
30.0
176
     1
 62
     7
420
 16777215
176
     1
 90
        1
176
     1
 90
        4
176
     1
 62
     7
176
     1
 62
   257
176
     1
 90
        1
176
     1
 90
        1
176
     1
 40
1.0
176
     1
 90
        8
176
     1
 62
     7
176
     1
 40
1.0
176
     1
 90
        1
176
     1
 90
        6
176
     1
 90
        2
176
     1
 62
     7
176
     1
 90
        5
176
     1
 90
        0
176
     1
 90
        0
176
     1
290
     0
176
     1
 90
        1
176
     1
 40
0.0
176
     1
 90
        0
176
     1
290
     0
176
     1
290
     1
176
     1
290
     1
176
     1
290
     0
176
     1
290
     0
176
     1
290
     0
176
     1
290
     0
176
     1
290
     0
176
     1
290
     0
176
     1
 90
       50
176
     1
 40
0.0
176
     1
 40
1.0
176
     1
 90
        0
176
     1
 62
    18
420
        0
176
     1
 90
       50
176
     1
 90
        3
176
     1
 62
     5
420
      255
176
     1
290
     0
176
     1
 90
       50
176
     1
 90
       50
176
     1
 90
       50
176
     1
290
     0
176
     1
 90
       50
176
     1
 62
   256
176
     0
 40
1.0
176
     0
 90
        2
176
     1
  1
strokes_ogs.tif
176
     1
290
     0
176
     1
 40
1.0
176
     1
 40
1.0
176
     1
1001
ACAD
1000
AcDbSavedByObjectVersion
1070
     0
  0
VISUALSTYLE
  5
2A
102
{ACAD_REACTORS
330
29
102
}
330
29
100
AcDbVisualStyle
  2
Flat
 70
     0
177
     3
291
     1
 70
    58
 90
        2
176
     1
 90
        1
176
     1
 90
        1
176
     1
 90
        2
176
     1
 40
0.6
176
     1
 40
30.0
176
     1
 62
     7
420
 16777215
176
     1
 90
        0
176
     1
 90
        0
176
     1
 62
     7
176
     1
 62
   257
176
     1
 90
        1
176
     1
 90
        1
176
     1
 40
1.0
176
     1
 90
        8
176
     1
 62
     7
176
     1
 40
1.0
176
     1
 90
        1
176
     1
 90
        6
176
     1
 90
        2
176
     1
 62
     7
176
     1
 90
        5
176
     1
 90
        0
176
     1
 90
        0
176
     1
290
     0
176
     1
 90
       13
176
     1
 40
0.0
176
     1
 90
        0
176
     1
290
     0
176
     1
290
     1
176
     1
290
     1
176
     1
290
     0
176
     1
290
     0
176
     1
290
     0
176
     1
290
     0
176
     1
290
     0
176
     1
290
     0
176
     1
 90
       50
176
     1
 40
0.0
176
     1
 40
1.0
176
     1
 90
        0
176
     1
 62
    18
420
        0
176
     1
 90
       50
176
     1
 90
        3
176
     1
 62
     5
420
      255
176
     1
290
     0
176
     1
 90
       50
176
     1
 90
       50
176
     1
 90
       50
176
     1
290
     0
176
     1
 90
       50
176
     1
 62
   256
176
     0
 40
1.0
176
     0
 90
        2
176
     1
  1
strokes_ogs.tif
176
     1
290
     0
176
     1
 40
1.0
176
     1
 40
1.0
176
     1
1001
ACAD
1000
AcDbSavedByObjectVersion
1070
     0
  0
VISUALSTYLE
  5
2B
102
{ACAD_REACTORS
330
29
102
}
330
29
100
AcDbVisualStyle
  2
FlatWithEdges
 70
     1
177
     3
291
     1
 70
    58
 90
        2
176
     1
 90
        1
176
     1
 90
        1
176
     1
 90
        2
176
     1
 40
0.6
176
     1
 40
30.0
176
     1
 62
     7
420
 16777215
176
     1
 90
        1
176
     1
 90
        0
176
     1
 62
     7
176
     1
 62
   257
176
     1
 90
        1
176
     1
 90
        1
176
     1
 40
1.0
176
     1
 90
        0
176
     1
 62
   257
176
     1
 40
1.0
176
     1
 90
        1
176
     1
 90
        6
176
     1
 90
        2
176
     1
 62
     7
176
     1
 90
        5
176
     1
 90
        0
176
     1
 90
        0
176
     1
290
     0
176
     1
 90
       13
176
     1
 40
0.0
176
     1
 90
        0
176
     1
290
     0
176
     1
290
     1
176
     1
290
     1
176
     1
290
     0
176
     1
290
     0
176
     1
290
     0
176
     1
290
     0
176
     1
290
     0
176
     1
290
     0
176
     1
 90
       50
176
     1
 40
0.0
176
     1
 40
1.0
176
     1
 90
        0
176
     1
 62
    18
420
        0
176
     1
 90
       50
176
     1
 90
        3
176
     1
 62
     5
420
      255
176
     1
290
     0
176
     1
 90
       50
176
     1
 90
       50
176
     1
 90
       50
176
     1
290
     0
176
     1
 90
       50
176
     1
 62
   256
176
     0
 40
1.0
176
     0
 90
        2
176
     1
  1
strokes_ogs.tif
176
     1
290
     0
176
     1
 40
1.0
176
     1
 40
1.0
176
     1
1001
ACAD
1000
AcDbSavedByObjectVersion
1070
     0
  0
VISUALSTYLE
  5
2C
102
{ACAD_REACTORS
330
29
102
}
330
29
100
AcDbVisualStyle
  2
Gouraud
 70
     2
177
     3
291
     1
 70
    58
 90
        2
176
     1
 90
        2
176
     1
 90
        1
176
     1
 90
        2
176
     1
 40
0.6
176
     1
 40
30.0
176
     1
 62
     7
420
 16777215
176
     1
 90
        0
176
     1
 90
        0
176
     1
 62
     7
176
     1
 62
   257
176
     1
 90
        1
176
     1
 90
        1
176
     1
 40
1.0
176
     1
 90
        0
176
     1
 62
     7
176
     1
 40
1.0
176
     1
 90
        1
176
     1
 90
        6
176
     1
 90
        2
176
     1
 62
     7
176
     1
 90
        5
176
     1
 90
        0
176
     1
 90
        0
176
     1
290
     0
176
     1
 90
       13
176
     1
 40
0.0
176
     1
 90
        0
176
     1
290
     0
176
     1
290
     1
176
     1
290
     1
176
     1
290
     0
176
     1
290
     0
176
     1
290
     0
176
     1
290
     0
176
     1
290
     0
176
     1
290
     0
176
     1
 90
       50
176
     1
 40
0.0
176
     1
 40
1.0
176
     1
 90
        0
176
     1
 62
    18
420
        0
176
     1
 90
       50
176
     1
 90
        3
176
     1
 62
     5
420
      255
176
     1
290
     0
176
     1
 90
       50
176
     1
 90
       50
176
     1
 90
       50
176
     1
290
     0
176
     1
 90
       50
176
     1
 62
   256
176
     0
 40
1.0
176
     0
 90
        2
176
     1
  1
strokes_ogs.tif
176
     1
290
     0
176
     1
 40
1.0
176
     1
 40
1.0
176
     1
1001
ACAD
1000
AcDbSavedByObjectVersion
1070
     0
  0
VISUALSTYLE
  5
2D
102
{ACAD_REACTORS
330
29
102
}
330
29
100
AcDbVisualStyle
  2
GouraudWithEdges
 70
     3
177
     3
291
     1
 70
    58
 90
        2
176
     1
 90
        2
176
     1
 90
        1
176
     1
 90
        2
176
     1
 40
0.6
176
     1
 40
30.0
176
     1
 62
     7
420
 16777215
176
     1
 90
        1
176
     1
 90
        0
176
     1
 62
     7
176
     1
 62
   257
176
     1
 90
        1
176
     1
 90
        1
176
     1
 40
1.0
176
     1
 90
        0
176
     1
 62
   257
176
     1
 40
1.0
176
     1
 90
        1
176
     1
 90
        6
176
     1
 90
        2
176
     1
 62
     7
176
     1
 90
        5
176
     1
 90
        0
176
     1
 90
        0
176
     1
290
     0
176
     1
 90
       13
176
     1
 40
0.0
176
     1
 90
        0
176
     1
290
     0
176
     1
290
     1
176
     1
290
     1
176
     1
290
     0
176
     1
290
     0
176
     1
290
     0
176
     1
290
     0
176
     1
290
     0
176
     1
290
     0
176
     1
 90
       50
176
     1
 40
0.0
176
     1
 40
1.0
176
     1
 90
        0
176
     1
 62
    18
420
        0
176
     1
 90
       50
176
     1
 90
        3
176
     1
 62
     5
420
      255
176
     1
290
     0
176
     1
 90
       50
176
     1
 90
       50
176
     1
 90
       50
176
     1
290
     0
176
     1
 90
       50
176
     1
 62
   256
176
     0
 40
1.0
176
     0
 90
        2
176
     1
  1
strokes_ogs.tif
176
     1
290
     0
176
     1
 40
1.0
176
     1
 40
1.0
176
     1
1001
ACAD
1000
AcDbSavedByObjectVersion
1070
     0
  0
VISUALSTYLE
  5
31
102
{ACAD_REACTORS
330
29
102
}
330
29
100
AcDbVisualStyle
  2
Hidden
 70
     6
177
     3
291
     0
 70
    58
 90
        1
176
     1
 90
        2
176
     1
 90
        2
176
     1
 90
        0
176
     1
 40
0.6
176
     1
 40
30.0
176
     1
 62
     7
420
 16777215
176
     1
 90
        2
176
     1
 90
        2
176
     1
 62
     7
176
     1
 62
   257
176
     1
 90
        2
176
     1
 90
        1
176
     1
 40
40.0
176
     1
 90
        0
176
     1
 62
   257
176
     1
 40
1.0
176
     1
 90
        1
176
     1
 90
        6
176
     1
 90
        2
176
     1
 62
     7
176
     1
 90
        3
176
     1
 90
        0
176
     1
 90
        0
176
     1
290
     0
176
     1
 90
        1
176
     1
 40
0.0
176
     1
 90
        0
176
     1
290
     0
176
     1
290
     1
176
     1
290
     1
176
     1
290
     0
176
     1
290
     0
176
     1
290
     0
176
     1
290
     0
176
     1
290
     0
176
     1
290
     0
176
     1
 90
       50
176
     1
 40
0.0
176
     1
 40
1.0
176
     1
 90
        0
176
     1
 62
    18
420
        0
176
     1
 90
       50
176
     1
 90
        3
176
     1
 62
     5
420
      255
176
     1
290
     0
176
     1
 90
       50
176
     1
 90
       50
176
     1
 90
       50
176
     1
290
     0
176
     1
 90
       50
176
     1
 62
   256
176
     0
 40
1.0
176
     0
 90
        2
176
     1
  1
strokes_ogs.tif
176
     1
290
     0
176
     1
 40
1.0
176
     1
 40
1.0
176
     1
1001
ACAD
1000
AcDbSavedByObjectVersion
1070
     0
  0
VISUALSTYLE
  5
3F
102
{ACAD_REACTORS
330
29
102
}
330
29
100
AcDbVisualStyle
  2
JitterOff
 70
    20
177
     3
291
     1
 70
    58
 90
        2
176
     0
 90
        2
176
     0
 90
        0
176
     0
 90
        0
176
     0
 40
0.6
176
     0
 40
30.0
176
     0
 62
     7
420
 16777215
176
     0
 90
        1
176
     0
 90
        4
176
     0
 62
     7
176
     0
 62
   257
176
     0
 90
        1
176
     0
 90
        1
176
     0
 40
1.0
176
     0
 90
       10
176
     2
 62
     7
176
     0
 40
1.0
176
     0
 90
        1
176
     0
 90
        6
176
     0
 90
        2
176
     0
 62
     7
176
     0
 90
        5
176
     0
 90
        0
176
     0
 90
        0
176
     0
290
     0
176
     0
 90
        1
176
     0
 40
0.0
176
     0
 90
        0
176
     0
290
     0
176
     0
290
     1
176
     0
290
     1
176
     0
290
     0
176
     0
290
     0
176
     0
290
     0
176
     0
290
     0
176
     0
290
     0
176
     0
290
     0
176
     0
 90
       50
176
     0
 40
0.0
176
     0
 40
1.0
176
     0
 90
        0
176
     0
 62
    18
420
        0
176
     0
 90
       50
176
     0
 90
        3
176
     0
 62
     5
420
      255
176
     0
290
     0
176
     0
 90
       50
176
     0
 90
       50
176
     0
 90
       50
176
     0
290
     0
176
     0
 90
       50
176
     0
 62
   256
176
     0
 40
1.0
176
     0
 90
        2
176
     0
  1
strokes_ogs.tif
176
     0
290
     0
176
     0
 40
1.0
176
     0
 40
1.0
176
     0
1001
ACAD
1000
AcDbSavedByObjectVersion
1070
     0
  0
VISUALSTYLE
  5
37
102
{ACAD_REACTORS
330
29
102
}
330
29
100
AcDbVisualStyle
  2
Linepattern
 70
    14
177
     3
291
     1
 70
    58
 90
        2
176
     1
 90
        2
176
     1
 90
        0
176
     1
 90
        0
176
     1
 40
0.6
176
     1
 40
30.0
176
     1
 62
     7
420
 16777215
176
     1
 90
        1
176
     1
 90
        4
176
     1
 62
     7
176
     1
 62
   257
176
     1
 90
        7
176
     1
 90
        7
176
     1
 40
1.0
176
     1
 90
        8
176
     1
 62
     7
176
     1
 40
1.0
176
     1
 90
        1
176
     1
 90
        6
176
     1
 90
        2
176
     1
 62
     7
176
     1
 90
        5
176
     1
 90
        0
176
     1
 90
        0
176
     1
290
     0
176
     1
 90
        1
176
     1
 40
0.0
176
     1
 90
        0
176
     1
290
     0
176
     1
290
     1
176
     1
290
     1
176
     1
290
     0
176
     1
290
     0
176
     1
290
     0
176
     1
290
     0
176
     1
290
     0
176
     1
290
     0
176
     1
 90
       50
176
     1
 40
0.0
176
     1
 40
1.0
176
     1
 90
        0
176
     1
 62
    18
420
        0
176
     1
 90
       50
176
     1
 90
        3
176
     1
 62
     5
420
      255
176
     1
290
     0
176
     1
 90
       50
176
     1
 90
       50
176
     1
 90
       50
176
     1
290
     0
176
     1
 90
       50
176
     1
 62
   256
176
     0
 40
1.0
176
     0
 90
        2
176
     1
  1
strokes_ogs.tif
176
     1
290
     0
176
     1
 40
1.0
176
     1
 40
1.0
176
     1
1001
ACAD
1000
AcDbSavedByObjectVersion
1070
     0
  0
VISUALSTYLE
  5
40
102
{ACAD_REACTORS
330
29
102
}
330
29
100
AcDbVisualStyle
  2
OverhangOff
 70
    21
177
     3
291
     1
 70
    58
 90
        2
176
     0
 90
        2
176
     0
 90
        0
176
     0
 90
        0
176
     0
 40
0.6
176
     0
 40
30.0
176
     0
 62
     7
420
 16777215
176
     0
 90
        1
176
     0
 90
        4
176
     0
 62
     7
176
     0
 62
   257
176
     0
 90
        1
176
     0
 90
        1
176
     0
 40
1.0
176
     0
 90
        9
176
     2
 62
     7
176
     0
 40
1.0
176
     0
 90
        1
176
     0
 90
        6
176
     0
 90
        2
176
     0
 62
     7
176
     0
 90
        5
176
     0
 90
        0
176
     0
 90
        0
176
     0
290
     0
176
     0
 90
        1
176
     0
 40
0.0
176
     0
 90
        0
176
     0
290
     0
176
     0
290
     1
176
     0
290
     1
176
     0
290
     0
176
     0
290
     0
176
     0
290
     0
176
     0
290
     0
176
     0
290
     0
176
     0
290
     0
176
     0
 90
       50
176
     0
 40
0.0
176
     0
 40
1.0
176
     0
 90
        0
176
     0
 62
    18
420
        0
176
     0
 90
       50
176
     0
 90
        3
176
     0
 62
     5
420
      255
176
     0
290
     0
176
     0
 90
       50
176
     0
 90
       50
176
     0
 90
       50
176
     0
290
     0
176
     0
 90
       50
176
     0
 62
   256
176
     0
 40
1.0
176
     0
 90
        2
176
     0
  1
strokes_ogs.tif
176
     0
290
     0
176
     0
 40
1.0
176
     0
 40
1.0
176
     0
1001
ACAD
1000
AcDbSavedByObjectVersion
1070
     0
  0
VISUALSTYLE
  5
33
102
{ACAD_REACTORS
330
29
102
}
330
29
100
AcDbVisualStyle
  2
Realistic
 70
     8
177
     3
291
     0
 70
    58
 90
        2
176
     1
 90
        3
176
     1
 90
        0
176
     1
 90
        2
176
     1
 40
0.6
176
     1
 40
30.0
176
     1
 62
     7
420
 16777215
176
     1
 90
        0
176
     1
 90
        0
176
     1
 62
     7
176
     1
 62
   257
176
     1
 90
        1
176
     1
 90
        1
176
     1
 40
1.0
176
     1
 90
        8
176
     1
 62
   257
176
     1
 40
1.0
176
     1
 90
        1
176
     1
 90
        6
176
     1
 90
        2
176
     1
 62
     7
176
     1
 90
        3
176
     1
 90
        0
176
     1
 90
        0
176
     1
290
     0
176
     1
 90
       13
176
     1
 40
0.0
176
     1
 90
        0
176
     1
290
     0
176
     1
290
     1
176
     1
290
     1
176
     1
290
     0
176
     1
290
     0
176
     1
290
     0
176
     1
290
     0
176
     1
290
     0
176
     1
290
     0
176
     1
 90
       50
176
     1
 40
0.0
176
     1
 40
1.0
176
     1
 90
        0
176
     1
 62
    18
420
        0
176
     1
 90
       50
176
     1
 90
        3
176
     1
 62
     5
420
      255
176
     1
290
     0
176
     1
 90
       50
176
     1
 90
       50
176
     1
 90
       50
176
     1
290
     0
176
     1
 90
       50
176
     1
 62
   256
176
     0
 40
1.0
176
     0
 90
        2
176
     1
  1
strokes_ogs.tif
176
     1
290
     0
176
     1
 40
1.0
176
     1
 40
1.0
176
     1
1001
ACAD
1000
AcDbSavedByObjectVersion
1070
     0
  0
VISUALSTYLE
  5
3E
102
{ACAD_REACTORS
330
29
102
}
330
29
100
AcDbVisualStyle
  2
Shaded
 70
    27
177
     3
291
     0
 70
    58
 90
        2
176
     1
 90
        2
176
     1
 90
        1
176
     1
 90
        2
176
     1
 40
0.6
176
     1
 40
30.0
176
     1
 62
     7
420
 16777215
176
     1
 90
        0
176
     1
 90
        4
176
     1
 62
     7
176
     1
 62
   257
176
     1
 90
        1
176
     1
 90
        1
176
     1
 40
1.0
176
     1
 90
        8
176
     1
 62
   257
176
     1
 40
1.0
176
     1
 90
        1
176
     1
 90
        6
176
     1
 90
        2
176
     1
 62
     8
420
  7895160
176
     1
 90
        3
176
     1
 90
        0
176
     1
 90
        0
176
     1
290
     0
176
     1
 90
        5
176
     1
 40
0.0
176
     1
 90
        0
176
     1
290
     0
176
     1
290
     1
176
     1
290
     1
176
     1
290
     0
176
     1
290
     0
176
     1
290
     0
176
     1
290
     0
176
     1
290
     0
176
     1
290
     0
176
     1
 90
       50
176
     1
 40
0.0
176
     1
 40
1.0
176
     1
 90
        0
176
     1
 62
    18
420
        0
176
     1
 90
       50
176
     1
 90
        3
176
     1
 62
     5
420
      255
176
     1
290
     0
176
     1
 90
       50
176
     1
 90
       50
176
     1
 90
       50
176
     1
290
     0
176
     1
 90
       50
176
     1
 62
   256
176
     0
 40
1.0
176
     0
 90
        2
176
     1
  1
strokes_ogs.tif
176
     1
290
     0
176
     1
 40
1.0
176
     1
 40
1.0
176
     1
1001
ACAD
1000
AcDbSavedByObjectVersion
1070
     0
  0
VISUALSTYLE
  5
3D
102
{ACAD_REACTORS
330
29
102
}
330
29
100
AcDbVisualStyle
  2
Shaded with edges
 70
    26
177
     3
291
     0
 70
    58
 90
        2
176
     1
 90
        2
176
     1
 90
        1
176
     1
 90
        2
176
     1
 40
0.6
176
     1
 40
30.0
176
     1
 62
     7
420
 16777215
176
     1
 90
        1
176
     1
 90
        2
176
     1
 62
     7
176
     1
 62
   257
176
     1
 90
        2
176
     1
 90
        1
176
     1
 40
1.0
176
     1
 90
        8
176
     1
 62
   257
176
     1
 40
1.0
176
     1
 90
        1
176
     1
 90
        6
176
     1
 90
        2
176
     1
 62
     7
176
     1
 90
        3
176
     1
 90
        0
176
     1
 90
        0
176
     1
290
     0
176
     1
 90
        5
176
     1
 40
0.0
176
     1
 90
        0
176
     1
290
     0
176
     1
290
     1
176
     1
290
     1
176
     1
290
     0
176
     1
290
     0
176
     1
290
     0
176
     1
290
     0
176
     1
290
     0
176
     1
290
     0
176
     1
 90
       50
176
     1
 40
0.0
176
     1
 40
1.0
176
     1
 90
        0
176
     1
 62
    18
420
        0
176
     1
 90
       50
176
     1
 90
        3
176
     1
 62
     5
420
      255
176
     1
290
     0
176
     1
 90
       50
176
     1
 90
       50
176
     1
 90
       50
176
     1
290
     0
176
     1
 90
       50
176
     1
 62
   256
176
     0
 40
1.0
176
     0
 90
        2
176
     1
  1
strokes_ogs.tif
176
     1
290
     0
176
     1
 40
1.0
176
     1
 40
1.0
176
     1
1001
ACAD
1000
AcDbSavedByObjectVersion
1070
     0
  0
VISUALSTYLE
  5
3A
102
{ACAD_REACTORS
330
29
102
}
330
29
100
AcDbVisualStyle
  2
Shades of Gray
 70
    23
177
     3
291
     0
 70
    58
 90
        2
176
     1
 90
        2
176
     1
 90
        3
176
     1
 90
        0
176
     1
 40
0.6
176
     1
 40
30.0
176
     1
 62
     7
420
 16777215
176
     1
 90
        2
176
     1
 90
        2
176
     1
 62
     7
176
     1
 62
     7
176
     1
 90
        1
176
     1
 90
        1
176
     1
 40
40.0
176
     1
 90
        8
176
     1
 62
     7
176
     1
 40
1.0
176
     1
 90
        1
176
     1
 90
        6
176
     1
 90
        2
176
     1
 62
     7
176
     1
 90
        3
176
     1
 90
        0
176
     1
 90
        0
176
     1
290
     0
176
     1
 90
        1
176
     1
 40
0.0
176
     1
 90
        0
176
     1
290
     0
176
     1
290
     1
176
     1
290
     1
176
     1
290
     0
176
     1
290
     0
176
     1
290
     0
176
     1
290
     0
176
     1
290
     0
176
     1
290
     0
176
     1
 90
       50
176
     1
 40
0.0
176
     1
 40
1.0
176
     1
 90
        0
176
     1
 62
    18
420
        0
176
     1
 90
       50
176
     1
 90
        3
176
     1
 62
     5
420
      255
176
     1
290
     0
176
     1
 90
       50
176
     1
 90
       50
176
     1
 90
       50
176
     1
290
     0
176
     1
 90
       50
176
     1
 62
   256
176
     0
 40
1.0
176
     0
 90
        2
176
     1
  1
strokes_ogs.tif
176
     1
290
     0
176
     1
 40
1.0
176
     1
 40
1.0
176
     1
1001
ACAD
1000
AcDbSavedByObjectVersion
1070
     0
  0
VISUALSTYLE
  5
3B
102
{ACAD_REACTORS
330
29
102
}
330
29
100
AcDbVisualStyle
  2
Sketchy
 70
    24
177
     3
291
     0
 70
    58
 90
        1
176
     1
 90
        2
176
     1
 90
        2
176
     1
 90
        0
176
     1
 40
0.6
176
     1
 40
30.0
176
     1
 62
     7
420
 16777215
176
     1
 90
        2
176
     1
 90
        2
176
     1
 62
     7
176
     1
 62
     7
176
     1
 90
        1
176
     1
 90
        1
176
     1
 40
40.0
176
     1
 90
       11
176
     1
 62
     7
176
     1
 40
1.0
176
     1
 90
        1
176
     1
 90
        6
176
     1
 90
        2
176
     1
 62
     7
176
     1
 90
        6
176
     1
 90
        0
176
     1
 90
        0
176
     1
290
     0
176
     1
 90
        1
176
     1
 40
0.0
176
     1
 90
        0
176
     1
290
     0
176
     1
290
     1
176
     1
290
     1
176
     1
290
     0
176
     1
290
     0
176
     1
290
     0
176
     1
290
     0
176
     1
290
     0
176
     1
290
     0
176
     1
 90
       50
176
     1
 40
0.0
176
     1
 40
1.0
176
     1
 90
        0
176
     1
 62
    18
420
        0
176
     1
 90
       50
176
     1
 90
        3
176
     1
 62
     5
420
      255
176
     1
290
     0
176
     1
 90
       50
176
     1
 90
       50
176
     1
 90
       50
176
     1
290
     0
176
     1
 90
       50
176
     1
 62
   256
176
     0
 40
1.0
176
     0
 90
        2
176
     1
  1
strokes_ogs.tif
176
     1
290
     0
176
     1
 40
1.0
176
     1
 40
1.0
176
     1
1001
ACAD
1000
AcDbSavedByObjectVersion
1070
     0
  0
VISUALSTYLE
  5
36
102
{ACAD_REACTORS
330
29
102
}
330
29
100
AcDbVisualStyle
  2
Thicken
 70
    13
177
     3
291
     1
 70
    58
 90
        2
176
     1
 90
        2
176
     1
 90
        0
176
     1
 90
        0
176
     1
 40
0.6
176
     1
 40
30.0
176
     1
 62
     7
420
 16777215
176
     1
 90
        1
176
     1
 90
        4
176
     1
 62
     7
176
     1
 62
   257
176
     1
 90
        1
176
     1
 90
        1
176
     1
 40
1.0
176
     1
 90
       12
176
     1
 62
     7
176
     1
 40
1.0
176
     1
 90
        1
176
     1
 90
        6
176
     1
 90
        2
176
     1
 62
     7
176
     1
 90
        5
176
     1
 90
        0
176
     1
 90
        0
176
     1
290
     0
176
     1
 90
        1
176
     1
 40
0.0
176
     1
 90
        0
176
     1
290
     0
176
     1
290
     1
176
     1
290
     1
176
     1
290
     0
176
     1
290
     0
176
     1
290
     0
176
     1
290
     0
176
     1
290
     0
176
     1
290
     0
176
     1
 90
       50
176
     1
 40
0.0
176
     1
 40
1.0
176
     1
 90
        0
176
     1
 62
    18
420
        0
176
     1
 90
       50
176
     1
 90
        3
176
     1
 62
     5
420
      255
176
     1
290
     0
176
     1
 90
       50
176
     1
 90
       50
176
     1
 90
       50
176
     1
290
     0
176
     1
 90
       50
176
     1
 62
   256
176
     0
 40
1.0
176
     0
 90
        2
176
     1
  1
strokes_ogs.tif
176
     1
290
     0
176
     1
 40
1.0
176
     1
 40
1.0
176
     1
1001
ACAD
1000
AcDbSavedByObjectVersion
1070
     0
  0
VISUALSTYLE
  5
30
102
{ACAD_REACTORS
330
29
102
}
330
29
100
AcDbVisualStyle
  2
Wireframe
 70
     5
177
     3
291
     0
 70
    58
 90
        0
176
     1
 90
        2
176
     1
 90
        0
176
     1
 90
        0
176
     1
 40
0.6
176
     1
 40
30.0
176
     1
 62
     7
420
 16777215
176
     1
 90
        1
176
     1
 90
        4
176
     1
 62
     7
176
     1
 62
   257
176
     1
 90
        1
176
     1
 90
        1
176
     1
 40
1.0
176
     1
 90
        0
176
     1
 62
   257
176
     1
 40
1.0
176
     1
 90
        1
176
     1
 90
        6
176
     1
 90
        2
176
     1
 62
     7
176
     1
 90
        3
176
     1
 90
        0
176
     1
 90
        0
176
     1
290
     0
176
     1
 90
        1
176
     1
 40
0.0
176
     1
 90
        0
176
     1
290
     0
176
     1
290
     1
176
     1
290
     1
176
     1
290
     0
176
     1
290
     0
176
     1
290
     0
176
     1
290
     0
176
     1
290
     0
176
     1
290
     0
176
     1
 90
       50
176
     1
 40
0.0
176
     1
 40
1.0
176
     1
 90
        0
176
     1
 62
    18
420
        0
176
     1
 90
       50
176
     1
 90
        3
176
     1
 62
     5
420
      255
176
     1
290
     0
176
     1
 90
       50
176
     1
 90
       50
176
     1
 90
       50
176
     1
290
     0
176
     1
 90
       50
176
     1
 62
   256
176
     0
 40
1.0
176
     0
 90
        2
176
     1
  1
strokes_ogs.tif
176
     1
290
     0
176
     1
 40
1.0
176
     1
 40
1.0
176
     1
1001
ACAD
1000
AcDbSavedByObjectVersion
1070
     0
  0
VISUALSTYLE
  5
3C
102
{ACAD_REACTORS
330
29
102
}
330
29
100
AcDbVisualStyle
  2
X-Ray
 70
    25
177
     3
291
     0
 70
    58
 90
        2
176
     1
 90
        2
176
     1
 90
        1
176
     1
 90
        1
176
     1
 40
0.5
176
     1
 40
30.0
176
     1
 62
     7
420
 16777215
176
     1
 90
        1
176
     1
 90
        0
176
     1
 62
     7
176
     1
 62
   257
176
     1
 90
        1
176
     1
 90
        1
176
     1
 40
1.0
176
     1
 90
        8
176
     1
 62
     7
176
     1
 40
1.0
176
     1
 90
        1
176
     1
 90
        6
176
     1
 90
        2
176
     1
 62
     7
176
     1
 90
        3
176
     1
 90
        0
176
     1
 90
        0
176
     1
290
     0
176
     1
 90
       13
176
     1
 40
0.0
176
     1
 90
        0
176
     1
290
     0
176
     1
290
     1
176
     1
290
     1
176
     1
290
     0
176
     1
290
     0
176
     1
290
     0
176
     1
290
     0
176
     1
290
     0
176
     1
290
     0
176
     1
 90
       50
176
     1
 40
0.0
176
     1
 40
1.0
176
     1
 90
        0
176
     1
 62
    18
420
        0
176
     1
 90
       50
176
     1
 90
        3
176
     1
 62
     5
420
      255
176
     1
290
     0
176
     1
 90
       50
176
     1
 90
       50
176
     1
 90
       50
176
     1
290
     0
176
     1
 90
       50
176
     1
 62
   256
176
     0
 40
1.0
176
     0
 90
        2
176
     1
  1
strokes_ogs.tif
176
     1
290
     0
176
     1
 40
1.0
176
     1
 40
1.0
176
     1
1001
ACAD
1000
AcDbSavedByObjectVersion
1070
     0
  0
DICTIONARYVAR
  5
1B1
102
{ACAD_REACTORS
330
1AC
102
}
330
1AC
100
DictionaryVariables
280
     0
  1
1:1
  0
DICTIONARYVAR
  5
1AE
102
{ACAD_REACTORS
330
1AC
102
}
330
1AC
100
DictionaryVariables
280
     0
  1
STANDARD
  0
DICTIONARYVAR
  5
1AD
102
{ACAD_REACTORS
330
1AC
102
}
330
1AC
100
DictionaryVariables
280
     0
  1
STANDARD
  0
DICTIONARYVAR
  5
1AF
102
{ACAD_REACTORS
330
1AC
102
}
330
1AC
100
DictionaryVariables
280
     0
  1
Imperial24
  0
DICTIONARYVAR
  5
1B0
102
{ACAD_REACTORS
330
1AC
102
}
330
1AC
100
DictionaryVariables
280
     0
  1
Imperial24
  0
DICTIONARY
  5
1B7
330
6B
100
AcDbDictionary
280
     1
281
     1
  3
ACAD_XREC_ROUNDTRIP
360
1B8
  0
DICTIONARY
  5
1A
330
19
100
AcDbDictionary
280
     1
281
     1
  3
BUMPTILE
360
1C
  3
DIFFUSETILE
360
1B
  3
OPACITYTILE
360
1F
  3
REFLECTIONTILE
360
1E
  3
REFRACTIONTILE
360
20
  3
SPECULARTILE
360
1D
  0
DICTIONARY
  5
12
330
11
100
AcDbDictionary
280
     1
281
     1
  3
BUMPTILE
360
14
  3
DIFFUSETILE
360
13
  3
OPACITYTILE
360
17
  3
REFLECTIONTILE
360
16
  3
REFRACTIONTILE
360
18
  3
SPECULARTILE
360
15
  0
DICTIONARY
  5
22
330
21
100
AcDbDictionary
280
     1
281
     1
  3
BUMPTILE
360
24
  3
DIFFUSETILE
360
23
  3
OPACITYTILE
360
27
  3
REFLECTIONTILE
360
26
  3
REFRACTIONTILE
360
28
  3
SPECULARTILE
360
25
  0
DICTIONARY
  5
1B5
330
69
100
AcDbDictionary
280
     1
281
     1
  3
ACAD_XREC_ROUNDTRIP
360
1B6
  0
DICTIONARY
  5
1B2
330
65
100
AcDbDictionary
280
     1
281
     1
  3
ACAD_ROUNDTRIP_2008_TABLESTYLE_CELLSTYLEMAP
360
1B3
  0
XRECORD
  5
1B8
102
{ACAD_REACTORS
330
1B7
102
}
330
1B7
100
AcDbXrecord
280
     1
102
DISPLAYNAME
  1
Imperial24
102
FLAGS
 90
        0
  0
XRECORD
  5
1C
102
{ACAD_REACTORS
330
1A
102
}
330
1A
100
AcDbXrecord
280
     1
270
     1
271
     1
  0
XRECORD
  5
1B
102
{ACAD_REACTORS
330
1A
102
}
330
1A
100
AcDbXrecord
280
     1
270
     1
271
     1
  0
XRECORD
  5
1F
102
{ACAD_REACTORS
330
1A
102
}
330
1A
100
AcDbXrecord
280
     1
270
     1
271
     1
  0
XRECORD
  5
1E
102
{ACAD_REACTORS
330
1A
102
}
330
1A
100
AcDbXrecord
280
     1
270
     1
271
     1
  0
XRECORD
  5
20
102
{ACAD_REACTORS
330
1A
102
}
330
1A
100
AcDbXrecord
280
     1
270
     1
271
     1
  0
XRECORD
  5
1D
102
{ACAD_REACTORS
330
1A
102
}
330
1A
100
AcDbXrecord
280
     1
270
     1
271
     1
  0
XRECORD
  5
14
102
{ACAD_REACTORS
330
12
102
}
330
12
100
AcDbXrecord
280
     1
270
     1
271
     1
  0
XRECORD
  5
13
102
{ACAD_REACTORS
330
12
102
}
330
12
100
AcDbXrecord
280
     1
270
     1
271
     1
  0
XRECORD
  5
17
102
{ACAD_REACTORS
330
12
102
}
330
12
100
AcDbXrecord
280
     1
270
     1
271
     1
  0
XRECORD
  5
16
102
{ACAD_REACTORS
330
12
102
}
330
12
100
AcDbXrecord
280
     1
270
     1
271
     1
  0
XRECORD
  5
18
102
{ACAD_REACTORS
330
12
102
}
330
12
100
AcDbXrecord
280
     1
270
     1
271
     1
  0
XRECORD
  5
15
102
{ACAD_REACTORS
330
12
102
}
330
12
100
AcDbXrecord
280
     1
270
     1
271
     1
  0
XRECORD
  5
24
102
{ACAD_REACTORS
330
22
102
}
330
22
100
AcDbXrecord
280
     1
270
     1
271
     1
  0
XRECORD
  5
23
102
{ACAD_REACTORS
330
22
102
}
330
22
100
AcDbXrecord
280
     1
270
     1
271
     1
  0
XRECORD
  5
27
102
{ACAD_REACTORS
330
22
102
}
330
22
100
AcDbXrecord
280
     1
270
     1
271
     1
  0
XRECORD
  5
26
102
{ACAD_REACTORS
330
22
102
}
330
22
100
AcDbXrecord
280
     1
270
     1
271
     1
  0
XRECORD
  5
28
102
{ACAD_REACTORS
330
22
102
}
330
22
100
AcDbXrecord
280
     1
270
     1
271
     1
  0
XRECORD
  5
25
102
{ACAD_REACTORS
330
22
102
}
330
22
100
AcDbXrecord
280
     1
270
     1
271
     1
  0
XRECORD
  5
1B6
102
{ACAD_REACTORS
330
1B5
102
}
330
1B5
100
AcDbXrecord
280
     1
102
DISPLAYNAME
  1
Imperial24
102
FLAGS
 90
        0
  0
CELLSTYLEMAP
  5
1B3
102
{ACAD_REACTORS
330
1B2
102
}
330
1B2
100
AcDbCellStyleMap
 90
        3
300
CELLSTYLE
  1
TABLEFORMAT_BEGIN
 90
        5
170
     1
 91
        0
 92
    32768
 62
   257
 93
        1
300
CONTENTFORMAT
  1
CONTENTFORMAT_BEGIN
 90
        0
 91
        0
 92
      512
 93
        0
300

 40
0.0
140
1.0
 94
        5
 62
     0
340
55
144
0.25
309
CONTENTFORMAT_END
171
     0
 94
        0
309
TABLEFORMAT_END
  1
CELLSTYLE_BEGIN
 90
        1
 91
        1
300
_TITLE
309
CELLSTYLE_END
300
CELLSTYLE
  1
TABLEFORMAT_BEGIN
 90
        5
170
     1
 91
        0
 92
        0
 62
   257
 93
        1
300
CONTENTFORMAT
  1
CONTENTFORMAT_BEGIN
 90
        0
 91
        0
 92
      512
 93
        0
300

 40
0.0
140
1.0
 94
        5
 62
     0
340
55
144
0.18
309
CONTENTFORMAT_END
171
     0
 94
        0
309
TABLEFORMAT_END
  1
CELLSTYLE_BEGIN
 90
        2
 91
        1
300
_HEADER
309
CELLSTYLE_END
300
CELLSTYLE
  1
TABLEFORMAT_BEGIN
 90
        5
170
     1
 91
        0
 92
        0
 62
   257
 93
        1
300
CONTENTFORMAT
  1
CONTENTFORMAT_BEGIN
 90
        0
 91
        0
 92
      512
 93
        0
300

 40
0.0
140
1.0
 94
        2
 62
     0
340
55
144
0.18
309
CONTENTFORMAT_END
171
     0
 94
        0
309
TABLEFORMAT_END
  1
CELLSTYLE_BEGIN
 90
        3
 91
        2
300
_DATA
309
CELLSTYLE_END
  0
ENDSEC
  0
EOF
