  0
SECTION
  2
HEADER
  9
$ACADVER
  1
AC1027
  9
$ACADMAINTVER
 70
   125
  9
$DWGCODEPAGE
  3
ANSI_1252
  9
$REQUIREDVERSIONS
160
                 0
  9
$INSBASE
 10
0.0
 20
0.0
 30
0.0
  9
$EXTMIN
 10
1.000000000000000E+20
 20
1.000000000000000E+20
 30
1.000000000000000E+20
  9
$EXTMAX
 10
-1.000000000000000E+20
 20
-1.000000000000000E+20
 30
-1.000000000000000E+20
  9
$LIMMIN
 10
0.0
 20
0.0
  9
$LIMMAX
 10
12.0
 20
9.0
  9
$ORTHOMODE
 70
     0
  9
$REGENMODE
 70
     1
  9
$FILLMODE
 70
     1
  9
$QTEXTMODE
 70
     0
  9
$MIRRTEXT
 70
     0
  9
$LTSCALE
 40
1.0
  9
$ATTMODE
 70
     1
  9
$TEXTSIZE
 40
0.2
  9
$TRACEWID
 40
0.05
  9
$TEXTSTYLE
  7
Standard
  9
$CLAYER
  8
0
  9
$CELTYPE
  6
ByLayer
  9
$CECOLOR
 62
   256
  9
$CELTSCALE
 40
1.0
  9
$DISPSILH
 70
     0
  9
$DIMSCALE
 40
1.0
  9
$DIMASZ
 40
0.18
  9
$DIMEXO
 40
0.0625
  9
$DIMDLI
 40
0.38
  9
$DIMRND
 40
0.0
  9
$DIMDLE
 40
0.0
  9
$DIMEXE
 40
0.18
  9
$DIMTP
 40
0.0
  9
$DIMTM
 40
0.0
  9
$DIMTXT
 40
0.18
  9
$DIMCEN
 40
0.09
  9
$DIMTSZ
 40
0.0
  9
$DIMTOL
 70
     0
  9
$DIMLIM
 70
     0
  9
$DIMTIH
 70
     1
  9
$DIMTOH
 70
     1
  9
$DIMSE1
 70
     0
  9
$DIMSE2
 70
     0
  9
$DIMTAD
 70
     0
  9
$DIMZIN
 70
     0
  9
$DIMBLK
  1

  9
$DIMASO
 70
     1
  9
$DIMSHO
 70
     1
  9
$DIMPOST
  1

  9
$DIMAPOST
  1

  9
$DIMALT
 70
     0
  9
$DIMALTD
 70
     2
  9
$DIMALTF
 40
25.4
  9
$DIMLFAC
 40
1.0
  9
$DIMTOFL
 70
     0
  9
$DIMTVP
 40
0.0
  9
$DIMTIX
 70
     0
  9
$DIMSOXD
 70
     0
  9
$DIMSAH
 70
     0
  9
$DIMBLK1
  1

  9
$DIMBLK2
  1

  9
$DIMSTYLE
  2
Standard
  9
$DIMCLRD
 70
     0
  9
$DIMCLRE
 70
     0
  9
$DIMCLRT
 70
     0
  9
$DIMTFAC
 40
1.0
  9
$DIMGAP
 40
0.09
  9
$DIMJUST
 70
     0
  9
$DIMSD1
 70
     0
  9
$DIMSD2
 70
     0
  9
$DIMTOLJ
 70
     1
  9
$DIMTZIN
 70
     0
  9
$DIMALTZ
 70
     0
  9
$DIMALTTZ
 70
     0
  9
$DIMUPT
 70
     0
  9
$DIMDEC
 70
     4
  9
$DIMTDEC
 70
     4
  9
$DIMALTU
 70
     2
  9
$DIMALTTD
 70
     2
  9
$DIMTXSTY
  7
Standard
  9
$DIMAUNIT
 70
     0
  9
$DIMADEC
 70
     0
  9
$DIMALTRND
 40
0.0
  9
$DIMAZIN
 70
     0
  9
$DIMDSEP
 70
    46
  9
$DIMATFIT
 70
     3
  9
$DIMFRAC
 70
     0
  9
$DIMLDRBLK
  1

  9
$DIMLUNIT
 70
     2
  9
$DIMLWD
 70
    -2
  9
$DIMLWE
 70
    -2
  9
$DIMTMOVE
 70
     0
  9
$DIMFXL
 40
1.0
  9
$DIMFXLON
 70
     0
  9
$DIMJOGANG
 40
0.7853981633974483
  9
$DIMTFILL
 70
     0
  9
$DIMTFILLCLR
 70
     0
  9
$DIMARCSYM
 70
     0
  9
$DIMLTYPE
  6

  9
$DIMLTEX1
  6

  9
$DIMLTEX2
  6

  9
$DIMTXTDIRECTION
 70
     0
  9
$LUNITS
 70
     2
  9
$LUPREC
 70
     4
  9
$SKETCHINC
 40
0.1
  9
$FILLETRAD
 40
0.0
  9
$AUNITS
 70
     0
  9
$AUPREC
 70
     0
  9
$MENU
  1
.
  9
$ELEVATION
 40
0.0
  9
$PELEVATION
 40
0.0
  9
$THICKNESS
 40
0.0
  9
$LIMCHECK
 70
     0
  9
$CHAMFERA
 40
0.0
  9
$CHAMFERB
 40
0.0
  9
$CHAMFERC
 40
0.0
  9
$CHAMFERD
 40
0.0
  9
$SKPOLY
 70
     0
  9
$TDCREATE
 40
2461216.820173611
  9
$TDUCREATE
 40
2461216.820173611
  9
$TDUPDATE
 40
2461216.820173611
  9
$TDUUPDATE
 40
2461216.820173611
  9
$TDINDWG
 40
0.0000000000
  9
$TDUSRTIMER
 40
0.0000000000
  9
$USRTIMER
 70
     1
  9
$ANGBASE
 50
0.0
  9
$ANGDIR
 70
     0
  9
$PDMODE
 70
     0
  9
$PDSIZE
 40
0.0
  9
$PLINEWID
 40
0.0
  9
$SPLFRAME
 70
     0
  9
$SPLINETYPE
 70
     6
  9
$SPLINESEGS
 70
     8
  9
$HANDSEED
  5
1B7
  9
$SURFTAB1
 70
     6
  9
$SURFTAB2
 70
     6
  9
$SURFTYPE
 70
     6
  9
$SURFU
 70
     6
  9
$SURFV
 70
     6
  9
$UCSBASE
  2

  9
$UCSNAME
  2

  9
$UCSORG
 10
0.0
 20
0.0
 30
0.0
  9
$UCSXDIR
 10
1.0
 20
0.0
 30
0.0
  9
$UCSYDIR
 10
0.0
 20
1.0
 30
0.0
  9
$UCSORTHOREF
  2

  9
$UCSORTHOVIEW
 70
     0
  9
$UCSORGTOP
 10
0.0
 20
0.0
 30
0.0
  9
$UCSORGBOTTOM
 10
0.0
 20
0.0
 30
0.0
  9
$UCSORGLEFT
 10
0.0
 20
0.0
 30
0.0
  9
$UCSORGRIGHT
 10
0.0
 20
0.0
 30
0.0
  9
$UCSORGFRONT
 10
0.0
 20
0.0
 30
0.0
  9
$UCSORGBACK
 10
0.0
 20
0.0
 30
0.0
  9
$PUCSBASE
  2

  9
$PUCSNAME
  2

  9
$PUCSORG
 10
0.0
 20
0.0
 30
0.0
  9
$PUCSXDIR
 10
1.0
 20
0.0
 30
0.0
  9
$PUCSYDIR
 10
0.0
 20
1.0
 30
0.0
  9
$PUCSORTHOREF
  2

  9
$PUCSORTHOVIEW
 70
     0
  9
$PUCSORGTOP
 10
0.0
 20
0.0
 30
0.0
  9
$PUCSORGBOTTOM
 10
0.0
 20
0.0
 30
0.0
  9
$PUCSORGLEFT
 10
0.0
 20
0.0
 30
0.0
  9
$PUCSORGRIGHT
 10
0.0
 20
0.0
 30
0.0
  9
$PUCSORGFRONT
 10
0.0
 20
0.0
 30
0.0
  9
$PUCSORGBACK
 10
0.0
 20
0.0
 30
0.0
  9
$USERI1
 70
     0
  9
$USERI2
 70
     0
  9
$USERI3
 70
     0
  9
$USERI4
 70
     0
  9
$USERI5
 70
     0
  9
$USERR1
 40
0.0
  9
$USERR2
 40
0.0
  9
$USERR3
 40
0.0
  9
$USERR4
 40
0.0
  9
$USERR5
 40
0.0
  9
$WORLDVIEW
 70
     1
  9
$SHADEDGE
 70
     3
  9
$SHADEDIF
 70
    70
  9
$TILEMODE
 70
     1
  9
$MAXACTVP
 70
    64
  9
$PINSBASE
 10
0.0
 20
0.0
 30
0.0
  9
$PLIMCHECK
 70
     0
  9
$PEXTMIN
 10
1.000000000000000E+20
 20
1.000000000000000E+20
 30
1.000000000000000E+20
  9
$PEXTMAX
 10
-1.000000000000000E+20
 20
-1.000000000000000E+20
 30
-1.000000000000000E+20
  9
$PLIMMIN
 10
0.0
 20
0.0
  9
$PLIMMAX
 10
12.0
 20
9.0
  9
$UNITMODE
 70
     0
  9
$VISRETAIN
 70
     1
  9
$PLINEGEN
 70
     0
  9
$PSLTSCALE
 70
     1
  9
$TREEDEPTH
 70
  3020
  9
$CMLSTYLE
  2
Standard
  9
$CMLJUST
 70
     0
  9
$CMLSCALE
 40
1.0
  9
$PROXYGRAPHICS
 70
     1
  9
$MEASUREMENT
 70
     0
  9
$CELWEIGHT
370
    -1
  9
$ENDCAPS
280
     0
  9
$JOINSTYLE
280
     0
  9
$LWDISPLAY
290
     0
  9
$INSUNITS
 70
     5
  9
$HYPERLINKBASE
  1

  9
$STYLESHEET
  1

  9
$XEDIT
290
     1
  9
$CEPSNTYPE
380
     0
  9
$PSTYLEMODE
290
     1
  9
$FINGERPRINTGUID
  2
{A8CC9A70-20C4-054A-89D4-F6D382AF5F09}
  9
$VERSIONGUID
  2
{437FF49C-2831-7944-B349-F2B18E6470BA}
  9
$EXTNAMES
290
     1
  9
$PSVPSCALE
 40
0.0
  9
$OLESTARTUP
290
     0
  9
$SORTENTS
280
   127
  9
$INDEXCTL
280
     0
  9
$HIDETEXT
280
     1
  9
$XCLIPFRAME
280
     2
  9
$HALOGAP
280
     0
  9
$OBSCOLOR
 70
   257
  9
$OBSLTYPE
280
     0
  9
$INTERSECTIONDISPLAY
280
     0
  9
$INTERSECTIONCOLOR
 70
   257
  9
$DIMASSOC
280
     2
  9
$PROJECTNAME
  1

  9
$CAMERADISPLAY
290
     0
  9
$LENSLENGTH
 40
50.0
  9
$CAMERAHEIGHT
 40
0.0
  9
$STEPSPERSEC
 40
2.0
  9
$STEPSIZE
 40
6.0
  9
$3DDWFPREC
 40
2.0
  9
$PSOLWIDTH
 40
0.25
  9
$PSOLHEIGHT
 40
4.0
  9
$LOFTANG1
 40
1.570796326794896
  9
$LOFTANG2
 40
1.570796326794896
  9
$LOFTMAG1
 40
0.0
  9
$LOFTMAG2
 40
0.0
  9
$LOFTPARAM
 70
     7
  9
$LOFTNORMALS
280
     1
  9
$LATITUDE
 40
37.795
  9
$LONGITUDE
 40
-122.394
  9
$NORTHDIRECTION
 40
0.0
  9
$TIMEZONE
 70
 -8000
  9
$LIGHTGLYPHDISPLAY
280
     1
  9
$TILEMODELIGHTSYNCH
280
     1
  9
$CMATERIAL
347
11
  9
$SOLIDHIST
280
     0
  9
$SHOWHIST
280
     1
  9
$DWFFRAME
280
     2
  9
$DGNFRAME
280
     0
  9
$REALWORLDSCALE
290
     1
  9
$INTERFERECOLOR
 62
     1
  9
$INTERFEREOBJVS
345
33
  9
$INTERFEREVPVS
346
30
  9
$CSHADOW
280
     0
  9
$SHADOWPLANELOCATION
 40
0.0
  0
ENDSEC
  0
SECTION
  2
CLASSES
  0
CLASS
  1
ACDBDICTIONARYWDFLT
  2
AcDbDictionaryWithDefault
  3
ObjectDBX Classes
 90
        0
 91
        1
280
     0
281
     0
  0
CLASS
  1
MATERIAL
  2
AcDbMaterial
  3
ObjectDBX Classes
 90
     1153
 91
        3
280
     0
281
     0
  0
CLASS
  1
VISUALSTYLE
  2
AcDbVisualStyle
  3
ObjectDBX Classes
 90
     4095
 91
       24
280
     0
281
     0
  0
CLASS
  1
SCALE
  2
AcDbScale
  3
ObjectDBX Classes
 90
     1153
 91
       17
280
     0
281
     0
  0
CLASS
  1
TABLESTYLE
  2
AcDbTableStyle
  3
ObjectDBX Classes
 90
     4095
 91
        1
280
     0
281
     0
  0
CLASS
  1
MLEADERSTYLE
  2
AcDbMLeaderStyle
  3
ACDB_MLEADERSTYLE_CLASS
 90
     4095
 91
        1
280
     0
281
     0
  0
CLASS
  1
ACDBSECTIONVIEWSTYLE
  2
AcDbSectionViewStyle
  3
ObjectDBX Classes
 90
     1025
 91
        1
280
     0
281
     0
  0
CLASS
  1
ACDBDETAILVIEWSTYLE
  2
AcDbDetailViewStyle
  3
ObjectDBX Classes
 90
     1025
 91
        1
280
     0
281
     0
  0
CLASS
  1
DICTIONARYVAR
  2
AcDbDictionaryVar
  3
ObjectDBX Classes
 90
        0
 91
        5
280
     0
281
     0
  0
CLASS
  1
CELLSTYLEMAP
  2
AcDbCellStyleMap
  3
ObjectDBX Classes
 90
     1152
 91
        1
280
     0
281
     0
  0
ENDSEC
  0
SECTION
  2
TABLES
  0
TABLE
  2
VPORT
  5
8
330
0
100
AcDbSymbolTable
 70
     1
1001
ACAD
1000
DbSaveVer
1071
      471
  0
VPORT
  5
57
330
8
100
AcDbSymbolTableRecord
100
AcDbViewportTableRecord
  2
*Active
 70
     0
 10
0.0
 20
0.0
 11
1.0
 21
1.0
 12
500.0
 22
500.0
 13
0.0
 23
0.0
 14
1.0
 24
1.0
 15
0.0
 25
0.0
 16
0.0
 26
0.0
 36
1.0
 17
0.0
 27
0.0
 37
0.0
 40
12.0
 41
1.0
 42
50.0
 43
0.0
 44
0.0
 50
0.0
 51
0.0
 71
     0
 72
   100
 73
     1
 74
     1
 75
     0
 76
     0
 77
     0
 78
     0
281
     0
 65
     1
110
0.0
120
0.0
130
0.0
111
1.0
121
0.0
131
0.0
112
0.0
122
1.0
132
0.0
 79
     0
146
0.0
 60
     3
 61
     5
292
     1
282
     1
141
0.0
142
0.0
 63
   250
421
  3355443
  0
ENDTAB
  0
TABLE
  2
LTYPE
  5
5
330
0
100
AcDbSymbolTable
 70
     1
  0
LTYPE
  5
5B
330
5
100
AcDbSymbolTableRecord
100
AcDbLinetypeTableRecord
  2
ByBlock
 70
     0
  3

 72
    65
 73
     0
 40
0.0
  0
LTYPE
  5
5C
330
5
100
AcDbSymbolTableRecord
100
AcDbLinetypeTableRecord
  2
ByLayer
 70
     0
  3

 72
    65
 73
     0
 40
0.0
  0
LTYPE
  5
5D
330
5
100
AcDbSymbolTableRecord
100
AcDbLinetypeTableRecord
  2
Continuous
 70
     0
  3
Solid line
 72
    65
 73
     0
 40
0.0
  0
ENDTAB
  0
TABLE
  2
LAYER
  5
2
330
0
100
AcDbSymbolTable
 70
     2
  0
LAYER
  5
54
330
2
100
AcDbSymbolTableRecord
100
AcDbLayerTableRecord
  2
0
 70
     0
 62
     7
  6
Continuous
370
    -3
390
F
347
21
348
0
  0
LAYER
  5
7A
330
2
100
AcDbSymbolTableRecord
100
AcDbLayerTableRecord
  2
2 v3_Sketch1
 70
     0
 62
     7
  6
Continuous
370
    -3
390
F
347
21
348
0
1001
NFusion_SketchTransform
1000
1.000000;0.000000;0.000000;0.000000;0.000000;1.000000;0.000000;0.000000;0.000000;0.000000;1.000000;0.000000;0.000000;0.000000;0.000000;1.000000
  0
ENDTAB
  0
TABLE
  2
STYLE
  5
3
330
0
100
AcDbSymbolTable
 70
     2
  0
STYLE
  5
55
330
3
100
AcDbSymbolTableRecord
100
AcDbTextStyleTableRecord
  2
Standard
 70
     0
 40
0.0
 41
1.0
 50
0.0
 71
     0
 42
0.2
  3
txt
  4

  0
STYLE
  5
5A
330
3
100
AcDbSymbolTableRecord
100
AcDbTextStyleTableRecord
  2
Annotative
 70
     0
 40
0.0
 41
1.0
 50
0.0
 71
     0
 42
0.2
  3
txt
  4

1001
AcadAnnotative
1000
AnnotativeData
1002
{
1070
     1
1070
     1
1002
}
  0
ENDTAB
  0
TABLE
  2
VIEW
  5
6
330
0
100
AcDbSymbolTable
 70
     0
  0
ENDTAB
  0
TABLE
  2
UCS
  5
7
330
0
100
AcDbSymbolTable
 70
     0
  0
ENDTAB
  0
TABLE
  2
APPID
  5
9
330
0
100
AcDbSymbolTable
 70
     4
  0
APPID
  5
56
330
9
100
AcDbSymbolTableRecord
100
AcDbRegAppTableRecord
  2
ACAD
 70
     0
  0
APPID
  5
5E
330
9
100
AcDbSymbolTableRecord
100
AcDbRegAppTableRecord
  2
AcadAnnotative
 70
     0
  0
APPID
  5
78
330
9
100
AcDbSymbolTableRecord
100
AcDbRegAppTableRecord
  2
EDIT_IN_FUSION_ACAD_ADDIN
 70
     0
  0
APPID
  5
79
330
9
100
AcDbSymbolTableRecord
100
AcDbRegAppTableRecord
  2
NFusion_SketchTransform
 70
     0
  0
ENDTAB
  0
TABLE
  2
DIMSTYLE
  5
A
330
0
100
AcDbSymbolTable
 70
     2
100
AcDbDimStyleTable
 71
     0
  0
DIMSTYLE
105
58
330
A
100
AcDbSymbolTableRecord
100
AcDbDimStyleTableRecord
  2
Standard
 70
     0
340
55
  0
DIMSTYLE
105
59
330
A
100
AcDbSymbolTableRecord
100
AcDbDimStyleTableRecord
  2
Annotative
 70
     0
340
55
1001
AcadAnnotative
1000
AnnotativeData
1002
{
1070
     1
1070
     1
1002
}
  0
ENDTAB
  0
TABLE
  2
BLOCK_RECORD
  5
1
330
0
100
AcDbSymbolTable
 70
     1
  0
BLOCK_RECORD
  5
70
330
1
100
AcDbSymbolTableRecord
100
AcDbBlockTableRecord
  2
*Model_Space
340
73
 70
     0
280
     1
281
     0
  0
BLOCK_RECORD
  5
6C
330
1
100
AcDbSymbolTableRecord
100
AcDbBlockTableRecord
  2
*Paper_Space
340
6F
 70
     0
280
     1
281
     0
  0
BLOCK_RECORD
  5
74
330
1
100
AcDbSymbolTableRecord
100
AcDbBlockTableRecord
  2
*Paper_Space0
340
77
 70
     0
280
     1
281
     0
  0
ENDTAB
  0
ENDSEC
  0
SECTION
  2
BLOCKS
  0
BLOCK
  5
71
330
70
100
AcDbEntity
  8
0
100
AcDbBlockBegin
  2
*Model_Space
 70
     0
 10
0.0
 20
0.0
 30
0.0
  3
*Model_Space
  1

  0
ENDBLK
  5
72
330
70
100
AcDbEntity
  8
0
100
AcDbBlockEnd
  0
BLOCK
  5
6D
330
6C
100
AcDbEntity
 67
     1
  8
0
100
AcDbBlockBegin
  2
*Paper_Space
 70
     0
 10
0.0
 20
0.0
 30
0.0
  3
*Paper_Space
  1

  0
ENDBLK
  5
6E
330
6C
100
AcDbEntity
 67
     1
  8
0
100
AcDbBlockEnd
  0
BLOCK
  5
75
330
74
100
AcDbEntity
 67
     1
  8
0
100
AcDbBlockBegin
  2
*Paper_Space0
 70
     0
 10
0.0
 20
0.0
 30
0.0
  3
*Paper_Space0
  1

  0
ENDBLK
  5
76
330
74
100
AcDbEntity
 67
     1
  8
0
100
AcDbBlockEnd
  0
ENDSEC
  0
SECTION
  2
ENTITIES
  0
POINT
  5
7B
330
70
100
AcDbEntity
  8
2 v3_Sketch1
100
AcDbPoint
 10
0.0
 20
0.0
 30
0.0
  0
ARC
  5
7C
330
70
100
AcDbEntity
  8
2 v3_Sketch1
100
AcDbCircle
 10
4.614613861880625
 20
6.600168007848743
 30
0.0
 40
0.1999999999999922
100
AcDbArc
 50
180.0000000197169
 51
270.0000000200797
  0
LINE
  5
7D
330
70
100
AcDbEntity
  8
2 v3_Sketch1
100
AcDbLine
 10
-3.613064947945336
 20
1.416167295925834
 30
0.0
 11
-4.201064962548464
 21
1.416167295925829
 31
0.0
  0
ARC
  5
7E
330
70
100
AcDbEntity
  8
2 v3_Sketch1
100
AcDbCircle
 10
4.614613408010821
 20
-2.19983205089797
 30
0.0
 40
0.1999999999999935
100
AcDbArc
 50
89.99999999999898
 51
180.0
  0
LINE
  5
7F
330
70
100
AcDbEntity
  8
2 v3_Sketch1
100
AcDbLine
 10
-6.335388365982741
 20
5.700168319646842
 30
0.0
 11
-6.335388369326761
 21
5.850168319646842
 31
0.0
  0
LINE
  5
80
330
70
100
AcDbEntity
  8
2 v3_Sketch1
100
AcDbLine
 10
4.564613350641355
 20
-2.799832050897963
 30
0.0
 11
4.414613408010822
 21
-2.19983205089797
 31
0.0
  0
ARC
  5
81
330
70
100
AcDbEntity
  8
2 v3_Sketch1
100
AcDbCircle
 10
-5.735386808266465
 20
6.500168104489256
 30
0.0
 40
0.1999999999999957
100
AcDbArc
 50
359.9999999999995
 51
90.0
  0
ARC
  5
82
330
70
100
AcDbEntity
  8
2 v3_Sketch1
100
AcDbCircle
 10
-5.735386808266465
 20
6.500168104489256
 30
0.0
 40
0.1999999999999957
100
AcDbArc
 50
359.9999999999995
 51
90.0
  0
LINE
  5
83
330
70
100
AcDbEntity
  8
2 v3_Sketch1
100
AcDbLine
 10
4.564613863305821
 20
7.200167685754266
 30
0.0
 11
4.414613861880633
 21
6.600168007779918
 31
0.0
  0
LINE
  5
84
330
70
100
AcDbEntity
  8
2 v3_Sketch1
100
AcDbLine
 10
-6.13538702383407
 20
1.20016754569512
 30
0.0
 11
-6.13538702383407
 21
-0.7998319476647793
 31
0.0
  0
LINE
  5
85
330
70
100
AcDbEntity
  8
2 v3_Sketch1
100
AcDbLine
 10
0.7995985370542354
 20
3.531999799176142
 30
0.0
 11
0.9821060305993167
 21
3.366083895953339
 31
0.0
  0
LINE
  5
86
330
70
100
AcDbEntity
  8
2 v3_Sketch1
100
AcDbLine
 10
1.347121008518831
 20
5.034252119310053
 30
0.0
 11
1.529628502063909
 21
4.868336216087254
 31
0.0
  0
LINE
  5
87
330
70
100
AcDbEntity
  8
2 v3_Sketch1
100
AcDbLine
 10
-5.535386808266469
 20
6.500168104489254
 30
0.0
 11
-5.535386808266466
 21
5.900168089588094
 31
0.0
  0
LINE
  5
88
330
70
100
AcDbEntity
  8
2 v3_Sketch1
100
AcDbLine
 10
4.564613357270637
 20
-2.799832083966147
 30
0.0
 11
1.86043247626103
 21
-2.799832023438463
 31
0.0
  0
ARC
  5
89
330
70
100
AcDbEntity
  8
2 v3_Sketch1
100
AcDbCircle
 10
4.614613632828744
 20
6.600168058079791
 30
0.0
 40
0.1999999999999993
100
AcDbArc
 50
180.000000553473
 51
270.0000005612585
  0
ARC
  5
8A
330
70
100
AcDbEntity
  8
2 v3_Sketch1
100
AcDbCircle
 10
-2.6854232436085
 20
6.600168013496315
 30
0.0
 40
0.1999999999999922
100
AcDbArc
 50
180.0000000000015
 51
269.999999999999
  0
LINE
  5
8B
330
70
100
AcDbEntity
  8
2 v3_Sketch1
100
AcDbLine
 10
-6.335388358859404
 20
6.550167619557123
 30
0.0
 11
-5.73538685500377
 21
6.700167943808986
 31
0.0
  0
LINE
  5
8C
330
70
100
AcDbEntity
  8
2 v3_Sketch1
100
AcDbLine
 10
-6.335388365982748
 20
6.700167562187651
 30
0.0
 11
-6.335388365982744
 21
7.20016816000861
 31
0.0
  0
LINE
  5
8D
330
70
100
AcDbEntity
  8
2 v3_Sketch1
100
AcDbLine
 10
-2.68538785414405
 20
-1.999832221835611
 30
0.0
 11
-2.085387839242891
 21
-1.999832221835608
 31
0.0
  0
LINE
  5
8E
330
70
100
AcDbEntity
  8
2 v3_Sketch1
100
AcDbLine
 10
2.264613531365023
 20
4.200168007631701
 30
0.0
 11
1.899598544274866
 21
3.868336201186099
 31
0.0
  0
LINE
  5
8F
330
70
100
AcDbEntity
  8
2 v3_Sketch1
100
AcDbLine
 10
-6.33538648044092
 20
5.850168089588093
 30
0.0
 11
-5.735386808266468
 21
5.700168089588093
 31
0.0
  0
LINE
  5
90
330
70
100
AcDbEntity
  8
2 v3_Sketch1
100
AcDbLine
 10
1.347121008518829
 20
3.366083895953337
 30
0.0
 11
1.258492840201814
 21
3.528319767184711
 31
0.0
  0
ARC
  5
91
330
70
100
AcDbEntity
  8
2 v3_Sketch1
100
AcDbCircle
 10
4.614613864676416
 20
6.600168013540407
 30
0.0
 40
0.1999999999999922
100
AcDbArc
 50
179.9999999972708
 51
269.9999999971563
  0
LINE
  5
92
330
70
100
AcDbEntity
  8
2 v3_Sketch1
100
AcDbLine
 10
-3.564064891723255
 20
2.200167295925827
 30
0.0
 11
-3.417065498692256
 21
2.788167433612225
 31
0.0
  0
LINE
  5
93
330
70
100
AcDbEntity
  8
2 v3_Sketch1
100
AcDbLine
 10
-6.335388369326761
 20
5.850168319646842
 30
0.0
 11
-5.7353868498117
 21
5.700167864658698
 31
0.0
  0
LINE
  5
94
330
70
100
AcDbEntity
  8
2 v3_Sketch1
100
AcDbLine
 10
-4.250064962548467
 20
2.200166974656792
 30
0.0
 11
-4.397065513294958
 21
2.788166515700774
 31
0.0
  0
LINE
  5
95
330
70
100
AcDbEntity
  8
2 v3_Sketch1
100
AcDbLine
 10
-5.535386808266469
 20
6.500168104489254
 30
0.0
 11
-5.535386808266466
 21
5.900168089588094
 31
0.0
  0
LINE
  5
96
330
70
100
AcDbEntity
  8
2 v3_Sketch1
100
AcDbLine
 10
-6.335386808266466
 20
6.550168161858724
 30
0.0
 11
-5.735386808266465
 21
6.700168104489254
 31
0.0
  0
LINE
  5
97
330
70
100
AcDbEntity
  8
2 v3_Sketch1
100
AcDbLine
 10
-2.735423243608508
 20
7.200167685670757
 30
0.0
 11
-2.885423243608492
 21
6.600168013496309
 31
0.0
  0
LINE
  5
98
330
70
100
AcDbEntity
  8
2 v3_Sketch1
100
AcDbLine
 10
-3.613064947945336
 20
1.416167295925834
 30
0.0
 11
-4.201064962548464
 21
1.416167295925829
 31
0.0
  0
LINE
  5
99
330
70
100
AcDbEntity
  8
2 v3_Sketch1
100
AcDbLine
 10
-2.735423243608508
 20
7.200167685670757
 30
0.0
 11
-2.885423243608492
 21
6.600168013496309
 31
0.0
  0
LINE
  5
9A
330
70
100
AcDbEntity
  8
2 v3_Sketch1
100
AcDbLine
 10
-6.335388365982744
 20
7.20016816000861
 30
0.0
 11
-2.735423181205224
 21
7.200167996095844
 31
0.0
  0
LINE
  5
9B
330
70
100
AcDbEntity
  8
2 v3_Sketch1
100
AcDbLine
 10
-6.335388365982737
 20
1.700167162258564
 30
0.0
 11
-6.335388374936815
 21
1.850167162258564
 31
0.0
  0
ARC
  5
9C
330
70
100
AcDbEntity
  8
2 v3_Sketch1
100
AcDbCircle
 10
1.114613519559076
 20
3.504348842715026
 30
0.0
 40
0.0499999999999972
100
AcDbArc
 50
359.9999986583535
 51
151.3525704726641
  0
LINE
  5
9D
330
70
100
AcDbEntity
  8
2 v3_Sketch1
100
AcDbLine
 10
-4.250064962548467
 20
2.200166974656792
 30
0.0
 11
-4.397064962548466
 21
1.612167295925831
 31
0.0
  0
LINE
  5
9E
330
70
100
AcDbEntity
  8
2 v3_Sketch1
100
AcDbLine
 10
-2.685387844233787
 20
-1.999832219245089
 30
0.0
 11
-2.085387837385031
 21
-1.999832219339759
 31
0.0
  0
LINE
  5
9F
330
70
100
AcDbEntity
  8
2 v3_Sketch1
100
AcDbLine
 10
-2.085423228707345
 20
6.400168013496314
 30
0.0
 11
-2.685423243608504
 21
6.40016801349631
 31
0.0
  0
LINE
  5
A0
330
70
100
AcDbEntity
  8
2 v3_Sketch1
100
AcDbLine
 10
-4.250064962548467
 20
2.200166974656792
 30
0.0
 11
-4.397065513294958
 21
2.788166515700774
 31
0.0
  0
LINE
  5
A1
330
70
100
AcDbEntity
  8
2 v3_Sketch1
100
AcDbLine
 10
-2.085423392958166
 20
6.400168060071548
 30
0.0
 11
-2.685423472460399
 21
6.400168058079769
 31
0.0
  0
ARC
  5
A2
330
70
100
AcDbEntity
  8
2 v3_Sketch1
100
AcDbCircle
 10
4.614613863639801
 20
6.60016801349632
 30
0.0
 40
0.1999999999999922
100
AcDbArc
 50
180.0000000000015
 51
270.0000000000021
  0
LINE
  5
A3
330
70
100
AcDbEntity
  8
2 v3_Sketch1
100
AcDbLine
 10
-5.535386853633795
 20
6.500167945202736
 30
0.0
 11
-5.535386851694365
 21
5.900167866567876
 31
0.0
  0
LINE
  5
A4
330
70
100
AcDbEntity
  8
2 v3_Sketch1
100
AcDbLine
 10
-2.73542300755232
 20
7.200169623895929
 30
0.0
 11
-2.88542347441956
 21
6.600168056147792
 31
0.0
  0
ARC
  5
A5
330
70
100
AcDbEntity
  8
2 v3_Sketch1
100
AcDbCircle
 10
-3.613064947945336
 20
1.612167295925828
 30
0.0
 40
0.1959999999999944
100
AcDbArc
 50
270.0
 51
0.0
  0
LINE
  5
A6
330
70
100
AcDbEntity
  8
2 v3_Sketch1
100
AcDbLine
 10
-6.335388363977273
 20
-2.149831485964579
 30
0.0
 11
-5.735386809772819
 21
-2.299831955039303
 31
0.0
  0
ARC
  5
A7
330
70
100
AcDbEntity
  8
2 v3_Sketch1
100
AcDbCircle
 10
1.114613519559076
 20
4.895987172548373
 30
0.0
 40
0.0499999999999962
100
AcDbArc
 50
208.6474295273412
 51
0.0000013416465113
  0
LINE
  5
A8
330
70
100
AcDbEntity
  8
2 v3_Sketch1
100
AcDbLine
 10
-2.085423228707345
 20
6.400168013496314
 30
0.0
 11
-2.685423243608504
 21
6.40016801349631
 31
0.0
  0
LINE
  5
A9
330
70
100
AcDbEntity
  8
2 v3_Sketch1
100
AcDbLine
 10
-6.33538648044092
 20
5.850168089588093
 30
0.0
 11
-5.735386808266468
 21
5.700168089588093
 31
0.0
  0
LINE
  5
AA
330
70
100
AcDbEntity
  8
2 v3_Sketch1
100
AcDbLine
 10
-6.335386808266466
 20
6.550168161858724
 30
0.0
 11
-5.735386808266465
 21
6.700168104489254
 31
0.0
  0
LINE
  5
AB
330
70
100
AcDbEntity
  8
2 v3_Sketch1
100
AcDbLine
 10
1.347121008518831
 20
5.034252119310053
 30
0.0
 11
1.258492840201812
 21
4.872016248078686
 31
0.0
  0
LINE
  5
AC
330
70
100
AcDbEntity
  8
2 v3_Sketch1
100
AcDbLine
 10
-2.285387127896377
 20
-0.7998319328629977
 30
0.0
 11
-2.285387127896374
 21
1.200168067137001
 31
0.0
  0
ARC
  5
AD
330
70
100
AcDbEntity
  8
2 v3_Sketch1
100
AcDbCircle
 10
-5.735388366370102
 20
2.500167262544981
 30
0.0
 40
0.1999999999999993
100
AcDbArc
 50
359.9999998890293
 51
90.00000316252576
  0
LINE
  5
AE
330
70
100
AcDbEntity
  8
2 v3_Sketch1
100
AcDbLine
 10
-5.535388366370103
 20
2.50016726215762
 30
0.0
 11
-5.535388367532185
 21
1.900167113388042
 31
0.0
  0
ARC
  5
AF
330
70
100
AcDbEntity
  8
2 v3_Sketch1
100
AcDbCircle
 10
-2.6854232436085
 20
6.600168013496315
 30
0.0
 40
0.1999999999999922
100
AcDbArc
 50
180.0000000000015
 51
269.999999999999
  0
LINE
  5
B0
330
70
100
AcDbEntity
  8
2 v3_Sketch1
100
AcDbLine
 10
-3.564064891723255
 20
2.200167295925827
 30
0.0
 11
-3.417065498692256
 21
2.788167433612225
 31
0.0
  0
LINE
  5
B1
330
70
100
AcDbEntity
  8
2 v3_Sketch1
100
AcDbLine
 10
-6.335386808266466
 20
6.550168161858724
 30
0.0
 11
-5.735386808266465
 21
6.700168104489254
 31
0.0
  0
LINE
  5
B2
330
70
100
AcDbEntity
  8
2 v3_Sketch1
100
AcDbLine
 10
-2.68538785414405
 20
-1.999832221835611
 30
0.0
 11
-2.085387839242891
 21
-1.999832221835608
 31
0.0
  0
LINE
  5
B3
330
70
100
AcDbEntity
  8
2 v3_Sketch1
100
AcDbLine
 10
-6.335388365982746
 20
5.200169975449725
 30
0.0
 11
-6.335388365982741
 21
5.700168319646842
 31
0.0
  0
ARC
  5
B4
330
70
100
AcDbEntity
  8
2 v3_Sketch1
100
AcDbCircle
 10
1.214613519559074
 20
4.895987172548373
 30
0.0
 40
0.0500000000000007
100
AcDbArc
 50
179.9999986583535
 51
331.3525704726592
  0
LINE
  5
B5
330
70
100
AcDbEntity
  8
2 v3_Sketch1
100
AcDbLine
 10
-6.33538648044092
 20
5.850168089588093
 30
0.0
 11
-5.735386808266468
 21
5.700168089588093
 31
0.0
  0
LINE
  5
B6
330
70
100
AcDbEntity
  8
2 v3_Sketch1
100
AcDbLine
 10
-6.335388365982746
 20
1.200167545695121
 30
0.0
 11
-6.335388365982737
 21
1.700167162258564
 31
0.0
  0
LINE
  5
B7
330
70
100
AcDbEntity
  8
2 v3_Sketch1
100
AcDbLine
 10
-2.685387689893229
 20
-1.999832268410846
 30
0.0
 11
-2.085387610390995
 21
-1.999832266419066
 31
0.0
  0
ARC
  5
B8
330
70
100
AcDbEntity
  8
2 v3_Sketch1
100
AcDbCircle
 10
-5.735386808266472
 20
5.900168089588099
 30
0.0
 40
0.2000000000000064
100
AcDbArc
 50
270.000000000001
 51
359.9999999999984
  0
LINE
  5
B9
330
70
100
AcDbEntity
  8
2 v3_Sketch1
100
AcDbLine
 10
-3.564064891723255
 20
2.200167295925827
 30
0.0
 11
-3.417064947945338
 21
1.612167295925828
 31
0.0
  0
ARC
  5
BA
330
70
100
AcDbEntity
  8
2 v3_Sketch1
100
AcDbCircle
 10
-5.735386853633791
 20
6.500167943808987
 30
0.0
 40
0.1999999999999957
100
AcDbArc
 50
0.0000003992797103
 51
90.00000039247026
  0
LINE
  5
BB
330
70
100
AcDbEntity
  8
2 v3_Sketch1
100
AcDbLine
 10
-6.335388365982746
 20
1.200167545695121
 30
0.0
 11
-6.13538702383407
 21
1.20016754569512
 31
0.0
  0
ARC
  5
BC
330
70
100
AcDbEntity
  8
2 v3_Sketch1
100
AcDbCircle
 10
-5.735386851694379
 20
5.900167864658705
 30
0.0
 40
0.2000000000000064
100
AcDbArc
 50
270.0000005393477
 51
0.000000546937343
  0
LINE
  5
BD
330
70
100
AcDbEntity
  8
2 v3_Sketch1
100
AcDbLine
 10
4.564613863639797
 20
7.200167685670772
 30
0.0
 11
4.564613863639797
 21
7.200167685670772
 31
0.0
  0
LINE
  5
BE
330
70
100
AcDbEntity
  8
2 v3_Sketch1
100
AcDbLine
 10
-2.085423230828038
 20
6.40016801284471
 30
0.0
 11
-2.685423256745057
 21
6.400168012825979
 31
0.0
  0
ARC
  5
BF
330
70
100
AcDbEntity
  8
2 v3_Sketch1
100
AcDbCircle
 10
-5.735386808266472
 20
5.900168089588099
 30
0.0
 40
0.2000000000000064
100
AcDbArc
 50
270.000000000001
 51
359.9999999999984
  0
LINE
  5
C0
330
70
100
AcDbEntity
  8
2 v3_Sketch1
100
AcDbLine
 10
4.564613859289826
 20
7.200167663712278
 30
0.0
 11
4.414613864676423
 21
6.600168013549934
 31
0.0
  0
ARC
  5
C1
330
70
100
AcDbEntity
  8
2 v3_Sketch1
100
AcDbCircle
 10
-5.735388367532216
 20
1.900167113775403
 30
0.0
 40
0.2000000000000237
100
AcDbArc
 50
270.0000035045387
 51
359.9999998890293
  0
LINE
  5
C2
330
70
100
AcDbEntity
  8
2 v3_Sketch1
100
AcDbLine
 10
-3.613065682274459
 20
2.984167250029847
 30
0.0
 11
-4.201065696877332
 21
2.984166699282974
 31
0.0
  0
LINE
  5
C3
330
70
100
AcDbEntity
  8
2 v3_Sketch1
100
AcDbLine
 10
-2.735423181205224
 20
7.200167996095844
 30
0.0
 11
-2.885423256813339
 21
6.600168012760468
 31
0.0
  0
ARC
  5
C4
330
70
100
AcDbEntity
  8
2 v3_Sketch1
100
AcDbCircle
 10
1.714613523169383
 20
3.700168000181118
 30
0.0
 40
0.2500000037252851
100
AcDbArc
 50
222.2736890060942
 51
42.27368900609422
  0
LINE
  5
C5
330
70
100
AcDbEntity
  8
2 v3_Sketch1
100
AcDbLine
 10
-5.535386808266469
 20
6.500168104489254
 30
0.0
 11
-5.535386808266466
 21
5.900168089588094
 31
0.0
  0
ARC
  5
C6
330
70
100
AcDbEntity
  8
2 v3_Sketch1
100
AcDbCircle
 10
0.6146135159487596
 20
3.700168000181123
 30
0.0
 40
0.2500000037252854
100
AcDbArc
 50
137.7263109939069
 51
317.7263109939069
  0
LINE
  5
C7
330
70
100
AcDbEntity
  8
2 v3_Sketch1
100
AcDbLine
 10
-3.564063906130837
 20
2.200163353554654
 30
0.0
 11
-3.417064947945338
 21
1.612167295925828
 31
0.0
  0
LINE
  5
C8
330
70
100
AcDbEntity
  8
2 v3_Sketch1
100
AcDbLine
 10
-2.485386370917385
 20
1.200168067137001
 30
0.0
 11
-2.485386370917389
 21
-0.7998319328629973
 31
0.0
  0
LINE
  5
C9
330
70
100
AcDbEntity
  8
2 v3_Sketch1
100
AcDbLine
 10
-6.335388365982737
 20
-2.799831839991388
 30
0.0
 11
-6.335388365982737
 21
-2.299831485964579
 31
0.0
  0
LINE
  5
CA
330
70
100
AcDbEntity
  8
2 v3_Sketch1
100
AcDbLine
 10
-6.335388365982748
 20
6.700167562187651
 30
0.0
 11
-6.335388358859404
 21
6.550167619557123
 31
0.0
  0
ARC
  5
CB
330
70
100
AcDbEntity
  8
2 v3_Sketch1
100
AcDbCircle
 10
-4.201064962548461
 20
1.612167295925834
 30
0.0
 40
0.196000000000005
100
AcDbArc
 50
180.000000000001
 51
269.999999999999
  0
LINE
  5
CC
330
70
100
AcDbEntity
  8
2 v3_Sketch1
100
AcDbLine
 10
-6.335388374936815
 20
1.850167162258564
 30
0.0
 11
-5.735388355299068
 21
1.70016711377538
 31
0.0
  0
LINE
  5
CD
330
70
100
AcDbEntity
  8
2 v3_Sketch1
100
AcDbLine
 10
-2.385423207473177
 20
4.200169607609657
 30
0.0
 11
-2.385423207473177
 21
4.200171837193733
 31
0.0
  0
LINE
  5
CE
330
70
100
AcDbEntity
  8
2 v3_Sketch1
100
AcDbLine
 10
1.860432256754421
 20
7.200167786838441
 30
0.0
 11
4.564613859289826
 21
7.200167663712278
 31
0.0
  0
ARC
  5
CF
330
70
100
AcDbEntity
  8
2 v3_Sketch1
100
AcDbCircle
 10
-5.735386808266472
 20
5.900168089588099
 30
0.0
 40
0.2000000000000064
100
AcDbArc
 50
270.000000000001
 51
359.9999999999984
  0
LINE
  5
D0
330
70
100
AcDbEntity
  8
2 v3_Sketch1
100
AcDbLine
 10
-2.735387976642474
 20
-2.799831920570206
 30
0.0
 11
-6.335388365982737
 21
-2.799831839991388
 31
0.0
  0
LINE
  5
D1
330
70
100
AcDbEntity
  8
2 v3_Sketch1
100
AcDbLine
 10
0.9821060305993167
 20
3.366083895953339
 30
0.0
 11
1.070734198916335
 21
3.528319767184709
 31
0.0
  0
ARC
  5
D2
330
70
100
AcDbEntity
  8
2 v3_Sketch1
100
AcDbCircle
 10
-2.385423125258144
 20
5.200176297430774
 30
0.0
 40
0.1000047992650241
100
AcDbArc
 50
359.9999995440494
 51
179.9999995440494
  0
LINE
  5
D3
330
70
100
AcDbEntity
  8
2 v3_Sketch1
100
AcDbLine
 10
-4.250064962548467
 20
2.200166974656792
 30
0.0
 11
-4.397064962548466
 21
1.612167295925831
 31
0.0
  0
ARC
  5
D4
330
70
100
AcDbEntity
  8
2 v3_Sketch1
100
AcDbCircle
 10
-2.385423141173879
 20
3.20016317052825
 30
0.0
 40
0.100004799265017
100
AcDbArc
 50
179.9999995440486
 51
359.9999995440486
  0
ARC
  5
D5
330
70
100
AcDbEntity
  8
2 v3_Sketch1
100
AcDbCircle
 10
-3.613064947945336
 20
1.612167295925828
 30
0.0
 40
0.1959999999999944
100
AcDbArc
 50
270.0
 51
0.0
  0
LINE
  5
D6
330
70
100
AcDbEntity
  8
2 v3_Sketch1
100
AcDbLine
 10
5.878613313133296
 20
2.200167775769639
 30
0.0
 11
5.731612762386806
 21
2.78816731681362
 31
0.0
  0
LINE
  5
D7
330
70
100
AcDbEntity
  8
2 v3_Sketch1
100
AcDbLine
 10
6.564613383958509
 20
2.200168097038674
 30
0.0
 11
6.711612776989506
 21
2.78816823472507
 31
0.0
  0
ARC
  5
D8
330
70
100
AcDbEntity
  8
2 v3_Sketch1
100
AcDbCircle
 10
4.614613573698079
 20
-2.199832097473201
 30
0.0
 40
0.1999999999999935
100
AcDbArc
 50
90.00000041150782
 51
180.0000004044882
  0
ARC
  5
D9
330
70
100
AcDbEntity
  8
2 v3_Sketch1
100
AcDbCircle
 10
-4.201065513295038
 20
2.788166699283058
 30
0.0
 40
0.1960000000000022
100
AcDbArc
 50
90.00005366576864
 51
180.0000536657655
  0
LINE
  5
DA
330
70
100
AcDbEntity
  8
2 v3_Sketch1
100
AcDbLine
 10
-6.335388357772522
 20
2.550167253079385
 30
0.0
 11
-5.7353883774094
 21
2.700167262544974
 31
0.0
  0
LINE
  5
DB
330
70
100
AcDbEntity
  8
2 v3_Sketch1
100
AcDbLine
 10
4.564614099695985
 20
7.200169623895943
 30
0.0
 11
4.414613632828745
 21
6.600168056147806
 31
0.0
  0
LINE
  5
DC
330
70
100
AcDbEntity
  8
2 v3_Sketch1
100
AcDbLine
 10
-5.53538680830486
 20
-1.499831951934691
 30
0.0
 11
-5.535386810185027
 21
-2.099831954620496
 31
0.0
  0
ARC
  5
DD
330
70
100
AcDbEntity
  8
2 v3_Sketch1
100
AcDbCircle
 10
-2.68538784426985
 20
-2.199832219245083
 30
0.0
 40
0.1999999999999933
100
AcDbArc
 50
89.99999998966854
 51
179.9999999889329
  0
ARC
  5
DE
330
70
100
AcDbEntity
  8
2 v3_Sketch1
100
AcDbCircle
 10
-2.685387854144053
 20
-2.199832221835605
 30
0.0
 40
0.1999999999999933
100
AcDbArc
 50
89.99999999999898
 51
180.0
  0
LINE
  5
DF
330
70
100
AcDbEntity
  8
2 v3_Sketch1
100
AcDbLine
 10
5.878613313133296
 20
2.200167775769639
 30
0.0
 11
5.731612762386806
 21
2.78816731681362
 31
0.0
  0
LINE
  5
E0
330
70
100
AcDbEntity
  8
2 v3_Sketch1
100
AcDbLine
 10
-2.285418341908862
 20
3.200163169732433
 30
0.0
 11
-2.28541832599312
 21
5.200176296634952
 31
0.0
  0
LINE
  5
E1
330
70
100
AcDbEntity
  8
2 v3_Sketch1
100
AcDbLine
 10
1.832781568643138
 20
6.835153097394281
 30
0.0
 11
1.998697203881452
 21
7.01766029744312
 31
0.0
  0
ARC
  5
E2
330
70
100
AcDbEntity
  8
2 v3_Sketch1
100
AcDbCircle
 10
-2.385386749406883
 20
-0.7998319328629977
 30
0.0
 40
0.0999996215105057
100
AcDbArc
 50
179.9999999999997
 51
359.9999999999997
  0
ARC
  5
E3
330
70
100
AcDbEntity
  8
2 v3_Sketch1
100
AcDbCircle
 10
-5.735386808304856
 20
-1.499831952464657
 30
0.0
 40
0.1999999999999957
100
AcDbArc
 50
0.0000001518239049
 51
90.00000014935375
  0
ARC
  5
E4
330
70
100
AcDbEntity
  8
2 v3_Sketch1
100
AcDbCircle
 10
4.914614041839406
 20
3.200169758366372
 30
0.0
 40
0.0999996215105075
100
AcDbArc
 50
179.9999989469716
 51
359.9999989469716
  0
LINE
  5
E5
330
70
100
AcDbEntity
  8
2 v3_Sketch1
100
AcDbLine
 10
-6.335388365982737
 20
2.700167253079385
 30
0.0
 11
-6.335388357772522
 21
2.550167253079385
 31
0.0
  0
LINE
  5
E6
330
70
100
AcDbEntity
  8
2 v3_Sketch1
100
AcDbLine
 10
-2.035423161433453
 20
7.200167964223607
 30
0.0
 11
0.4687939386482789
 21
7.200167850202186
 31
0.0
  0
LINE
  5
E7
330
70
100
AcDbEntity
  8
2 v3_Sketch1
100
AcDbLine
 10
4.564613910072502
 20
-2.799833650517681
 30
0.0
 11
4.414613573698076
 21
-2.199832098885131
 31
0.0
  0
ARC
  5
E8
330
70
100
AcDbEntity
  8
2 v3_Sketch1
100
AcDbCircle
 10
-3.613065498692172
 20
2.788167250029941
 30
0.0
 40
0.1960000000000022
100
AcDbArc
 50
0.000053665765528
 51
90.00005366576656
  0
ARC
  5
E9
330
70
100
AcDbEntity
  8
2 v3_Sketch1
100
AcDbCircle
 10
-2.685423256813347
 20
6.600168012825983
 30
0.0
 40
0.1999999999999922
100
AcDbArc
 50
180.0000000187688
 51
270.0000000195637
  0
LINE
  5
EA
330
70
100
AcDbEntity
  8
2 v3_Sketch1
100
AcDbLine
 10
-6.335388365982737
 20
2.700167253079385
 30
0.0
 11
-6.335388365982737
 21
3.20016966079031
 31
0.0
  0
ARC
  5
EB
330
70
100
AcDbEntity
  8
2 v3_Sketch1
100
AcDbCircle
 10
-4.201065513295038
 20
2.788166699283058
 30
0.0
 40
0.1960000000000022
100
AcDbArc
 50
90.00005366576864
 51
180.0000536657655
  0
LINE
  5
EC
330
70
100
AcDbEntity
  8
2 v3_Sketch1
100
AcDbLine
 10
-2.48542792452315
 20
5.200176298226592
 30
0.0
 11
-2.485427940438896
 21
3.200163171324073
 31
0.0
  0
LINE
  5
ED
330
70
100
AcDbEntity
  8
2 v3_Sketch1
100
AcDbLine
 10
-5.935387247674999
 20
3.200169647844408
 30
0.0
 11
-6.335388365982737
 21
3.20016966079031
 31
0.0
  0
LINE
  5
EE
330
70
100
AcDbEntity
  8
2 v3_Sketch1
100
AcDbLine
 10
-6.335386808266466
 20
6.700168104489254
 30
0.0
 11
-6.335386808266466
 21
6.550168161858724
 31
0.0
  0
LINE
  5
EF
330
70
100
AcDbEntity
  8
2 v3_Sketch1
100
AcDbLine
 10
0.9821060305993167
 20
5.034252119310053
 30
0.0
 11
0.7995985370542425
 21
4.868336216087254
 31
0.0
  0
LINE
  5
F0
330
70
100
AcDbEntity
  8
2 v3_Sketch1
100
AcDbLine
 10
4.564613863639797
 20
7.200167685670772
 30
0.0
 11
4.414613863639809
 21
6.600168013496315
 31
0.0
  0
LINE
  5
F1
330
70
100
AcDbEntity
  8
2 v3_Sketch1
100
AcDbLine
 10
4.564613350641355
 20
-2.799832050897963
 30
0.0
 11
4.414613408010822
 21
-2.19983205089797
 31
0.0
  0
ARC
  5
F2
330
70
100
AcDbEntity
  8
2 v3_Sketch1
100
AcDbCircle
 10
-2.685387688456795
 20
-2.199832268410839
 30
0.0
 40
0.1999999999999933
100
AcDbArc
 50
90.00000041150782
 51
180.0000004044882
  0
LINE
  5
F3
330
70
100
AcDbEntity
  8
2 v3_Sketch1
100
AcDbLine
 10
7.86461384740804
 20
2.500168110535265
 30
0.0
 11
7.864613847382453
 21
1.900168052419087
 31
0.0
  0
LINE
  5
F4
330
70
100
AcDbEntity
  8
2 v3_Sketch1
100
AcDbLine
 10
-2.38538674940688
 20
0.2001680673675676
 30
0.0
 11
-2.385348898519374
 21
0.2001680673675659
 31
0.0
  0
LINE
  5
F5
330
70
100
AcDbEntity
  8
2 v3_Sketch1
100
AcDbLine
 10
-3.613065682274459
 20
2.984167250029847
 30
0.0
 11
-4.201065696877332
 21
2.984166699282974
 31
0.0
  0
LINE
  5
F6
330
70
100
AcDbEntity
  8
2 v3_Sketch1
100
AcDbLine
 10
1.529628502063911
 20
3.53199979917614
 30
0.0
 11
1.347121008518829
 21
3.366083895953337
 31
0.0
  0
ARC
  5
F7
330
70
100
AcDbEntity
  8
2 v3_Sketch1
100
AcDbCircle
 10
-5.73538681018503
 20
-2.099831955039297
 30
0.0
 40
0.2000000000000064
100
AcDbArc
 50
270.0000001180896
 51
0.000000119977647
  0
LINE
  5
F8
330
70
100
AcDbEntity
  8
2 v3_Sketch1
100
AcDbLine
 10
-6.13538702383407
 20
-0.7998319476647793
 30
0.0
 11
-6.335388365982733
 21
-0.7998319029608623
 31
0.0
  0
LINE
  5
F9
330
70
100
AcDbEntity
  8
2 v3_Sketch1
100
AcDbLine
 10
-5.935387247675
 20
5.200169975449725
 30
0.0
 11
-5.935387247674999
 21
3.200169647844408
 31
0.0
  0
ARC
  5
FA
330
70
100
AcDbEntity
  8
2 v3_Sketch1
100
AcDbCircle
 10
-5.735386808266465
 20
6.500168104489256
 30
0.0
 40
0.1999999999999957
100
AcDbArc
 50
359.9999999999995
 51
90.0
  0
ARC
  5
FB
330
70
100
AcDbEntity
  8
2 v3_Sketch1
100
AcDbCircle
 10
-2.38538674940688
 20
1.200168067137001
 30
0.0
 40
0.0999996215105057
100
AcDbArc
 50
0.0
 51
180.0
  0
LINE
  5
FC
330
70
100
AcDbEntity
  8
2 v3_Sketch1
100
AcDbLine
 10
0.0646135077531209
 20
4.200168007631701
 30
0.0
 11
0.4296284948432838
 21
3.868336201186097
 31
0.0
  0
ARC
  5
FD
330
70
100
AcDbEntity
  8
2 v3_Sketch1
100
AcDbCircle
 10
4.614613408010821
 20
-2.19983205089797
 30
0.0
 40
0.1999999999999935
100
AcDbArc
 50
89.99999999999898
 51
180.0
  0
ARC
  5
FE
330
70
100
AcDbEntity
  8
2 v3_Sketch1
100
AcDbCircle
 10
-4.201064962548461
 20
1.612167295925834
 30
0.0
 40
0.196000000000005
100
AcDbArc
 50
180.000000000001
 51
269.999999999999
  0
LINE
  5
FF
330
70
100
AcDbEntity
  8
2 v3_Sketch1
100
AcDbLine
 10
4.564613357270637
 20
-2.799832083966147
 30
0.0
 11
4.414613406896723
 21
-2.199832053386377
 31
0.0
  0
ARC
  5
100
330
70
100
AcDbEntity
  8
2 v3_Sketch1
100
AcDbCircle
 10
0.6146135159487596
 20
4.700168015082276
 30
0.0
 40
0.250000003725293
100
AcDbArc
 50
42.27368900609259
 51
222.2736890060926
  0
ARC
  5
101
330
70
100
AcDbEntity
  8
2 v3_Sketch1
100
AcDbCircle
 10
4.614613406896722
 20
-2.199832053340919
 30
0.0
 40
0.1999999999999935
100
AcDbArc
 50
90.00000001301433
 51
180.0000000130227
  0
ARC
  5
102
330
70
100
AcDbEntity
  8
2 v3_Sketch1
100
AcDbCircle
 10
-2.685423474419561
 20
6.600168058079777
 30
0.0
 40
0.1999999999999993
100
AcDbArc
 50
180.000000553473
 51
270.0000005612585
  0
ARC
  5
103
330
70
100
AcDbEntity
  8
2 v3_Sketch1
100
AcDbCircle
 10
-3.613065498692172
 20
2.788167250029941
 30
0.0
 40
0.1960000000000022
100
AcDbArc
 50
0.000053665765528
 51
90.00005366576656
  0
LINE
  5
104
330
70
100
AcDbEntity
  8
2 v3_Sketch1
100
AcDbLine
 10
-6.33538648044092
 20
5.700168089588093
 30
0.0
 11
-6.33538648044092
 21
5.850168089588093
 31
0.0
  0
LINE
  5
105
330
70
100
AcDbEntity
  8
2 v3_Sketch1
100
AcDbLine
 10
0.9821060305993167
 20
5.034252119310053
 30
0.0
 11
1.070734198916339
 21
4.872016248078686
 31
0.0
  0
ARC
  5
106
330
70
100
AcDbEntity
  8
2 v3_Sketch1
100
AcDbCircle
 10
1.214613519559069
 20
3.504348842715028
 30
0.0
 40
0.0500000000000007
100
AcDbArc
 50
28.64742952733375
 51
180.0000013416485
  0
LINE
  5
107
330
70
100
AcDbEntity
  8
2 v3_Sketch1
100
AcDbLine
 10
0.8327815993549947
 20
6.465183257832602
 30
0.0
 11
1.164613474768485
 21
6.100168188950439
 31
0.0
  0
ARC
  5
108
330
70
100
AcDbEntity
  8
2 v3_Sketch1
100
AcDbCircle
 10
1.714613523169386
 20
4.700168015082272
 30
0.0
 40
0.250000003725288
100
AcDbArc
 50
317.7263109939075
 51
137.7263109939075
  0
LINE
  5
109
330
70
100
AcDbEntity
  8
2 v3_Sketch1
100
AcDbLine
 10
6.564613383958509
 20
2.200168097038674
 30
0.0
 11
6.711612776989506
 21
2.78816823472507
 31
0.0
  0
LINE
  5
10A
330
70
100
AcDbEntity
  8
2 v3_Sketch1
100
AcDbLine
 10
-6.335388365982746
 20
5.200169975449725
 30
0.0
 11
-5.935387247675
 21
5.200169975449725
 31
0.0
  0
ARC
  5
10B
330
70
100
AcDbEntity
  8
2 v3_Sketch1
100
AcDbCircle
 10
1.664613368287291
 20
6.650168075698683
 30
0.0
 40
0.2500000037252825
100
AcDbArc
 50
227.7263111949634
 51
47.72630998754507
  0
ARC
  5
10C
330
70
100
AcDbEntity
  8
2 v3_Sketch1
100
AcDbCircle
 10
1.714613307102558
 20
0.7001680752036977
 30
0.0
 40
0.2500000037252903
100
AcDbArc
 50
317.7263109939068
 51
137.7263109939069
  0
LINE
  5
10D
330
70
100
AcDbEntity
  8
2 v3_Sketch1
100
AcDbLine
 10
0.4296284948432838
 20
4.531999814077298
 30
0.0
 11
0.0646135077531209
 21
4.200168007631701
 31
0.0
  0
LINE
  5
10E
330
70
100
AcDbEntity
  8
2 v3_Sketch1
100
AcDbLine
 10
5.878613313133296
 20
2.200167775769639
 30
0.0
 11
5.731613313133298
 21
1.612168097038678
 31
0.0
  0
ARC
  5
10F
330
70
100
AcDbEntity
  8
2 v3_Sketch1
100
AcDbCircle
 10
5.214613712853706
 20
6.600168060071556
 30
0.0
 40
0.1999999999999939
100
AcDbArc
 50
270.0000004115078
 51
0.0000004044881866
  0
LINE
  5
110
330
70
100
AcDbEntity
  8
2 v3_Sketch1
100
AcDbLine
 10
5.878613313133296
 20
2.200167775769639
 30
0.0
 11
5.731613313133298
 21
1.612168097038678
 31
0.0
  0
LINE
  5
111
330
70
100
AcDbEntity
  8
2 v3_Sketch1
100
AcDbLine
 10
-2.035423171337875
 20
7.200168013496304
 30
0.0
 11
-1.885423228707342
 21
6.600168013496308
 31
0.0
  0
ARC
  5
112
330
70
100
AcDbEntity
  8
2 v3_Sketch1
100
AcDbCircle
 10
-2.085423228707341
 20
6.600168013496308
 30
0.0
 40
0.1999999999999939
100
AcDbArc
 50
269.999999999999
 51
0.0
  0
LINE
  5
113
330
70
100
AcDbEntity
  8
2 v3_Sketch1
100
AcDbLine
 10
0.3305294612367309
 20
7.01766061873414
 30
0.0
 11
0.4964452003353355
 21
6.835153302762011
 31
0.0
  0
LINE
  5
114
330
70
100
AcDbEntity
  8
2 v3_Sketch1
100
AcDbLine
 10
-6.335388365982733
 20
-1.299832342612434
 30
0.0
 11
-6.335388365982733
 21
-0.7998319029608623
 31
0.0
  0
LINE
  5
115
330
70
100
AcDbEntity
  8
2 v3_Sketch1
100
AcDbLine
 10
-2.035423171337875
 20
7.200168013496304
 30
0.0
 11
-1.885423228707342
 21
6.600168013496308
 31
0.0
  0
LINE
  5
116
330
70
100
AcDbEntity
  8
2 v3_Sketch1
100
AcDbLine
 10
5.214613859772564
 20
6.400168008083754
 30
0.0
 11
4.614613861950717
 21
6.400168007848751
 31
0.0
  0
LINE
  5
117
330
70
100
AcDbEntity
  8
2 v3_Sketch1
100
AcDbLine
 10
-2.035423730769021
 20
7.200169613116022
 30
0.0
 11
-1.885423394394596
 21
6.600168061483472
 31
0.0
  0
LINE
  5
118
330
70
100
AcDbEntity
  8
2 v3_Sketch1
100
AcDbLine
 10
5.01461366334991
 20
3.200169756528504
 30
0.0
 11
5.014613700107476
 21
5.200169799596608
 31
0.0
  0
ARC
  5
119
330
70
100
AcDbEntity
  8
2 v3_Sketch1
100
AcDbCircle
 10
6.515612776989591
 20
2.788168051142787
 30
0.0
 40
0.1960000000000004
100
AcDbArc
 50
0.000053665765528
 51
90.00005366576656
  0
LINE
  5
11A
330
70
100
AcDbEntity
  8
2 v3_Sketch1
100
AcDbLine
 10
11.76457675639148
 20
9.200167685670759
 30
0.0
 11
11.76457675639148
 21
9.200167685670759
 31
0.0
  0
LINE
  5
11B
330
70
100
AcDbEntity
  8
2 v3_Sketch1
100
AcDbLine
 10
-2.735387976642474
 20
-2.799831920570206
 30
0.0
 11
-2.88538784426985
 21
-2.199832219206451
 31
0.0
  0
ARC
  5
11C
330
70
100
AcDbEntity
  8
2 v3_Sketch1
100
AcDbCircle
 10
5.214613878550322
 20
6.600168013537524
 30
0.0
 40
0.1999999999999939
100
AcDbArc
 50
269.9999999998595
 51
359.999999999859
  0
LINE
  5
11D
330
70
100
AcDbEntity
  8
2 v3_Sketch1
100
AcDbLine
 10
-6.335388365982733
 20
-1.299832342612434
 30
0.0
 11
-6.335388361792119
 21
-1.449832342612433
 31
0.0
  0
LINE
  5
11E
330
70
100
AcDbEntity
  8
2 v3_Sketch1
100
AcDbLine
 10
4.614613406851294
 20
-1.999832053340926
 30
0.0
 11
5.214613435536376
 21
-1.99983205322716
 31
0.0
  0
LINE
  5
11F
330
70
100
AcDbEntity
  8
2 v3_Sketch1
100
AcDbLine
 10
1.164613743022785
 20
-1.69983205332296
 30
0.0
 11
1.496445299925559
 21
-2.06484679529134
 31
0.0
  0
ARC
  5
120
330
70
100
AcDbEntity
  8
2 v3_Sketch1
100
AcDbCircle
 10
5.927612762386726
 20
2.788167500395904
 30
0.0
 40
0.1960000000000022
100
AcDbArc
 50
90.00005366576864
 51
180.0000536657655
  0
LINE
  5
121
330
70
100
AcDbEntity
  8
2 v3_Sketch1
100
AcDbLine
 10
5.214613714290139
 20
6.400168060071562
 30
0.0
 11
4.614613634787906
 21
6.400168058079783
 31
0.0
  0
LINE
  5
122
330
70
100
AcDbEntity
  8
2 v3_Sketch1
100
AcDbLine
 10
-2.735387352082373
 20
-2.799833821455318
 30
0.0
 11
-2.885387688456798
 21
-2.199832269822769
 31
0.0
  0
LINE
  5
123
330
70
100
AcDbEntity
  8
2 v3_Sketch1
100
AcDbLine
 10
1.998697203881452
 20
7.01766029744312
 30
0.0
 11
1.83646133021805
 21
7.106288466081034
 31
0.0
  0
LINE
  5
124
330
70
100
AcDbEntity
  8
2 v3_Sketch1
100
AcDbLine
 10
5.264613359775003
 20
-2.79983209963425
 30
0.0
 11
5.414613435548156
 21
-2.199832053225748
 31
0.0
  0
ARC
  5
125
330
70
100
AcDbEntity
  8
2 v3_Sketch1
100
AcDbCircle
 10
-2.685387854144053
 20
-2.199832221835605
 30
0.0
 40
0.1999999999999933
100
AcDbArc
 50
89.99999999999898
 51
180.0
  0
ARC
  5
126
330
70
100
AcDbEntity
  8
2 v3_Sketch1
100
AcDbCircle
 10
5.214613878540964
 20
6.600168013496325
 30
0.0
 40
0.1999999999999939
100
AcDbArc
 50
269.999999999999
 51
0.0
  0
LINE
  5
127
330
70
100
AcDbEntity
  8
2 v3_Sketch1
100
AcDbLine
 10
1.164613474768485
 20
6.100168188950439
 30
0.0
 11
1.496445167931449
 21
6.465183054003091
 31
0.0
  0
LINE
  5
128
330
70
100
AcDbEntity
  8
2 v3_Sketch1
100
AcDbLine
 10
5.264613935910434
 20
7.200168013496318
 30
0.0
 11
5.414613878540967
 21
6.600168013496325
 31
0.0
  0
ARC
  5
129
330
70
100
AcDbEntity
  8
2 v3_Sketch1
100
AcDbCircle
 10
5.214613422911979
 20
-2.199832050897965
 30
0.0
 40
0.1999999999999922
100
AcDbArc
 50
0.0000000000015267
 51
89.99999999999898
  0
ARC
  5
12A
330
70
100
AcDbEntity
  8
2 v3_Sketch1
100
AcDbCircle
 10
5.214613422911979
 20
-2.199832050897965
 30
0.0
 40
0.1999999999999922
100
AcDbArc
 50
0.0000000000015267
 51
89.99999999999898
  0
LINE
  5
12B
330
70
100
AcDbEntity
  8
2 v3_Sketch1
100
AcDbLine
 10
-6.335388365982737
 20
-2.299831485964579
 30
0.0
 11
-6.335388363977273
 21
-2.149831485964579
 31
0.0
  0
LINE
  5
12C
330
70
100
AcDbEntity
  8
2 v3_Sketch1
100
AcDbLine
 10
8.664612357925454
 20
5.700168089640925
 30
0.0
 11
8.664612314885673
 21
5.85016783316483
 31
0.0
  0
LINE
  5
12D
330
70
100
AcDbEntity
  8
2 v3_Sketch1
100
AcDbLine
 10
-2.73538791151352
 20
-2.799832221835599
 30
0.0
 11
-2.885387854144052
 21
-2.199832221835605
 31
0.0
  0
LINE
  5
12E
330
70
100
AcDbEntity
  8
2 v3_Sketch1
100
AcDbLine
 10
5.264614009843304
 20
7.20016763184004
 30
0.0
 11
8.664611634017246
 21
7.200167477032149
 31
0.0
  0
ARC
  5
12F
330
70
100
AcDbEntity
  8
2 v3_Sketch1
100
AcDbCircle
 10
6.515612776989591
 20
2.788168051142787
 30
0.0
 40
0.1960000000000004
100
AcDbArc
 50
0.000053665765528
 51
90.00005366576656
  0
ARC
  5
130
330
70
100
AcDbEntity
  8
2 v3_Sketch1
100
AcDbCircle
 10
1.860432254477833
 20
7.150167786838444
 30
0.0
 40
0.0499999999999972
100
AcDbArc
 50
89.99999739122253
 51
241.3525707467438
  0
ARC
  5
131
330
70
100
AcDbEntity
  8
2 v3_Sketch1
100
AcDbCircle
 10
1.714613307102554
 20
-0.2998319396974596
 30
0.0
 40
0.2500000037252877
100
AcDbArc
 50
222.2736890060937
 51
42.27368900609367
  0
LINE
  5
132
330
70
100
AcDbEntity
  8
2 v3_Sketch1
100
AcDbLine
 10
-6.335388361792119
 20
-1.449832342612433
 30
0.0
 11
-5.735386808826199
 21
-1.299831952464659
 31
0.0
  0
LINE
  5
133
330
70
100
AcDbEntity
  8
2 v3_Sketch1
100
AcDbLine
 10
1.347120792452001
 20
1.034252179431478
 30
0.0
 11
1.258492624134982
 21
0.8720163082001114
 31
0.0
  0
LINE
  5
134
330
70
100
AcDbEntity
  8
2 v3_Sketch1
100
AcDbLine
 10
5.264613935929668
 20
7.200168013501127
 30
0.0
 11
5.414613878550321
 21
6.600168013537032
 31
0.0
  0
LINE
  5
135
330
70
100
AcDbEntity
  8
2 v3_Sketch1
100
AcDbLine
 10
5.214613878549831
 20
6.40016801353753
 30
0.0
 11
4.614613864666489
 21
6.400168013540415
 31
0.0
  0
ARC
  5
136
330
70
100
AcDbEntity
  8
2 v3_Sketch1
100
AcDbCircle
 10
5.214613859536294
 20
6.600168008083748
 30
0.0
 40
0.1999999999999939
100
AcDbArc
 50
270.0000000676863
 51
0.0000000659580885
  0
ARC
  5
137
330
70
100
AcDbEntity
  8
2 v3_Sketch1
100
AcDbCircle
 10
-2.085423228707341
 20
6.600168013496308
 30
0.0
 40
0.1999999999999939
100
AcDbArc
 50
269.999999999999
 51
0.0
  0
ARC
  5
138
330
70
100
AcDbEntity
  8
2 v3_Sketch1
100
AcDbCircle
 10
0.6146132998819259
 20
-0.2998319396974542
 30
0.0
 40
0.2500000037252866
100
AcDbArc
 50
137.7263109939066
 51
317.7263097864884
  0
ARC
  5
139
330
70
100
AcDbEntity
  8
2 v3_Sketch1
100
AcDbCircle
 10
5.927613313133303
 20
1.612168097038682
 30
0.0
 40
0.196000000000005
100
AcDbArc
 50
180.000000000001
 51
269.999999999999
  0
LINE
  5
13A
330
70
100
AcDbEntity
  8
2 v3_Sketch1
100
AcDbLine
 10
5.21461387854096
 20
6.400168013496331
 30
0.0
 11
4.614613863639808
 21
6.400168013496328
 31
0.0
  0
LINE
  5
13B
330
70
100
AcDbEntity
  8
2 v3_Sketch1
100
AcDbLine
 10
1.899598544274866
 20
4.531999814077298
 30
0.0
 11
2.264613531365023
 21
4.200168007631701
 31
0.0
  0
ARC
  5
13C
330
70
100
AcDbEntity
  8
2 v3_Sketch1
100
AcDbCircle
 10
5.927612762386726
 20
2.788167500395904
 30
0.0
 40
0.1960000000000022
100
AcDbArc
 50
90.00005366576864
 51
180.0000536657655
  0
LINE
  5
13D
330
70
100
AcDbEntity
  8
2 v3_Sketch1
100
AcDbLine
 10
5.264613422911986
 20
-2.799831723072415
 30
0.0
 11
5.414613422911971
 21
-2.19983205089796
 31
0.0
  0
LINE
  5
13E
330
70
100
AcDbEntity
  8
2 v3_Sketch1
100
AcDbLine
 10
5.264613376479283
 20
7.200169613116036
 30
0.0
 11
5.414613712853709
 21
6.600168061483486
 31
0.0
  0
ARC
  5
13F
330
70
100
AcDbEntity
  8
2 v3_Sketch1
100
AcDbCircle
 10
0.6646133998451642
 20
6.650168280297306
 30
0.0
 40
0.2500000037252899
100
AcDbArc
 50
132.2736885429978
 51
312.273689750416
  0
LINE
  5
140
330
70
100
AcDbEntity
  8
2 v3_Sketch1
100
AcDbLine
 10
5.264614009843304
 20
7.20016763184004
 30
0.0
 11
5.414613859536293
 21
6.600168008313985
 31
0.0
  0
LINE
  5
141
330
70
100
AcDbEntity
  8
2 v3_Sketch1
100
AcDbLine
 10
0.3305294612367309
 20
7.01766061873414
 30
0.0
 11
0.4927648608735016
 21
7.106288529576987
 31
0.0
  0
ARC
  5
142
330
70
100
AcDbEntity
  8
2 v3_Sketch1
100
AcDbCircle
 10
-2.085423230844163
 20
6.600168012844704
 30
0.0
 40
0.1999999999999939
100
AcDbArc
 50
270.0000000046197
 51
0.0000000045112988
  0
ARC
  5
143
330
70
100
AcDbEntity
  8
2 v3_Sketch1
100
AcDbCircle
 10
4.914614078596962
 20
5.200169801434483
 30
0.0
 40
0.0999996215105146
100
AcDbArc
 50
359.9999989469708
 51
179.9999989469708
  0
ARC
  5
144
330
70
100
AcDbEntity
  8
2 v3_Sketch1
100
AcDbCircle
 10
8.064613847408036
 20
2.500168110445466
 30
0.0
 40
0.1999999999999975
100
AcDbArc
 50
89.99999997284671
 51
179.9999999742744
  0
LINE
  5
145
330
70
100
AcDbEntity
  8
2 v3_Sketch1
100
AcDbLine
 10
5.264613186855799
 20
-2.799833661297588
 30
0.0
 11
5.414613653723039
 21
-2.199832093549451
 31
0.0
  0
ARC
  5
146
330
70
100
AcDbEntity
  8
2 v3_Sketch1
100
AcDbCircle
 10
0.4687939363716947
 20
7.150167850202181
 30
0.0
 40
0.0499999999999986
100
AcDbArc
 50
298.6474295692807
 51
89.99999739122662
  0
LINE
  5
147
330
70
100
AcDbEntity
  8
2 v3_Sketch1
100
AcDbLine
 10
8.664616349662169
 20
-2.149831352694699
 30
0.0
 11
8.664616677488206
 21
-2.79983217573653
 31
0.0
  0
ARC
  5
148
330
70
100
AcDbEntity
  8
2 v3_Sketch1
100
AcDbCircle
 10
0.6646134418095287
 20
-2.249832404880075
 30
0.0
 40
0.2500000037252894
100
AcDbArc
 50
47.72631181849092
 51
227.7263118184909
  0
ARC
  5
149
330
70
100
AcDbEntity
  8
2 v3_Sketch1
100
AcDbCircle
 10
5.214613435548164
 20
-2.199832053227152
 30
0.0
 40
0.1999999999999922
100
AcDbArc
 50
0.0000000004022766
 51
90.00000000337697
  0
ARC
  5
14A
330
70
100
AcDbEntity
  8
2 v3_Sketch1
100
AcDbCircle
 10
1.214613303492244
 20
0.8959872326697983
 30
0.0
 40
0.0500000000000043
100
AcDbArc
 50
179.9999986583535
 51
331.3525704726587
  0
LINE
  5
14B
330
70
100
AcDbEntity
  8
2 v3_Sketch1
100
AcDbLine
 10
4.614613408010825
 20
-1.999832050897977
 30
0.0
 11
5.214613422911982
 21
-1.999832050897973
 31
0.0
  0
LINE
  5
14C
330
70
100
AcDbEntity
  8
2 v3_Sketch1
100
AcDbLine
 10
8.664615385706003
 20
-2.799831992368355
 30
0.0
 11
8.664616132167255
 21
-2.29983191041199
 31
0.0
  0
LINE
  5
14D
330
70
100
AcDbEntity
  8
2 v3_Sketch1
100
AcDbLine
 10
8.664615668793317
 20
-0.7998308628604902
 30
0.0
 11
8.664615996619669
 21
-1.449832312214967
 31
0.0
  0
LINE
  5
14E
330
70
100
AcDbEntity
  8
2 v3_Sketch1
100
AcDbLine
 10
8.464612462984486
 20
3.200168111937807
 30
0.0
 11
8.664613651405385
 21
3.200168097035944
 31
0.0
  0
ARC
  5
14F
330
70
100
AcDbEntity
  8
2 v3_Sketch1
100
AcDbCircle
 10
6.515613327736428
 20
1.612168097038676
 30
0.0
 40
0.1959999999999944
100
AcDbArc
 50
270.0
 51
0.0
  0
LINE
  5
150
330
70
100
AcDbEntity
  8
2 v3_Sketch1
100
AcDbLine
 10
1.899598328208037
 20
0.53199987419872
 30
0.0
 11
2.264613315298193
 21
0.2001680677531206
 31
0.0
  0
LINE
  5
151
330
70
100
AcDbEntity
  8
2 v3_Sketch1
100
AcDbLine
 10
8.664612642712063
 20
5.200166299360512
 30
0.0
 11
8.464611323843211
 21
5.200166185445518
 31
0.0
  0
LINE
  5
152
330
70
100
AcDbEntity
  8
2 v3_Sketch1
100
AcDbLine
 10
8.664616349662169
 20
-2.149831352694699
 30
0.0
 11
8.064613866359113
 21
-2.299832064708914
 31
0.0
  0
LINE
  5
153
330
70
100
AcDbEntity
  8
2 v3_Sketch1
100
AcDbLine
 10
0.3305295492136455
 20
-2.617324703223515
 30
0.0
 11
0.4927650513532811
 21
-2.705952671894999
 31
0.0
  0
LINE
  5
154
330
70
100
AcDbEntity
  8
2 v3_Sketch1
100
AcDbLine
 10
8.664611961842332
 20
6.550168548861897
 30
0.0
 11
8.064613818349563
 21
6.700168023501394
 31
0.0
  0
LINE
  5
155
330
70
100
AcDbEntity
  8
2 v3_Sketch1
100
AcDbLine
 10
0.3305295492136455
 20
-2.617324703223515
 30
0.0
 11
0.4964452436117722
 21
-2.434817428537575
 31
0.0
  0
LINE
  5
156
330
70
100
AcDbEntity
  8
2 v3_Sketch1
100
AcDbLine
 10
7.864613871445662
 20
-1.499831771598722
 30
0.0
 11
7.86461386256876
 21
-2.099832068326954
 31
0.0
  0
LINE
  5
157
330
70
100
AcDbEntity
  8
2 v3_Sketch1
100
AcDbLine
 10
0.982105814532483
 20
1.034252179431478
 30
0.0
 11
0.7995983209874087
 21
0.8683362762086787
 31
0.0
  0
ARC
  5
158
330
70
100
AcDbEntity
  8
2 v3_Sketch1
100
AcDbCircle
 10
4.914613424725045
 20
1.200169236399345
 30
0.0
 40
0.0999996215105039
100
AcDbArc
 50
359.99999917582
 51
179.99999917582
  0
LINE
  5
159
330
70
100
AcDbEntity
  8
2 v3_Sketch1
100
AcDbLine
 10
1.347120792452001
 20
1.034252179431478
 30
0.0
 11
1.529628285997079
 21
0.8683362762086787
 31
0.0
  0
ARC
  5
15A
330
70
100
AcDbEntity
  8
2 v3_Sketch1
100
AcDbCircle
 10
5.21461365372304
 20
-2.199832095481436
 30
0.0
 40
0.1999999999999993
100
AcDbArc
 50
0.0000005534730012
 51
90.0000005612585
  0
LINE
  5
15B
330
70
100
AcDbEntity
  8
2 v3_Sketch1
100
AcDbLine
 10
-2.035388075299074
 20
-2.799833832235224
 30
0.0
 11
-1.885387608431837
 21
-2.199832264487089
 31
0.0
  0
LINE
  5
15C
330
70
100
AcDbEntity
  8
2 v3_Sketch1
100
AcDbLine
 10
0.982105814532483
 20
-0.6339160439252387
 30
0.0
 11
1.070733982849501
 21
-0.4716801726938665
 31
0.0
  0
LINE
  5
15D
330
70
100
AcDbEntity
  8
2 v3_Sketch1
100
AcDbLine
 10
0.7995983209874016
 20
-0.4680001407024355
 30
0.0
 11
0.982105814532483
 21
-0.6339160439252387
 31
0.0
  0
LINE
  5
15E
330
70
100
AcDbEntity
  8
2 v3_Sketch1
100
AcDbLine
 10
8.664612314885673
 20
5.85016783316483
 30
0.0
 11
8.06461384827034
 21
5.700168136086166
 31
0.0
  0
LINE
  5
15F
330
70
100
AcDbEntity
  8
2 v3_Sketch1
100
AcDbLine
 10
4.814614457086465
 20
5.20016980327235
 30
0.0
 11
4.814614420328899
 21
3.200169760204246
 31
0.0
  0
LINE
  5
160
330
70
100
AcDbEntity
  8
2 v3_Sketch1
100
AcDbLine
 10
6.515612593407304
 20
2.984168051142692
 30
0.0
 11
5.927612578804431
 21
2.98416750039582
 31
0.0
  0
LINE
  5
161
330
70
100
AcDbEntity
  8
2 v3_Sketch1
100
AcDbLine
 10
0.982105814532483
 20
1.034252179431478
 30
0.0
 11
1.070733982849505
 21
0.8720163082001114
 31
0.0
  0
ARC
  5
162
330
70
100
AcDbEntity
  8
2 v3_Sketch1
100
AcDbCircle
 10
8.064613848765189
 20
5.90016813608617
 30
0.0
 40
0.2000000000000064
100
AcDbArc
 50
179.9999998660361
 51
269.9999998582363
  0
LINE
  5
163
330
70
100
AcDbEntity
  8
2 v3_Sketch1
100
AcDbLine
 10
2.264613315298193
 20
0.2001680677531206
 30
0.0
 11
1.899598328208037
 21
-0.1316637386924784
 31
0.0
  0
LINE
  5
164
330
70
100
AcDbEntity
  8
2 v3_Sketch1
100
AcDbLine
 10
7.864613848849684
 20
6.500168104806741
 30
0.0
 11
7.864613848765182
 21
5.900168136553793
 31
0.0
  0
ARC
  5
165
330
70
100
AcDbEntity
  8
2 v3_Sketch1
100
AcDbCircle
 10
1.114613303492243
 20
0.8959872326697983
 30
0.0
 40
0.0499999999999962
100
AcDbArc
 50
208.6474295273412
 51
0.0000013416466385
  0
ARC
  5
166
330
70
100
AcDbEntity
  8
2 v3_Sketch1
100
AcDbCircle
 10
8.064613871445658
 20
-1.499831774564373
 30
0.0
 40
0.1999999999999975
100
AcDbArc
 50
89.99999911595846
 51
179.9999991504035
  0
LINE
  5
167
330
70
100
AcDbEntity
  8
2 v3_Sketch1
100
AcDbLine
 10
8.664616677488206
 20
-2.79983217573653
 30
0.0
 11
5.264613359775003
 21
-2.79983209963425
 31
0.0
  0
LINE
  5
168
330
70
100
AcDbEntity
  8
2 v3_Sketch1
100
AcDbLine
 10
6.515612593407304
 20
2.984168051142692
 30
0.0
 11
5.927612578804431
 21
2.98416750039582
 31
0.0
  0
LINE
  5
169
330
70
100
AcDbEntity
  8
2 v3_Sketch1
100
AcDbLine
 10
-2.035423161433453
 20
7.200167964223607
 30
0.0
 11
-1.885423230844164
 21
6.600168012860452
 31
0.0
  0
ARC
  5
16A
330
70
100
AcDbEntity
  8
2 v3_Sketch1
100
AcDbCircle
 10
8.064613848849679
 20
6.500168104785778
 30
0.0
 40
0.1999999999999957
100
AcDbArc
 50
89.99999999408519
 51
179.9999999939946
  0
ARC
  5
16B
330
70
100
AcDbEntity
  8
2 v3_Sketch1
100
AcDbCircle
 10
-2.085387839242894
 20
-2.199832221835612
 30
0.0
 40
0.1999999999999886
100
AcDbArc
 50
0.0000000000015267
 51
89.99999999999898
  0
LINE
  5
16C
330
70
100
AcDbEntity
  8
2 v3_Sketch1
100
AcDbLine
 10
8.664613979231024
 20
2.550168077241382
 30
0.0
 11
8.064613847502819
 21
2.700168110445463
 31
0.0
  0
LINE
  5
16D
330
70
100
AcDbEntity
  8
2 v3_Sketch1
100
AcDbLine
 10
8.664613978962393
 20
2.700168104499292
 30
0.0
 11
8.664613979231024
 21
2.550168077241382
 31
0.0
  0
LINE
  5
16E
330
70
100
AcDbEntity
  8
2 v3_Sketch1
100
AcDbLine
 10
8.664616037891502
 20
-1.299831895517953
 30
0.0
 11
8.664615668793317
 21
-0.7998308628604902
 31
0.0
  0
LINE
  5
16F
330
70
100
AcDbEntity
  8
2 v3_Sketch1
100
AcDbLine
 10
-2.035387839242886
 20
-2.799831894010053
 30
0.0
 11
-1.885387839242905
 21
-2.199832221835607
 31
0.0
  0
LINE
  5
170
330
70
100
AcDbEntity
  8
2 v3_Sketch1
100
AcDbLine
 10
6.515613327736428
 20
1.416168097038682
 30
0.0
 11
5.927613313133299
 21
1.416168097038676
 31
0.0
  0
ARC
  5
171
330
70
100
AcDbEntity
  8
2 v3_Sketch1
100
AcDbCircle
 10
1.114613303492243
 20
-0.4956510971635498
 30
0.0
 40
0.0499999999999972
100
AcDbArc
 50
359.9999986583535
 51
151.3525704726643
  0
LINE
  5
172
330
70
100
AcDbEntity
  8
2 v3_Sketch1
100
AcDbLine
 10
8.664615996619669
 20
-1.449832312214967
 30
0.0
 11
8.064613874531545
 21
-1.299831774564376
 31
0.0
  0
LINE
  5
173
330
70
100
AcDbEntity
  8
2 v3_Sketch1
100
AcDbLine
 10
6.564613383958509
 20
2.200168097038674
 30
0.0
 11
6.711613327736424
 21
1.612168097038676
 31
0.0
  0
ARC
  5
174
330
70
100
AcDbEntity
  8
2 v3_Sketch1
100
AcDbCircle
 10
1.66461349610943
 20
-2.249831820779644
 30
0.0
 40
0.2500000037252908
100
AcDbArc
 50
312.2736875579838
 51
132.2736875579837
  0
LINE
  5
175
330
70
100
AcDbEntity
  8
2 v3_Sketch1
100
AcDbLine
 10
8.664616037891502
 20
-1.299831895517953
 30
0.0
 11
8.664615996619669
 21
-1.449832312214967
 31
0.0
  0
LINE
  5
176
330
70
100
AcDbEntity
  8
2 v3_Sketch1
100
AcDbLine
 10
5.264613422911986
 20
-2.799831723072416
 30
0.0
 11
5.414613422911971
 21
-2.19983205089796
 31
0.0
  0
ARC
  5
177
330
70
100
AcDbEntity
  8
2 v3_Sketch1
100
AcDbCircle
 10
6.515613327736428
 20
1.612168097038676
 30
0.0
 40
0.1959999999999944
100
AcDbArc
 50
270.0
 51
0.0
  0
ARC
  5
178
330
70
100
AcDbEntity
  8
2 v3_Sketch1
100
AcDbCircle
 10
0.6146132998819259
 20
0.7001680752037012
 30
0.0
 40
0.250000003725293
100
AcDbArc
 50
42.27368900609259
 51
222.2736890060926
  0
LINE
  5
179
330
70
100
AcDbEntity
  8
2 v3_Sketch1
100
AcDbLine
 10
7.864613819460196
 20
6.500168022425611
 30
0.0
 11
7.864613821395176
 21
5.900168081637714
 31
0.0
  0
ARC
  5
17A
330
70
100
AcDbEntity
  8
2 v3_Sketch1
100
AcDbCircle
 10
5.927613313133303
 20
1.612168097038682
 30
0.0
 40
0.196000000000005
100
AcDbArc
 50
180.000000000001
 51
269.999999999999
  0
LINE
  5
17B
330
70
100
AcDbEntity
  8
2 v3_Sketch1
100
AcDbLine
 10
6.515613327736428
 20
1.416168097038682
 30
0.0
 11
5.927613313133299
 21
1.416168097038676
 31
0.0
  0
LINE
  5
17C
330
70
100
AcDbEntity
  8
2 v3_Sketch1
100
AcDbLine
 10
-2.03538784791986
 20
-2.79983193623831
 30
0.0
 11
-1.885387837414455
 21
-2.199832219370034
 31
0.0
  0
LINE
  5
17D
330
70
100
AcDbEntity
  8
2 v3_Sketch1
100
AcDbLine
 10
8.664612314885673
 20
5.85016783316483
 30
0.0
 11
8.664612642712063
 21
5.200166299360512
 31
0.0
  0
LINE
  5
17E
330
70
100
AcDbEntity
  8
2 v3_Sketch1
100
AcDbLine
 10
8.664612642712063
 20
5.200166299360512
 30
0.0
 11
8.664612357925454
 21
5.700168089640925
 31
0.0
  0
LINE
  5
17F
330
70
100
AcDbEntity
  8
2 v3_Sketch1
100
AcDbLine
 10
8.664613847382646
 20
6.700168104489254
 30
0.0
 11
8.664613847432864
 21
6.550168162470882
 31
0.0
  0
LINE
  5
180
330
70
100
AcDbEntity
  8
2 v3_Sketch1
100
AcDbLine
 10
4.614613572261646
 20
-1.999832097473208
 30
0.0
 11
5.214613651763878
 21
-1.999832095481428
 31
0.0
  0
LINE
  5
181
330
70
100
AcDbEntity
  8
2 v3_Sketch1
100
AcDbLine
 10
0.0646132916862872
 20
0.2001680677531241
 30
0.0
 11
0.4296282787764501
 21
-0.1316637386924784
 31
0.0
  0
LINE
  5
182
330
70
100
AcDbEntity
  8
2 v3_Sketch1
100
AcDbLine
 10
0.4296282787764501
 20
0.5319998741987236
 30
0.0
 11
0.0646132916862872
 21
0.2001680677531241
 31
0.0
  0
LINE
  5
183
330
70
100
AcDbEntity
  8
2 v3_Sketch1
100
AcDbLine
 10
8.664614332273909
 20
1.850168257871136
 30
0.0
 11
8.664614660099612
 21
1.200168097037885
 31
0.0
  0
ARC
  5
184
330
70
100
AcDbEntity
  8
2 v3_Sketch1
100
AcDbCircle
 10
4.914613395955706
 20
-0.7998306744023234
 30
0.0
 40
0.0999996215105004
100
AcDbArc
 50
179.9999991758203
 51
359.9999991758203
  0
LINE
  5
185
330
70
100
AcDbEntity
  8
2 v3_Sketch1
100
AcDbLine
 10
4.614613408010825
 20
-1.999832050897977
 30
0.0
 11
5.214613422911982
 21
-1.999832050897973
 31
0.0
  0
LINE
  5
186
330
70
100
AcDbEntity
  8
2 v3_Sketch1
100
AcDbLine
 10
4.814613803214539
 20
1.200169237837807
 30
0.0
 11
4.814613774445206
 21
-0.7998306729638638
 31
0.0
  0
LINE
  5
187
330
70
100
AcDbEntity
  8
2 v3_Sketch1
100
AcDbLine
 10
8.664613847382646
 20
6.700168104489254
 30
0.0
 11
8.664613519557011
 21
7.200168007631706
 31
0.0
  0
LINE
  5
188
330
70
100
AcDbEntity
  8
2 v3_Sketch1
100
AcDbLine
 10
0.8327816401522554
 20
-2.064847381354369
 30
0.0
 11
1.164613743022785
 21
-1.69983205332296
 31
0.0
  0
LINE
  5
189
330
70
100
AcDbEntity
  8
2 v3_Sketch1
100
AcDbLine
 10
5.014613017466217
 20
-0.7998306758407861
 30
0.0
 11
5.014613046235549
 21
1.200169234960885
 31
0.0
  0
ARC
  5
18A
330
70
100
AcDbEntity
  8
2 v3_Sketch1
100
AcDbCircle
 10
8.064613821299424
 20
5.900168082012896
 30
0.0
 40
0.1999999999042483
100
AcDbArc
 50
180.0000001074819
 51
270.0000001180642
  0
LINE
  5
18B
330
70
100
AcDbEntity
  8
2 v3_Sketch1
100
AcDbLine
 10
8.664613978962393
 20
2.700168104499292
 30
0.0
 11
8.664613651405385
 21
3.200168097035944
 31
0.0
  0
LINE
  5
18C
330
70
100
AcDbEntity
  8
2 v3_Sketch1
100
AcDbLine
 10
-2.035387839242886
 20
-2.799831894010053
 30
0.0
 11
-1.885387839242905
 21
-2.199832221835607
 31
0.0
  0
ARC
  5
18D
330
70
100
AcDbEntity
  8
2 v3_Sketch1
100
AcDbCircle
 10
-2.085387837414444
 20
-2.199832219339763
 30
0.0
 40
0.1999999999999886
100
AcDbArc
 50
359.999999991328
 51
89.99999999157381
  0
LINE
  5
18E
330
70
100
AcDbEntity
  8
2 v3_Sketch1
100
AcDbLine
 10
8.664616132167255
 20
-2.29983191041199
 30
0.0
 11
8.664616349662169
 21
-2.149831352694699
 31
0.0
  0
LINE
  5
18F
330
70
100
AcDbEntity
  8
2 v3_Sketch1
100
AcDbLine
 10
6.564613383958509
 20
2.200168097038674
 30
0.0
 11
6.711613327736424
 21
1.612168097038676
 31
0.0
  0
ARC
  5
190
330
70
100
AcDbEntity
  8
2 v3_Sketch1
100
AcDbCircle
 10
8.064613847382464
 20
1.900168053012093
 30
0.0
 40
0.2000000000000108
100
AcDbArc
 50
180.0000001698838
 51
270.000000179198
  0
ARC
  5
191
330
70
100
AcDbEntity
  8
2 v3_Sketch1
100
AcDbCircle
 10
8.064613862568766
 20
-2.099832064708907
 30
0.0
 40
0.2000000000000055
100
AcDbArc
 50
180.000001036494
 51
270.0000010858546
  0
LINE
  5
192
330
70
100
AcDbEntity
  8
2 v3_Sketch1
100
AcDbLine
 10
8.464613412270725
 20
1.200167996167834
 30
0.0
 11
8.46461320365459
 21
-0.7998308419986087
 31
0.0
  0
ARC
  5
193
330
70
100
AcDbEntity
  8
2 v3_Sketch1
100
AcDbCircle
 10
0.4687941264290281
 20
-2.749831992289418
 30
0.0
 40
0.0500000000000003
100
AcDbArc
 50
269.9999980660314
 51
61.35256987910913
  0
LINE
  5
194
330
70
100
AcDbEntity
  8
2 v3_Sketch1
100
AcDbLine
 10
8.664614324230992
 20
1.700168089597611
 30
0.0
 11
8.664614332273909
 21
1.850168257871136
 31
0.0
  0
ARC
  5
195
330
70
100
AcDbEntity
  8
2 v3_Sketch1
100
AcDbCircle
 10
8.064613819460193
 20
6.500168023501396
 30
0.0
 40
0.1999999999999975
100
AcDbArc
 50
90.00000031817199
 51
180.0000003081896
  0
ARC
  5
196
330
70
100
AcDbEntity
  8
2 v3_Sketch1
100
AcDbCircle
 10
-2.085387608431833
 20
-2.199832266419074
 30
0.0
 40
0.1999999999999958
100
AcDbArc
 50
0.0000005534730012
 51
90.0000005612585
  0
LINE
  5
197
330
70
100
AcDbEntity
  8
2 v3_Sketch1
100
AcDbLine
 10
1.347120792452001
 20
-0.6339160439252387
 30
0.0
 11
1.258492624134985
 21
-0.4716801726938665
 31
0.0
  0
ARC
  5
198
330
70
100
AcDbEntity
  8
2 v3_Sketch1
100
AcDbCircle
 10
-2.085423394394599
 20
6.600168060071542
 30
0.0
 40
0.1999999999999939
100
AcDbArc
 50
270.0000004115078
 51
0.0000004044881866
  0
LINE
  5
199
330
70
100
AcDbEntity
  8
2 v3_Sketch1
100
AcDbLine
 10
8.464611323843211
 20
5.200166185445518
 30
0.0
 11
8.464612462984486
 21
3.200168111937807
 31
0.0
  0
LINE
  5
19A
330
70
100
AcDbEntity
  8
2 v3_Sketch1
100
AcDbLine
 10
8.664613651405385
 20
3.200168097035944
 30
0.0
 11
8.664613979231024
 21
2.550168077241382
 31
0.0
  0
LINE
  5
19B
330
70
100
AcDbEntity
  8
2 v3_Sketch1
100
AcDbLine
 10
8.664613519777642
 20
5.850168088713827
 30
0.0
 11
8.064613821711546
 21
5.700168082108648
 31
0.0
  0
LINE
  5
19C
330
70
100
AcDbEntity
  8
2 v3_Sketch1
100
AcDbLine
 10
1.529628285997079
 20
-0.4680001407024373
 30
0.0
 11
1.347120792452001
 21
-0.6339160439252387
 31
0.0
  0
LINE
  5
19D
330
70
100
AcDbEntity
  8
2 v3_Sketch1
100
AcDbLine
 10
8.664611634017246
 20
7.200167477032149
 30
0.0
 11
8.664611961842332
 21
6.550168548861897
 31
0.0
  0
LINE
  5
19E
330
70
100
AcDbEntity
  8
2 v3_Sketch1
100
AcDbLine
 10
8.664613847432864
 20
6.550168162470882
 30
0.0
 11
8.064613848870326
 21
6.700168104785774
 31
0.0
  0
LINE
  5
19F
330
70
100
AcDbEntity
  8
2 v3_Sketch1
100
AcDbLine
 10
8.664615668793317
 20
-0.7998308628604902
 30
0.0
 11
8.46461320365459
 21
-0.7998308419986087
 31
0.0
  0
LINE
  5
1A0
330
70
100
AcDbEntity
  8
2 v3_Sketch1
100
AcDbLine
 10
8.664614332273909
 20
1.850168257871136
 30
0.0
 11
8.064613848007983
 21
1.700168053012087
 31
0.0
  0
ARC
  5
1A1
330
70
100
AcDbEntity
  8
2 v3_Sketch1
100
AcDbCircle
 10
-2.085387839242894
 20
-2.199832221835612
 30
0.0
 40
0.1999999999999886
100
AcDbArc
 50
0.0000000000015267
 51
89.99999999999898
  0
LINE
  5
1A2
330
70
100
AcDbEntity
  8
2 v3_Sketch1
100
AcDbLine
 10
1.998697649985766
 20
-2.617324412076599
 30
0.0
 11
1.836461551486234
 21
-2.705952702574927
 31
0.0
  0
LINE
  5
1A3
330
70
100
AcDbEntity
  8
2 v3_Sketch1
100
AcDbLine
 10
0.4687941247413221
 20
-2.799831992289418
 30
0.0
 11
-2.03538784791986
 21
-2.79983193623831
 31
0.0
  0
LINE
  5
1A4
330
70
100
AcDbEntity
  8
2 v3_Sketch1
100
AcDbLine
 10
8.664614660099612
 20
1.200168097037885
 30
0.0
 11
8.664614324230992
 21
1.700168089597611
 31
0.0
  0
LINE
  5
1A5
330
70
100
AcDbEntity
  8
2 v3_Sketch1
100
AcDbLine
 10
1.832781692439045
 20
-2.434816846135453
 30
0.0
 11
1.998697649985766
 21
-2.617324412076599
 31
0.0
  0
ARC
  5
1A6
330
70
100
AcDbEntity
  8
2 v3_Sketch1
100
AcDbCircle
 10
1.214613303492237
 20
-0.4956510971635498
 30
0.0
 40
0.0500000000000038
100
AcDbArc
 50
28.6474295273318
 51
180.0000013416464
  0
LINE
  5
1A7
330
70
100
AcDbEntity
  8
2 v3_Sketch1
100
AcDbLine
 10
-2.73538791151352
 20
-2.799832221835599
 30
0.0
 11
-2.885387854144052
 21
-2.199832221835605
 31
0.0
  0
LINE
  5
1A8
330
70
100
AcDbEntity
  8
2 v3_Sketch1
100
AcDbLine
 10
8.664614660099612
 20
1.200168097037885
 30
0.0
 11
8.464613412270725
 21
1.200167996167834
 31
0.0
  0
ARC
  5
1A9
330
70
100
AcDbEntity
  8
2 v3_Sketch1
100
AcDbCircle
 10
1.860432475551746
 20
-2.749832023438464
 30
0.0
 40
0.0499999999999984
100
AcDbArc
 50
118.6474289995857
 51
270.0000008127788
  0
ENDSEC
  0
SECTION
  2
OBJECTS
  0
DICTIONARY
  5
C
330
0
100
AcDbDictionary
281
     1
  3
ACAD_COLOR
350
63
  3
ACAD_DETAILVIEWSTYLE
350
6A
  3
ACAD_GROUP
350
D
  3
ACAD_LAYOUT
350
62
  3
ACAD_MATERIAL
350
10
  3
ACAD_MLEADERSTYLE
350
66
  3
ACAD_MLINESTYLE
350
5F
  3
ACAD_PLOTSETTINGS
350
61
  3
ACAD_PLOTSTYLENAME
350
E
  3
ACAD_SCALELIST
350
42
  3
ACAD_SECTIONVIEWSTYLE
350
68
  3
ACAD_TABLESTYLE
350
64
  3
ACAD_VISUALSTYLE
350
29
  3
ACDB_RECOMPOSE_DATA
350
1B2
  3
AcDbVariableDictionary
350
1AA
  0
DICTIONARY
  5
63
102
{ACAD_REACTORS
330
C
102
}
330
C
100
AcDbDictionary
281
     1
  0
DICTIONARY
  5
6A
102
{ACAD_REACTORS
330
C
102
}
330
C
100
AcDbDictionary
281
     1
  3
Imperial24
350
6B
  0
DICTIONARY
  5
D
102
{ACAD_REACTORS
330
C
102
}
330
C
100
AcDbDictionary
281
     1
  0
DICTIONARY
  5
62
102
{ACAD_REACTORS
330
C
102
}
330
C
100
AcDbDictionary
281
     1
  3
Layout1
350
6F
  3
Layout2
350
77
  3
Model
350
73
  0
DICTIONARY
  5
10
102
{ACAD_REACTORS
330
C
102
}
330
C
100
AcDbDictionary
281
     1
  3
ByBlock
350
19
  3
ByLayer
350
11
  3
Global
350
21
  0
DICTIONARY
  5
66
102
{ACAD_REACTORS
330
C
102
}
330
C
100
AcDbDictionary
281
     1
  3
Standard
350
67
  0
DICTIONARY
  5
5F
102
{ACAD_REACTORS
330
C
102
}
330
C
100
AcDbDictionary
281
     1
  3
Standard
350
60
  0
DICTIONARY
  5
61
102
{ACAD_REACTORS
330
C
102
}
330
C
100
AcDbDictionary
281
     1
  0
ACDBDICTIONARYWDFLT
  5
E
102
{ACAD_REACTORS
330
C
102
}
330
C
100
AcDbDictionary
281
     1
  3
Normal
350
F
100
AcDbDictionaryWithDefault
340
F
  0
DICTIONARY
  5
42
102
{ACAD_REACTORS
330
C
102
}
330
C
100
AcDbDictionary
281
     1
  3
A0
350
43
  3
A1
350
44
  3
A2
350
45
  3
A3
350
46
  3
A4
350
47
  3
A5
350
48
  3
A6
350
49
  3
A7
350
4A
  3
A8
350
4B
  3
A9
350
4C
  3
B0
350
4D
  3
B1
350
4E
  3
B2
350
4F
  3
B3
350
50
  3
B4
350
51
  3
B5
350
52
  3
B6
350
53
  0
DICTIONARY
  5
68
102
{ACAD_REACTORS
330
C
102
}
330
C
100
AcDbDictionary
281
     1
  3
Imperial24
350
69
  0
DICTIONARY
  5
64
102
{ACAD_REACTORS
330
C
102
}
330
C
100
AcDbDictionary
281
     1
  3
Standard
350
65
  0
DICTIONARY
  5
29
102
{ACAD_REACTORS
330
C
102
}
330
C
100
AcDbDictionary
281
     1
  3
2dWireframe
350
2F
  3
Basic
350
2E
  3
Brighten
350
35
  3
ColorChange
350
39
  3
Conceptual
350
32
  3
Dim
350
34
  3
EdgeColorOff
350
41
  3
Facepattern
350
38
  3
Flat
350
2A
  3
FlatWithEdges
350
2B
  3
Gouraud
350
2C
  3
GouraudWithEdges
350
2D
  3
Hidden
350
31
  3
JitterOff
350
3F
  3
Linepattern
350
37
  3
OverhangOff
350
40
  3
Realistic
350
33
  3
Shaded
350
3E
  3
Shaded with edges
350
3D
  3
Shades of Gray
350
3A
  3
Sketchy
350
3B
  3
Thicken
350
36
  3
Wireframe
350
30
  3
X-Ray
350
3C
  0
XRECORD
  5
1B2
102
{ACAD_REACTORS
330
C
102
}
330
C
100
AcDbXrecord
280
     1
 90
        1
330
65
  0
DICTIONARY
  5
1AA
102
{ACAD_REACTORS
330
C
102
}
330
C
100
AcDbDictionary
281
     1
  3
CANNOSCALE
350
1AF
  3
CMLEADERSTYLE
350
1AC
  3
CTABLESTYLE
350
1AB
  3
CVIEWDETAILSTYLE
350
1AD
  3
CVIEWSECTIONSTYLE
350
1AE
  0
ACDBDETAILVIEWSTYLE
  5
6B
102
{ACAD_XDICTIONARY
360
1B5
102
}
102
{ACAD_REACTORS
330
6A
102
}
330
6A
100
AcDbModelDocViewStyle
 70
     0
  3
Imperial24
290
     0
100
AcDbDetailViewStyle
 70
     0
 71
     0
 90
        3
 71
     1
340
55
 62
   256
 40
0.24
340
0
 62
   256
 40
0.24
300

 40
0.36
280
     3
 71
     2
340
5D
 90
       25
 62
   256
 71
     3
340
55
 62
   256
 40
0.24
 90
        1
 40
0.75
 90
        1
300
%<\AcVar ViewType \f "%tc1">% %<\AcVar ViewDetailId>%\PSCALE %<\AcVar ViewScale \f "%sn">%
 71
     4
340
5D
 90
       25
 62
   256
340
5D
 90
       25
 62
   256
280
     0
  0
LAYOUT
  5
6F
102
{ACAD_REACTORS
330
62
102
}
330
62
100
AcDbPlotSettings
  1

  2

  4

  6

 40
0.0
 41
0.0
 42
0.0
 43
0.0
 44
0.0
 45
0.0
 46
0.0
 47
0.0
 48
0.0
 49
0.0
140
0.0
141
0.0
142
1.0
143
1.0
 70
   688
 72
     0
 73
     0
 74
     5
  7

 75
    16
147
1.0
 76
     0
 77
     2
 78
   300
148
0.0
149
0.0
100
AcDbLayout
  1
Layout1
 70
     1
 71
     1
 10
0.0
 20
0.0
 11
12.0
 21
9.0
 12
0.0
 22
0.0
 32
0.0
 14
0.0
 24
0.0
 34
0.0
 15
0.0
 25
0.0
 35
0.0
146
0.0
 13
0.0
 23
0.0
 33
0.0
 16
1.0
 26
0.0
 36
0.0
 17
0.0
 27
1.0
 37
0.0
 76
     0
330
6C
  0
LAYOUT
  5
77
102
{ACAD_REACTORS
330
62
102
}
330
62
100
AcDbPlotSettings
  1

  2

  4

  6

 40
0.0
 41
0.0
 42
0.0
 43
0.0
 44
0.0
 45
0.0
 46
0.0
 47
0.0
 48
0.0
 49
0.0
140
0.0
141
0.0
142
1.0
143
1.0
 70
   688
 72
     0
 73
     0
 74
     5
  7

 75
    16
147
1.0
 76
     0
 77
     2
 78
   300
148
0.0
149
0.0
100
AcDbLayout
  1
Layout2
 70
     1
 71
     2
 10
0.0
 20
0.0
 11
12.0
 21
9.0
 12
0.0
 22
0.0
 32
0.0
 14
0.0
 24
0.0
 34
0.0
 15
0.0
 25
0.0
 35
0.0
146
0.0
 13
0.0
 23
0.0
 33
0.0
 16
1.0
 26
0.0
 36
0.0
 17
0.0
 27
1.0
 37
0.0
 76
     0
330
74
  0
LAYOUT
  5
73
102
{ACAD_REACTORS
330
62
102
}
330
62
100
AcDbPlotSettings
  1

  2

  4

  6

 40
0.0
 41
0.0
 42
0.0
 43
0.0
 44
0.0
 45
0.0
 46
0.0
 47
0.0
 48
0.0
 49
0.0
140
0.0
141
0.0
142
1.0
143
1.0
 70
  1712
 72
     0
 73
     0
 74
     0
  7

 75
     0
147
1.0
 76
     0
 77
     2
 78
   300
148
0.0
149
0.0
100
AcDbLayout
  1
Model
 70
     1
 71
     0
 10
0.0
 20
0.0
 11
12.0
 21
9.0
 12
0.0
 22
0.0
 32
0.0
 14
0.0
 24
0.0
 34
0.0
 15
0.0
 25
0.0
 35
0.0
146
0.0
 13
0.0
 23
0.0
 33
0.0
 16
1.0
 26
0.0
 36
0.0
 17
0.0
 27
1.0
 37
0.0
 76
     0
330
70
  0
MATERIAL
  5
19
102
{ACAD_XDICTIONARY
360
1A
102
}
102
{ACAD_REACTORS
330
10
102
}
330
10
100
AcDbMaterial
  1
ByBlock
 72
     0
 43
0.0208333333333333
 43
0.0
 43
0.0
 43
0.0
 43
0.0
 43
0.0208333333333333
 43
0.0
 43
0.0
 43
0.0
 43
0.0
 43
1.0
 43
0.0
 43
0.0
 43
0.0
 43
0.0
 43
1.0
 77
     0
 47
0.0208333333333333
 47
0.0
 47
0.0
 47
0.0
 47
0.0
 47
0.0208333333333333
 47
0.0
 47
0.0
 47
0.0
 47
0.0
 47
1.0
 47
0.0
 47
0.0
 47
0.0
 47
0.0
 47
1.0
171
     0
 49
0.0208333333333333
 49
0.0
 49
0.0
 49
0.0
 49
0.0
 49
0.0208333333333333
 49
0.0
 49
0.0
 49
0.0
 49
0.0
 49
1.0
 49
0.0
 49
0.0
 49
0.0
 49
0.0
 49
1.0
175
     0
142
0.0208333333333333
142
0.0
142
0.0
142
0.0
142
0.0
142
0.0208333333333333
142
0.0
142
0.0
142
0.0
142
0.0
142
1.0
142
0.0
142
0.0
142
0.0
142
0.0
142
1.0
179
     0
144
0.0208333333333333
144
0.0
144
0.0
144
0.0
144
0.0
144
0.0208333333333333
144
0.0
144
0.0
144
0.0
144
0.0
144
1.0
144
0.0
144
0.0
144
0.0
144
0.0
144
1.0
147
0.0208333333333333
147
0.0
147
0.0
147
0.0
147
0.0
147
0.0208333333333333
147
0.0
147
0.0
147
0.0
147
0.0
147
1.0
147
0.0
147
0.0
147
0.0
147
0.0
147
1.0
  0
MATERIAL
  5
11
102
{ACAD_XDICTIONARY
360
12
102
}
102
{ACAD_REACTORS
330
10
102
}
330
10
100
AcDbMaterial
  1
ByLayer
 72
     0
 43
0.0208333333333333
 43
0.0
 43
0.0
 43
0.0
 43
0.0
 43
0.0208333333333333
 43
0.0
 43
0.0
 43
0.0
 43
0.0
 43
1.0
 43
0.0
 43
0.0
 43
0.0
 43
0.0
 43
1.0
 77
     0
 47
0.0208333333333333
 47
0.0
 47
0.0
 47
0.0
 47
0.0
 47
0.0208333333333333
 47
0.0
 47
0.0
 47
0.0
 47
0.0
 47
1.0
 47
0.0
 47
0.0
 47
0.0
 47
0.0
 47
1.0
171
     0
 49
0.0208333333333333
 49
0.0
 49
0.0
 49
0.0
 49
0.0
 49
0.0208333333333333
 49
0.0
 49
0.0
 49
0.0
 49
0.0
 49
1.0
 49
0.0
 49
0.0
 49
0.0
 49
0.0
 49
1.0
175
     0
142
0.0208333333333333
142
0.0
142
0.0
142
0.0
142
0.0
142
0.0208333333333333
142
0.0
142
0.0
142
0.0
142
0.0
142
1.0
142
0.0
142
0.0
142
0.0
142
0.0
142
1.0
179
     0
144
0.0208333333333333
144
0.0
144
0.0
144
0.0
144
0.0
144
0.0208333333333333
144
0.0
144
0.0
144
0.0
144
0.0
144
1.0
144
0.0
144
0.0
144
0.0
144
0.0
144
1.0
147
0.0208333333333333
147
0.0
147
0.0
147
0.0
147
0.0
147
0.0208333333333333
147
0.0
147
0.0
147
0.0
147
0.0
147
1.0
147
0.0
147
0.0
147
0.0
147
0.0
147
1.0
  0
MATERIAL
  5
21
102
{ACAD_XDICTIONARY
360
22
102
}
102
{ACAD_REACTORS
330
10
102
}
330
10
100
AcDbMaterial
  1
Global
 72
     0
 43
0.0208333333333333
 43
0.0
 43
0.0
 43
0.0
 43
0.0
 43
0.0208333333333333
 43
0.0
 43
0.0
 43
0.0
 43
0.0
 43
1.0
 43
0.0
 43
0.0
 43
0.0
 43
0.0
 43
1.0
 77
     0
 47
0.0208333333333333
 47
0.0
 47
0.0
 47
0.0
 47
0.0
 47
0.0208333333333333
 47
0.0
 47
0.0
 47
0.0
 47
0.0
 47
1.0
 47
0.0
 47
0.0
 47
0.0
 47
0.0
 47
1.0
171
     0
 49
0.0208333333333333
 49
0.0
 49
0.0
 49
0.0
 49
0.0
 49
0.0208333333333333
 49
0.0
 49
0.0
 49
0.0
 49
0.0
 49
1.0
 49
0.0
 49
0.0
 49
0.0
 49
0.0
 49
1.0
175
     0
142
0.0208333333333333
142
0.0
142
0.0
142
0.0
142
0.0
142
0.0208333333333333
142
0.0
142
0.0
142
0.0
142
0.0
142
1.0
142
0.0
142
0.0
142
0.0
142
0.0
142
1.0
179
     0
144
0.0208333333333333
144
0.0
144
0.0
144
0.0
144
0.0
144
0.0208333333333333
144
0.0
144
0.0
144
0.0
144
0.0
144
1.0
144
0.0
144
0.0
144
0.0
144
0.0
144
1.0
147
0.0208333333333333
147
0.0
147
0.0
147
0.0
147
0.0
147
0.0208333333333333
147
0.0
147
0.0
147
0.0
147
0.0
147
1.0
147
0.0
147
0.0
147
0.0
147
0.0
147
1.0
  0
MLEADERSTYLE
  5
67
102
{ACAD_REACTORS
330
66
102
}
330
66
100
AcDbMLeaderStyle
179
     2
170
     2
171
     1
172
     0
 90
        2
 40
0.0
 41
0.0
173
     1
 91
-1056964608
340
5B
 92
       -2
290
     1
 42
0.09
291
     1
 43
0.36
  3
Standard
 44
0.18
300

342
55
174
     1
178
     6
175
     1
176
     0
 93
-1056964608
 45
0.18
292
     0
297
     0
 46
0.18
 94
-1056964608
 47
1.0
 49
1.0
140
1.0
293
     1
141
0.0
294
     1
177
     0
142
1.0
295
     0
296
     0
143
0.125
271
     0
272
     9
273
     9
298
     1
  0
MLINESTYLE
  5
60
102
{ACAD_REACTORS
330
5F
102
}
330
5F
100
AcDbMlineStyle
  2
STANDARD
 70
     0
  3

 62
   256
 51
90.0
 52
90.0
 71
     2
 49
0.5
 62
   256
  6
BYLAYER
 49
-0.5
 62
   256
  6
BYLAYER
  0
ACDBPLACEHOLDER
  5
F
102
{ACAD_REACTORS
330
E
102
}
330
E
  0
SCALE
  5
43
102
{ACAD_REACTORS
330
42
102
}
330
42
100
AcDbScale
 70
     0
300
1:1
140
1.0
141
1.0
290
     1
  0
SCALE
  5
44
102
{ACAD_REACTORS
330
42
102
}
330
42
100
AcDbScale
 70
     0
300
1/128" = 1'-0"
140
0.0078125
141
12.0
290
     0
  0
SCALE
  5
45
102
{ACAD_REACTORS
330
42
102
}
330
42
100
AcDbScale
 70
     0
300
1/64" = 1'-0"
140
0.015625
141
12.0
290
     0
  0
SCALE
  5
46
102
{ACAD_REACTORS
330
42
102
}
330
42
100
AcDbScale
 70
     0
300
1/32" = 1'-0"
140
0.03125
141
12.0
290
     0
  0
SCALE
  5
47
102
{ACAD_REACTORS
330
42
102
}
330
42
100
AcDbScale
 70
     0
300
1/16" = 1'-0"
140
0.0625
141
12.0
290
     0
  0
SCALE
  5
48
102
{ACAD_REACTORS
330
42
102
}
330
42
100
AcDbScale
 70
     0
300
3/32" = 1'-0"
140
0.09375
141
12.0
290
     0
  0
SCALE
  5
49
102
{ACAD_REACTORS
330
42
102
}
330
42
100
AcDbScale
 70
     0
300
1/8" = 1'-0"
140
0.125
141
12.0
290
     0
  0
SCALE
  5
4A
102
{ACAD_REACTORS
330
42
102
}
330
42
100
AcDbScale
 70
     0
300
3/16" = 1'-0"
140
0.1875
141
12.0
290
     0
  0
SCALE
  5
4B
102
{ACAD_REACTORS
330
42
102
}
330
42
100
AcDbScale
 70
     0
300
1/4" = 1'-0"
140
0.25
141
12.0
290
     0
  0
SCALE
  5
4C
102
{ACAD_REACTORS
330
42
102
}
330
42
100
AcDbScale
 70
     0
300
3/8" = 1'-0"
140
0.375
141
12.0
290
     0
  0
SCALE
  5
4D
102
{ACAD_REACTORS
330
42
102
}
330
42
100
AcDbScale
 70
     0
300
1/2" = 1'-0"
140
0.5
141
12.0
290
     0
  0
SCALE
  5
4E
102
{ACAD_REACTORS
330
42
102
}
330
42
100
AcDbScale
 70
     0
300
3/4" = 1'-0"
140
0.75
141
12.0
290
     0
  0
SCALE
  5
4F
102
{ACAD_REACTORS
330
42
102
}
330
42
100
AcDbScale
 70
     0
300
1" = 1'-0"
140
1.0
141
12.0
290
     0
  0
SCALE
  5
50
102
{ACAD_REACTORS
330
42
102
}
330
42
100
AcDbScale
 70
     0
300
1-1/2" = 1'-0"
140
1.5
141
12.0
290
     0
  0
SCALE
  5
51
102
{ACAD_REACTORS
330
42
102
}
330
42
100
AcDbScale
 70
     0
300
3" = 1'-0"
140
3.0
141
12.0
290
     0
  0
SCALE
  5
52
102
{ACAD_REACTORS
330
42
102
}
330
42
100
AcDbScale
 70
     0
300
6" = 1'-0"
140
6.0
141
12.0
290
     0
  0
SCALE
  5
53
102
{ACAD_REACTORS
330
42
102
}
330
42
100
AcDbScale
 70
     0
300
1'-0" = 1'-0"
140
12.0
141
12.0
290
     0
  0
ACDBSECTIONVIEWSTYLE
  5
69
102
{ACAD_XDICTIONARY
360
1B3
102
}
102
{ACAD_REACTORS
330
68
102
}
330
68
100
AcDbModelDocViewStyle
 70
     0
  3
Imperial24
290
     0
100
AcDbSectionViewStyle
 70
     0
 71
     0
 90
       78
 71
     1
340
55
 62
   256
 40
0.24
340
0
340
0
 62
   256
 40
0.24
300
I, O, Q, S, X, Z
 40
0.48
 90
        3
 40
0.18
 90
        1
 71
     2
340
5D
 90
       25
 62
   256
340
5D
 90
       50
 62
   256
 40
0.24
 40
0.0
 40
0.24
 71
     3
340
55
 62
   256
 40
0.24
 90
        1
 40
0.75
 90
        1
300
%<\AcVar ViewType \f "%tc1">% %<\AcVar ViewSectionStartId>%-%<\AcVar ViewSectionEndId>%\PSCALE %<\AcVar ViewScale \f "%sn">%
 71
     4
 62
   256
 62
   257
300
ANSI31
 40
1.0
 90
        0
290
     0
290
     0
 90
        6
 40
0.0
 40
1.570796326794896
 40
0.2617993877991494
 40
1.308996938995747
 40
-0.2617993877991494
 40
1.832595714594046
  0
TABLESTYLE
  5
65
102
{ACAD_XDICTIONARY
360
1B0
102
}
102
{ACAD_REACTORS
330
64
102
}
330
64
100
AcDbTableStyle
280
     0
  3
Standard
 70
     0
 71
     0
 40
0.06
 41
0.06
280
     0
281
     0
  7
Standard
140
0.18
170
     2
 62
     0
 63
     7
283
     0
 90
      512
 91
        0
  1

274
    -2
284
     1
 64
     0
275
    -2
285
     1
 65
     0
276
    -2
286
     1
 66
     0
277
    -2
287
     1
 67
     0
278
    -2
288
     1
 68
     0
279
    -2
289
     1
 69
     0
  7
Standard
140
0.25
170
     5
 62
     0
 63
     7
283
     0
 90
      512
 91
        0
  1

274
    -2
284
     1
 64
     0
275
    -2
285
     1
 65
     0
276
    -2
286
     1
 66
     0
277
    -2
287
     1
 67
     0
278
    -2
288
     1
 68
     0
279
    -2
289
     1
 69
     0
  7
Standard
140
0.18
170
     5
 62
     0
 63
     7
283
     0
 90
      512
 91
        0
  1

274
    -2
284
     1
 64
     0
275
    -2
285
     1
 65
     0
276
    -2
286
     1
 66
     0
277
    -2
287
     1
 67
     0
278
    -2
288
     1
 68
     0
279
    -2
289
     1
 69
     0
  0
VISUALSTYLE
  5
2F
102
{ACAD_REACTORS
330
29
102
}
330
29
100
AcDbVisualStyle
  2
2dWireframe
 70
     4
177
     3
291
     0
 70
    58
 90
        0
176
     1
 90
        2
176
     1
 90
        0
176
     1
 90
        0
176
     1
 40
0.6
176
     1
 40
30.0
176
     1
 62
     7
420
 16777215
176
     1
 90
        1
176
     1
 90
        4
176
     1
 62
     7
176
     1
 62
   257
176
     1
 90
        1
176
     1
 90
        1
176
     1
 40
1.0
176
     1
 90
        0
176
     1
 62
   257
176
     1
 40
1.0
176
     1
 90
        1
176
     1
 90
        6
176
     1
 90
        2
176
     1
 62
     7
176
     1
 90
        5
176
     1
 90
        0
176
     1
 90
        0
176
     1
290
     0
176
     1
 90
        1
176
     1
 40
0.0
176
     1
 90
        0
176
     1
290
     1
176
     1
290
     1
176
     1
290
     0
176
     1
290
     0
176
     1
290
     0
176
     1
290
     0
176
     1
290
     0
176
     1
290
     0
176
     1
290
     0
176
     1
 90
       50
176
     1
 40
0.0
176
     1
 40
1.0
176
     1
 90
        0
176
     1
 62
    18
420
        0
176
     1
 90
       50
176
     1
 90
        3
176
     1
 62
     5
420
      255
176
     1
290
     0
176
     1
 90
       50
176
     1
 90
       50
176
     1
 90
       50
176
     1
290
     0
176
     1
 90
       50
176
     1
 62
   256
176
     0
 40
1.0
176
     0
 90
        2
176
     1
  1
strokes_ogs.tif
176
     1
290
     0
176
     1
 40
1.0
176
     1
 40
1.0
176
     1
1001
ACAD
1000
AcDbSavedByObjectVersion
1070
     0
  0
VISUALSTYLE
  5
2E
102
{ACAD_REACTORS
330
29
102
}
330
29
100
AcDbVisualStyle
  2
Basic
 70
     7
177
     3
291
     1
 70
    58
 90
        1
176
     1
 90
        0
176
     1
 90
        1
176
     1
 90
        0
176
     1
 40
0.6
176
     1
 40
30.0
176
     1
 62
     7
420
 16777215
176
     1
 90
        0
176
     1
 90
        4
176
     1
 62
     7
176
     1
 62
   257
176
     1
 90
        1
176
     1
 90
        1
176
     1
 40
1.0
176
     1
 90
        8
176
     1
 62
     7
176
     1
 40
1.0
176
     1
 90
        1
176
     1
 90
        6
176
     1
 90
        2
176
     1
 62
     7
176
     1
 90
        5
176
     1
 90
        0
176
     1
 90
        0
176
     1
290
     0
176
     1
 90
        1
176
     1
 40
0.0
176
     1
 90
        0
176
     1
290
     0
176
     1
290
     1
176
     1
290
     1
176
     1
290
     0
176
     1
290
     0
176
     1
290
     0
176
     1
290
     0
176
     1
290
     0
176
     1
290
     0
176
     1
 90
       50
176
     1
 40
0.0
176
     1
 40
1.0
176
     1
 90
        0
176
     1
 62
    18
420
        0
176
     1
 90
       50
176
     1
 90
        3
176
     1
 62
     5
420
      255
176
     1
290
     0
176
     1
 90
       50
176
     1
 90
       50
176
     1
 90
       50
176
     1
290
     0
176
     1
 90
       50
176
     1
 62
   256
176
     0
 40
1.0
176
     0
 90
        2
176
     1
  1
strokes_ogs.tif
176
     1
290
     0
176
     1
 40
1.0
176
     1
 40
1.0
176
     1
1001
ACAD
1000
AcDbSavedByObjectVersion
1070
     0
  0
VISUALSTYLE
  5
35
102
{ACAD_REACTORS
330
29
102
}
330
29
100
AcDbVisualStyle
  2
Brighten
 70
    12
177
     3
291
     1
 70
    58
 90
        2
176
     1
 90
        2
176
     1
 90
        0
176
     1
 90
        0
176
     1
 40
0.6
176
     1
 40
30.0
176
     1
 62
     7
420
 16777215
176
     1
 90
        1
176
     1
 90
        4
176
     1
 62
     7
176
     1
 62
   257
176
     1
 90
        1
176
     1
 90
        1
176
     1
 40
1.0
176
     1
 90
        8
176
     1
 62
     7
176
     1
 40
1.0
176
     1
 90
        1
176
     1
 90
        6
176
     1
 90
        2
176
     1
 62
     7
176
     1
 90
        5
176
     1
 90
        0
176
     1
 90
        0
176
     1
290
     0
176
     1
 90
        1
176
     1
 40
50.0
176
     1
 90
        0
176
     1
290
     0
176
     1
290
     1
176
     1
290
     1
176
     1
290
     0
176
     1
290
     0
176
     1
290
     0
176
     1
290
     0
176
     1
290
     0
176
     1
290
     0
176
     1
 90
       50
176
     1
 40
0.0
176
     1
 40
1.0
176
     1
 90
        0
176
     1
 62
    18
420
        0
176
     1
 90
       50
176
     1
 90
        3
176
     1
 62
     5
420
      255
176
     1
290
     0
176
     1
 90
       50
176
     1
 90
       50
176
     1
 90
       50
176
     1
290
     0
176
     1
 90
       50
176
     1
 62
   256
176
     0
 40
1.0
176
     0
 90
        2
176
     1
  1
strokes_ogs.tif
176
     1
290
     0
176
     1
 40
1.0
176
     1
 40
1.0
176
     1
1001
ACAD
1000
AcDbSavedByObjectVersion
1070
     0
  0
VISUALSTYLE
  5
39
102
{ACAD_REACTORS
330
29
102
}
330
29
100
AcDbVisualStyle
  2
ColorChange
 70
    16
177
     3
291
     1
 70
    58
 90
        2
176
     1
 90
        2
176
     1
 90
        3
176
     1
 90
        0
176
     1
 40
0.6
176
     1
 40
30.0
176
     1
 62
     8
420
  8421504
176
     1
 90
        1
176
     1
 90
        4
176
     1
 62
     7
176
     1
 62
   257
176
     1
 90
        1
176
     1
 90
        1
176
     1
 40
1.0
176
     1
 90
        8
176
     1
 62
     8
420
  8421504
176
     1
 40
1.0
176
     1
 90
        1
176
     1
 90
        6
176
     1
 90
        2
176
     1
 62
     7
176
     1
 90
        5
176
     1
 90
        0
176
     1
 90
        0
176
     1
290
     0
176
     1
 90
        1
176
     1
 40
0.0
176
     1
 90
        0
176
     1
290
     0
176
     1
290
     1
176
     1
290
     1
176
     1
290
     0
176
     1
290
     0
176
     1
290
     0
176
     1
290
     0
176
     1
290
     0
176
     1
290
     0
176
     1
 90
       50
176
     1
 40
0.0
176
     1
 40
1.0
176
     1
 90
        0
176
     1
 62
    18
420
        0
176
     1
 90
       50
176
     1
 90
        3
176
     1
 62
     5
420
      255
176
     1
290
     0
176
     1
 90
       50
176
     1
 90
       50
176
     1
 90
       50
176
     1
290
     0
176
     1
 90
       50
176
     1
 62
   256
176
     0
 40
1.0
176
     0
 90
        2
176
     1
  1
strokes_ogs.tif
176
     1
290
     0
176
     1
 40
1.0
176
     1
 40
1.0
176
     1
1001
ACAD
1000
AcDbSavedByObjectVersion
1070
     0
  0
VISUALSTYLE
  5
32
102
{ACAD_REACTORS
330
29
102
}
330
29
100
AcDbVisualStyle
  2
Conceptual
 70
     9
177
     3
291
     0
 70
    58
 90
        3
176
     1
 90
        2
176
     1
 90
        0
176
     1
 90
        0
176
     1
 40
0.6
176
     1
 40
30.0
176
     1
 62
     7
420
 16777215
176
     1
 90
        2
176
     1
 90
        2
176
     1
 62
     7
176
     1
 62
   257
176
     1
 90
        1
176
     1
 90
        1
176
     1
 40
179.0
176
     1
 90
        8
176
     1
 62
     7
176
     1
 40
1.0
176
     1
 90
        1
176
     1
 90
        6
176
     1
 90
        2
176
     1
 62
     7
176
     1
 90
        3
176
     1
 90
        0
176
     1
 90
        0
176
     1
290
     0
176
     1
 90
        1
176
     1
 40
0.0
176
     1
 90
        0
176
     1
290
     0
176
     1
290
     1
176
     1
290
     1
176
     1
290
     0
176
     1
290
     0
176
     1
290
     0
176
     1
290
     0
176
     1
290
     0
176
     1
290
     0
176
     1
 90
       50
176
     1
 40
0.0
176
     1
 40
1.0
176
     1
 90
        0
176
     1
 62
    18
420
        0
176
     1
 90
       50
176
     1
 90
        3
176
     1
 62
     5
420
      255
176
     1
290
     0
176
     1
 90
       50
176
     1
 90
       50
176
     1
 90
       50
176
     1
290
     0
176
     1
 90
       50
176
     1
 62
   256
176
     0
 40
1.0
176
     0
 90
        2
176
     1
  1
strokes_ogs.tif
176
     1
290
     0
176
     1
 40
1.0
176
     1
 40
1.0
176
     1
1001
ACAD
1000
AcDbSavedByObjectVersion
1070
     0
  0
VISUALSTYLE
  5
34
102
{ACAD_REACTORS
330
29
102
}
330
29
100
AcDbVisualStyle
  2
Dim
 70
    11
177
     3
291
     1
 70
    58
 90
        2
176
     1
 90
        2
176
     1
 90
        0
176
     1
 90
        0
176
     1
 40
0.6
176
     1
 40
30.0
176
     1
 62
     7
420
 16777215
176
     1
 90
        1
176
     1
 90
        4
176
     1
 62
     7
176
     1
 62
   257
176
     1
 90
        1
176
     1
 90
        1
176
     1
 40
1.0
176
     1
 90
        8
176
     1
 62
     7
176
     1
 40
1.0
176
     1
 90
        1
176
     1
 90
        6
176
     1
 90
        2
176
     1
 62
     7
176
     1
 90
        5
176
     1
 90
        0
176
     1
 90
        0
176
     1
290
     0
176
     1
 90
        1
176
     1
 40
-50.0
176
     1
 90
        0
176
     1
290
     0
176
     1
290
     1
176
     1
290
     1
176
     1
290
     0
176
     1
290
     0
176
     1
290
     0
176
     1
290
     0
176
     1
290
     0
176
     1
290
     0
176
     1
 90
       50
176
     1
 40
0.0
176
     1
 40
1.0
176
     1
 90
        0
176
     1
 62
    18
420
        0
176
     1
 90
       50
176
     1
 90
        3
176
     1
 62
     5
420
      255
176
     1
290
     0
176
     1
 90
       50
176
     1
 90
       50
176
     1
 90
       50
176
     1
290
     0
176
     1
 90
       50
176
     1
 62
   256
176
     0
 40
1.0
176
     0
 90
        2
176
     1
  1
strokes_ogs.tif
176
     1
290
     0
176
     1
 40
1.0
176
     1
 40
1.0
176
     1
1001
ACAD
1000
AcDbSavedByObjectVersion
1070
     0
  0
VISUALSTYLE
  5
41
102
{ACAD_REACTORS
330
29
102
}
330
29
100
AcDbVisualStyle
  2
EdgeColorOff
 70
    22
177
     3
291
     1
 70
    58
 90
        2
176
     0
 90
        2
176
     0
 90
        0
176
     0
 90
        0
176
     0
 40
0.6
176
     0
 40
30.0
176
     0
 62
     7
420
 16777215
176
     0
 90
        1
176
     0
 90
        4
176
     0
 62
     7
176
     0
 62
   257
176
     0
 90
        1
176
     0
 90
        1
176
     0
 40
1.0
176
     0
 90
        8
176
     2
 62
     7
176
     0
 40
1.0
176
     0
 90
        1
176
     0
 90
        6
176
     0
 90
        2
176
     0
 62
     7
176
     0
 90
        5
176
     0
 90
        0
176
     0
 90
        0
176
     0
290
     0
176
     0
 90
        1
176
     0
 40
0.0
176
     0
 90
        0
176
     0
290
     0
176
     0
290
     1
176
     0
290
     1
176
     0
290
     0
176
     0
290
     0
176
     0
290
     0
176
     0
290
     0
176
     0
290
     0
176
     0
290
     0
176
     0
 90
       50
176
     0
 40
0.0
176
     0
 40
1.0
176
     0
 90
        0
176
     0
 62
    18
420
        0
176
     0
 90
       50
176
     0
 90
        3
176
     0
 62
     5
420
      255
176
     0
290
     0
176
     0
 90
       50
176
     0
 90
       50
176
     0
 90
       50
176
     0
290
     0
176
     0
 90
       50
176
     0
 62
   256
176
     0
 40
1.0
176
     0
 90
        2
176
     0
  1
strokes_ogs.tif
176
     0
290
     0
176
     0
 40
1.0
176
     0
 40
1.0
176
     0
1001
ACAD
1000
AcDbSavedByObjectVersion
1070
     0
  0
VISUALSTYLE
  5
38
102
{ACAD_REACTORS
330
29
102
}
330
29
100
AcDbVisualStyle
  2
Facepattern
 70
    15
177
     3
291
     1
 70
    58
 90
        2
176
     1
 90
        2
176
     1
 90
        0
176
     1
 90
        0
176
     1
 40
0.6
176
     1
 40
30.0
176
     1
 62
     7
420
 16777215
176
     1
 90
        1
176
     1
 90
        4
176
     1
 62
     7
176
     1
 62
   257
176
     1
 90
        1
176
     1
 90
        1
176
     1
 40
1.0
176
     1
 90
        8
176
     1
 62
     7
176
     1
 40
1.0
176
     1
 90
        1
176
     1
 90
        6
176
     1
 90
        2
176
     1
 62
     7
176
     1
 90
        5
176
     1
 90
        0
176
     1
 90
        0
176
     1
290
     0
176
     1
 90
        1
176
     1
 40
0.0
176
     1
 90
        0
176
     1
290
     0
176
     1
290
     1
176
     1
290
     1
176
     1
290
     0
176
     1
290
     0
176
     1
290
     0
176
     1
290
     0
176
     1
290
     0
176
     1
290
     0
176
     1
 90
       50
176
     1
 40
0.0
176
     1
 40
1.0
176
     1
 90
        0
176
     1
 62
    18
420
        0
176
     1
 90
       50
176
     1
 90
        3
176
     1
 62
     5
420
      255
176
     1
290
     0
176
     1
 90
       50
176
     1
 90
       50
176
     1
 90
       50
176
     1
290
     0
176
     1
 90
       50
176
     1
 62
   256
176
     0
 40
1.0
176
     0
 90
        2
176
     1
  1
strokes_ogs.tif
176
     1
290
     0
176
     1
 40
1.0
176
     1
 40
1.0
176
     1
1001
ACAD
1000
AcDbSavedByObjectVersion
1070
     0
  0
VISUALSTYLE
  5
2A
102
{ACAD_REACTORS
330
29
102
}
330
29
100
AcDbVisualStyle
  2
Flat
 70
     0
177
     3
291
     1
 70
    58
 90
        2
176
     1
 90
        1
176
     1
 90
        1
176
     1
 90
        2
176
     1
 40
0.6
176
     1
 40
30.0
176
     1
 62
     7
420
 16777215
176
     1
 90
        0
176
     1
 90
        0
176
     1
 62
     7
176
     1
 62
   257
176
     1
 90
        1
176
     1
 90
        1
176
     1
 40
1.0
176
     1
 90
        8
176
     1
 62
     7
176
     1
 40
1.0
176
     1
 90
        1
176
     1
 90
        6
176
     1
 90
        2
176
     1
 62
     7
176
     1
 90
        5
176
     1
 90
        0
176
     1
 90
        0
176
     1
290
     0
176
     1
 90
       13
176
     1
 40
0.0
176
     1
 90
        0
176
     1
290
     0
176
     1
290
     1
176
     1
290
     1
176
     1
290
     0
176
     1
290
     0
176
     1
290
     0
176
     1
290
     0
176
     1
290
     0
176
     1
290
     0
176
     1
 90
       50
176
     1
 40
0.0
176
     1
 40
1.0
176
     1
 90
        0
176
     1
 62
    18
420
        0
176
     1
 90
       50
176
     1
 90
        3
176
     1
 62
     5
420
      255
176
     1
290
     0
176
     1
 90
       50
176
     1
 90
       50
176
     1
 90
       50
176
     1
290
     0
176
     1
 90
       50
176
     1
 62
   256
176
     0
 40
1.0
176
     0
 90
        2
176
     1
  1
strokes_ogs.tif
176
     1
290
     0
176
     1
 40
1.0
176
     1
 40
1.0
176
     1
1001
ACAD
1000
AcDbSavedByObjectVersion
1070
     0
  0
VISUALSTYLE
  5
2B
102
{ACAD_REACTORS
330
29
102
}
330
29
100
AcDbVisualStyle
  2
FlatWithEdges
 70
     1
177
     3
291
     1
 70
    58
 90
        2
176
     1
 90
        1
176
     1
 90
        1
176
     1
 90
        2
176
     1
 40
0.6
176
     1
 40
30.0
176
     1
 62
     7
420
 16777215
176
     1
 90
        1
176
     1
 90
        0
176
     1
 62
     7
176
     1
 62
   257
176
     1
 90
        1
176
     1
 90
        1
176
     1
 40
1.0
176
     1
 90
        0
176
     1
 62
   257
176
     1
 40
1.0
176
     1
 90
        1
176
     1
 90
        6
176
     1
 90
        2
176
     1
 62
     7
176
     1
 90
        5
176
     1
 90
        0
176
     1
 90
        0
176
     1
290
     0
176
     1
 90
       13
176
     1
 40
0.0
176
     1
 90
        0
176
     1
290
     0
176
     1
290
     1
176
     1
290
     1
176
     1
290
     0
176
     1
290
     0
176
     1
290
     0
176
     1
290
     0
176
     1
290
     0
176
     1
290
     0
176
     1
 90
       50
176
     1
 40
0.0
176
     1
 40
1.0
176
     1
 90
        0
176
     1
 62
    18
420
        0
176
     1
 90
       50
176
     1
 90
        3
176
     1
 62
     5
420
      255
176
     1
290
     0
176
     1
 90
       50
176
     1
 90
       50
176
     1
 90
       50
176
     1
290
     0
176
     1
 90
       50
176
     1
 62
   256
176
     0
 40
1.0
176
     0
 90
        2
176
     1
  1
strokes_ogs.tif
176
     1
290
     0
176
     1
 40
1.0
176
     1
 40
1.0
176
     1
1001
ACAD
1000
AcDbSavedByObjectVersion
1070
     0
  0
VISUALSTYLE
  5
2C
102
{ACAD_REACTORS
330
29
102
}
330
29
100
AcDbVisualStyle
  2
Gouraud
 70
     2
177
     3
291
     1
 70
    58
 90
        2
176
     1
 90
        2
176
     1
 90
        1
176
     1
 90
        2
176
     1
 40
0.6
176
     1
 40
30.0
176
     1
 62
     7
420
 16777215
176
     1
 90
        0
176
     1
 90
        0
176
     1
 62
     7
176
     1
 62
   257
176
     1
 90
        1
176
     1
 90
        1
176
     1
 40
1.0
176
     1
 90
        0
176
     1
 62
     7
176
     1
 40
1.0
176
     1
 90
        1
176
     1
 90
        6
176
     1
 90
        2
176
     1
 62
     7
176
     1
 90
        5
176
     1
 90
        0
176
     1
 90
        0
176
     1
290
     0
176
     1
 90
       13
176
     1
 40
0.0
176
     1
 90
        0
176
     1
290
     0
176
     1
290
     1
176
     1
290
     1
176
     1
290
     0
176
     1
290
     0
176
     1
290
     0
176
     1
290
     0
176
     1
290
     0
176
     1
290
     0
176
     1
 90
       50
176
     1
 40
0.0
176
     1
 40
1.0
176
     1
 90
        0
176
     1
 62
    18
420
        0
176
     1
 90
       50
176
     1
 90
        3
176
     1
 62
     5
420
      255
176
     1
290
     0
176
     1
 90
       50
176
     1
 90
       50
176
     1
 90
       50
176
     1
290
     0
176
     1
 90
       50
176
     1
 62
   256
176
     0
 40
1.0
176
     0
 90
        2
176
     1
  1
strokes_ogs.tif
176
     1
290
     0
176
     1
 40
1.0
176
     1
 40
1.0
176
     1
1001
ACAD
1000
AcDbSavedByObjectVersion
1070
     0
  0
VISUALSTYLE
  5
2D
102
{ACAD_REACTORS
330
29
102
}
330
29
100
AcDbVisualStyle
  2
GouraudWithEdges
 70
     3
177
     3
291
     1
 70
    58
 90
        2
176
     1
 90
        2
176
     1
 90
        1
176
     1
 90
        2
176
     1
 40
0.6
176
     1
 40
30.0
176
     1
 62
     7
420
 16777215
176
     1
 90
        1
176
     1
 90
        0
176
     1
 62
     7
176
     1
 62
   257
176
     1
 90
        1
176
     1
 90
        1
176
     1
 40
1.0
176
     1
 90
        0
176
     1
 62
   257
176
     1
 40
1.0
176
     1
 90
        1
176
     1
 90
        6
176
     1
 90
        2
176
     1
 62
     7
176
     1
 90
        5
176
     1
 90
        0
176
     1
 90
        0
176
     1
290
     0
176
     1
 90
       13
176
     1
 40
0.0
176
     1
 90
        0
176
     1
290
     0
176
     1
290
     1
176
     1
290
     1
176
     1
290
     0
176
     1
290
     0
176
     1
290
     0
176
     1
290
     0
176
     1
290
     0
176
     1
290
     0
176
     1
 90
       50
176
     1
 40
0.0
176
     1
 40
1.0
176
     1
 90
        0
176
     1
 62
    18
420
        0
176
     1
 90
       50
176
     1
 90
        3
176
     1
 62
     5
420
      255
176
     1
290
     0
176
     1
 90
       50
176
     1
 90
       50
176
     1
 90
       50
176
     1
290
     0
176
     1
 90
       50
176
     1
 62
   256
176
     0
 40
1.0
176
     0
 90
        2
176
     1
  1
strokes_ogs.tif
176
     1
290
     0
176
     1
 40
1.0
176
     1
 40
1.0
176
     1
1001
ACAD
1000
AcDbSavedByObjectVersion
1070
     0
  0
VISUALSTYLE
  5
31
102
{ACAD_REACTORS
330
29
102
}
330
29
100
AcDbVisualStyle
  2
Hidden
 70
     6
177
     3
291
     0
 70
    58
 90
        1
176
     1
 90
        2
176
     1
 90
        2
176
     1
 90
        0
176
     1
 40
0.6
176
     1
 40
30.0
176
     1
 62
     7
420
 16777215
176
     1
 90
        2
176
     1
 90
        2
176
     1
 62
     7
176
     1
 62
   257
176
     1
 90
        2
176
     1
 90
        1
176
     1
 40
40.0
176
     1
 90
        0
176
     1
 62
   257
176
     1
 40
1.0
176
     1
 90
        1
176
     1
 90
        6
176
     1
 90
        2
176
     1
 62
     7
176
     1
 90
        3
176
     1
 90
        0
176
     1
 90
        0
176
     1
290
     0
176
     1
 90
        1
176
     1
 40
0.0
176
     1
 90
        0
176
     1
290
     0
176
     1
290
     1
176
     1
290
     1
176
     1
290
     0
176
     1
290
     0
176
     1
290
     0
176
     1
290
     0
176
     1
290
     0
176
     1
290
     0
176
     1
 90
       50
176
     1
 40
0.0
176
     1
 40
1.0
176
     1
 90
        0
176
     1
 62
    18
420
        0
176
     1
 90
       50
176
     1
 90
        3
176
     1
 62
     5
420
      255
176
     1
290
     0
176
     1
 90
       50
176
     1
 90
       50
176
     1
 90
       50
176
     1
290
     0
176
     1
 90
       50
176
     1
 62
   256
176
     0
 40
1.0
176
     0
 90
        2
176
     1
  1
strokes_ogs.tif
176
     1
290
     0
176
     1
 40
1.0
176
     1
 40
1.0
176
     1
1001
ACAD
1000
AcDbSavedByObjectVersion
1070
     0
  0
VISUALSTYLE
  5
3F
102
{ACAD_REACTORS
330
29
102
}
330
29
100
AcDbVisualStyle
  2
JitterOff
 70
    20
177
     3
291
     1
 70
    58
 90
        2
176
     0
 90
        2
176
     0
 90
        0
176
     0
 90
        0
176
     0
 40
0.6
176
     0
 40
30.0
176
     0
 62
     7
420
 16777215
176
     0
 90
        1
176
     0
 90
        4
176
     0
 62
     7
176
     0
 62
   257
176
     0
 90
        1
176
     0
 90
        1
176
     0
 40
1.0
176
     0
 90
       10
176
     2
 62
     7
176
     0
 40
1.0
176
     0
 90
        1
176
     0
 90
        6
176
     0
 90
        2
176
     0
 62
     7
176
     0
 90
        5
176
     0
 90
        0
176
     0
 90
        0
176
     0
290
     0
176
     0
 90
        1
176
     0
 40
0.0
176
     0
 90
        0
176
     0
290
     0
176
     0
290
     1
176
     0
290
     1
176
     0
290
     0
176
     0
290
     0
176
     0
290
     0
176
     0
290
     0
176
     0
290
     0
176
     0
290
     0
176
     0
 90
       50
176
     0
 40
0.0
176
     0
 40
1.0
176
     0
 90
        0
176
     0
 62
    18
420
        0
176
     0
 90
       50
176
     0
 90
        3
176
     0
 62
     5
420
      255
176
     0
290
     0
176
     0
 90
       50
176
     0
 90
       50
176
     0
 90
       50
176
     0
290
     0
176
     0
 90
       50
176
     0
 62
   256
176
     0
 40
1.0
176
     0
 90
        2
176
     0
  1
strokes_ogs.tif
176
     0
290
     0
176
     0
 40
1.0
176
     0
 40
1.0
176
     0
1001
ACAD
1000
AcDbSavedByObjectVersion
1070
     0
  0
VISUALSTYLE
  5
37
102
{ACAD_REACTORS
330
29
102
}
330
29
100
AcDbVisualStyle
  2
Linepattern
 70
    14
177
     3
291
     1
 70
    58
 90
        2
176
     1
 90
        2
176
     1
 90
        0
176
     1
 90
        0
176
     1
 40
0.6
176
     1
 40
30.0
176
     1
 62
     7
420
 16777215
176
     1
 90
        1
176
     1
 90
        4
176
     1
 62
     7
176
     1
 62
   257
176
     1
 90
        7
176
     1
 90
        7
176
     1
 40
1.0
176
     1
 90
        8
176
     1
 62
     7
176
     1
 40
1.0
176
     1
 90
        1
176
     1
 90
        6
176
     1
 90
        2
176
     1
 62
     7
176
     1
 90
        5
176
     1
 90
        0
176
     1
 90
        0
176
     1
290
     0
176
     1
 90
        1
176
     1
 40
0.0
176
     1
 90
        0
176
     1
290
     0
176
     1
290
     1
176
     1
290
     1
176
     1
290
     0
176
     1
290
     0
176
     1
290
     0
176
     1
290
     0
176
     1
290
     0
176
     1
290
     0
176
     1
 90
       50
176
     1
 40
0.0
176
     1
 40
1.0
176
     1
 90
        0
176
     1
 62
    18
420
        0
176
     1
 90
       50
176
     1
 90
        3
176
     1
 62
     5
420
      255
176
     1
290
     0
176
     1
 90
       50
176
     1
 90
       50
176
     1
 90
       50
176
     1
290
     0
176
     1
 90
       50
176
     1
 62
   256
176
     0
 40
1.0
176
     0
 90
        2
176
     1
  1
strokes_ogs.tif
176
     1
290
     0
176
     1
 40
1.0
176
     1
 40
1.0
176
     1
1001
ACAD
1000
AcDbSavedByObjectVersion
1070
     0
  0
VISUALSTYLE
  5
40
102
{ACAD_REACTORS
330
29
102
}
330
29
100
AcDbVisualStyle
  2
OverhangOff
 70
    21
177
     3
291
     1
 70
    58
 90
        2
176
     0
 90
        2
176
     0
 90
        0
176
     0
 90
        0
176
     0
 40
0.6
176
     0
 40
30.0
176
     0
 62
     7
420
 16777215
176
     0
 90
        1
176
     0
 90
        4
176
     0
 62
     7
176
     0
 62
   257
176
     0
 90
        1
176
     0
 90
        1
176
     0
 40
1.0
176
     0
 90
        9
176
     2
 62
     7
176
     0
 40
1.0
176
     0
 90
        1
176
     0
 90
        6
176
     0
 90
        2
176
     0
 62
     7
176
     0
 90
        5
176
     0
 90
        0
176
     0
 90
        0
176
     0
290
     0
176
     0
 90
        1
176
     0
 40
0.0
176
     0
 90
        0
176
     0
290
     0
176
     0
290
     1
176
     0
290
     1
176
     0
290
     0
176
     0
290
     0
176
     0
290
     0
176
     0
290
     0
176
     0
290
     0
176
     0
290
     0
176
     0
 90
       50
176
     0
 40
0.0
176
     0
 40
1.0
176
     0
 90
        0
176
     0
 62
    18
420
        0
176
     0
 90
       50
176
     0
 90
        3
176
     0
 62
     5
420
      255
176
     0
290
     0
176
     0
 90
       50
176
     0
 90
       50
176
     0
 90
       50
176
     0
290
     0
176
     0
 90
       50
176
     0
 62
   256
176
     0
 40
1.0
176
     0
 90
        2
176
     0
  1
strokes_ogs.tif
176
     0
290
     0
176
     0
 40
1.0
176
     0
 40
1.0
176
     0
1001
ACAD
1000
AcDbSavedByObjectVersion
1070
     0
  0
VISUALSTYLE
  5
33
102
{ACAD_REACTORS
330
29
102
}
330
29
100
AcDbVisualStyle
  2
Realistic
 70
     8
177
     3
291
     0
 70
    58
 90
        2
176
     1
 90
        3
176
     1
 90
        0
176
     1
 90
        2
176
     1
 40
0.6
176
     1
 40
30.0
176
     1
 62
     7
420
 16777215
176
     1
 90
        0
176
     1
 90
        0
176
     1
 62
     7
176
     1
 62
   257
176
     1
 90
        1
176
     1
 90
        1
176
     1
 40
1.0
176
     1
 90
        8
176
     1
 62
   257
176
     1
 40
1.0
176
     1
 90
        1
176
     1
 90
        6
176
     1
 90
        2
176
     1
 62
     7
176
     1
 90
        3
176
     1
 90
        0
176
     1
 90
        0
176
     1
290
     0
176
     1
 90
       13
176
     1
 40
0.0
176
     1
 90
        0
176
     1
290
     0
176
     1
290
     1
176
     1
290
     1
176
     1
290
     0
176
     1
290
     0
176
     1
290
     0
176
     1
290
     0
176
     1
290
     0
176
     1
290
     0
176
     1
 90
       50
176
     1
 40
0.0
176
     1
 40
1.0
176
     1
 90
        0
176
     1
 62
    18
420
        0
176
     1
 90
       50
176
     1
 90
        3
176
     1
 62
     5
420
      255
176
     1
290
     0
176
     1
 90
       50
176
     1
 90
       50
176
     1
 90
       50
176
     1
290
     0
176
     1
 90
       50
176
     1
 62
   256
176
     0
 40
1.0
176
     0
 90
        2
176
     1
  1
strokes_ogs.tif
176
     1
290
     0
176
     1
 40
1.0
176
     1
 40
1.0
176
     1
1001
ACAD
1000
AcDbSavedByObjectVersion
1070
     0
  0
VISUALSTYLE
  5
3E
102
{ACAD_REACTORS
330
29
102
}
330
29
100
AcDbVisualStyle
  2
Shaded
 70
    27
177
     3
291
     0
 70
    58
 90
        2
176
     1
 90
        2
176
     1
 90
        1
176
     1
 90
        2
176
     1
 40
0.6
176
     1
 40
30.0
176
     1
 62
     7
420
 16777215
176
     1
 90
        0
176
     1
 90
        4
176
     1
 62
     7
176
     1
 62
   257
176
     1
 90
        1
176
     1
 90
        1
176
     1
 40
1.0
176
     1
 90
        8
176
     1
 62
   257
176
     1
 40
1.0
176
     1
 90
        1
176
     1
 90
        6
176
     1
 90
        2
176
     1
 62
     8
420
  7895160
176
     1
 90
        3
176
     1
 90
        0
176
     1
 90
        0
176
     1
290
     0
176
     1
 90
        5
176
     1
 40
0.0
176
     1
 90
        0
176
     1
290
     0
176
     1
290
     1
176
     1
290
     1
176
     1
290
     0
176
     1
290
     0
176
     1
290
     0
176
     1
290
     0
176
     1
290
     0
176
     1
290
     0
176
     1
 90
       50
176
     1
 40
0.0
176
     1
 40
1.0
176
     1
 90
        0
176
     1
 62
    18
420
        0
176
     1
 90
       50
176
     1
 90
        3
176
     1
 62
     5
420
      255
176
     1
290
     0
176
     1
 90
       50
176
     1
 90
       50
176
     1
 90
       50
176
     1
290
     0
176
     1
 90
       50
176
     1
 62
   256
176
     0
 40
1.0
176
     0
 90
        2
176
     1
  1
strokes_ogs.tif
176
     1
290
     0
176
     1
 40
1.0
176
     1
 40
1.0
176
     1
1001
ACAD
1000
AcDbSavedByObjectVersion
1070
     0
  0
VISUALSTYLE
  5
3D
102
{ACAD_REACTORS
330
29
102
}
330
29
100
AcDbVisualStyle
  2
Shaded with edges
 70
    26
177
     3
291
     0
 70
    58
 90
        2
176
     1
 90
        2
176
     1
 90
        1
176
     1
 90
        2
176
     1
 40
0.6
176
     1
 40
30.0
176
     1
 62
     7
420
 16777215
176
     1
 90
        1
176
     1
 90
        2
176
     1
 62
     7
176
     1
 62
   257
176
     1
 90
        2
176
     1
 90
        1
176
     1
 40
1.0
176
     1
 90
        8
176
     1
 62
   257
176
     1
 40
1.0
176
     1
 90
        1
176
     1
 90
        6
176
     1
 90
        2
176
     1
 62
     7
176
     1
 90
        3
176
     1
 90
        0
176
     1
 90
        0
176
     1
290
     0
176
     1
 90
        5
176
     1
 40
0.0
176
     1
 90
        0
176
     1
290
     0
176
     1
290
     1
176
     1
290
     1
176
     1
290
     0
176
     1
290
     0
176
     1
290
     0
176
     1
290
     0
176
     1
290
     0
176
     1
290
     0
176
     1
 90
       50
176
     1
 40
0.0
176
     1
 40
1.0
176
     1
 90
        0
176
     1
 62
    18
420
        0
176
     1
 90
       50
176
     1
 90
        3
176
     1
 62
     5
420
      255
176
     1
290
     0
176
     1
 90
       50
176
     1
 90
       50
176
     1
 90
       50
176
     1
290
     0
176
     1
 90
       50
176
     1
 62
   256
176
     0
 40
1.0
176
     0
 90
        2
176
     1
  1
strokes_ogs.tif
176
     1
290
     0
176
     1
 40
1.0
176
     1
 40
1.0
176
     1
1001
ACAD
1000
AcDbSavedByObjectVersion
1070
     0
  0
VISUALSTYLE
  5
3A
102
{ACAD_REACTORS
330
29
102
}
330
29
100
AcDbVisualStyle
  2
Shades of Gray
 70
    23
177
     3
291
     0
 70
    58
 90
        2
176
     1
 90
        2
176
     1
 90
        3
176
     1
 90
        0
176
     1
 40
0.6
176
     1
 40
30.0
176
     1
 62
     7
420
 16777215
176
     1
 90
        2
176
     1
 90
        2
176
     1
 62
     7
176
     1
 62
     7
176
     1
 90
        1
176
     1
 90
        1
176
     1
 40
40.0
176
     1
 90
        8
176
     1
 62
     7
176
     1
 40
1.0
176
     1
 90
        1
176
     1
 90
        6
176
     1
 90
        2
176
     1
 62
     7
176
     1
 90
        3
176
     1
 90
        0
176
     1
 90
        0
176
     1
290
     0
176
     1
 90
        1
176
     1
 40
0.0
176
     1
 90
        0
176
     1
290
     0
176
     1
290
     1
176
     1
290
     1
176
     1
290
     0
176
     1
290
     0
176
     1
290
     0
176
     1
290
     0
176
     1
290
     0
176
     1
290
     0
176
     1
 90
       50
176
     1
 40
0.0
176
     1
 40
1.0
176
     1
 90
        0
176
     1
 62
    18
420
        0
176
     1
 90
       50
176
     1
 90
        3
176
     1
 62
     5
420
      255
176
     1
290
     0
176
     1
 90
       50
176
     1
 90
       50
176
     1
 90
       50
176
     1
290
     0
176
     1
 90
       50
176
     1
 62
   256
176
     0
 40
1.0
176
     0
 90
        2
176
     1
  1
strokes_ogs.tif
176
     1
290
     0
176
     1
 40
1.0
176
     1
 40
1.0
176
     1
1001
ACAD
1000
AcDbSavedByObjectVersion
1070
     0
  0
VISUALSTYLE
  5
3B
102
{ACAD_REACTORS
330
29
102
}
330
29
100
AcDbVisualStyle
  2
Sketchy
 70
    24
177
     3
291
     0
 70
    58
 90
        1
176
     1
 90
        2
176
     1
 90
        2
176
     1
 90
        0
176
     1
 40
0.6
176
     1
 40
30.0
176
     1
 62
     7
420
 16777215
176
     1
 90
        2
176
     1
 90
        2
176
     1
 62
     7
176
     1
 62
     7
176
     1
 90
        1
176
     1
 90
        1
176
     1
 40
40.0
176
     1
 90
       11
176
     1
 62
     7
176
     1
 40
1.0
176
     1
 90
        1
176
     1
 90
        6
176
     1
 90
        2
176
     1
 62
     7
176
     1
 90
        6
176
     1
 90
        0
176
     1
 90
        0
176
     1
290
     0
176
     1
 90
        1
176
     1
 40
0.0
176
     1
 90
        0
176
     1
290
     0
176
     1
290
     1
176
     1
290
     1
176
     1
290
     0
176
     1
290
     0
176
     1
290
     0
176
     1
290
     0
176
     1
290
     0
176
     1
290
     0
176
     1
 90
       50
176
     1
 40
0.0
176
     1
 40
1.0
176
     1
 90
        0
176
     1
 62
    18
420
        0
176
     1
 90
       50
176
     1
 90
        3
176
     1
 62
     5
420
      255
176
     1
290
     0
176
     1
 90
       50
176
     1
 90
       50
176
     1
 90
       50
176
     1
290
     0
176
     1
 90
       50
176
     1
 62
   256
176
     0
 40
1.0
176
     0
 90
        2
176
     1
  1
strokes_ogs.tif
176
     1
290
     0
176
     1
 40
1.0
176
     1
 40
1.0
176
     1
1001
ACAD
1000
AcDbSavedByObjectVersion
1070
     0
  0
VISUALSTYLE
  5
36
102
{ACAD_REACTORS
330
29
102
}
330
29
100
AcDbVisualStyle
  2
Thicken
 70
    13
177
     3
291
     1
 70
    58
 90
        2
176
     1
 90
        2
176
     1
 90
        0
176
     1
 90
        0
176
     1
 40
0.6
176
     1
 40
30.0
176
     1
 62
     7
420
 16777215
176
     1
 90
        1
176
     1
 90
        4
176
     1
 62
     7
176
     1
 62
   257
176
     1
 90
        1
176
     1
 90
        1
176
     1
 40
1.0
176
     1
 90
       12
176
     1
 62
     7
176
     1
 40
1.0
176
     1
 90
        1
176
     1
 90
        6
176
     1
 90
        2
176
     1
 62
     7
176
     1
 90
        5
176
     1
 90
        0
176
     1
 90
        0
176
     1
290
     0
176
     1
 90
        1
176
     1
 40
0.0
176
     1
 90
        0
176
     1
290
     0
176
     1
290
     1
176
     1
290
     1
176
     1
290
     0
176
     1
290
     0
176
     1
290
     0
176
     1
290
     0
176
     1
290
     0
176
     1
290
     0
176
     1
 90
       50
176
     1
 40
0.0
176
     1
 40
1.0
176
     1
 90
        0
176
     1
 62
    18
420
        0
176
     1
 90
       50
176
     1
 90
        3
176
     1
 62
     5
420
      255
176
     1
290
     0
176
     1
 90
       50
176
     1
 90
       50
176
     1
 90
       50
176
     1
290
     0
176
     1
 90
       50
176
     1
 62
   256
176
     0
 40
1.0
176
     0
 90
        2
176
     1
  1
strokes_ogs.tif
176
     1
290
     0
176
     1
 40
1.0
176
     1
 40
1.0
176
     1
1001
ACAD
1000
AcDbSavedByObjectVersion
1070
     0
  0
VISUALSTYLE
  5
30
102
{ACAD_REACTORS
330
29
102
}
330
29
100
AcDbVisualStyle
  2
Wireframe
 70
     5
177
     3
291
     0
 70
    58
 90
        0
176
     1
 90
        2
176
     1
 90
        0
176
     1
 90
        0
176
     1
 40
0.6
176
     1
 40
30.0
176
     1
 62
     7
420
 16777215
176
     1
 90
        1
176
     1
 90
        4
176
     1
 62
     7
176
     1
 62
   257
176
     1
 90
        1
176
     1
 90
        1
176
     1
 40
1.0
176
     1
 90
        0
176
     1
 62
   257
176
     1
 40
1.0
176
     1
 90
        1
176
     1
 90
        6
176
     1
 90
        2
176
     1
 62
     7
176
     1
 90
        3
176
     1
 90
        0
176
     1
 90
        0
176
     1
290
     0
176
     1
 90
        1
176
     1
 40
0.0
176
     1
 90
        0
176
     1
290
     0
176
     1
290
     1
176
     1
290
     1
176
     1
290
     0
176
     1
290
     0
176
     1
290
     0
176
     1
290
     0
176
     1
290
     0
176
     1
290
     0
176
     1
 90
       50
176
     1
 40
0.0
176
     1
 40
1.0
176
     1
 90
        0
176
     1
 62
    18
420
        0
176
     1
 90
       50
176
     1
 90
        3
176
     1
 62
     5
420
      255
176
     1
290
     0
176
     1
 90
       50
176
     1
 90
       50
176
     1
 90
       50
176
     1
290
     0
176
     1
 90
       50
176
     1
 62
   256
176
     0
 40
1.0
176
     0
 90
        2
176
     1
  1
strokes_ogs.tif
176
     1
290
     0
176
     1
 40
1.0
176
     1
 40
1.0
176
     1
1001
ACAD
1000
AcDbSavedByObjectVersion
1070
     0
  0
VISUALSTYLE
  5
3C
102
{ACAD_REACTORS
330
29
102
}
330
29
100
AcDbVisualStyle
  2
X-Ray
 70
    25
177
     3
291
     0
 70
    58
 90
        2
176
     1
 90
        2
176
     1
 90
        1
176
     1
 90
        1
176
     1
 40
0.5
176
     1
 40
30.0
176
     1
 62
     7
420
 16777215
176
     1
 90
        1
176
     1
 90
        0
176
     1
 62
     7
176
     1
 62
   257
176
     1
 90
        1
176
     1
 90
        1
176
     1
 40
1.0
176
     1
 90
        8
176
     1
 62
     7
176
     1
 40
1.0
176
     1
 90
        1
176
     1
 90
        6
176
     1
 90
        2
176
     1
 62
     7
176
     1
 90
        3
176
     1
 90
        0
176
     1
 90
        0
176
     1
290
     0
176
     1
 90
       13
176
     1
 40
0.0
176
     1
 90
        0
176
     1
290
     0
176
     1
290
     1
176
     1
290
     1
176
     1
290
     0
176
     1
290
     0
176
     1
290
     0
176
     1
290
     0
176
     1
290
     0
176
     1
290
     0
176
     1
 90
       50
176
     1
 40
0.0
176
     1
 40
1.0
176
     1
 90
        0
176
     1
 62
    18
420
        0
176
     1
 90
       50
176
     1
 90
        3
176
     1
 62
     5
420
      255
176
     1
290
     0
176
     1
 90
       50
176
     1
 90
       50
176
     1
 90
       50
176
     1
290
     0
176
     1
 90
       50
176
     1
 62
   256
176
     0
 40
1.0
176
     0
 90
        2
176
     1
  1
strokes_ogs.tif
176
     1
290
     0
176
     1
 40
1.0
176
     1
 40
1.0
176
     1
1001
ACAD
1000
AcDbSavedByObjectVersion
1070
     0
  0
DICTIONARYVAR
  5
1AF
102
{ACAD_REACTORS
330
1AA
102
}
330
1AA
100
DictionaryVariables
280
     0
  1
1:1
  0
DICTIONARYVAR
  5
1AC
102
{ACAD_REACTORS
330
1AA
102
}
330
1AA
100
DictionaryVariables
280
     0
  1
STANDARD
  0
DICTIONARYVAR
  5
1AB
102
{ACAD_REACTORS
330
1AA
102
}
330
1AA
100
DictionaryVariables
280
     0
  1
STANDARD
  0
DICTIONARYVAR
  5
1AD
102
{ACAD_REACTORS
330
1AA
102
}
330
1AA
100
DictionaryVariables
280
     0
  1
Imperial24
  0
DICTIONARYVAR
  5
1AE
102
{ACAD_REACTORS
330
1AA
102
}
330
1AA
100
DictionaryVariables
280
     0
  1
Imperial24
  0
DICTIONARY
  5
1B5
330
6B
100
AcDbDictionary
280
     1
281
     1
  3
ACAD_XREC_ROUNDTRIP
360
1B6
  0
DICTIONARY
  5
1A
330
19
100
AcDbDictionary
280
     1
281
     1
  3
BUMPTILE
360
1C
  3
DIFFUSETILE
360
1B
  3
OPACITYTILE
360
1F
  3
REFLECTIONTILE
360
1E
  3
REFRACTIONTILE
360
20
  3
SPECULARTILE
360
1D
  0
DICTIONARY
  5
12
330
11
100
AcDbDictionary
280
     1
281
     1
  3
BUMPTILE
360
14
  3
DIFFUSETILE
360
13
  3
OPACITYTILE
360
17
  3
REFLECTIONTILE
360
16
  3
REFRACTIONTILE
360
18
  3
SPECULARTILE
360
15
  0
DICTIONARY
  5
22
330
21
100
AcDbDictionary
280
     1
281
     1
  3
BUMPTILE
360
24
  3
DIFFUSETILE
360
23
  3
OPACITYTILE
360
27
  3
REFLECTIONTILE
360
26
  3
REFRACTIONTILE
360
28
  3
SPECULARTILE
360
25
  0
DICTIONARY
  5
1B3
330
69
100
AcDbDictionary
280
     1
281
     1
  3
ACAD_XREC_ROUNDTRIP
360
1B4
  0
DICTIONARY
  5
1B0
330
65
100
AcDbDictionary
280
     1
281
     1
  3
ACAD_ROUNDTRIP_2008_TABLESTYLE_CELLSTYLEMAP
360
1B1
  0
XRECORD
  5
1B6
102
{ACAD_REACTORS
330
1B5
102
}
330
1B5
100
AcDbXrecord
280
     1
102
DISPLAYNAME
  1
Imperial24
102
FLAGS
 90
        0
  0
XRECORD
  5
1C
102
{ACAD_REACTORS
330
1A
102
}
330
1A
100
AcDbXrecord
280
     1
270
     1
271
     1
  0
XRECORD
  5
1B
102
{ACAD_REACTORS
330
1A
102
}
330
1A
100
AcDbXrecord
280
     1
270
     1
271
     1
  0
XRECORD
  5
1F
102
{ACAD_REACTORS
330
1A
102
}
330
1A
100
AcDbXrecord
280
     1
270
     1
271
     1
  0
XRECORD
  5
1E
102
{ACAD_REACTORS
330
1A
102
}
330
1A
100
AcDbXrecord
280
     1
270
     1
271
     1
  0
XRECORD
  5
20
102
{ACAD_REACTORS
330
1A
102
}
330
1A
100
AcDbXrecord
280
     1
270
     1
271
     1
  0
XRECORD
  5
1D
102
{ACAD_REACTORS
330
1A
102
}
330
1A
100
AcDbXrecord
280
     1
270
     1
271
     1
  0
XRECORD
  5
14
102
{ACAD_REACTORS
330
12
102
}
330
12
100
AcDbXrecord
280
     1
270
     1
271
     1
  0
XRECORD
  5
13
102
{ACAD_REACTORS
330
12
102
}
330
12
100
AcDbXrecord
280
     1
270
     1
271
     1
  0
XRECORD
  5
17
102
{ACAD_REACTORS
330
12
102
}
330
12
100
AcDbXrecord
280
     1
270
     1
271
     1
  0
XRECORD
  5
16
102
{ACAD_REACTORS
330
12
102
}
330
12
100
AcDbXrecord
280
     1
270
     1
271
     1
  0
XRECORD
  5
18
102
{ACAD_REACTORS
330
12
102
}
330
12
100
AcDbXrecord
280
     1
270
     1
271
     1
  0
XRECORD
  5
15
102
{ACAD_REACTORS
330
12
102
}
330
12
100
AcDbXrecord
280
     1
270
     1
271
     1
  0
XRECORD
  5
24
102
{ACAD_REACTORS
330
22
102
}
330
22
100
AcDbXrecord
280
     1
270
     1
271
     1
  0
XRECORD
  5
23
102
{ACAD_REACTORS
330
22
102
}
330
22
100
AcDbXrecord
280
     1
270
     1
271
     1
  0
XRECORD
  5
27
102
{ACAD_REACTORS
330
22
102
}
330
22
100
AcDbXrecord
280
     1
270
     1
271
     1
  0
XRECORD
  5
26
102
{ACAD_REACTORS
330
22
102
}
330
22
100
AcDbXrecord
280
     1
270
     1
271
     1
  0
XRECORD
  5
28
102
{ACAD_REACTORS
330
22
102
}
330
22
100
AcDbXrecord
280
     1
270
     1
271
     1
  0
XRECORD
  5
25
102
{ACAD_REACTORS
330
22
102
}
330
22
100
AcDbXrecord
280
     1
270
     1
271
     1
  0
XRECORD
  5
1B4
102
{ACAD_REACTORS
330
1B3
102
}
330
1B3
100
AcDbXrecord
280
     1
102
DISPLAYNAME
  1
Imperial24
102
FLAGS
 90
        0
  0
CELLSTYLEMAP
  5
1B1
102
{ACAD_REACTORS
330
1B0
102
}
330
1B0
100
AcDbCellStyleMap
 90
        3
300
CELLSTYLE
  1
TABLEFORMAT_BEGIN
 90
        5
170
     1
 91
        0
 92
    32768
 62
   257
 93
        1
300
CONTENTFORMAT
  1
CONTENTFORMAT_BEGIN
 90
        0
 91
        0
 92
      512
 93
        0
300

 40
0.0
140
1.0
 94
        5
 62
     0
340
55
144
0.25
309
CONTENTFORMAT_END
171
     0
 94
        0
309
TABLEFORMAT_END
  1
CELLSTYLE_BEGIN
 90
        1
 91
        1
300
_TITLE
309
CELLSTYLE_END
300
CELLSTYLE
  1
TABLEFORMAT_BEGIN
 90
        5
170
     1
 91
        0
 92
        0
 62
   257
 93
        1
300
CONTENTFORMAT
  1
CONTENTFORMAT_BEGIN
 90
        0
 91
        0
 92
      512
 93
        0
300

 40
0.0
140
1.0
 94
        5
 62
     0
340
55
144
0.18
309
CONTENTFORMAT_END
171
     0
 94
        0
309
TABLEFORMAT_END
  1
CELLSTYLE_BEGIN
 90
        2
 91
        1
300
_HEADER
309
CELLSTYLE_END
300
CELLSTYLE
  1
TABLEFORMAT_BEGIN
 90
        5
170
     1
 91
        0
 92
        0
 62
   257
 93
        1
300
CONTENTFORMAT
  1
CONTENTFORMAT_BEGIN
 90
        0
 91
        0
 92
      512
 93
        0
300

 40
0.0
140
1.0
 94
        2
 62
     0
340
55
144
0.18
309
CONTENTFORMAT_END
171
     0
 94
        0
309
TABLEFORMAT_END
  1
CELLSTYLE_BEGIN
 90
        3
 91
        2
300
_DATA
309
CELLSTYLE_END
  0
ENDSEC
  0
EOF
