  0
SECTION
  2
HEADER
  9
$ACADVER
  1
AC1027
  9
$ACADMAINTVER
 70
   125
  9
$DWGCODEPAGE
  3
ANSI_1252
  9
$REQUIREDVERSIONS
160
                 0
  9
$INSBASE
 10
0.0
 20
0.0
 30
0.0
  9
$EXTMIN
 10
1.000000000000000E+20
 20
1.000000000000000E+20
 30
1.000000000000000E+20
  9
$EXTMAX
 10
-1.000000000000000E+20
 20
-1.000000000000000E+20
 30
-1.000000000000000E+20
  9
$LIMMIN
 10
0.0
 20
0.0
  9
$LIMMAX
 10
12.0
 20
9.0
  9
$ORTHOMODE
 70
     0
  9
$REGENMODE
 70
     1
  9
$FILLMODE
 70
     1
  9
$QTEXTMODE
 70
     0
  9
$MIRRTEXT
 70
     0
  9
$LTSCALE
 40
1.0
  9
$ATTMODE
 70
     1
  9
$TEXTSIZE
 40
0.2
  9
$TRACEWID
 40
0.05
  9
$TEXTSTYLE
  7
Standard
  9
$CLAYER
  8
0
  9
$CELTYPE
  6
ByLayer
  9
$CECOLOR
 62
   256
  9
$CELTSCALE
 40
1.0
  9
$DISPSILH
 70
     0
  9
$DIMSCALE
 40
1.0
  9
$DIMASZ
 40
0.18
  9
$DIMEXO
 40
0.0625
  9
$DIMDLI
 40
0.38
  9
$DIMRND
 40
0.0
  9
$DIMDLE
 40
0.0
  9
$DIMEXE
 40
0.18
  9
$DIMTP
 40
0.0
  9
$DIMTM
 40
0.0
  9
$DIMTXT
 40
0.18
  9
$DIMCEN
 40
0.09
  9
$DIMTSZ
 40
0.0
  9
$DIMTOL
 70
     0
  9
$DIMLIM
 70
     0
  9
$DIMTIH
 70
     1
  9
$DIMTOH
 70
     1
  9
$DIMSE1
 70
     0
  9
$DIMSE2
 70
     0
  9
$DIMTAD
 70
     0
  9
$DIMZIN
 70
     0
  9
$DIMBLK
  1

  9
$DIMASO
 70
     1
  9
$DIMSHO
 70
     1
  9
$DIMPOST
  1

  9
$DIMAPOST
  1

  9
$DIMALT
 70
     0
  9
$DIMALTD
 70
     2
  9
$DIMALTF
 40
25.4
  9
$DIMLFAC
 40
1.0
  9
$DIMTOFL
 70
     0
  9
$DIMTVP
 40
0.0
  9
$DIMTIX
 70
     0
  9
$DIMSOXD
 70
     0
  9
$DIMSAH
 70
     0
  9
$DIMBLK1
  1

  9
$DIMBLK2
  1

  9
$DIMSTYLE
  2
Standard
  9
$DIMCLRD
 70
     0
  9
$DIMCLRE
 70
     0
  9
$DIMCLRT
 70
     0
  9
$DIMTFAC
 40
1.0
  9
$DIMGAP
 40
0.09
  9
$DIMJUST
 70
     0
  9
$DIMSD1
 70
     0
  9
$DIMSD2
 70
     0
  9
$DIMTOLJ
 70
     1
  9
$DIMTZIN
 70
     0
  9
$DIMALTZ
 70
     0
  9
$DIMALTTZ
 70
     0
  9
$DIMUPT
 70
     0
  9
$DIMDEC
 70
     4
  9
$DIMTDEC
 70
     4
  9
$DIMALTU
 70
     2
  9
$DIMALTTD
 70
     2
  9
$DIMTXSTY
  7
Standard
  9
$DIMAUNIT
 70
     0
  9
$DIMADEC
 70
     0
  9
$DIMALTRND
 40
0.0
  9
$DIMAZIN
 70
     0
  9
$DIMDSEP
 70
    46
  9
$DIMATFIT
 70
     3
  9
$DIMFRAC
 70
     0
  9
$DIMLDRBLK
  1

  9
$DIMLUNIT
 70
     2
  9
$DIMLWD
 70
    -2
  9
$DIMLWE
 70
    -2
  9
$DIMTMOVE
 70
     0
  9
$DIMFXL
 40
1.0
  9
$DIMFXLON
 70
     0
  9
$DIMJOGANG
 40
0.7853981633974483
  9
$DIMTFILL
 70
     0
  9
$DIMTFILLCLR
 70
     0
  9
$DIMARCSYM
 70
     0
  9
$DIMLTYPE
  6

  9
$DIMLTEX1
  6

  9
$DIMLTEX2
  6

  9
$DIMTXTDIRECTION
 70
     0
  9
$LUNITS
 70
     2
  9
$LUPREC
 70
     4
  9
$SKETCHINC
 40
0.1
  9
$FILLETRAD
 40
0.0
  9
$AUNITS
 70
     0
  9
$AUPREC
 70
     0
  9
$MENU
  1
.
  9
$ELEVATION
 40
0.0
  9
$PELEVATION
 40
0.0
  9
$THICKNESS
 40
0.0
  9
$LIMCHECK
 70
     0
  9
$CHAMFERA
 40
0.0
  9
$CHAMFERB
 40
0.0
  9
$CHAMFERC
 40
0.0
  9
$CHAMFERD
 40
0.0
  9
$SKPOLY
 70
     0
  9
$TDCREATE
 40
2461216.808437500
  9
$TDUCREATE
 40
2461216.808437500
  9
$TDUPDATE
 40
2461216.808437500
  9
$TDUUPDATE
 40
2461216.808437500
  9
$TDINDWG
 40
0.0000000000
  9
$TDUSRTIMER
 40
0.0000000000
  9
$USRTIMER
 70
     1
  9
$ANGBASE
 50
0.0
  9
$ANGDIR
 70
     0
  9
$PDMODE
 70
     0
  9
$PDSIZE
 40
0.0
  9
$PLINEWID
 40
0.0
  9
$SPLFRAME
 70
     0
  9
$SPLINETYPE
 70
     6
  9
$SPLINESEGS
 70
     8
  9
$HANDSEED
  5
221
  9
$SURFTAB1
 70
     6
  9
$SURFTAB2
 70
     6
  9
$SURFTYPE
 70
     6
  9
$SURFU
 70
     6
  9
$SURFV
 70
     6
  9
$UCSBASE
  2

  9
$UCSNAME
  2

  9
$UCSORG
 10
0.0
 20
0.0
 30
0.0
  9
$UCSXDIR
 10
1.0
 20
0.0
 30
0.0
  9
$UCSYDIR
 10
0.0
 20
1.0
 30
0.0
  9
$UCSORTHOREF
  2

  9
$UCSORTHOVIEW
 70
     0
  9
$UCSORGTOP
 10
0.0
 20
0.0
 30
0.0
  9
$UCSORGBOTTOM
 10
0.0
 20
0.0
 30
0.0
  9
$UCSORGLEFT
 10
0.0
 20
0.0
 30
0.0
  9
$UCSORGRIGHT
 10
0.0
 20
0.0
 30
0.0
  9
$UCSORGFRONT
 10
0.0
 20
0.0
 30
0.0
  9
$UCSORGBACK
 10
0.0
 20
0.0
 30
0.0
  9
$PUCSBASE
  2

  9
$PUCSNAME
  2

  9
$PUCSORG
 10
0.0
 20
0.0
 30
0.0
  9
$PUCSXDIR
 10
1.0
 20
0.0
 30
0.0
  9
$PUCSYDIR
 10
0.0
 20
1.0
 30
0.0
  9
$PUCSORTHOREF
  2

  9
$PUCSORTHOVIEW
 70
     0
  9
$PUCSORGTOP
 10
0.0
 20
0.0
 30
0.0
  9
$PUCSORGBOTTOM
 10
0.0
 20
0.0
 30
0.0
  9
$PUCSORGLEFT
 10
0.0
 20
0.0
 30
0.0
  9
$PUCSORGRIGHT
 10
0.0
 20
0.0
 30
0.0
  9
$PUCSORGFRONT
 10
0.0
 20
0.0
 30
0.0
  9
$PUCSORGBACK
 10
0.0
 20
0.0
 30
0.0
  9
$USERI1
 70
     0
  9
$USERI2
 70
     0
  9
$USERI3
 70
     0
  9
$USERI4
 70
     0
  9
$USERI5
 70
     0
  9
$USERR1
 40
0.0
  9
$USERR2
 40
0.0
  9
$USERR3
 40
0.0
  9
$USERR4
 40
0.0
  9
$USERR5
 40
0.0
  9
$WORLDVIEW
 70
     1
  9
$SHADEDGE
 70
     3
  9
$SHADEDIF
 70
    70
  9
$TILEMODE
 70
     1
  9
$MAXACTVP
 70
    64
  9
$PINSBASE
 10
0.0
 20
0.0
 30
0.0
  9
$PLIMCHECK
 70
     0
  9
$PEXTMIN
 10
1.000000000000000E+20
 20
1.000000000000000E+20
 30
1.000000000000000E+20
  9
$PEXTMAX
 10
-1.000000000000000E+20
 20
-1.000000000000000E+20
 30
-1.000000000000000E+20
  9
$PLIMMIN
 10
0.0
 20
0.0
  9
$PLIMMAX
 10
12.0
 20
9.0
  9
$UNITMODE
 70
     0
  9
$VISRETAIN
 70
     1
  9
$PLINEGEN
 70
     0
  9
$PSLTSCALE
 70
     1
  9
$TREEDEPTH
 70
  3020
  9
$CMLSTYLE
  2
Standard
  9
$CMLJUST
 70
     0
  9
$CMLSCALE
 40
1.0
  9
$PROXYGRAPHICS
 70
     1
  9
$MEASUREMENT
 70
     0
  9
$CELWEIGHT
370
    -1
  9
$ENDCAPS
280
     0
  9
$JOINSTYLE
280
     0
  9
$LWDISPLAY
290
     0
  9
$INSUNITS
 70
     5
  9
$HYPERLINKBASE
  1

  9
$STYLESHEET
  1

  9
$XEDIT
290
     1
  9
$CEPSNTYPE
380
     0
  9
$PSTYLEMODE
290
     1
  9
$FINGERPRINTGUID
  2
{8B911F7A-CD10-C14F-A97B-ACB1517B095B}
  9
$VERSIONGUID
  2
{0C6DD3AE-31E2-5F46-A5DC-6D451D1F7727}
  9
$EXTNAMES
290
     1
  9
$PSVPSCALE
 40
0.0
  9
$OLESTARTUP
290
     0
  9
$SORTENTS
280
   127
  9
$INDEXCTL
280
     0
  9
$HIDETEXT
280
     1
  9
$XCLIPFRAME
280
     2
  9
$HALOGAP
280
     0
  9
$OBSCOLOR
 70
   257
  9
$OBSLTYPE
280
     0
  9
$INTERSECTIONDISPLAY
280
     0
  9
$INTERSECTIONCOLOR
 70
   257
  9
$DIMASSOC
280
     2
  9
$PROJECTNAME
  1

  9
$CAMERADISPLAY
290
     0
  9
$LENSLENGTH
 40
50.0
  9
$CAMERAHEIGHT
 40
0.0
  9
$STEPSPERSEC
 40
2.0
  9
$STEPSIZE
 40
6.0
  9
$3DDWFPREC
 40
2.0
  9
$PSOLWIDTH
 40
0.25
  9
$PSOLHEIGHT
 40
4.0
  9
$LOFTANG1
 40
1.570796326794896
  9
$LOFTANG2
 40
1.570796326794896
  9
$LOFTMAG1
 40
0.0
  9
$LOFTMAG2
 40
0.0
  9
$LOFTPARAM
 70
     7
  9
$LOFTNORMALS
280
     1
  9
$LATITUDE
 40
37.795
  9
$LONGITUDE
 40
-122.394
  9
$NORTHDIRECTION
 40
0.0
  9
$TIMEZONE
 70
 -8000
  9
$LIGHTGLYPHDISPLAY
280
     1
  9
$TILEMODELIGHTSYNCH
280
     1
  9
$CMATERIAL
347
11
  9
$SOLIDHIST
280
     0
  9
$SHOWHIST
280
     1
  9
$DWFFRAME
280
     2
  9
$DGNFRAME
280
     0
  9
$REALWORLDSCALE
290
     1
  9
$INTERFERECOLOR
 62
     1
  9
$INTERFEREOBJVS
345
33
  9
$INTERFEREVPVS
346
30
  9
$CSHADOW
280
     0
  9
$SHADOWPLANELOCATION
 40
0.0
  0
ENDSEC
  0
SECTION
  2
CLASSES
  0
CLASS
  1
ACDBDICTIONARYWDFLT
  2
AcDbDictionaryWithDefault
  3
ObjectDBX Classes
 90
        0
 91
        1
280
     0
281
     0
  0
CLASS
  1
MATERIAL
  2
AcDbMaterial
  3
ObjectDBX Classes
 90
     1153
 91
        3
280
     0
281
     0
  0
CLASS
  1
VISUALSTYLE
  2
AcDbVisualStyle
  3
ObjectDBX Classes
 90
     4095
 91
       24
280
     0
281
     0
  0
CLASS
  1
SCALE
  2
AcDbScale
  3
ObjectDBX Classes
 90
     1153
 91
       17
280
     0
281
     0
  0
CLASS
  1
TABLESTYLE
  2
AcDbTableStyle
  3
ObjectDBX Classes
 90
     4095
 91
        1
280
     0
281
     0
  0
CLASS
  1
MLEADERSTYLE
  2
AcDbMLeaderStyle
  3
ACDB_MLEADERSTYLE_CLASS
 90
     4095
 91
        1
280
     0
281
     0
  0
CLASS
  1
ACDBSECTIONVIEWSTYLE
  2
AcDbSectionViewStyle
  3
ObjectDBX Classes
 90
     1025
 91
        1
280
     0
281
     0
  0
CLASS
  1
ACDBDETAILVIEWSTYLE
  2
AcDbDetailViewStyle
  3
ObjectDBX Classes
 90
     1025
 91
        1
280
     0
281
     0
  0
CLASS
  1
DICTIONARYVAR
  2
AcDbDictionaryVar
  3
ObjectDBX Classes
 90
        0
 91
        5
280
     0
281
     0
  0
CLASS
  1
CELLSTYLEMAP
  2
AcDbCellStyleMap
  3
ObjectDBX Classes
 90
     1152
 91
        1
280
     0
281
     0
  0
ENDSEC
  0
SECTION
  2
TABLES
  0
TABLE
  2
VPORT
  5
8
330
0
100
AcDbSymbolTable
 70
     1
1001
ACAD
1000
DbSaveVer
1071
      471
  0
VPORT
  5
57
330
8
100
AcDbSymbolTableRecord
100
AcDbViewportTableRecord
  2
*Active
 70
     0
 10
0.0
 20
0.0
 11
1.0
 21
1.0
 12
500.0
 22
500.0
 13
0.0
 23
0.0
 14
1.0
 24
1.0
 15
0.0
 25
0.0
 16
0.0
 26
0.0
 36
1.0
 17
0.0
 27
0.0
 37
0.0
 40
12.0
 41
1.0
 42
50.0
 43
0.0
 44
0.0
 50
0.0
 51
0.0
 71
     0
 72
   100
 73
     1
 74
     1
 75
     0
 76
     0
 77
     0
 78
     0
281
     0
 65
     1
110
0.0
120
0.0
130
0.0
111
1.0
121
0.0
131
0.0
112
0.0
122
1.0
132
0.0
 79
     0
146
0.0
 60
     3
 61
     5
292
     1
282
     1
141
0.0
142
0.0
 63
   250
421
  3355443
  0
ENDTAB
  0
TABLE
  2
LTYPE
  5
5
330
0
100
AcDbSymbolTable
 70
     1
  0
LTYPE
  5
5B
330
5
100
AcDbSymbolTableRecord
100
AcDbLinetypeTableRecord
  2
ByBlock
 70
     0
  3

 72
    65
 73
     0
 40
0.0
  0
LTYPE
  5
5C
330
5
100
AcDbSymbolTableRecord
100
AcDbLinetypeTableRecord
  2
ByLayer
 70
     0
  3

 72
    65
 73
     0
 40
0.0
  0
LTYPE
  5
5D
330
5
100
AcDbSymbolTableRecord
100
AcDbLinetypeTableRecord
  2
Continuous
 70
     0
  3
Solid line
 72
    65
 73
     0
 40
0.0
  0
ENDTAB
  0
TABLE
  2
LAYER
  5
2
330
0
100
AcDbSymbolTable
 70
     2
  0
LAYER
  5
54
330
2
100
AcDbSymbolTableRecord
100
AcDbLayerTableRecord
  2
0
 70
     0
 62
     7
  6
Continuous
370
    -3
390
F
347
21
348
0
  0
LAYER
  5
7A
330
2
100
AcDbSymbolTableRecord
100
AcDbLayerTableRecord
  2
ENSAYO 2 PROYECTO v2_Sketch5
 70
     0
 62
     7
  6
Continuous
370
    -3
390
F
347
21
348
0
1001
NFusion_SketchTransform
1000
1.000000;0.000000;0.000000;0.000000;0.000000;1.000000;0.000000;0.000000;0.000000;0.000000;1.000000;0.000000;0.000000;0.000000;0.000000;1.000000
  0
ENDTAB
  0
TABLE
  2
STYLE
  5
3
330
0
100
AcDbSymbolTable
 70
     2
  0
STYLE
  5
55
330
3
100
AcDbSymbolTableRecord
100
AcDbTextStyleTableRecord
  2
Standard
 70
     0
 40
0.0
 41
1.0
 50
0.0
 71
     0
 42
0.2
  3
txt
  4

  0
STYLE
  5
5A
330
3
100
AcDbSymbolTableRecord
100
AcDbTextStyleTableRecord
  2
Annotative
 70
     0
 40
0.0
 41
1.0
 50
0.0
 71
     0
 42
0.2
  3
txt
  4

1001
AcadAnnotative
1000
AnnotativeData
1002
{
1070
     1
1070
     1
1002
}
  0
ENDTAB
  0
TABLE
  2
VIEW
  5
6
330
0
100
AcDbSymbolTable
 70
     0
  0
ENDTAB
  0
TABLE
  2
UCS
  5
7
330
0
100
AcDbSymbolTable
 70
     0
  0
ENDTAB
  0
TABLE
  2
APPID
  5
9
330
0
100
AcDbSymbolTable
 70
     4
  0
APPID
  5
56
330
9
100
AcDbSymbolTableRecord
100
AcDbRegAppTableRecord
  2
ACAD
 70
     0
  0
APPID
  5
5E
330
9
100
AcDbSymbolTableRecord
100
AcDbRegAppTableRecord
  2
AcadAnnotative
 70
     0
  0
APPID
  5
78
330
9
100
AcDbSymbolTableRecord
100
AcDbRegAppTableRecord
  2
EDIT_IN_FUSION_ACAD_ADDIN
 70
     0
  0
APPID
  5
79
330
9
100
AcDbSymbolTableRecord
100
AcDbRegAppTableRecord
  2
NFusion_SketchTransform
 70
     0
  0
ENDTAB
  0
TABLE
  2
DIMSTYLE
  5
A
330
0
100
AcDbSymbolTable
 70
     2
100
AcDbDimStyleTable
 71
     0
  0
DIMSTYLE
105
58
330
A
100
AcDbSymbolTableRecord
100
AcDbDimStyleTableRecord
  2
Standard
 70
     0
340
55
  0
DIMSTYLE
105
59
330
A
100
AcDbSymbolTableRecord
100
AcDbDimStyleTableRecord
  2
Annotative
 70
     0
340
55
1001
AcadAnnotative
1000
AnnotativeData
1002
{
1070
     1
1070
     1
1002
}
  0
ENDTAB
  0
TABLE
  2
BLOCK_RECORD
  5
1
330
0
100
AcDbSymbolTable
 70
     1
  0
BLOCK_RECORD
  5
70
330
1
100
AcDbSymbolTableRecord
100
AcDbBlockTableRecord
  2
*Model_Space
340
73
 70
     0
280
     1
281
     0
  0
BLOCK_RECORD
  5
6C
330
1
100
AcDbSymbolTableRecord
100
AcDbBlockTableRecord
  2
*Paper_Space
340
6F
 70
     0
280
     1
281
     0
  0
BLOCK_RECORD
  5
74
330
1
100
AcDbSymbolTableRecord
100
AcDbBlockTableRecord
  2
*Paper_Space0
340
77
 70
     0
280
     1
281
     0
  0
ENDTAB
  0
ENDSEC
  0
SECTION
  2
BLOCKS
  0
BLOCK
  5
71
330
70
100
AcDbEntity
  8
0
100
AcDbBlockBegin
  2
*Model_Space
 70
     0
 10
0.0
 20
0.0
 30
0.0
  3
*Model_Space
  1

  0
ENDBLK
  5
72
330
70
100
AcDbEntity
  8
0
100
AcDbBlockEnd
  0
BLOCK
  5
6D
330
6C
100
AcDbEntity
 67
     1
  8
0
100
AcDbBlockBegin
  2
*Paper_Space
 70
     0
 10
0.0
 20
0.0
 30
0.0
  3
*Paper_Space
  1

  0
ENDBLK
  5
6E
330
6C
100
AcDbEntity
 67
     1
  8
0
100
AcDbBlockEnd
  0
BLOCK
  5
75
330
74
100
AcDbEntity
 67
     1
  8
0
100
AcDbBlockBegin
  2
*Paper_Space0
 70
     0
 10
0.0
 20
0.0
 30
0.0
  3
*Paper_Space0
  1

  0
ENDBLK
  5
76
330
74
100
AcDbEntity
 67
     1
  8
0
100
AcDbBlockEnd
  0
ENDSEC
  0
SECTION
  2
ENTITIES
  0
POINT
  5
7B
330
70
100
AcDbEntity
  8
ENSAYO 2 PROYECTO v2_Sketch5
100
AcDbPoint
 10
0.0
 20
0.0
 30
0.0
  0
POINT
  5
7C
330
70
100
AcDbEntity
  8
ENSAYO 2 PROYECTO v2_Sketch5
100
AcDbPoint
 10
-7.799999672174454
 20
6.500000096857547
 30
0.0
  0
POINT
  5
7D
330
70
100
AcDbEntity
  8
ENSAYO 2 PROYECTO v2_Sketch5
100
AcDbPoint
 10
-21.20000193479373
 20
6.499999264954541
 30
0.0
  0
LINE
  5
7E
330
70
100
AcDbEntity
  8
ENSAYO 2 PROYECTO v2_Sketch5
100
AcDbLine
 10
-22.00000192744527
 20
10.34999959479587
 30
0.0
 11
-21.40000037581271
 21
10.49999993117029
 31
0.0
  0
LINE
  5
7F
330
70
100
AcDbEntity
  8
ENSAYO 2 PROYECTO v2_Sketch5
100
AcDbLine
 10
-22.00000193479374
 20
9.500000318012572
 30
0.0
 11
-22.00000193822517
 21
9.650000318012573
 31
0.0
  0
LINE
  5
80
330
70
100
AcDbEntity
  8
ENSAYO 2 PROYECTO v2_Sketch5
100
AcDbLine
 10
-22.00000193822517
 20
9.650000318012573
 30
0.0
 11
-21.40000037047703
 21
9.499999851145322
 31
0.0
  0
LINE
  5
81
330
70
100
AcDbEntity
  8
ENSAYO 2 PROYECTO v2_Sketch5
100
AcDbLine
 10
-22.00000193479373
 20
6.499999218785317
 30
0.0
 11
-22.00000192632554
 21
6.349999218785317
 31
0.0
  0
LINE
  5
82
330
70
100
AcDbEntity
  8
ENSAYO 2 PROYECTO v2_Sketch5
100
AcDbLine
 10
-22.00000192632554
 20
6.349999218785317
 30
0.0
 11
-21.40000194612543
 21
6.499999228656922
 31
0.0
  0
LINE
  5
83
330
70
100
AcDbEntity
  8
ENSAYO 2 PROYECTO v2_Sketch5
100
AcDbLine
 10
-22.00000193479374
 20
5.499999124792653
 30
0.0
 11
-22.00000194401765
 21
5.649999124792653
 31
0.0
  0
ARC
  5
84
330
70
100
AcDbEntity
  8
ENSAYO 2 PROYECTO v2_Sketch5
100
AcDbCircle
 10
-21.40000037440078
 20
10.29999993117029
 30
0.0
 40
0.1999999999999957
100
AcDbArc
 50
0.0000004115072891
 51
90.00000040448819
  0
LINE
  5
85
330
70
100
AcDbEntity
  8
ENSAYO 2 PROYECTO v2_Sketch5
100
AcDbLine
 10
-22.00000193479374
 20
2.499999635616933
 30
0.0
 11
-22.00000193479374
 21
3.000000089407458
 31
0.0
  0
LINE
  5
86
330
70
100
AcDbEntity
  8
ENSAYO 2 PROYECTO v2_Sketch5
100
AcDbLine
 10
-22.00000193479374
 20
9.000008532279816
 30
0.0
 11
-22.00000193479374
 21
9.500000318012572
 31
0.0
  0
ARC
  5
87
330
70
100
AcDbEntity
  8
ENSAYO 2 PROYECTO v2_Sketch5
100
AcDbCircle
 10
-21.40000193474133
 20
6.299999228656929
 30
0.0
 40
0.1999999999999957
100
AcDbArc
 50
0.0000000177780284
 51
90.00000326130413
  0
ARC
  5
88
330
70
100
AcDbEntity
  8
ENSAYO 2 PROYECTO v2_Sketch5
100
AcDbCircle
 10
-21.40000037240902
 20
9.699999851145328
 30
0.0
 40
0.2000000000000064
100
AcDbArc
 50
270.0000005534725
 51
0.0000005612589991
  0
LINE
  5
89
330
70
100
AcDbEntity
  8
ENSAYO 2 PROYECTO v2_Sketch5
100
AcDbLine
 10
-22.00000193479373
 20
6.499999218785317
 30
0.0
 11
-22.00000193479374
 21
7.000001653158621
 31
0.0
  0
LINE
  5
8A
330
70
100
AcDbEntity
  8
ENSAYO 2 PROYECTO v2_Sketch5
100
AcDbLine
 10
-22.00000193479374
 20
0.9999998419518171
 30
0.0
 11
-22.00000193479374
 21
1.500000517493778
 31
0.0
  0
LINE
  5
8B
330
70
100
AcDbEntity
  8
ENSAYO 2 PROYECTO v2_Sketch5
100
AcDbLine
 10
-22.00000194401765
 20
5.649999124792653
 30
0.0
 11
-21.40000192195326
 21
5.499999076857863
 31
0.0
  0
LINE
  5
8C
330
70
100
AcDbEntity
  8
ENSAYO 2 PROYECTO v2_Sketch5
100
AcDbLine
 10
-22.00000032782555
 20
4.500000096857547
 30
0.0
 11
-22.00000032782555
 21
4.350000096857547
 31
0.0
  0
ARC
  5
8D
330
70
100
AcDbEntity
  8
ENSAYO 2 PROYECTO v2_Sketch5
100
AcDbCircle
 10
-21.400000327849
 20
2.300000038104529
 30
0.0
 40
0.1999999999999957
100
AcDbArc
 50
0.0000001566150925
 51
90.00000015406707
  0
LINE
  5
8E
330
70
100
AcDbEntity
  8
ENSAYO 2 PROYECTO v2_Sketch5
100
AcDbLine
 10
-22.00000193479374
 20
2.499999635616933
 30
0.0
 11
-22.0000019304706
 21
2.349999635616933
 31
0.0
  0
LINE
  5
8F
330
70
100
AcDbEntity
  8
ENSAYO 2 PROYECTO v2_Sketch5
100
AcDbLine
 10
-21.20000193474133
 20
6.299999228718986
 30
0.0
 11
-21.20000193455517
 21
5.699999076919944
 31
0.0
  0
LINE
  5
90
330
70
100
AcDbEntity
  8
ENSAYO 2 PROYECTO v2_Sketch5
100
AcDbLine
 10
-21.20000037440078
 20
10.29999993260672
 30
0.0
 11
-21.20000037240901
 21
9.699999853104491
 31
0.0
  0
LINE
  5
91
330
70
100
AcDbEntity
  8
ENSAYO 2 PROYECTO v2_Sketch5
100
AcDbLine
 10
-22.00000193479374
 20
10.4999995374264
 30
0.0
 11
-22.00000192744527
 21
10.34999959479587
 31
0.0
  0
LINE
  5
92
330
70
100
AcDbEntity
  8
ENSAYO 2 PROYECTO v2_Sketch5
100
AcDbLine
 10
-22.00000193479374
 20
5.00000328719591
 30
0.0
 11
-22.00000193479374
 21
5.499999124792653
 31
0.0
  0
ARC
  5
93
330
70
100
AcDbEntity
  8
ENSAYO 2 PROYECTO v2_Sketch5
100
AcDbCircle
 10
-21.40000032978495
 20
1.70000003616404
 30
0.0
 40
0.2000000000000064
100
AcDbArc
 50
270.0000001211705
 51
0.0000001231075673
  0
ARC
  5
94
330
70
100
AcDbEntity
  8
ENSAYO 2 PROYECTO v2_Sketch5
100
AcDbCircle
 10
-21.40000193455519
 20
5.699999076857887
 30
0.0
 40
0.2000000000000237
100
AcDbArc
 50
270.0000036101861
 51
0.0000000177780284
  0
LINE
  5
95
330
70
100
AcDbEntity
  8
ENSAYO 2 PROYECTO v2_Sketch5
100
AcDbLine
 10
-21.20000032784901
 20
2.300000038651219
 30
0.0
 11
-21.20000032978495
 21
1.700000036593767
 31
0.0
  0
LINE
  5
96
330
70
100
AcDbEntity
  8
ENSAYO 2 PROYECTO v2_Sketch5
100
AcDbLine
 10
-22.00000193479374
 20
10.4999995374264
 30
0.0
 11
-22.00000193479374
 21
10.99999984195181
 31
0.0
  0
LINE
  5
97
330
70
100
AcDbEntity
  8
ENSAYO 2 PROYECTO v2_Sketch5
100
AcDbLine
 10
-6.999999604209201
 20
6.500000096847386
 30
0.0
 11
-7.000000067484229
 21
7.000000089406296
 31
0.0
  0
LINE
  5
98
330
70
100
AcDbEntity
  8
ENSAYO 2 PROYECTO v2_Sketch5
100
AcDbLine
 10
-23.81639914159897
 20
10.34453388296925
 30
0.0
 11
-23.22839914159897
 21
10.49153382674717
 31
0.0
  0
LINE
  5
99
330
70
100
AcDbEntity
  8
ENSAYO 2 PROYECTO v2_Sketch5
100
AcDbLine
 10
-6.999999604209201
 20
6.500000096847386
 30
0.0
 11
-6.999999589579777
 21
6.35000007957732
 31
0.0
  0
LINE
  5
9A
330
70
100
AcDbEntity
  8
ENSAYO 2 PROYECTO v2_Sketch5
100
AcDbLine
 10
-6.999999672174453
 20
10.50000009685755
 30
0.0
 11
-6.999999672124261
 21
10.35000015486391
 31
0.0
  0
LINE
  5
9B
330
70
100
AcDbEntity
  8
ENSAYO 2 PROYECTO v2_Sketch5
100
AcDbLine
 10
-6.99999721914862
 20
1.650000629970171
 30
0.0
 11
-6.999996891322775
 21
1.000000193193597
 31
0.0
  0
LINE
  5
9C
330
70
100
AcDbEntity
  8
ENSAYO 2 PROYECTO v2_Sketch5
100
AcDbLine
 10
-23.81639914159897
 20
10.34453388296925
 30
0.0
 11
-23.22839914159897
 21
10.49153382674717
 31
0.0
  0
LINE
  5
9D
330
70
100
AcDbEntity
  8
ENSAYO 2 PROYECTO v2_Sketch5
100
AcDbLine
 10
-22.0
 20
9.650000081956386
 30
0.0
 11
-21.40000032782555
 21
9.500000081956386
 31
0.0
  0
LINE
  5
9E
330
70
100
AcDbEntity
  8
ENSAYO 2 PROYECTO v2_Sketch5
100
AcDbLine
 10
-7.79999967262982
 20
6.30000010052923
 30
0.0
 11
-7.799999672646185
 21
5.700000046878062
 31
0.0
  0
LINE
  5
9F
330
70
100
AcDbEntity
  8
ENSAYO 2 PROYECTO v2_Sketch5
100
AcDbLine
 10
-7.000000855737495
 20
9.000000089406499
 30
0.0
 11
-7.000001228674388
 21
9.500000081964362
 31
0.0
  0
LINE
  5
A0
330
70
100
AcDbEntity
  8
ENSAYO 2 PROYECTO v2_Sketch5
100
AcDbLine
 10
-6.999999672174453
 20
10.50000009685755
 30
0.0
 11
-7.0
 21
11.0
 31
0.0
  0
ARC
  5
A1
330
70
100
AcDbEntity
  8
ENSAYO 2 PROYECTO v2_Sketch5
100
AcDbCircle
 10
-23.22839914159898
 20
9.707533812144044
 30
0.0
 40
0.196000000000005
100
AcDbArc
 50
270.000000000001
 51
359.9999999999984
  0
ARC
  5
A2
330
70
100
AcDbEntity
  8
ENSAYO 2 PROYECTO v2_Sketch5
100
AcDbCircle
 10
-7.599999672646179
 20
5.700000047443485
 30
0.0
 40
0.2000000000000064
100
AcDbArc
 50
180.0000001619818
 51
270.0000001708085
  0
LINE
  5
A3
330
70
100
AcDbEntity
  8
ENSAYO 2 PROYECTO v2_Sketch5
100
AcDbLine
 10
-7.000001934793739
 20
10.99999984195184
 30
0.0
 11
-7.000001606968472
 21
10.35000055133904
 31
0.0
  0
ARC
  5
A4
330
70
100
AcDbEntity
  8
ENSAYO 2 PROYECTO v2_Sketch5
100
AcDbCircle
 10
-23.22839914159897
 20
10.29553382674717
 30
0.0
 40
0.1959999999999944
100
AcDbArc
 50
359.9999999999995
 51
90.0
  0
ARC
  5
A5
330
70
100
AcDbEntity
  8
ENSAYO 2 PROYECTO v2_Sketch5
100
AcDbCircle
 10
-24.40439909570308
 20
10.29553327600033
 30
0.0
 40
0.1959999999999986
100
AcDbArc
 50
90.00005366576553
 51
180.0000536657671
  0
LINE
  5
A6
330
70
100
AcDbEntity
  8
ENSAYO 2 PROYECTO v2_Sketch5
100
AcDbLine
 10
-15.33408404540549
 20
10.81749259530925
 30
0.0
 11
-15.16816831992187
 21
10.6349852943353
 31
0.0
  0
LINE
  5
A7
330
70
100
AcDbEntity
  8
ENSAYO 2 PROYECTO v2_Sketch5
100
AcDbLine
 10
-23.81639882032994
 20
9.658533812144037
 30
0.0
 11
-24.40439836137392
 21
9.511533261397547
 31
0.0
  0
ARC
  5
A8
330
70
100
AcDbEntity
  8
ENSAYO 2 PROYECTO v2_Sketch5
100
AcDbCircle
 10
-23.22839914159897
 20
10.29553382674717
 30
0.0
 40
0.1959999999999944
100
AcDbArc
 50
359.9999999999995
 51
90.0
  0
LINE
  5
A9
330
70
100
AcDbEntity
  8
ENSAYO 2 PROYECTO v2_Sketch5
100
AcDbLine
 10
-22.00000193479374
 20
1.500000517493778
 30
0.0
 11
-22.00000193273586
 21
1.650000517493778
 31
0.0
  0
ARC
  5
AA
330
70
100
AcDbEntity
  8
ENSAYO 2 PROYECTO v2_Sketch5
100
AcDbCircle
 10
-7.599999670650205
 20
10.30000009716605
 30
0.0
 40
0.1999999999999975
100
AcDbArc
 50
89.99999999384625
 51
179.9999999937518
  0
LINE
  5
AB
330
70
100
AcDbEntity
  8
ENSAYO 2 PROYECTO v2_Sketch5
100
AcDbLine
 10
-7.799999648655689
 20
2.300000217931271
 30
0.0
 11
-7.799999657327216
 21
1.69999992677345
 31
0.0
  0
LINE
  5
AC
330
70
100
AcDbEntity
  8
ENSAYO 2 PROYECTO v2_Sketch5
100
AcDbLine
 10
-23.81639914159897
 20
10.34453388296925
 30
0.0
 11
-24.40439927928537
 21
10.49153327600025
 31
0.0
  0
LINE
  5
AD
330
70
100
AcDbEntity
  8
ENSAYO 2 PROYECTO v2_Sketch5
100
AcDbLine
 10
-7.000001228674388
 20
9.500000081964362
 30
0.0
 11
-7.000001253925121
 21
9.649999815054806
 31
0.0
  0
LINE
  5
AE
330
70
100
AcDbEntity
  8
ENSAYO 2 PROYECTO v2_Sketch5
100
AcDbLine
 10
-6.999999236536879
 20
5.650000240007265
 30
0.0
 11
-7.599999672049944
 21
5.500000047443479
 31
0.0
  0
LINE
  5
AF
330
70
100
AcDbEntity
  8
ENSAYO 2 PROYECTO v2_Sketch5
100
AcDbLine
 10
-14.83183192088031
 20
10.2650152494258
 30
0.0
 11
-14.50000004683336
 21
9.900000182090199
 31
0.0
  0
ARC
  5
B0
330
70
100
AcDbEntity
  8
ENSAYO 2 PROYECTO v2_Sketch5
100
AcDbCircle
 10
-24.40439909570308
 20
10.29553327600033
 30
0.0
 40
0.1959999999999986
100
AcDbArc
 50
90.00005366576553
 51
180.0000536657671
  0
LINE
  5
B1
330
70
100
AcDbEntity
  8
ENSAYO 2 PROYECTO v2_Sketch5
100
AcDbLine
 10
-6.999999999764128
 20
9.650000081012898
 30
0.0
 11
-7.599999698515
 21
9.500000074225543
 31
0.0
  0
LINE
  5
B2
330
70
100
AcDbEntity
  8
ENSAYO 2 PROYECTO v2_Sketch5
100
AcDbLine
 10
-21.20000032782555
 20
10.30000009685755
 30
0.0
 11
-21.20000032782554
 21
9.700000081956387
 31
0.0
  0
LINE
  5
B3
330
70
100
AcDbEntity
  8
ENSAYO 2 PROYECTO v2_Sketch5
100
AcDbLine
 10
-7.7999996706502
 20
10.30000009718786
 30
0.0
 11
-7.799999670737288
 21
9.700000130847747
 31
0.0
  0
LINE
  5
B4
330
70
100
AcDbEntity
  8
ENSAYO 2 PROYECTO v2_Sketch5
100
AcDbLine
 10
-7.000001253925121
 20
9.649999815054806
 30
0.0
 11
-7.59999967125242
 21
9.500000130360948
 31
0.0
  0
ARC
  5
B5
330
70
100
AcDbEntity
  8
ENSAYO 2 PROYECTO v2_Sketch5
100
AcDbCircle
 10
-7.599999670737282
 20
9.700000130360953
 30
0.0
 40
0.2000000000000064
100
AcDbArc
 50
179.9999998605436
 51
269.9999998524238
  0
ARC
  5
B6
330
70
100
AcDbEntity
  8
ENSAYO 2 PROYECTO v2_Sketch5
100
AcDbCircle
 10
-7.599999672629825
 20
6.300000100480616
 30
0.0
 40
0.1999999999999975
100
AcDbArc
 50
89.99999998513027
 51
179.999999986073
  0
ARC
  5
B7
330
70
100
AcDbEntity
  8
ENSAYO 2 PROYECTO v2_Sketch5
100
AcDbCircle
 10
-24.4043985449562
 20
9.707533261397465
 30
0.0
 40
0.1960000000000022
100
AcDbArc
 50
180.0000536657681
 51
270.0000536657645
  0
LINE
  5
B8
330
70
100
AcDbEntity
  8
ENSAYO 2 PROYECTO v2_Sketch5
100
AcDbLine
 10
-23.81639882032994
 20
9.658533812144037
 30
0.0
 11
-23.22839914159898
 21
9.511533812144039
 31
0.0
  0
LINE
  5
B9
330
70
100
AcDbEntity
  8
ENSAYO 2 PROYECTO v2_Sketch5
100
AcDbLine
 10
-23.81639914159897
 20
10.34453388296925
 30
0.0
 11
-24.40439927928537
 21
10.49153327600025
 31
0.0
  0
ARC
  5
BA
330
70
100
AcDbEntity
  8
ENSAYO 2 PROYECTO v2_Sketch5
100
AcDbCircle
 10
-7.599999700828177
 20
10.30000001375425
 30
0.0
 40
0.1999999999999975
100
AcDbArc
 50
90.00000032648243
 51
180.0000003162392
  0
LINE
  5
BB
330
70
100
AcDbEntity
  8
ENSAYO 2 PROYECTO v2_Sketch5
100
AcDbLine
 10
-6.999999589579777
 20
6.35000007957732
 30
0.0
 11
-7.599999672577919
 21
6.500000100480614
 31
0.0
  0
ARC
  5
BC
330
70
100
AcDbEntity
  8
ENSAYO 2 PROYECTO v2_Sketch5
100
AcDbCircle
 10
-23.22839914159898
 20
9.707533812144044
 30
0.0
 40
0.196000000000005
100
AcDbArc
 50
270.000000000001
 51
359.9999999999984
  0
LINE
  5
BD
330
70
100
AcDbEntity
  8
ENSAYO 2 PROYECTO v2_Sketch5
100
AcDbLine
 10
-22.00000032782555
 20
10.35000015422702
 30
0.0
 11
-21.40000032782555
 21
10.50000009685755
 31
0.0
  0
LINE
  5
BE
330
70
100
AcDbEntity
  8
ENSAYO 2 PROYECTO v2_Sketch5
100
AcDbLine
 10
-6.999997532209303
 20
2.500000096850699
 30
0.0
 11
-6.999997572191126
 21
2.34999968970567
 31
0.0
  0
ARC
  5
BF
330
70
100
AcDbEntity
  8
ENSAYO 2 PROYECTO v2_Sketch5
100
AcDbCircle
 10
-7.599999648655694
 20
2.300000215033488
 30
0.0
 40
0.1999999999999975
100
AcDbArc
 50
89.99999913619163
 51
179.9999991698463
  0
ARC
  5
C0
330
70
100
AcDbEntity
  8
ENSAYO 2 PROYECTO v2_Sketch5
100
AcDbCircle
 10
-24.4043985449562
 20
9.707533261397465
 30
0.0
 40
0.1960000000000022
100
AcDbArc
 50
180.0000536657681
 51
270.0000536657645
  0
LINE
  5
C1
330
70
100
AcDbEntity
  8
ENSAYO 2 PROYECTO v2_Sketch5
100
AcDbLine
 10
-23.81639882032994
 20
9.658533812144037
 30
0.0
 11
-24.40439836137392
 21
9.511533261397547
 31
0.0
  0
LINE
  5
C2
330
70
100
AcDbEntity
  8
ENSAYO 2 PROYECTO v2_Sketch5
100
AcDbLine
 10
-24.60039909570299
 20
10.29553309241804
 30
0.0
 11
-24.60039854495612
 21
9.707533077815172
 31
0.0
  0
LINE
  5
C3
330
70
100
AcDbEntity
  8
ENSAYO 2 PROYECTO v2_Sketch5
100
AcDbLine
 10
-6.999997432858491
 20
1.500000081956363
 30
0.0
 11
-6.99999721914862
 21
1.650000629970171
 31
0.0
  0
LINE
  5
C4
330
70
100
AcDbEntity
  8
ENSAYO 2 PROYECTO v2_Sketch5
100
AcDbLine
 10
-7.000001606968472
 20
10.35000055133904
 30
0.0
 11
-7.599999701967815
 21
10.50000001375425
 31
0.0
  0
LINE
  5
C5
330
70
100
AcDbEntity
  8
ENSAYO 2 PROYECTO v2_Sketch5
100
AcDbLine
 10
-6.99999721914862
 20
1.650000629970171
 30
0.0
 11
-7.599999653602002
 21
1.499999930329293
 31
0.0
  0
LINE
  5
C6
330
70
100
AcDbEntity
  8
ENSAYO 2 PROYECTO v2_Sketch5
100
AcDbLine
 10
-24.60039909570299
 20
10.29553309241804
 30
0.0
 11
-24.60039854495612
 21
9.707533077815172
 31
0.0
  0
LINE
  5
C7
330
70
100
AcDbEntity
  8
ENSAYO 2 PROYECTO v2_Sketch5
100
AcDbLine
 10
-7.799999700828173
 20
10.30000001265036
 30
0.0
 11
-7.799999698842653
 21
9.700000073840246
 31
0.0
  0
LINE
  5
C8
330
70
100
AcDbEntity
  8
ENSAYO 2 PROYECTO v2_Sketch5
100
AcDbLine
 10
-6.999997572191126
 20
2.34999968970567
 30
0.0
 11
-7.599999645640434
 21
2.500000215033486
 31
0.0
  0
LINE
  5
C9
330
70
100
AcDbEntity
  8
ENSAYO 2 PROYECTO v2_Sketch5
100
AcDbLine
 10
-6.999999026082215
 20
5.000000089406716
 30
0.0
 11
-6.999999252211663
 21
5.500000081958625
 31
0.0
  0
LINE
  5
CA
330
70
100
AcDbEntity
  8
ENSAYO 2 PROYECTO v2_Sketch5
100
AcDbLine
 10
-23.03239914159898
 20
10.29553382674717
 30
0.0
 11
-23.03239914159897
 21
9.707533812144038
 31
0.0
  0
LINE
  5
CB
330
70
100
AcDbEntity
  8
ENSAYO 2 PROYECTO v2_Sketch5
100
AcDbLine
 10
-22.00000193273586
 20
1.650000517493778
 30
0.0
 11
-21.40000032936198
 21
1.500000036164034
 31
0.0
  0
ARC
  5
CC
330
70
100
AcDbEntity
  8
ENSAYO 2 PROYECTO v2_Sketch5
100
AcDbCircle
 10
-21.40000032782555
 20
10.30000009685755
 30
0.0
 40
0.1999999999999957
100
AcDbArc
 50
359.9999999999995
 51
90.0
  0
LINE
  5
CD
330
70
100
AcDbEntity
  8
ENSAYO 2 PROYECTO v2_Sketch5
100
AcDbLine
 10
-6.999999672124261
 20
10.35000015486391
 30
0.0
 11
-7.599999670628724
 21
10.50000009716605
 31
0.0
  0
ARC
  5
CE
330
70
100
AcDbEntity
  8
ENSAYO 2 PROYECTO v2_Sketch5
100
AcDbCircle
 10
-7.599999698938405
 20
9.700000074225549
 30
0.0
 40
0.1999999999042483
100
AcDbArc
 50
180.000000110381
 51
270.0000001212967
  0
ARC
  5
CF
330
70
100
AcDbEntity
  8
ENSAYO 2 PROYECTO v2_Sketch5
100
AcDbCircle
 10
-7.599999657327209
 20
1.6999999303293
 30
0.0
 40
0.2000000000000064
100
AcDbArc
 50
180.000001018676
 51
270.0000010671934
  0
LINE
  5
D0
330
70
100
AcDbEntity
  8
ENSAYO 2 PROYECTO v2_Sketch5
100
AcDbLine
 10
-23.81639882032994
 20
9.658533812144037
 30
0.0
 11
-23.22839914159898
 21
9.511533812144039
 31
0.0
  0
LINE
  5
D1
330
70
100
AcDbEntity
  8
ENSAYO 2 PROYECTO v2_Sketch5
100
AcDbLine
 10
-23.03239914159898
 20
10.29553382674717
 30
0.0
 11
-23.03239914159897
 21
9.707533812144038
 31
0.0
  0
LINE
  5
D2
330
70
100
AcDbEntity
  8
ENSAYO 2 PROYECTO v2_Sketch5
100
AcDbLine
 10
-22.0000019304706
 20
2.349999635616933
 30
0.0
 11
-21.40000032838679
 21
2.500000038104527
 31
0.0
  0
ARC
  5
D3
330
70
100
AcDbEntity
  8
ENSAYO 2 PROYECTO v2_Sketch5
100
AcDbCircle
 10
-21.40000032782555
 20
9.700000081956392
 30
0.0
 40
0.2000000000000064
100
AcDbArc
 50
270.000000000001
 51
359.9999999999984
  0
LINE
  5
D4
330
70
100
AcDbEntity
  8
ENSAYO 2 PROYECTO v2_Sketch5
100
AcDbLine
 10
-6.999998166329216
 20
0.9999999999999829
 30
0.0
 11
-6.999997432858491
 21
1.500000081956363
 31
0.0
  0
LINE
  5
D5
330
70
100
AcDbEntity
  8
ENSAYO 2 PROYECTO v2_Sketch5
100
AcDbLine
 10
-6.999997532209303
 20
2.500000096850699
 30
0.0
 11
-6.999997900017477
 21
3.000001129507763
 31
0.0
  0
LINE
  5
D6
330
70
100
AcDbEntity
  8
ENSAYO 2 PROYECTO v2_Sketch5
100
AcDbLine
 10
-6.999999252211663
 20
5.500000081958625
 30
0.0
 11
-6.999999236536879
 21
5.650000240007265
 31
0.0
  0
ARC
  5
D7
330
70
100
AcDbEntity
  8
ENSAYO 2 PROYECTO v2_Sketch5
100
AcDbCircle
 10
-15.19581954223459
 20
10.94999984195182
 30
0.0
 40
0.0500000000000004
100
AcDbArc
 50
298.6474295308573
 51
89.99999999999388
  0
LINE
  5
D8
330
70
100
AcDbEntity
  8
ENSAYO 2 PROYECTO v2_Sketch5
100
AcDbLine
 10
-13.66591626158826
 20
10.81749235230597
 30
0.0
 11
-13.82815213409221
 21
10.90612052130793
 31
0.0
  0
ARC
  5
D9
330
70
100
AcDbEntity
  8
ENSAYO 2 PROYECTO v2_Sketch5
100
AcDbCircle
 10
-13.80418105115016
 20
13.05000019830041
 30
0.0
 40
0.0499999999999985
100
AcDbArc
 50
118.6474295273375
 51
270.0000013416465
  0
LINE
  5
DA
330
70
100
AcDbEntity
  8
ENSAYO 2 PROYECTO v2_Sketch5
100
AcDbLine
 10
-22.00000032782555
 20
10.50000009685755
 30
0.0
 11
-22.00000032782555
 21
10.35000015422702
 31
0.0
  0
LINE
  5
DB
330
70
100
AcDbEntity
  8
ENSAYO 2 PROYECTO v2_Sketch5
100
AcDbLine
 10
-22.00000032782555
 20
10.35000015422702
 30
0.0
 11
-21.40000032782555
 21
10.50000009685755
 31
0.0
  0
ARC
  5
DC
330
70
100
AcDbEntity
  8
ENSAYO 2 PROYECTO v2_Sketch5
100
AcDbCircle
 10
-13.80418105115016
 20
12.95000019830041
 30
0.0
 40
0.049999999999999
100
AcDbArc
 50
89.99999865835349
 51
241.3525704726625
  0
LINE
  5
DD
330
70
100
AcDbEntity
  8
ENSAYO 2 PROYECTO v2_Sketch5
100
AcDbLine
 10
-14.49999977503032
 20
2.099999940716025
 30
0.0
 11
-14.16816821847182
 21
1.734985198988993
 31
0.0
  0
LINE
  5
DE
330
70
100
AcDbEntity
  8
ENSAYO 2 PROYECTO v2_Sketch5
100
AcDbLine
 10
-15.3340843277452
 20
13.18250768726018
 30
0.0
 11
-15.17184845651383
 21
13.09387951894316
 31
0.0
  0
LINE
  5
DF
330
70
100
AcDbEntity
  8
ENSAYO 2 PROYECTO v2_Sketch5
100
AcDbLine
 10
-26.20000039041042
 20
1.0
 30
0.0
 11
-27.80000041425228
 21
1.0
 31
0.0
  0
LINE
  5
E0
330
70
100
AcDbEntity
  8
ENSAYO 2 PROYECTO v2_Sketch5
100
AcDbLine
 10
-22.00000193479374
 20
9.000008532279816
 30
0.0
 11
-21.59999836317821
 21
9.000008180609228
 31
0.0
  0
LINE
  5
E1
330
70
100
AcDbEntity
  8
ENSAYO 2 PROYECTO v2_Sketch5
100
AcDbLine
 10
-13.83183200761127
 20
13.36501518080525
 30
0.0
 11
-13.66591610438847
 21
13.18250768726018
 31
0.0
  0
ARC
  5
E2
330
70
100
AcDbEntity
  8
ENSAYO 2 PROYECTO v2_Sketch5
100
AcDbCircle
 10
-14.00000015268535
 20
10.45000006951723
 30
0.0
 40
0.2500000037252896
100
AcDbArc
 50
227.7263111942716
 51
47.72631119427162
  0
LINE
  5
E3
330
70
100
AcDbEntity
  8
ENSAYO 2 PROYECTO v2_Sketch5
100
AcDbLine
 10
-21.20000032782555
 20
10.30000009685755
 30
0.0
 11
-21.20000032782554
 21
9.700000081956387
 31
0.0
  0
LINE
  5
E4
330
70
100
AcDbEntity
  8
ENSAYO 2 PROYECTO v2_Sketch5
100
AcDbLine
 10
-14.50000021606683
 20
14.10000021010637
 30
0.0
 11
-14.16816840962123
 21
13.73498522301621
 31
0.0
  0
ARC
  5
E5
330
70
100
AcDbEntity
  8
ENSAYO 2 PROYECTO v2_Sketch5
100
AcDbCircle
 10
-15.00000012040109
 20
10.45000027188055
 30
0.0
 40
0.2500000037252907
100
AcDbArc
 50
132.273688546389
 51
312.273688546389
  0
LINE
  5
E6
330
70
100
AcDbEntity
  8
ENSAYO 2 PROYECTO v2_Sketch5
100
AcDbLine
 10
-22.0
 20
9.650000081956386
 30
0.0
 11
-21.40000032782555
 21
9.500000081956386
 31
0.0
  0
LINE
  5
E7
330
70
100
AcDbEntity
  8
ENSAYO 2 PROYECTO v2_Sketch5
100
AcDbLine
 10
-14.83183202251244
 20
12.26501517358462
 30
0.0
 11
-14.50000021606684
 21
11.90000018649446
 31
0.0
  0
LINE
  5
E8
330
70
100
AcDbEntity
  8
ENSAYO 2 PROYECTO v2_Sketch5
100
AcDbLine
 10
-13.66591610438847
 20
13.18250768726018
 30
0.0
 11
-13.82815197561985
 21
13.09387951894315
 31
0.0
  0
ARC
  5
E9
330
70
100
AcDbEntity
  8
ENSAYO 2 PROYECTO v2_Sketch5
100
AcDbCircle
 10
-13.80418103715058
 20
1.050000033866066
 30
0.0
 40
0.0499999999999982
100
AcDbArc
 50
118.6474287314154
 51
270.0000005439552
  0
LINE
  5
EA
330
70
100
AcDbEntity
  8
ENSAYO 2 PROYECTO v2_Sketch5
100
AcDbLine
 10
-21.59999836317821
 20
9.000008180609228
 30
0.0
 11
-21.59999967448479
 21
7.000001640212682
 31
0.0
  0
LINE
  5
EB
330
70
100
AcDbEntity
  8
ENSAYO 2 PROYECTO v2_Sketch5
100
AcDbLine
 10
-26.00000038743019
 20
9.00000013411045
 30
0.0
 11
-26.20000039041042
 21
9.00000013411045
 31
0.0
  0
LINE
  5
EC
330
70
100
AcDbEntity
  8
ENSAYO 2 PROYECTO v2_Sketch5
100
AcDbLine
 10
-15.33408396963368
 20
1.182507289945229
 30
0.0
 11
-15.16816827595204
 21
1.365014563842325
 31
0.0
  0
LINE
  5
ED
330
70
100
AcDbEntity
  8
ENSAYO 2 PROYECTO v2_Sketch5
100
AcDbLine
 10
-22.0
 20
9.500000081956386
 30
0.0
 11
-22.0
 21
9.650000081956386
 31
0.0
  0
LINE
  5
EE
330
70
100
AcDbEntity
  8
ENSAYO 2 PROYECTO v2_Sketch5
100
AcDbLine
 10
-26.20000039041042
 20
9.00000013411045
 30
0.0
 11
-26.20000039041042
 21
11.0
 31
0.0
  0
LINE
  5
EF
330
70
100
AcDbEntity
  8
ENSAYO 2 PROYECTO v2_Sketch5
100
AcDbLine
 10
-27.80000041425228
 20
9.00000013411045
 30
0.0
 11
-27.80000041425228
 21
11.0
 31
0.0
  0
LINE
  5
F0
330
70
100
AcDbEntity
  8
ENSAYO 2 PROYECTO v2_Sketch5
100
AcDbLine
 10
-15.3340843277452
 20
12.81749270934066
 30
0.0
 11
-15.17184845651383
 21
12.90612087765767
 31
0.0
  0
ARC
  5
F1
330
70
100
AcDbEntity
  8
ENSAYO 2 PROYECTO v2_Sketch5
100
AcDbCircle
 10
-21.40000032782555
 20
9.700000081956392
 30
0.0
 40
0.2000000000000064
100
AcDbArc
 50
270.000000000001
 51
359.9999999999984
  0
LINE
  5
F2
330
70
100
AcDbEntity
  8
ENSAYO 2 PROYECTO v2_Sketch5
100
AcDbLine
 10
-14.83183202251244
 20
13.73498522301621
 30
0.0
 11
-14.50000021606683
 21
14.10000021010637
 31
0.0
  0
LINE
  5
F3
330
70
100
AcDbEntity
  8
ENSAYO 2 PROYECTO v2_Sketch5
100
AcDbLine
 10
-22.00000032782555
 20
10.35000015422702
 30
0.0
 11
-21.40000032782555
 21
10.50000009685755
 31
0.0
  0
ARC
  5
F4
330
70
100
AcDbEntity
  8
ENSAYO 2 PROYECTO v2_Sketch5
100
AcDbCircle
 10
-21.40000032782555
 20
10.30000009685755
 30
0.0
 40
0.1999999999999957
100
AcDbArc
 50
359.9999999999995
 51
90.0
  0
LINE
  5
F5
330
70
100
AcDbEntity
  8
ENSAYO 2 PROYECTO v2_Sketch5
100
AcDbLine
 10
-27.80000041425228
 20
11.0
 30
0.0
 11
-26.20000039041042
 21
11.0
 31
0.0
  0
LINE
  5
F6
330
70
100
AcDbEntity
  8
ENSAYO 2 PROYECTO v2_Sketch5
100
AcDbLine
 10
-21.59999967448479
 20
7.000001640212682
 30
0.0
 11
-22.00000193479374
 21
7.000001653158621
 31
0.0
  0
ARC
  5
F7
330
70
100
AcDbEntity
  8
ENSAYO 2 PROYECTO v2_Sketch5
100
AcDbCircle
 10
-15.00000022351742
 20
12.4500001946901
 30
0.0
 40
0.2500000037252902
100
AcDbArc
 50
132.2736890060937
 51
312.2736890060937
  0
LINE
  5
F8
330
70
100
AcDbEntity
  8
ENSAYO 2 PROYECTO v2_Sketch5
100
AcDbLine
 10
-13.66591610438847
 20
12.81749270934065
 30
0.0
 11
-13.82815197561985
 21
12.90612087765767
 31
0.0
  0
ARC
  5
F9
330
70
100
AcDbEntity
  8
ENSAYO 2 PROYECTO v2_Sketch5
100
AcDbCircle
 10
-14.00000020861626
 20
12.4500001946901
 30
0.0
 40
0.250000003725289
100
AcDbArc
 50
227.726310993906
 51
47.72631220132438
  0
LINE
  5
FA
330
70
100
AcDbEntity
  8
ENSAYO 2 PROYECTO v2_Sketch5
100
AcDbLine
 10
-28.00000041723251
 20
9.00000013411045
 30
0.0
 11
-27.80000041425228
 21
9.00000013411045
 31
0.0
  0
ARC
  5
FB
330
70
100
AcDbEntity
  8
ENSAYO 2 PROYECTO v2_Sketch5
100
AcDbCircle
 10
-21.40000032782555
 20
9.700000081956392
 30
0.0
 40
0.2000000000000064
100
AcDbArc
 50
270.000000000001
 51
359.9999999999984
  0
ARC
  5
FC
330
70
100
AcDbEntity
  8
ENSAYO 2 PROYECTO v2_Sketch5
100
AcDbCircle
 10
-14.00000020861625
 20
13.55000020191073
 30
0.0
 40
0.2500000037252902
100
AcDbArc
 50
312.2736890060937
 51
132.2736890060937
  0
LINE
  5
FD
330
70
100
AcDbEntity
  8
ENSAYO 2 PROYECTO v2_Sketch5
100
AcDbLine
 10
-15.33408396963368
 20
1.182507289945229
 30
0.0
 11
-15.17184846825094
 21
1.093879321671855
 31
0.0
  0
LINE
  5
FE
330
70
100
AcDbEntity
  8
ENSAYO 2 PROYECTO v2_Sketch5
100
AcDbLine
 10
-21.20000032782555
 20
10.30000009685755
 30
0.0
 11
-21.20000032782554
 21
9.700000081956387
 31
0.0
  0
LINE
  5
FF
330
70
100
AcDbEntity
  8
ENSAYO 2 PROYECTO v2_Sketch5
100
AcDbLine
 10
-28.00000041723251
 20
7.000000104308128
 30
0.0
 11
-27.80000041425228
 21
7.000000104308128
 31
0.0
  0
LINE
  5
100
330
70
100
AcDbEntity
  8
ENSAYO 2 PROYECTO v2_Sketch5
100
AcDbLine
 10
-15.3340843277452
 20
12.81749270934066
 30
0.0
 11
-15.1681684245224
 21
12.63498521579558
 31
0.0
  0
LINE
  5
101
330
70
100
AcDbEntity
  8
ENSAYO 2 PROYECTO v2_Sketch5
100
AcDbLine
 10
-22.0
 20
9.650000081956386
 30
0.0
 11
-21.40000032782555
 21
9.500000081956386
 31
0.0
  0
LINE
  5
102
330
70
100
AcDbEntity
  8
ENSAYO 2 PROYECTO v2_Sketch5
100
AcDbLine
 10
-14.50000021606684
 20
11.90000018649446
 30
0.0
 11
-14.16816840962123
 21
12.26501517358462
 31
0.0
  0
LINE
  5
103
330
70
100
AcDbEntity
  8
ENSAYO 2 PROYECTO v2_Sketch5
100
AcDbLine
 10
-13.66591590430622
 20
1.182507621524851
 30
0.0
 11
-13.82815196101071
 21
1.093879354841798
 31
0.0
  0
LINE
  5
104
330
70
100
AcDbEntity
  8
ENSAYO 2 PROYECTO v2_Sketch5
100
AcDbLine
 10
-22.00000193479374
 20
5.00000328719591
 30
0.0
 11
-21.79999901354281
 21
5.000003185866552
 31
0.0
  0
LINE
  5
105
330
70
100
AcDbEntity
  8
ENSAYO 2 PROYECTO v2_Sketch5
100
AcDbLine
 10
-21.79999901354281
 20
5.000003185866552
 30
0.0
 11
-21.80000032484532
 21
3.000000044703483
 31
0.0
  0
LINE
  5
106
330
70
100
AcDbEntity
  8
ENSAYO 2 PROYECTO v2_Sketch5
100
AcDbLine
 10
-13.83183195232727
 20
10.6349850912108
 30
0.0
 11
-13.66591626158826
 21
10.81749235230597
 31
0.0
  0
ARC
  5
107
330
70
100
AcDbEntity
  8
ENSAYO 2 PROYECTO v2_Sketch5
100
AcDbCircle
 10
-15.0000000777541
 20
1.549999587499658
 30
0.0
 40
0.2500000037252892
100
AcDbArc
 50
47.72631181843588
 51
227.7263118184358
  0
LINE
  5
108
330
70
100
AcDbEntity
  8
ENSAYO 2 PROYECTO v2_Sketch5
100
AcDbLine
 10
-13.83183200761128
 20
12.63498521579557
 30
0.0
 11
-13.66591610438847
 21
12.81749270934065
 31
0.0
  0
LINE
  5
109
330
70
100
AcDbEntity
  8
ENSAYO 2 PROYECTO v2_Sketch5
100
AcDbLine
 10
-21.80000032484532
 20
3.000000044703483
 30
0.0
 11
-22.00000193479374
 21
3.000000089407458
 31
0.0
  0
ARC
  5
10A
330
70
100
AcDbEntity
  8
ENSAYO 2 PROYECTO v2_Sketch5
100
AcDbCircle
 10
-15.00000022351741
 20
13.55000020191073
 30
0.0
 40
0.2500000037252902
100
AcDbArc
 50
47.72631099390628
 51
227.7263109939063
  0
LINE
  5
10B
330
70
100
AcDbEntity
  8
ENSAYO 2 PROYECTO v2_Sketch5
100
AcDbLine
 10
-13.83183182600762
 20
1.365015148100077
 30
0.0
 11
-13.66591590430622
 21
1.182507621524851
 31
0.0
  0
ARC
  5
10C
330
70
100
AcDbEntity
  8
ENSAYO 2 PROYECTO v2_Sketch5
100
AcDbCircle
 10
-15.19581939317862
 20
1.05000000127931
 30
0.0
 40
0.0500000000000005
100
AcDbArc
 50
269.9999980615573
 51
61.35256987463151
  0
ARC
  5
10D
330
70
100
AcDbEntity
  8
ENSAYO 2 PROYECTO v2_Sketch5
100
AcDbCircle
 10
-21.40000032782555
 20
10.30000009685755
 30
0.0
 40
0.1999999999999957
100
AcDbArc
 50
359.9999999999995
 51
90.0
  0
LINE
  5
10E
330
70
100
AcDbEntity
  8
ENSAYO 2 PROYECTO v2_Sketch5
100
AcDbLine
 10
-26.00000038743019
 20
7.000000104308128
 30
0.0
 11
-26.20000039041042
 21
7.000000104308128
 31
0.0
  0
LINE
  5
10F
330
70
100
AcDbEntity
  8
ENSAYO 2 PROYECTO v2_Sketch5
100
AcDbLine
 10
-14.83183187941119
 20
1.734984611025203
 30
0.0
 11
-14.49999977503032
 21
2.099999940716025
 31
0.0
  0
ARC
  5
110
330
70
100
AcDbEntity
  8
ENSAYO 2 PROYECTO v2_Sketch5
100
AcDbCircle
 10
-15.19581938098352
 20
12.95000019830041
 30
0.0
 40
0.0500000000000002
100
AcDbArc
 50
298.647429527341
 51
90.00000134164448
  0
LINE
  5
111
330
70
100
AcDbEntity
  8
ENSAYO 2 PROYECTO v2_Sketch5
100
AcDbLine
 10
-15.33408404540549
 20
10.81749259530925
 30
0.0
 11
-15.17184861776221
 21
10.90612052131055
 31
0.0
  0
ARC
  5
112
330
70
100
AcDbEntity
  8
ENSAYO 2 PROYECTO v2_Sketch5
100
AcDbCircle
 10
-14.00000002231307
 20
1.550000173477851
 30
0.0
 40
0.2500000037252903
100
AcDbArc
 50
312.2736875505001
 51
132.2736875505001
  0
LINE
  5
113
330
70
100
AcDbEntity
  8
ENSAYO 2 PROYECTO v2_Sketch5
100
AcDbLine
 10
-14.50000004683336
 20
9.900000182090199
 30
0.0
 11
-14.16816835304343
 21
10.26501504782367
 31
0.0
  0
ARC
  5
114
330
70
100
AcDbEntity
  8
ENSAYO 2 PROYECTO v2_Sketch5
100
AcDbCircle
 10
-13.80418120962466
 20
10.94999984195183
 30
0.0
 40
0.0499999999999972
100
AcDbArc
 50
89.99999865835553
 51
241.3525704754499
  0
LINE
  5
115
330
70
100
AcDbEntity
  8
ENSAYO 2 PROYECTO v2_Sketch5
100
AcDbLine
 10
-15.3340843277452
 20
13.18250768726018
 30
0.0
 11
-15.1681684245224
 21
13.36501518080525
 31
0.0
  0
ARC
  5
116
330
70
100
AcDbEntity
  8
ENSAYO 2 PROYECTO v2_Sketch5
100
AcDbCircle
 10
-15.19581938098352
 20
13.05000019830042
 30
0.0
 40
0.0500000000000007
100
AcDbArc
 50
269.9999986583555
 51
61.35257047265716
  0
LINE
  5
117
330
70
100
AcDbEntity
  8
ENSAYO 2 PROYECTO v2_Sketch5
100
AcDbLine
 10
-28.00000041723251
 20
3.000000044703483
 30
0.0
 11
-28.00000020861626
 21
5.000000067055225
 31
0.0
  0
LINE
  5
118
330
70
100
AcDbEntity
  8
ENSAYO 2 PROYECTO v2_Sketch5
100
AcDbLine
 10
-28.00000041723251
 20
7.000000104308128
 30
0.0
 11
-28.00000041723251
 21
9.00000013411045
 31
0.0
  0
LINE
  5
119
330
70
100
AcDbEntity
  8
ENSAYO 2 PROYECTO v2_Sketch5
100
AcDbLine
 10
-10.65000055810416
 20
3.00000111447734
 30
0.0
 11
-10.65000055810416
 21
5.000001114477319
 31
0.0
  0
ARC
  5
11A
330
70
100
AcDbEntity
  8
ENSAYO 2 PROYECTO v2_Sketch5
100
AcDbCircle
 10
-18.05003672703225
 20
6.999995093003585
 30
0.0
 40
0.1000047992650153
100
AcDbArc
 50
179.9999999999995
 51
359.9999999999995
  0
LINE
  5
11B
330
70
100
AcDbEntity
  8
ENSAYO 2 PROYECTO v2_Sketch5
100
AcDbLine
 10
-10.64999999827344
 20
7.000001599977952
 30
0.0
 11
-10.64999999827344
 21
9.000001599977943
 31
0.0
  0
ARC
  5
11C
330
70
100
AcDbEntity
  8
ENSAYO 2 PROYECTO v2_Sketch5
100
AcDbCircle
 10
-10.74999961978395
 20
7.000001599977952
 30
0.0
 40
0.0999996215105057
100
AcDbArc
 50
180.0
 51
0.0
  0
ARC
  5
11D
330
70
100
AcDbEntity
  8
ENSAYO 2 PROYECTO v2_Sketch5
100
AcDbCircle
 10
-18.35003699397864
 20
10.40000005044807
 30
0.0
 40
0.1999999999999993
100
AcDbArc
 50
180.000000553473
 51
270.0000005612585
  0
ARC
  5
11E
330
70
100
AcDbEntity
  8
ENSAYO 2 PROYECTO v2_Sketch5
100
AcDbCircle
 10
-18.35003676316758
 20
10.40000000586461
 30
0.0
 40
0.1999999999999922
100
AcDbArc
 50
180.0000000000015
 51
269.999999999998
  0
LINE
  5
11F
330
70
100
AcDbEntity
  8
ENSAYO 2 PROYECTO v2_Sketch5
100
AcDbLine
 10
-27.80000041425228
 20
3.000000044703483
 30
0.0
 11
-27.80000041425228
 21
1.0
 31
0.0
  0
LINE
  5
120
330
70
100
AcDbEntity
  8
ENSAYO 2 PROYECTO v2_Sketch5
100
AcDbLine
 10
-27.80000041425228
 20
7.000000104308128
 30
0.0
 11
-27.80000041425228
 21
5.000000074505805
 31
0.0
  0
LINE
  5
121
330
70
100
AcDbEntity
  8
ENSAYO 2 PROYECTO v2_Sketch5
100
AcDbLine
 10
-18.14999989047646
 20
5.000000059505294
 30
0.0
 11
-18.14999989047647
 21
3.000000059505295
 31
0.0
  0
LINE
  5
122
330
70
100
AcDbEntity
  8
ENSAYO 2 PROYECTO v2_Sketch5
100
AcDbLine
 10
-17.75003674826642
 20
10.20000000586461
 30
0.0
 11
-18.35003676316758
 21
10.2000000058646
 31
0.0
  0
LINE
  5
123
330
70
100
AcDbEntity
  8
ENSAYO 2 PROYECTO v2_Sketch5
100
AcDbLine
 10
-10.84999924129445
 20
9.000001599977943
 30
0.0
 11
-10.84999924129445
 21
7.000001599977952
 31
0.0
  0
LINE
  5
124
330
70
100
AcDbEntity
  8
ENSAYO 2 PROYECTO v2_Sketch5
100
AcDbLine
 10
-17.7000372503281
 20
11.00000160548431
 30
0.0
 11
-17.55003691395367
 21
10.40000005385176
 31
0.0
  0
LINE
  5
125
330
70
100
AcDbEntity
  8
ENSAYO 2 PROYECTO v2_Sketch5
100
AcDbLine
 10
-17.70003669089695
 20
11.0000000058646
 30
0.0
 11
-17.55003674826642
 21
10.4000000058646
 31
0.0
  0
ARC
  5
126
330
70
100
AcDbEntity
  8
ENSAYO 2 PROYECTO v2_Sketch5
100
AcDbCircle
 10
-10.75000017961466
 20
3.00000111447734
 30
0.0
 40
0.0999996215105057
100
AcDbArc
 50
180.0
 51
0.0
  0
LINE
  5
127
330
70
100
AcDbEntity
  8
ENSAYO 2 PROYECTO v2_Sketch5
100
AcDbLine
 10
-18.4000365271114
 20
11.00000161626422
 30
0.0
 11
-18.55003699397864
 21
10.40000004851608
 31
0.0
  0
LINE
  5
128
330
70
100
AcDbEntity
  8
ENSAYO 2 PROYECTO v2_Sketch5
100
AcDbLine
 10
-18.40003676316759
 20
10.99999967803905
 30
0.0
 11
-18.55003676316757
 21
10.4000000058646
 31
0.0
  0
ARC
  5
129
330
70
100
AcDbEntity
  8
ENSAYO 2 PROYECTO v2_Sketch5
100
AcDbCircle
 10
-18.35003676316758
 20
10.40000000586461
 30
0.0
 40
0.1999999999999922
100
AcDbArc
 50
180.0000000000015
 51
269.999999999998
  0
LINE
  5
12A
330
70
100
AcDbEntity
  8
ENSAYO 2 PROYECTO v2_Sketch5
100
AcDbLine
 10
-18.05003672703225
 20
9.000008106952314
 30
0.0
 11
-18.05003672703225
 21
9.10001290621733
 31
0.0
  0
LINE
  5
12B
330
70
100
AcDbEntity
  8
ENSAYO 2 PROYECTO v2_Sketch5
100
AcDbLine
 10
-7.000000855737495
 20
9.000000089406499
 30
0.0
 11
-7.20000010728836
 21
9.00000013411045
 31
0.0
  0
LINE
  5
12C
330
70
100
AcDbEntity
  8
ENSAYO 2 PROYECTO v2_Sketch5
100
AcDbLine
 10
-10.74999961978395
 20
9.000001599977943
 30
0.0
 11
-10.74999962217434
 21
9.100001221488449
 31
0.0
  0
ARC
  5
12D
330
70
100
AcDbEntity
  8
ENSAYO 2 PROYECTO v2_Sketch5
100
AcDbCircle
 10
-10.75000017961466
 20
5.000001114477319
 30
0.0
 40
0.0999996215105057
100
AcDbArc
 50
0.0
 51
180.0
  0
LINE
  5
12E
330
70
100
AcDbEntity
  8
ENSAYO 2 PROYECTO v2_Sketch5
100
AcDbLine
 10
-18.05003672703225
 20
8.000001599977951
 30
0.0
 11
-18.05003672703225
 21
8.000003829562027
 31
0.0
  0
LINE
  5
12F
330
70
100
AcDbEntity
  8
ENSAYO 2 PROYECTO v2_Sketch5
100
AcDbLine
 10
-10.75000017961466
 20
3.00000111447734
 30
0.0
 11
-10.75000017332161
 21
2.900001492966834
 31
0.0
  0
LINE
  5
130
330
70
100
AcDbEntity
  8
ENSAYO 2 PROYECTO v2_Sketch5
100
AcDbLine
 10
-3.900036763167591
 20
12.99999967803905
 30
0.0
 11
-3.900036763167591
 21
12.99999967803905
 31
0.0
  0
ARC
  5
131
330
70
100
AcDbEntity
  8
ENSAYO 2 PROYECTO v2_Sketch5
100
AcDbCircle
 10
-18.05003672703225
 20
9.000008106952314
 30
0.0
 40
0.1000047992650153
100
AcDbArc
 50
0.0
 51
180.0
  0
LINE
  5
132
330
70
100
AcDbEntity
  8
ENSAYO 2 PROYECTO v2_Sketch5
100
AcDbLine
 10
-17.70003669089695
 20
11.0000000058646
 30
0.0
 11
-17.55003674826642
 21
10.4000000058646
 31
0.0
  0
LINE
  5
133
330
70
100
AcDbEntity
  8
ENSAYO 2 PROYECTO v2_Sketch5
100
AcDbLine
 10
-17.75003691251724
 20
10.20000005243984
 30
0.0
 11
-18.35003699201948
 21
10.20000005044806
 31
0.0
  0
LINE
  5
134
330
70
100
AcDbEntity
  8
ENSAYO 2 PROYECTO v2_Sketch5
100
AcDbLine
 10
-17.95003192776724
 20
6.999995093003585
 30
0.0
 11
-17.95003192776724
 21
9.000008106952314
 31
0.0
  0
LINE
  5
135
330
70
100
AcDbEntity
  8
ENSAYO 2 PROYECTO v2_Sketch5
100
AcDbLine
 10
-26.00000038743019
 20
5.000000074505805
 30
0.0
 11
-26.20000039041042
 21
5.000000074505805
 31
0.0
  0
LINE
  5
136
330
70
100
AcDbEntity
  8
ENSAYO 2 PROYECTO v2_Sketch5
100
AcDbLine
 10
-6.999999236536879
 20
5.650000240007265
 30
0.0
 11
-6.999999026082215
 21
5.000000089406716
 31
0.0
  0
LINE
  5
137
330
70
100
AcDbEntity
  8
ENSAYO 2 PROYECTO v2_Sketch5
100
AcDbLine
 10
-26.20000039041042
 20
3.000000044703483
 30
0.0
 11
-26.20000039041042
 21
1.0
 31
0.0
  0
LINE
  5
138
330
70
100
AcDbEntity
  8
ENSAYO 2 PROYECTO v2_Sketch5
100
AcDbLine
 10
-17.75003674826642
 20
10.20000000586461
 30
0.0
 11
-18.35003676316758
 21
10.2000000058646
 31
0.0
  0
ARC
  5
139
330
70
100
AcDbEntity
  8
ENSAYO 2 PROYECTO v2_Sketch5
100
AcDbCircle
 10
-17.75003691395368
 20
10.40000005243983
 30
0.0
 40
0.1999999999999939
100
AcDbArc
 50
270.0000004115078
 51
0.0000004044881866
  0
LINE
  5
13A
330
70
100
AcDbEntity
  8
ENSAYO 2 PROYECTO v2_Sketch5
100
AcDbLine
 10
-26.20000039041042
 20
7.000000104308128
 30
0.0
 11
-26.20000039041042
 21
5.000000074505805
 31
0.0
  0
ARC
  5
13B
330
70
100
AcDbEntity
  8
ENSAYO 2 PROYECTO v2_Sketch5
100
AcDbCircle
 10
-18.35003676316758
 20
10.40000000586461
 30
0.0
 40
0.1999999999999922
100
AcDbArc
 50
180.0000000000015
 51
269.999999999998
  0
LINE
  5
13C
330
70
100
AcDbEntity
  8
ENSAYO 2 PROYECTO v2_Sketch5
100
AcDbLine
 10
-26.00000038743019
 20
3.000000044703483
 30
0.0
 11
-26.20000039041042
 21
3.000000044703483
 31
0.0
  0
ARC
  5
13D
330
70
100
AcDbEntity
  8
ENSAYO 2 PROYECTO v2_Sketch5
100
AcDbCircle
 10
-17.75003674826642
 20
10.4000000058646
 30
0.0
 40
0.1999999999999939
100
AcDbArc
 50
269.999999999999
 51
0.0
  0
LINE
  5
13E
330
70
100
AcDbEntity
  8
ENSAYO 2 PROYECTO v2_Sketch5
100
AcDbLine
 10
-18.40003676316759
 20
10.99999967803905
 30
0.0
 11
-18.55003676316757
 21
10.4000000058646
 31
0.0
  0
ARC
  5
13F
330
70
100
AcDbEntity
  8
ENSAYO 2 PROYECTO v2_Sketch5
100
AcDbCircle
 10
-17.75003674826642
 20
10.4000000058646
 30
0.0
 40
0.1999999999999939
100
AcDbArc
 50
269.999999999999
 51
0.0
  0
LINE
  5
140
330
70
100
AcDbEntity
  8
ENSAYO 2 PROYECTO v2_Sketch5
100
AcDbLine
 10
-26.00000038743019
 20
9.00000013411045
 30
0.0
 11
-26.00000038743019
 21
7.000000104308128
 31
0.0
  0
LINE
  5
141
330
70
100
AcDbEntity
  8
ENSAYO 2 PROYECTO v2_Sketch5
100
AcDbLine
 10
-18.15004152629727
 20
9.000008106952316
 30
0.0
 11
-18.15004152629727
 21
6.999995093003586
 31
0.0
  0
LINE
  5
142
330
70
100
AcDbEntity
  8
ENSAYO 2 PROYECTO v2_Sketch5
100
AcDbLine
 10
-6.999997900017477
 20
3.000001129507763
 30
0.0
 11
-7.200000315904491
 21
3.00000115036964
 31
0.0
  0
LINE
  5
143
330
70
100
AcDbEntity
  8
ENSAYO 2 PROYECTO v2_Sketch5
100
AcDbLine
 10
-27.80000041425228
 20
3.000000044703483
 30
0.0
 11
-28.00000041723251
 21
3.000000044703483
 31
0.0
  0
LINE
  5
144
330
70
100
AcDbEntity
  8
ENSAYO 2 PROYECTO v2_Sketch5
100
AcDbLine
 10
-7.000001253925121
 20
9.649999815054806
 30
0.0
 11
-7.000000855737495
 21
9.000000089406499
 31
0.0
  0
LINE
  5
145
330
70
100
AcDbEntity
  8
ENSAYO 2 PROYECTO v2_Sketch5
100
AcDbLine
 10
-7.20000010728836
 20
4.999999988536748
 30
0.0
 11
-7.200000315904491
 21
3.00000115036964
 31
0.0
  0
LINE
  5
146
330
70
100
AcDbEntity
  8
ENSAYO 2 PROYECTO v2_Sketch5
100
AcDbLine
 10
-26.00000038743019
 20
5.000000074505805
 30
0.0
 11
-26.00000038743019
 21
3.000000044703483
 31
0.0
  0
LINE
  5
147
330
70
100
AcDbEntity
  8
ENSAYO 2 PROYECTO v2_Sketch5
100
AcDbLine
 10
-6.999999026082215
 20
5.000000089406716
 30
0.0
 11
-7.20000010728836
 21
4.999999988536748
 31
0.0
  0
ARC
  5
148
330
70
100
AcDbEntity
  8
ENSAYO 2 PROYECTO v2_Sketch5
100
AcDbCircle
 10
-18.05000026896596
 20
5.000000059505294
 30
0.0
 40
0.0999996215105057
100
AcDbArc
 50
0.0
 51
180.0
  0
ARC
  5
149
330
70
100
AcDbEntity
  8
ENSAYO 2 PROYECTO v2_Sketch5
100
AcDbCircle
 10
-10.74999961978395
 20
9.000001599977943
 30
0.0
 40
0.0999996215105057
100
AcDbArc
 50
0.0
 51
180.0
  0
LINE
  5
14A
330
70
100
AcDbEntity
  8
ENSAYO 2 PROYECTO v2_Sketch5
100
AcDbLine
 10
-6.999997900017477
 20
3.000001129507763
 30
0.0
 11
-6.999997572191126
 21
2.34999968970567
 31
0.0
  0
LINE
  5
14B
330
70
100
AcDbEntity
  8
ENSAYO 2 PROYECTO v2_Sketch5
100
AcDbLine
 10
-7.000000067484229
 20
7.000000089406296
 30
0.0
 11
-6.999999589579777
 21
6.35000007957732
 31
0.0
  0
LINE
  5
14C
330
70
100
AcDbEntity
  8
ENSAYO 2 PROYECTO v2_Sketch5
100
AcDbLine
 10
-17.70003669089695
 20
11.0000000058646
 30
0.0
 11
-17.55003674826642
 21
10.4000000058646
 31
0.0
  0
LINE
  5
14D
330
70
100
AcDbEntity
  8
ENSAYO 2 PROYECTO v2_Sketch5
100
AcDbLine
 10
-17.75003674826642
 20
10.20000000586461
 30
0.0
 11
-18.35003676316758
 21
10.2000000058646
 31
0.0
  0
LINE
  5
14E
330
70
100
AcDbEntity
  8
ENSAYO 2 PROYECTO v2_Sketch5
100
AcDbLine
 10
-17.95000064745545
 20
3.000000059505294
 30
0.0
 11
-17.95000064745545
 21
5.000000059505294
 31
0.0
  0
LINE
  5
14F
330
70
100
AcDbEntity
  8
ENSAYO 2 PROYECTO v2_Sketch5
100
AcDbLine
 10
-18.05000026896596
 20
4.000000059620477
 30
0.0
 11
-18.04996241807845
 21
4.000000059620476
 31
0.0
  0
LINE
  5
150
330
70
100
AcDbEntity
  8
ENSAYO 2 PROYECTO v2_Sketch5
100
AcDbLine
 10
-7.20000010728836
 20
9.00000013411045
 30
0.0
 11
-7.20000010728836
 21
7.000000104308128
 31
0.0
  0
LINE
  5
151
330
70
100
AcDbEntity
  8
ENSAYO 2 PROYECTO v2_Sketch5
100
AcDbLine
 10
-10.84999980112517
 20
5.000001114477319
 30
0.0
 11
-10.84999980112517
 21
3.00000111447734
 31
0.0
  0
LINE
  5
152
330
70
100
AcDbEntity
  8
ENSAYO 2 PROYECTO v2_Sketch5
100
AcDbLine
 10
-7.20000010728836
 20
7.000000104308128
 30
0.0
 11
-7.000000067484229
 21
7.000000089406296
 31
0.0
  0
LINE
  5
153
330
70
100
AcDbEntity
  8
ENSAYO 2 PROYECTO v2_Sketch5
100
AcDbLine
 10
-18.40003676316759
 20
10.99999967803905
 30
0.0
 11
-18.55003676316757
 21
10.4000000058646
 31
0.0
  0
ARC
  5
154
330
70
100
AcDbEntity
  8
ENSAYO 2 PROYECTO v2_Sketch5
100
AcDbCircle
 10
-17.75003674826642
 20
10.4000000058646
 30
0.0
 40
0.1999999999999939
100
AcDbArc
 50
269.999999999999
 51
0.0
  0
LINE
  5
155
330
70
100
AcDbEntity
  8
ENSAYO 2 PROYECTO v2_Sketch5
100
AcDbLine
 10
-27.80000041425228
 20
5.000000074505805
 30
0.0
 11
-28.00000020861626
 21
5.000000067055225
 31
0.0
  0
ARC
  5
156
330
70
100
AcDbEntity
  8
ENSAYO 2 PROYECTO v2_Sketch5
100
AcDbCircle
 10
-18.05000026896596
 20
3.000000059505294
 30
0.0
 40
0.0999996215105057
100
AcDbArc
 50
179.9999999999997
 51
359.9999999999997
  0
LINE
  5
157
330
70
100
AcDbEntity
  8
ENSAYO 2 PROYECTO v2_Sketch5
100
AcDbLine
 10
-10.40000033270328
 20
0.999998331070704
 30
0.0
 11
-10.24999986583604
 21
1.59999989881884
 31
0.0
  0
LINE
  5
158
330
70
100
AcDbEntity
  8
ENSAYO 2 PROYECTO v2_Sketch5
100
AcDbLine
 10
-10.40000009664709
 20
1.000000269295875
 30
0.0
 11
-10.2500000966471
 21
1.599999941470323
 31
0.0
  0
ARC
  5
159
330
70
100
AcDbEntity
  8
ENSAYO 2 PROYECTO v2_Sketch5
100
AcDbCircle
 10
-11.04999965591927
 20
10.40000000586462
 30
0.0
 40
0.1999999999999922
100
AcDbArc
 50
180.0000000000015
 51
269.999999999999
  0
ARC
  5
15A
330
70
100
AcDbEntity
  8
ENSAYO 2 PROYECTO v2_Sketch5
100
AcDbCircle
 10
-11.05000011154825
 20
1.599999941470324
 30
0.0
 40
0.1999999999999937
100
AcDbArc
 50
89.99999999999898
 51
180.0
  0
ARC
  5
15B
330
70
100
AcDbEntity
  8
ENSAYO 2 PROYECTO v2_Sketch5
100
AcDbCircle
 10
-10.44999964101811
 20
10.40000000586461
 30
0.0
 40
0.1999999999999939
100
AcDbArc
 50
269.999999999999
 51
0.0
  0
LINE
  5
15C
330
70
100
AcDbEntity
  8
ENSAYO 2 PROYECTO v2_Sketch5
100
AcDbLine
 10
-11.09999960948657
 20
0.9999983418506108
 30
0.0
 11
-11.249999945861
 21
1.59999989348316
 31
0.0
  0
LINE
  5
15D
330
70
100
AcDbEntity
  8
ENSAYO 2 PROYECTO v2_Sketch5
100
AcDbLine
 10
-11.04999994729743
 20
1.799999894895084
 30
0.0
 11
-10.4499998677952
 21
1.799999896886863
 31
0.0
  0
ARC
  5
15E
330
70
100
AcDbEntity
  8
ENSAYO 2 PROYECTO v2_Sketch5
100
AcDbCircle
 10
-11.05000011154825
 20
1.599999941470324
 30
0.0
 40
0.1999999999999937
100
AcDbArc
 50
89.99999999999898
 51
180.0
  0
ARC
  5
15F
330
70
100
AcDbEntity
  8
ENSAYO 2 PROYECTO v2_Sketch5
100
AcDbCircle
 10
-11.04999965591927
 20
10.40000000586462
 30
0.0
 40
0.1999999999999922
100
AcDbArc
 50
180.0000000000015
 51
269.999999999999
  0
ARC
  5
160
330
70
100
AcDbEntity
  8
ENSAYO 2 PROYECTO v2_Sketch5
100
AcDbCircle
 10
-18.35000137370313
 20
1.599999770532687
 30
0.0
 40
0.1999999999999933
100
AcDbArc
 50
89.99999999999898
 51
180.0
  0
LINE
  5
161
330
70
100
AcDbEntity
  8
ENSAYO 2 PROYECTO v2_Sketch5
100
AcDbLine
 10
-10.39999958364864
 20
11.00000000586461
 30
0.0
 11
-10.24999964101811
 21
10.40000000586461
 31
0.0
  0
ARC
  5
162
330
70
100
AcDbEntity
  8
ENSAYO 2 PROYECTO v2_Sketch5
100
AcDbCircle
 10
-11.04999965591927
 20
10.40000000586462
 30
0.0
 40
0.1999999999999922
100
AcDbArc
 50
180.0000000000015
 51
269.999999999999
  0
ARC
  5
163
330
70
100
AcDbEntity
  8
ENSAYO 2 PROYECTO v2_Sketch5
100
AcDbCircle
 10
-10.44999964101811
 20
10.40000000586461
 30
0.0
 40
0.1999999999999939
100
AcDbArc
 50
269.999999999999
 51
0.0
  0
LINE
  5
164
330
70
100
AcDbEntity
  8
ENSAYO 2 PROYECTO v2_Sketch5
100
AcDbLine
 10
-17.70003669089695
 20
11.0000000058646
 30
0.0
 11
-15.19581954223459
 21
10.99999984195182
 31
0.0
  0
LINE
  5
165
330
70
100
AcDbEntity
  8
ENSAYO 2 PROYECTO v2_Sketch5
100
AcDbLine
 10
-22.00000193479374
 20
10.99999984195181
 30
0.0
 11
-18.40003676316759
 21
10.99999967803905
 31
0.0
  0
LINE
  5
166
330
70
100
AcDbEntity
  8
ENSAYO 2 PROYECTO v2_Sketch5
100
AcDbLine
 10
-10.40000009664709
 20
1.000000269295875
 30
0.0
 11
-10.2500000966471
 21
1.599999941470323
 31
0.0
  0
LINE
  5
167
330
70
100
AcDbEntity
  8
ENSAYO 2 PROYECTO v2_Sketch5
100
AcDbLine
 10
-11.09999941986309
 20
11.00000161626423
 30
0.0
 11
-11.24999988673033
 21
10.4000000485161
 31
0.0
  0
LINE
  5
168
330
70
100
AcDbEntity
  8
ENSAYO 2 PROYECTO v2_Sketch5
100
AcDbLine
 10
-18.40000087164145
 20
0.9999981709129743
 30
0.0
 11
-18.55000120801588
 21
1.599999722545522
 31
0.0
  0
ARC
  5
169
330
70
100
AcDbEntity
  8
ENSAYO 2 PROYECTO v2_Sketch5
100
AcDbCircle
 10
-11.04999994586099
 20
1.59999989489509
 30
0.0
 40
0.1999999999999937
100
AcDbArc
 50
90.00000041150782
 51
180.0000004044882
  0
ARC
  5
16A
330
70
100
AcDbEntity
  8
ENSAYO 2 PROYECTO v2_Sketch5
100
AcDbCircle
 10
-18.35000137370313
 20
1.599999770532687
 30
0.0
 40
0.1999999999999933
100
AcDbArc
 50
89.99999999999898
 51
180.0
  0
ARC
  5
16B
330
70
100
AcDbEntity
  8
ENSAYO 2 PROYECTO v2_Sketch5
100
AcDbCircle
 10
-11.04999988673033
 20
10.40000005044808
 30
0.0
 40
0.1999999999999993
100
AcDbArc
 50
180.000000553473
 51
270.0000005612585
  0
LINE
  5
16C
330
70
100
AcDbEntity
  8
ENSAYO 2 PROYECTO v2_Sketch5
100
AcDbLine
 10
-11.05000011154825
 20
1.799999941470318
 30
0.0
 11
-10.45000009664709
 21
1.799999941470322
 31
0.0
  0
LINE
  5
16D
330
70
100
AcDbEntity
  8
ENSAYO 2 PROYECTO v2_Sketch5
100
AcDbLine
 10
-11.09999965591928
 20
10.99999967803906
 30
0.0
 11
-11.24999965591926
 21
10.40000000586462
 31
0.0
  0
ARC
  5
16E
330
70
100
AcDbEntity
  8
ENSAYO 2 PROYECTO v2_Sketch5
100
AcDbCircle
 10
-18.35000137370313
 20
1.599999770532687
 30
0.0
 40
0.1999999999999933
100
AcDbArc
 50
89.99999999999898
 51
180.0
  0
LINE
  5
16F
330
70
100
AcDbEntity
  8
ENSAYO 2 PROYECTO v2_Sketch5
100
AcDbLine
 10
-18.4000014310726
 20
0.9999997705326927
 30
0.0
 11
-18.55000137370313
 21
1.599999770532687
 31
0.0
  0
LINE
  5
170
330
70
100
AcDbEntity
  8
ENSAYO 2 PROYECTO v2_Sketch5
100
AcDbLine
 10
-17.70000135880196
 20
1.000000098358239
 30
0.0
 11
-17.55000135880198
 21
1.599999770532685
 31
0.0
  0
LINE
  5
171
330
70
100
AcDbEntity
  8
ENSAYO 2 PROYECTO v2_Sketch5
100
AcDbLine
 10
-17.70000135880196
 20
1.000000098358239
 30
0.0
 11
-17.55000135880198
 21
1.599999770532685
 31
0.0
  0
LINE
  5
172
330
70
100
AcDbEntity
  8
ENSAYO 2 PROYECTO v2_Sketch5
100
AcDbLine
 10
-11.10000016891772
 20
0.9999999414703292
 30
0.0
 11
-11.25000011154825
 21
1.599999941470324
 31
0.0
  0
LINE
  5
173
330
70
100
AcDbEntity
  8
ENSAYO 2 PROYECTO v2_Sketch5
100
AcDbLine
 10
-10.44999964101811
 20
10.20000000586462
 30
0.0
 11
-11.04999965591927
 21
10.20000000586462
 31
0.0
  0
LINE
  5
174
330
70
100
AcDbEntity
  8
ENSAYO 2 PROYECTO v2_Sketch5
100
AcDbLine
 10
-17.70000159485815
 20
0.9999981601330675
 30
0.0
 11
-17.55000112799091
 21
1.599999727881202
 31
0.0
  0
LINE
  5
175
330
70
100
AcDbEntity
  8
ENSAYO 2 PROYECTO v2_Sketch5
100
AcDbLine
 10
-18.35000137370313
 20
1.79999977053268
 30
0.0
 11
-17.75000135880197
 21
1.799999770532684
 31
0.0
  0
LINE
  5
176
330
70
100
AcDbEntity
  8
ENSAYO 2 PROYECTO v2_Sketch5
100
AcDbLine
 10
-10.40000014307979
 20
11.00000160548433
 30
0.0
 11
-10.24999980670536
 21
10.40000005385178
 31
0.0
  0
ARC
  5
177
330
70
100
AcDbEntity
  8
ENSAYO 2 PROYECTO v2_Sketch5
100
AcDbCircle
 10
-18.35000120801587
 20
1.599999723957452
 30
0.0
 40
0.1999999999999933
100
AcDbArc
 50
90.00000041150782
 51
180.0000004044882
  0
LINE
  5
178
330
70
100
AcDbEntity
  8
ENSAYO 2 PROYECTO v2_Sketch5
100
AcDbLine
 10
-18.4000014310726
 20
0.9999997705326927
 30
0.0
 11
-18.55000137370313
 21
1.599999770532687
 31
0.0
  0
ARC
  5
179
330
70
100
AcDbEntity
  8
ENSAYO 2 PROYECTO v2_Sketch5
100
AcDbCircle
 10
-17.75000112799091
 20
1.599999725949217
 30
0.0
 40
0.1999999999999958
100
AcDbArc
 50
0.0000005534730012
 51
90.00000056125747
  0
LINE
  5
17A
330
70
100
AcDbEntity
  8
ENSAYO 2 PROYECTO v2_Sketch5
100
AcDbLine
 10
-18.35000137370313
 20
1.79999977053268
 30
0.0
 11
-17.75000135880197
 21
1.799999770532684
 31
0.0
  0
LINE
  5
17B
330
70
100
AcDbEntity
  8
ENSAYO 2 PROYECTO v2_Sketch5
100
AcDbLine
 10
-10.44999964101811
 20
10.20000000586462
 30
0.0
 11
-11.04999965591927
 21
10.20000000586462
 31
0.0
  0
LINE
  5
17C
330
70
100
AcDbEntity
  8
ENSAYO 2 PROYECTO v2_Sketch5
100
AcDbLine
 10
-18.4000014310726
 20
0.9999997705326927
 30
0.0
 11
-18.55000137370313
 21
1.599999770532687
 31
0.0
  0
ARC
  5
17D
330
70
100
AcDbEntity
  8
ENSAYO 2 PROYECTO v2_Sketch5
100
AcDbCircle
 10
-10.44999986583603
 20
1.599999896886855
 30
0.0
 40
0.1999999999999993
100
AcDbArc
 50
0.0000005534730012
 51
90.0000005612585
  0
LINE
  5
17E
330
70
100
AcDbEntity
  8
ENSAYO 2 PROYECTO v2_Sketch5
100
AcDbLine
 10
-10.39999958364864
 20
11.00000000586461
 30
0.0
 11
-10.24999964101811
 21
10.40000000586461
 31
0.0
  0
LINE
  5
17F
330
70
100
AcDbEntity
  8
ENSAYO 2 PROYECTO v2_Sketch5
100
AcDbLine
 10
-18.35000137370313
 20
1.79999977053268
 30
0.0
 11
-17.75000135880197
 21
1.799999770532684
 31
0.0
  0
ARC
  5
180
330
70
100
AcDbEntity
  8
ENSAYO 2 PROYECTO v2_Sketch5
100
AcDbCircle
 10
-17.75000135880197
 20
1.59999977053268
 30
0.0
 40
0.1999999999999886
100
AcDbArc
 50
0.0000000000015267
 51
89.99999999999797
  0
ARC
  5
181
330
70
100
AcDbEntity
  8
ENSAYO 2 PROYECTO v2_Sketch5
100
AcDbCircle
 10
-17.75000135880197
 20
1.59999977053268
 30
0.0
 40
0.1999999999999886
100
AcDbArc
 50
0.0000000000015267
 51
89.99999999999797
  0
LINE
  5
182
330
70
100
AcDbEntity
  8
ENSAYO 2 PROYECTO v2_Sketch5
100
AcDbLine
 10
-11.09999965591928
 20
10.99999967803906
 30
0.0
 11
-11.09999965591928
 21
10.99999967803906
 31
0.0
  0
LINE
  5
183
330
70
100
AcDbEntity
  8
ENSAYO 2 PROYECTO v2_Sketch5
100
AcDbLine
 10
-11.05000011154825
 20
1.799999941470318
 30
0.0
 11
-10.45000009664709
 21
1.799999941470322
 31
0.0
  0
LINE
  5
184
330
70
100
AcDbEntity
  8
ENSAYO 2 PROYECTO v2_Sketch5
100
AcDbLine
 10
-17.70000135880196
 20
1.000000098358239
 30
0.0
 11
-17.55000135880198
 21
1.599999770532685
 31
0.0
  0
ARC
  5
185
330
70
100
AcDbEntity
  8
ENSAYO 2 PROYECTO v2_Sketch5
100
AcDbCircle
 10
-10.44999980670537
 20
10.40000005243985
 30
0.0
 40
0.1999999999999939
100
AcDbArc
 50
270.0000004115078
 51
0.0000004044881866
  0
LINE
  5
186
330
70
100
AcDbEntity
  8
ENSAYO 2 PROYECTO v2_Sketch5
100
AcDbLine
 10
-10.44999964101811
 20
10.20000000586462
 30
0.0
 11
-11.04999965591927
 21
10.20000000586462
 31
0.0
  0
LINE
  5
187
330
70
100
AcDbEntity
  8
ENSAYO 2 PROYECTO v2_Sketch5
100
AcDbLine
 10
-10.40000009664709
 20
1.000000269295875
 30
0.0
 11
-10.2500000966471
 21
1.599999941470323
 31
0.0
  0
LINE
  5
188
330
70
100
AcDbEntity
  8
ENSAYO 2 PROYECTO v2_Sketch5
100
AcDbLine
 10
-11.10000016891772
 20
0.9999999414703292
 30
0.0
 11
-11.25000011154825
 21
1.599999941470324
 31
0.0
  0
ARC
  5
189
330
70
100
AcDbEntity
  8
ENSAYO 2 PROYECTO v2_Sketch5
100
AcDbCircle
 10
-17.75000135880197
 20
1.59999977053268
 30
0.0
 40
0.1999999999999886
100
AcDbArc
 50
0.0000000000015267
 51
89.99999999999797
  0
ARC
  5
18A
330
70
100
AcDbEntity
  8
ENSAYO 2 PROYECTO v2_Sketch5
100
AcDbCircle
 10
-10.4500000966471
 20
1.599999941470317
 30
0.0
 40
0.1999999999999922
100
AcDbArc
 50
0.0000000000015267
 51
89.99999999999898
  0
ARC
  5
18B
330
70
100
AcDbEntity
  8
ENSAYO 2 PROYECTO v2_Sketch5
100
AcDbCircle
 10
-10.4500000966471
 20
1.599999941470317
 30
0.0
 40
0.1999999999999922
100
AcDbArc
 50
0.0000000000015267
 51
89.99999999999898
  0
ARC
  5
18C
330
70
100
AcDbEntity
  8
ENSAYO 2 PROYECTO v2_Sketch5
100
AcDbCircle
 10
-11.05000011154825
 20
1.599999941470324
 30
0.0
 40
0.1999999999999937
100
AcDbArc
 50
89.99999999999898
 51
180.0
  0
ARC
  5
18D
330
70
100
AcDbEntity
  8
ENSAYO 2 PROYECTO v2_Sketch5
100
AcDbCircle
 10
-10.44999964101811
 20
10.40000000586461
 30
0.0
 40
0.1999999999999939
100
AcDbArc
 50
269.999999999999
 51
0.0
  0
LINE
  5
18E
330
70
100
AcDbEntity
  8
ENSAYO 2 PROYECTO v2_Sketch5
100
AcDbLine
 10
-18.35000120945231
 20
1.799999723957446
 30
0.0
 11
-17.75000112995007
 21
1.799999725949225
 31
0.0
  0
LINE
  5
18F
330
70
100
AcDbEntity
  8
ENSAYO 2 PROYECTO v2_Sketch5
100
AcDbLine
 10
-10.39999958364864
 20
11.00000000586461
 30
0.0
 11
-10.24999964101811
 21
10.40000000586461
 31
0.0
  0
LINE
  5
190
330
70
100
AcDbEntity
  8
ENSAYO 2 PROYECTO v2_Sketch5
100
AcDbLine
 10
-10.44999980526894
 20
10.20000005243985
 30
0.0
 11
-11.04999988477117
 21
10.20000005044807
 31
0.0
  0
LINE
  5
191
330
70
100
AcDbEntity
  8
ENSAYO 2 PROYECTO v2_Sketch5
100
AcDbLine
 10
-11.09999965591928
 20
10.99999967803906
 30
0.0
 11
-11.24999965591926
 21
10.40000000586462
 31
0.0
  0
ARC
  5
192
330
70
100
AcDbEntity
  8
ENSAYO 2 PROYECTO v2_Sketch5
100
AcDbCircle
 10
-10.4500000966471
 20
1.599999941470317
 30
0.0
 40
0.1999999999999922
100
AcDbArc
 50
0.0000000000015267
 51
89.99999999999898
  0
LINE
  5
193
330
70
100
AcDbEntity
  8
ENSAYO 2 PROYECTO v2_Sketch5
100
AcDbLine
 10
-11.09999965591928
 20
10.99999967803906
 30
0.0
 11
-11.24999965591926
 21
10.40000000586462
 31
0.0
  0
LINE
  5
194
330
70
100
AcDbEntity
  8
ENSAYO 2 PROYECTO v2_Sketch5
100
AcDbLine
 10
-18.05003672703225
 20
6.999995093003585
 30
0.0
 11
-18.05003613813527
 21
6.899990293740303
 31
0.0
  0
LINE
  5
195
330
70
100
AcDbEntity
  8
ENSAYO 2 PROYECTO v2_Sketch5
100
AcDbLine
 10
-11.10000016891772
 20
0.9999999414703292
 30
0.0
 11
-11.25000011154825
 21
1.599999941470324
 31
0.0
  0
LINE
  5
196
330
70
100
AcDbEntity
  8
ENSAYO 2 PROYECTO v2_Sketch5
100
AcDbLine
 10
-11.05000011154825
 20
1.799999941470318
 30
0.0
 11
-10.45000009664709
 21
1.799999941470322
 31
0.0
  0
LINE
  5
197
330
70
100
AcDbEntity
  8
ENSAYO 2 PROYECTO v2_Sketch5
100
AcDbLine
 10
-14.68250748895976
 20
8.834084111678347
 30
0.0
 11
-14.86501498250483
 21
8.668168208455547
 31
0.0
  0
LINE
  5
198
330
70
100
AcDbEntity
  8
ENSAYO 2 PROYECTO v2_Sketch5
100
AcDbLine
 10
-13.39999998819405
 20
7.999999999999993
 30
0.0
 11
-13.76501497528421
 21
7.668168193554392
 31
0.0
  0
LINE
  5
199
330
70
100
AcDbEntity
  8
ENSAYO 2 PROYECTO v2_Sketch5
100
AcDbLine
 10
-14.31749251104024
 20
8.834084111678347
 30
0.0
 11
-14.13498501749517
 21
8.668168208455547
 31
0.0
  0
LINE
  5
19A
330
70
100
AcDbEntity
  8
ENSAYO 2 PROYECTO v2_Sketch5
100
AcDbLine
 10
-14.31749251104025
 20
7.16591588832163
 30
0.0
 11
-14.40612067935726
 21
7.328151759553004
 31
0.0
  0
ARC
  5
19B
330
70
100
AcDbEntity
  8
ENSAYO 2 PROYECTO v2_Sketch5
100
AcDbCircle
 10
-14.55
 20
8.695819164916667
 30
0.0
 40
0.0499999999999962
100
AcDbArc
 50
208.6474295273412
 51
0.0000013416465113
  0
LINE
  5
19C
330
70
100
AcDbEntity
  8
ENSAYO 2 PROYECTO v2_Sketch5
100
AcDbLine
 10
-26.70600002080949
 20
3.216000216513882
 30
0.0
 11
-27.29400003541261
 21
3.216000216513879
 31
0.0
  0
LINE
  5
19D
330
70
100
AcDbEntity
  8
ENSAYO 2 PROYECTO v2_Sketch5
100
AcDbLine
 10
-14.31749272710707
 20
4.834084171799771
 30
0.0
 11
-14.40612089542409
 21
4.671848300568404
 31
0.0
  0
ARC
  5
19E
330
70
100
AcDbEntity
  8
ENSAYO 2 PROYECTO v2_Sketch5
100
AcDbCircle
 10
-14.55000021606683
 20
4.695819225038091
 30
0.0
 40
0.0499999999999962
100
AcDbArc
 50
208.6474295273412
 51
0.0000013416465113
  0
LINE
  5
19F
330
70
100
AcDbEntity
  8
ENSAYO 2 PROYECTO v2_Sketch5
100
AcDbLine
 10
-13.76501519135104
 20
4.331831866567013
 30
0.0
 11
-13.40000020426088
 21
4.000000060121413
 31
0.0
  0
LINE
  5
1A0
330
70
100
AcDbEntity
  8
ENSAYO 2 PROYECTO v2_Sketch5
100
AcDbLine
 10
-26.70600075513861
 20
4.784000170617897
 30
0.0
 11
-27.29400076974148
 21
4.783999619871025
 31
0.0
  0
LINE
  5
1A1
330
70
100
AcDbEntity
  8
ENSAYO 2 PROYECTO v2_Sketch5
100
AcDbLine
 10
-26.65699996458741
 20
4.000000216513873
 30
0.0
 11
-26.51000057155641
 21
4.588000354200275
 31
0.0
  0
LINE
  5
1A2
330
70
100
AcDbEntity
  8
ENSAYO 2 PROYECTO v2_Sketch5
100
AcDbLine
 10
-27.34300003541262
 20
3.999999895244839
 30
0.0
 11
-27.49000003541262
 21
3.41200021651388
 31
0.0
  0
LINE
  5
1A3
330
70
100
AcDbEntity
  8
ENSAYO 2 PROYECTO v2_Sketch5
100
AcDbLine
 10
-14.86501519857167
 20
3.331831851665857
 30
0.0
 11
-14.68250770502659
 21
3.165915948443053
 31
0.0
  0
LINE
  5
1A4
330
70
100
AcDbEntity
  8
ENSAYO 2 PROYECTO v2_Sketch5
100
AcDbLine
 10
-14.86501498250484
 20
7.331831791544435
 30
0.0
 11
-14.68250748895976
 21
7.165915888321632
 31
0.0
  0
ARC
  5
1A5
330
70
100
AcDbEntity
  8
ENSAYO 2 PROYECTO v2_Sketch5
100
AcDbCircle
 10
-27.29400003541261
 20
3.412000216513884
 30
0.0
 40
0.196000000000005
100
AcDbArc
 50
180.000000000001
 51
269.999999999999
  0
LINE
  5
1A6
330
70
100
AcDbEntity
  8
ENSAYO 2 PROYECTO v2_Sketch5
100
AcDbLine
 10
-13.76501497528421
 20
8.331831806445592
 30
0.0
 11
-13.39999998819405
 21
7.999999999999993
 31
0.0
  0
LINE
  5
1A7
330
70
100
AcDbEntity
  8
ENSAYO 2 PROYECTO v2_Sketch5
100
AcDbLine
 10
-14.31749272710707
 20
4.834084171799771
 30
0.0
 11
-14.134985233562
 21
4.668168268576971
 31
0.0
  0
LINE
  5
1A8
330
70
100
AcDbEntity
  8
ENSAYO 2 PROYECTO v2_Sketch5
100
AcDbLine
 10
-27.34300003541262
 20
3.999999895244839
 30
0.0
 11
-27.49000058615911
 21
4.587999436288825
 31
0.0
  0
LINE
  5
1A9
330
70
100
AcDbEntity
  8
ENSAYO 2 PROYECTO v2_Sketch5
100
AcDbLine
 10
-26.65699996458741
 20
4.000000216513873
 30
0.0
 11
-26.51000002080949
 21
3.412000216513876
 31
0.0
  0
LINE
  5
1AA
330
70
100
AcDbEntity
  8
ENSAYO 2 PROYECTO v2_Sketch5
100
AcDbLine
 10
-27.34300003541262
 20
3.999999895244839
 30
0.0
 11
-27.49000058615911
 21
4.587999436288825
 31
0.0
  0
ARC
  5
1AB
330
70
100
AcDbEntity
  8
ENSAYO 2 PROYECTO v2_Sketch5
100
AcDbCircle
 10
-26.70600057155632
 20
4.588000170617991
 30
0.0
 40
0.1959999999999986
100
AcDbArc
 50
0.000053665765528
 51
90.00005366576761
  0
ARC
  5
1AC
330
70
100
AcDbEntity
  8
ENSAYO 2 PROYECTO v2_Sketch5
100
AcDbCircle
 10
-26.70600002080949
 20
3.412000216513876
 30
0.0
 40
0.1959999999999944
100
AcDbArc
 50
269.999999999999
 51
0.0
  0
LINE
  5
1AD
330
70
100
AcDbEntity
  8
ENSAYO 2 PROYECTO v2_Sketch5
100
AcDbLine
 10
-14.68250748895976
 20
7.165915888321632
 30
0.0
 11
-14.59387932064274
 21
7.328151759553002
 31
0.0
  0
LINE
  5
1AE
330
70
100
AcDbEntity
  8
ENSAYO 2 PROYECTO v2_Sketch5
100
AcDbLine
 10
-26.70600002080949
 20
3.216000216513882
 30
0.0
 11
-27.29400003541261
 21
3.216000216513879
 31
0.0
  0
ARC
  5
1AF
330
70
100
AcDbEntity
  8
ENSAYO 2 PROYECTO v2_Sketch5
100
AcDbCircle
 10
-27.29400058615919
 20
4.587999619871109
 30
0.0
 40
0.1960000000000022
100
AcDbArc
 50
90.00005366576864
 51
180.0000536657655
  0
LINE
  5
1B0
330
70
100
AcDbEntity
  8
ENSAYO 2 PROYECTO v2_Sketch5
100
AcDbLine
 10
-13.80418120845385
 20
10.99999984195183
 30
0.0
 11
-11.09999965591928
 21
10.99999967803906
 31
0.0
  0
LINE
  5
1B1
330
70
100
AcDbEntity
  8
ENSAYO 2 PROYECTO v2_Sketch5
100
AcDbLine
 10
-13.40000020426088
 20
4.000000060121413
 30
0.0
 11
-13.76501519135104
 21
3.668168253675814
 31
0.0
  0
LINE
  5
1B2
330
70
100
AcDbEntity
  8
ENSAYO 2 PROYECTO v2_Sketch5
100
AcDbLine
 10
-27.34300003541262
 20
3.999999895244839
 30
0.0
 11
-27.49000003541262
 21
3.41200021651388
 31
0.0
  0
LINE
  5
1B3
330
70
100
AcDbEntity
  8
ENSAYO 2 PROYECTO v2_Sketch5
100
AcDbLine
 10
-11.10000016891772
 20
0.9999999414703292
 30
0.0
 11
-13.80418103667589
 21
1.000000033866067
 31
0.0
  0
LINE
  5
1B4
330
70
100
AcDbEntity
  8
ENSAYO 2 PROYECTO v2_Sketch5
100
AcDbLine
 10
-10.39999958364864
 20
11.00000000586461
 30
0.0
 11
-7.000001934793739
 21
10.99999984195184
 31
0.0
  0
LINE
  5
1B5
330
70
100
AcDbEntity
  8
ENSAYO 2 PROYECTO v2_Sketch5
100
AcDbLine
 10
-14.68250770502659
 20
4.834084171799771
 30
0.0
 11
-14.59387953670957
 21
4.671848300568404
 31
0.0
  0
ARC
  5
1B6
330
70
100
AcDbEntity
  8
ENSAYO 2 PROYECTO v2_Sketch5
100
AcDbCircle
 10
-15.05000000361032
 20
7.499999992549416
 30
0.0
 40
0.2500000037252854
100
AcDbArc
 50
137.7263109939069
 51
317.7263109939069
  0
LINE
  5
1B7
330
70
100
AcDbEntity
  8
ENSAYO 2 PROYECTO v2_Sketch5
100
AcDbLine
 10
-15.23498524078263
 20
4.331831866567016
 30
0.0
 11
-15.60000022787279
 21
4.000000060121417
 31
0.0
  0
ARC
  5
1B8
330
70
100
AcDbEntity
  8
ENSAYO 2 PROYECTO v2_Sketch5
100
AcDbCircle
 10
-14.55
 20
7.304180835083319
 30
0.0
 40
0.0499999999999972
100
AcDbArc
 50
359.9999986583535
 51
151.3525704726633
  0
ARC
  5
1B9
330
70
100
AcDbEntity
  8
ENSAYO 2 PROYECTO v2_Sketch5
100
AcDbCircle
 10
-26.70600057155632
 20
4.588000170617991
 30
0.0
 40
0.1959999999999986
100
AcDbArc
 50
0.000053665765528
 51
90.00005366576761
  0
ARC
  5
1BA
330
70
100
AcDbEntity
  8
ENSAYO 2 PROYECTO v2_Sketch5
100
AcDbCircle
 10
-13.94999999638969
 20
8.500000007450566
 30
0.0
 40
0.250000003725288
100
AcDbArc
 50
317.7263109939075
 51
137.7263109939075
  0
LINE
  5
1BB
330
70
100
AcDbEntity
  8
ENSAYO 2 PROYECTO v2_Sketch5
100
AcDbLine
 10
-18.4000014310726
 20
0.9999997705326927
 30
0.0
 11
-22.00000193479374
 21
0.9999998419518171
 31
0.0
  0
ARC
  5
1BC
330
70
100
AcDbEntity
  8
ENSAYO 2 PROYECTO v2_Sketch5
100
AcDbCircle
 10
-15.05000021967715
 20
4.500000067571994
 30
0.0
 40
0.250000003725293
100
AcDbArc
 50
42.27368900609259
 51
222.2736890060926
  0
ARC
  5
1BD
330
70
100
AcDbEntity
  8
ENSAYO 2 PROYECTO v2_Sketch5
100
AcDbCircle
 10
-27.29400003541261
 20
3.412000216513884
 30
0.0
 40
0.196000000000005
100
AcDbArc
 50
180.000000000001
 51
269.999999999999
  0
LINE
  5
1BE
330
70
100
AcDbEntity
  8
ENSAYO 2 PROYECTO v2_Sketch5
100
AcDbLine
 10
-14.31749251104024
 20
8.834084111678347
 30
0.0
 11
-14.40612067935726
 21
8.67184824044698
 31
0.0
  0
LINE
  5
1BF
330
70
100
AcDbEntity
  8
ENSAYO 2 PROYECTO v2_Sketch5
100
AcDbLine
 10
-15.60000001180595
 20
7.999999999999993
 30
0.0
 11
-15.23498502471579
 21
7.66816819355439
 31
0.0
  0
ARC
  5
1C0
330
70
100
AcDbEntity
  8
ENSAYO 2 PROYECTO v2_Sketch5
100
AcDbCircle
 10
-27.29400058615919
 20
4.587999619871109
 30
0.0
 40
0.1960000000000022
100
AcDbArc
 50
90.00005366576864
 51
180.0000536657655
  0
LINE
  5
1C1
330
70
100
AcDbEntity
  8
ENSAYO 2 PROYECTO v2_Sketch5
100
AcDbLine
 10
-26.70600075513861
 20
4.784000170617897
 30
0.0
 11
-27.29400076974148
 21
4.783999619871025
 31
0.0
  0
ARC
  5
1C2
330
70
100
AcDbEntity
  8
ENSAYO 2 PROYECTO v2_Sketch5
100
AcDbCircle
 10
-13.95000021245652
 20
3.500000052670833
 30
0.0
 40
0.2500000037252877
100
AcDbArc
 50
222.2736890060937
 51
42.27368900609368
  0
ARC
  5
1C3
330
70
100
AcDbEntity
  8
ENSAYO 2 PROYECTO v2_Sketch5
100
AcDbCircle
 10
-15.05000021967715
 20
3.500000052670838
 30
0.0
 40
0.2500000037252866
100
AcDbArc
 50
137.7263109939066
 51
317.7263097864884
  0
LINE
  5
1C4
330
70
100
AcDbEntity
  8
ENSAYO 2 PROYECTO v2_Sketch5
100
AcDbLine
 10
-15.60000022787279
 20
4.000000060121417
 30
0.0
 11
-15.23498524078263
 21
3.668168253675814
 31
0.0
  0
ARC
  5
1C5
330
70
100
AcDbEntity
  8
ENSAYO 2 PROYECTO v2_Sketch5
100
AcDbCircle
 10
-13.95000021245652
 20
4.50000006757199
 30
0.0
 40
0.2500000037252903
100
AcDbArc
 50
317.7263109939068
 51
137.7263109939069
  0
LINE
  5
1C6
330
70
100
AcDbEntity
  8
ENSAYO 2 PROYECTO v2_Sketch5
100
AcDbLine
 10
-26.65699996458741
 20
4.000000216513873
 30
0.0
 11
-26.51000057155641
 21
4.588000354200275
 31
0.0
  0
ARC
  5
1C7
330
70
100
AcDbEntity
  8
ENSAYO 2 PROYECTO v2_Sketch5
100
AcDbCircle
 10
-14.55000021606683
 20
3.304180895204742
 30
0.0
 40
0.0499999999999972
100
AcDbArc
 50
359.9999986583535
 51
151.3525704726633
  0
LINE
  5
1C8
330
70
100
AcDbEntity
  8
ENSAYO 2 PROYECTO v2_Sketch5
100
AcDbLine
 10
-14.68250770502659
 20
4.834084171799771
 30
0.0
 11
-14.86501519857167
 21
4.668168268576971
 31
0.0
  0
LINE
  5
1C9
330
70
100
AcDbEntity
  8
ENSAYO 2 PROYECTO v2_Sketch5
100
AcDbLine
 10
-14.13498501749517
 20
7.331831791544433
 30
0.0
 11
-14.31749251104025
 21
7.16591588832163
 31
0.0
  0
ARC
  5
1CA
330
70
100
AcDbEntity
  8
ENSAYO 2 PROYECTO v2_Sketch5
100
AcDbCircle
 10
-13.94999999638969
 20
7.499999992549411
 30
0.0
 40
0.2500000037252851
100
AcDbArc
 50
222.2736890060942
 51
42.27368900609422
  0
ARC
  5
1CB
330
70
100
AcDbEntity
  8
ENSAYO 2 PROYECTO v2_Sketch5
100
AcDbCircle
 10
-14.45000000000001
 20
7.304180835083321
 30
0.0
 40
0.0500000000000007
100
AcDbArc
 50
28.64742952733375
 51
180.0000013416485
  0
LINE
  5
1CC
330
70
100
AcDbEntity
  8
ENSAYO 2 PROYECTO v2_Sketch5
100
AcDbLine
 10
-6.999996891322775
 20
1.000000193193597
 30
0.0
 11
-10.40000009664709
 21
1.000000269295875
 31
0.0
  0
LINE
  5
1CD
330
70
100
AcDbEntity
  8
ENSAYO 2 PROYECTO v2_Sketch5
100
AcDbLine
 10
-15.23498502471579
 20
8.331831806445592
 30
0.0
 11
-15.60000001180595
 21
7.999999999999993
 31
0.0
  0
ARC
  5
1CE
330
70
100
AcDbEntity
  8
ENSAYO 2 PROYECTO v2_Sketch5
100
AcDbCircle
 10
-14.45
 20
8.695819164916667
 30
0.0
 40
0.0500000000000007
100
AcDbArc
 50
179.9999986583535
 51
331.352570472659
  0
LINE
  5
1CF
330
70
100
AcDbEntity
  8
ENSAYO 2 PROYECTO v2_Sketch5
100
AcDbLine
 10
-14.134985233562
 20
3.331831851665855
 30
0.0
 11
-14.31749272710708
 21
3.165915948443052
 31
0.0
  0
ARC
  5
1D0
330
70
100
AcDbEntity
  8
ENSAYO 2 PROYECTO v2_Sketch5
100
AcDbCircle
 10
-14.45000021606684
 20
3.304180895204742
 30
0.0
 40
0.0500000000000007
100
AcDbArc
 50
28.64742952733375
 51
180.000001341646
  0
LINE
  5
1D1
330
70
100
AcDbEntity
  8
ENSAYO 2 PROYECTO v2_Sketch5
100
AcDbLine
 10
-14.68250748895976
 20
8.834084111678347
 30
0.0
 11
-14.59387932064274
 21
8.67184824044698
 31
0.0
  0
ARC
  5
1D2
330
70
100
AcDbEntity
  8
ENSAYO 2 PROYECTO v2_Sketch5
100
AcDbCircle
 10
-14.45000021606683
 20
4.695819225038091
 30
0.0
 40
0.0500000000000043
100
AcDbArc
 50
179.9999986583535
 51
331.3525704726591
  0
LINE
  5
1D3
330
70
100
AcDbEntity
  8
ENSAYO 2 PROYECTO v2_Sketch5
100
AcDbLine
 10
-14.68250770502659
 20
3.165915948443053
 30
0.0
 11
-14.59387953670957
 21
3.328151819674426
 31
0.0
  0
LINE
  5
1D4
330
70
100
AcDbEntity
  8
ENSAYO 2 PROYECTO v2_Sketch5
100
AcDbLine
 10
-15.19581939487023
 20
1.00000000127931
 30
0.0
 11
-17.70000135880196
 21
1.000000098358239
 31
0.0
  0
LINE
  5
1D5
330
70
100
AcDbEntity
  8
ENSAYO 2 PROYECTO v2_Sketch5
100
AcDbLine
 10
-14.31749272710708
 20
3.165915948443052
 30
0.0
 11
-14.40612089542409
 21
3.328151819674426
 31
0.0
  0
ARC
  5
1D6
330
70
100
AcDbEntity
  8
ENSAYO 2 PROYECTO v2_Sketch5
100
AcDbCircle
 10
-15.05000000361032
 20
8.500000007450569
 30
0.0
 40
0.250000003725293
100
AcDbArc
 50
42.27368900609259
 51
222.2736890060926
  0
LINE
  5
1D7
330
70
100
AcDbEntity
  8
ENSAYO 2 PROYECTO v2_Sketch5
100
AcDbLine
 10
-19.27767846750441
 20
5.215999288294127
 30
0.0
 11
-19.86567848210754
 21
5.215999288294122
 31
0.0
  0
LINE
  5
1D8
330
70
100
AcDbEntity
  8
ENSAYO 2 PROYECTO v2_Sketch5
100
AcDbLine
 10
-9.100000135600568
 20
6.000000089406967
 30
0.0
 11
-8.953000191822653
 21
5.412000089406969
 31
0.0
  0
ARC
  5
1D9
330
70
100
AcDbEntity
  8
ENSAYO 2 PROYECTO v2_Sketch5
100
AcDbCircle
 10
-19.86567848210754
 20
5.411999288294127
 30
0.0
 40
0.196000000000005
100
AcDbArc
 50
180.000000000001
 51
269.999999999999
  0
LINE
  5
1DA
330
70
100
AcDbEntity
  8
ENSAYO 2 PROYECTO v2_Sketch5
100
AcDbLine
 10
-26.70600002080949
 20
7.216000279843818
 30
0.0
 11
-27.29400003541261
 21
7.216000279843814
 31
0.0
  0
ARC
  5
1DB
330
70
100
AcDbEntity
  8
ENSAYO 2 PROYECTO v2_Sketch5
100
AcDbCircle
 10
-27.29400003541261
 20
7.41200027984382
 30
0.0
 40
0.196000000000005
100
AcDbArc
 50
180.000000000001
 51
269.999999999999
  0
LINE
  5
1DC
330
70
100
AcDbEntity
  8
ENSAYO 2 PROYECTO v2_Sketch5
100
AcDbLine
 10
-9.100000135600568
 20
6.000000089406967
 30
0.0
 11
-8.953000742569571
 21
6.588000227093363
 31
0.0
  0
LINE
  5
1DD
330
70
100
AcDbEntity
  8
ENSAYO 2 PROYECTO v2_Sketch5
100
AcDbLine
 10
-19.91467848210755
 20
5.999998967025085
 30
0.0
 11
-20.06167903285404
 21
6.587998508069067
 31
0.0
  0
ARC
  5
1DE
330
70
100
AcDbEntity
  8
ENSAYO 2 PROYECTO v2_Sketch5
100
AcDbCircle
 10
-9.737000206425774
 20
5.412000089406975
 30
0.0
 40
0.196000000000005
100
AcDbArc
 50
180.000000000001
 51
269.999999999999
  0
ARC
  5
1DF
330
70
100
AcDbEntity
  8
ENSAYO 2 PROYECTO v2_Sketch5
100
AcDbCircle
 10
-19.86567848210754
 20
5.411999288294127
 30
0.0
 40
0.196000000000005
100
AcDbArc
 50
180.000000000001
 51
269.999999999999
  0
LINE
  5
1E0
330
70
100
AcDbEntity
  8
ENSAYO 2 PROYECTO v2_Sketch5
100
AcDbLine
 10
-26.65699996458741
 20
8.000000279843808
 30
0.0
 11
-26.51000002080949
 21
7.412000279843812
 31
0.0
  0
LINE
  5
1E1
330
70
100
AcDbEntity
  8
ENSAYO 2 PROYECTO v2_Sketch5
100
AcDbLine
 10
-19.27767920183354
 20
6.78399924239814
 30
0.0
 11
-19.86567921643641
 21
6.783998691651267
 31
0.0
  0
LINE
  5
1E2
330
70
100
AcDbEntity
  8
ENSAYO 2 PROYECTO v2_Sketch5
100
AcDbLine
 10
-26.70600075513861
 20
8.78400023394783
 30
0.0
 11
-27.29400076974148
 21
8.783999683200958
 31
0.0
  0
ARC
  5
1E3
330
70
100
AcDbEntity
  8
ENSAYO 2 PROYECTO v2_Sketch5
100
AcDbCircle
 10
-9.149000742569485
 20
6.58800004351108
 30
0.0
 40
0.1960000000000004
100
AcDbArc
 50
0.000053665765528
 51
90.00005366576656
  0
LINE
  5
1E4
330
70
100
AcDbEntity
  8
ENSAYO 2 PROYECTO v2_Sketch5
100
AcDbLine
 10
-9.149000191822649
 20
5.216000089406975
 30
0.0
 11
-9.737000206425777
 21
5.21600008940697
 31
0.0
  0
ARC
  5
1E5
330
70
100
AcDbEntity
  8
ENSAYO 2 PROYECTO v2_Sketch5
100
AcDbCircle
 10
-26.70600002080949
 20
7.412000279843812
 30
0.0
 40
0.1959999999999944
100
AcDbArc
 50
269.999999999999
 51
0.0
  0
LINE
  5
1E6
330
70
100
AcDbEntity
  8
ENSAYO 2 PROYECTO v2_Sketch5
100
AcDbLine
 10
-26.70600075513861
 20
8.78400023394783
 30
0.0
 11
-27.29400076974148
 21
8.783999683200958
 31
0.0
  0
LINE
  5
1E7
330
70
100
AcDbEntity
  8
ENSAYO 2 PROYECTO v2_Sketch5
100
AcDbLine
 10
-26.65699996458741
 20
8.000000279843808
 30
0.0
 11
-26.51000057155641
 21
8.58800041753021
 31
0.0
  0
ARC
  5
1E8
330
70
100
AcDbEntity
  8
ENSAYO 2 PROYECTO v2_Sketch5
100
AcDbCircle
 10
-27.29400003541261
 20
7.41200027984382
 30
0.0
 40
0.196000000000005
100
AcDbArc
 50
180.000000000001
 51
269.999999999999
  0
LINE
  5
1E9
330
70
100
AcDbEntity
  8
ENSAYO 2 PROYECTO v2_Sketch5
100
AcDbLine
 10
-19.22867841128233
 20
5.99999928829412
 30
0.0
 11
-19.08167901825133
 21
6.587999425980518
 31
0.0
  0
LINE
  5
1EA
330
70
100
AcDbEntity
  8
ENSAYO 2 PROYECTO v2_Sketch5
100
AcDbLine
 10
-9.100000135600568
 20
6.000000089406967
 30
0.0
 11
-8.953000191822653
 21
5.412000089406969
 31
0.0
  0
LINE
  5
1EB
330
70
100
AcDbEntity
  8
ENSAYO 2 PROYECTO v2_Sketch5
100
AcDbLine
 10
-9.149000926151773
 20
6.784000043510985
 30
0.0
 11
-9.737000940754645
 21
6.783999492764113
 31
0.0
  0
LINE
  5
1EC
330
70
100
AcDbEntity
  8
ENSAYO 2 PROYECTO v2_Sketch5
100
AcDbLine
 10
-9.78600020642578
 20
5.999999768137932
 30
0.0
 11
-9.933000757172271
 21
6.587999309181913
 31
0.0
  0
LINE
  5
1ED
330
70
100
AcDbEntity
  8
ENSAYO 2 PROYECTO v2_Sketch5
100
AcDbLine
 10
-19.22867841128233
 20
5.99999928829412
 30
0.0
 11
-19.08167901825133
 21
6.587999425980518
 31
0.0
  0
LINE
  5
1EE
330
70
100
AcDbEntity
  8
ENSAYO 2 PROYECTO v2_Sketch5
100
AcDbLine
 10
-9.78600020642578
 20
5.999999768137932
 30
0.0
 11
-9.933000757172271
 21
6.587999309181913
 31
0.0
  0
LINE
  5
1EF
330
70
100
AcDbEntity
  8
ENSAYO 2 PROYECTO v2_Sketch5
100
AcDbLine
 10
-27.34300003541262
 20
7.999999958574774
 30
0.0
 11
-27.49000058615911
 21
8.58799949961876
 31
0.0
  0
LINE
  5
1F0
330
70
100
AcDbEntity
  8
ENSAYO 2 PROYECTO v2_Sketch5
100
AcDbLine
 10
-27.34300003541262
 20
7.999999958574774
 30
0.0
 11
-27.49000003541262
 21
7.412000279843816
 31
0.0
  0
ARC
  5
1F1
330
70
100
AcDbEntity
  8
ENSAYO 2 PROYECTO v2_Sketch5
100
AcDbCircle
 10
-9.149000191822649
 20
5.412000089406969
 30
0.0
 40
0.1959999999999944
100
AcDbArc
 50
270.0
 51
0.0
  0
ARC
  5
1F2
330
70
100
AcDbEntity
  8
ENSAYO 2 PROYECTO v2_Sketch5
100
AcDbCircle
 10
-26.70600002080949
 20
7.412000279843812
 30
0.0
 40
0.1959999999999944
100
AcDbArc
 50
269.999999999999
 51
0.0
  0
LINE
  5
1F3
330
70
100
AcDbEntity
  8
ENSAYO 2 PROYECTO v2_Sketch5
100
AcDbLine
 10
-26.70600002080949
 20
7.216000279843818
 30
0.0
 11
-27.29400003541261
 21
7.216000279843814
 31
0.0
  0
LINE
  5
1F4
330
70
100
AcDbEntity
  8
ENSAYO 2 PROYECTO v2_Sketch5
100
AcDbLine
 10
-19.27767920183354
 20
6.78399924239814
 30
0.0
 11
-19.86567921643641
 21
6.783998691651267
 31
0.0
  0
ARC
  5
1F5
330
70
100
AcDbEntity
  8
ENSAYO 2 PROYECTO v2_Sketch5
100
AcDbCircle
 10
-19.86567903285411
 20
6.587998691651351
 30
0.0
 40
0.1960000000000022
100
AcDbArc
 50
90.00005366576864
 51
180.0000536657655
  0
LINE
  5
1F6
330
70
100
AcDbEntity
  8
ENSAYO 2 PROYECTO v2_Sketch5
100
AcDbLine
 10
-9.149000191822649
 20
5.216000089406975
 30
0.0
 11
-9.737000206425777
 21
5.21600008940697
 31
0.0
  0
LINE
  5
1F7
330
70
100
AcDbEntity
  8
ENSAYO 2 PROYECTO v2_Sketch5
100
AcDbLine
 10
-9.78600020642578
 20
5.999999768137932
 30
0.0
 11
-9.933000206425779
 21
5.412000089406971
 31
0.0
  0
ARC
  5
1F8
330
70
100
AcDbEntity
  8
ENSAYO 2 PROYECTO v2_Sketch5
100
AcDbCircle
 10
-19.27767901825125
 20
6.587999242398234
 30
0.0
 40
0.1960000000000022
100
AcDbArc
 50
0.000053665765528
 51
90.00005366576656
  0
ARC
  5
1F9
330
70
100
AcDbEntity
  8
ENSAYO 2 PROYECTO v2_Sketch5
100
AcDbCircle
 10
-26.70600057155632
 20
8.588000233947926
 30
0.0
 40
0.1959999999999986
100
AcDbArc
 50
0.000053665765528
 51
90.00005366576761
  0
LINE
  5
1FA
330
70
100
AcDbEntity
  8
ENSAYO 2 PROYECTO v2_Sketch5
100
AcDbLine
 10
-19.91467848210755
 20
5.999998967025085
 30
0.0
 11
-20.06167903285404
 21
6.587998508069067
 31
0.0
  0
LINE
  5
1FB
330
70
100
AcDbEntity
  8
ENSAYO 2 PROYECTO v2_Sketch5
100
AcDbLine
 10
-26.65699996458741
 20
8.000000279843808
 30
0.0
 11
-26.51000057155641
 21
8.58800041753021
 31
0.0
  0
LINE
  5
1FC
330
70
100
AcDbEntity
  8
ENSAYO 2 PROYECTO v2_Sketch5
100
AcDbLine
 10
-19.22867841128233
 20
5.99999928829412
 30
0.0
 11
-19.08167846750442
 21
5.411999288294121
 31
0.0
  0
ARC
  5
1FD
330
70
100
AcDbEntity
  8
ENSAYO 2 PROYECTO v2_Sketch5
100
AcDbCircle
 10
-9.737000206425774
 20
5.412000089406975
 30
0.0
 40
0.196000000000005
100
AcDbArc
 50
180.000000000001
 51
269.999999999999
  0
ARC
  5
1FE
330
70
100
AcDbEntity
  8
ENSAYO 2 PROYECTO v2_Sketch5
100
AcDbCircle
 10
-9.737000757172351
 20
6.587999492764197
 30
0.0
 40
0.1960000000000022
100
AcDbArc
 50
90.00005366576864
 51
180.0000536657655
  0
LINE
  5
1FF
330
70
100
AcDbEntity
  8
ENSAYO 2 PROYECTO v2_Sketch5
100
AcDbLine
 10
-9.78600020642578
 20
5.999999768137932
 30
0.0
 11
-9.933000206425779
 21
5.412000089406971
 31
0.0
  0
LINE
  5
200
330
70
100
AcDbEntity
  8
ENSAYO 2 PROYECTO v2_Sketch5
100
AcDbLine
 10
-26.65699996458741
 20
8.000000279843808
 30
0.0
 11
-26.51000002080949
 21
7.412000279843812
 31
0.0
  0
ARC
  5
201
330
70
100
AcDbEntity
  8
ENSAYO 2 PROYECTO v2_Sketch5
100
AcDbCircle
 10
-19.27767846750441
 20
5.411999288294121
 30
0.0
 40
0.1959999999999944
100
AcDbArc
 50
270.0
 51
0.0
  0
LINE
  5
202
330
70
100
AcDbEntity
  8
ENSAYO 2 PROYECTO v2_Sketch5
100
AcDbLine
 10
-19.27767846750441
 20
5.215999288294127
 30
0.0
 11
-19.86567848210754
 21
5.215999288294122
 31
0.0
  0
LINE
  5
203
330
70
100
AcDbEntity
  8
ENSAYO 2 PROYECTO v2_Sketch5
100
AcDbLine
 10
-19.22867742568991
 20
5.999995345922947
 30
0.0
 11
-19.08167846750442
 21
5.411999288294121
 31
0.0
  0
ARC
  5
204
330
70
100
AcDbEntity
  8
ENSAYO 2 PROYECTO v2_Sketch5
100
AcDbCircle
 10
-19.86567903285411
 20
6.587998691651351
 30
0.0
 40
0.1960000000000022
100
AcDbArc
 50
90.00005366576864
 51
180.0000536657655
  0
ARC
  5
205
330
70
100
AcDbEntity
  8
ENSAYO 2 PROYECTO v2_Sketch5
100
AcDbCircle
 10
-19.27767901825125
 20
6.587999242398234
 30
0.0
 40
0.1960000000000022
100
AcDbArc
 50
0.000053665765528
 51
90.00005366576656
  0
ARC
  5
206
330
70
100
AcDbEntity
  8
ENSAYO 2 PROYECTO v2_Sketch5
100
AcDbCircle
 10
-9.149000742569485
 20
6.58800004351108
 30
0.0
 40
0.1960000000000004
100
AcDbArc
 50
0.000053665765528
 51
90.00005366576656
  0
ARC
  5
207
330
70
100
AcDbEntity
  8
ENSAYO 2 PROYECTO v2_Sketch5
100
AcDbCircle
 10
-26.70600002080949
 20
3.412000216513876
 30
0.0
 40
0.1959999999999944
100
AcDbArc
 50
269.999999999999
 51
0.0
  0
LINE
  5
208
330
70
100
AcDbEntity
  8
ENSAYO 2 PROYECTO v2_Sketch5
100
AcDbLine
 10
-9.149000926151773
 20
6.784000043510985
 30
0.0
 11
-9.737000940754645
 21
6.783999492764113
 31
0.0
  0
ARC
  5
209
330
70
100
AcDbEntity
  8
ENSAYO 2 PROYECTO v2_Sketch5
100
AcDbCircle
 10
-9.737000757172351
 20
6.587999492764197
 30
0.0
 40
0.1960000000000022
100
AcDbArc
 50
90.00005366576864
 51
180.0000536657655
  0
LINE
  5
20A
330
70
100
AcDbEntity
  8
ENSAYO 2 PROYECTO v2_Sketch5
100
AcDbLine
 10
-9.100000135600568
 20
6.000000089406967
 30
0.0
 11
-8.953000742569571
 21
6.588000227093363
 31
0.0
  0
LINE
  5
20B
330
70
100
AcDbEntity
  8
ENSAYO 2 PROYECTO v2_Sketch5
100
AcDbLine
 10
-27.34300003541262
 20
7.999999958574774
 30
0.0
 11
-27.49000003541262
 21
7.412000279843816
 31
0.0
  0
ARC
  5
20C
330
70
100
AcDbEntity
  8
ENSAYO 2 PROYECTO v2_Sketch5
100
AcDbCircle
 10
-19.27767846750441
 20
5.411999288294121
 30
0.0
 40
0.1959999999999944
100
AcDbArc
 50
270.0
 51
0.0
  0
ARC
  5
20D
330
70
100
AcDbEntity
  8
ENSAYO 2 PROYECTO v2_Sketch5
100
AcDbCircle
 10
-27.29400058615919
 20
8.587999683201044
 30
0.0
 40
0.1960000000000004
100
AcDbArc
 50
90.00005366576864
 51
180.0000536657655
  0
LINE
  5
20E
330
70
100
AcDbEntity
  8
ENSAYO 2 PROYECTO v2_Sketch5
100
AcDbLine
 10
-19.91467848210755
 20
5.999998967025085
 30
0.0
 11
-20.06167848210755
 21
5.411999288294124
 31
0.0
  0
LINE
  5
20F
330
70
100
AcDbEntity
  8
ENSAYO 2 PROYECTO v2_Sketch5
100
AcDbLine
 10
-27.34300003541262
 20
7.999999958574774
 30
0.0
 11
-27.49000058615911
 21
8.58799949961876
 31
0.0
  0
ARC
  5
210
330
70
100
AcDbEntity
  8
ENSAYO 2 PROYECTO v2_Sketch5
100
AcDbCircle
 10
-26.70600057155632
 20
8.588000233947926
 30
0.0
 40
0.1959999999999986
100
AcDbArc
 50
0.000053665765528
 51
90.00005366576761
  0
ARC
  5
211
330
70
100
AcDbEntity
  8
ENSAYO 2 PROYECTO v2_Sketch5
100
AcDbCircle
 10
-27.29400058615919
 20
8.587999683201044
 30
0.0
 40
0.1960000000000004
100
AcDbArc
 50
90.00005366576864
 51
180.0000536657655
  0
LINE
  5
212
330
70
100
AcDbEntity
  8
ENSAYO 2 PROYECTO v2_Sketch5
100
AcDbLine
 10
-19.91467848210755
 20
5.999998967025085
 30
0.0
 11
-20.06167848210755
 21
5.411999288294124
 31
0.0
  0
ARC
  5
213
330
70
100
AcDbEntity
  8
ENSAYO 2 PROYECTO v2_Sketch5
100
AcDbCircle
 10
-9.149000191822649
 20
5.412000089406969
 30
0.0
 40
0.1959999999999944
100
AcDbArc
 50
270.0
 51
0.0
  0
ENDSEC
  0
SECTION
  2
OBJECTS
  0
DICTIONARY
  5
C
330
0
100
AcDbDictionary
281
     1
  3
ACAD_COLOR
350
63
  3
ACAD_DETAILVIEWSTYLE
350
6A
  3
ACAD_GROUP
350
D
  3
ACAD_LAYOUT
350
62
  3
ACAD_MATERIAL
350
10
  3
ACAD_MLEADERSTYLE
350
66
  3
ACAD_MLINESTYLE
350
5F
  3
ACAD_PLOTSETTINGS
350
61
  3
ACAD_PLOTSTYLENAME
350
E
  3
ACAD_SCALELIST
350
42
  3
ACAD_SECTIONVIEWSTYLE
350
68
  3
ACAD_TABLESTYLE
350
64
  3
ACAD_VISUALSTYLE
350
29
  3
ACDB_RECOMPOSE_DATA
350
21C
  3
AcDbVariableDictionary
350
214
  0
DICTIONARY
  5
63
102
{ACAD_REACTORS
330
C
102
}
330
C
100
AcDbDictionary
281
     1
  0
DICTIONARY
  5
6A
102
{ACAD_REACTORS
330
C
102
}
330
C
100
AcDbDictionary
281
     1
  3
Imperial24
350
6B
  0
DICTIONARY
  5
D
102
{ACAD_REACTORS
330
C
102
}
330
C
100
AcDbDictionary
281
     1
  0
DICTIONARY
  5
62
102
{ACAD_REACTORS
330
C
102
}
330
C
100
AcDbDictionary
281
     1
  3
Layout1
350
6F
  3
Layout2
350
77
  3
Model
350
73
  0
DICTIONARY
  5
10
102
{ACAD_REACTORS
330
C
102
}
330
C
100
AcDbDictionary
281
     1
  3
ByBlock
350
19
  3
ByLayer
350
11
  3
Global
350
21
  0
DICTIONARY
  5
66
102
{ACAD_REACTORS
330
C
102
}
330
C
100
AcDbDictionary
281
     1
  3
Standard
350
67
  0
DICTIONARY
  5
5F
102
{ACAD_REACTORS
330
C
102
}
330
C
100
AcDbDictionary
281
     1
  3
Standard
350
60
  0
DICTIONARY
  5
61
102
{ACAD_REACTORS
330
C
102
}
330
C
100
AcDbDictionary
281
     1
  0
ACDBDICTIONARYWDFLT
  5
E
102
{ACAD_REACTORS
330
C
102
}
330
C
100
AcDbDictionary
281
     1
  3
Normal
350
F
100
AcDbDictionaryWithDefault
340
F
  0
DICTIONARY
  5
42
102
{ACAD_REACTORS
330
C
102
}
330
C
100
AcDbDictionary
281
     1
  3
A0
350
43
  3
A1
350
44
  3
A2
350
45
  3
A3
350
46
  3
A4
350
47
  3
A5
350
48
  3
A6
350
49
  3
A7
350
4A
  3
A8
350
4B
  3
A9
350
4C
  3
B0
350
4D
  3
B1
350
4E
  3
B2
350
4F
  3
B3
350
50
  3
B4
350
51
  3
B5
350
52
  3
B6
350
53
  0
DICTIONARY
  5
68
102
{ACAD_REACTORS
330
C
102
}
330
C
100
AcDbDictionary
281
     1
  3
Imperial24
350
69
  0
DICTIONARY
  5
64
102
{ACAD_REACTORS
330
C
102
}
330
C
100
AcDbDictionary
281
     1
  3
Standard
350
65
  0
DICTIONARY
  5
29
102
{ACAD_REACTORS
330
C
102
}
330
C
100
AcDbDictionary
281
     1
  3
2dWireframe
350
2F
  3
Basic
350
2E
  3
Brighten
350
35
  3
ColorChange
350
39
  3
Conceptual
350
32
  3
Dim
350
34
  3
EdgeColorOff
350
41
  3
Facepattern
350
38
  3
Flat
350
2A
  3
FlatWithEdges
350
2B
  3
Gouraud
350
2C
  3
GouraudWithEdges
350
2D
  3
Hidden
350
31
  3
JitterOff
350
3F
  3
Linepattern
350
37
  3
OverhangOff
350
40
  3
Realistic
350
33
  3
Shaded
350
3E
  3
Shaded with edges
350
3D
  3
Shades of Gray
350
3A
  3
Sketchy
350
3B
  3
Thicken
350
36
  3
Wireframe
350
30
  3
X-Ray
350
3C
  0
XRECORD
  5
21C
102
{ACAD_REACTORS
330
C
102
}
330
C
100
AcDbXrecord
280
     1
 90
        1
330
65
  0
DICTIONARY
  5
214
102
{ACAD_REACTORS
330
C
102
}
330
C
100
AcDbDictionary
281
     1
  3
CANNOSCALE
350
219
  3
CMLEADERSTYLE
350
216
  3
CTABLESTYLE
350
215
  3
CVIEWDETAILSTYLE
350
217
  3
CVIEWSECTIONSTYLE
350
218
  0
ACDBDETAILVIEWSTYLE
  5
6B
102
{ACAD_XDICTIONARY
360
21F
102
}
102
{ACAD_REACTORS
330
6A
102
}
330
6A
100
AcDbModelDocViewStyle
 70
     0
  3
Imperial24
290
     0
100
AcDbDetailViewStyle
 70
     0
 71
     0
 90
        3
 71
     1
340
55
 62
   256
 40
0.24
340
0
 62
   256
 40
0.24
300

 40
0.36
280
     3
 71
     2
340
5D
 90
       25
 62
   256
 71
     3
340
55
 62
   256
 40
0.24
 90
        1
 40
0.75
 90
        1
300
%<\AcVar ViewType \f "%tc1">% %<\AcVar ViewDetailId>%\PSCALE %<\AcVar ViewScale \f "%sn">%
 71
     4
340
5D
 90
       25
 62
   256
340
5D
 90
       25
 62
   256
280
     0
  0
LAYOUT
  5
6F
102
{ACAD_REACTORS
330
62
102
}
330
62
100
AcDbPlotSettings
  1

  2

  4

  6

 40
0.0
 41
0.0
 42
0.0
 43
0.0
 44
0.0
 45
0.0
 46
0.0
 47
0.0
 48
0.0
 49
0.0
140
0.0
141
0.0
142
1.0
143
1.0
 70
   688
 72
     0
 73
     0
 74
     5
  7

 75
    16
147
1.0
 76
     0
 77
     2
 78
   300
148
0.0
149
0.0
100
AcDbLayout
  1
Layout1
 70
     1
 71
     1
 10
0.0
 20
0.0
 11
12.0
 21
9.0
 12
0.0
 22
0.0
 32
0.0
 14
0.0
 24
0.0
 34
0.0
 15
0.0
 25
0.0
 35
0.0
146
0.0
 13
0.0
 23
0.0
 33
0.0
 16
1.0
 26
0.0
 36
0.0
 17
0.0
 27
1.0
 37
0.0
 76
     0
330
6C
  0
LAYOUT
  5
77
102
{ACAD_REACTORS
330
62
102
}
330
62
100
AcDbPlotSettings
  1

  2

  4

  6

 40
0.0
 41
0.0
 42
0.0
 43
0.0
 44
0.0
 45
0.0
 46
0.0
 47
0.0
 48
0.0
 49
0.0
140
0.0
141
0.0
142
1.0
143
1.0
 70
   688
 72
     0
 73
     0
 74
     5
  7

 75
    16
147
1.0
 76
     0
 77
     2
 78
   300
148
0.0
149
0.0
100
AcDbLayout
  1
Layout2
 70
     1
 71
     2
 10
0.0
 20
0.0
 11
12.0
 21
9.0
 12
0.0
 22
0.0
 32
0.0
 14
0.0
 24
0.0
 34
0.0
 15
0.0
 25
0.0
 35
0.0
146
0.0
 13
0.0
 23
0.0
 33
0.0
 16
1.0
 26
0.0
 36
0.0
 17
0.0
 27
1.0
 37
0.0
 76
     0
330
74
  0
LAYOUT
  5
73
102
{ACAD_REACTORS
330
62
102
}
330
62
100
AcDbPlotSettings
  1

  2

  4

  6

 40
0.0
 41
0.0
 42
0.0
 43
0.0
 44
0.0
 45
0.0
 46
0.0
 47
0.0
 48
0.0
 49
0.0
140
0.0
141
0.0
142
1.0
143
1.0
 70
  1712
 72
     0
 73
     0
 74
     0
  7

 75
     0
147
1.0
 76
     0
 77
     2
 78
   300
148
0.0
149
0.0
100
AcDbLayout
  1
Model
 70
     1
 71
     0
 10
0.0
 20
0.0
 11
12.0
 21
9.0
 12
0.0
 22
0.0
 32
0.0
 14
0.0
 24
0.0
 34
0.0
 15
0.0
 25
0.0
 35
0.0
146
0.0
 13
0.0
 23
0.0
 33
0.0
 16
1.0
 26
0.0
 36
0.0
 17
0.0
 27
1.0
 37
0.0
 76
     0
330
70
  0
MATERIAL
  5
19
102
{ACAD_XDICTIONARY
360
1A
102
}
102
{ACAD_REACTORS
330
10
102
}
330
10
100
AcDbMaterial
  1
ByBlock
 72
     0
 43
0.0208333333333333
 43
0.0
 43
0.0
 43
0.0
 43
0.0
 43
0.0208333333333333
 43
0.0
 43
0.0
 43
0.0
 43
0.0
 43
1.0
 43
0.0
 43
0.0
 43
0.0
 43
0.0
 43
1.0
 77
     0
 47
0.0208333333333333
 47
0.0
 47
0.0
 47
0.0
 47
0.0
 47
0.0208333333333333
 47
0.0
 47
0.0
 47
0.0
 47
0.0
 47
1.0
 47
0.0
 47
0.0
 47
0.0
 47
0.0
 47
1.0
171
     0
 49
0.0208333333333333
 49
0.0
 49
0.0
 49
0.0
 49
0.0
 49
0.0208333333333333
 49
0.0
 49
0.0
 49
0.0
 49
0.0
 49
1.0
 49
0.0
 49
0.0
 49
0.0
 49
0.0
 49
1.0
175
     0
142
0.0208333333333333
142
0.0
142
0.0
142
0.0
142
0.0
142
0.0208333333333333
142
0.0
142
0.0
142
0.0
142
0.0
142
1.0
142
0.0
142
0.0
142
0.0
142
0.0
142
1.0
179
     0
144
0.0208333333333333
144
0.0
144
0.0
144
0.0
144
0.0
144
0.0208333333333333
144
0.0
144
0.0
144
0.0
144
0.0
144
1.0
144
0.0
144
0.0
144
0.0
144
0.0
144
1.0
147
0.0208333333333333
147
0.0
147
0.0
147
0.0
147
0.0
147
0.0208333333333333
147
0.0
147
0.0
147
0.0
147
0.0
147
1.0
147
0.0
147
0.0
147
0.0
147
0.0
147
1.0
  0
MATERIAL
  5
11
102
{ACAD_XDICTIONARY
360
12
102
}
102
{ACAD_REACTORS
330
10
102
}
330
10
100
AcDbMaterial
  1
ByLayer
 72
     0
 43
0.0208333333333333
 43
0.0
 43
0.0
 43
0.0
 43
0.0
 43
0.0208333333333333
 43
0.0
 43
0.0
 43
0.0
 43
0.0
 43
1.0
 43
0.0
 43
0.0
 43
0.0
 43
0.0
 43
1.0
 77
     0
 47
0.0208333333333333
 47
0.0
 47
0.0
 47
0.0
 47
0.0
 47
0.0208333333333333
 47
0.0
 47
0.0
 47
0.0
 47
0.0
 47
1.0
 47
0.0
 47
0.0
 47
0.0
 47
0.0
 47
1.0
171
     0
 49
0.0208333333333333
 49
0.0
 49
0.0
 49
0.0
 49
0.0
 49
0.0208333333333333
 49
0.0
 49
0.0
 49
0.0
 49
0.0
 49
1.0
 49
0.0
 49
0.0
 49
0.0
 49
0.0
 49
1.0
175
     0
142
0.0208333333333333
142
0.0
142
0.0
142
0.0
142
0.0
142
0.0208333333333333
142
0.0
142
0.0
142
0.0
142
0.0
142
1.0
142
0.0
142
0.0
142
0.0
142
0.0
142
1.0
179
     0
144
0.0208333333333333
144
0.0
144
0.0
144
0.0
144
0.0
144
0.0208333333333333
144
0.0
144
0.0
144
0.0
144
0.0
144
1.0
144
0.0
144
0.0
144
0.0
144
0.0
144
1.0
147
0.0208333333333333
147
0.0
147
0.0
147
0.0
147
0.0
147
0.0208333333333333
147
0.0
147
0.0
147
0.0
147
0.0
147
1.0
147
0.0
147
0.0
147
0.0
147
0.0
147
1.0
  0
MATERIAL
  5
21
102
{ACAD_XDICTIONARY
360
22
102
}
102
{ACAD_REACTORS
330
10
102
}
330
10
100
AcDbMaterial
  1
Global
 72
     0
 43
0.0208333333333333
 43
0.0
 43
0.0
 43
0.0
 43
0.0
 43
0.0208333333333333
 43
0.0
 43
0.0
 43
0.0
 43
0.0
 43
1.0
 43
0.0
 43
0.0
 43
0.0
 43
0.0
 43
1.0
 77
     0
 47
0.0208333333333333
 47
0.0
 47
0.0
 47
0.0
 47
0.0
 47
0.0208333333333333
 47
0.0
 47
0.0
 47
0.0
 47
0.0
 47
1.0
 47
0.0
 47
0.0
 47
0.0
 47
0.0
 47
1.0
171
     0
 49
0.0208333333333333
 49
0.0
 49
0.0
 49
0.0
 49
0.0
 49
0.0208333333333333
 49
0.0
 49
0.0
 49
0.0
 49
0.0
 49
1.0
 49
0.0
 49
0.0
 49
0.0
 49
0.0
 49
1.0
175
     0
142
0.0208333333333333
142
0.0
142
0.0
142
0.0
142
0.0
142
0.0208333333333333
142
0.0
142
0.0
142
0.0
142
0.0
142
1.0
142
0.0
142
0.0
142
0.0
142
0.0
142
1.0
179
     0
144
0.0208333333333333
144
0.0
144
0.0
144
0.0
144
0.0
144
0.0208333333333333
144
0.0
144
0.0
144
0.0
144
0.0
144
1.0
144
0.0
144
0.0
144
0.0
144
0.0
144
1.0
147
0.0208333333333333
147
0.0
147
0.0
147
0.0
147
0.0
147
0.0208333333333333
147
0.0
147
0.0
147
0.0
147
0.0
147
1.0
147
0.0
147
0.0
147
0.0
147
0.0
147
1.0
  0
MLEADERSTYLE
  5
67
102
{ACAD_REACTORS
330
66
102
}
330
66
100
AcDbMLeaderStyle
179
     2
170
     2
171
     1
172
     0
 90
        2
 40
0.0
 41
0.0
173
     1
 91
-1056964608
340
5B
 92
       -2
290
     1
 42
0.09
291
     1
 43
0.36
  3
Standard
 44
0.18
300

342
55
174
     1
178
     6
175
     1
176
     0
 93
-1056964608
 45
0.18
292
     0
297
     0
 46
0.18
 94
-1056964608
 47
1.0
 49
1.0
140
1.0
293
     1
141
0.0
294
     1
177
     0
142
1.0
295
     0
296
     0
143
0.125
271
     0
272
     9
273
     9
298
     1
  0
MLINESTYLE
  5
60
102
{ACAD_REACTORS
330
5F
102
}
330
5F
100
AcDbMlineStyle
  2
STANDARD
 70
     0
  3

 62
   256
 51
90.0
 52
90.0
 71
     2
 49
0.5
 62
   256
  6
BYLAYER
 49
-0.5
 62
   256
  6
BYLAYER
  0
ACDBPLACEHOLDER
  5
F
102
{ACAD_REACTORS
330
E
102
}
330
E
  0
SCALE
  5
43
102
{ACAD_REACTORS
330
42
102
}
330
42
100
AcDbScale
 70
     0
300
1:1
140
1.0
141
1.0
290
     1
  0
SCALE
  5
44
102
{ACAD_REACTORS
330
42
102
}
330
42
100
AcDbScale
 70
     0
300
1/128" = 1'-0"
140
0.0078125
141
12.0
290
     0
  0
SCALE
  5
45
102
{ACAD_REACTORS
330
42
102
}
330
42
100
AcDbScale
 70
     0
300
1/64" = 1'-0"
140
0.015625
141
12.0
290
     0
  0
SCALE
  5
46
102
{ACAD_REACTORS
330
42
102
}
330
42
100
AcDbScale
 70
     0
300
1/32" = 1'-0"
140
0.03125
141
12.0
290
     0
  0
SCALE
  5
47
102
{ACAD_REACTORS
330
42
102
}
330
42
100
AcDbScale
 70
     0
300
1/16" = 1'-0"
140
0.0625
141
12.0
290
     0
  0
SCALE
  5
48
102
{ACAD_REACTORS
330
42
102
}
330
42
100
AcDbScale
 70
     0
300
3/32" = 1'-0"
140
0.09375
141
12.0
290
     0
  0
SCALE
  5
49
102
{ACAD_REACTORS
330
42
102
}
330
42
100
AcDbScale
 70
     0
300
1/8" = 1'-0"
140
0.125
141
12.0
290
     0
  0
SCALE
  5
4A
102
{ACAD_REACTORS
330
42
102
}
330
42
100
AcDbScale
 70
     0
300
3/16" = 1'-0"
140
0.1875
141
12.0
290
     0
  0
SCALE
  5
4B
102
{ACAD_REACTORS
330
42
102
}
330
42
100
AcDbScale
 70
     0
300
1/4" = 1'-0"
140
0.25
141
12.0
290
     0
  0
SCALE
  5
4C
102
{ACAD_REACTORS
330
42
102
}
330
42
100
AcDbScale
 70
     0
300
3/8" = 1'-0"
140
0.375
141
12.0
290
     0
  0
SCALE
  5
4D
102
{ACAD_REACTORS
330
42
102
}
330
42
100
AcDbScale
 70
     0
300
1/2" = 1'-0"
140
0.5
141
12.0
290
     0
  0
SCALE
  5
4E
102
{ACAD_REACTORS
330
42
102
}
330
42
100
AcDbScale
 70
     0
300
3/4" = 1'-0"
140
0.75
141
12.0
290
     0
  0
SCALE
  5
4F
102
{ACAD_REACTORS
330
42
102
}
330
42
100
AcDbScale
 70
     0
300
1" = 1'-0"
140
1.0
141
12.0
290
     0
  0
SCALE
  5
50
102
{ACAD_REACTORS
330
42
102
}
330
42
100
AcDbScale
 70
     0
300
1-1/2" = 1'-0"
140
1.5
141
12.0
290
     0
  0
SCALE
  5
51
102
{ACAD_REACTORS
330
42
102
}
330
42
100
AcDbScale
 70
     0
300
3" = 1'-0"
140
3.0
141
12.0
290
     0
  0
SCALE
  5
52
102
{ACAD_REACTORS
330
42
102
}
330
42
100
AcDbScale
 70
     0
300
6" = 1'-0"
140
6.0
141
12.0
290
     0
  0
SCALE
  5
53
102
{ACAD_REACTORS
330
42
102
}
330
42
100
AcDbScale
 70
     0
300
1'-0" = 1'-0"
140
12.0
141
12.0
290
     0
  0
ACDBSECTIONVIEWSTYLE
  5
69
102
{ACAD_XDICTIONARY
360
21D
102
}
102
{ACAD_REACTORS
330
68
102
}
330
68
100
AcDbModelDocViewStyle
 70
     0
  3
Imperial24
290
     0
100
AcDbSectionViewStyle
 70
     0
 71
     0
 90
       78
 71
     1
340
55
 62
   256
 40
0.24
340
0
340
0
 62
   256
 40
0.24
300
I, O, Q, S, X, Z
 40
0.48
 90
        3
 40
0.18
 90
        1
 71
     2
340
5D
 90
       25
 62
   256
340
5D
 90
       50
 62
   256
 40
0.24
 40
0.0
 40
0.24
 71
     3
340
55
 62
   256
 40
0.24
 90
        1
 40
0.75
 90
        1
300
%<\AcVar ViewType \f "%tc1">% %<\AcVar ViewSectionStartId>%-%<\AcVar ViewSectionEndId>%\PSCALE %<\AcVar ViewScale \f "%sn">%
 71
     4
 62
   256
 62
   257
300
ANSI31
 40
1.0
 90
        0
290
     0
290
     0
 90
        6
 40
0.0
 40
1.570796326794896
 40
0.2617993877991494
 40
1.308996938995747
 40
-0.2617993877991494
 40
1.832595714594046
  0
TABLESTYLE
  5
65
102
{ACAD_XDICTIONARY
360
21A
102
}
102
{ACAD_REACTORS
330
64
102
}
330
64
100
AcDbTableStyle
280
     0
  3
Standard
 70
     0
 71
     0
 40
0.06
 41
0.06
280
     0
281
     0
  7
Standard
140
0.18
170
     2
 62
     0
 63
     7
283
     0
 90
      512
 91
        0
  1

274
    -2
284
     1
 64
     0
275
    -2
285
     1
 65
     0
276
    -2
286
     1
 66
     0
277
    -2
287
     1
 67
     0
278
    -2
288
     1
 68
     0
279
    -2
289
     1
 69
     0
  7
Standard
140
0.25
170
     5
 62
     0
 63
     7
283
     0
 90
      512
 91
        0
  1

274
    -2
284
     1
 64
     0
275
    -2
285
     1
 65
     0
276
    -2
286
     1
 66
     0
277
    -2
287
     1
 67
     0
278
    -2
288
     1
 68
     0
279
    -2
289
     1
 69
     0
  7
Standard
140
0.18
170
     5
 62
     0
 63
     7
283
     0
 90
      512
 91
        0
  1

274
    -2
284
     1
 64
     0
275
    -2
285
     1
 65
     0
276
    -2
286
     1
 66
     0
277
    -2
287
     1
 67
     0
278
    -2
288
     1
 68
     0
279
    -2
289
     1
 69
     0
  0
VISUALSTYLE
  5
2F
102
{ACAD_REACTORS
330
29
102
}
330
29
100
AcDbVisualStyle
  2
2dWireframe
 70
     4
177
     3
291
     0
 70
    58
 90
        0
176
     1
 90
        2
176
     1
 90
        0
176
     1
 90
        0
176
     1
 40
0.6
176
     1
 40
30.0
176
     1
 62
     7
420
 16777215
176
     1
 90
        1
176
     1
 90
        4
176
     1
 62
     7
176
     1
 62
   257
176
     1
 90
        1
176
     1
 90
        1
176
     1
 40
1.0
176
     1
 90
        0
176
     1
 62
   257
176
     1
 40
1.0
176
     1
 90
        1
176
     1
 90
        6
176
     1
 90
        2
176
     1
 62
     7
176
     1
 90
        5
176
     1
 90
        0
176
     1
 90
        0
176
     1
290
     0
176
     1
 90
        1
176
     1
 40
0.0
176
     1
 90
        0
176
     1
290
     1
176
     1
290
     1
176
     1
290
     0
176
     1
290
     0
176
     1
290
     0
176
     1
290
     0
176
     1
290
     0
176
     1
290
     0
176
     1
290
     0
176
     1
 90
       50
176
     1
 40
0.0
176
     1
 40
1.0
176
     1
 90
        0
176
     1
 62
    18
420
        0
176
     1
 90
       50
176
     1
 90
        3
176
     1
 62
     5
420
      255
176
     1
290
     0
176
     1
 90
       50
176
     1
 90
       50
176
     1
 90
       50
176
     1
290
     0
176
     1
 90
       50
176
     1
 62
   256
176
     0
 40
1.0
176
     0
 90
        2
176
     1
  1
strokes_ogs.tif
176
     1
290
     0
176
     1
 40
1.0
176
     1
 40
1.0
176
     1
1001
ACAD
1000
AcDbSavedByObjectVersion
1070
     0
  0
VISUALSTYLE
  5
2E
102
{ACAD_REACTORS
330
29
102
}
330
29
100
AcDbVisualStyle
  2
Basic
 70
     7
177
     3
291
     1
 70
    58
 90
        1
176
     1
 90
        0
176
     1
 90
        1
176
     1
 90
        0
176
     1
 40
0.6
176
     1
 40
30.0
176
     1
 62
     7
420
 16777215
176
     1
 90
        0
176
     1
 90
        4
176
     1
 62
     7
176
     1
 62
   257
176
     1
 90
        1
176
     1
 90
        1
176
     1
 40
1.0
176
     1
 90
        8
176
     1
 62
     7
176
     1
 40
1.0
176
     1
 90
        1
176
     1
 90
        6
176
     1
 90
        2
176
     1
 62
     7
176
     1
 90
        5
176
     1
 90
        0
176
     1
 90
        0
176
     1
290
     0
176
     1
 90
        1
176
     1
 40
0.0
176
     1
 90
        0
176
     1
290
     0
176
     1
290
     1
176
     1
290
     1
176
     1
290
     0
176
     1
290
     0
176
     1
290
     0
176
     1
290
     0
176
     1
290
     0
176
     1
290
     0
176
     1
 90
       50
176
     1
 40
0.0
176
     1
 40
1.0
176
     1
 90
        0
176
     1
 62
    18
420
        0
176
     1
 90
       50
176
     1
 90
        3
176
     1
 62
     5
420
      255
176
     1
290
     0
176
     1
 90
       50
176
     1
 90
       50
176
     1
 90
       50
176
     1
290
     0
176
     1
 90
       50
176
     1
 62
   256
176
     0
 40
1.0
176
     0
 90
        2
176
     1
  1
strokes_ogs.tif
176
     1
290
     0
176
     1
 40
1.0
176
     1
 40
1.0
176
     1
1001
ACAD
1000
AcDbSavedByObjectVersion
1070
     0
  0
VISUALSTYLE
  5
35
102
{ACAD_REACTORS
330
29
102
}
330
29
100
AcDbVisualStyle
  2
Brighten
 70
    12
177
     3
291
     1
 70
    58
 90
        2
176
     1
 90
        2
176
     1
 90
        0
176
     1
 90
        0
176
     1
 40
0.6
176
     1
 40
30.0
176
     1
 62
     7
420
 16777215
176
     1
 90
        1
176
     1
 90
        4
176
     1
 62
     7
176
     1
 62
   257
176
     1
 90
        1
176
     1
 90
        1
176
     1
 40
1.0
176
     1
 90
        8
176
     1
 62
     7
176
     1
 40
1.0
176
     1
 90
        1
176
     1
 90
        6
176
     1
 90
        2
176
     1
 62
     7
176
     1
 90
        5
176
     1
 90
        0
176
     1
 90
        0
176
     1
290
     0
176
     1
 90
        1
176
     1
 40
50.0
176
     1
 90
        0
176
     1
290
     0
176
     1
290
     1
176
     1
290
     1
176
     1
290
     0
176
     1
290
     0
176
     1
290
     0
176
     1
290
     0
176
     1
290
     0
176
     1
290
     0
176
     1
 90
       50
176
     1
 40
0.0
176
     1
 40
1.0
176
     1
 90
        0
176
     1
 62
    18
420
        0
176
     1
 90
       50
176
     1
 90
        3
176
     1
 62
     5
420
      255
176
     1
290
     0
176
     1
 90
       50
176
     1
 90
       50
176
     1
 90
       50
176
     1
290
     0
176
     1
 90
       50
176
     1
 62
   256
176
     0
 40
1.0
176
     0
 90
        2
176
     1
  1
strokes_ogs.tif
176
     1
290
     0
176
     1
 40
1.0
176
     1
 40
1.0
176
     1
1001
ACAD
1000
AcDbSavedByObjectVersion
1070
     0
  0
VISUALSTYLE
  5
39
102
{ACAD_REACTORS
330
29
102
}
330
29
100
AcDbVisualStyle
  2
ColorChange
 70
    16
177
     3
291
     1
 70
    58
 90
        2
176
     1
 90
        2
176
     1
 90
        3
176
     1
 90
        0
176
     1
 40
0.6
176
     1
 40
30.0
176
     1
 62
     8
420
  8421504
176
     1
 90
        1
176
     1
 90
        4
176
     1
 62
     7
176
     1
 62
   257
176
     1
 90
        1
176
     1
 90
        1
176
     1
 40
1.0
176
     1
 90
        8
176
     1
 62
     8
420
  8421504
176
     1
 40
1.0
176
     1
 90
        1
176
     1
 90
        6
176
     1
 90
        2
176
     1
 62
     7
176
     1
 90
        5
176
     1
 90
        0
176
     1
 90
        0
176
     1
290
     0
176
     1
 90
        1
176
     1
 40
0.0
176
     1
 90
        0
176
     1
290
     0
176
     1
290
     1
176
     1
290
     1
176
     1
290
     0
176
     1
290
     0
176
     1
290
     0
176
     1
290
     0
176
     1
290
     0
176
     1
290
     0
176
     1
 90
       50
176
     1
 40
0.0
176
     1
 40
1.0
176
     1
 90
        0
176
     1
 62
    18
420
        0
176
     1
 90
       50
176
     1
 90
        3
176
     1
 62
     5
420
      255
176
     1
290
     0
176
     1
 90
       50
176
     1
 90
       50
176
     1
 90
       50
176
     1
290
     0
176
     1
 90
       50
176
     1
 62
   256
176
     0
 40
1.0
176
     0
 90
        2
176
     1
  1
strokes_ogs.tif
176
     1
290
     0
176
     1
 40
1.0
176
     1
 40
1.0
176
     1
1001
ACAD
1000
AcDbSavedByObjectVersion
1070
     0
  0
VISUALSTYLE
  5
32
102
{ACAD_REACTORS
330
29
102
}
330
29
100
AcDbVisualStyle
  2
Conceptual
 70
     9
177
     3
291
     0
 70
    58
 90
        3
176
     1
 90
        2
176
     1
 90
        0
176
     1
 90
        0
176
     1
 40
0.6
176
     1
 40
30.0
176
     1
 62
     7
420
 16777215
176
     1
 90
        2
176
     1
 90
        2
176
     1
 62
     7
176
     1
 62
   257
176
     1
 90
        1
176
     1
 90
        1
176
     1
 40
179.0
176
     1
 90
        8
176
     1
 62
     7
176
     1
 40
1.0
176
     1
 90
        1
176
     1
 90
        6
176
     1
 90
        2
176
     1
 62
     7
176
     1
 90
        3
176
     1
 90
        0
176
     1
 90
        0
176
     1
290
     0
176
     1
 90
        1
176
     1
 40
0.0
176
     1
 90
        0
176
     1
290
     0
176
     1
290
     1
176
     1
290
     1
176
     1
290
     0
176
     1
290
     0
176
     1
290
     0
176
     1
290
     0
176
     1
290
     0
176
     1
290
     0
176
     1
 90
       50
176
     1
 40
0.0
176
     1
 40
1.0
176
     1
 90
        0
176
     1
 62
    18
420
        0
176
     1
 90
       50
176
     1
 90
        3
176
     1
 62
     5
420
      255
176
     1
290
     0
176
     1
 90
       50
176
     1
 90
       50
176
     1
 90
       50
176
     1
290
     0
176
     1
 90
       50
176
     1
 62
   256
176
     0
 40
1.0
176
     0
 90
        2
176
     1
  1
strokes_ogs.tif
176
     1
290
     0
176
     1
 40
1.0
176
     1
 40
1.0
176
     1
1001
ACAD
1000
AcDbSavedByObjectVersion
1070
     0
  0
VISUALSTYLE
  5
34
102
{ACAD_REACTORS
330
29
102
}
330
29
100
AcDbVisualStyle
  2
Dim
 70
    11
177
     3
291
     1
 70
    58
 90
        2
176
     1
 90
        2
176
     1
 90
        0
176
     1
 90
        0
176
     1
 40
0.6
176
     1
 40
30.0
176
     1
 62
     7
420
 16777215
176
     1
 90
        1
176
     1
 90
        4
176
     1
 62
     7
176
     1
 62
   257
176
     1
 90
        1
176
     1
 90
        1
176
     1
 40
1.0
176
     1
 90
        8
176
     1
 62
     7
176
     1
 40
1.0
176
     1
 90
        1
176
     1
 90
        6
176
     1
 90
        2
176
     1
 62
     7
176
     1
 90
        5
176
     1
 90
        0
176
     1
 90
        0
176
     1
290
     0
176
     1
 90
        1
176
     1
 40
-50.0
176
     1
 90
        0
176
     1
290
     0
176
     1
290
     1
176
     1
290
     1
176
     1
290
     0
176
     1
290
     0
176
     1
290
     0
176
     1
290
     0
176
     1
290
     0
176
     1
290
     0
176
     1
 90
       50
176
     1
 40
0.0
176
     1
 40
1.0
176
     1
 90
        0
176
     1
 62
    18
420
        0
176
     1
 90
       50
176
     1
 90
        3
176
     1
 62
     5
420
      255
176
     1
290
     0
176
     1
 90
       50
176
     1
 90
       50
176
     1
 90
       50
176
     1
290
     0
176
     1
 90
       50
176
     1
 62
   256
176
     0
 40
1.0
176
     0
 90
        2
176
     1
  1
strokes_ogs.tif
176
     1
290
     0
176
     1
 40
1.0
176
     1
 40
1.0
176
     1
1001
ACAD
1000
AcDbSavedByObjectVersion
1070
     0
  0
VISUALSTYLE
  5
41
102
{ACAD_REACTORS
330
29
102
}
330
29
100
AcDbVisualStyle
  2
EdgeColorOff
 70
    22
177
     3
291
     1
 70
    58
 90
        2
176
     0
 90
        2
176
     0
 90
        0
176
     0
 90
        0
176
     0
 40
0.6
176
     0
 40
30.0
176
     0
 62
     7
420
 16777215
176
     0
 90
        1
176
     0
 90
        4
176
     0
 62
     7
176
     0
 62
   257
176
     0
 90
        1
176
     0
 90
        1
176
     0
 40
1.0
176
     0
 90
        8
176
     2
 62
     7
176
     0
 40
1.0
176
     0
 90
        1
176
     0
 90
        6
176
     0
 90
        2
176
     0
 62
     7
176
     0
 90
        5
176
     0
 90
        0
176
     0
 90
        0
176
     0
290
     0
176
     0
 90
        1
176
     0
 40
0.0
176
     0
 90
        0
176
     0
290
     0
176
     0
290
     1
176
     0
290
     1
176
     0
290
     0
176
     0
290
     0
176
     0
290
     0
176
     0
290
     0
176
     0
290
     0
176
     0
290
     0
176
     0
 90
       50
176
     0
 40
0.0
176
     0
 40
1.0
176
     0
 90
        0
176
     0
 62
    18
420
        0
176
     0
 90
       50
176
     0
 90
        3
176
     0
 62
     5
420
      255
176
     0
290
     0
176
     0
 90
       50
176
     0
 90
       50
176
     0
 90
       50
176
     0
290
     0
176
     0
 90
       50
176
     0
 62
   256
176
     0
 40
1.0
176
     0
 90
        2
176
     0
  1
strokes_ogs.tif
176
     0
290
     0
176
     0
 40
1.0
176
     0
 40
1.0
176
     0
1001
ACAD
1000
AcDbSavedByObjectVersion
1070
     0
  0
VISUALSTYLE
  5
38
102
{ACAD_REACTORS
330
29
102
}
330
29
100
AcDbVisualStyle
  2
Facepattern
 70
    15
177
     3
291
     1
 70
    58
 90
        2
176
     1
 90
        2
176
     1
 90
        0
176
     1
 90
        0
176
     1
 40
0.6
176
     1
 40
30.0
176
     1
 62
     7
420
 16777215
176
     1
 90
        1
176
     1
 90
        4
176
     1
 62
     7
176
     1
 62
   257
176
     1
 90
        1
176
     1
 90
        1
176
     1
 40
1.0
176
     1
 90
        8
176
     1
 62
     7
176
     1
 40
1.0
176
     1
 90
        1
176
     1
 90
        6
176
     1
 90
        2
176
     1
 62
     7
176
     1
 90
        5
176
     1
 90
        0
176
     1
 90
        0
176
     1
290
     0
176
     1
 90
        1
176
     1
 40
0.0
176
     1
 90
        0
176
     1
290
     0
176
     1
290
     1
176
     1
290
     1
176
     1
290
     0
176
     1
290
     0
176
     1
290
     0
176
     1
290
     0
176
     1
290
     0
176
     1
290
     0
176
     1
 90
       50
176
     1
 40
0.0
176
     1
 40
1.0
176
     1
 90
        0
176
     1
 62
    18
420
        0
176
     1
 90
       50
176
     1
 90
        3
176
     1
 62
     5
420
      255
176
     1
290
     0
176
     1
 90
       50
176
     1
 90
       50
176
     1
 90
       50
176
     1
290
     0
176
     1
 90
       50
176
     1
 62
   256
176
     0
 40
1.0
176
     0
 90
        2
176
     1
  1
strokes_ogs.tif
176
     1
290
     0
176
     1
 40
1.0
176
     1
 40
1.0
176
     1
1001
ACAD
1000
AcDbSavedByObjectVersion
1070
     0
  0
VISUALSTYLE
  5
2A
102
{ACAD_REACTORS
330
29
102
}
330
29
100
AcDbVisualStyle
  2
Flat
 70
     0
177
     3
291
     1
 70
    58
 90
        2
176
     1
 90
        1
176
     1
 90
        1
176
     1
 90
        2
176
     1
 40
0.6
176
     1
 40
30.0
176
     1
 62
     7
420
 16777215
176
     1
 90
        0
176
     1
 90
        0
176
     1
 62
     7
176
     1
 62
   257
176
     1
 90
        1
176
     1
 90
        1
176
     1
 40
1.0
176
     1
 90
        8
176
     1
 62
     7
176
     1
 40
1.0
176
     1
 90
        1
176
     1
 90
        6
176
     1
 90
        2
176
     1
 62
     7
176
     1
 90
        5
176
     1
 90
        0
176
     1
 90
        0
176
     1
290
     0
176
     1
 90
       13
176
     1
 40
0.0
176
     1
 90
        0
176
     1
290
     0
176
     1
290
     1
176
     1
290
     1
176
     1
290
     0
176
     1
290
     0
176
     1
290
     0
176
     1
290
     0
176
     1
290
     0
176
     1
290
     0
176
     1
 90
       50
176
     1
 40
0.0
176
     1
 40
1.0
176
     1
 90
        0
176
     1
 62
    18
420
        0
176
     1
 90
       50
176
     1
 90
        3
176
     1
 62
     5
420
      255
176
     1
290
     0
176
     1
 90
       50
176
     1
 90
       50
176
     1
 90
       50
176
     1
290
     0
176
     1
 90
       50
176
     1
 62
   256
176
     0
 40
1.0
176
     0
 90
        2
176
     1
  1
strokes_ogs.tif
176
     1
290
     0
176
     1
 40
1.0
176
     1
 40
1.0
176
     1
1001
ACAD
1000
AcDbSavedByObjectVersion
1070
     0
  0
VISUALSTYLE
  5
2B
102
{ACAD_REACTORS
330
29
102
}
330
29
100
AcDbVisualStyle
  2
FlatWithEdges
 70
     1
177
     3
291
     1
 70
    58
 90
        2
176
     1
 90
        1
176
     1
 90
        1
176
     1
 90
        2
176
     1
 40
0.6
176
     1
 40
30.0
176
     1
 62
     7
420
 16777215
176
     1
 90
        1
176
     1
 90
        0
176
     1
 62
     7
176
     1
 62
   257
176
     1
 90
        1
176
     1
 90
        1
176
     1
 40
1.0
176
     1
 90
        0
176
     1
 62
   257
176
     1
 40
1.0
176
     1
 90
        1
176
     1
 90
        6
176
     1
 90
        2
176
     1
 62
     7
176
     1
 90
        5
176
     1
 90
        0
176
     1
 90
        0
176
     1
290
     0
176
     1
 90
       13
176
     1
 40
0.0
176
     1
 90
        0
176
     1
290
     0
176
     1
290
     1
176
     1
290
     1
176
     1
290
     0
176
     1
290
     0
176
     1
290
     0
176
     1
290
     0
176
     1
290
     0
176
     1
290
     0
176
     1
 90
       50
176
     1
 40
0.0
176
     1
 40
1.0
176
     1
 90
        0
176
     1
 62
    18
420
        0
176
     1
 90
       50
176
     1
 90
        3
176
     1
 62
     5
420
      255
176
     1
290
     0
176
     1
 90
       50
176
     1
 90
       50
176
     1
 90
       50
176
     1
290
     0
176
     1
 90
       50
176
     1
 62
   256
176
     0
 40
1.0
176
     0
 90
        2
176
     1
  1
strokes_ogs.tif
176
     1
290
     0
176
     1
 40
1.0
176
     1
 40
1.0
176
     1
1001
ACAD
1000
AcDbSavedByObjectVersion
1070
     0
  0
VISUALSTYLE
  5
2C
102
{ACAD_REACTORS
330
29
102
}
330
29
100
AcDbVisualStyle
  2
Gouraud
 70
     2
177
     3
291
     1
 70
    58
 90
        2
176
     1
 90
        2
176
     1
 90
        1
176
     1
 90
        2
176
     1
 40
0.6
176
     1
 40
30.0
176
     1
 62
     7
420
 16777215
176
     1
 90
        0
176
     1
 90
        0
176
     1
 62
     7
176
     1
 62
   257
176
     1
 90
        1
176
     1
 90
        1
176
     1
 40
1.0
176
     1
 90
        0
176
     1
 62
     7
176
     1
 40
1.0
176
     1
 90
        1
176
     1
 90
        6
176
     1
 90
        2
176
     1
 62
     7
176
     1
 90
        5
176
     1
 90
        0
176
     1
 90
        0
176
     1
290
     0
176
     1
 90
       13
176
     1
 40
0.0
176
     1
 90
        0
176
     1
290
     0
176
     1
290
     1
176
     1
290
     1
176
     1
290
     0
176
     1
290
     0
176
     1
290
     0
176
     1
290
     0
176
     1
290
     0
176
     1
290
     0
176
     1
 90
       50
176
     1
 40
0.0
176
     1
 40
1.0
176
     1
 90
        0
176
     1
 62
    18
420
        0
176
     1
 90
       50
176
     1
 90
        3
176
     1
 62
     5
420
      255
176
     1
290
     0
176
     1
 90
       50
176
     1
 90
       50
176
     1
 90
       50
176
     1
290
     0
176
     1
 90
       50
176
     1
 62
   256
176
     0
 40
1.0
176
     0
 90
        2
176
     1
  1
strokes_ogs.tif
176
     1
290
     0
176
     1
 40
1.0
176
     1
 40
1.0
176
     1
1001
ACAD
1000
AcDbSavedByObjectVersion
1070
     0
  0
VISUALSTYLE
  5
2D
102
{ACAD_REACTORS
330
29
102
}
330
29
100
AcDbVisualStyle
  2
GouraudWithEdges
 70
     3
177
     3
291
     1
 70
    58
 90
        2
176
     1
 90
        2
176
     1
 90
        1
176
     1
 90
        2
176
     1
 40
0.6
176
     1
 40
30.0
176
     1
 62
     7
420
 16777215
176
     1
 90
        1
176
     1
 90
        0
176
     1
 62
     7
176
     1
 62
   257
176
     1
 90
        1
176
     1
 90
        1
176
     1
 40
1.0
176
     1
 90
        0
176
     1
 62
   257
176
     1
 40
1.0
176
     1
 90
        1
176
     1
 90
        6
176
     1
 90
        2
176
     1
 62
     7
176
     1
 90
        5
176
     1
 90
        0
176
     1
 90
        0
176
     1
290
     0
176
     1
 90
       13
176
     1
 40
0.0
176
     1
 90
        0
176
     1
290
     0
176
     1
290
     1
176
     1
290
     1
176
     1
290
     0
176
     1
290
     0
176
     1
290
     0
176
     1
290
     0
176
     1
290
     0
176
     1
290
     0
176
     1
 90
       50
176
     1
 40
0.0
176
     1
 40
1.0
176
     1
 90
        0
176
     1
 62
    18
420
        0
176
     1
 90
       50
176
     1
 90
        3
176
     1
 62
     5
420
      255
176
     1
290
     0
176
     1
 90
       50
176
     1
 90
       50
176
     1
 90
       50
176
     1
290
     0
176
     1
 90
       50
176
     1
 62
   256
176
     0
 40
1.0
176
     0
 90
        2
176
     1
  1
strokes_ogs.tif
176
     1
290
     0
176
     1
 40
1.0
176
     1
 40
1.0
176
     1
1001
ACAD
1000
AcDbSavedByObjectVersion
1070
     0
  0
VISUALSTYLE
  5
31
102
{ACAD_REACTORS
330
29
102
}
330
29
100
AcDbVisualStyle
  2
Hidden
 70
     6
177
     3
291
     0
 70
    58
 90
        1
176
     1
 90
        2
176
     1
 90
        2
176
     1
 90
        0
176
     1
 40
0.6
176
     1
 40
30.0
176
     1
 62
     7
420
 16777215
176
     1
 90
        2
176
     1
 90
        2
176
     1
 62
     7
176
     1
 62
   257
176
     1
 90
        2
176
     1
 90
        1
176
     1
 40
40.0
176
     1
 90
        0
176
     1
 62
   257
176
     1
 40
1.0
176
     1
 90
        1
176
     1
 90
        6
176
     1
 90
        2
176
     1
 62
     7
176
     1
 90
        3
176
     1
 90
        0
176
     1
 90
        0
176
     1
290
     0
176
     1
 90
        1
176
     1
 40
0.0
176
     1
 90
        0
176
     1
290
     0
176
     1
290
     1
176
     1
290
     1
176
     1
290
     0
176
     1
290
     0
176
     1
290
     0
176
     1
290
     0
176
     1
290
     0
176
     1
290
     0
176
     1
 90
       50
176
     1
 40
0.0
176
     1
 40
1.0
176
     1
 90
        0
176
     1
 62
    18
420
        0
176
     1
 90
       50
176
     1
 90
        3
176
     1
 62
     5
420
      255
176
     1
290
     0
176
     1
 90
       50
176
     1
 90
       50
176
     1
 90
       50
176
     1
290
     0
176
     1
 90
       50
176
     1
 62
   256
176
     0
 40
1.0
176
     0
 90
        2
176
     1
  1
strokes_ogs.tif
176
     1
290
     0
176
     1
 40
1.0
176
     1
 40
1.0
176
     1
1001
ACAD
1000
AcDbSavedByObjectVersion
1070
     0
  0
VISUALSTYLE
  5
3F
102
{ACAD_REACTORS
330
29
102
}
330
29
100
AcDbVisualStyle
  2
JitterOff
 70
    20
177
     3
291
     1
 70
    58
 90
        2
176
     0
 90
        2
176
     0
 90
        0
176
     0
 90
        0
176
     0
 40
0.6
176
     0
 40
30.0
176
     0
 62
     7
420
 16777215
176
     0
 90
        1
176
     0
 90
        4
176
     0
 62
     7
176
     0
 62
   257
176
     0
 90
        1
176
     0
 90
        1
176
     0
 40
1.0
176
     0
 90
       10
176
     2
 62
     7
176
     0
 40
1.0
176
     0
 90
        1
176
     0
 90
        6
176
     0
 90
        2
176
     0
 62
     7
176
     0
 90
        5
176
     0
 90
        0
176
     0
 90
        0
176
     0
290
     0
176
     0
 90
        1
176
     0
 40
0.0
176
     0
 90
        0
176
     0
290
     0
176
     0
290
     1
176
     0
290
     1
176
     0
290
     0
176
     0
290
     0
176
     0
290
     0
176
     0
290
     0
176
     0
290
     0
176
     0
290
     0
176
     0
 90
       50
176
     0
 40
0.0
176
     0
 40
1.0
176
     0
 90
        0
176
     0
 62
    18
420
        0
176
     0
 90
       50
176
     0
 90
        3
176
     0
 62
     5
420
      255
176
     0
290
     0
176
     0
 90
       50
176
     0
 90
       50
176
     0
 90
       50
176
     0
290
     0
176
     0
 90
       50
176
     0
 62
   256
176
     0
 40
1.0
176
     0
 90
        2
176
     0
  1
strokes_ogs.tif
176
     0
290
     0
176
     0
 40
1.0
176
     0
 40
1.0
176
     0
1001
ACAD
1000
AcDbSavedByObjectVersion
1070
     0
  0
VISUALSTYLE
  5
37
102
{ACAD_REACTORS
330
29
102
}
330
29
100
AcDbVisualStyle
  2
Linepattern
 70
    14
177
     3
291
     1
 70
    58
 90
        2
176
     1
 90
        2
176
     1
 90
        0
176
     1
 90
        0
176
     1
 40
0.6
176
     1
 40
30.0
176
     1
 62
     7
420
 16777215
176
     1
 90
        1
176
     1
 90
        4
176
     1
 62
     7
176
     1
 62
   257
176
     1
 90
        7
176
     1
 90
        7
176
     1
 40
1.0
176
     1
 90
        8
176
     1
 62
     7
176
     1
 40
1.0
176
     1
 90
        1
176
     1
 90
        6
176
     1
 90
        2
176
     1
 62
     7
176
     1
 90
        5
176
     1
 90
        0
176
     1
 90
        0
176
     1
290
     0
176
     1
 90
        1
176
     1
 40
0.0
176
     1
 90
        0
176
     1
290
     0
176
     1
290
     1
176
     1
290
     1
176
     1
290
     0
176
     1
290
     0
176
     1
290
     0
176
     1
290
     0
176
     1
290
     0
176
     1
290
     0
176
     1
 90
       50
176
     1
 40
0.0
176
     1
 40
1.0
176
     1
 90
        0
176
     1
 62
    18
420
        0
176
     1
 90
       50
176
     1
 90
        3
176
     1
 62
     5
420
      255
176
     1
290
     0
176
     1
 90
       50
176
     1
 90
       50
176
     1
 90
       50
176
     1
290
     0
176
     1
 90
       50
176
     1
 62
   256
176
     0
 40
1.0
176
     0
 90
        2
176
     1
  1
strokes_ogs.tif
176
     1
290
     0
176
     1
 40
1.0
176
     1
 40
1.0
176
     1
1001
ACAD
1000
AcDbSavedByObjectVersion
1070
     0
  0
VISUALSTYLE
  5
40
102
{ACAD_REACTORS
330
29
102
}
330
29
100
AcDbVisualStyle
  2
OverhangOff
 70
    21
177
     3
291
     1
 70
    58
 90
        2
176
     0
 90
        2
176
     0
 90
        0
176
     0
 90
        0
176
     0
 40
0.6
176
     0
 40
30.0
176
     0
 62
     7
420
 16777215
176
     0
 90
        1
176
     0
 90
        4
176
     0
 62
     7
176
     0
 62
   257
176
     0
 90
        1
176
     0
 90
        1
176
     0
 40
1.0
176
     0
 90
        9
176
     2
 62
     7
176
     0
 40
1.0
176
     0
 90
        1
176
     0
 90
        6
176
     0
 90
        2
176
     0
 62
     7
176
     0
 90
        5
176
     0
 90
        0
176
     0
 90
        0
176
     0
290
     0
176
     0
 90
        1
176
     0
 40
0.0
176
     0
 90
        0
176
     0
290
     0
176
     0
290
     1
176
     0
290
     1
176
     0
290
     0
176
     0
290
     0
176
     0
290
     0
176
     0
290
     0
176
     0
290
     0
176
     0
290
     0
176
     0
 90
       50
176
     0
 40
0.0
176
     0
 40
1.0
176
     0
 90
        0
176
     0
 62
    18
420
        0
176
     0
 90
       50
176
     0
 90
        3
176
     0
 62
     5
420
      255
176
     0
290
     0
176
     0
 90
       50
176
     0
 90
       50
176
     0
 90
       50
176
     0
290
     0
176
     0
 90
       50
176
     0
 62
   256
176
     0
 40
1.0
176
     0
 90
        2
176
     0
  1
strokes_ogs.tif
176
     0
290
     0
176
     0
 40
1.0
176
     0
 40
1.0
176
     0
1001
ACAD
1000
AcDbSavedByObjectVersion
1070
     0
  0
VISUALSTYLE
  5
33
102
{ACAD_REACTORS
330
29
102
}
330
29
100
AcDbVisualStyle
  2
Realistic
 70
     8
177
     3
291
     0
 70
    58
 90
        2
176
     1
 90
        3
176
     1
 90
        0
176
     1
 90
        2
176
     1
 40
0.6
176
     1
 40
30.0
176
     1
 62
     7
420
 16777215
176
     1
 90
        0
176
     1
 90
        0
176
     1
 62
     7
176
     1
 62
   257
176
     1
 90
        1
176
     1
 90
        1
176
     1
 40
1.0
176
     1
 90
        8
176
     1
 62
   257
176
     1
 40
1.0
176
     1
 90
        1
176
     1
 90
        6
176
     1
 90
        2
176
     1
 62
     7
176
     1
 90
        3
176
     1
 90
        0
176
     1
 90
        0
176
     1
290
     0
176
     1
 90
       13
176
     1
 40
0.0
176
     1
 90
        0
176
     1
290
     0
176
     1
290
     1
176
     1
290
     1
176
     1
290
     0
176
     1
290
     0
176
     1
290
     0
176
     1
290
     0
176
     1
290
     0
176
     1
290
     0
176
     1
 90
       50
176
     1
 40
0.0
176
     1
 40
1.0
176
     1
 90
        0
176
     1
 62
    18
420
        0
176
     1
 90
       50
176
     1
 90
        3
176
     1
 62
     5
420
      255
176
     1
290
     0
176
     1
 90
       50
176
     1
 90
       50
176
     1
 90
       50
176
     1
290
     0
176
     1
 90
       50
176
     1
 62
   256
176
     0
 40
1.0
176
     0
 90
        2
176
     1
  1
strokes_ogs.tif
176
     1
290
     0
176
     1
 40
1.0
176
     1
 40
1.0
176
     1
1001
ACAD
1000
AcDbSavedByObjectVersion
1070
     0
  0
VISUALSTYLE
  5
3E
102
{ACAD_REACTORS
330
29
102
}
330
29
100
AcDbVisualStyle
  2
Shaded
 70
    27
177
     3
291
     0
 70
    58
 90
        2
176
     1
 90
        2
176
     1
 90
        1
176
     1
 90
        2
176
     1
 40
0.6
176
     1
 40
30.0
176
     1
 62
     7
420
 16777215
176
     1
 90
        0
176
     1
 90
        4
176
     1
 62
     7
176
     1
 62
   257
176
     1
 90
        1
176
     1
 90
        1
176
     1
 40
1.0
176
     1
 90
        8
176
     1
 62
   257
176
     1
 40
1.0
176
     1
 90
        1
176
     1
 90
        6
176
     1
 90
        2
176
     1
 62
     8
420
  7895160
176
     1
 90
        3
176
     1
 90
        0
176
     1
 90
        0
176
     1
290
     0
176
     1
 90
        5
176
     1
 40
0.0
176
     1
 90
        0
176
     1
290
     0
176
     1
290
     1
176
     1
290
     1
176
     1
290
     0
176
     1
290
     0
176
     1
290
     0
176
     1
290
     0
176
     1
290
     0
176
     1
290
     0
176
     1
 90
       50
176
     1
 40
0.0
176
     1
 40
1.0
176
     1
 90
        0
176
     1
 62
    18
420
        0
176
     1
 90
       50
176
     1
 90
        3
176
     1
 62
     5
420
      255
176
     1
290
     0
176
     1
 90
       50
176
     1
 90
       50
176
     1
 90
       50
176
     1
290
     0
176
     1
 90
       50
176
     1
 62
   256
176
     0
 40
1.0
176
     0
 90
        2
176
     1
  1
strokes_ogs.tif
176
     1
290
     0
176
     1
 40
1.0
176
     1
 40
1.0
176
     1
1001
ACAD
1000
AcDbSavedByObjectVersion
1070
     0
  0
VISUALSTYLE
  5
3D
102
{ACAD_REACTORS
330
29
102
}
330
29
100
AcDbVisualStyle
  2
Shaded with edges
 70
    26
177
     3
291
     0
 70
    58
 90
        2
176
     1
 90
        2
176
     1
 90
        1
176
     1
 90
        2
176
     1
 40
0.6
176
     1
 40
30.0
176
     1
 62
     7
420
 16777215
176
     1
 90
        1
176
     1
 90
        2
176
     1
 62
     7
176
     1
 62
   257
176
     1
 90
        2
176
     1
 90
        1
176
     1
 40
1.0
176
     1
 90
        8
176
     1
 62
   257
176
     1
 40
1.0
176
     1
 90
        1
176
     1
 90
        6
176
     1
 90
        2
176
     1
 62
     7
176
     1
 90
        3
176
     1
 90
        0
176
     1
 90
        0
176
     1
290
     0
176
     1
 90
        5
176
     1
 40
0.0
176
     1
 90
        0
176
     1
290
     0
176
     1
290
     1
176
     1
290
     1
176
     1
290
     0
176
     1
290
     0
176
     1
290
     0
176
     1
290
     0
176
     1
290
     0
176
     1
290
     0
176
     1
 90
       50
176
     1
 40
0.0
176
     1
 40
1.0
176
     1
 90
        0
176
     1
 62
    18
420
        0
176
     1
 90
       50
176
     1
 90
        3
176
     1
 62
     5
420
      255
176
     1
290
     0
176
     1
 90
       50
176
     1
 90
       50
176
     1
 90
       50
176
     1
290
     0
176
     1
 90
       50
176
     1
 62
   256
176
     0
 40
1.0
176
     0
 90
        2
176
     1
  1
strokes_ogs.tif
176
     1
290
     0
176
     1
 40
1.0
176
     1
 40
1.0
176
     1
1001
ACAD
1000
AcDbSavedByObjectVersion
1070
     0
  0
VISUALSTYLE
  5
3A
102
{ACAD_REACTORS
330
29
102
}
330
29
100
AcDbVisualStyle
  2
Shades of Gray
 70
    23
177
     3
291
     0
 70
    58
 90
        2
176
     1
 90
        2
176
     1
 90
        3
176
     1
 90
        0
176
     1
 40
0.6
176
     1
 40
30.0
176
     1
 62
     7
420
 16777215
176
     1
 90
        2
176
     1
 90
        2
176
     1
 62
     7
176
     1
 62
     7
176
     1
 90
        1
176
     1
 90
        1
176
     1
 40
40.0
176
     1
 90
        8
176
     1
 62
     7
176
     1
 40
1.0
176
     1
 90
        1
176
     1
 90
        6
176
     1
 90
        2
176
     1
 62
     7
176
     1
 90
        3
176
     1
 90
        0
176
     1
 90
        0
176
     1
290
     0
176
     1
 90
        1
176
     1
 40
0.0
176
     1
 90
        0
176
     1
290
     0
176
     1
290
     1
176
     1
290
     1
176
     1
290
     0
176
     1
290
     0
176
     1
290
     0
176
     1
290
     0
176
     1
290
     0
176
     1
290
     0
176
     1
 90
       50
176
     1
 40
0.0
176
     1
 40
1.0
176
     1
 90
        0
176
     1
 62
    18
420
        0
176
     1
 90
       50
176
     1
 90
        3
176
     1
 62
     5
420
      255
176
     1
290
     0
176
     1
 90
       50
176
     1
 90
       50
176
     1
 90
       50
176
     1
290
     0
176
     1
 90
       50
176
     1
 62
   256
176
     0
 40
1.0
176
     0
 90
        2
176
     1
  1
strokes_ogs.tif
176
     1
290
     0
176
     1
 40
1.0
176
     1
 40
1.0
176
     1
1001
ACAD
1000
AcDbSavedByObjectVersion
1070
     0
  0
VISUALSTYLE
  5
3B
102
{ACAD_REACTORS
330
29
102
}
330
29
100
AcDbVisualStyle
  2
Sketchy
 70
    24
177
     3
291
     0
 70
    58
 90
        1
176
     1
 90
        2
176
     1
 90
        2
176
     1
 90
        0
176
     1
 40
0.6
176
     1
 40
30.0
176
     1
 62
     7
420
 16777215
176
     1
 90
        2
176
     1
 90
        2
176
     1
 62
     7
176
     1
 62
     7
176
     1
 90
        1
176
     1
 90
        1
176
     1
 40
40.0
176
     1
 90
       11
176
     1
 62
     7
176
     1
 40
1.0
176
     1
 90
        1
176
     1
 90
        6
176
     1
 90
        2
176
     1
 62
     7
176
     1
 90
        6
176
     1
 90
        0
176
     1
 90
        0
176
     1
290
     0
176
     1
 90
        1
176
     1
 40
0.0
176
     1
 90
        0
176
     1
290
     0
176
     1
290
     1
176
     1
290
     1
176
     1
290
     0
176
     1
290
     0
176
     1
290
     0
176
     1
290
     0
176
     1
290
     0
176
     1
290
     0
176
     1
 90
       50
176
     1
 40
0.0
176
     1
 40
1.0
176
     1
 90
        0
176
     1
 62
    18
420
        0
176
     1
 90
       50
176
     1
 90
        3
176
     1
 62
     5
420
      255
176
     1
290
     0
176
     1
 90
       50
176
     1
 90
       50
176
     1
 90
       50
176
     1
290
     0
176
     1
 90
       50
176
     1
 62
   256
176
     0
 40
1.0
176
     0
 90
        2
176
     1
  1
strokes_ogs.tif
176
     1
290
     0
176
     1
 40
1.0
176
     1
 40
1.0
176
     1
1001
ACAD
1000
AcDbSavedByObjectVersion
1070
     0
  0
VISUALSTYLE
  5
36
102
{ACAD_REACTORS
330
29
102
}
330
29
100
AcDbVisualStyle
  2
Thicken
 70
    13
177
     3
291
     1
 70
    58
 90
        2
176
     1
 90
        2
176
     1
 90
        0
176
     1
 90
        0
176
     1
 40
0.6
176
     1
 40
30.0
176
     1
 62
     7
420
 16777215
176
     1
 90
        1
176
     1
 90
        4
176
     1
 62
     7
176
     1
 62
   257
176
     1
 90
        1
176
     1
 90
        1
176
     1
 40
1.0
176
     1
 90
       12
176
     1
 62
     7
176
     1
 40
1.0
176
     1
 90
        1
176
     1
 90
        6
176
     1
 90
        2
176
     1
 62
     7
176
     1
 90
        5
176
     1
 90
        0
176
     1
 90
        0
176
     1
290
     0
176
     1
 90
        1
176
     1
 40
0.0
176
     1
 90
        0
176
     1
290
     0
176
     1
290
     1
176
     1
290
     1
176
     1
290
     0
176
     1
290
     0
176
     1
290
     0
176
     1
290
     0
176
     1
290
     0
176
     1
290
     0
176
     1
 90
       50
176
     1
 40
0.0
176
     1
 40
1.0
176
     1
 90
        0
176
     1
 62
    18
420
        0
176
     1
 90
       50
176
     1
 90
        3
176
     1
 62
     5
420
      255
176
     1
290
     0
176
     1
 90
       50
176
     1
 90
       50
176
     1
 90
       50
176
     1
290
     0
176
     1
 90
       50
176
     1
 62
   256
176
     0
 40
1.0
176
     0
 90
        2
176
     1
  1
strokes_ogs.tif
176
     1
290
     0
176
     1
 40
1.0
176
     1
 40
1.0
176
     1
1001
ACAD
1000
AcDbSavedByObjectVersion
1070
     0
  0
VISUALSTYLE
  5
30
102
{ACAD_REACTORS
330
29
102
}
330
29
100
AcDbVisualStyle
  2
Wireframe
 70
     5
177
     3
291
     0
 70
    58
 90
        0
176
     1
 90
        2
176
     1
 90
        0
176
     1
 90
        0
176
     1
 40
0.6
176
     1
 40
30.0
176
     1
 62
     7
420
 16777215
176
     1
 90
        1
176
     1
 90
        4
176
     1
 62
     7
176
     1
 62
   257
176
     1
 90
        1
176
     1
 90
        1
176
     1
 40
1.0
176
     1
 90
        0
176
     1
 62
   257
176
     1
 40
1.0
176
     1
 90
        1
176
     1
 90
        6
176
     1
 90
        2
176
     1
 62
     7
176
     1
 90
        3
176
     1
 90
        0
176
     1
 90
        0
176
     1
290
     0
176
     1
 90
        1
176
     1
 40
0.0
176
     1
 90
        0
176
     1
290
     0
176
     1
290
     1
176
     1
290
     1
176
     1
290
     0
176
     1
290
     0
176
     1
290
     0
176
     1
290
     0
176
     1
290
     0
176
     1
290
     0
176
     1
 90
       50
176
     1
 40
0.0
176
     1
 40
1.0
176
     1
 90
        0
176
     1
 62
    18
420
        0
176
     1
 90
       50
176
     1
 90
        3
176
     1
 62
     5
420
      255
176
     1
290
     0
176
     1
 90
       50
176
     1
 90
       50
176
     1
 90
       50
176
     1
290
     0
176
     1
 90
       50
176
     1
 62
   256
176
     0
 40
1.0
176
     0
 90
        2
176
     1
  1
strokes_ogs.tif
176
     1
290
     0
176
     1
 40
1.0
176
     1
 40
1.0
176
     1
1001
ACAD
1000
AcDbSavedByObjectVersion
1070
     0
  0
VISUALSTYLE
  5
3C
102
{ACAD_REACTORS
330
29
102
}
330
29
100
AcDbVisualStyle
  2
X-Ray
 70
    25
177
     3
291
     0
 70
    58
 90
        2
176
     1
 90
        2
176
     1
 90
        1
176
     1
 90
        1
176
     1
 40
0.5
176
     1
 40
30.0
176
     1
 62
     7
420
 16777215
176
     1
 90
        1
176
     1
 90
        0
176
     1
 62
     7
176
     1
 62
   257
176
     1
 90
        1
176
     1
 90
        1
176
     1
 40
1.0
176
     1
 90
        8
176
     1
 62
     7
176
     1
 40
1.0
176
     1
 90
        1
176
     1
 90
        6
176
     1
 90
        2
176
     1
 62
     7
176
     1
 90
        3
176
     1
 90
        0
176
     1
 90
        0
176
     1
290
     0
176
     1
 90
       13
176
     1
 40
0.0
176
     1
 90
        0
176
     1
290
     0
176
     1
290
     1
176
     1
290
     1
176
     1
290
     0
176
     1
290
     0
176
     1
290
     0
176
     1
290
     0
176
     1
290
     0
176
     1
290
     0
176
     1
 90
       50
176
     1
 40
0.0
176
     1
 40
1.0
176
     1
 90
        0
176
     1
 62
    18
420
        0
176
     1
 90
       50
176
     1
 90
        3
176
     1
 62
     5
420
      255
176
     1
290
     0
176
     1
 90
       50
176
     1
 90
       50
176
     1
 90
       50
176
     1
290
     0
176
     1
 90
       50
176
     1
 62
   256
176
     0
 40
1.0
176
     0
 90
        2
176
     1
  1
strokes_ogs.tif
176
     1
290
     0
176
     1
 40
1.0
176
     1
 40
1.0
176
     1
1001
ACAD
1000
AcDbSavedByObjectVersion
1070
     0
  0
DICTIONARYVAR
  5
219
102
{ACAD_REACTORS
330
214
102
}
330
214
100
DictionaryVariables
280
     0
  1
1:1
  0
DICTIONARYVAR
  5
216
102
{ACAD_REACTORS
330
214
102
}
330
214
100
DictionaryVariables
280
     0
  1
STANDARD
  0
DICTIONARYVAR
  5
215
102
{ACAD_REACTORS
330
214
102
}
330
214
100
DictionaryVariables
280
     0
  1
STANDARD
  0
DICTIONARYVAR
  5
217
102
{ACAD_REACTORS
330
214
102
}
330
214
100
DictionaryVariables
280
     0
  1
Imperial24
  0
DICTIONARYVAR
  5
218
102
{ACAD_REACTORS
330
214
102
}
330
214
100
DictionaryVariables
280
     0
  1
Imperial24
  0
DICTIONARY
  5
21F
330
6B
100
AcDbDictionary
280
     1
281
     1
  3
ACAD_XREC_ROUNDTRIP
360
220
  0
DICTIONARY
  5
1A
330
19
100
AcDbDictionary
280
     1
281
     1
  3
BUMPTILE
360
1C
  3
DIFFUSETILE
360
1B
  3
OPACITYTILE
360
1F
  3
REFLECTIONTILE
360
1E
  3
REFRACTIONTILE
360
20
  3
SPECULARTILE
360
1D
  0
DICTIONARY
  5
12
330
11
100
AcDbDictionary
280
     1
281
     1
  3
BUMPTILE
360
14
  3
DIFFUSETILE
360
13
  3
OPACITYTILE
360
17
  3
REFLECTIONTILE
360
16
  3
REFRACTIONTILE
360
18
  3
SPECULARTILE
360
15
  0
DICTIONARY
  5
22
330
21
100
AcDbDictionary
280
     1
281
     1
  3
BUMPTILE
360
24
  3
DIFFUSETILE
360
23
  3
OPACITYTILE
360
27
  3
REFLECTIONTILE
360
26
  3
REFRACTIONTILE
360
28
  3
SPECULARTILE
360
25
  0
DICTIONARY
  5
21D
330
69
100
AcDbDictionary
280
     1
281
     1
  3
ACAD_XREC_ROUNDTRIP
360
21E
  0
DICTIONARY
  5
21A
330
65
100
AcDbDictionary
280
     1
281
     1
  3
ACAD_ROUNDTRIP_2008_TABLESTYLE_CELLSTYLEMAP
360
21B
  0
XRECORD
  5
220
102
{ACAD_REACTORS
330
21F
102
}
330
21F
100
AcDbXrecord
280
     1
102
DISPLAYNAME
  1
Imperial24
102
FLAGS
 90
        0
  0
XRECORD
  5
1C
102
{ACAD_REACTORS
330
1A
102
}
330
1A
100
AcDbXrecord
280
     1
270
     1
271
     1
  0
XRECORD
  5
1B
102
{ACAD_REACTORS
330
1A
102
}
330
1A
100
AcDbXrecord
280
     1
270
     1
271
     1
  0
XRECORD
  5
1F
102
{ACAD_REACTORS
330
1A
102
}
330
1A
100
AcDbXrecord
280
     1
270
     1
271
     1
  0
XRECORD
  5
1E
102
{ACAD_REACTORS
330
1A
102
}
330
1A
100
AcDbXrecord
280
     1
270
     1
271
     1
  0
XRECORD
  5
20
102
{ACAD_REACTORS
330
1A
102
}
330
1A
100
AcDbXrecord
280
     1
270
     1
271
     1
  0
XRECORD
  5
1D
102
{ACAD_REACTORS
330
1A
102
}
330
1A
100
AcDbXrecord
280
     1
270
     1
271
     1
  0
XRECORD
  5
14
102
{ACAD_REACTORS
330
12
102
}
330
12
100
AcDbXrecord
280
     1
270
     1
271
     1
  0
XRECORD
  5
13
102
{ACAD_REACTORS
330
12
102
}
330
12
100
AcDbXrecord
280
     1
270
     1
271
     1
  0
XRECORD
  5
17
102
{ACAD_REACTORS
330
12
102
}
330
12
100
AcDbXrecord
280
     1
270
     1
271
     1
  0
XRECORD
  5
16
102
{ACAD_REACTORS
330
12
102
}
330
12
100
AcDbXrecord
280
     1
270
     1
271
     1
  0
XRECORD
  5
18
102
{ACAD_REACTORS
330
12
102
}
330
12
100
AcDbXrecord
280
     1
270
     1
271
     1
  0
XRECORD
  5
15
102
{ACAD_REACTORS
330
12
102
}
330
12
100
AcDbXrecord
280
     1
270
     1
271
     1
  0
XRECORD
  5
24
102
{ACAD_REACTORS
330
22
102
}
330
22
100
AcDbXrecord
280
     1
270
     1
271
     1
  0
XRECORD
  5
23
102
{ACAD_REACTORS
330
22
102
}
330
22
100
AcDbXrecord
280
     1
270
     1
271
     1
  0
XRECORD
  5
27
102
{ACAD_REACTORS
330
22
102
}
330
22
100
AcDbXrecord
280
     1
270
     1
271
     1
  0
XRECORD
  5
26
102
{ACAD_REACTORS
330
22
102
}
330
22
100
AcDbXrecord
280
     1
270
     1
271
     1
  0
XRECORD
  5
28
102
{ACAD_REACTORS
330
22
102
}
330
22
100
AcDbXrecord
280
     1
270
     1
271
     1
  0
XRECORD
  5
25
102
{ACAD_REACTORS
330
22
102
}
330
22
100
AcDbXrecord
280
     1
270
     1
271
     1
  0
XRECORD
  5
21E
102
{ACAD_REACTORS
330
21D
102
}
330
21D
100
AcDbXrecord
280
     1
102
DISPLAYNAME
  1
Imperial24
102
FLAGS
 90
        0
  0
CELLSTYLEMAP
  5
21B
102
{ACAD_REACTORS
330
21A
102
}
330
21A
100
AcDbCellStyleMap
 90
        3
300
CELLSTYLE
  1
TABLEFORMAT_BEGIN
 90
        5
170
     1
 91
        0
 92
    32768
 62
   257
 93
        1
300
CONTENTFORMAT
  1
CONTENTFORMAT_BEGIN
 90
        0
 91
        0
 92
      512
 93
        0
300

 40
0.0
140
1.0
 94
        5
 62
     0
340
55
144
0.25
309
CONTENTFORMAT_END
171
     0
 94
        0
309
TABLEFORMAT_END
  1
CELLSTYLE_BEGIN
 90
        1
 91
        1
300
_TITLE
309
CELLSTYLE_END
300
CELLSTYLE
  1
TABLEFORMAT_BEGIN
 90
        5
170
     1
 91
        0
 92
        0
 62
   257
 93
        1
300
CONTENTFORMAT
  1
CONTENTFORMAT_BEGIN
 90
        0
 91
        0
 92
      512
 93
        0
300

 40
0.0
140
1.0
 94
        5
 62
     0
340
55
144
0.18
309
CONTENTFORMAT_END
171
     0
 94
        0
309
TABLEFORMAT_END
  1
CELLSTYLE_BEGIN
 90
        2
 91
        1
300
_HEADER
309
CELLSTYLE_END
300
CELLSTYLE
  1
TABLEFORMAT_BEGIN
 90
        5
170
     1
 91
        0
 92
        0
 62
   257
 93
        1
300
CONTENTFORMAT
  1
CONTENTFORMAT_BEGIN
 90
        0
 91
        0
 92
      512
 93
        0
300

 40
0.0
140
1.0
 94
        2
 62
     0
340
55
144
0.18
309
CONTENTFORMAT_END
171
     0
 94
        0
309
TABLEFORMAT_END
  1
CELLSTYLE_BEGIN
 90
        3
 91
        2
300
_DATA
309
CELLSTYLE_END
  0
ENDSEC
  0
EOF
