  0
SECTION
  2
HEADER
  9
$ACADVER
  1
AC1027
  9
$ACADMAINTVER
 70
   125
  9
$DWGCODEPAGE
  3
ANSI_1252
  9
$REQUIREDVERSIONS
160
                 0
  9
$INSBASE
 10
0.0
 20
0.0
 30
0.0
  9
$EXTMIN
 10
1.000000000000000E+20
 20
1.000000000000000E+20
 30
1.000000000000000E+20
  9
$EXTMAX
 10
-1.000000000000000E+20
 20
-1.000000000000000E+20
 30
-1.000000000000000E+20
  9
$LIMMIN
 10
0.0
 20
0.0
  9
$LIMMAX
 10
12.0
 20
9.0
  9
$ORTHOMODE
 70
     0
  9
$REGENMODE
 70
     1
  9
$FILLMODE
 70
     1
  9
$QTEXTMODE
 70
     0
  9
$MIRRTEXT
 70
     0
  9
$LTSCALE
 40
1.0
  9
$ATTMODE
 70
     1
  9
$TEXTSIZE
 40
0.2
  9
$TRACEWID
 40
0.05
  9
$TEXTSTYLE
  7
Standard
  9
$CLAYER
  8
0
  9
$CELTYPE
  6
ByLayer
  9
$CECOLOR
 62
   256
  9
$CELTSCALE
 40
1.0
  9
$DISPSILH
 70
     0
  9
$DIMSCALE
 40
1.0
  9
$DIMASZ
 40
0.18
  9
$DIMEXO
 40
0.0625
  9
$DIMDLI
 40
0.38
  9
$DIMRND
 40
0.0
  9
$DIMDLE
 40
0.0
  9
$DIMEXE
 40
0.18
  9
$DIMTP
 40
0.0
  9
$DIMTM
 40
0.0
  9
$DIMTXT
 40
0.18
  9
$DIMCEN
 40
0.09
  9
$DIMTSZ
 40
0.0
  9
$DIMTOL
 70
     0
  9
$DIMLIM
 70
     0
  9
$DIMTIH
 70
     1
  9
$DIMTOH
 70
     1
  9
$DIMSE1
 70
     0
  9
$DIMSE2
 70
     0
  9
$DIMTAD
 70
     0
  9
$DIMZIN
 70
     0
  9
$DIMBLK
  1

  9
$DIMASO
 70
     1
  9
$DIMSHO
 70
     1
  9
$DIMPOST
  1

  9
$DIMAPOST
  1

  9
$DIMALT
 70
     0
  9
$DIMALTD
 70
     2
  9
$DIMALTF
 40
25.4
  9
$DIMLFAC
 40
1.0
  9
$DIMTOFL
 70
     0
  9
$DIMTVP
 40
0.0
  9
$DIMTIX
 70
     0
  9
$DIMSOXD
 70
     0
  9
$DIMSAH
 70
     0
  9
$DIMBLK1
  1

  9
$DIMBLK2
  1

  9
$DIMSTYLE
  2
Standard
  9
$DIMCLRD
 70
     0
  9
$DIMCLRE
 70
     0
  9
$DIMCLRT
 70
     0
  9
$DIMTFAC
 40
1.0
  9
$DIMGAP
 40
0.09
  9
$DIMJUST
 70
     0
  9
$DIMSD1
 70
     0
  9
$DIMSD2
 70
     0
  9
$DIMTOLJ
 70
     1
  9
$DIMTZIN
 70
     0
  9
$DIMALTZ
 70
     0
  9
$DIMALTTZ
 70
     0
  9
$DIMUPT
 70
     0
  9
$DIMDEC
 70
     4
  9
$DIMTDEC
 70
     4
  9
$DIMALTU
 70
     2
  9
$DIMALTTD
 70
     2
  9
$DIMTXSTY
  7
Standard
  9
$DIMAUNIT
 70
     0
  9
$DIMADEC
 70
     0
  9
$DIMALTRND
 40
0.0
  9
$DIMAZIN
 70
     0
  9
$DIMDSEP
 70
    46
  9
$DIMATFIT
 70
     3
  9
$DIMFRAC
 70
     0
  9
$DIMLDRBLK
  1

  9
$DIMLUNIT
 70
     2
  9
$DIMLWD
 70
    -2
  9
$DIMLWE
 70
    -2
  9
$DIMTMOVE
 70
     0
  9
$DIMFXL
 40
1.0
  9
$DIMFXLON
 70
     0
  9
$DIMJOGANG
 40
0.7853981633974483
  9
$DIMTFILL
 70
     0
  9
$DIMTFILLCLR
 70
     0
  9
$DIMARCSYM
 70
     0
  9
$DIMLTYPE
  6

  9
$DIMLTEX1
  6

  9
$DIMLTEX2
  6

  9
$DIMTXTDIRECTION
 70
     0
  9
$LUNITS
 70
     2
  9
$LUPREC
 70
     4
  9
$SKETCHINC
 40
0.1
  9
$FILLETRAD
 40
0.0
  9
$AUNITS
 70
     0
  9
$AUPREC
 70
     0
  9
$MENU
  1
.
  9
$ELEVATION
 40
0.0
  9
$PELEVATION
 40
0.0
  9
$THICKNESS
 40
0.0
  9
$LIMCHECK
 70
     0
  9
$CHAMFERA
 40
0.0
  9
$CHAMFERB
 40
0.0
  9
$CHAMFERC
 40
0.0
  9
$CHAMFERD
 40
0.0
  9
$SKPOLY
 70
     0
  9
$TDCREATE
 40
2461215.969907407
  9
$TDUCREATE
 40
2461215.969907407
  9
$TDUPDATE
 40
2461215.969907407
  9
$TDUUPDATE
 40
2461215.969907407
  9
$TDINDWG
 40
0.0000000000
  9
$TDUSRTIMER
 40
0.0000000000
  9
$USRTIMER
 70
     1
  9
$ANGBASE
 50
0.0
  9
$ANGDIR
 70
     0
  9
$PDMODE
 70
     0
  9
$PDSIZE
 40
0.0
  9
$PLINEWID
 40
0.0
  9
$SPLFRAME
 70
     0
  9
$SPLINETYPE
 70
     6
  9
$SPLINESEGS
 70
     8
  9
$HANDSEED
  5
23D
  9
$SURFTAB1
 70
     6
  9
$SURFTAB2
 70
     6
  9
$SURFTYPE
 70
     6
  9
$SURFU
 70
     6
  9
$SURFV
 70
     6
  9
$UCSBASE
  2

  9
$UCSNAME
  2

  9
$UCSORG
 10
0.0
 20
0.0
 30
0.0
  9
$UCSXDIR
 10
1.0
 20
0.0
 30
0.0
  9
$UCSYDIR
 10
0.0
 20
1.0
 30
0.0
  9
$UCSORTHOREF
  2

  9
$UCSORTHOVIEW
 70
     0
  9
$UCSORGTOP
 10
0.0
 20
0.0
 30
0.0
  9
$UCSORGBOTTOM
 10
0.0
 20
0.0
 30
0.0
  9
$UCSORGLEFT
 10
0.0
 20
0.0
 30
0.0
  9
$UCSORGRIGHT
 10
0.0
 20
0.0
 30
0.0
  9
$UCSORGFRONT
 10
0.0
 20
0.0
 30
0.0
  9
$UCSORGBACK
 10
0.0
 20
0.0
 30
0.0
  9
$PUCSBASE
  2

  9
$PUCSNAME
  2

  9
$PUCSORG
 10
0.0
 20
0.0
 30
0.0
  9
$PUCSXDIR
 10
1.0
 20
0.0
 30
0.0
  9
$PUCSYDIR
 10
0.0
 20
1.0
 30
0.0
  9
$PUCSORTHOREF
  2

  9
$PUCSORTHOVIEW
 70
     0
  9
$PUCSORGTOP
 10
0.0
 20
0.0
 30
0.0
  9
$PUCSORGBOTTOM
 10
0.0
 20
0.0
 30
0.0
  9
$PUCSORGLEFT
 10
0.0
 20
0.0
 30
0.0
  9
$PUCSORGRIGHT
 10
0.0
 20
0.0
 30
0.0
  9
$PUCSORGFRONT
 10
0.0
 20
0.0
 30
0.0
  9
$PUCSORGBACK
 10
0.0
 20
0.0
 30
0.0
  9
$USERI1
 70
     0
  9
$USERI2
 70
     0
  9
$USERI3
 70
     0
  9
$USERI4
 70
     0
  9
$USERI5
 70
     0
  9
$USERR1
 40
0.0
  9
$USERR2
 40
0.0
  9
$USERR3
 40
0.0
  9
$USERR4
 40
0.0
  9
$USERR5
 40
0.0
  9
$WORLDVIEW
 70
     1
  9
$SHADEDGE
 70
     3
  9
$SHADEDIF
 70
    70
  9
$TILEMODE
 70
     1
  9
$MAXACTVP
 70
    64
  9
$PINSBASE
 10
0.0
 20
0.0
 30
0.0
  9
$PLIMCHECK
 70
     0
  9
$PEXTMIN
 10
1.000000000000000E+20
 20
1.000000000000000E+20
 30
1.000000000000000E+20
  9
$PEXTMAX
 10
-1.000000000000000E+20
 20
-1.000000000000000E+20
 30
-1.000000000000000E+20
  9
$PLIMMIN
 10
0.0
 20
0.0
  9
$PLIMMAX
 10
12.0
 20
9.0
  9
$UNITMODE
 70
     0
  9
$VISRETAIN
 70
     1
  9
$PLINEGEN
 70
     0
  9
$PSLTSCALE
 70
     1
  9
$TREEDEPTH
 70
  3020
  9
$CMLSTYLE
  2
Standard
  9
$CMLJUST
 70
     0
  9
$CMLSCALE
 40
1.0
  9
$PROXYGRAPHICS
 70
     1
  9
$MEASUREMENT
 70
     0
  9
$CELWEIGHT
370
    -1
  9
$ENDCAPS
280
     0
  9
$JOINSTYLE
280
     0
  9
$LWDISPLAY
290
     0
  9
$INSUNITS
 70
     5
  9
$HYPERLINKBASE
  1

  9
$STYLESHEET
  1

  9
$XEDIT
290
     1
  9
$CEPSNTYPE
380
     0
  9
$PSTYLEMODE
290
     1
  9
$FINGERPRINTGUID
  2
{76A10136-4026-5E42-9252-285EDD1F5E7D}
  9
$VERSIONGUID
  2
{68A69342-CC85-CC49-B130-96EE887B1B8B}
  9
$EXTNAMES
290
     1
  9
$PSVPSCALE
 40
0.0
  9
$OLESTARTUP
290
     0
  9
$SORTENTS
280
   127
  9
$INDEXCTL
280
     0
  9
$HIDETEXT
280
     1
  9
$XCLIPFRAME
280
     2
  9
$HALOGAP
280
     0
  9
$OBSCOLOR
 70
   257
  9
$OBSLTYPE
280
     0
  9
$INTERSECTIONDISPLAY
280
     0
  9
$INTERSECTIONCOLOR
 70
   257
  9
$DIMASSOC
280
     2
  9
$PROJECTNAME
  1

  9
$CAMERADISPLAY
290
     0
  9
$LENSLENGTH
 40
50.0
  9
$CAMERAHEIGHT
 40
0.0
  9
$STEPSPERSEC
 40
2.0
  9
$STEPSIZE
 40
6.0
  9
$3DDWFPREC
 40
2.0
  9
$PSOLWIDTH
 40
0.25
  9
$PSOLHEIGHT
 40
4.0
  9
$LOFTANG1
 40
1.570796326794896
  9
$LOFTANG2
 40
1.570796326794896
  9
$LOFTMAG1
 40
0.0
  9
$LOFTMAG2
 40
0.0
  9
$LOFTPARAM
 70
     7
  9
$LOFTNORMALS
280
     1
  9
$LATITUDE
 40
37.795
  9
$LONGITUDE
 40
-122.394
  9
$NORTHDIRECTION
 40
0.0
  9
$TIMEZONE
 70
 -8000
  9
$LIGHTGLYPHDISPLAY
280
     1
  9
$TILEMODELIGHTSYNCH
280
     1
  9
$CMATERIAL
347
11
  9
$SOLIDHIST
280
     0
  9
$SHOWHIST
280
     1
  9
$DWFFRAME
280
     2
  9
$DGNFRAME
280
     0
  9
$REALWORLDSCALE
290
     1
  9
$INTERFERECOLOR
 62
     1
  9
$INTERFEREOBJVS
345
33
  9
$INTERFEREVPVS
346
30
  9
$CSHADOW
280
     0
  9
$SHADOWPLANELOCATION
 40
0.0
  0
ENDSEC
  0
SECTION
  2
CLASSES
  0
CLASS
  1
ACDBDICTIONARYWDFLT
  2
AcDbDictionaryWithDefault
  3
ObjectDBX Classes
 90
        0
 91
        1
280
     0
281
     0
  0
CLASS
  1
MATERIAL
  2
AcDbMaterial
  3
ObjectDBX Classes
 90
     1153
 91
        3
280
     0
281
     0
  0
CLASS
  1
VISUALSTYLE
  2
AcDbVisualStyle
  3
ObjectDBX Classes
 90
     4095
 91
       24
280
     0
281
     0
  0
CLASS
  1
SCALE
  2
AcDbScale
  3
ObjectDBX Classes
 90
     1153
 91
       17
280
     0
281
     0
  0
CLASS
  1
TABLESTYLE
  2
AcDbTableStyle
  3
ObjectDBX Classes
 90
     4095
 91
        1
280
     0
281
     0
  0
CLASS
  1
MLEADERSTYLE
  2
AcDbMLeaderStyle
  3
ACDB_MLEADERSTYLE_CLASS
 90
     4095
 91
        1
280
     0
281
     0
  0
CLASS
  1
ACDBSECTIONVIEWSTYLE
  2
AcDbSectionViewStyle
  3
ObjectDBX Classes
 90
     1025
 91
        1
280
     0
281
     0
  0
CLASS
  1
ACDBDETAILVIEWSTYLE
  2
AcDbDetailViewStyle
  3
ObjectDBX Classes
 90
     1025
 91
        1
280
     0
281
     0
  0
CLASS
  1
DICTIONARYVAR
  2
AcDbDictionaryVar
  3
ObjectDBX Classes
 90
        0
 91
        5
280
     0
281
     0
  0
CLASS
  1
CELLSTYLEMAP
  2
AcDbCellStyleMap
  3
ObjectDBX Classes
 90
     1152
 91
        1
280
     0
281
     0
  0
ENDSEC
  0
SECTION
  2
TABLES
  0
TABLE
  2
VPORT
  5
8
330
0
100
AcDbSymbolTable
 70
     1
1001
ACAD
1000
DbSaveVer
1071
      471
  0
VPORT
  5
57
330
8
100
AcDbSymbolTableRecord
100
AcDbViewportTableRecord
  2
*Active
 70
     0
 10
0.0
 20
0.0
 11
1.0
 21
1.0
 12
500.0
 22
500.0
 13
0.0
 23
0.0
 14
1.0
 24
1.0
 15
0.0
 25
0.0
 16
0.0
 26
0.0
 36
1.0
 17
0.0
 27
0.0
 37
0.0
 40
12.0
 41
1.0
 42
50.0
 43
0.0
 44
0.0
 50
0.0
 51
0.0
 71
     0
 72
   100
 73
     1
 74
     1
 75
     0
 76
     0
 77
     0
 78
     0
281
     0
 65
     1
110
0.0
120
0.0
130
0.0
111
1.0
121
0.0
131
0.0
112
0.0
122
1.0
132
0.0
 79
     0
146
0.0
 60
     3
 61
     5
292
     1
282
     1
141
0.0
142
0.0
 63
   250
421
  3355443
  0
ENDTAB
  0
TABLE
  2
LTYPE
  5
5
330
0
100
AcDbSymbolTable
 70
     1
  0
LTYPE
  5
5B
330
5
100
AcDbSymbolTableRecord
100
AcDbLinetypeTableRecord
  2
ByBlock
 70
     0
  3

 72
    65
 73
     0
 40
0.0
  0
LTYPE
  5
5C
330
5
100
AcDbSymbolTableRecord
100
AcDbLinetypeTableRecord
  2
ByLayer
 70
     0
  3

 72
    65
 73
     0
 40
0.0
  0
LTYPE
  5
5D
330
5
100
AcDbSymbolTableRecord
100
AcDbLinetypeTableRecord
  2
Continuous
 70
     0
  3
Solid line
 72
    65
 73
     0
 40
0.0
  0
ENDTAB
  0
TABLE
  2
LAYER
  5
2
330
0
100
AcDbSymbolTable
 70
     3
  0
LAYER
  5
54
330
2
100
AcDbSymbolTableRecord
100
AcDbLayerTableRecord
  2
0
 70
     0
 62
     7
  6
Continuous
370
    -3
390
F
347
21
348
0
  0
LAYER
  5
7A
330
2
100
AcDbSymbolTableRecord
100
AcDbLayerTableRecord
  2
W-S-A v1_1_ANYTOOL_1MMDEEP_LABELS_S
 70
     0
 62
     7
  6
Continuous
370
    -3
390
F
347
21
348
0
1001
NFusion_SketchTransform
1000
1.000000;0.000000;0.000000;0.000000;0.000000;1.000000;0.000000;0.000000;0.000000;0.000000;1.000000;0.000000;0.000000;0.000000;0.000000;1.000000
  0
LAYER
  5
7B
330
2
100
AcDbSymbolTableRecord
100
AcDbLayerTableRecord
  2
W-S-A v1_4_ANYTOOL_CUTTHROUGH_OUTSI
 70
     0
 62
     7
  6
Continuous
370
    -3
390
F
347
21
348
0
1001
NFusion_SketchTransform
1000
1.000000;0.000000;0.000000;0.000000;0.000000;1.000000;0.000000;0.000000;0.000000;0.000000;1.000000;0.000000;0.000000;0.000000;0.000000;1.000000
  0
ENDTAB
  0
TABLE
  2
STYLE
  5
3
330
0
100
AcDbSymbolTable
 70
     2
  0
STYLE
  5
55
330
3
100
AcDbSymbolTableRecord
100
AcDbTextStyleTableRecord
  2
Standard
 70
     0
 40
0.0
 41
1.0
 50
0.0
 71
     0
 42
0.2
  3
txt
  4

  0
STYLE
  5
5A
330
3
100
AcDbSymbolTableRecord
100
AcDbTextStyleTableRecord
  2
Annotative
 70
     0
 40
0.0
 41
1.0
 50
0.0
 71
     0
 42
0.2
  3
txt
  4

1001
AcadAnnotative
1000
AnnotativeData
1002
{
1070
     1
1070
     1
1002
}
  0
ENDTAB
  0
TABLE
  2
VIEW
  5
6
330
0
100
AcDbSymbolTable
 70
     0
  0
ENDTAB
  0
TABLE
  2
UCS
  5
7
330
0
100
AcDbSymbolTable
 70
     0
  0
ENDTAB
  0
TABLE
  2
APPID
  5
9
330
0
100
AcDbSymbolTable
 70
     4
  0
APPID
  5
56
330
9
100
AcDbSymbolTableRecord
100
AcDbRegAppTableRecord
  2
ACAD
 70
     0
  0
APPID
  5
5E
330
9
100
AcDbSymbolTableRecord
100
AcDbRegAppTableRecord
  2
AcadAnnotative
 70
     0
  0
APPID
  5
78
330
9
100
AcDbSymbolTableRecord
100
AcDbRegAppTableRecord
  2
EDIT_IN_FUSION_ACAD_ADDIN
 70
     0
  0
APPID
  5
79
330
9
100
AcDbSymbolTableRecord
100
AcDbRegAppTableRecord
  2
NFusion_SketchTransform
 70
     0
  0
ENDTAB
  0
TABLE
  2
DIMSTYLE
  5
A
330
0
100
AcDbSymbolTable
 70
     2
100
AcDbDimStyleTable
 71
     0
  0
DIMSTYLE
105
58
330
A
100
AcDbSymbolTableRecord
100
AcDbDimStyleTableRecord
  2
Standard
 70
     0
340
55
  0
DIMSTYLE
105
59
330
A
100
AcDbSymbolTableRecord
100
AcDbDimStyleTableRecord
  2
Annotative
 70
     0
340
55
1001
AcadAnnotative
1000
AnnotativeData
1002
{
1070
     1
1070
     1
1002
}
  0
ENDTAB
  0
TABLE
  2
BLOCK_RECORD
  5
1
330
0
100
AcDbSymbolTable
 70
     1
  0
BLOCK_RECORD
  5
70
330
1
100
AcDbSymbolTableRecord
100
AcDbBlockTableRecord
  2
*Model_Space
340
73
 70
     0
280
     1
281
     0
  0
BLOCK_RECORD
  5
6C
330
1
100
AcDbSymbolTableRecord
100
AcDbBlockTableRecord
  2
*Paper_Space
340
6F
 70
     0
280
     1
281
     0
  0
BLOCK_RECORD
  5
74
330
1
100
AcDbSymbolTableRecord
100
AcDbBlockTableRecord
  2
*Paper_Space0
340
77
 70
     0
280
     1
281
     0
  0
ENDTAB
  0
ENDSEC
  0
SECTION
  2
BLOCKS
  0
BLOCK
  5
71
330
70
100
AcDbEntity
  8
0
100
AcDbBlockBegin
  2
*Model_Space
 70
     0
 10
0.0
 20
0.0
 30
0.0
  3
*Model_Space
  1

  0
ENDBLK
  5
72
330
70
100
AcDbEntity
  8
0
100
AcDbBlockEnd
  0
BLOCK
  5
6D
330
6C
100
AcDbEntity
 67
     1
  8
0
100
AcDbBlockBegin
  2
*Paper_Space
 70
     0
 10
0.0
 20
0.0
 30
0.0
  3
*Paper_Space
  1

  0
ENDBLK
  5
6E
330
6C
100
AcDbEntity
 67
     1
  8
0
100
AcDbBlockEnd
  0
BLOCK
  5
75
330
74
100
AcDbEntity
 67
     1
  8
0
100
AcDbBlockBegin
  2
*Paper_Space0
 70
     0
 10
0.0
 20
0.0
 30
0.0
  3
*Paper_Space0
  1

  0
ENDBLK
  5
76
330
74
100
AcDbEntity
 67
     1
  8
0
100
AcDbBlockEnd
  0
ENDSEC
  0
SECTION
  2
ENTITIES
  0
ARC
  5
7C
330
70
100
AcDbEntity
  8
W-S-A v1_4_ANYTOOL_CUTTHROUGH_OUTSI
100
AcDbCircle
 10
22.5574999999967
 20
-6.977499999999806
 30
0.0
 40
0.0025000000000958
210
0.0
220
0.0
230
-1.0
100
AcDbArc
 50
359.9999999988805
 51
89.99999999780159
  0
LINE
  5
7D
330
70
100
AcDbEntity
  8
W-S-A v1_4_ANYTOOL_CUTTHROUGH_OUTSI
100
AcDbLine
 10
-25.90999999999625
 20
-7.417500000000146
 30
0.0
 11
-25.90999999999622
 21
-7.655000000000001
 31
0.0
  0
LINE
  5
7E
330
70
100
AcDbEntity
  8
W-S-A v1_4_ANYTOOL_CUTTHROUGH_OUTSI
100
AcDbLine
 10
-28.30499999999673
 20
-6.480000000000291
 30
0.0
 11
-28.30499999999662
 21
-6.975000000000146
 31
0.0
  0
LINE
  5
7F
330
70
100
AcDbEntity
  8
W-S-A v1_4_ANYTOOL_CUTTHROUGH_OUTSI
100
AcDbLine
 10
-25.9099999999964
 20
-5.800000000000292
 30
0.0
 11
-25.9099999999964
 21
-6.037500000000146
 31
0.0
  0
LINE
  5
80
330
70
100
AcDbEntity
  8
W-S-A v1_4_ANYTOOL_CUTTHROUGH_OUTSI
100
AcDbLine
 10
-25.90999999999622
 20
-7.655000000000001
 30
0.0
 11
-24.71499999999626
 21
-7.654999999999855
 31
0.0
  0
LINE
  5
81
330
70
100
AcDbEntity
  8
W-S-A v1_4_ANYTOOL_CUTTHROUGH_OUTSI
100
AcDbLine
 10
-24.58999999999618
 20
-7.417499999999855
 30
0.0
 11
-24.58999999999626
 21
-7.47499999999971
 31
0.0
  0
ARC
  5
82
330
70
100
AcDbEntity
  8
W-S-A v1_4_ANYTOOL_CUTTHROUGH_OUTSI
100
AcDbCircle
 10
22.55749999999665
 20
-7.097499999999663
 30
0.0
 40
0.0025000000001917
210
0.0
220
0.0
230
-1.0
100
AcDbArc
 50
270.0000000035826
 51
359.9999999956032
  0
LINE
  5
83
330
70
100
AcDbEntity
  8
W-S-A v1_4_ANYTOOL_CUTTHROUGH_OUTSI
100
AcDbLine
 10
-22.4999999999968
 20
-7.099999999999855
 30
0.0
 11
-22.5574999999968
 21
-7.099999999999855
 31
0.0
  0
LINE
  5
84
330
70
100
AcDbEntity
  8
W-S-A v1_4_ANYTOOL_CUTTHROUGH_OUTSI
100
AcDbLine
 10
-26.03499999999626
 20
-7.475000000000146
 30
0.0
 11
-26.03499999999626
 21
-7.417500000000146
 31
0.0
  0
ARC
  5
85
330
70
100
AcDbEntity
  8
W-S-A v1_4_ANYTOOL_CUTTHROUGH_OUTSI
100
AcDbCircle
 10
24.59249999999674
 20
-6.037499999999949
 30
0.0
 40
0.0025000000003417
210
0.0
220
0.0
230
-1.0
100
AcDbArc
 50
180.0000000078369
 51
269.9999999921835
  0
LINE
  5
86
330
70
100
AcDbEntity
  8
W-S-A v1_4_ANYTOOL_CUTTHROUGH_OUTSI
100
AcDbLine
 10
-24.5924999999964
 20
-6.040000000000291
 30
0.0
 11
-24.7124999999964
 21
-6.040000000000146
 31
0.0
  0
ARC
  5
87
330
70
100
AcDbEntity
  8
W-S-A v1_4_ANYTOOL_CUTTHROUGH_OUTSI
100
AcDbCircle
 10
24.71249999999657
 20
-6.037500000000392
 30
0.0
 40
0.0024999999997536
210
0.0
220
0.0
230
-1.0
100
AcDbArc
 50
269.9999999960103
 51
0.0000000056384873
  0
LINE
  5
88
330
70
100
AcDbEntity
  8
W-S-A v1_4_ANYTOOL_CUTTHROUGH_OUTSI
100
AcDbLine
 10
-28.30499999999662
 20
-6.975000000000146
 30
0.0
 11
-28.06749999999662
 21
-6.975000000000146
 31
0.0
  0
ARC
  5
89
330
70
100
AcDbEntity
  8
W-S-A v1_4_ANYTOOL_CUTTHROUGH_OUTSI
100
AcDbCircle
 10
-25.86126094805781
 20
-6.337254637866741
 30
0.0
 40
0.059999999999976
100
AcDbArc
 50
89.99999999997966
 51
180.0000000003121
  0
ARC
  5
8A
330
70
100
AcDbEntity
  8
W-S-A v1_4_ANYTOOL_CUTTHROUGH_OUTSI
100
AcDbCircle
 10
25.36126094805785
 20
-7.06575463786697
 30
0.0
 40
0.0600000000000728
210
0.0
220
0.0
230
-1.0
100
AcDbArc
 50
73.37705248439141
 51
106.6229475156053
  0
LINE
  5
8B
330
70
100
AcDbEntity
  8
W-S-A v1_4_ANYTOOL_CUTTHROUGH_OUTSI
100
AcDbLine
 10
-25.34409661833959
 20
-7.008262153268269
 30
0.0
 11
-24.8612609480581
 21
-7.177254637866771
 31
0.0
  0
LINE
  5
8C
330
70
100
AcDbEntity
  8
W-S-A v1_4_ANYTOOL_CUTTHROUGH_OUTSI
100
AcDbLine
 10
-24.86126094805779
 20
-6.277254637866764
 30
0.0
 11
-25.34409661833889
 21
-6.446247122465262
 31
0.0
  0
LINE
  5
8D
330
70
100
AcDbEntity
  8
W-S-A v1_4_ANYTOOL_CUTTHROUGH_OUTSI
100
AcDbLine
 10
-24.58999999999626
 20
-7.47499999999971
 30
0.0
 11
-22.49999999999709
 21
-7.47499999999971
 31
0.0
  0
ARC
  5
8E
330
70
100
AcDbEntity
  8
W-S-A v1_4_ANYTOOL_CUTTHROUGH_OUTSI
100
AcDbCircle
 10
24.59249999999626
 20
-7.41749999999994
 30
0.0
 40
0.0025000000000842
210
0.0
220
0.0
230
-1.0
100
AcDbArc
 50
90.00000000024426
 51
179.9999999980662
  0
ARC
  5
8F
330
70
100
AcDbEntity
  8
W-S-A v1_4_ANYTOOL_CUTTHROUGH_OUTSI
100
AcDbCircle
 10
28.0674999999967
 20
-6.357499999999975
 30
0.0
 40
0.0024999999998285
210
0.0
220
0.0
230
-1.0
100
AcDbArc
 50
89.99999999690595
 51
180.0000000006106
  0
LINE
  5
90
330
70
100
AcDbEntity
  8
W-S-A v1_4_ANYTOOL_CUTTHROUGH_OUTSI
100
AcDbLine
 10
-24.80126094805779
 20
-7.11725459589546
 30
0.0
 11
-24.80126094800879
 21
-6.995894248222652
 31
0.0
  0
LINE
  5
91
330
70
100
AcDbEntity
  8
W-S-A v1_4_ANYTOOL_CUTTHROUGH_OUTSI
100
AcDbLine
 10
-24.71499999999626
 20
-7.654999999999855
 30
0.0
 11
-24.71499999999626
 21
-7.417499999999855
 31
0.0
  0
ARC
  5
92
330
70
100
AcDbEntity
  8
W-S-A v1_4_ANYTOOL_CUTTHROUGH_OUTSI
100
AcDbCircle
 10
25.91249999999677
 20
-6.03749999999963
 30
0.0
 40
0.0025000000003706
210
0.0
220
0.0
230
-1.0
100
AcDbArc
 50
180.0000000118266
 51
269.9999999914507
  0
LINE
  5
93
330
70
100
AcDbEntity
  8
W-S-A v1_4_ANYTOOL_CUTTHROUGH_OUTSI
100
AcDbLine
 10
-22.31999999999672
 20
-6.97499999999971
 30
0.0
 11
-22.31999999999684
 21
-6.479999999999855
 31
0.0
  0
LINE
  5
94
330
70
100
AcDbEntity
  8
W-S-A v1_4_ANYTOOL_CUTTHROUGH_OUTSI
100
AcDbLine
 10
-24.7149999999964
 20
-5.800000000000146
 30
0.0
 11
-25.9099999999964
 21
-5.800000000000292
 31
0.0
  0
LINE
  5
95
330
70
100
AcDbEntity
  8
W-S-A v1_4_ANYTOOL_CUTTHROUGH_OUTSI
100
AcDbLine
 10
-28.06749999999673
 20
-6.480000000000291
 30
0.0
 11
-28.30499999999673
 21
-6.480000000000291
 31
0.0
  0
ARC
  5
96
330
70
100
AcDbEntity
  8
W-S-A v1_4_ANYTOOL_CUTTHROUGH_OUTSI
100
AcDbCircle
 10
-25.9212609480569
 20
-6.727254637866764
 30
0.0
 40
0.2050000000002153
100
AcDbArc
 50
105.3051943813213
 51
254.694805618653
  0
ARC
  5
97
330
70
100
AcDbEntity
  8
W-S-A v1_4_ANYTOOL_CUTTHROUGH_OUTSI
100
AcDbCircle
 10
26.03249999999623
 20
-6.037499999999903
 30
0.0
 40
0.0025000000002421
210
0.0
220
0.0
230
-1.0
100
AcDbArc
 50
270.0000000039083
 51
359.9999999944429
  0
ARC
  5
98
330
70
100
AcDbEntity
  8
W-S-A v1_4_ANYTOOL_CUTTHROUGH_OUTSI
100
AcDbCircle
 10
-24.86126094805781
 20
-7.117254637866735
 30
0.0
 40
0.0600000000000364
100
AcDbArc
 50
269.9999999997218
 51
0.0000400796156333
  0
LINE
  5
99
330
70
100
AcDbEntity
  8
W-S-A v1_4_ANYTOOL_CUTTHROUGH_OUTSI
100
AcDbLine
 10
-22.31999999999684
 20
-6.479999999999855
 30
0.0
 11
-22.55749999999684
 21
-6.479999999999709
 31
0.0
  0
ARC
  5
9A
330
70
100
AcDbEntity
  8
W-S-A v1_4_ANYTOOL_CUTTHROUGH_OUTSI
100
AcDbCircle
 10
22.55749999999683
 20
-6.357499999999717
 30
0.0
 40
0.0025000000000073
210
0.0
220
0.0
230
-1.0
100
AcDbArc
 50
0.0000000001831999
 51
89.99999999983716
  0
LINE
  5
9B
330
70
100
AcDbEntity
  8
W-S-A v1_4_ANYTOOL_CUTTHROUGH_OUTSI
100
AcDbLine
 10
-28.06749999999662
 20
-7.1
 30
0.0
 11
-28.12499999999662
 21
-7.100000000000146
 31
0.0
  0
LINE
  5
9C
330
70
100
AcDbEntity
  8
W-S-A v1_4_ANYTOOL_CUTTHROUGH_OUTSI
100
AcDbLine
 10
-25.92126094805719
 20
-6.923277595698869
 30
0.0
 11
-25.9212609480571
 21
-6.53123168002077
 31
0.0
  0
LINE
  5
9D
330
70
100
AcDbEntity
  8
W-S-A v1_4_ANYTOOL_CUTTHROUGH_OUTSI
100
AcDbLine
 10
-24.80126094805859
 20
-6.923277595698868
 30
0.0
 11
-24.80126094805859
 21
-6.53123168002077
 31
0.0
  0
LINE
  5
9E
330
70
100
AcDbEntity
  8
W-S-A v1_4_ANYTOOL_CUTTHROUGH_OUTSI
100
AcDbLine
 10
-22.5574999999968
 20
-6.97499999999971
 30
0.0
 11
-22.31999999999672
 21
-6.97499999999971
 31
0.0
  0
LINE
  5
9F
330
70
100
AcDbEntity
  8
W-S-A v1_4_ANYTOOL_CUTTHROUGH_OUTSI
100
AcDbLine
 10
-22.55999999999684
 20
-7.097499999999855
 30
0.0
 11
-22.5599999999968
 21
-6.977499999999855
 31
0.0
  0
ARC
  5
A0
330
70
100
AcDbEntity
  8
W-S-A v1_4_ANYTOOL_CUTTHROUGH_OUTSI
100
AcDbCircle
 10
28.06749999999658
 20
-6.477500000000437
 30
0.0
 40
0.0024999999998538
210
0.0
220
0.0
230
-1.0
100
AcDbArc
 50
179.9999999966617
 51
270.0000000033383
  0
LINE
  5
A1
330
70
100
AcDbEntity
  8
W-S-A v1_4_ANYTOOL_CUTTHROUGH_OUTSI
100
AcDbLine
 10
-28.12499999999709
 20
-7.475000000000001
 30
0.0
 11
-26.03499999999626
 21
-7.475000000000146
 31
0.0
  0
LINE
  5
A2
330
70
100
AcDbEntity
  8
W-S-A v1_4_ANYTOOL_CUTTHROUGH_OUTSI
100
AcDbLine
 10
-22.5599999999968
 20
-6.477499999999709
 30
0.0
 11
-22.55999999999684
 21
-6.357499999999709
 31
0.0
  0
LINE
  5
A3
330
70
100
AcDbEntity
  8
W-S-A v1_4_ANYTOOL_CUTTHROUGH_OUTSI
100
AcDbLine
 10
-24.71499999999633
 20
-6.037500000000146
 30
0.0
 11
-24.7149999999964
 21
-5.800000000000146
 31
0.0
  0
LINE
  5
A4
330
70
100
AcDbEntity
  8
W-S-A v1_4_ANYTOOL_CUTTHROUGH_OUTSI
100
AcDbLine
 10
-26.0349999999964
 20
-5.980000000000146
 30
0.0
 11
-28.12499999999724
 21
-5.980000000000291
 31
0.0
  0
LINE
  5
A5
330
70
100
AcDbEntity
  8
W-S-A v1_4_ANYTOOL_CUTTHROUGH_OUTSI
100
AcDbLine
 10
-28.1249999999968
 20
-6.355000000000146
 30
0.0
 11
-28.06749999999684
 21
-6.355000000000146
 31
0.0
  0
LINE
  5
A6
330
70
100
AcDbEntity
  8
W-S-A v1_4_ANYTOOL_CUTTHROUGH_OUTSI
100
AcDbLine
 10
-22.49999999999683
 20
-6.354999999999709
 30
0.0
 11
-22.49999999999724
 21
-5.979999999999855
 31
0.0
  0
ARC
  5
A7
330
70
100
AcDbEntity
  8
W-S-A v1_4_ANYTOOL_CUTTHROUGH_OUTSI
100
AcDbCircle
 10
26.03249999999645
 20
-7.417500000000097
 30
0.0
 40
0.002499999999805
210
0.0
220
0.0
230
-1.0
100
AcDbArc
 50
359.9999999988601
 51
90.00000000447823
  0
ARC
  5
A8
330
70
100
AcDbEntity
  8
W-S-A v1_4_ANYTOOL_CUTTHROUGH_OUTSI
100
AcDbCircle
 10
24.71249999999629
 20
-7.417499999999819
 30
0.0
 40
0.0024999999999641
210
0.0
220
0.0
230
-1.0
100
AcDbArc
 50
359.9999999991858
 51
90.00000000081424
  0
LINE
  5
A9
330
70
100
AcDbEntity
  8
W-S-A v1_4_ANYTOOL_CUTTHROUGH_OUTSI
100
AcDbLine
 10
-26.03249999999626
 20
-7.415000000000292
 30
0.0
 11
-25.91249999999626
 21
-7.415000000000146
 31
0.0
  0
LINE
  5
AA
330
70
100
AcDbEntity
  8
W-S-A v1_4_ANYTOOL_CUTTHROUGH_OUTSI
100
AcDbLine
 10
-28.06499999999687
 20
-6.3575
 30
0.0
 11
-28.06499999999673
 21
-6.477500000000292
 31
0.0
  0
LINE
  5
AB
330
70
100
AcDbEntity
  8
W-S-A v1_4_ANYTOOL_CUTTHROUGH_OUTSI
100
AcDbLine
 10
-28.12499999999724
 20
-5.980000000000291
 30
0.0
 11
-28.1249999999968
 21
-6.355000000000146
 31
0.0
  0
ARC
  5
AC
330
70
100
AcDbEntity
  8
W-S-A v1_4_ANYTOOL_CUTTHROUGH_OUTSI
100
AcDbCircle
 10
28.06749999999655
 20
-7.097500000000069
 30
0.0
 40
0.0024999999999313
210
0.0
220
0.0
230
-1.0
100
AcDbArc
 50
180.0000000017709
 51
270.0000000016284
  0
LINE
  5
AD
330
70
100
AcDbEntity
  8
W-S-A v1_4_ANYTOOL_CUTTHROUGH_OUTSI
100
AcDbLine
 10
-22.49999999999724
 20
-5.979999999999855
 30
0.0
 11
-24.5899999999964
 21
-5.980000000000291
 31
0.0
  0
ARC
  5
AE
330
70
100
AcDbEntity
  8
W-S-A v1_4_ANYTOOL_CUTTHROUGH_OUTSI
100
AcDbCircle
 10
22.55749999999659
 20
-6.477499999999499
 30
0.0
 40
0.0025000000002099
210
0.0
220
0.0
230
-1.0
100
AcDbArc
 50
270.0000000056181
 51
359.9999999951961
  0
LINE
  5
AF
330
70
100
AcDbEntity
  8
W-S-A v1_4_ANYTOOL_CUTTHROUGH_OUTSI
100
AcDbLine
 10
-25.9124999999964
 20
-6.04
 30
0.0
 11
-26.0324999999964
 21
-6.040000000000146
 31
0.0
  0
LINE
  5
B0
330
70
100
AcDbEntity
  8
W-S-A v1_4_ANYTOOL_CUTTHROUGH_OUTSI
100
AcDbLine
 10
-28.06499999999662
 20
-6.977500000000146
 30
0.0
 11
-28.06499999999662
 21
-7.097500000000146
 31
0.0
  0
LINE
  5
B1
330
70
100
AcDbEntity
  8
W-S-A v1_4_ANYTOOL_CUTTHROUGH_OUTSI
100
AcDbLine
 10
-24.71249999999626
 20
-7.414999999999855
 30
0.0
 11
-24.59249999999626
 21
-7.414999999999855
 31
0.0
  0
LINE
  5
B2
330
70
100
AcDbEntity
  8
W-S-A v1_4_ANYTOOL_CUTTHROUGH_OUTSI
100
AcDbLine
 10
-26.03499999999647
 20
-6.037500000000146
 30
0.0
 11
-26.0349999999964
 21
-5.980000000000146
 31
0.0
  0
ARC
  5
B3
330
70
100
AcDbEntity
  8
W-S-A v1_4_ANYTOOL_CUTTHROUGH_OUTSI
100
AcDbCircle
 10
25.9124999999962
 20
-7.417500000000091
 30
0.0
 40
0.0024999999999456
210
0.0
220
0.0
230
-1.0
100
AcDbArc
 50
89.99999999877866
 51
180.000000001262
  0
ARC
  5
B4
330
70
100
AcDbEntity
  8
W-S-A v1_4_ANYTOOL_CUTTHROUGH_OUTSI
100
AcDbCircle
 10
28.06749999999677
 20
-6.977500000000294
 30
0.0
 40
0.0025000000001483
210
0.0
220
0.0
230
-1.0
100
AcDbArc
 50
90.00000000341971
 51
179.9999999966006
  0
LINE
  5
B5
330
70
100
AcDbEntity
  8
W-S-A v1_4_ANYTOOL_CUTTHROUGH_OUTSI
100
AcDbLine
 10
-22.55749999999684
 20
-6.354999999999709
 30
0.0
 11
-22.49999999999683
 21
-6.354999999999709
 31
0.0
  0
LINE
  5
B6
330
70
100
AcDbEntity
  8
W-S-A v1_4_ANYTOOL_CUTTHROUGH_OUTSI
100
AcDbLine
 10
-24.5899999999964
 20
-5.980000000000291
 30
0.0
 11
-24.5899999999964
 21
-6.037500000000291
 31
0.0
  0
LINE
  5
B7
330
70
100
AcDbEntity
  8
W-S-A v1_4_ANYTOOL_CUTTHROUGH_OUTSI
100
AcDbLine
 10
-28.12499999999662
 20
-7.100000000000146
 30
0.0
 11
-28.12499999999709
 21
-7.475000000000001
 31
0.0
  0
LINE
  5
B8
330
70
100
AcDbEntity
  8
W-S-A v1_4_ANYTOOL_CUTTHROUGH_OUTSI
100
AcDbLine
 10
-22.49999999999709
 20
-7.47499999999971
 30
0.0
 11
-22.4999999999968
 21
-7.099999999999855
 31
0.0
  0
LINE
  5
B9
330
70
100
AcDbEntity
  8
W-S-A v1_4_ANYTOOL_CUTTHROUGH_OUTSI
100
AcDbLine
 10
-25.94233044441219
 20
-6.485576276332332
 30
0.0
 11
-25.94393260911389
 21
-6.484257270905273
 31
0.0
  0
LINE
  5
BA
330
70
100
AcDbEntity
  8
W-S-A v1_4_ANYTOOL_CUTTHROUGH_OUTSI
100
AcDbLine
 10
-26.18525305784029
 20
-6.75034502486492
 30
0.0
 11
-26.18428668599929
 21
-6.759541805276513
 31
0.0
  0
LINE
  5
BB
330
70
100
AcDbEntity
  8
W-S-A v1_4_ANYTOOL_CUTTHROUGH_OUTSI
100
AcDbLine
 10
-24.74211731067751
 20
-6.983271484079859
 30
0.0
 11
-24.74419153744959
 21
-6.983205983344719
 31
0.0
  0
LINE
  5
BC
330
70
100
AcDbEntity
  8
W-S-A v1_4_ANYTOOL_CUTTHROUGH_OUTSI
100
AcDbLine
 10
-24.56947011690261
 20
-6.598810056067573
 30
0.0
 11
-24.5651297388352
 21
-6.606975578874163
 31
0.0
  0
LINE
  5
BD
330
70
100
AcDbEntity
  8
W-S-A v1_4_ANYTOOL_CUTTHROUGH_OUTSI
100
AcDbLine
 10
-24.7847111227617
 20
-6.964654912169039
 30
0.0
 11
-24.7861160641741
 21
-6.963127546241712
 31
0.0
  0
LINE
  5
BE
330
70
100
AcDbEntity
  8
W-S-A v1_4_ANYTOOL_CUTTHROUGH_OUTSI
100
AcDbLine
 10
-24.7769424661276
 20
-6.482994461316821
 30
0.0
 11
-24.77525295918529
 21
-6.481789358275469
 31
0.0
  0
LINE
  5
BF
330
70
100
AcDbEntity
  8
W-S-A v1_4_ANYTOOL_CUTTHROUGH_OUTSI
100
AcDbLine
 10
-26.13835995515229
 20
-6.57529075689422
 30
0.0
 11
-26.1435298806284
 21
-6.582957993361529
 31
0.0
  0
LINE
  5
C0
330
70
100
AcDbEntity
  8
W-S-A v1_4_ANYTOOL_CUTTHROUGH_OUTSI
100
AcDbLine
 10
-24.7861160641741
 20
-6.963127546241712
 30
0.0
 11
-24.78746734507409
 21
-6.961552507519131
 31
0.0
  0
LINE
  5
C1
330
70
100
AcDbEntity
  8
W-S-A v1_4_ANYTOOL_CUTTHROUGH_OUTSI
100
AcDbLine
 10
-24.77858928700169
 20
-6.484257270905273
 30
0.0
 11
-24.7769424661276
 21
-6.482994461316821
 31
0.0
  0
LINE
  5
C2
330
70
100
AcDbEntity
  8
W-S-A v1_4_ANYTOOL_CUTTHROUGH_OUTSI
100
AcDbLine
 10
-24.76240679203778
 20
-6.47508140591262
 30
0.0
 11
-24.76045232637709
 21
-6.474383716132552
 31
0.0
  0
LINE
  5
C3
330
70
100
AcDbEntity
  8
W-S-A v1_4_ANYTOOL_CUTTHROUGH_OUTSI
100
AcDbLine
 10
-26.168668651334
 20
-6.822198981341039
 30
0.0
 11
-26.1652053504962
 21
-6.830773372968442
 31
0.0
  0
LINE
  5
C4
330
70
100
AcDbEntity
  8
W-S-A v1_4_ANYTOOL_CUTTHROUGH_OUTSI
100
AcDbLine
 10
-26.18622060788979
 20
-6.722630931433351
 30
0.0
 11
-26.18622060788979
 21
-6.731878344286352
 31
0.0
  0
ARC
  5
C5
330
70
100
AcDbEntity
  8
W-S-A v1_4_ANYTOOL_CUTTHROUGH_OUTSI
100
AcDbCircle
 10
-24.80126094805742
 20
-6.727254637866717
 30
0.0
 40
0.2049999999999006
100
AcDbArc
 50
285.305194380947
 51
74.69480561907359
  0
LINE
  5
C6
330
70
100
AcDbEntity
  8
W-S-A v1_4_ANYTOOL_CUTTHROUGH_OUTSI
100
AcDbLine
 10
-24.7847111227617
 20
-6.489854363550672
 30
0.0
 11
-24.78325420157879
 21
-6.488376497617842
 31
0.0
  0
LINE
  5
C7
330
70
100
AcDbEntity
  8
W-S-A v1_4_ANYTOOL_CUTTHROUGH_OUTSI
100
AcDbLine
 10
-26.18428668599929
 20
-6.759541805276513
 30
0.0
 11
-26.1830000214923
 21
-6.76869926884026
 31
0.0
  0
LINE
  5
C8
330
70
100
AcDbEntity
  8
W-S-A v1_4_ANYTOOL_CUTTHROUGH_OUTSI
100
AcDbLine
 10
-24.7503832807309
 20
-6.98258006652953
 30
0.0
 11
-24.75242865223029
 21
-6.982229121408872
 31
0.0
  0
LINE
  5
C9
330
70
100
AcDbEntity
  8
W-S-A v1_4_ANYTOOL_CUTTHROUGH_OUTSI
100
AcDbLine
 10
-26.18622060788979
 20
-6.731878344286352
 30
0.0
 11
-26.18589796024139
 21
-6.741120126742649
 31
0.0
  0
LINE
  5
CA
330
70
100
AcDbEntity
  8
W-S-A v1_4_ANYTOOL_CUTTHROUGH_OUTSI
100
AcDbLine
 10
-25.93251937084049
 20
-6.496242272331561
 30
0.0
 11
-25.93375854720149
 21
-6.494577595487623
 31
0.0
  0
LINE
  5
CB
330
70
100
AcDbEntity
  8
W-S-A v1_4_ANYTOOL_CUTTHROUGH_OUTSI
100
AcDbLine
 10
-24.7503832807309
 20
-6.47192920919018
 30
0.0
 11
-24.7483269961164
 21
-6.471649208060822
 31
0.0
  0
LINE
  5
CC
330
70
100
AcDbEntity
  8
W-S-A v1_4_ANYTOOL_CUTTHROUGH_OUTSI
100
AcDbLine
 10
-24.7643359607665
 20
-6.978663007032059
 30
0.0
 11
-24.7662375246841
 21
-6.977831886273243
 31
0.0
  0
LINE
  5
CD
330
70
100
AcDbEntity
  8
W-S-A v1_4_ANYTOOL_CUTTHROUGH_OUTSI
100
AcDbLine
 10
-24.7933646155969
 20
-6.501479237615832
 30
0.0
 11
-24.7923045355726
 21
-6.499695158752629
 31
0.0
  0
LINE
  5
CE
330
70
100
AcDbEntity
  8
W-S-A v1_4_ANYTOOL_CUTTHROUGH_OUTSI
100
AcDbLine
 10
-25.92301112001778
 20
-6.516845661343223
 30
0.0
 11
-25.92354346694929
 21
-6.51483984136311
 31
0.0
  0
LINE
  5
CF
330
70
100
AcDbEntity
  8
W-S-A v1_4_ANYTOOL_CUTTHROUGH_OUTSI
100
AcDbLine
 10
-25.9255518353277
 20
-6.508949517672641
 30
0.0
 11
-25.92635573095719
 21
-6.507036285103141
 31
0.0
  0
LINE
  5
D0
330
70
100
AcDbEntity
  8
W-S-A v1_4_ANYTOOL_CUTTHROUGH_OUTSI
100
AcDbLine
 10
-24.5538532447818
 20
-6.63231029437874
 30
0.0
 11
-24.55069121815939
 21
-6.641000301980139
 31
0.0
  0
LINE
  5
D1
330
70
100
AcDbEntity
  8
W-S-A v1_4_ANYTOOL_CUTTHROUGH_OUTSI
100
AcDbLine
 10
-25.92215603376179
 20
-6.933602764275542
 30
0.0
 11
-25.9218343173834
 21
-6.93155259218035
 31
0.0
  0
LINE
  5
D2
330
70
100
AcDbEntity
  8
W-S-A v1_4_ANYTOOL_CUTTHROUGH_OUTSI
100
AcDbLine
 10
-24.77525295918529
 20
-6.972719917444242
 30
0.0
 11
-24.7769424661276
 21
-6.971514814402961
 31
0.0
  0
LINE
  5
D3
330
70
100
AcDbEntity
  8
W-S-A v1_4_ANYTOOL_CUTTHROUGH_OUTSI
100
AcDbLine
 10
-25.9350545510416
 20
-6.492956768200579
 30
0.0
 11
-25.9364058319416
 21
-6.491381729477922
 31
0.0
  0
LINE
  5
D4
330
70
100
AcDbEntity
  8
W-S-A v1_4_ANYTOOL_CUTTHROUGH_OUTSI
100
AcDbLine
 10
-24.5610769033296
 20
-6.615287568337563
 30
0.0
 11
-24.5573165456196
 21
-6.62373590275126
 31
0.0
  0
LINE
  5
D5
330
70
100
AcDbEntity
  8
W-S-A v1_4_ANYTOOL_CUTTHROUGH_OUTSI
100
AcDbLine
 10
-25.9214044620241
 20
-6.527084261572142
 30
0.0
 11
-25.92158369352981
 21
-6.525016755075021
 31
0.0
  0
LINE
  5
D6
330
70
100
AcDbEntity
  8
W-S-A v1_4_ANYTOOL_CUTTHROUGH_OUTSI
100
AcDbLine
 10
-25.9364058319416
 20
-6.491381729477922
 30
0.0
 11
-25.937810773354
 21
-6.489854363550672
 31
0.0
  0
LINE
  5
D7
330
70
100
AcDbEntity
  8
W-S-A v1_4_ANYTOOL_CUTTHROUGH_OUTSI
100
AcDbLine
 10
-26.09516027786309
 20
-6.92721469160298
 30
0.0
 11
-26.08807767385479
 21
-6.933160392986082
 31
0.0
  0
LINE
  5
D8
330
70
100
AcDbEntity
  8
W-S-A v1_4_ANYTOOL_CUTTHROUGH_OUTSI
100
AcDbLine
 10
-24.75242865223029
 20
-6.472280154310769
 30
0.0
 11
-24.7503832807309
 21
-6.47192920919018
 31
0.0
  0
LINE
  5
D9
330
70
100
AcDbEntity
  8
W-S-A v1_4_ANYTOOL_CUTTHROUGH_OUTSI
100
AcDbLine
 10
-24.62049077557389
 20
-6.533483781589652
 30
0.0
 11
-24.61384006101229
 21
-6.539908938419949
 31
0.0
  0
LINE
  5
DA
330
70
100
AcDbEntity
  8
W-S-A v1_4_ANYTOOL_CUTTHROUGH_OUTSI
100
AcDbLine
 10
-26.18589796024139
 20
-6.713389148977121
 30
0.0
 11
-26.18622060788979
 21
-6.722630931433351
 31
0.0
  0
LINE
  5
DB
330
70
100
AcDbEntity
  8
W-S-A v1_4_ANYTOOL_CUTTHROUGH_OUTSI
100
AcDbLine
 10
-24.58416194096351
 20
-6.57529075689422
 30
0.0
 11
-24.5789920154874
 21
-6.582957993361529
 31
0.0
  0
LINE
  5
DC
330
70
100
AcDbEntity
  8
W-S-A v1_4_ANYTOOL_CUTTHROUGH_OUTSI
100
AcDbLine
 10
-24.7643359607665
 20
-6.475846268687652
 30
0.0
 11
-24.76240679203778
 21
-6.47508140591262
 31
0.0
  0
LINE
  5
DD
330
70
100
AcDbEntity
  8
W-S-A v1_4_ANYTOOL_CUTTHROUGH_OUTSI
100
AcDbLine
 10
-24.5651297388352
 20
-6.606975578874163
 30
0.0
 11
-24.5610769033296
 21
-6.615287568337563
 31
0.0
  0
LINE
  5
DE
330
70
100
AcDbEntity
  8
W-S-A v1_4_ANYTOOL_CUTTHROUGH_OUTSI
100
AcDbLine
 10
-24.7584749019263
 20
-6.47375403399868
 30
0.0
 11
-24.75647688429319
 21
-6.473193112804562
 31
0.0
  0
LINE
  5
DF
330
70
100
AcDbEntity
  8
W-S-A v1_4_ANYTOOL_CUTTHROUGH_OUTSI
100
AcDbLine
 10
-26.168668651334
 20
-6.63231029437874
 30
0.0
 11
-26.17183067795639
 21
-6.641000301980139
 31
0.0
  0
LINE
  5
E0
330
70
100
AcDbEntity
  8
W-S-A v1_4_ANYTOOL_CUTTHROUGH_OUTSI
100
AcDbLine
 10
-24.53952187462351
 20
-6.685810006879451
 30
0.0
 11
-24.5382352101165
 21
-6.69496747044313
 31
0.0
  0
LINE
  5
E1
330
70
100
AcDbEntity
  8
W-S-A v1_4_ANYTOOL_CUTTHROUGH_OUTSI
100
AcDbLine
 10
-25.9218343173834
 20
-6.522956683539351
 30
0.0
 11
-25.9221560337617
 21
-6.520906511444174
 31
0.0
  0
LINE
  5
E2
330
70
100
AcDbEntity
  8
W-S-A v1_4_ANYTOOL_CUTTHROUGH_OUTSI
100
AcDbLine
 10
-24.7681092089354
 20
-6.477573773912859
 30
0.0
 11
-24.76623752468399
 21
-6.476677389446459
 31
0.0
  0
LINE
  5
E3
330
70
100
AcDbEntity
  8
W-S-A v1_4_ANYTOOL_CUTTHROUGH_OUTSI
100
AcDbLine
 10
-26.10203112054189
 20
-6.533483781589653
 30
0.0
 11
-26.10868183510349
 21
-6.539908938419949
 31
0.0
  0
LINE
  5
E4
330
70
100
AcDbEntity
  8
W-S-A v1_4_ANYTOOL_CUTTHROUGH_OUTSI
100
AcDbLine
 10
-24.79000252527509
 20
-6.496242272331561
 30
0.0
 11
-24.78876334891409
 21
-6.494577595487623
 31
0.0
  0
LINE
  5
E5
330
70
100
AcDbEntity
  8
W-S-A v1_4_ANYTOOL_CUTTHROUGH_OUTSI
100
AcDbLine
 10
-26.15305177921319
 20
-6.598810056067573
 30
0.0
 11
-26.1573921572806
 21
-6.606975578874163
 31
0.0
  0
LINE
  5
E6
330
70
100
AcDbEntity
  8
W-S-A v1_4_ANYTOOL_CUTTHROUGH_OUTSI
100
AcDbLine
 10
-24.5789920154874
 20
-6.582957993361529
 30
0.0
 11
-24.57409275215079
 21
-6.590800943267941
 31
0.0
  0
LINE
  5
E7
330
70
100
AcDbEntity
  8
W-S-A v1_4_ANYTOOL_CUTTHROUGH_OUTSI
100
AcDbLine
 10
-26.15305177921319
 20
-6.855699219652351
 30
0.0
 11
-26.14842914396499
 21
-6.863708332451842
 31
0.0
  0
LINE
  5
E8
330
70
100
AcDbEntity
  8
W-S-A v1_4_ANYTOOL_CUTTHROUGH_OUTSI
100
AcDbLine
 10
-25.92129683728259
 20
-6.925352546062541
 30
0.0
 11
-25.92126094805719
 21
-6.923277595698869
 31
0.0
  0
LINE
  5
E9
330
70
100
AcDbEntity
  8
W-S-A v1_4_ANYTOOL_CUTTHROUGH_OUTSI
100
AcDbLine
 10
-26.1830000214923
 20
-6.76869926884026
 30
0.0
 11
-26.18139463112119
 21
-6.77780626429606
 31
0.0
  0
LINE
  5
EA
330
70
100
AcDbEntity
  8
W-S-A v1_4_ANYTOOL_CUTTHROUGH_OUTSI
100
AcDbLine
 10
-26.17183067795639
 20
-6.641000301980139
 30
0.0
 11
-26.17468757988849
 21
-6.649795343527848
 31
0.0
  0
LINE
  5
EB
330
70
100
AcDbEntity
  8
W-S-A v1_4_ANYTOOL_CUTTHROUGH_OUTSI
100
AcDbLine
 10
-24.7911833917211
 20
-6.49794880726678
 30
0.0
 11
-24.79000252527509
 21
-6.496242272331561
 31
0.0
  0
LINE
  5
EC
330
70
100
AcDbEntity
  8
W-S-A v1_4_ANYTOOL_CUTTHROUGH_OUTSI
100
AcDbLine
 10
-24.77352278734468
 20
-6.480643403455151
 30
0.0
 11
-24.7717540204234
 21
-6.479557967770143
 31
0.0
  0
LINE
  5
ED
330
70
100
AcDbEntity
  8
W-S-A v1_4_ANYTOOL_CUTTHROUGH_OUTSI
100
AcDbLine
 10
-24.5363012882259
 20
-6.72263093143335
 30
0.0
 11
-24.5363012882259
 21
-6.731878344286351
 31
0.0
  0
LINE
  5
EE
330
70
100
AcDbEntity
  8
W-S-A v1_4_ANYTOOL_CUTTHROUGH_OUTSI
100
AcDbLine
 10
-26.1435298806284
 20
-6.871551282358241
 30
0.0
 11
-26.13835995515229
 21
-6.87921851882556
 31
0.0
  0
LINE
  5
EF
330
70
100
AcDbEntity
  8
W-S-A v1_4_ANYTOOL_CUTTHROUGH_OUTSI
100
AcDbLine
 10
-26.10868183510349
 20
-6.539908938419949
 30
0.0
 11
-26.1151043228153
 21
-6.546562230542232
 31
0.0
  0
LINE
  5
F0
330
70
100
AcDbEntity
  8
W-S-A v1_4_ANYTOOL_CUTTHROUGH_OUTSI
100
AcDbLine
 10
-25.92126094805779
 20
-6.995894248173531
 30
0.0
 11
-25.92126094805779
 21
-7.117254595895478
 31
0.0
  0
LINE
  5
F1
330
70
100
AcDbEntity
  8
W-S-A v1_4_ANYTOOL_CUTTHROUGH_OUTSI
100
AcDbLine
 10
-24.78019145170349
 20
-6.485576276332332
 30
0.0
 11
-24.77858928700169
 21
-6.484257270905273
 31
0.0
  0
LINE
  5
F2
330
70
100
AcDbEntity
  8
W-S-A v1_4_ANYTOOL_CUTTHROUGH_OUTSI
100
AcDbLine
 10
-26.1794724698077
 20
-6.786851701839819
 30
0.0
 11
-26.17723587821329
 21
-6.795824566628412
 31
0.0
  0
LINE
  5
F3
330
70
100
AcDbEntity
  8
W-S-A v1_4_ANYTOOL_CUTTHROUGH_OUTSI
100
AcDbLine
 10
-24.5366239358744
 20
-6.713389148977121
 30
0.0
 11
-24.5363012882259
 21
-6.72263093143335
 31
0.0
  0
LINE
  5
F4
330
70
100
AcDbEntity
  8
W-S-A v1_4_ANYTOOL_CUTTHROUGH_OUTSI
100
AcDbLine
 10
-24.76045232637709
 20
-6.98012555958715
 30
0.0
 11
-24.76240679203778
 21
-6.97942786980694
 31
0.0
  0
LINE
  5
F5
330
70
100
AcDbEntity
  8
W-S-A v1_4_ANYTOOL_CUTTHROUGH_OUTSI
100
AcDbLine
 10
-24.7717540204234
 20
-6.479557967770143
 30
0.0
 11
-24.7699487744105
 21
-6.478534349735469
 31
0.0
  0
LINE
  5
F6
330
70
100
AcDbEntity
  8
W-S-A v1_4_ANYTOOL_CUTTHROUGH_OUTSI
100
AcDbLine
 10
-24.75847490192639
 20
-6.980755241721031
 30
0.0
 11
-24.76045232637709
 21
-6.98012555958715
 31
0.0
  0
LINE
  5
F7
330
70
100
AcDbEntity
  8
W-S-A v1_4_ANYTOOL_CUTTHROUGH_OUTSI
100
AcDbLine
 10
-24.78019145170349
 20
-6.968932999387369
 30
0.0
 11
-24.7817470435513
 21
-6.967559376057811
 31
0.0
  0
LINE
  5
F8
330
70
100
AcDbEntity
  8
W-S-A v1_4_ANYTOOL_CUTTHROUGH_OUTSI
100
AcDbLine
 10
-26.1435298806284
 20
-6.582957993361529
 30
0.0
 11
-26.14842914396499
 21
-6.590800943267941
 31
0.0
  0
LINE
  5
F9
330
70
100
AcDbEntity
  8
W-S-A v1_4_ANYTOOL_CUTTHROUGH_OUTSI
100
AcDbLine
 10
-26.08079193317159
 20
-6.515653917661739
 30
0.0
 11
-26.08807767385479
 21
-6.521348882733851
 31
0.0
  0
LINE
  5
FA
330
70
100
AcDbEntity
  8
W-S-A v1_4_ANYTOOL_CUTTHROUGH_OUTSI
100
AcDbLine
 10
-26.16144499278619
 20
-6.839221707382212
 30
0.0
 11
-26.1573921572806
 21
-6.84753369684554
 31
0.0
  0
LINE
  5
FB
330
70
100
AcDbEntity
  8
W-S-A v1_4_ANYTOOL_CUTTHROUGH_OUTSI
100
AcDbLine
 10
-24.59528827424628
 20
-6.560520545237933
 30
0.0
 11
-24.58959623303849
 21
-6.56780857044124
 31
0.0
  0
LINE
  5
FC
330
70
100
AcDbEntity
  8
W-S-A v1_4_ANYTOOL_CUTTHROUGH_OUTSI
100
AcDbLine
 10
-26.12129076286219
 20
-6.553435556085361
 30
0.0
 11
-26.12723362186949
 21
-6.560520545237933
 31
0.0
  0
LINE
  5
FD
330
70
100
AcDbEntity
  8
W-S-A v1_4_ANYTOOL_CUTTHROUGH_OUTSI
100
AcDbLine
 10
-25.96206956973849
 20
-6.474383716132552
 30
0.0
 11
-25.96404699418929
 21
-6.47375403399868
 31
0.0
  0
LINE
  5
FE
330
70
100
AcDbEntity
  8
W-S-A v1_4_ANYTOOL_CUTTHROUGH_OUTSI
100
AcDbLine
 10
-24.6492099682836
 20
-6.51021662379474
 30
0.0
 11
-24.64172996294419
 21
-6.515653917661739
 31
0.0
  0
LINE
  5
FF
330
70
100
AcDbEntity
  8
W-S-A v1_4_ANYTOOL_CUTTHROUGH_OUTSI
100
AcDbLine
 10
-25.94393260911389
 20
-6.484257270905273
 30
0.0
 11
-25.9455794299881
 21
-6.482994461316821
 31
0.0
  0
LINE
  5
100
330
70
100
AcDbEntity
  8
W-S-A v1_4_ANYTOOL_CUTTHROUGH_OUTSI
100
AcDbLine
 10
-26.1794724698077
 20
-6.66765757387996
 30
0.0
 11
-26.18139463112119
 21
-6.67670301142372
 31
0.0
  0
LINE
  5
101
330
70
100
AcDbEntity
  8
W-S-A v1_4_ANYTOOL_CUTTHROUGH_OUTSI
100
AcDbLine
 10
-24.54783431622729
 20
-6.649795343527848
 30
0.0
 11
-24.54528601790239
 21
-6.658684709091371
 31
0.0
  0
LINE
  5
102
330
70
100
AcDbEntity
  8
W-S-A v1_4_ANYTOOL_CUTTHROUGH_OUTSI
100
AcDbLine
 10
-25.92301112001778
 20
-6.93766361437641
 30
0.0
 11
-25.92254845779319
 21
-6.93564058429406
 31
0.0
  0
LINE
  5
103
330
70
100
AcDbEntity
  8
W-S-A v1_4_ANYTOOL_CUTTHROUGH_OUTSI
100
AcDbLine
 10
-25.96404699418929
 20
-6.47375403399868
 30
0.0
 11
-25.96604501182239
 21
-6.473193112804562
 31
0.0
  0
LINE
  5
104
330
70
100
AcDbEntity
  8
W-S-A v1_4_ANYTOOL_CUTTHROUGH_OUTSI
100
AcDbLine
 10
-25.3784252777767
 20
-6.446247122465297
 30
0.0
 11
-25.86126094805779
 21
-6.277254637866764
 31
0.0
  0
LINE
  5
105
330
70
100
AcDbEntity
  8
W-S-A v1_4_ANYTOOL_CUTTHROUGH_OUTSI
100
AcDbLine
 10
-25.937810773354
 20
-6.489854363550672
 30
0.0
 11
-25.9392676945368
 21
-6.488376497617842
 31
0.0
  0
LINE
  5
106
330
70
100
AcDbEntity
  8
W-S-A v1_4_ANYTOOL_CUTTHROUGH_OUTSI
100
AcDbLine
 10
-24.7923045355727
 20
-6.954814116967072
 30
0.0
 11
-24.7933646155969
 21
-6.95303003810387
 31
0.0
  0
LINE
  5
107
330
70
100
AcDbEntity
  8
W-S-A v1_4_ANYTOOL_CUTTHROUGH_OUTSI
100
AcDbLine
 10
-24.75647688429319
 20
-6.473193112804562
 30
0.0
 11
-24.7544606637212
 21
-6.472701623584553
 31
0.0
  0
LINE
  5
108
330
70
100
AcDbEntity
  8
W-S-A v1_4_ANYTOOL_CUTTHROUGH_OUTSI
100
AcDbLine
 10
-24.78325420157879
 20
-6.488376497617842
 30
0.0
 11
-24.7817470435513
 21
-6.486949899661823
 31
0.0
  0
LINE
  5
109
330
70
100
AcDbEntity
  8
W-S-A v1_4_ANYTOOL_CUTTHROUGH_OUTSI
100
AcDbLine
 10
-24.58959623303849
 20
-6.56780857044124
 30
0.0
 11
-24.58416194096351
 21
-6.57529075689422
 31
0.0
  0
LINE
  5
10A
330
70
100
AcDbEntity
  8
W-S-A v1_4_ANYTOOL_CUTTHROUGH_OUTSI
100
AcDbLine
 10
-26.18139463112119
 20
-6.67670301142372
 30
0.0
 11
-26.1830000214923
 21
-6.685810006879451
 31
0.0
  0
LINE
  5
10B
330
70
100
AcDbEntity
  8
W-S-A v1_4_ANYTOOL_CUTTHROUGH_OUTSI
100
AcDbLine
 10
-24.7699487744105
 20
-6.975974925984242
 30
0.0
 11
-24.7717540204234
 21
-6.974951307949572
 31
0.0
  0
LINE
  5
10C
330
70
100
AcDbEntity
  8
W-S-A v1_4_ANYTOOL_CUTTHROUGH_OUTSI
100
AcDbLine
 10
-24.6012311332536
 20
-6.553435556085361
 30
0.0
 11
-24.59528827424628
 21
-6.560520545237933
 31
0.0
  0
LINE
  5
10D
330
70
100
AcDbEntity
  8
W-S-A v1_4_ANYTOOL_CUTTHROUGH_OUTSI
100
AcDbLine
 10
-24.60741757330039
 20
-6.546562230542232
 30
0.0
 11
-24.6012311332536
 21
-6.553435556085361
 31
0.0
  0
LINE
  5
10E
330
70
100
AcDbEntity
  8
W-S-A v1_4_ANYTOOL_CUTTHROUGH_OUTSI
100
AcDbLine
 10
-24.7681092089354
 20
-6.976935501806851
 30
0.0
 11
-24.7699487744105
 21
-6.975974925984242
 31
0.0
  0
LINE
  5
10F
330
70
100
AcDbEntity
  8
W-S-A v1_4_ANYTOOL_CUTTHROUGH_OUTSI
100
AcDbLine
 10
-25.92158369352981
 20
-6.525016755075021
 30
0.0
 11
-25.9218343173834
 21
-6.522956683539351
 31
0.0
  0
LINE
  5
110
330
70
100
AcDbEntity
  8
W-S-A v1_4_ANYTOOL_CUTTHROUGH_OUTSI
100
AcDbLine
 10
-26.12723362186949
 20
-6.893988730481843
 30
0.0
 11
-26.12129076286219
 21
-6.901073719634341
 31
0.0
  0
LINE
  5
111
330
70
100
AcDbEntity
  8
W-S-A v1_4_ANYTOOL_CUTTHROUGH_OUTSI
100
AcDbLine
 10
-25.9601151040779
 20
-6.475081405912621
 30
0.0
 11
-25.96206956973849
 21
-6.474383716132552
 31
0.0
  0
LINE
  5
112
330
70
100
AcDbEntity
  8
W-S-A v1_4_ANYTOOL_CUTTHROUGH_OUTSI
100
AcDbLine
 10
-26.10868183510349
 20
-6.914600337299829
 30
0.0
 11
-26.10203112054189
 21
-6.92102549413013
 31
0.0
  0
LINE
  5
113
330
70
100
AcDbEntity
  8
W-S-A v1_4_ANYTOOL_CUTTHROUGH_OUTSI
100
AcDbLine
 10
-24.7769424661276
 20
-6.971514814402961
 30
0.0
 11
-24.77858928700169
 21
-6.970252004814442
 31
0.0
  0
LINE
  5
114
330
70
100
AcDbEntity
  8
W-S-A v1_4_ANYTOOL_CUTTHROUGH_OUTSI
100
AcDbLine
 10
-24.78876334891409
 20
-6.494577595487623
 30
0.0
 11
-24.787467345074
 21
-6.492956768200579
 31
0.0
  0
LINE
  5
115
330
70
100
AcDbEntity
  8
W-S-A v1_4_ANYTOOL_CUTTHROUGH_OUTSI
100
AcDbLine
 10
-26.1652053504962
 20
-6.830773372968442
 30
0.0
 11
-26.16144499278619
 21
-6.839221707382212
 31
0.0
  0
ARC
  5
116
330
70
100
AcDbEntity
  8
W-S-A v1_4_ANYTOOL_CUTTHROUGH_OUTSI
100
AcDbCircle
 10
-25.86126094805783
 20
-7.11725463786682
 30
0.0
 40
0.0599999999999786
100
AcDbArc
 50
179.9999599203208
 51
270.0000000002239
  0
LINE
  5
117
330
70
100
AcDbEntity
  8
W-S-A v1_4_ANYTOOL_CUTTHROUGH_OUTSI
100
AcDbLine
 10
-25.86126094805759
 20
-7.177254637866798
 30
0.0
 11
-25.3784252777761
 21
-7.008262153268269
 31
0.0
  0
LINE
  5
118
330
70
100
AcDbEntity
  8
W-S-A v1_4_ANYTOOL_CUTTHROUGH_OUTSI
100
AcDbLine
 10
-24.80068757873229
 20
-6.93155259218035
 30
0.0
 11
-24.8009382025859
 21
-6.929492520644611
 31
0.0
  0
LINE
  5
119
330
70
100
AcDbEntity
  8
W-S-A v1_4_ANYTOOL_CUTTHROUGH_OUTSI
100
AcDbLine
 10
-24.76623752468399
 20
-6.476677389446459
 30
0.0
 11
-24.7643359607665
 21
-6.475846268687652
 31
0.0
  0
LINE
  5
11A
330
70
100
AcDbEntity
  8
W-S-A v1_4_ANYTOOL_CUTTHROUGH_OUTSI
100
AcDbLine
 10
-24.76045232637709
 20
-6.474383716132552
 30
0.0
 11
-24.7584749019263
 21
-6.47375403399868
 31
0.0
  0
LINE
  5
11B
330
70
100
AcDbEntity
  8
W-S-A v1_4_ANYTOOL_CUTTHROUGH_OUTSI
100
AcDbLine
 10
-24.7923045355726
 20
-6.499695158752629
 30
0.0
 11
-24.7911833917211
 21
-6.49794880726678
 31
0.0
  0
LINE
  5
11C
330
70
100
AcDbEntity
  8
W-S-A v1_4_ANYTOOL_CUTTHROUGH_OUTSI
100
AcDbLine
 10
-25.92635573095719
 20
-6.507036285103141
 30
0.0
 11
-25.9272253101105
 21
-6.505151997666454
 31
0.0
  0
LINE
  5
11D
330
70
100
AcDbEntity
  8
W-S-A v1_4_ANYTOOL_CUTTHROUGH_OUTSI
100
AcDbLine
 10
-25.9214044620242
 20
-6.92742501414757
 30
0.0
 11
-25.92129683728259
 21
-6.925352546062541
 31
0.0
  0
LINE
  5
11E
330
70
100
AcDbEntity
  8
W-S-A v1_4_ANYTOOL_CUTTHROUGH_OUTSI
100
AcDbLine
 10
-26.1151043228153
 20
-6.546562230542232
 30
0.0
 11
-26.12129076286219
 21
-6.553435556085361
 31
0.0
  0
LINE
  5
11F
330
70
100
AcDbEntity
  8
W-S-A v1_4_ANYTOOL_CUTTHROUGH_OUTSI
100
AcDbLine
 10
-24.77525295918529
 20
-6.481789358275469
 30
0.0
 11
-24.77352278734468
 21
-6.480643403455151
 31
0.0
  0
LINE
  5
120
330
70
100
AcDbEntity
  8
W-S-A v1_4_ANYTOOL_CUTTHROUGH_OUTSI
100
AcDbLine
 10
-24.78876334891409
 20
-6.959931680232011
 30
0.0
 11
-24.7900025252752
 21
-6.95826700338815
 31
0.0
  0
LINE
  5
121
330
70
100
AcDbEntity
  8
W-S-A v1_4_ANYTOOL_CUTTHROUGH_OUTSI
100
AcDbLine
 10
-25.95076787569229
 20
-6.479557967770143
 30
0.0
 11
-25.95257312170518
 21
-6.478534349735469
 31
0.0
  0
LINE
  5
122
330
70
100
AcDbEntity
  8
W-S-A v1_4_ANYTOOL_CUTTHROUGH_OUTSI
100
AcDbLine
 10
-25.92254845779319
 20
-6.93564058429406
 30
0.0
 11
-25.92215603376179
 21
-6.933602764275542
 31
0.0
  0
LINE
  5
123
330
70
100
AcDbEntity
  8
W-S-A v1_4_ANYTOOL_CUTTHROUGH_OUTSI
100
AcDbLine
 10
-26.1573921572806
 20
-6.84753369684554
 30
0.0
 11
-26.15305177921319
 21
-6.855699219652351
 31
0.0
  0
LINE
  5
124
330
70
100
AcDbEntity
  8
W-S-A v1_4_ANYTOOL_CUTTHROUGH_OUTSI
100
AcDbLine
 10
-26.14842914396499
 20
-6.590800943267941
 30
0.0
 11
-26.15305177921319
 21
-6.598810056067573
 31
0.0
  0
LINE
  5
125
330
70
100
AcDbEntity
  8
W-S-A v1_4_ANYTOOL_CUTTHROUGH_OUTSI
100
AcDbLine
 10
-24.7483269961164
 20
-6.471649208060822
 30
0.0
 11
-24.7462622583355
 21
-6.471440485890462
 31
0.0
  0
LINE
  5
126
330
70
100
AcDbEntity
  8
W-S-A v1_4_ANYTOOL_CUTTHROUGH_OUTSI
100
AcDbLine
 10
-24.543049426308
 20
-6.66765757387996
 30
0.0
 11
-24.5411272649946
 21
-6.676703011423719
 31
0.0
  0
LINE
  5
127
330
70
100
AcDbEntity
  8
W-S-A v1_4_ANYTOOL_CUTTHROUGH_OUTSI
100
AcDbLine
 10
-24.6568751296995
 20
-6.50504362225377
 30
0.0
 11
-24.6492099682836
 21
-6.51021662379474
 31
0.0
  0
LINE
  5
128
330
70
100
AcDbEntity
  8
W-S-A v1_4_ANYTOOL_CUTTHROUGH_OUTSI
100
AcDbLine
 10
-24.787467345074
 20
-6.492956768200579
 30
0.0
 11
-24.7861160641741
 21
-6.491381729477922
 31
0.0
  0
LINE
  5
129
330
70
100
AcDbEntity
  8
W-S-A v1_4_ANYTOOL_CUTTHROUGH_OUTSI
100
AcDbLine
 10
-24.7544606637212
 20
-6.472701623584553
 30
0.0
 11
-24.75242865223029
 21
-6.472280154310769
 31
0.0
  0
LINE
  5
12A
330
70
100
AcDbEntity
  8
W-S-A v1_4_ANYTOOL_CUTTHROUGH_OUTSI
100
AcDbLine
 10
-25.94077485256439
 20
-6.486949899661823
 30
0.0
 11
-25.94233044441219
 21
-6.485576276332332
 31
0.0
  0
LINE
  5
12B
330
70
100
AcDbEntity
  8
W-S-A v1_4_ANYTOOL_CUTTHROUGH_OUTSI
100
AcDbLine
 10
-24.64172996294419
 20
-6.515653917661739
 30
0.0
 11
-24.63444422226099
 21
-6.521348882733851
 31
0.0
  0
LINE
  5
12C
330
70
100
AcDbEntity
  8
W-S-A v1_4_ANYTOOL_CUTTHROUGH_OUTSI
100
AcDbLine
 10
-24.63444422226099
 20
-6.521348882733851
 30
0.0
 11
-24.62736161825269
 21
-6.527294584116731
 31
0.0
  0
LINE
  5
12D
330
70
100
AcDbEntity
  8
W-S-A v1_4_ANYTOOL_CUTTHROUGH_OUTSI
100
AcDbLine
 10
-24.7441915374495
 20
-6.471303292374919
 30
0.0
 11
-24.74211731067751
 21
-6.471237791639842
 31
0.0
  0
LINE
  5
12E
330
70
100
AcDbEntity
  8
W-S-A v1_4_ANYTOOL_CUTTHROUGH_OUTSI
100
AcDbLine
 10
-24.7861160641741
 20
-6.491381729477922
 30
0.0
 11
-24.7847111227617
 21
-6.489854363550672
 31
0.0
  0
LINE
  5
12F
330
70
100
AcDbEntity
  8
W-S-A v1_4_ANYTOOL_CUTTHROUGH_OUTSI
100
AcDbLine
 10
-24.7699487744105
 20
-6.478534349735469
 30
0.0
 11
-24.7681092089354
 21
-6.477573773912859
 31
0.0
  0
LINE
  5
130
330
70
100
AcDbEntity
  8
W-S-A v1_4_ANYTOOL_CUTTHROUGH_OUTSI
100
AcDbLine
 10
-24.7462622583355
 20
-6.471440485890462
 30
0.0
 11
-24.7441915374495
 21
-6.471303292374919
 31
0.0
  0
LINE
  5
131
330
70
100
AcDbEntity
  8
W-S-A v1_4_ANYTOOL_CUTTHROUGH_OUTSI
100
AcDbLine
 10
-24.5382352101165
 20
-6.69496747044313
 30
0.0
 11
-24.53726883827549
 21
-6.70416425085486
 31
0.0
  0
ARC
  5
132
330
70
100
AcDbEntity
  8
W-S-A v1_4_ANYTOOL_CUTTHROUGH_OUTSI
100
AcDbCircle
 10
25.36126094805786
 20
-6.388754637867095
 30
0.0
 40
0.0599999999997664
210
0.0
220
0.0
230
-1.0
100
AcDbArc
 50
253.3770524835889
 51
286.6229475162871
  0
LINE
  5
133
330
70
100
AcDbEntity
  8
W-S-A v1_4_ANYTOOL_CUTTHROUGH_OUTSI
100
AcDbLine
 10
-26.08807767385479
 20
-6.521348882733851
 30
0.0
 11
-26.09516027786309
 21
-6.527294584116731
 31
0.0
  0
LINE
  5
134
330
70
100
AcDbEntity
  8
W-S-A v1_4_ANYTOOL_CUTTHROUGH_OUTSI
100
AcDbLine
 10
-24.7900025252752
 20
-6.95826700338815
 30
0.0
 11
-24.7911833917211
 21
-6.956560468452931
 31
0.0
  0
LINE
  5
135
330
70
100
AcDbEntity
  8
W-S-A v1_4_ANYTOOL_CUTTHROUGH_OUTSI
100
AcDbLine
 10
-25.9212968372825
 20
-6.529156729657161
 30
0.0
 11
-25.9214044620241
 21
-6.527084261572142
 31
0.0
  0
LINE
  5
136
330
70
100
AcDbEntity
  8
W-S-A v1_4_ANYTOOL_CUTTHROUGH_OUTSI
100
AcDbLine
 10
-24.61384006101229
 20
-6.539908938419949
 30
0.0
 11
-24.60741757330039
 21
-6.546562230542232
 31
0.0
  0
LINE
  5
137
330
70
100
AcDbEntity
  8
W-S-A v1_4_ANYTOOL_CUTTHROUGH_OUTSI
100
AcDbLine
 10
-26.17468757988849
 20
-6.804713932191931
 30
0.0
 11
-26.17183067795639
 21
-6.813508973739563
 31
0.0
  0
LINE
  5
138
330
70
100
AcDbEntity
  8
W-S-A v1_4_ANYTOOL_CUTTHROUGH_OUTSI
100
AcDbLine
 10
-26.1573921572806
 20
-6.606975578874163
 30
0.0
 11
-26.16144499278619
 21
-6.615287568337564
 31
0.0
  0
LINE
  5
139
330
70
100
AcDbEntity
  8
W-S-A v1_4_ANYTOOL_CUTTHROUGH_OUTSI
100
AcDbLine
 10
-24.7297372051267
 20
-6.472348716874813
 30
0.0
 11
-24.727707777667
 21
-6.472782457850239
 31
0.0
  0
LINE
  5
13A
330
70
100
AcDbEntity
  8
W-S-A v1_4_ANYTOOL_CUTTHROUGH_OUTSI
100
AcDbLine
 10
-25.9581859353492
 20
-6.475846268687652
 30
0.0
 11
-25.9601151040779
 21
-6.475081405912621
 31
0.0
  0
LINE
  5
13B
330
70
100
AcDbEntity
  8
W-S-A v1_4_ANYTOOL_CUTTHROUGH_OUTSI
100
AcDbLine
 10
-26.09516027786309
 20
-6.527294584116731
 30
0.0
 11
-26.10203112054189
 21
-6.533483781589653
 31
0.0
  0
LINE
  5
13C
330
70
100
AcDbEntity
  8
W-S-A v1_4_ANYTOOL_CUTTHROUGH_OUTSI
100
AcDbLine
 10
-24.5573165456196
 20
-6.62373590275126
 30
0.0
 11
-24.5538532447818
 21
-6.63231029437874
 31
0.0
  0
LINE
  5
13D
330
70
100
AcDbEntity
  8
W-S-A v1_4_ANYTOOL_CUTTHROUGH_OUTSI
100
AcDbLine
 10
-25.9235434669494
 20
-6.939669434356519
 30
0.0
 11
-25.92301112001778
 21
-6.93766361437641
 31
0.0
  0
LINE
  5
13E
330
70
100
AcDbEntity
  8
W-S-A v1_4_ANYTOOL_CUTTHROUGH_OUTSI
100
AcDbLine
 10
-25.9272253101105
 20
-6.505151997666454
 30
0.0
 11
-25.9281595325034
 21
-6.503298909549531
 31
0.0
  0
LINE
  5
13F
330
70
100
AcDbEntity
  8
W-S-A v1_4_ANYTOOL_CUTTHROUGH_OUTSI
100
AcDbLine
 10
-25.9783303586661
 20
-6.471303292374919
 30
0.0
 11
-25.98040458543819
 21
-6.471237791639843
 31
0.0
  0
LINE
  5
140
330
70
100
AcDbEntity
  8
W-S-A v1_4_ANYTOOL_CUTTHROUGH_OUTSI
100
AcDbLine
 10
-26.18139463112119
 20
-6.77780626429606
 30
0.0
 11
-26.1794724698077
 21
-6.786851701839819
 31
0.0
  0
LINE
  5
141
330
70
100
AcDbEntity
  8
W-S-A v1_4_ANYTOOL_CUTTHROUGH_OUTSI
100
AcDbLine
 10
-25.96604501182239
 20
-6.473193112804562
 30
0.0
 11
-25.9680612323944
 21
-6.472701623584554
 31
0.0
  0
LINE
  5
142
330
70
100
AcDbEntity
  8
W-S-A v1_4_ANYTOOL_CUTTHROUGH_OUTSI
100
AcDbLine
 10
-25.92915728051869
 20
-6.501479237615832
 30
0.0
 11
-25.930217360543
 21
-6.499695158752629
 31
0.0
  0
LINE
  5
143
330
70
100
AcDbEntity
  8
W-S-A v1_4_ANYTOOL_CUTTHROUGH_OUTSI
100
AcDbLine
 10
-24.73589841233328
 20
-6.47147180041412
 30
0.0
 11
-24.73383497355551
 21
-6.471692995934841
 31
0.0
  0
LINE
  5
144
330
70
100
AcDbEntity
  8
W-S-A v1_4_ANYTOOL_CUTTHROUGH_OUTSI
100
AcDbLine
 10
-26.1329256630773
 20
-6.56780857044124
 30
0.0
 11
-26.13835995515229
 21
-6.57529075689422
 31
0.0
  0
LINE
  5
145
330
70
100
AcDbEntity
  8
W-S-A v1_4_ANYTOOL_CUTTHROUGH_OUTSI
100
AcDbLine
 10
-26.1830000214923
 20
-6.685810006879451
 30
0.0
 11
-26.18428668599929
 21
-6.69496747044313
 31
0.0
  0
LINE
  5
146
330
70
100
AcDbEntity
  8
W-S-A v1_4_ANYTOOL_CUTTHROUGH_OUTSI
100
AcDbLine
 10
-24.54528601790239
 20
-6.658684709091371
 30
0.0
 11
-24.543049426308
 21
-6.66765757387996
 31
0.0
  0
LINE
  5
147
330
70
100
AcDbEntity
  8
W-S-A v1_4_ANYTOOL_CUTTHROUGH_OUTSI
100
AcDbLine
 10
-24.7717540204234
 20
-6.974951307949572
 30
0.0
 11
-24.77352278734468
 21
-6.97386587226455
 31
0.0
  0
LINE
  5
148
330
70
100
AcDbEntity
  8
W-S-A v1_4_ANYTOOL_CUTTHROUGH_OUTSI
100
AcDbLine
 10
-24.8011174340916
 20
-6.927425014147569
 30
0.0
 11
-24.80122505883319
 21
-6.92535254606254
 31
0.0
  0
LINE
  5
149
330
70
100
AcDbEntity
  8
W-S-A v1_4_ANYTOOL_CUTTHROUGH_OUTSI
100
AcDbLine
 10
-26.17723587821329
 20
-6.795824566628412
 30
0.0
 11
-26.17468757988849
 21
-6.804713932191931
 31
0.0
  0
LINE
  5
14A
330
70
100
AcDbEntity
  8
W-S-A v1_4_ANYTOOL_CUTTHROUGH_OUTSI
100
AcDbLine
 10
-25.92254845779309
 20
-6.518868691425642
 30
0.0
 11
-25.92301112001778
 21
-6.516845661343223
 31
0.0
  0
LINE
  5
14B
330
70
100
AcDbEntity
  8
W-S-A v1_4_ANYTOOL_CUTTHROUGH_OUTSI
100
AcDbLine
 10
-26.12129076286219
 20
-6.901073719634341
 30
0.0
 11
-26.1151043228153
 21
-6.907947045177539
 31
0.0
  0
LINE
  5
14C
330
70
100
AcDbEntity
  8
W-S-A v1_4_ANYTOOL_CUTTHROUGH_OUTSI
100
AcDbLine
 10
-26.16144499278619
 20
-6.615287568337564
 30
0.0
 11
-26.16520535049609
 21
-6.62373590275126
 31
0.0
  0
LINE
  5
14D
330
70
100
AcDbEntity
  8
W-S-A v1_4_ANYTOOL_CUTTHROUGH_OUTSI
100
AcDbLine
 10
-25.9221560337617
 20
-6.520906511444174
 30
0.0
 11
-25.92254845779309
 21
-6.518868691425642
 31
0.0
  0
ARC
  5
14E
330
70
100
AcDbEntity
  8
W-S-A v1_4_ANYTOOL_CUTTHROUGH_OUTSI
100
AcDbCircle
 10
25.95308075321109
 20
-6.964074443020052
 30
0.0
 40
0.0449999999999904
210
0.0
220
0.0
230
-1.0
100
AcDbArc
 50
60.30519438091557
 51
225.0000000001631
  0
LINE
  5
14F
330
70
100
AcDbEntity
  8
W-S-A v1_4_ANYTOOL_CUTTHROUGH_OUTSI
100
AcDbLine
 10
-24.7933646155969
 20
-6.95303003810387
 30
0.0
 11
-24.79436236361229
 21
-6.951210366170171
 31
0.0
  0
LINE
  5
150
330
70
100
AcDbEntity
  8
W-S-A v1_4_ANYTOOL_CUTTHROUGH_OUTSI
100
AcDbLine
 10
-26.17468757988849
 20
-6.649795343527848
 30
0.0
 11
-26.17723587821329
 21
-6.658684709091372
 31
0.0
  0
LINE
  5
151
330
70
100
AcDbEntity
  8
W-S-A v1_4_ANYTOOL_CUTTHROUGH_OUTSI
100
AcDbLine
 10
-24.79897842916629
 20
-6.51483984136311
 30
0.0
 11
-24.79837703437839
 21
-6.512853631062731
 31
0.0
  0
LINE
  5
152
330
70
100
AcDbEntity
  8
W-S-A v1_4_ANYTOOL_CUTTHROUGH_OUTSI
100
AcDbLine
 10
-25.9680612323944
 20
-6.472701623584554
 30
0.0
 11
-25.97009324388539
 21
-6.47228015431077
 31
0.0
  0
LINE
  5
153
330
70
100
AcDbEntity
  8
W-S-A v1_4_ANYTOOL_CUTTHROUGH_OUTSI
100
AcDbLine
 10
-24.7662375246841
 20
-6.977831886273243
 30
0.0
 11
-24.7681092089354
 21
-6.976935501806851
 31
0.0
  0
LINE
  5
154
330
70
100
AcDbEntity
  8
W-S-A v1_4_ANYTOOL_CUTTHROUGH_OUTSI
100
AcDbLine
 10
-24.79770731118739
 20
-6.943619869159278
 30
0.0
 11
-24.79837703437848
 21
-6.94165564465698
 31
0.0
  0
LINE
  5
155
330
70
100
AcDbEntity
  8
W-S-A v1_4_ANYTOOL_CUTTHROUGH_OUTSI
100
AcDbLine
 10
-24.73383497355551
 20
-6.471692995934841
 30
0.0
 11
-24.7317804185268
 21
-6.47198541803065
 31
0.0
  0
LINE
  5
156
330
70
100
AcDbEntity
  8
W-S-A v1_4_ANYTOOL_CUTTHROUGH_OUTSI
100
AcDbLine
 10
-24.7317804185268
 20
-6.47198541803065
 30
0.0
 11
-24.7297372051267
 21
-6.472348716874813
 31
0.0
  0
LINE
  5
157
330
70
100
AcDbEntity
  8
W-S-A v1_4_ANYTOOL_CUTTHROUGH_OUTSI
100
AcDbLine
 10
-25.9212609480571
 20
-6.53123168002077
 30
0.0
 11
-25.9212968372825
 21
-6.529156729657161
 31
0.0
  0
LINE
  5
158
330
70
100
AcDbEntity
  8
W-S-A v1_4_ANYTOOL_CUTTHROUGH_OUTSI
100
AcDbLine
 10
-24.53726883827549
 20
-6.70416425085486
 30
0.0
 11
-24.5366239358744
 21
-6.713389148977121
 31
0.0
  0
LINE
  5
159
330
70
100
AcDbEntity
  8
W-S-A v1_4_ANYTOOL_CUTTHROUGH_OUTSI
100
AcDbLine
 10
-26.13835995515229
 20
-6.87921851882556
 30
0.0
 11
-26.1329256630773
 21
-6.88670070527854
 31
0.0
  0
LINE
  5
15A
330
70
100
AcDbEntity
  8
W-S-A v1_4_ANYTOOL_CUTTHROUGH_OUTSI
100
AcDbLine
 10
-25.9741948999993
 20
-6.471649208060822
 30
0.0
 11
-25.97625963778019
 21
-6.471440485890462
 31
0.0
  0
LINE
  5
15B
330
70
100
AcDbEntity
  8
W-S-A v1_4_ANYTOOL_CUTTHROUGH_OUTSI
100
AcDbLine
 10
-26.1151043228153
 20
-6.907947045177539
 30
0.0
 11
-26.10868183510349
 21
-6.914600337299829
 31
0.0
  0
LINE
  5
15C
330
70
100
AcDbEntity
  8
W-S-A v1_4_ANYTOOL_CUTTHROUGH_OUTSI
100
AcDbLine
 10
-25.97625963778019
 20
-6.471440485890462
 30
0.0
 11
-25.9783303586661
 21
-6.471303292374919
 31
0.0
  0
LINE
  5
15D
330
70
100
AcDbEntity
  8
W-S-A v1_4_ANYTOOL_CUTTHROUGH_OUTSI
100
AcDbLine
 10
-25.97009324388539
 20
-6.47228015431077
 30
0.0
 11
-25.9721386153848
 21
-6.47192920919018
 31
0.0
  0
LINE
  5
15E
330
70
100
AcDbEntity
  8
W-S-A v1_4_ANYTOOL_CUTTHROUGH_OUTSI
100
AcDbLine
 10
-25.9489991087709
 20
-6.480643403455152
 30
0.0
 11
-25.95076787569229
 21
-6.479557967770143
 31
0.0
  0
LINE
  5
15F
330
70
100
AcDbEntity
  8
W-S-A v1_4_ANYTOOL_CUTTHROUGH_OUTSI
100
AcDbLine
 10
-24.7544606637213
 20
-6.981807652135148
 30
0.0
 11
-24.75647688429319
 21
-6.981316162915149
 31
0.0
  0
LINE
  5
160
330
70
100
AcDbEntity
  8
W-S-A v1_4_ANYTOOL_CUTTHROUGH_OUTSI
100
AcDbLine
 10
-24.5411272649946
 20
-6.676703011423719
 30
0.0
 11
-24.53952187462351
 21
-6.685810006879451
 31
0.0
  0
LINE
  5
161
330
70
100
AcDbEntity
  8
W-S-A v1_4_ANYTOOL_CUTTHROUGH_OUTSI
100
AcDbLine
 10
-26.16520535049609
 20
-6.62373590275126
 30
0.0
 11
-26.168668651334
 21
-6.63231029437874
 31
0.0
  0
LINE
  5
162
330
70
100
AcDbEntity
  8
W-S-A v1_4_ANYTOOL_CUTTHROUGH_OUTSI
100
AcDbLine
 10
-26.18525305784029
 20
-6.70416425085486
 30
0.0
 11
-26.18589796024139
 21
-6.713389148977121
 31
0.0
  0
LINE
  5
163
330
70
100
AcDbEntity
  8
W-S-A v1_4_ANYTOOL_CUTTHROUGH_OUTSI
100
AcDbLine
 10
-24.69764433851759
 20
-6.483351791982251
 30
0.0
 11
-24.6891975136286
 21
-6.48711553928636
 31
0.0
  0
LINE
  5
164
330
70
100
AcDbEntity
  8
W-S-A v1_4_ANYTOOL_CUTTHROUGH_OUTSI
100
AcDbLine
 10
-24.79697006078799
 20
-6.945559758047069
 30
0.0
 11
-24.79770731118739
 21
-6.943619869159278
 31
0.0
  0
LINE
  5
165
330
70
100
AcDbEntity
  8
W-S-A v1_4_ANYTOOL_CUTTHROUGH_OUTSI
100
AcDbLine
 10
-25.92158369352981
 20
-6.929492520644612
 30
0.0
 11
-25.9214044620242
 21
-6.92742501414757
 31
0.0
  0
LINE
  5
166
330
70
100
AcDbEntity
  8
W-S-A v1_4_ANYTOOL_CUTTHROUGH_OUTSI
100
AcDbLine
 10
-24.7483269961164
 20
-6.982860067658738
 30
0.0
 11
-24.7503832807309
 21
-6.98258006652953
 31
0.0
  0
LINE
  5
167
330
70
100
AcDbEntity
  8
W-S-A v1_4_ANYTOOL_CUTTHROUGH_OUTSI
100
AcDbLine
 10
-26.08807767385479
 20
-6.933160392986082
 30
0.0
 11
-26.08079193317159
 21
-6.938855358057963
 31
0.0
  0
LINE
  5
168
330
70
100
AcDbEntity
  8
W-S-A v1_4_ANYTOOL_CUTTHROUGH_OUTSI
100
AcDbLine
 10
-26.17183067795639
 20
-6.813508973739563
 30
0.0
 11
-26.168668651334
 21
-6.822198981341039
 31
0.0
  0
LINE
  5
169
330
70
100
AcDbEntity
  8
W-S-A v1_4_ANYTOOL_CUTTHROUGH_OUTSI
100
AcDbLine
 10
-24.57409275215079
 20
-6.590800943267941
 30
0.0
 11
-24.56947011690261
 21
-6.598810056067573
 31
0.0
  0
ARC
  5
16A
330
70
100
AcDbEntity
  8
W-S-A v1_4_ANYTOOL_CUTTHROUGH_OUTSI
100
AcDbCircle
 10
24.76944114290442
 20
-6.490434832713193
 30
0.0
 40
0.0449999999999448
210
0.0
220
0.0
230
-1.0
100
AcDbArc
 50
240.3051943813875
 51
45.00000008856429
  0
LINE
  5
16B
330
70
100
AcDbEntity
  8
W-S-A v1_4_ANYTOOL_CUTTHROUGH_OUTSI
100
AcDbLine
 10
-24.7817470435513
 20
-6.486949899661823
 30
0.0
 11
-24.78019145170349
 21
-6.485576276332332
 31
0.0
  0
LINE
  5
16C
330
70
100
AcDbEntity
  8
W-S-A v1_4_ANYTOOL_CUTTHROUGH_OUTSI
100
AcDbLine
 10
-26.18589796024139
 20
-6.741120126742649
 30
0.0
 11
-26.18525305784029
 21
-6.75034502486492
 31
0.0
  0
LINE
  5
16D
330
70
100
AcDbEntity
  8
W-S-A v1_4_ANYTOOL_CUTTHROUGH_OUTSI
100
AcDbLine
 10
-26.1329256630773
 20
-6.88670070527854
 30
0.0
 11
-26.12723362186949
 21
-6.893988730481843
 31
0.0
  0
LINE
  5
16E
330
70
100
AcDbEntity
  8
W-S-A v1_4_ANYTOOL_CUTTHROUGH_OUTSI
100
AcDbLine
 10
-24.6647161131435
 20
-6.500141212325443
 30
0.0
 11
-24.6568751296995
 21
-6.50504362225377
 31
0.0
  0
LINE
  5
16F
330
70
100
AcDbEntity
  8
W-S-A v1_4_ANYTOOL_CUTTHROUGH_OUTSI
100
AcDbLine
 10
-25.94726893693029
 20
-6.481789358275469
 30
0.0
 11
-25.9489991087709
 21
-6.480643403455152
 31
0.0
  0
LINE
  5
170
330
70
100
AcDbEntity
  8
W-S-A v1_4_ANYTOOL_CUTTHROUGH_OUTSI
100
AcDbLine
 10
-24.77858928700169
 20
-6.970252004814442
 30
0.0
 11
-24.78019145170349
 21
-6.968932999387369
 31
0.0
  0
LINE
  5
171
330
70
100
AcDbEntity
  8
W-S-A v1_4_ANYTOOL_CUTTHROUGH_OUTSI
100
AcDbLine
 10
-24.67272337046459
 20
-6.495515363790451
 30
0.0
 11
-24.6647161131435
 21
-6.500141212325443
 31
0.0
  0
LINE
  5
172
330
70
100
AcDbEntity
  8
W-S-A v1_4_ANYTOOL_CUTTHROUGH_OUTSI
100
AcDbLine
 10
-26.10203112054189
 20
-6.92102549413013
 30
0.0
 11
-26.09516027786309
 21
-6.92721469160298
 31
0.0
  0
LINE
  5
173
330
70
100
AcDbEntity
  8
W-S-A v1_4_ANYTOOL_CUTTHROUGH_OUTSI
100
AcDbLine
 10
-26.12723362186949
 20
-6.560520545237933
 30
0.0
 11
-26.1329256630773
 21
-6.56780857044124
 31
0.0
  0
LINE
  5
174
330
70
100
AcDbEntity
  8
W-S-A v1_4_ANYTOOL_CUTTHROUGH_OUTSI
100
AcDbLine
 10
-24.6891975136286
 20
-6.48711553928636
 30
0.0
 11
-24.6808871510359
 21
-6.491171709653909
 31
0.0
  0
LINE
  5
175
330
70
100
AcDbEntity
  8
W-S-A v1_4_ANYTOOL_CUTTHROUGH_OUTSI
100
AcDbLine
 10
-26.14842914396499
 20
-6.863708332451842
 30
0.0
 11
-26.1435298806284
 21
-6.871551282358241
 31
0.0
  0
LINE
  5
176
330
70
100
AcDbEntity
  8
W-S-A v1_4_ANYTOOL_CUTTHROUGH_OUTSI
100
AcDbLine
 10
-24.80036586235389
 20
-6.520906511444174
 30
0.0
 11
-24.79997343832249
 21
-6.518868691425641
 31
0.0
  0
LINE
  5
177
330
70
100
AcDbEntity
  8
W-S-A v1_4_ANYTOOL_CUTTHROUGH_OUTSI
100
AcDbLine
 10
-25.9218343173834
 20
-6.93155259218035
 30
0.0
 11
-25.92158369352981
 21
-6.929492520644612
 31
0.0
  0
LINE
  5
178
330
70
100
AcDbEntity
  8
W-S-A v1_4_ANYTOOL_CUTTHROUGH_OUTSI
100
AcDbLine
 10
-24.55069121815939
 20
-6.641000301980139
 30
0.0
 11
-24.54783431622729
 21
-6.649795343527848
 31
0.0
  0
LINE
  5
179
330
70
100
AcDbEntity
  8
W-S-A v1_4_ANYTOOL_CUTTHROUGH_OUTSI
100
AcDbLine
 10
-24.63444422226099
 20
-6.933160392986082
 30
0.0
 11
-24.64172996294419
 21
-6.938855358057963
 31
0.0
  0
LINE
  5
17A
330
70
100
AcDbEntity
  8
W-S-A v1_4_ANYTOOL_CUTTHROUGH_OUTSI
100
AcDbLine
 10
-26.04979852565119
 20
-6.95899391192926
 30
0.0
 11
-26.0416347450799
 21
-6.96333756606587
 31
0.0
  0
LINE
  5
17B
330
70
100
AcDbEntity
  8
W-S-A v1_4_ANYTOOL_CUTTHROUGH_OUTSI
100
AcDbLine
 10
-25.93021736054309
 20
-6.954814116967072
 30
0.0
 11
-25.9291572805188
 21
-6.95303003810387
 31
0.0
  0
LINE
  5
17C
330
70
100
AcDbEntity
  8
W-S-A v1_4_ANYTOOL_CUTTHROUGH_OUTSI
100
AcDbLine
 10
-24.79529658600519
 20
-6.949357278053262
 30
0.0
 11
-24.79616616515849
 21
-6.94747299061656
 31
0.0
  0
LINE
  5
17D
330
70
100
AcDbEntity
  8
W-S-A v1_4_ANYTOOL_CUTTHROUGH_OUTSI
100
AcDbLine
 10
-24.71490607794209
 20
-6.476719537709919
 30
0.0
 11
-24.7062173398043
 21
-6.479885050945859
 31
0.0
  0
LINE
  5
17E
330
70
100
AcDbEntity
  8
W-S-A v1_4_ANYTOOL_CUTTHROUGH_OUTSI
100
AcDbLine
 10
-24.79951077609789
 20
-6.93766361437641
 30
0.0
 11
-24.7999734383226
 21
-6.935640584294059
 31
0.0
  0
ARC
  5
17F
330
70
100
AcDbEntity
  8
W-S-A v1_4_ANYTOOL_CUTTHROUGH_OUTSI
100
AcDbCircle
 10
24.76944114290451
 20
-6.964074443020174
 30
0.0
 40
0.0449999999999791
210
0.0
220
0.0
230
-1.0
100
AcDbArc
 50
314.9999999115908
 51
119.6948056188213
  0
LINE
  5
180
330
70
100
AcDbEntity
  8
W-S-A v1_4_ANYTOOL_CUTTHROUGH_OUTSI
100
AcDbLine
 10
-24.7400420594324
 20
-6.471244062044043
 30
0.0
 11
-24.7379682663529
 21
-6.471322096086343
 31
0.0
  0
LINE
  5
181
330
70
100
AcDbEntity
  8
W-S-A v1_4_ANYTOOL_CUTTHROUGH_OUTSI
100
AcDbLine
 10
-25.92126094805779
 20
-6.337254637867069
 30
0.0
 11
-25.9212609480579
 21
-6.458615027559763
 31
0.0
  0
LINE
  5
182
330
70
100
AcDbEntity
  8
W-S-A v1_4_ANYTOOL_CUTTHROUGH_OUTSI
100
AcDbLine
 10
-24.7256945639668
 20
-6.473286122069231
 30
0.0
 11
-24.7236999724488
 21
-6.473859106994619
 31
0.0
  0
LINE
  5
183
330
70
100
AcDbEntity
  8
W-S-A v1_4_ANYTOOL_CUTTHROUGH_OUTSI
100
AcDbLine
 10
-24.75647688429319
 20
-6.981316162915149
 30
0.0
 11
-24.75847490192639
 21
-6.980755241721031
 31
0.0
  0
LINE
  5
184
330
70
100
AcDbEntity
  8
W-S-A v1_4_ANYTOOL_CUTTHROUGH_OUTSI
100
AcDbLine
 10
-24.78325420157891
 20
-6.966132778101869
 30
0.0
 11
-24.7847111227617
 21
-6.964654912169039
 31
0.0
  0
LINE
  5
185
330
70
100
AcDbEntity
  8
W-S-A v1_4_ANYTOOL_CUTTHROUGH_OUTSI
100
AcDbLine
 10
-24.80122505883319
 20
-6.92535254606254
 30
0.0
 11
-24.80126094805859
 21
-6.923277595698868
 31
0.0
  0
LINE
  5
186
330
70
100
AcDbEntity
  8
W-S-A v1_4_ANYTOOL_CUTTHROUGH_OUTSI
100
AcDbLine
 10
-24.55069121815939
 20
-6.813508973739563
 30
0.0
 11
-24.5538532447818
 21
-6.822198981341038
 31
0.0
  0
LINE
  5
187
330
70
100
AcDbEntity
  8
W-S-A v1_4_ANYTOOL_CUTTHROUGH_OUTSI
100
AcDbLine
 10
-24.6808871510359
 20
-6.96333756606587
 30
0.0
 11
-24.6891975136286
 21
-6.967393736433418
 31
0.0
  0
LINE
  5
188
330
70
100
AcDbEntity
  8
W-S-A v1_4_ANYTOOL_CUTTHROUGH_OUTSI
100
AcDbLine
 10
-24.72369997244889
 20
-6.980650168725019
 30
0.0
 11
-24.7256945639668
 21
-6.981223153650471
 31
0.0
  0
LINE
  5
189
330
70
100
AcDbEntity
  8
W-S-A v1_4_ANYTOOL_CUTTHROUGH_OUTSI
100
AcDbLine
 10
-25.98868692256019
 20
-6.982816279784942
 30
0.0
 11
-25.98662348378239
 21
-6.983037475305509
 31
0.0
  0
LINE
  5
18A
330
70
100
AcDbEntity
  8
W-S-A v1_4_ANYTOOL_CUTTHROUGH_OUTSI
100
AcDbLine
 10
-25.9640469941894
 20
-6.980755241721031
 30
0.0
 11
-25.96206956973869
 21
-6.98012555958715
 31
0.0
  0
LINE
  5
18B
330
70
100
AcDbEntity
  8
W-S-A v1_4_ANYTOOL_CUTTHROUGH_OUTSI
100
AcDbLine
 10
-25.99882192366691
 20
-6.980650168725019
 30
0.0
 11
-25.99682733214899
 21
-6.981223153650471
 31
0.0
  0
LINE
  5
18C
330
70
100
AcDbEntity
  8
W-S-A v1_4_ANYTOOL_CUTTHROUGH_OUTSI
100
AcDbLine
 10
-25.92481458492839
 20
-6.943619869159278
 30
0.0
 11
-25.9241448617373
 21
-6.94165564465698
 31
0.0
  0
LINE
  5
18D
330
70
100
AcDbEntity
  8
W-S-A v1_4_ANYTOOL_CUTTHROUGH_OUTSI
100
AcDbLine
 10
-24.73589841233339
 20
-6.983037475305509
 30
0.0
 11
-24.73796826635298
 21
-6.983187179633359
 31
0.0
  0
ARC
  5
18E
330
70
100
AcDbEntity
  8
W-S-A v1_4_ANYTOOL_CUTTHROUGH_OUTSI
100
AcDbCircle
 10
-24.8612609480578
 20
-6.337254637866773
 30
0.0
 40
0.0600000000000093
100
AcDbArc
 50
359.9999999997218
 51
89.99999999999323
  0
LINE
  5
18F
330
70
100
AcDbEntity
  8
W-S-A v1_4_ANYTOOL_CUTTHROUGH_OUTSI
100
AcDbLine
 10
-24.8009382025859
 20
-6.525016755075021
 30
0.0
 11
-24.80068757873229
 21
-6.522956683539351
 31
0.0
  0
LINE
  5
190
330
70
100
AcDbEntity
  8
W-S-A v1_4_ANYTOOL_CUTTHROUGH_OUTSI
100
AcDbLine
 10
-24.7236999724488
 20
-6.473859106994619
 30
0.0
 11
-24.71490607794209
 21
-6.476719537709919
 31
0.0
  0
LINE
  5
191
330
70
100
AcDbEntity
  8
W-S-A v1_4_ANYTOOL_CUTTHROUGH_OUTSI
100
AcDbLine
 10
-26.18428668599929
 20
-6.69496747044313
 30
0.0
 11
-26.18525305784029
 21
-6.70416425085486
 31
0.0
  0
LINE
  5
192
330
70
100
AcDbEntity
  8
W-S-A v1_4_ANYTOOL_CUTTHROUGH_OUTSI
100
AcDbLine
 10
-25.94726893693049
 20
-6.972719917444242
 30
0.0
 11
-25.9455794299882
 21
-6.971514814402962
 31
0.0
  0
LINE
  5
193
330
70
100
AcDbEntity
  8
W-S-A v1_4_ANYTOOL_CUTTHROUGH_OUTSI
100
AcDbLine
 10
-24.77352278734468
 20
-6.97386587226455
 30
0.0
 11
-24.77525295918529
 21
-6.972719917444242
 31
0.0
  0
LINE
  5
194
330
70
100
AcDbEntity
  8
W-S-A v1_4_ANYTOOL_CUTTHROUGH_OUTSI
100
AcDbLine
 10
-26.0248775575982
 20
-6.971157483737451
 30
0.0
 11
-26.0163045563115
 21
-6.974624224773842
 31
0.0
  0
LINE
  5
195
330
70
100
AcDbEntity
  8
W-S-A v1_4_ANYTOOL_CUTTHROUGH_OUTSI
100
AcDbLine
 10
-24.7062173398043
 20
-6.974624224773842
 30
0.0
 11
-24.71490607794209
 21
-6.977789738009859
 31
0.0
  0
LINE
  5
196
330
70
100
AcDbEntity
  8
W-S-A v1_4_ANYTOOL_CUTTHROUGH_OUTSI
100
AcDbLine
 10
-24.7462622583355
 20
-6.983068789829172
 30
0.0
 11
-24.7483269961164
 21
-6.982860067658738
 31
0.0
  0
LINE
  5
197
330
70
100
AcDbEntity
  8
W-S-A v1_4_ANYTOOL_CUTTHROUGH_OUTSI
100
AcDbLine
 10
-24.7999734383226
 20
-6.935640584294059
 30
0.0
 11
-24.80036586235399
 21
-6.933602764275542
 31
0.0
  0
LINE
  5
198
330
70
100
AcDbEntity
  8
W-S-A v1_4_ANYTOOL_CUTTHROUGH_OUTSI
100
AcDbLine
 10
-24.80036586235399
 20
-6.933602764275542
 30
0.0
 11
-24.80068757873229
 21
-6.93155259218035
 31
0.0
  0
LINE
  5
199
330
70
100
AcDbEntity
  8
W-S-A v1_4_ANYTOOL_CUTTHROUGH_OUTSI
100
AcDbLine
 10
-24.73796826635298
 20
-6.983187179633359
 30
0.0
 11
-24.7400420594324
 21
-6.983265213675672
 31
0.0
  0
LINE
  5
19A
330
70
100
AcDbEntity
  8
W-S-A v1_4_ANYTOOL_CUTTHROUGH_OUTSI
100
AcDbLine
 10
-25.9263557309573
 20
-6.94747299061656
 30
0.0
 11
-25.92555183532779
 21
-6.94555975804707
 31
0.0
  0
LINE
  5
19B
330
70
100
AcDbEntity
  8
W-S-A v1_4_ANYTOOL_CUTTHROUGH_OUTSI
100
AcDbLine
 10
-26.0163045563115
 20
-6.974624224773842
 30
0.0
 11
-26.00761581817369
 21
-6.97778973800986
 31
0.0
  0
LINE
  5
19C
330
70
100
AcDbEntity
  8
W-S-A v1_4_ANYTOOL_CUTTHROUGH_OUTSI
100
AcDbLine
 10
-24.7379682663529
 20
-6.471322096086343
 30
0.0
 11
-24.73589841233328
 21
-6.47147180041412
 31
0.0
  0
LINE
  5
19D
330
70
100
AcDbEntity
  8
W-S-A v1_4_ANYTOOL_CUTTHROUGH_OUTSI
100
AcDbLine
 10
-24.79897842916638
 20
-6.939669434356519
 30
0.0
 11
-24.79951077609789
 21
-6.93766361437641
 31
0.0
  0
LINE
  5
19E
330
70
100
AcDbEntity
  8
W-S-A v1_4_ANYTOOL_CUTTHROUGH_OUTSI
100
AcDbLine
 10
-24.75242865223029
 20
-6.982229121408872
 30
0.0
 11
-24.7544606637213
 21
-6.981807652135148
 31
0.0
  0
LINE
  5
19F
330
70
100
AcDbEntity
  8
W-S-A v1_4_ANYTOOL_CUTTHROUGH_OUTSI
100
AcDbLine
 10
-25.99074147758898
 20
-6.982523857689061
 30
0.0
 11
-25.98868692256019
 21
-6.982816279784942
 31
0.0
  0
LINE
  5
1A0
330
70
100
AcDbEntity
  8
W-S-A v1_4_ANYTOOL_CUTTHROUGH_OUTSI
100
AcDbLine
 10
-26.06564676641629
 20
-6.949465653465932
 30
0.0
 11
-26.05780578297229
 21
-6.954368063394262
 31
0.0
  0
LINE
  5
1A1
330
70
100
AcDbEntity
  8
W-S-A v1_4_ANYTOOL_CUTTHROUGH_OUTSI
100
AcDbLine
 10
-26.00761581817369
 20
-6.97778973800986
 30
0.0
 11
-25.99882192366691
 21
-6.980650168725019
 31
0.0
  0
LINE
  5
1A2
330
70
100
AcDbEntity
  8
W-S-A v1_4_ANYTOOL_CUTTHROUGH_OUTSI
100
AcDbLine
 10
-24.727707777667
 20
-6.472782457850239
 30
0.0
 11
-24.7256945639668
 21
-6.473286122069231
 31
0.0
  0
LINE
  5
1A3
330
70
100
AcDbEntity
  8
W-S-A v1_4_ANYTOOL_CUTTHROUGH_OUTSI
100
AcDbLine
 10
-24.79436236361229
 20
-6.951210366170171
 30
0.0
 11
-24.79529658600519
 21
-6.949357278053262
 31
0.0
  0
LINE
  5
1A4
330
70
100
AcDbEntity
  8
W-S-A v1_4_ANYTOOL_CUTTHROUGH_OUTSI
100
AcDbLine
 10
-24.79837703437848
 20
-6.94165564465698
 30
0.0
 11
-24.79897842916638
 21
-6.939669434356519
 31
0.0
  0
LINE
  5
1A5
330
70
100
AcDbEntity
  8
W-S-A v1_4_ANYTOOL_CUTTHROUGH_OUTSI
100
AcDbLine
 10
-24.6808871510359
 20
-6.491171709653909
 30
0.0
 11
-24.67272337046459
 21
-6.495515363790451
 31
0.0
  0
LINE
  5
1A6
330
70
100
AcDbEntity
  8
W-S-A v1_4_ANYTOOL_CUTTHROUGH_OUTSI
100
AcDbLine
 10
-24.7062173398043
 20
-6.479885050945859
 30
0.0
 11
-24.69764433851759
 21
-6.483351791982251
 31
0.0
  0
LINE
  5
1A7
330
70
100
AcDbEntity
  8
W-S-A v1_4_ANYTOOL_CUTTHROUGH_OUTSI
100
AcDbLine
 10
-24.7911833917211
 20
-6.956560468452931
 30
0.0
 11
-24.7923045355727
 21
-6.954814116967072
 31
0.0
  0
LINE
  5
1A8
330
70
100
AcDbEntity
  8
W-S-A v1_4_ANYTOOL_CUTTHROUGH_OUTSI
100
AcDbLine
 10
-24.79616616515849
 20
-6.94747299061656
 30
0.0
 11
-24.79697006078799
 21
-6.945559758047069
 31
0.0
  0
ARC
  5
1A9
330
70
100
AcDbEntity
  8
W-S-A v1_4_ANYTOOL_CUTTHROUGH_OUTSI
100
AcDbCircle
 10
25.95308075321114
 20
-6.490434832713339
 30
0.0
 40
0.0450000000000173
210
0.0
220
0.0
230
-1.0
100
AcDbArc
 50
134.9999999996945
 51
299.6948056188566
  0
LINE
  5
1AA
330
70
100
AcDbEntity
  8
W-S-A v1_4_ANYTOOL_CUTTHROUGH_OUTSI
100
AcDbLine
 10
-25.9845536297628
 20
-6.983187179633359
 30
0.0
 11
-25.98247983668329
 21
-6.983265213675672
 31
0.0
  0
LINE
  5
1AB
330
70
100
AcDbEntity
  8
W-S-A v1_4_ANYTOOL_CUTTHROUGH_OUTSI
100
AcDbLine
 10
-24.74211731067751
 20
-6.471237791639842
 30
0.0
 11
-24.7400420594324
 21
-6.471244062044043
 31
0.0
  0
LINE
  5
1AC
330
70
100
AcDbEntity
  8
W-S-A v1_4_ANYTOOL_CUTTHROUGH_OUTSI
100
AcDbLine
 10
-25.98040458543819
 20
-6.471237791639843
 30
0.0
 11
-25.98247983668321
 21
-6.471244062044043
 31
0.0
  0
LINE
  5
1AD
330
70
100
AcDbEntity
  8
W-S-A v1_4_ANYTOOL_CUTTHROUGH_OUTSI
100
AcDbLine
 10
-24.6012311332536
 20
-6.901073719634341
 30
0.0
 11
-24.60741757330039
 21
-6.907947045177538
 31
0.0
  0
LINE
  5
1AE
330
70
100
AcDbEntity
  8
W-S-A v1_4_ANYTOOL_CUTTHROUGH_OUTSI
100
AcDbLine
 10
-24.53952187462351
 20
-6.76869926884026
 30
0.0
 11
-24.5411272649946
 21
-6.77780626429606
 31
0.0
  0
LINE
  5
1AF
330
70
100
AcDbEntity
  8
W-S-A v1_4_ANYTOOL_CUTTHROUGH_OUTSI
100
AcDbLine
 10
-26.08079193317159
 20
-6.938855358057963
 30
0.0
 11
-26.07331192783219
 21
-6.944292651925111
 31
0.0
  0
LINE
  5
1B0
330
70
100
AcDbEntity
  8
W-S-A v1_4_ANYTOOL_CUTTHROUGH_OUTSI
100
AcDbLine
 10
-24.7817470435513
 20
-6.967559376057811
 30
0.0
 11
-24.78325420157891
 21
-6.966132778101869
 31
0.0
  0
LINE
  5
1B1
330
70
100
AcDbEntity
  8
W-S-A v1_4_ANYTOOL_CUTTHROUGH_OUTSI
100
AcDbLine
 10
-26.0416347450799
 20
-6.96333756606587
 30
0.0
 11
-26.03332438248719
 21
-6.967393736433418
 31
0.0
  0
LINE
  5
1B2
330
70
100
AcDbEntity
  8
W-S-A v1_4_ANYTOOL_CUTTHROUGH_OUTSI
100
AcDbLine
 10
-25.99682733214899
 20
-6.981223153650471
 30
0.0
 11
-25.9948141184488
 21
-6.981726817869539
 31
0.0
  0
LINE
  5
1B3
330
70
100
AcDbEntity
  8
W-S-A v1_4_ANYTOOL_CUTTHROUGH_OUTSI
100
AcDbLine
 10
-26.07331192783219
 20
-6.944292651925111
 30
0.0
 11
-26.06564676641629
 21
-6.949465653465932
 31
0.0
  0
LINE
  5
1B4
330
70
100
AcDbEntity
  8
W-S-A v1_4_ANYTOOL_CUTTHROUGH_OUTSI
100
AcDbLine
 10
-25.992784690989
 20
-6.982160558844821
 30
0.0
 11
-25.99074147758898
 21
-6.982523857689061
 31
0.0
  0
LINE
  5
1B5
330
70
100
AcDbEntity
  8
W-S-A v1_4_ANYTOOL_CUTTHROUGH_OUTSI
100
AcDbLine
 10
-24.80126094800859
 20
-6.458615027510651
 30
0.0
 11
-24.80126094805779
 21
-6.337254637867064
 31
0.0
  0
LINE
  5
1B6
330
70
100
AcDbEntity
  8
W-S-A v1_4_ANYTOOL_CUTTHROUGH_OUTSI
100
AcDbLine
 10
-24.8009382025859
 20
-6.929492520644611
 30
0.0
 11
-24.8011174340916
 21
-6.927425014147569
 31
0.0
  0
LINE
  5
1B7
330
70
100
AcDbEntity
  8
W-S-A v1_4_ANYTOOL_CUTTHROUGH_OUTSI
100
AcDbLine
 10
-25.9948141184488
 20
-6.981726817869539
 30
0.0
 11
-25.992784690989
 21
-6.982160558844821
 31
0.0
  0
LINE
  5
1B8
330
70
100
AcDbEntity
  8
W-S-A v1_4_ANYTOOL_CUTTHROUGH_OUTSI
100
AcDbLine
 10
-24.76240679203778
 20
-6.97942786980694
 30
0.0
 11
-24.7643359607665
 21
-6.978663007032059
 31
0.0
  0
LINE
  5
1B9
330
70
100
AcDbEntity
  8
W-S-A v1_4_ANYTOOL_CUTTHROUGH_OUTSI
100
AcDbLine
 10
-25.97213861538489
 20
-6.98258006652953
 30
0.0
 11
-25.9700932438855
 21
-6.982229121408872
 31
0.0
  0
LINE
  5
1BA
330
70
100
AcDbEntity
  8
W-S-A v1_4_ANYTOOL_CUTTHROUGH_OUTSI
100
AcDbLine
 10
-25.9544126871804
 20
-6.976935501806852
 30
0.0
 11
-25.95257312170528
 21
-6.975974925984242
 31
0.0
  0
LINE
  5
1BB
330
70
100
AcDbEntity
  8
W-S-A v1_4_ANYTOOL_CUTTHROUGH_OUTSI
100
AcDbLine
 10
-25.98662348378239
 20
-6.983037475305509
 30
0.0
 11
-25.9845536297628
 21
-6.983187179633359
 31
0.0
  0
LINE
  5
1BC
330
70
100
AcDbEntity
  8
W-S-A v1_4_ANYTOOL_CUTTHROUGH_OUTSI
100
AcDbLine
 10
-25.95628437143169
 20
-6.977831886273243
 30
0.0
 11
-25.9544126871804
 21
-6.976935501806852
 31
0.0
  0
LINE
  5
1BD
330
70
100
AcDbEntity
  8
W-S-A v1_4_ANYTOOL_CUTTHROUGH_OUTSI
100
AcDbLine
 10
-24.53726883827549
 20
-6.750345024864919
 30
0.0
 11
-24.5382352101165
 21
-6.759541805276512
 31
0.0
  0
LINE
  5
1BE
330
70
100
AcDbEntity
  8
W-S-A v1_4_ANYTOOL_CUTTHROUGH_OUTSI
100
AcDbLine
 10
-24.5382352101165
 20
-6.759541805276512
 30
0.0
 11
-24.53952187462351
 21
-6.76869926884026
 31
0.0
  0
LINE
  5
1BF
330
70
100
AcDbEntity
  8
W-S-A v1_4_ANYTOOL_CUTTHROUGH_OUTSI
100
AcDbLine
 10
-26.03332438248719
 20
-6.967393736433418
 30
0.0
 11
-26.0248775575982
 21
-6.971157483737451
 31
0.0
  0
LINE
  5
1C0
330
70
100
AcDbEntity
  8
W-S-A v1_4_ANYTOOL_CUTTHROUGH_OUTSI
100
AcDbLine
 10
-24.56947011690261
 20
-6.855699219652351
 30
0.0
 11
-24.57409275215079
 21
-6.863708332451842
 31
0.0
  0
LINE
  5
1C1
330
70
100
AcDbEntity
  8
W-S-A v1_4_ANYTOOL_CUTTHROUGH_OUTSI
100
AcDbLine
 10
-25.98247983668329
 20
-6.983265213675672
 30
0.0
 11
-25.98040458543829
 21
-6.983271484079859
 31
0.0
  0
LINE
  5
1C2
330
70
100
AcDbEntity
  8
W-S-A v1_4_ANYTOOL_CUTTHROUGH_OUTSI
100
AcDbLine
 10
-25.9455794299882
 20
-6.971514814402962
 30
0.0
 11
-25.94393260911398
 21
-6.970252004814442
 31
0.0
  0
LINE
  5
1C3
330
70
100
AcDbEntity
  8
W-S-A v1_4_ANYTOOL_CUTTHROUGH_OUTSI
100
AcDbLine
 10
-25.9281595325034
 20
-6.503298909549531
 30
0.0
 11
-25.92915728051869
 21
-6.501479237615832
 31
0.0
  0
LINE
  5
1C4
330
70
100
AcDbEntity
  8
W-S-A v1_4_ANYTOOL_CUTTHROUGH_OUTSI
100
AcDbLine
 10
-24.727707777667
 20
-6.981726817869539
 30
0.0
 11
-24.72973720512679
 21
-6.982160558844821
 31
0.0
  0
LINE
  5
1C5
330
70
100
AcDbEntity
  8
W-S-A v1_4_ANYTOOL_CUTTHROUGH_OUTSI
100
AcDbLine
 10
-25.9562843714316
 20
-6.476677389446459
 30
0.0
 11
-25.9581859353492
 21
-6.475846268687652
 31
0.0
  0
LINE
  5
1C6
330
70
100
AcDbEntity
  8
W-S-A v1_4_ANYTOOL_CUTTHROUGH_OUTSI
100
AcDbLine
 10
-24.7400420594324
 20
-6.983265213675672
 30
0.0
 11
-24.74211731067751
 21
-6.983271484079859
 31
0.0
  0
LINE
  5
1C7
330
70
100
AcDbEntity
  8
W-S-A v1_4_ANYTOOL_CUTTHROUGH_OUTSI
100
AcDbLine
 10
-25.93375854720149
 20
-6.494577595487623
 30
0.0
 11
-25.9350545510416
 21
-6.492956768200579
 31
0.0
  0
LINE
  5
1C8
330
70
100
AcDbEntity
  8
W-S-A v1_4_ANYTOOL_CUTTHROUGH_OUTSI
100
AcDbLine
 10
-24.53662393587429
 20
-6.741120126742648
 30
0.0
 11
-24.53726883827549
 21
-6.750345024864919
 31
0.0
  0
LINE
  5
1C9
330
70
100
AcDbEntity
  8
W-S-A v1_4_ANYTOOL_CUTTHROUGH_OUTSI
100
AcDbLine
 10
-25.93781077335409
 20
-6.964654912169039
 30
0.0
 11
-25.93640583194169
 21
-6.963127546241712
 31
0.0
  0
LINE
  5
1CA
330
70
100
AcDbEntity
  8
W-S-A v1_4_ANYTOOL_CUTTHROUGH_OUTSI
100
AcDbLine
 10
-25.92414486173719
 20
-6.512853631062731
 30
0.0
 11
-25.92481458492828
 21
-6.51088940656036
 31
0.0
  0
LINE
  5
1CB
330
70
100
AcDbEntity
  8
W-S-A v1_4_ANYTOOL_CUTTHROUGH_OUTSI
100
AcDbLine
 10
-24.5411272649946
 20
-6.77780626429606
 30
0.0
 11
-24.543049426308
 21
-6.786851701839819
 31
0.0
  0
LINE
  5
1CC
330
70
100
AcDbEntity
  8
W-S-A v1_4_ANYTOOL_CUTTHROUGH_OUTSI
100
AcDbLine
 10
-24.57409275215079
 20
-6.863708332451842
 30
0.0
 11
-24.5789920154874
 21
-6.871551282358241
 31
0.0
  0
LINE
  5
1CD
330
70
100
AcDbEntity
  8
W-S-A v1_4_ANYTOOL_CUTTHROUGH_OUTSI
100
AcDbLine
 10
-24.5573165456196
 20
-6.830773372968442
 30
0.0
 11
-24.5610769033296
 21
-6.839221707382212
 31
0.0
  0
LINE
  5
1CE
330
70
100
AcDbEntity
  8
W-S-A v1_4_ANYTOOL_CUTTHROUGH_OUTSI
100
AcDbLine
 10
-25.93505455104169
 20
-6.961552507519131
 30
0.0
 11
-25.9337585472016
 21
-6.959931680232012
 31
0.0
  0
LINE
  5
1CF
330
70
100
AcDbEntity
  8
W-S-A v1_4_ANYTOOL_CUTTHROUGH_OUTSI
100
AcDbLine
 10
-25.9392676945368
 20
-6.488376497617842
 30
0.0
 11
-25.94077485256439
 21
-6.486949899661823
 31
0.0
  0
LINE
  5
1D0
330
70
100
AcDbEntity
  8
W-S-A v1_4_ANYTOOL_CUTTHROUGH_OUTSI
100
AcDbLine
 10
-24.58416194096351
 20
-6.87921851882556
 30
0.0
 11
-24.58959623303849
 21
-6.88670070527854
 31
0.0
  0
LINE
  5
1D1
330
70
100
AcDbEntity
  8
W-S-A v1_4_ANYTOOL_CUTTHROUGH_OUTSI
100
AcDbLine
 10
-24.62736161825269
 20
-6.92721469160298
 30
0.0
 11
-24.63444422226099
 21
-6.933160392986082
 31
0.0
  0
LINE
  5
1D2
330
70
100
AcDbEntity
  8
W-S-A v1_4_ANYTOOL_CUTTHROUGH_OUTSI
100
AcDbLine
 10
-24.5363012882259
 20
-6.731878344286351
 30
0.0
 11
-24.53662393587429
 21
-6.741120126742648
 31
0.0
  0
LINE
  5
1D3
330
70
100
AcDbEntity
  8
W-S-A v1_4_ANYTOOL_CUTTHROUGH_OUTSI
100
AcDbLine
 10
-25.94393260911398
 20
-6.970252004814442
 30
0.0
 11
-25.94233044441219
 21
-6.96893299938737
 31
0.0
  0
LINE
  5
1D4
330
70
100
AcDbEntity
  8
W-S-A v1_4_ANYTOOL_CUTTHROUGH_OUTSI
100
AcDbLine
 10
-24.5651297388352
 20
-6.847533696845539
 30
0.0
 11
-24.56947011690261
 21
-6.855699219652351
 31
0.0
  0
LINE
  5
1D5
330
70
100
AcDbEntity
  8
W-S-A v1_4_ANYTOOL_CUTTHROUGH_OUTSI
100
AcDbLine
 10
-24.7256945639668
 20
-6.981223153650471
 30
0.0
 11
-24.727707777667
 21
-6.981726817869539
 31
0.0
  0
LINE
  5
1D6
330
70
100
AcDbEntity
  8
W-S-A v1_4_ANYTOOL_CUTTHROUGH_OUTSI
100
AcDbLine
 10
-26.00761581817369
 20
-6.476719537709919
 30
0.0
 11
-26.0163045563115
 21
-6.47988505094586
 31
0.0
  0
LINE
  5
1D7
330
70
100
AcDbEntity
  8
W-S-A v1_4_ANYTOOL_CUTTHROUGH_OUTSI
100
AcDbLine
 10
-26.0416347450799
 20
-6.49117170965391
 30
0.0
 11
-26.04979852565119
 21
-6.495515363790451
 31
0.0
  0
LINE
  5
1D8
330
70
100
AcDbEntity
  8
W-S-A v1_4_ANYTOOL_CUTTHROUGH_OUTSI
100
AcDbLine
 10
-24.73383497355559
 20
-6.982816279784942
 30
0.0
 11
-24.73589841233339
 21
-6.983037475305509
 31
0.0
  0
LINE
  5
1D9
330
70
100
AcDbEntity
  8
W-S-A v1_4_ANYTOOL_CUTTHROUGH_OUTSI
100
AcDbLine
 10
-24.61384006101229
 20
-6.914600337299829
 30
0.0
 11
-24.62049077557389
 21
-6.92102549413013
 31
0.0
  0
LINE
  5
1DA
330
70
100
AcDbEntity
  8
W-S-A v1_4_ANYTOOL_CUTTHROUGH_OUTSI
100
AcDbLine
 10
-25.95441268718029
 20
-6.477573773912859
 30
0.0
 11
-25.9562843714316
 21
-6.476677389446459
 31
0.0
  0
LINE
  5
1DB
330
70
100
AcDbEntity
  8
W-S-A v1_4_ANYTOOL_CUTTHROUGH_OUTSI
100
AcDbLine
 10
-24.69764433851759
 20
-6.971157483737451
 30
0.0
 11
-24.7062173398043
 21
-6.974624224773842
 31
0.0
  0
LINE
  5
1DC
330
70
100
AcDbEntity
  8
W-S-A v1_4_ANYTOOL_CUTTHROUGH_OUTSI
100
AcDbLine
 10
-24.67272337046459
 20
-6.958993911929259
 30
0.0
 11
-24.6808871510359
 21
-6.96333756606587
 31
0.0
  0
LINE
  5
1DD
330
70
100
AcDbEntity
  8
W-S-A v1_4_ANYTOOL_CUTTHROUGH_OUTSI
100
AcDbLine
 10
-25.94899910877099
 20
-6.97386587226455
 30
0.0
 11
-25.94726893693049
 21
-6.972719917444242
 31
0.0
  0
LINE
  5
1DE
330
70
100
AcDbEntity
  8
W-S-A v1_4_ANYTOOL_CUTTHROUGH_OUTSI
100
AcDbLine
 10
-24.78746734507409
 20
-6.961552507519131
 30
0.0
 11
-24.78876334891409
 21
-6.959931680232011
 31
0.0
  0
LINE
  5
1DF
330
70
100
AcDbEntity
  8
W-S-A v1_4_ANYTOOL_CUTTHROUGH_OUTSI
100
AcDbLine
 10
-24.7317804185268
 20
-6.982523857689061
 30
0.0
 11
-24.73383497355559
 21
-6.982816279784942
 31
0.0
  0
LINE
  5
1E0
330
70
100
AcDbEntity
  8
W-S-A v1_4_ANYTOOL_CUTTHROUGH_OUTSI
100
AcDbLine
 10
-24.74419153744959
 20
-6.983205983344719
 30
0.0
 11
-24.7462622583355
 21
-6.983068789829172
 31
0.0
  0
LINE
  5
1E1
330
70
100
AcDbEntity
  8
W-S-A v1_4_ANYTOOL_CUTTHROUGH_OUTSI
100
AcDbLine
 10
-25.9281595325035
 20
-6.951210366170171
 30
0.0
 11
-25.92722531011059
 21
-6.949357278053262
 31
0.0
  0
LINE
  5
1E2
330
70
100
AcDbEntity
  8
W-S-A v1_4_ANYTOOL_CUTTHROUGH_OUTSI
100
AcDbLine
 10
-24.58959623303849
 20
-6.88670070527854
 30
0.0
 11
-24.59528827424628
 21
-6.893988730481842
 31
0.0
  0
LINE
  5
1E3
330
70
100
AcDbEntity
  8
W-S-A v1_4_ANYTOOL_CUTTHROUGH_OUTSI
100
AcDbLine
 10
-24.7961661651584
 20
-6.507036285103141
 30
0.0
 11
-24.79529658600519
 21
-6.505151997666454
 31
0.0
  0
LINE
  5
1E4
330
70
100
AcDbEntity
  8
W-S-A v1_4_ANYTOOL_CUTTHROUGH_OUTSI
100
AcDbLine
 10
-24.5610769033296
 20
-6.839221707382212
 30
0.0
 11
-24.5651297388352
 21
-6.847533696845539
 31
0.0
  0
LINE
  5
1E5
330
70
100
AcDbEntity
  8
W-S-A v1_4_ANYTOOL_CUTTHROUGH_OUTSI
100
AcDbLine
 10
-26.06564676641629
 20
-6.50504362225377
 30
0.0
 11
-26.07331192783219
 21
-6.510216623794741
 31
0.0
  0
LINE
  5
1E6
330
70
100
AcDbEntity
  8
W-S-A v1_4_ANYTOOL_CUTTHROUGH_OUTSI
100
AcDbLine
 10
-24.5789920154874
 20
-6.871551282358241
 30
0.0
 11
-24.58416194096351
 21
-6.87921851882556
 31
0.0
  0
LINE
  5
1E7
330
70
100
AcDbEntity
  8
W-S-A v1_4_ANYTOOL_CUTTHROUGH_OUTSI
100
AcDbLine
 10
-25.9866234837823
 20
-6.47147180041412
 30
0.0
 11
-25.98868692256009
 21
-6.471692995934842
 31
0.0
  0
LINE
  5
1E8
330
70
100
AcDbEntity
  8
W-S-A v1_4_ANYTOOL_CUTTHROUGH_OUTSI
100
AcDbLine
 10
-24.6568751296995
 20
-6.949465653465932
 30
0.0
 11
-24.6647161131435
 21
-6.954368063394262
 31
0.0
  0
LINE
  5
1E9
330
70
100
AcDbEntity
  8
W-S-A v1_4_ANYTOOL_CUTTHROUGH_OUTSI
100
AcDbLine
 10
-26.05780578297229
 20
-6.954368063394262
 30
0.0
 11
-26.04979852565119
 21
-6.95899391192926
 31
0.0
  0
LINE
  5
1EA
330
70
100
AcDbEntity
  8
W-S-A v1_4_ANYTOOL_CUTTHROUGH_OUTSI
100
AcDbLine
 10
-24.71490607794209
 20
-6.977789738009859
 30
0.0
 11
-24.72369997244889
 21
-6.980650168725019
 31
0.0
  0
LINE
  5
1EB
330
70
100
AcDbEntity
  8
W-S-A v1_4_ANYTOOL_CUTTHROUGH_OUTSI
100
AcDbLine
 10
-24.6891975136286
 20
-6.967393736433418
 30
0.0
 11
-24.69764433851759
 21
-6.971157483737451
 31
0.0
  0
LINE
  5
1EC
330
70
100
AcDbEntity
  8
W-S-A v1_4_ANYTOOL_CUTTHROUGH_OUTSI
100
AcDbLine
 10
-24.59528827424628
 20
-6.893988730481842
 30
0.0
 11
-24.6012311332536
 21
-6.901073719634341
 31
0.0
  0
LINE
  5
1ED
330
70
100
AcDbEntity
  8
W-S-A v1_4_ANYTOOL_CUTTHROUGH_OUTSI
100
AcDbLine
 10
-24.64172996294419
 20
-6.938855358057963
 30
0.0
 11
-24.6492099682836
 21
-6.944292651925111
 31
0.0
  0
LINE
  5
1EE
330
70
100
AcDbEntity
  8
W-S-A v1_4_ANYTOOL_CUTTHROUGH_OUTSI
100
AcDbLine
 10
-24.5538532447818
 20
-6.822198981341038
 30
0.0
 11
-24.5573165456196
 21
-6.830773372968442
 31
0.0
  0
LINE
  5
1EF
330
70
100
AcDbEntity
  8
W-S-A v1_4_ANYTOOL_CUTTHROUGH_OUTSI
100
AcDbLine
 10
-24.62049077557389
 20
-6.92102549413013
 30
0.0
 11
-24.62736161825269
 21
-6.92721469160298
 31
0.0
  0
LINE
  5
1F0
330
70
100
AcDbEntity
  8
W-S-A v1_4_ANYTOOL_CUTTHROUGH_OUTSI
100
AcDbLine
 10
-25.93251937084059
 20
-6.95826700338815
 30
0.0
 11
-25.93133850439459
 21
-6.956560468452931
 31
0.0
  0
LINE
  5
1F1
330
70
100
AcDbEntity
  8
W-S-A v1_4_ANYTOOL_CUTTHROUGH_OUTSI
100
AcDbLine
 10
-25.95257312170528
 20
-6.975974925984242
 30
0.0
 11
-25.95076787569238
 21
-6.974951307949573
 31
0.0
  0
LINE
  5
1F2
330
70
100
AcDbEntity
  8
W-S-A v1_4_ANYTOOL_CUTTHROUGH_OUTSI
100
AcDbLine
 10
-24.6647161131435
 20
-6.954368063394262
 30
0.0
 11
-24.67272337046459
 21
-6.958993911929259
 31
0.0
  0
LINE
  5
1F3
330
70
100
AcDbEntity
  8
W-S-A v1_4_ANYTOOL_CUTTHROUGH_OUTSI
100
AcDbLine
 10
-24.60741757330039
 20
-6.907947045177538
 30
0.0
 11
-24.61384006101229
 21
-6.914600337299829
 31
0.0
  0
LINE
  5
1F4
330
70
100
AcDbEntity
  8
W-S-A v1_4_ANYTOOL_CUTTHROUGH_OUTSI
100
AcDbLine
 10
-24.72973720512679
 20
-6.982160558844821
 30
0.0
 11
-24.7317804185268
 21
-6.982523857689061
 31
0.0
  0
LINE
  5
1F5
330
70
100
AcDbEntity
  8
W-S-A v1_4_ANYTOOL_CUTTHROUGH_OUTSI
100
AcDbLine
 10
-25.9660450118225
 20
-6.981316162915149
 30
0.0
 11
-25.9640469941894
 21
-6.980755241721031
 31
0.0
  0
LINE
  5
1F6
330
70
100
AcDbEntity
  8
W-S-A v1_4_ANYTOOL_CUTTHROUGH_OUTSI
100
AcDbLine
 10
-25.94077485256449
 20
-6.967559376057811
 30
0.0
 11
-25.93926769453689
 21
-6.966132778101869
 31
0.0
  0
LINE
  5
1F7
330
70
100
AcDbEntity
  8
W-S-A v1_4_ANYTOOL_CUTTHROUGH_OUTSI
100
AcDbLine
 10
-25.93133850439459
 20
-6.956560468452931
 30
0.0
 11
-25.93021736054309
 21
-6.954814116967072
 31
0.0
  0
LINE
  5
1F8
330
70
100
AcDbEntity
  8
W-S-A v1_4_ANYTOOL_CUTTHROUGH_OUTSI
100
AcDbLine
 10
-25.93133850439459
 20
-6.49794880726678
 30
0.0
 11
-25.93251937084049
 21
-6.496242272331561
 31
0.0
  0
LINE
  5
1F9
330
70
100
AcDbEntity
  8
W-S-A v1_4_ANYTOOL_CUTTHROUGH_OUTSI
100
AcDbLine
 10
-24.80068757873229
 20
-6.522956683539351
 30
0.0
 11
-24.80036586235389
 21
-6.520906511444174
 31
0.0
  0
LINE
  5
1FA
330
70
100
AcDbEntity
  8
W-S-A v1_4_ANYTOOL_CUTTHROUGH_OUTSI
100
AcDbLine
 10
-25.9680612323945
 20
-6.981807652135149
 30
0.0
 11
-25.9660450118225
 21
-6.981316162915149
 31
0.0
  0
LINE
  5
1FB
330
70
100
AcDbEntity
  8
W-S-A v1_4_ANYTOOL_CUTTHROUGH_OUTSI
100
AcDbLine
 10
-25.92555183532779
 20
-6.94555975804707
 30
0.0
 11
-25.92481458492839
 21
-6.943619869159278
 31
0.0
  0
LINE
  5
1FC
330
70
100
AcDbEntity
  8
W-S-A v1_4_ANYTOOL_CUTTHROUGH_OUTSI
100
AcDbLine
 10
-24.79837703437839
 20
-6.512853631062731
 30
0.0
 11
-24.7977073111873
 21
-6.510889406560359
 31
0.0
  0
LINE
  5
1FD
330
70
100
AcDbEntity
  8
W-S-A v1_4_ANYTOOL_CUTTHROUGH_OUTSI
100
AcDbLine
 10
-25.92481458492828
 20
-6.51088940656036
 30
0.0
 11
-25.9255518353277
 21
-6.508949517672641
 31
0.0
  0
LINE
  5
1FE
330
70
100
AcDbEntity
  8
W-S-A v1_4_ANYTOOL_CUTTHROUGH_OUTSI
100
AcDbLine
 10
-24.79997343832249
 20
-6.518868691425641
 30
0.0
 11
-24.79951077609789
 21
-6.516845661343223
 31
0.0
  0
LINE
  5
1FF
330
70
100
AcDbEntity
  8
W-S-A v1_4_ANYTOOL_CUTTHROUGH_OUTSI
100
AcDbLine
 10
-24.79436236361218
 20
-6.503298909549531
 30
0.0
 11
-24.7933646155969
 21
-6.501479237615832
 31
0.0
  0
LINE
  5
200
330
70
100
AcDbEntity
  8
W-S-A v1_4_ANYTOOL_CUTTHROUGH_OUTSI
100
AcDbLine
 10
-24.54783431622729
 20
-6.80471393219193
 30
0.0
 11
-24.55069121815939
 21
-6.813508973739563
 31
0.0
  0
LINE
  5
201
330
70
100
AcDbEntity
  8
W-S-A v1_4_ANYTOOL_CUTTHROUGH_OUTSI
100
AcDbLine
 10
-25.9721386153848
 20
-6.47192920919018
 30
0.0
 11
-25.9741948999993
 21
-6.471649208060822
 31
0.0
  0
LINE
  5
202
330
70
100
AcDbEntity
  8
W-S-A v1_4_ANYTOOL_CUTTHROUGH_OUTSI
100
AcDbLine
 10
-25.98040458543829
 20
-6.983271484079859
 30
0.0
 11
-25.97833035866619
 21
-6.983205983344719
 31
0.0
  0
LINE
  5
203
330
70
100
AcDbEntity
  8
W-S-A v1_4_ANYTOOL_CUTTHROUGH_OUTSI
100
AcDbLine
 10
-24.54528601790239
 20
-6.795824566628412
 30
0.0
 11
-24.54783431622729
 21
-6.80471393219193
 31
0.0
  0
LINE
  5
204
330
70
100
AcDbEntity
  8
W-S-A v1_4_ANYTOOL_CUTTHROUGH_OUTSI
100
AcDbLine
 10
-24.80122505883319
 20
-6.529156729657161
 30
0.0
 11
-24.80111743409149
 21
-6.527084261572141
 31
0.0
  0
LINE
  5
205
330
70
100
AcDbEntity
  8
W-S-A v1_4_ANYTOOL_CUTTHROUGH_OUTSI
100
AcDbLine
 10
-25.93926769453689
 20
-6.966132778101869
 30
0.0
 11
-25.93781077335409
 21
-6.964654912169039
 31
0.0
  0
LINE
  5
206
330
70
100
AcDbEntity
  8
W-S-A v1_4_ANYTOOL_CUTTHROUGH_OUTSI
100
AcDbLine
 10
-26.17723587821329
 20
-6.658684709091372
 30
0.0
 11
-26.1794724698077
 21
-6.66765757387996
 31
0.0
  0
LINE
  5
207
330
70
100
AcDbEntity
  8
W-S-A v1_4_ANYTOOL_CUTTHROUGH_OUTSI
100
AcDbLine
 10
-24.80126094805859
 20
-6.53123168002077
 30
0.0
 11
-24.80122505883319
 21
-6.529156729657161
 31
0.0
  0
LINE
  5
208
330
70
100
AcDbEntity
  8
W-S-A v1_4_ANYTOOL_CUTTHROUGH_OUTSI
100
AcDbLine
 10
-26.07331192783219
 20
-6.510216623794741
 30
0.0
 11
-26.08079193317159
 21
-6.515653917661739
 31
0.0
  0
LINE
  5
209
330
70
100
AcDbEntity
  8
W-S-A v1_4_ANYTOOL_CUTTHROUGH_OUTSI
100
AcDbLine
 10
-24.543049426308
 20
-6.786851701839819
 30
0.0
 11
-24.54528601790239
 21
-6.795824566628412
 31
0.0
  0
LINE
  5
20A
330
70
100
AcDbEntity
  8
W-S-A v1_4_ANYTOOL_CUTTHROUGH_OUTSI
100
AcDbLine
 10
-25.9455794299881
 20
-6.482994461316821
 30
0.0
 11
-25.94726893693029
 21
-6.481789358275469
 31
0.0
  0
LINE
  5
20B
330
70
100
AcDbEntity
  8
W-S-A v1_4_ANYTOOL_CUTTHROUGH_OUTSI
100
AcDbLine
 10
-26.0163045563115
 20
-6.47988505094586
 30
0.0
 11
-26.0248775575982
 21
-6.483351791982251
 31
0.0
  0
LINE
  5
20C
330
70
100
AcDbEntity
  8
W-S-A v1_4_ANYTOOL_CUTTHROUGH_OUTSI
100
AcDbLine
 10
-25.93640583194169
 20
-6.963127546241712
 30
0.0
 11
-25.93505455104169
 21
-6.961552507519131
 31
0.0
  0
LINE
  5
20D
330
70
100
AcDbEntity
  8
W-S-A v1_4_ANYTOOL_CUTTHROUGH_OUTSI
100
AcDbLine
 10
-25.9337585472016
 20
-6.959931680232012
 30
0.0
 11
-25.93251937084059
 21
-6.95826700338815
 31
0.0
  0
LINE
  5
20E
330
70
100
AcDbEntity
  8
W-S-A v1_4_ANYTOOL_CUTTHROUGH_OUTSI
100
AcDbLine
 10
-25.9700932438855
 20
-6.982229121408872
 30
0.0
 11
-25.9680612323945
 21
-6.981807652135149
 31
0.0
  0
LINE
  5
20F
330
70
100
AcDbEntity
  8
W-S-A v1_4_ANYTOOL_CUTTHROUGH_OUTSI
100
AcDbLine
 10
-24.62736161825269
 20
-6.527294584116731
 30
0.0
 11
-24.62049077557389
 21
-6.533483781589652
 31
0.0
  0
LINE
  5
210
330
70
100
AcDbEntity
  8
W-S-A v1_4_ANYTOOL_CUTTHROUGH_OUTSI
100
AcDbLine
 10
-26.04979852565119
 20
-6.495515363790451
 30
0.0
 11
-26.05780578297229
 21
-6.500141212325444
 31
0.0
  0
LINE
  5
211
330
70
100
AcDbEntity
  8
W-S-A v1_4_ANYTOOL_CUTTHROUGH_OUTSI
100
AcDbLine
 10
-25.99682733214891
 20
-6.473286122069231
 30
0.0
 11
-25.99882192366679
 21
-6.47385910699462
 31
0.0
  0
LINE
  5
212
330
70
100
AcDbEntity
  8
W-S-A v1_4_ANYTOOL_CUTTHROUGH_OUTSI
100
AcDbLine
 10
-24.79529658600519
 20
-6.505151997666454
 30
0.0
 11
-24.79436236361218
 21
-6.503298909549531
 31
0.0
  0
LINE
  5
213
330
70
100
AcDbEntity
  8
W-S-A v1_4_ANYTOOL_CUTTHROUGH_OUTSI
100
AcDbLine
 10
-25.9601151040779
 20
-6.97942786980694
 30
0.0
 11
-25.95818593534929
 21
-6.97866300703206
 31
0.0
  0
LINE
  5
214
330
70
100
AcDbEntity
  8
W-S-A v1_4_ANYTOOL_CUTTHROUGH_OUTSI
100
AcDbLine
 10
-25.98247983668321
 20
-6.471244062044043
 30
0.0
 11
-25.98455362976269
 21
-6.471322096086343
 31
0.0
  0
LINE
  5
215
330
70
100
AcDbEntity
  8
W-S-A v1_4_ANYTOOL_CUTTHROUGH_OUTSI
100
AcDbLine
 10
-25.95257312170518
 20
-6.478534349735469
 30
0.0
 11
-25.95441268718029
 21
-6.477573773912859
 31
0.0
  0
LINE
  5
216
330
70
100
AcDbEntity
  8
W-S-A v1_4_ANYTOOL_CUTTHROUGH_OUTSI
100
AcDbLine
 10
-26.0248775575982
 20
-6.483351791982251
 30
0.0
 11
-26.03332438248719
 21
-6.48711553928636
 31
0.0
  0
LINE
  5
217
330
70
100
AcDbEntity
  8
W-S-A v1_4_ANYTOOL_CUTTHROUGH_OUTSI
100
AcDbLine
 10
-25.99074147758889
 20
-6.47198541803065
 30
0.0
 11
-25.99278469098889
 21
-6.472348716874813
 31
0.0
  0
LINE
  5
218
330
70
100
AcDbEntity
  8
W-S-A v1_4_ANYTOOL_CUTTHROUGH_OUTSI
100
AcDbLine
 10
-25.97833035866619
 20
-6.983205983344719
 30
0.0
 11
-25.97625963778019
 21
-6.983068789829172
 31
0.0
  0
LINE
  5
219
330
70
100
AcDbEntity
  8
W-S-A v1_4_ANYTOOL_CUTTHROUGH_OUTSI
100
AcDbLine
 10
-25.96206956973869
 20
-6.98012555958715
 30
0.0
 11
-25.9601151040779
 21
-6.97942786980694
 31
0.0
  0
LINE
  5
21A
330
70
100
AcDbEntity
  8
W-S-A v1_4_ANYTOOL_CUTTHROUGH_OUTSI
100
AcDbLine
 10
-24.80111743409149
 20
-6.527084261572141
 30
0.0
 11
-24.8009382025859
 21
-6.525016755075021
 31
0.0
  0
LINE
  5
21B
330
70
100
AcDbEntity
  8
W-S-A v1_4_ANYTOOL_CUTTHROUGH_OUTSI
100
AcDbLine
 10
-25.99481411844869
 20
-6.472782457850239
 30
0.0
 11
-25.99682733214891
 21
-6.473286122069231
 31
0.0
  0
LINE
  5
21C
330
70
100
AcDbEntity
  8
W-S-A v1_4_ANYTOOL_CUTTHROUGH_OUTSI
100
AcDbLine
 10
-24.79697006078791
 20
-6.508949517672641
 30
0.0
 11
-24.7961661651584
 21
-6.507036285103141
 31
0.0
  0
LINE
  5
21D
330
70
100
AcDbEntity
  8
W-S-A v1_4_ANYTOOL_CUTTHROUGH_OUTSI
100
AcDbLine
 10
-25.930217360543
 20
-6.499695158752629
 30
0.0
 11
-25.93133850439459
 21
-6.49794880726678
 31
0.0
  0
LINE
  5
21E
330
70
100
AcDbEntity
  8
W-S-A v1_4_ANYTOOL_CUTTHROUGH_OUTSI
100
AcDbLine
 10
-25.95076787569238
 20
-6.974951307949573
 30
0.0
 11
-25.94899910877099
 21
-6.97386587226455
 31
0.0
  0
LINE
  5
21F
330
70
100
AcDbEntity
  8
W-S-A v1_4_ANYTOOL_CUTTHROUGH_OUTSI
100
AcDbLine
 10
-25.9241448617373
 20
-6.94165564465698
 30
0.0
 11
-25.9235434669494
 21
-6.939669434356519
 31
0.0
  0
LINE
  5
220
330
70
100
AcDbEntity
  8
W-S-A v1_4_ANYTOOL_CUTTHROUGH_OUTSI
100
AcDbLine
 10
-25.9291572805188
 20
-6.95303003810387
 30
0.0
 11
-25.9281595325035
 21
-6.951210366170171
 31
0.0
  0
LINE
  5
221
330
70
100
AcDbEntity
  8
W-S-A v1_4_ANYTOOL_CUTTHROUGH_OUTSI
100
AcDbLine
 10
-25.94233044441219
 20
-6.96893299938737
 30
0.0
 11
-25.94077485256449
 21
-6.967559376057811
 31
0.0
  0
LINE
  5
222
330
70
100
AcDbEntity
  8
W-S-A v1_4_ANYTOOL_CUTTHROUGH_OUTSI
100
AcDbLine
 10
-24.7977073111873
 20
-6.510889406560359
 30
0.0
 11
-24.79697006078791
 21
-6.508949517672641
 31
0.0
  0
LINE
  5
223
330
70
100
AcDbEntity
  8
W-S-A v1_4_ANYTOOL_CUTTHROUGH_OUTSI
100
AcDbLine
 10
-25.92722531011059
 20
-6.949357278053262
 30
0.0
 11
-25.9263557309573
 21
-6.94747299061656
 31
0.0
  0
LINE
  5
224
330
70
100
AcDbEntity
  8
W-S-A v1_4_ANYTOOL_CUTTHROUGH_OUTSI
100
AcDbLine
 10
-24.6492099682836
 20
-6.944292651925111
 30
0.0
 11
-24.6568751296995
 21
-6.949465653465932
 31
0.0
  0
LINE
  5
225
330
70
100
AcDbEntity
  8
W-S-A v1_4_ANYTOOL_CUTTHROUGH_OUTSI
100
AcDbLine
 10
-25.99882192366679
 20
-6.47385910699462
 30
0.0
 11
-26.00761581817369
 21
-6.476719537709919
 31
0.0
  0
LINE
  5
226
330
70
100
AcDbEntity
  8
W-S-A v1_4_ANYTOOL_CUTTHROUGH_OUTSI
100
AcDbLine
 10
-26.03332438248719
 20
-6.48711553928636
 30
0.0
 11
-26.0416347450799
 21
-6.49117170965391
 31
0.0
  0
LINE
  5
227
330
70
100
AcDbEntity
  8
W-S-A v1_4_ANYTOOL_CUTTHROUGH_OUTSI
100
AcDbLine
 10
-26.05780578297229
 20
-6.500141212325444
 30
0.0
 11
-26.06564676641629
 21
-6.50504362225377
 31
0.0
  0
LINE
  5
228
330
70
100
AcDbEntity
  8
W-S-A v1_4_ANYTOOL_CUTTHROUGH_OUTSI
100
AcDbLine
 10
-25.98455362976269
 20
-6.471322096086343
 30
0.0
 11
-25.9866234837823
 21
-6.47147180041412
 31
0.0
  0
LINE
  5
229
330
70
100
AcDbEntity
  8
W-S-A v1_4_ANYTOOL_CUTTHROUGH_OUTSI
100
AcDbLine
 10
-25.97625963778019
 20
-6.983068789829172
 30
0.0
 11
-25.9741948999994
 21
-6.982860067658739
 31
0.0
  0
LINE
  5
22A
330
70
100
AcDbEntity
  8
W-S-A v1_4_ANYTOOL_CUTTHROUGH_OUTSI
100
AcDbLine
 10
-25.98868692256009
 20
-6.471692995934842
 30
0.0
 11
-25.99074147758889
 21
-6.47198541803065
 31
0.0
  0
LINE
  5
22B
330
70
100
AcDbEntity
  8
W-S-A v1_4_ANYTOOL_CUTTHROUGH_OUTSI
100
AcDbLine
 10
-25.99278469098889
 20
-6.472348716874813
 30
0.0
 11
-25.99481411844869
 21
-6.472782457850239
 31
0.0
  0
LINE
  5
22C
330
70
100
AcDbEntity
  8
W-S-A v1_4_ANYTOOL_CUTTHROUGH_OUTSI
100
AcDbLine
 10
-24.79951077609789
 20
-6.516845661343223
 30
0.0
 11
-24.79897842916629
 21
-6.51483984136311
 31
0.0
  0
LINE
  5
22D
330
70
100
AcDbEntity
  8
W-S-A v1_4_ANYTOOL_CUTTHROUGH_OUTSI
100
AcDbLine
 10
-25.9741948999994
 20
-6.982860067658739
 30
0.0
 11
-25.97213861538489
 21
-6.98258006652953
 31
0.0
  0
LINE
  5
22E
330
70
100
AcDbEntity
  8
W-S-A v1_4_ANYTOOL_CUTTHROUGH_OUTSI
100
AcDbLine
 10
-25.92354346694929
 20
-6.51483984136311
 30
0.0
 11
-25.92414486173719
 21
-6.512853631062731
 31
0.0
  0
LINE
  5
22F
330
70
100
AcDbEntity
  8
W-S-A v1_4_ANYTOOL_CUTTHROUGH_OUTSI
100
AcDbLine
 10
-25.95818593534929
 20
-6.97866300703206
 30
0.0
 11
-25.95628437143169
 21
-6.977831886273243
 31
0.0
  0
ENDSEC
  0
SECTION
  2
OBJECTS
  0
DICTIONARY
  5
C
330
0
100
AcDbDictionary
281
     1
  3
ACAD_COLOR
350
63
  3
ACAD_DETAILVIEWSTYLE
350
6A
  3
ACAD_GROUP
350
D
  3
ACAD_LAYOUT
350
62
  3
ACAD_MATERIAL
350
10
  3
ACAD_MLEADERSTYLE
350
66
  3
ACAD_MLINESTYLE
350
5F
  3
ACAD_PLOTSETTINGS
350
61
  3
ACAD_PLOTSTYLENAME
350
E
  3
ACAD_SCALELIST
350
42
  3
ACAD_SECTIONVIEWSTYLE
350
68
  3
ACAD_TABLESTYLE
350
64
  3
ACAD_VISUALSTYLE
350
29
  3
ACDB_RECOMPOSE_DATA
350
238
  3
AcDbVariableDictionary
350
230
  0
DICTIONARY
  5
63
102
{ACAD_REACTORS
330
C
102
}
330
C
100
AcDbDictionary
281
     1
  0
DICTIONARY
  5
6A
102
{ACAD_REACTORS
330
C
102
}
330
C
100
AcDbDictionary
281
     1
  3
Imperial24
350
6B
  0
DICTIONARY
  5
D
102
{ACAD_REACTORS
330
C
102
}
330
C
100
AcDbDictionary
281
     1
  0
DICTIONARY
  5
62
102
{ACAD_REACTORS
330
C
102
}
330
C
100
AcDbDictionary
281
     1
  3
Layout1
350
6F
  3
Layout2
350
77
  3
Model
350
73
  0
DICTIONARY
  5
10
102
{ACAD_REACTORS
330
C
102
}
330
C
100
AcDbDictionary
281
     1
  3
ByBlock
350
19
  3
ByLayer
350
11
  3
Global
350
21
  0
DICTIONARY
  5
66
102
{ACAD_REACTORS
330
C
102
}
330
C
100
AcDbDictionary
281
     1
  3
Standard
350
67
  0
DICTIONARY
  5
5F
102
{ACAD_REACTORS
330
C
102
}
330
C
100
AcDbDictionary
281
     1
  3
Standard
350
60
  0
DICTIONARY
  5
61
102
{ACAD_REACTORS
330
C
102
}
330
C
100
AcDbDictionary
281
     1
  0
ACDBDICTIONARYWDFLT
  5
E
102
{ACAD_REACTORS
330
C
102
}
330
C
100
AcDbDictionary
281
     1
  3
Normal
350
F
100
AcDbDictionaryWithDefault
340
F
  0
DICTIONARY
  5
42
102
{ACAD_REACTORS
330
C
102
}
330
C
100
AcDbDictionary
281
     1
  3
A0
350
43
  3
A1
350
44
  3
A2
350
45
  3
A3
350
46
  3
A4
350
47
  3
A5
350
48
  3
A6
350
49
  3
A7
350
4A
  3
A8
350
4B
  3
A9
350
4C
  3
B0
350
4D
  3
B1
350
4E
  3
B2
350
4F
  3
B3
350
50
  3
B4
350
51
  3
B5
350
52
  3
B6
350
53
  0
DICTIONARY
  5
68
102
{ACAD_REACTORS
330
C
102
}
330
C
100
AcDbDictionary
281
     1
  3
Imperial24
350
69
  0
DICTIONARY
  5
64
102
{ACAD_REACTORS
330
C
102
}
330
C
100
AcDbDictionary
281
     1
  3
Standard
350
65
  0
DICTIONARY
  5
29
102
{ACAD_REACTORS
330
C
102
}
330
C
100
AcDbDictionary
281
     1
  3
2dWireframe
350
2F
  3
Basic
350
2E
  3
Brighten
350
35
  3
ColorChange
350
39
  3
Conceptual
350
32
  3
Dim
350
34
  3
EdgeColorOff
350
41
  3
Facepattern
350
38
  3
Flat
350
2A
  3
FlatWithEdges
350
2B
  3
Gouraud
350
2C
  3
GouraudWithEdges
350
2D
  3
Hidden
350
31
  3
JitterOff
350
3F
  3
Linepattern
350
37
  3
OverhangOff
350
40
  3
Realistic
350
33
  3
Shaded
350
3E
  3
Shaded with edges
350
3D
  3
Shades of Gray
350
3A
  3
Sketchy
350
3B
  3
Thicken
350
36
  3
Wireframe
350
30
  3
X-Ray
350
3C
  0
XRECORD
  5
238
102
{ACAD_REACTORS
330
C
102
}
330
C
100
AcDbXrecord
280
     1
 90
        1
330
65
  0
DICTIONARY
  5
230
102
{ACAD_REACTORS
330
C
102
}
330
C
100
AcDbDictionary
281
     1
  3
CANNOSCALE
350
235
  3
CMLEADERSTYLE
350
232
  3
CTABLESTYLE
350
231
  3
CVIEWDETAILSTYLE
350
233
  3
CVIEWSECTIONSTYLE
350
234
  0
ACDBDETAILVIEWSTYLE
  5
6B
102
{ACAD_XDICTIONARY
360
23B
102
}
102
{ACAD_REACTORS
330
6A
102
}
330
6A
100
AcDbModelDocViewStyle
 70
     0
  3
Imperial24
290
     0
100
AcDbDetailViewStyle
 70
     0
 71
     0
 90
        3
 71
     1
340
55
 62
   256
 40
0.24
340
0
 62
   256
 40
0.24
300

 40
0.36
280
     3
 71
     2
340
5D
 90
       25
 62
   256
 71
     3
340
55
 62
   256
 40
0.24
 90
        1
 40
0.75
 90
        1
300
%<\AcVar ViewType \f "%tc1">% %<\AcVar ViewDetailId>%\PSCALE %<\AcVar ViewScale \f "%sn">%
 71
     4
340
5D
 90
       25
 62
   256
340
5D
 90
       25
 62
   256
280
     0
  0
LAYOUT
  5
6F
102
{ACAD_REACTORS
330
62
102
}
330
62
100
AcDbPlotSettings
  1

  2

  4

  6

 40
0.0
 41
0.0
 42
0.0
 43
0.0
 44
0.0
 45
0.0
 46
0.0
 47
0.0
 48
0.0
 49
0.0
140
0.0
141
0.0
142
1.0
143
1.0
 70
   688
 72
     0
 73
     0
 74
     5
  7

 75
    16
147
1.0
 76
     0
 77
     2
 78
   300
148
0.0
149
0.0
100
AcDbLayout
  1
Layout1
 70
     1
 71
     1
 10
0.0
 20
0.0
 11
12.0
 21
9.0
 12
0.0
 22
0.0
 32
0.0
 14
0.0
 24
0.0
 34
0.0
 15
0.0
 25
0.0
 35
0.0
146
0.0
 13
0.0
 23
0.0
 33
0.0
 16
1.0
 26
0.0
 36
0.0
 17
0.0
 27
1.0
 37
0.0
 76
     0
330
6C
  0
LAYOUT
  5
77
102
{ACAD_REACTORS
330
62
102
}
330
62
100
AcDbPlotSettings
  1

  2

  4

  6

 40
0.0
 41
0.0
 42
0.0
 43
0.0
 44
0.0
 45
0.0
 46
0.0
 47
0.0
 48
0.0
 49
0.0
140
0.0
141
0.0
142
1.0
143
1.0
 70
   688
 72
     0
 73
     0
 74
     5
  7

 75
    16
147
1.0
 76
     0
 77
     2
 78
   300
148
0.0
149
0.0
100
AcDbLayout
  1
Layout2
 70
     1
 71
     2
 10
0.0
 20
0.0
 11
12.0
 21
9.0
 12
0.0
 22
0.0
 32
0.0
 14
0.0
 24
0.0
 34
0.0
 15
0.0
 25
0.0
 35
0.0
146
0.0
 13
0.0
 23
0.0
 33
0.0
 16
1.0
 26
0.0
 36
0.0
 17
0.0
 27
1.0
 37
0.0
 76
     0
330
74
  0
LAYOUT
  5
73
102
{ACAD_REACTORS
330
62
102
}
330
62
100
AcDbPlotSettings
  1

  2

  4

  6

 40
0.0
 41
0.0
 42
0.0
 43
0.0
 44
0.0
 45
0.0
 46
0.0
 47
0.0
 48
0.0
 49
0.0
140
0.0
141
0.0
142
1.0
143
1.0
 70
  1712
 72
     0
 73
     0
 74
     0
  7

 75
     0
147
1.0
 76
     0
 77
     2
 78
   300
148
0.0
149
0.0
100
AcDbLayout
  1
Model
 70
     1
 71
     0
 10
0.0
 20
0.0
 11
12.0
 21
9.0
 12
0.0
 22
0.0
 32
0.0
 14
0.0
 24
0.0
 34
0.0
 15
0.0
 25
0.0
 35
0.0
146
0.0
 13
0.0
 23
0.0
 33
0.0
 16
1.0
 26
0.0
 36
0.0
 17
0.0
 27
1.0
 37
0.0
 76
     0
330
70
  0
MATERIAL
  5
19
102
{ACAD_XDICTIONARY
360
1A
102
}
102
{ACAD_REACTORS
330
10
102
}
330
10
100
AcDbMaterial
  1
ByBlock
 72
     0
 43
0.0208333333333333
 43
0.0
 43
0.0
 43
0.0
 43
0.0
 43
0.0208333333333333
 43
0.0
 43
0.0
 43
0.0
 43
0.0
 43
1.0
 43
0.0
 43
0.0
 43
0.0
 43
0.0
 43
1.0
 77
     0
 47
0.0208333333333333
 47
0.0
 47
0.0
 47
0.0
 47
0.0
 47
0.0208333333333333
 47
0.0
 47
0.0
 47
0.0
 47
0.0
 47
1.0
 47
0.0
 47
0.0
 47
0.0
 47
0.0
 47
1.0
171
     0
 49
0.0208333333333333
 49
0.0
 49
0.0
 49
0.0
 49
0.0
 49
0.0208333333333333
 49
0.0
 49
0.0
 49
0.0
 49
0.0
 49
1.0
 49
0.0
 49
0.0
 49
0.0
 49
0.0
 49
1.0
175
     0
142
0.0208333333333333
142
0.0
142
0.0
142
0.0
142
0.0
142
0.0208333333333333
142
0.0
142
0.0
142
0.0
142
0.0
142
1.0
142
0.0
142
0.0
142
0.0
142
0.0
142
1.0
179
     0
144
0.0208333333333333
144
0.0
144
0.0
144
0.0
144
0.0
144
0.0208333333333333
144
0.0
144
0.0
144
0.0
144
0.0
144
1.0
144
0.0
144
0.0
144
0.0
144
0.0
144
1.0
147
0.0208333333333333
147
0.0
147
0.0
147
0.0
147
0.0
147
0.0208333333333333
147
0.0
147
0.0
147
0.0
147
0.0
147
1.0
147
0.0
147
0.0
147
0.0
147
0.0
147
1.0
  0
MATERIAL
  5
11
102
{ACAD_XDICTIONARY
360
12
102
}
102
{ACAD_REACTORS
330
10
102
}
330
10
100
AcDbMaterial
  1
ByLayer
 72
     0
 43
0.0208333333333333
 43
0.0
 43
0.0
 43
0.0
 43
0.0
 43
0.0208333333333333
 43
0.0
 43
0.0
 43
0.0
 43
0.0
 43
1.0
 43
0.0
 43
0.0
 43
0.0
 43
0.0
 43
1.0
 77
     0
 47
0.0208333333333333
 47
0.0
 47
0.0
 47
0.0
 47
0.0
 47
0.0208333333333333
 47
0.0
 47
0.0
 47
0.0
 47
0.0
 47
1.0
 47
0.0
 47
0.0
 47
0.0
 47
0.0
 47
1.0
171
     0
 49
0.0208333333333333
 49
0.0
 49
0.0
 49
0.0
 49
0.0
 49
0.0208333333333333
 49
0.0
 49
0.0
 49
0.0
 49
0.0
 49
1.0
 49
0.0
 49
0.0
 49
0.0
 49
0.0
 49
1.0
175
     0
142
0.0208333333333333
142
0.0
142
0.0
142
0.0
142
0.0
142
0.0208333333333333
142
0.0
142
0.0
142
0.0
142
0.0
142
1.0
142
0.0
142
0.0
142
0.0
142
0.0
142
1.0
179
     0
144
0.0208333333333333
144
0.0
144
0.0
144
0.0
144
0.0
144
0.0208333333333333
144
0.0
144
0.0
144
0.0
144
0.0
144
1.0
144
0.0
144
0.0
144
0.0
144
0.0
144
1.0
147
0.0208333333333333
147
0.0
147
0.0
147
0.0
147
0.0
147
0.0208333333333333
147
0.0
147
0.0
147
0.0
147
0.0
147
1.0
147
0.0
147
0.0
147
0.0
147
0.0
147
1.0
  0
MATERIAL
  5
21
102
{ACAD_XDICTIONARY
360
22
102
}
102
{ACAD_REACTORS
330
10
102
}
330
10
100
AcDbMaterial
  1
Global
 72
     0
 43
0.0208333333333333
 43
0.0
 43
0.0
 43
0.0
 43
0.0
 43
0.0208333333333333
 43
0.0
 43
0.0
 43
0.0
 43
0.0
 43
1.0
 43
0.0
 43
0.0
 43
0.0
 43
0.0
 43
1.0
 77
     0
 47
0.0208333333333333
 47
0.0
 47
0.0
 47
0.0
 47
0.0
 47
0.0208333333333333
 47
0.0
 47
0.0
 47
0.0
 47
0.0
 47
1.0
 47
0.0
 47
0.0
 47
0.0
 47
0.0
 47
1.0
171
     0
 49
0.0208333333333333
 49
0.0
 49
0.0
 49
0.0
 49
0.0
 49
0.0208333333333333
 49
0.0
 49
0.0
 49
0.0
 49
0.0
 49
1.0
 49
0.0
 49
0.0
 49
0.0
 49
0.0
 49
1.0
175
     0
142
0.0208333333333333
142
0.0
142
0.0
142
0.0
142
0.0
142
0.0208333333333333
142
0.0
142
0.0
142
0.0
142
0.0
142
1.0
142
0.0
142
0.0
142
0.0
142
0.0
142
1.0
179
     0
144
0.0208333333333333
144
0.0
144
0.0
144
0.0
144
0.0
144
0.0208333333333333
144
0.0
144
0.0
144
0.0
144
0.0
144
1.0
144
0.0
144
0.0
144
0.0
144
0.0
144
1.0
147
0.0208333333333333
147
0.0
147
0.0
147
0.0
147
0.0
147
0.0208333333333333
147
0.0
147
0.0
147
0.0
147
0.0
147
1.0
147
0.0
147
0.0
147
0.0
147
0.0
147
1.0
  0
MLEADERSTYLE
  5
67
102
{ACAD_REACTORS
330
66
102
}
330
66
100
AcDbMLeaderStyle
179
     2
170
     2
171
     1
172
     0
 90
        2
 40
0.0
 41
0.0
173
     1
 91
-1056964608
340
5B
 92
       -2
290
     1
 42
0.09
291
     1
 43
0.36
  3
Standard
 44
0.18
300

342
55
174
     1
178
     6
175
     1
176
     0
 93
-1056964608
 45
0.18
292
     0
297
     0
 46
0.18
 94
-1056964608
 47
1.0
 49
1.0
140
1.0
293
     1
141
0.0
294
     1
177
     0
142
1.0
295
     0
296
     0
143
0.125
271
     0
272
     9
273
     9
298
     1
  0
MLINESTYLE
  5
60
102
{ACAD_REACTORS
330
5F
102
}
330
5F
100
AcDbMlineStyle
  2
STANDARD
 70
     0
  3

 62
   256
 51
90.0
 52
90.0
 71
     2
 49
0.5
 62
   256
  6
BYLAYER
 49
-0.5
 62
   256
  6
BYLAYER
  0
ACDBPLACEHOLDER
  5
F
102
{ACAD_REACTORS
330
E
102
}
330
E
  0
SCALE
  5
43
102
{ACAD_REACTORS
330
42
102
}
330
42
100
AcDbScale
 70
     0
300
1:1
140
1.0
141
1.0
290
     1
  0
SCALE
  5
44
102
{ACAD_REACTORS
330
42
102
}
330
42
100
AcDbScale
 70
     0
300
1/128" = 1'-0"
140
0.0078125
141
12.0
290
     0
  0
SCALE
  5
45
102
{ACAD_REACTORS
330
42
102
}
330
42
100
AcDbScale
 70
     0
300
1/64" = 1'-0"
140
0.015625
141
12.0
290
     0
  0
SCALE
  5
46
102
{ACAD_REACTORS
330
42
102
}
330
42
100
AcDbScale
 70
     0
300
1/32" = 1'-0"
140
0.03125
141
12.0
290
     0
  0
SCALE
  5
47
102
{ACAD_REACTORS
330
42
102
}
330
42
100
AcDbScale
 70
     0
300
1/16" = 1'-0"
140
0.0625
141
12.0
290
     0
  0
SCALE
  5
48
102
{ACAD_REACTORS
330
42
102
}
330
42
100
AcDbScale
 70
     0
300
3/32" = 1'-0"
140
0.09375
141
12.0
290
     0
  0
SCALE
  5
49
102
{ACAD_REACTORS
330
42
102
}
330
42
100
AcDbScale
 70
     0
300
1/8" = 1'-0"
140
0.125
141
12.0
290
     0
  0
SCALE
  5
4A
102
{ACAD_REACTORS
330
42
102
}
330
42
100
AcDbScale
 70
     0
300
3/16" = 1'-0"
140
0.1875
141
12.0
290
     0
  0
SCALE
  5
4B
102
{ACAD_REACTORS
330
42
102
}
330
42
100
AcDbScale
 70
     0
300
1/4" = 1'-0"
140
0.25
141
12.0
290
     0
  0
SCALE
  5
4C
102
{ACAD_REACTORS
330
42
102
}
330
42
100
AcDbScale
 70
     0
300
3/8" = 1'-0"
140
0.375
141
12.0
290
     0
  0
SCALE
  5
4D
102
{ACAD_REACTORS
330
42
102
}
330
42
100
AcDbScale
 70
     0
300
1/2" = 1'-0"
140
0.5
141
12.0
290
     0
  0
SCALE
  5
4E
102
{ACAD_REACTORS
330
42
102
}
330
42
100
AcDbScale
 70
     0
300
3/4" = 1'-0"
140
0.75
141
12.0
290
     0
  0
SCALE
  5
4F
102
{ACAD_REACTORS
330
42
102
}
330
42
100
AcDbScale
 70
     0
300
1" = 1'-0"
140
1.0
141
12.0
290
     0
  0
SCALE
  5
50
102
{ACAD_REACTORS
330
42
102
}
330
42
100
AcDbScale
 70
     0
300
1-1/2" = 1'-0"
140
1.5
141
12.0
290
     0
  0
SCALE
  5
51
102
{ACAD_REACTORS
330
42
102
}
330
42
100
AcDbScale
 70
     0
300
3" = 1'-0"
140
3.0
141
12.0
290
     0
  0
SCALE
  5
52
102
{ACAD_REACTORS
330
42
102
}
330
42
100
AcDbScale
 70
     0
300
6" = 1'-0"
140
6.0
141
12.0
290
     0
  0
SCALE
  5
53
102
{ACAD_REACTORS
330
42
102
}
330
42
100
AcDbScale
 70
     0
300
1'-0" = 1'-0"
140
12.0
141
12.0
290
     0
  0
ACDBSECTIONVIEWSTYLE
  5
69
102
{ACAD_XDICTIONARY
360
239
102
}
102
{ACAD_REACTORS
330
68
102
}
330
68
100
AcDbModelDocViewStyle
 70
     0
  3
Imperial24
290
     0
100
AcDbSectionViewStyle
 70
     0
 71
     0
 90
       78
 71
     1
340
55
 62
   256
 40
0.24
340
0
340
0
 62
   256
 40
0.24
300
I, O, Q, S, X, Z
 40
0.48
 90
        3
 40
0.18
 90
        1
 71
     2
340
5D
 90
       25
 62
   256
340
5D
 90
       50
 62
   256
 40
0.24
 40
0.0
 40
0.24
 71
     3
340
55
 62
   256
 40
0.24
 90
        1
 40
0.75
 90
        1
300
%<\AcVar ViewType \f "%tc1">% %<\AcVar ViewSectionStartId>%-%<\AcVar ViewSectionEndId>%\PSCALE %<\AcVar ViewScale \f "%sn">%
 71
     4
 62
   256
 62
   257
300
ANSI31
 40
1.0
 90
        0
290
     0
290
     0
 90
        6
 40
0.0
 40
1.570796326794896
 40
0.2617993877991494
 40
1.308996938995747
 40
-0.2617993877991494
 40
1.832595714594046
  0
TABLESTYLE
  5
65
102
{ACAD_XDICTIONARY
360
236
102
}
102
{ACAD_REACTORS
330
64
102
}
330
64
100
AcDbTableStyle
280
     0
  3
Standard
 70
     0
 71
     0
 40
0.06
 41
0.06
280
     0
281
     0
  7
Standard
140
0.18
170
     2
 62
     0
 63
     7
283
     0
 90
      512
 91
        0
  1

274
    -2
284
     1
 64
     0
275
    -2
285
     1
 65
     0
276
    -2
286
     1
 66
     0
277
    -2
287
     1
 67
     0
278
    -2
288
     1
 68
     0
279
    -2
289
     1
 69
     0
  7
Standard
140
0.25
170
     5
 62
     0
 63
     7
283
     0
 90
      512
 91
        0
  1

274
    -2
284
     1
 64
     0
275
    -2
285
     1
 65
     0
276
    -2
286
     1
 66
     0
277
    -2
287
     1
 67
     0
278
    -2
288
     1
 68
     0
279
    -2
289
     1
 69
     0
  7
Standard
140
0.18
170
     5
 62
     0
 63
     7
283
     0
 90
      512
 91
        0
  1

274
    -2
284
     1
 64
     0
275
    -2
285
     1
 65
     0
276
    -2
286
     1
 66
     0
277
    -2
287
     1
 67
     0
278
    -2
288
     1
 68
     0
279
    -2
289
     1
 69
     0
  0
VISUALSTYLE
  5
2F
102
{ACAD_REACTORS
330
29
102
}
330
29
100
AcDbVisualStyle
  2
2dWireframe
 70
     4
177
     3
291
     0
 70
    58
 90
        0
176
     1
 90
        2
176
     1
 90
        0
176
     1
 90
        0
176
     1
 40
0.6
176
     1
 40
30.0
176
     1
 62
     7
420
 16777215
176
     1
 90
        1
176
     1
 90
        4
176
     1
 62
     7
176
     1
 62
   257
176
     1
 90
        1
176
     1
 90
        1
176
     1
 40
1.0
176
     1
 90
        0
176
     1
 62
   257
176
     1
 40
1.0
176
     1
 90
        1
176
     1
 90
        6
176
     1
 90
        2
176
     1
 62
     7
176
     1
 90
        5
176
     1
 90
        0
176
     1
 90
        0
176
     1
290
     0
176
     1
 90
        1
176
     1
 40
0.0
176
     1
 90
        0
176
     1
290
     1
176
     1
290
     1
176
     1
290
     0
176
     1
290
     0
176
     1
290
     0
176
     1
290
     0
176
     1
290
     0
176
     1
290
     0
176
     1
290
     0
176
     1
 90
       50
176
     1
 40
0.0
176
     1
 40
1.0
176
     1
 90
        0
176
     1
 62
    18
420
        0
176
     1
 90
       50
176
     1
 90
        3
176
     1
 62
     5
420
      255
176
     1
290
     0
176
     1
 90
       50
176
     1
 90
       50
176
     1
 90
       50
176
     1
290
     0
176
     1
 90
       50
176
     1
 62
   256
176
     0
 40
1.0
176
     0
 90
        2
176
     1
  1
strokes_ogs.tif
176
     1
290
     0
176
     1
 40
1.0
176
     1
 40
1.0
176
     1
1001
ACAD
1000
AcDbSavedByObjectVersion
1070
     0
  0
VISUALSTYLE
  5
2E
102
{ACAD_REACTORS
330
29
102
}
330
29
100
AcDbVisualStyle
  2
Basic
 70
     7
177
     3
291
     1
 70
    58
 90
        1
176
     1
 90
        0
176
     1
 90
        1
176
     1
 90
        0
176
     1
 40
0.6
176
     1
 40
30.0
176
     1
 62
     7
420
 16777215
176
     1
 90
        0
176
     1
 90
        4
176
     1
 62
     7
176
     1
 62
   257
176
     1
 90
        1
176
     1
 90
        1
176
     1
 40
1.0
176
     1
 90
        8
176
     1
 62
     7
176
     1
 40
1.0
176
     1
 90
        1
176
     1
 90
        6
176
     1
 90
        2
176
     1
 62
     7
176
     1
 90
        5
176
     1
 90
        0
176
     1
 90
        0
176
     1
290
     0
176
     1
 90
        1
176
     1
 40
0.0
176
     1
 90
        0
176
     1
290
     0
176
     1
290
     1
176
     1
290
     1
176
     1
290
     0
176
     1
290
     0
176
     1
290
     0
176
     1
290
     0
176
     1
290
     0
176
     1
290
     0
176
     1
 90
       50
176
     1
 40
0.0
176
     1
 40
1.0
176
     1
 90
        0
176
     1
 62
    18
420
        0
176
     1
 90
       50
176
     1
 90
        3
176
     1
 62
     5
420
      255
176
     1
290
     0
176
     1
 90
       50
176
     1
 90
       50
176
     1
 90
       50
176
     1
290
     0
176
     1
 90
       50
176
     1
 62
   256
176
     0
 40
1.0
176
     0
 90
        2
176
     1
  1
strokes_ogs.tif
176
     1
290
     0
176
     1
 40
1.0
176
     1
 40
1.0
176
     1
1001
ACAD
1000
AcDbSavedByObjectVersion
1070
     0
  0
VISUALSTYLE
  5
35
102
{ACAD_REACTORS
330
29
102
}
330
29
100
AcDbVisualStyle
  2
Brighten
 70
    12
177
     3
291
     1
 70
    58
 90
        2
176
     1
 90
        2
176
     1
 90
        0
176
     1
 90
        0
176
     1
 40
0.6
176
     1
 40
30.0
176
     1
 62
     7
420
 16777215
176
     1
 90
        1
176
     1
 90
        4
176
     1
 62
     7
176
     1
 62
   257
176
     1
 90
        1
176
     1
 90
        1
176
     1
 40
1.0
176
     1
 90
        8
176
     1
 62
     7
176
     1
 40
1.0
176
     1
 90
        1
176
     1
 90
        6
176
     1
 90
        2
176
     1
 62
     7
176
     1
 90
        5
176
     1
 90
        0
176
     1
 90
        0
176
     1
290
     0
176
     1
 90
        1
176
     1
 40
50.0
176
     1
 90
        0
176
     1
290
     0
176
     1
290
     1
176
     1
290
     1
176
     1
290
     0
176
     1
290
     0
176
     1
290
     0
176
     1
290
     0
176
     1
290
     0
176
     1
290
     0
176
     1
 90
       50
176
     1
 40
0.0
176
     1
 40
1.0
176
     1
 90
        0
176
     1
 62
    18
420
        0
176
     1
 90
       50
176
     1
 90
        3
176
     1
 62
     5
420
      255
176
     1
290
     0
176
     1
 90
       50
176
     1
 90
       50
176
     1
 90
       50
176
     1
290
     0
176
     1
 90
       50
176
     1
 62
   256
176
     0
 40
1.0
176
     0
 90
        2
176
     1
  1
strokes_ogs.tif
176
     1
290
     0
176
     1
 40
1.0
176
     1
 40
1.0
176
     1
1001
ACAD
1000
AcDbSavedByObjectVersion
1070
     0
  0
VISUALSTYLE
  5
39
102
{ACAD_REACTORS
330
29
102
}
330
29
100
AcDbVisualStyle
  2
ColorChange
 70
    16
177
     3
291
     1
 70
    58
 90
        2
176
     1
 90
        2
176
     1
 90
        3
176
     1
 90
        0
176
     1
 40
0.6
176
     1
 40
30.0
176
     1
 62
     8
420
  8421504
176
     1
 90
        1
176
     1
 90
        4
176
     1
 62
     7
176
     1
 62
   257
176
     1
 90
        1
176
     1
 90
        1
176
     1
 40
1.0
176
     1
 90
        8
176
     1
 62
     8
420
  8421504
176
     1
 40
1.0
176
     1
 90
        1
176
     1
 90
        6
176
     1
 90
        2
176
     1
 62
     7
176
     1
 90
        5
176
     1
 90
        0
176
     1
 90
        0
176
     1
290
     0
176
     1
 90
        1
176
     1
 40
0.0
176
     1
 90
        0
176
     1
290
     0
176
     1
290
     1
176
     1
290
     1
176
     1
290
     0
176
     1
290
     0
176
     1
290
     0
176
     1
290
     0
176
     1
290
     0
176
     1
290
     0
176
     1
 90
       50
176
     1
 40
0.0
176
     1
 40
1.0
176
     1
 90
        0
176
     1
 62
    18
420
        0
176
     1
 90
       50
176
     1
 90
        3
176
     1
 62
     5
420
      255
176
     1
290
     0
176
     1
 90
       50
176
     1
 90
       50
176
     1
 90
       50
176
     1
290
     0
176
     1
 90
       50
176
     1
 62
   256
176
     0
 40
1.0
176
     0
 90
        2
176
     1
  1
strokes_ogs.tif
176
     1
290
     0
176
     1
 40
1.0
176
     1
 40
1.0
176
     1
1001
ACAD
1000
AcDbSavedByObjectVersion
1070
     0
  0
VISUALSTYLE
  5
32
102
{ACAD_REACTORS
330
29
102
}
330
29
100
AcDbVisualStyle
  2
Conceptual
 70
     9
177
     3
291
     0
 70
    58
 90
        3
176
     1
 90
        2
176
     1
 90
        0
176
     1
 90
        0
176
     1
 40
0.6
176
     1
 40
30.0
176
     1
 62
     7
420
 16777215
176
     1
 90
        2
176
     1
 90
        2
176
     1
 62
     7
176
     1
 62
   257
176
     1
 90
        1
176
     1
 90
        1
176
     1
 40
179.0
176
     1
 90
        8
176
     1
 62
     7
176
     1
 40
1.0
176
     1
 90
        1
176
     1
 90
        6
176
     1
 90
        2
176
     1
 62
     7
176
     1
 90
        3
176
     1
 90
        0
176
     1
 90
        0
176
     1
290
     0
176
     1
 90
        1
176
     1
 40
0.0
176
     1
 90
        0
176
     1
290
     0
176
     1
290
     1
176
     1
290
     1
176
     1
290
     0
176
     1
290
     0
176
     1
290
     0
176
     1
290
     0
176
     1
290
     0
176
     1
290
     0
176
     1
 90
       50
176
     1
 40
0.0
176
     1
 40
1.0
176
     1
 90
        0
176
     1
 62
    18
420
        0
176
     1
 90
       50
176
     1
 90
        3
176
     1
 62
     5
420
      255
176
     1
290
     0
176
     1
 90
       50
176
     1
 90
       50
176
     1
 90
       50
176
     1
290
     0
176
     1
 90
       50
176
     1
 62
   256
176
     0
 40
1.0
176
     0
 90
        2
176
     1
  1
strokes_ogs.tif
176
     1
290
     0
176
     1
 40
1.0
176
     1
 40
1.0
176
     1
1001
ACAD
1000
AcDbSavedByObjectVersion
1070
     0
  0
VISUALSTYLE
  5
34
102
{ACAD_REACTORS
330
29
102
}
330
29
100
AcDbVisualStyle
  2
Dim
 70
    11
177
     3
291
     1
 70
    58
 90
        2
176
     1
 90
        2
176
     1
 90
        0
176
     1
 90
        0
176
     1
 40
0.6
176
     1
 40
30.0
176
     1
 62
     7
420
 16777215
176
     1
 90
        1
176
     1
 90
        4
176
     1
 62
     7
176
     1
 62
   257
176
     1
 90
        1
176
     1
 90
        1
176
     1
 40
1.0
176
     1
 90
        8
176
     1
 62
     7
176
     1
 40
1.0
176
     1
 90
        1
176
     1
 90
        6
176
     1
 90
        2
176
     1
 62
     7
176
     1
 90
        5
176
     1
 90
        0
176
     1
 90
        0
176
     1
290
     0
176
     1
 90
        1
176
     1
 40
-50.0
176
     1
 90
        0
176
     1
290
     0
176
     1
290
     1
176
     1
290
     1
176
     1
290
     0
176
     1
290
     0
176
     1
290
     0
176
     1
290
     0
176
     1
290
     0
176
     1
290
     0
176
     1
 90
       50
176
     1
 40
0.0
176
     1
 40
1.0
176
     1
 90
        0
176
     1
 62
    18
420
        0
176
     1
 90
       50
176
     1
 90
        3
176
     1
 62
     5
420
      255
176
     1
290
     0
176
     1
 90
       50
176
     1
 90
       50
176
     1
 90
       50
176
     1
290
     0
176
     1
 90
       50
176
     1
 62
   256
176
     0
 40
1.0
176
     0
 90
        2
176
     1
  1
strokes_ogs.tif
176
     1
290
     0
176
     1
 40
1.0
176
     1
 40
1.0
176
     1
1001
ACAD
1000
AcDbSavedByObjectVersion
1070
     0
  0
VISUALSTYLE
  5
41
102
{ACAD_REACTORS
330
29
102
}
330
29
100
AcDbVisualStyle
  2
EdgeColorOff
 70
    22
177
     3
291
     1
 70
    58
 90
        2
176
     0
 90
        2
176
     0
 90
        0
176
     0
 90
        0
176
     0
 40
0.6
176
     0
 40
30.0
176
     0
 62
     7
420
 16777215
176
     0
 90
        1
176
     0
 90
        4
176
     0
 62
     7
176
     0
 62
   257
176
     0
 90
        1
176
     0
 90
        1
176
     0
 40
1.0
176
     0
 90
        8
176
     2
 62
     7
176
     0
 40
1.0
176
     0
 90
        1
176
     0
 90
        6
176
     0
 90
        2
176
     0
 62
     7
176
     0
 90
        5
176
     0
 90
        0
176
     0
 90
        0
176
     0
290
     0
176
     0
 90
        1
176
     0
 40
0.0
176
     0
 90
        0
176
     0
290
     0
176
     0
290
     1
176
     0
290
     1
176
     0
290
     0
176
     0
290
     0
176
     0
290
     0
176
     0
290
     0
176
     0
290
     0
176
     0
290
     0
176
     0
 90
       50
176
     0
 40
0.0
176
     0
 40
1.0
176
     0
 90
        0
176
     0
 62
    18
420
        0
176
     0
 90
       50
176
     0
 90
        3
176
     0
 62
     5
420
      255
176
     0
290
     0
176
     0
 90
       50
176
     0
 90
       50
176
     0
 90
       50
176
     0
290
     0
176
     0
 90
       50
176
     0
 62
   256
176
     0
 40
1.0
176
     0
 90
        2
176
     0
  1
strokes_ogs.tif
176
     0
290
     0
176
     0
 40
1.0
176
     0
 40
1.0
176
     0
1001
ACAD
1000
AcDbSavedByObjectVersion
1070
     0
  0
VISUALSTYLE
  5
38
102
{ACAD_REACTORS
330
29
102
}
330
29
100
AcDbVisualStyle
  2
Facepattern
 70
    15
177
     3
291
     1
 70
    58
 90
        2
176
     1
 90
        2
176
     1
 90
        0
176
     1
 90
        0
176
     1
 40
0.6
176
     1
 40
30.0
176
     1
 62
     7
420
 16777215
176
     1
 90
        1
176
     1
 90
        4
176
     1
 62
     7
176
     1
 62
   257
176
     1
 90
        1
176
     1
 90
        1
176
     1
 40
1.0
176
     1
 90
        8
176
     1
 62
     7
176
     1
 40
1.0
176
     1
 90
        1
176
     1
 90
        6
176
     1
 90
        2
176
     1
 62
     7
176
     1
 90
        5
176
     1
 90
        0
176
     1
 90
        0
176
     1
290
     0
176
     1
 90
        1
176
     1
 40
0.0
176
     1
 90
        0
176
     1
290
     0
176
     1
290
     1
176
     1
290
     1
176
     1
290
     0
176
     1
290
     0
176
     1
290
     0
176
     1
290
     0
176
     1
290
     0
176
     1
290
     0
176
     1
 90
       50
176
     1
 40
0.0
176
     1
 40
1.0
176
     1
 90
        0
176
     1
 62
    18
420
        0
176
     1
 90
       50
176
     1
 90
        3
176
     1
 62
     5
420
      255
176
     1
290
     0
176
     1
 90
       50
176
     1
 90
       50
176
     1
 90
       50
176
     1
290
     0
176
     1
 90
       50
176
     1
 62
   256
176
     0
 40
1.0
176
     0
 90
        2
176
     1
  1
strokes_ogs.tif
176
     1
290
     0
176
     1
 40
1.0
176
     1
 40
1.0
176
     1
1001
ACAD
1000
AcDbSavedByObjectVersion
1070
     0
  0
VISUALSTYLE
  5
2A
102
{ACAD_REACTORS
330
29
102
}
330
29
100
AcDbVisualStyle
  2
Flat
 70
     0
177
     3
291
     1
 70
    58
 90
        2
176
     1
 90
        1
176
     1
 90
        1
176
     1
 90
        2
176
     1
 40
0.6
176
     1
 40
30.0
176
     1
 62
     7
420
 16777215
176
     1
 90
        0
176
     1
 90
        0
176
     1
 62
     7
176
     1
 62
   257
176
     1
 90
        1
176
     1
 90
        1
176
     1
 40
1.0
176
     1
 90
        8
176
     1
 62
     7
176
     1
 40
1.0
176
     1
 90
        1
176
     1
 90
        6
176
     1
 90
        2
176
     1
 62
     7
176
     1
 90
        5
176
     1
 90
        0
176
     1
 90
        0
176
     1
290
     0
176
     1
 90
       13
176
     1
 40
0.0
176
     1
 90
        0
176
     1
290
     0
176
     1
290
     1
176
     1
290
     1
176
     1
290
     0
176
     1
290
     0
176
     1
290
     0
176
     1
290
     0
176
     1
290
     0
176
     1
290
     0
176
     1
 90
       50
176
     1
 40
0.0
176
     1
 40
1.0
176
     1
 90
        0
176
     1
 62
    18
420
        0
176
     1
 90
       50
176
     1
 90
        3
176
     1
 62
     5
420
      255
176
     1
290
     0
176
     1
 90
       50
176
     1
 90
       50
176
     1
 90
       50
176
     1
290
     0
176
     1
 90
       50
176
     1
 62
   256
176
     0
 40
1.0
176
     0
 90
        2
176
     1
  1
strokes_ogs.tif
176
     1
290
     0
176
     1
 40
1.0
176
     1
 40
1.0
176
     1
1001
ACAD
1000
AcDbSavedByObjectVersion
1070
     0
  0
VISUALSTYLE
  5
2B
102
{ACAD_REACTORS
330
29
102
}
330
29
100
AcDbVisualStyle
  2
FlatWithEdges
 70
     1
177
     3
291
     1
 70
    58
 90
        2
176
     1
 90
        1
176
     1
 90
        1
176
     1
 90
        2
176
     1
 40
0.6
176
     1
 40
30.0
176
     1
 62
     7
420
 16777215
176
     1
 90
        1
176
     1
 90
        0
176
     1
 62
     7
176
     1
 62
   257
176
     1
 90
        1
176
     1
 90
        1
176
     1
 40
1.0
176
     1
 90
        0
176
     1
 62
   257
176
     1
 40
1.0
176
     1
 90
        1
176
     1
 90
        6
176
     1
 90
        2
176
     1
 62
     7
176
     1
 90
        5
176
     1
 90
        0
176
     1
 90
        0
176
     1
290
     0
176
     1
 90
       13
176
     1
 40
0.0
176
     1
 90
        0
176
     1
290
     0
176
     1
290
     1
176
     1
290
     1
176
     1
290
     0
176
     1
290
     0
176
     1
290
     0
176
     1
290
     0
176
     1
290
     0
176
     1
290
     0
176
     1
 90
       50
176
     1
 40
0.0
176
     1
 40
1.0
176
     1
 90
        0
176
     1
 62
    18
420
        0
176
     1
 90
       50
176
     1
 90
        3
176
     1
 62
     5
420
      255
176
     1
290
     0
176
     1
 90
       50
176
     1
 90
       50
176
     1
 90
       50
176
     1
290
     0
176
     1
 90
       50
176
     1
 62
   256
176
     0
 40
1.0
176
     0
 90
        2
176
     1
  1
strokes_ogs.tif
176
     1
290
     0
176
     1
 40
1.0
176
     1
 40
1.0
176
     1
1001
ACAD
1000
AcDbSavedByObjectVersion
1070
     0
  0
VISUALSTYLE
  5
2C
102
{ACAD_REACTORS
330
29
102
}
330
29
100
AcDbVisualStyle
  2
Gouraud
 70
     2
177
     3
291
     1
 70
    58
 90
        2
176
     1
 90
        2
176
     1
 90
        1
176
     1
 90
        2
176
     1
 40
0.6
176
     1
 40
30.0
176
     1
 62
     7
420
 16777215
176
     1
 90
        0
176
     1
 90
        0
176
     1
 62
     7
176
     1
 62
   257
176
     1
 90
        1
176
     1
 90
        1
176
     1
 40
1.0
176
     1
 90
        0
176
     1
 62
     7
176
     1
 40
1.0
176
     1
 90
        1
176
     1
 90
        6
176
     1
 90
        2
176
     1
 62
     7
176
     1
 90
        5
176
     1
 90
        0
176
     1
 90
        0
176
     1
290
     0
176
     1
 90
       13
176
     1
 40
0.0
176
     1
 90
        0
176
     1
290
     0
176
     1
290
     1
176
     1
290
     1
176
     1
290
     0
176
     1
290
     0
176
     1
290
     0
176
     1
290
     0
176
     1
290
     0
176
     1
290
     0
176
     1
 90
       50
176
     1
 40
0.0
176
     1
 40
1.0
176
     1
 90
        0
176
     1
 62
    18
420
        0
176
     1
 90
       50
176
     1
 90
        3
176
     1
 62
     5
420
      255
176
     1
290
     0
176
     1
 90
       50
176
     1
 90
       50
176
     1
 90
       50
176
     1
290
     0
176
     1
 90
       50
176
     1
 62
   256
176
     0
 40
1.0
176
     0
 90
        2
176
     1
  1
strokes_ogs.tif
176
     1
290
     0
176
     1
 40
1.0
176
     1
 40
1.0
176
     1
1001
ACAD
1000
AcDbSavedByObjectVersion
1070
     0
  0
VISUALSTYLE
  5
2D
102
{ACAD_REACTORS
330
29
102
}
330
29
100
AcDbVisualStyle
  2
GouraudWithEdges
 70
     3
177
     3
291
     1
 70
    58
 90
        2
176
     1
 90
        2
176
     1
 90
        1
176
     1
 90
        2
176
     1
 40
0.6
176
     1
 40
30.0
176
     1
 62
     7
420
 16777215
176
     1
 90
        1
176
     1
 90
        0
176
     1
 62
     7
176
     1
 62
   257
176
     1
 90
        1
176
     1
 90
        1
176
     1
 40
1.0
176
     1
 90
        0
176
     1
 62
   257
176
     1
 40
1.0
176
     1
 90
        1
176
     1
 90
        6
176
     1
 90
        2
176
     1
 62
     7
176
     1
 90
        5
176
     1
 90
        0
176
     1
 90
        0
176
     1
290
     0
176
     1
 90
       13
176
     1
 40
0.0
176
     1
 90
        0
176
     1
290
     0
176
     1
290
     1
176
     1
290
     1
176
     1
290
     0
176
     1
290
     0
176
     1
290
     0
176
     1
290
     0
176
     1
290
     0
176
     1
290
     0
176
     1
 90
       50
176
     1
 40
0.0
176
     1
 40
1.0
176
     1
 90
        0
176
     1
 62
    18
420
        0
176
     1
 90
       50
176
     1
 90
        3
176
     1
 62
     5
420
      255
176
     1
290
     0
176
     1
 90
       50
176
     1
 90
       50
176
     1
 90
       50
176
     1
290
     0
176
     1
 90
       50
176
     1
 62
   256
176
     0
 40
1.0
176
     0
 90
        2
176
     1
  1
strokes_ogs.tif
176
     1
290
     0
176
     1
 40
1.0
176
     1
 40
1.0
176
     1
1001
ACAD
1000
AcDbSavedByObjectVersion
1070
     0
  0
VISUALSTYLE
  5
31
102
{ACAD_REACTORS
330
29
102
}
330
29
100
AcDbVisualStyle
  2
Hidden
 70
     6
177
     3
291
     0
 70
    58
 90
        1
176
     1
 90
        2
176
     1
 90
        2
176
     1
 90
        0
176
     1
 40
0.6
176
     1
 40
30.0
176
     1
 62
     7
420
 16777215
176
     1
 90
        2
176
     1
 90
        2
176
     1
 62
     7
176
     1
 62
   257
176
     1
 90
        2
176
     1
 90
        1
176
     1
 40
40.0
176
     1
 90
        0
176
     1
 62
   257
176
     1
 40
1.0
176
     1
 90
        1
176
     1
 90
        6
176
     1
 90
        2
176
     1
 62
     7
176
     1
 90
        3
176
     1
 90
        0
176
     1
 90
        0
176
     1
290
     0
176
     1
 90
        1
176
     1
 40
0.0
176
     1
 90
        0
176
     1
290
     0
176
     1
290
     1
176
     1
290
     1
176
     1
290
     0
176
     1
290
     0
176
     1
290
     0
176
     1
290
     0
176
     1
290
     0
176
     1
290
     0
176
     1
 90
       50
176
     1
 40
0.0
176
     1
 40
1.0
176
     1
 90
        0
176
     1
 62
    18
420
        0
176
     1
 90
       50
176
     1
 90
        3
176
     1
 62
     5
420
      255
176
     1
290
     0
176
     1
 90
       50
176
     1
 90
       50
176
     1
 90
       50
176
     1
290
     0
176
     1
 90
       50
176
     1
 62
   256
176
     0
 40
1.0
176
     0
 90
        2
176
     1
  1
strokes_ogs.tif
176
     1
290
     0
176
     1
 40
1.0
176
     1
 40
1.0
176
     1
1001
ACAD
1000
AcDbSavedByObjectVersion
1070
     0
  0
VISUALSTYLE
  5
3F
102
{ACAD_REACTORS
330
29
102
}
330
29
100
AcDbVisualStyle
  2
JitterOff
 70
    20
177
     3
291
     1
 70
    58
 90
        2
176
     0
 90
        2
176
     0
 90
        0
176
     0
 90
        0
176
     0
 40
0.6
176
     0
 40
30.0
176
     0
 62
     7
420
 16777215
176
     0
 90
        1
176
     0
 90
        4
176
     0
 62
     7
176
     0
 62
   257
176
     0
 90
        1
176
     0
 90
        1
176
     0
 40
1.0
176
     0
 90
       10
176
     2
 62
     7
176
     0
 40
1.0
176
     0
 90
        1
176
     0
 90
        6
176
     0
 90
        2
176
     0
 62
     7
176
     0
 90
        5
176
     0
 90
        0
176
     0
 90
        0
176
     0
290
     0
176
     0
 90
        1
176
     0
 40
0.0
176
     0
 90
        0
176
     0
290
     0
176
     0
290
     1
176
     0
290
     1
176
     0
290
     0
176
     0
290
     0
176
     0
290
     0
176
     0
290
     0
176
     0
290
     0
176
     0
290
     0
176
     0
 90
       50
176
     0
 40
0.0
176
     0
 40
1.0
176
     0
 90
        0
176
     0
 62
    18
420
        0
176
     0
 90
       50
176
     0
 90
        3
176
     0
 62
     5
420
      255
176
     0
290
     0
176
     0
 90
       50
176
     0
 90
       50
176
     0
 90
       50
176
     0
290
     0
176
     0
 90
       50
176
     0
 62
   256
176
     0
 40
1.0
176
     0
 90
        2
176
     0
  1
strokes_ogs.tif
176
     0
290
     0
176
     0
 40
1.0
176
     0
 40
1.0
176
     0
1001
ACAD
1000
AcDbSavedByObjectVersion
1070
     0
  0
VISUALSTYLE
  5
37
102
{ACAD_REACTORS
330
29
102
}
330
29
100
AcDbVisualStyle
  2
Linepattern
 70
    14
177
     3
291
     1
 70
    58
 90
        2
176
     1
 90
        2
176
     1
 90
        0
176
     1
 90
        0
176
     1
 40
0.6
176
     1
 40
30.0
176
     1
 62
     7
420
 16777215
176
     1
 90
        1
176
     1
 90
        4
176
     1
 62
     7
176
     1
 62
   257
176
     1
 90
        7
176
     1
 90
        7
176
     1
 40
1.0
176
     1
 90
        8
176
     1
 62
     7
176
     1
 40
1.0
176
     1
 90
        1
176
     1
 90
        6
176
     1
 90
        2
176
     1
 62
     7
176
     1
 90
        5
176
     1
 90
        0
176
     1
 90
        0
176
     1
290
     0
176
     1
 90
        1
176
     1
 40
0.0
176
     1
 90
        0
176
     1
290
     0
176
     1
290
     1
176
     1
290
     1
176
     1
290
     0
176
     1
290
     0
176
     1
290
     0
176
     1
290
     0
176
     1
290
     0
176
     1
290
     0
176
     1
 90
       50
176
     1
 40
0.0
176
     1
 40
1.0
176
     1
 90
        0
176
     1
 62
    18
420
        0
176
     1
 90
       50
176
     1
 90
        3
176
     1
 62
     5
420
      255
176
     1
290
     0
176
     1
 90
       50
176
     1
 90
       50
176
     1
 90
       50
176
     1
290
     0
176
     1
 90
       50
176
     1
 62
   256
176
     0
 40
1.0
176
     0
 90
        2
176
     1
  1
strokes_ogs.tif
176
     1
290
     0
176
     1
 40
1.0
176
     1
 40
1.0
176
     1
1001
ACAD
1000
AcDbSavedByObjectVersion
1070
     0
  0
VISUALSTYLE
  5
40
102
{ACAD_REACTORS
330
29
102
}
330
29
100
AcDbVisualStyle
  2
OverhangOff
 70
    21
177
     3
291
     1
 70
    58
 90
        2
176
     0
 90
        2
176
     0
 90
        0
176
     0
 90
        0
176
     0
 40
0.6
176
     0
 40
30.0
176
     0
 62
     7
420
 16777215
176
     0
 90
        1
176
     0
 90
        4
176
     0
 62
     7
176
     0
 62
   257
176
     0
 90
        1
176
     0
 90
        1
176
     0
 40
1.0
176
     0
 90
        9
176
     2
 62
     7
176
     0
 40
1.0
176
     0
 90
        1
176
     0
 90
        6
176
     0
 90
        2
176
     0
 62
     7
176
     0
 90
        5
176
     0
 90
        0
176
     0
 90
        0
176
     0
290
     0
176
     0
 90
        1
176
     0
 40
0.0
176
     0
 90
        0
176
     0
290
     0
176
     0
290
     1
176
     0
290
     1
176
     0
290
     0
176
     0
290
     0
176
     0
290
     0
176
     0
290
     0
176
     0
290
     0
176
     0
290
     0
176
     0
 90
       50
176
     0
 40
0.0
176
     0
 40
1.0
176
     0
 90
        0
176
     0
 62
    18
420
        0
176
     0
 90
       50
176
     0
 90
        3
176
     0
 62
     5
420
      255
176
     0
290
     0
176
     0
 90
       50
176
     0
 90
       50
176
     0
 90
       50
176
     0
290
     0
176
     0
 90
       50
176
     0
 62
   256
176
     0
 40
1.0
176
     0
 90
        2
176
     0
  1
strokes_ogs.tif
176
     0
290
     0
176
     0
 40
1.0
176
     0
 40
1.0
176
     0
1001
ACAD
1000
AcDbSavedByObjectVersion
1070
     0
  0
VISUALSTYLE
  5
33
102
{ACAD_REACTORS
330
29
102
}
330
29
100
AcDbVisualStyle
  2
Realistic
 70
     8
177
     3
291
     0
 70
    58
 90
        2
176
     1
 90
        3
176
     1
 90
        0
176
     1
 90
        2
176
     1
 40
0.6
176
     1
 40
30.0
176
     1
 62
     7
420
 16777215
176
     1
 90
        0
176
     1
 90
        0
176
     1
 62
     7
176
     1
 62
   257
176
     1
 90
        1
176
     1
 90
        1
176
     1
 40
1.0
176
     1
 90
        8
176
     1
 62
   257
176
     1
 40
1.0
176
     1
 90
        1
176
     1
 90
        6
176
     1
 90
        2
176
     1
 62
     7
176
     1
 90
        3
176
     1
 90
        0
176
     1
 90
        0
176
     1
290
     0
176
     1
 90
       13
176
     1
 40
0.0
176
     1
 90
        0
176
     1
290
     0
176
     1
290
     1
176
     1
290
     1
176
     1
290
     0
176
     1
290
     0
176
     1
290
     0
176
     1
290
     0
176
     1
290
     0
176
     1
290
     0
176
     1
 90
       50
176
     1
 40
0.0
176
     1
 40
1.0
176
     1
 90
        0
176
     1
 62
    18
420
        0
176
     1
 90
       50
176
     1
 90
        3
176
     1
 62
     5
420
      255
176
     1
290
     0
176
     1
 90
       50
176
     1
 90
       50
176
     1
 90
       50
176
     1
290
     0
176
     1
 90
       50
176
     1
 62
   256
176
     0
 40
1.0
176
     0
 90
        2
176
     1
  1
strokes_ogs.tif
176
     1
290
     0
176
     1
 40
1.0
176
     1
 40
1.0
176
     1
1001
ACAD
1000
AcDbSavedByObjectVersion
1070
     0
  0
VISUALSTYLE
  5
3E
102
{ACAD_REACTORS
330
29
102
}
330
29
100
AcDbVisualStyle
  2
Shaded
 70
    27
177
     3
291
     0
 70
    58
 90
        2
176
     1
 90
        2
176
     1
 90
        1
176
     1
 90
        2
176
     1
 40
0.6
176
     1
 40
30.0
176
     1
 62
     7
420
 16777215
176
     1
 90
        0
176
     1
 90
        4
176
     1
 62
     7
176
     1
 62
   257
176
     1
 90
        1
176
     1
 90
        1
176
     1
 40
1.0
176
     1
 90
        8
176
     1
 62
   257
176
     1
 40
1.0
176
     1
 90
        1
176
     1
 90
        6
176
     1
 90
        2
176
     1
 62
     8
420
  7895160
176
     1
 90
        3
176
     1
 90
        0
176
     1
 90
        0
176
     1
290
     0
176
     1
 90
        5
176
     1
 40
0.0
176
     1
 90
        0
176
     1
290
     0
176
     1
290
     1
176
     1
290
     1
176
     1
290
     0
176
     1
290
     0
176
     1
290
     0
176
     1
290
     0
176
     1
290
     0
176
     1
290
     0
176
     1
 90
       50
176
     1
 40
0.0
176
     1
 40
1.0
176
     1
 90
        0
176
     1
 62
    18
420
        0
176
     1
 90
       50
176
     1
 90
        3
176
     1
 62
     5
420
      255
176
     1
290
     0
176
     1
 90
       50
176
     1
 90
       50
176
     1
 90
       50
176
     1
290
     0
176
     1
 90
       50
176
     1
 62
   256
176
     0
 40
1.0
176
     0
 90
        2
176
     1
  1
strokes_ogs.tif
176
     1
290
     0
176
     1
 40
1.0
176
     1
 40
1.0
176
     1
1001
ACAD
1000
AcDbSavedByObjectVersion
1070
     0
  0
VISUALSTYLE
  5
3D
102
{ACAD_REACTORS
330
29
102
}
330
29
100
AcDbVisualStyle
  2
Shaded with edges
 70
    26
177
     3
291
     0
 70
    58
 90
        2
176
     1
 90
        2
176
     1
 90
        1
176
     1
 90
        2
176
     1
 40
0.6
176
     1
 40
30.0
176
     1
 62
     7
420
 16777215
176
     1
 90
        1
176
     1
 90
        2
176
     1
 62
     7
176
     1
 62
   257
176
     1
 90
        2
176
     1
 90
        1
176
     1
 40
1.0
176
     1
 90
        8
176
     1
 62
   257
176
     1
 40
1.0
176
     1
 90
        1
176
     1
 90
        6
176
     1
 90
        2
176
     1
 62
     7
176
     1
 90
        3
176
     1
 90
        0
176
     1
 90
        0
176
     1
290
     0
176
     1
 90
        5
176
     1
 40
0.0
176
     1
 90
        0
176
     1
290
     0
176
     1
290
     1
176
     1
290
     1
176
     1
290
     0
176
     1
290
     0
176
     1
290
     0
176
     1
290
     0
176
     1
290
     0
176
     1
290
     0
176
     1
 90
       50
176
     1
 40
0.0
176
     1
 40
1.0
176
     1
 90
        0
176
     1
 62
    18
420
        0
176
     1
 90
       50
176
     1
 90
        3
176
     1
 62
     5
420
      255
176
     1
290
     0
176
     1
 90
       50
176
     1
 90
       50
176
     1
 90
       50
176
     1
290
     0
176
     1
 90
       50
176
     1
 62
   256
176
     0
 40
1.0
176
     0
 90
        2
176
     1
  1
strokes_ogs.tif
176
     1
290
     0
176
     1
 40
1.0
176
     1
 40
1.0
176
     1
1001
ACAD
1000
AcDbSavedByObjectVersion
1070
     0
  0
VISUALSTYLE
  5
3A
102
{ACAD_REACTORS
330
29
102
}
330
29
100
AcDbVisualStyle
  2
Shades of Gray
 70
    23
177
     3
291
     0
 70
    58
 90
        2
176
     1
 90
        2
176
     1
 90
        3
176
     1
 90
        0
176
     1
 40
0.6
176
     1
 40
30.0
176
     1
 62
     7
420
 16777215
176
     1
 90
        2
176
     1
 90
        2
176
     1
 62
     7
176
     1
 62
     7
176
     1
 90
        1
176
     1
 90
        1
176
     1
 40
40.0
176
     1
 90
        8
176
     1
 62
     7
176
     1
 40
1.0
176
     1
 90
        1
176
     1
 90
        6
176
     1
 90
        2
176
     1
 62
     7
176
     1
 90
        3
176
     1
 90
        0
176
     1
 90
        0
176
     1
290
     0
176
     1
 90
        1
176
     1
 40
0.0
176
     1
 90
        0
176
     1
290
     0
176
     1
290
     1
176
     1
290
     1
176
     1
290
     0
176
     1
290
     0
176
     1
290
     0
176
     1
290
     0
176
     1
290
     0
176
     1
290
     0
176
     1
 90
       50
176
     1
 40
0.0
176
     1
 40
1.0
176
     1
 90
        0
176
     1
 62
    18
420
        0
176
     1
 90
       50
176
     1
 90
        3
176
     1
 62
     5
420
      255
176
     1
290
     0
176
     1
 90
       50
176
     1
 90
       50
176
     1
 90
       50
176
     1
290
     0
176
     1
 90
       50
176
     1
 62
   256
176
     0
 40
1.0
176
     0
 90
        2
176
     1
  1
strokes_ogs.tif
176
     1
290
     0
176
     1
 40
1.0
176
     1
 40
1.0
176
     1
1001
ACAD
1000
AcDbSavedByObjectVersion
1070
     0
  0
VISUALSTYLE
  5
3B
102
{ACAD_REACTORS
330
29
102
}
330
29
100
AcDbVisualStyle
  2
Sketchy
 70
    24
177
     3
291
     0
 70
    58
 90
        1
176
     1
 90
        2
176
     1
 90
        2
176
     1
 90
        0
176
     1
 40
0.6
176
     1
 40
30.0
176
     1
 62
     7
420
 16777215
176
     1
 90
        2
176
     1
 90
        2
176
     1
 62
     7
176
     1
 62
     7
176
     1
 90
        1
176
     1
 90
        1
176
     1
 40
40.0
176
     1
 90
       11
176
     1
 62
     7
176
     1
 40
1.0
176
     1
 90
        1
176
     1
 90
        6
176
     1
 90
        2
176
     1
 62
     7
176
     1
 90
        6
176
     1
 90
        0
176
     1
 90
        0
176
     1
290
     0
176
     1
 90
        1
176
     1
 40
0.0
176
     1
 90
        0
176
     1
290
     0
176
     1
290
     1
176
     1
290
     1
176
     1
290
     0
176
     1
290
     0
176
     1
290
     0
176
     1
290
     0
176
     1
290
     0
176
     1
290
     0
176
     1
 90
       50
176
     1
 40
0.0
176
     1
 40
1.0
176
     1
 90
        0
176
     1
 62
    18
420
        0
176
     1
 90
       50
176
     1
 90
        3
176
     1
 62
     5
420
      255
176
     1
290
     0
176
     1
 90
       50
176
     1
 90
       50
176
     1
 90
       50
176
     1
290
     0
176
     1
 90
       50
176
     1
 62
   256
176
     0
 40
1.0
176
     0
 90
        2
176
     1
  1
strokes_ogs.tif
176
     1
290
     0
176
     1
 40
1.0
176
     1
 40
1.0
176
     1
1001
ACAD
1000
AcDbSavedByObjectVersion
1070
     0
  0
VISUALSTYLE
  5
36
102
{ACAD_REACTORS
330
29
102
}
330
29
100
AcDbVisualStyle
  2
Thicken
 70
    13
177
     3
291
     1
 70
    58
 90
        2
176
     1
 90
        2
176
     1
 90
        0
176
     1
 90
        0
176
     1
 40
0.6
176
     1
 40
30.0
176
     1
 62
     7
420
 16777215
176
     1
 90
        1
176
     1
 90
        4
176
     1
 62
     7
176
     1
 62
   257
176
     1
 90
        1
176
     1
 90
        1
176
     1
 40
1.0
176
     1
 90
       12
176
     1
 62
     7
176
     1
 40
1.0
176
     1
 90
        1
176
     1
 90
        6
176
     1
 90
        2
176
     1
 62
     7
176
     1
 90
        5
176
     1
 90
        0
176
     1
 90
        0
176
     1
290
     0
176
     1
 90
        1
176
     1
 40
0.0
176
     1
 90
        0
176
     1
290
     0
176
     1
290
     1
176
     1
290
     1
176
     1
290
     0
176
     1
290
     0
176
     1
290
     0
176
     1
290
     0
176
     1
290
     0
176
     1
290
     0
176
     1
 90
       50
176
     1
 40
0.0
176
     1
 40
1.0
176
     1
 90
        0
176
     1
 62
    18
420
        0
176
     1
 90
       50
176
     1
 90
        3
176
     1
 62
     5
420
      255
176
     1
290
     0
176
     1
 90
       50
176
     1
 90
       50
176
     1
 90
       50
176
     1
290
     0
176
     1
 90
       50
176
     1
 62
   256
176
     0
 40
1.0
176
     0
 90
        2
176
     1
  1
strokes_ogs.tif
176
     1
290
     0
176
     1
 40
1.0
176
     1
 40
1.0
176
     1
1001
ACAD
1000
AcDbSavedByObjectVersion
1070
     0
  0
VISUALSTYLE
  5
30
102
{ACAD_REACTORS
330
29
102
}
330
29
100
AcDbVisualStyle
  2
Wireframe
 70
     5
177
     3
291
     0
 70
    58
 90
        0
176
     1
 90
        2
176
     1
 90
        0
176
     1
 90
        0
176
     1
 40
0.6
176
     1
 40
30.0
176
     1
 62
     7
420
 16777215
176
     1
 90
        1
176
     1
 90
        4
176
     1
 62
     7
176
     1
 62
   257
176
     1
 90
        1
176
     1
 90
        1
176
     1
 40
1.0
176
     1
 90
        0
176
     1
 62
   257
176
     1
 40
1.0
176
     1
 90
        1
176
     1
 90
        6
176
     1
 90
        2
176
     1
 62
     7
176
     1
 90
        3
176
     1
 90
        0
176
     1
 90
        0
176
     1
290
     0
176
     1
 90
        1
176
     1
 40
0.0
176
     1
 90
        0
176
     1
290
     0
176
     1
290
     1
176
     1
290
     1
176
     1
290
     0
176
     1
290
     0
176
     1
290
     0
176
     1
290
     0
176
     1
290
     0
176
     1
290
     0
176
     1
 90
       50
176
     1
 40
0.0
176
     1
 40
1.0
176
     1
 90
        0
176
     1
 62
    18
420
        0
176
     1
 90
       50
176
     1
 90
        3
176
     1
 62
     5
420
      255
176
     1
290
     0
176
     1
 90
       50
176
     1
 90
       50
176
     1
 90
       50
176
     1
290
     0
176
     1
 90
       50
176
     1
 62
   256
176
     0
 40
1.0
176
     0
 90
        2
176
     1
  1
strokes_ogs.tif
176
     1
290
     0
176
     1
 40
1.0
176
     1
 40
1.0
176
     1
1001
ACAD
1000
AcDbSavedByObjectVersion
1070
     0
  0
VISUALSTYLE
  5
3C
102
{ACAD_REACTORS
330
29
102
}
330
29
100
AcDbVisualStyle
  2
X-Ray
 70
    25
177
     3
291
     0
 70
    58
 90
        2
176
     1
 90
        2
176
     1
 90
        1
176
     1
 90
        1
176
     1
 40
0.5
176
     1
 40
30.0
176
     1
 62
     7
420
 16777215
176
     1
 90
        1
176
     1
 90
        0
176
     1
 62
     7
176
     1
 62
   257
176
     1
 90
        1
176
     1
 90
        1
176
     1
 40
1.0
176
     1
 90
        8
176
     1
 62
     7
176
     1
 40
1.0
176
     1
 90
        1
176
     1
 90
        6
176
     1
 90
        2
176
     1
 62
     7
176
     1
 90
        3
176
     1
 90
        0
176
     1
 90
        0
176
     1
290
     0
176
     1
 90
       13
176
     1
 40
0.0
176
     1
 90
        0
176
     1
290
     0
176
     1
290
     1
176
     1
290
     1
176
     1
290
     0
176
     1
290
     0
176
     1
290
     0
176
     1
290
     0
176
     1
290
     0
176
     1
290
     0
176
     1
 90
       50
176
     1
 40
0.0
176
     1
 40
1.0
176
     1
 90
        0
176
     1
 62
    18
420
        0
176
     1
 90
       50
176
     1
 90
        3
176
     1
 62
     5
420
      255
176
     1
290
     0
176
     1
 90
       50
176
     1
 90
       50
176
     1
 90
       50
176
     1
290
     0
176
     1
 90
       50
176
     1
 62
   256
176
     0
 40
1.0
176
     0
 90
        2
176
     1
  1
strokes_ogs.tif
176
     1
290
     0
176
     1
 40
1.0
176
     1
 40
1.0
176
     1
1001
ACAD
1000
AcDbSavedByObjectVersion
1070
     0
  0
DICTIONARYVAR
  5
235
102
{ACAD_REACTORS
330
230
102
}
330
230
100
DictionaryVariables
280
     0
  1
1:1
  0
DICTIONARYVAR
  5
232
102
{ACAD_REACTORS
330
230
102
}
330
230
100
DictionaryVariables
280
     0
  1
STANDARD
  0
DICTIONARYVAR
  5
231
102
{ACAD_REACTORS
330
230
102
}
330
230
100
DictionaryVariables
280
     0
  1
STANDARD
  0
DICTIONARYVAR
  5
233
102
{ACAD_REACTORS
330
230
102
}
330
230
100
DictionaryVariables
280
     0
  1
Imperial24
  0
DICTIONARYVAR
  5
234
102
{ACAD_REACTORS
330
230
102
}
330
230
100
DictionaryVariables
280
     0
  1
Imperial24
  0
DICTIONARY
  5
23B
330
6B
100
AcDbDictionary
280
     1
281
     1
  3
ACAD_XREC_ROUNDTRIP
360
23C
  0
DICTIONARY
  5
1A
330
19
100
AcDbDictionary
280
     1
281
     1
  3
BUMPTILE
360
1C
  3
DIFFUSETILE
360
1B
  3
OPACITYTILE
360
1F
  3
REFLECTIONTILE
360
1E
  3
REFRACTIONTILE
360
20
  3
SPECULARTILE
360
1D
  0
DICTIONARY
  5
12
330
11
100
AcDbDictionary
280
     1
281
     1
  3
BUMPTILE
360
14
  3
DIFFUSETILE
360
13
  3
OPACITYTILE
360
17
  3
REFLECTIONTILE
360
16
  3
REFRACTIONTILE
360
18
  3
SPECULARTILE
360
15
  0
DICTIONARY
  5
22
330
21
100
AcDbDictionary
280
     1
281
     1
  3
BUMPTILE
360
24
  3
DIFFUSETILE
360
23
  3
OPACITYTILE
360
27
  3
REFLECTIONTILE
360
26
  3
REFRACTIONTILE
360
28
  3
SPECULARTILE
360
25
  0
DICTIONARY
  5
239
330
69
100
AcDbDictionary
280
     1
281
     1
  3
ACAD_XREC_ROUNDTRIP
360
23A
  0
DICTIONARY
  5
236
330
65
100
AcDbDictionary
280
     1
281
     1
  3
ACAD_ROUNDTRIP_2008_TABLESTYLE_CELLSTYLEMAP
360
237
  0
XRECORD
  5
23C
102
{ACAD_REACTORS
330
23B
102
}
330
23B
100
AcDbXrecord
280
     1
102
DISPLAYNAME
  1
Imperial24
102
FLAGS
 90
        0
  0
XRECORD
  5
1C
102
{ACAD_REACTORS
330
1A
102
}
330
1A
100
AcDbXrecord
280
     1
270
     1
271
     1
  0
XRECORD
  5
1B
102
{ACAD_REACTORS
330
1A
102
}
330
1A
100
AcDbXrecord
280
     1
270
     1
271
     1
  0
XRECORD
  5
1F
102
{ACAD_REACTORS
330
1A
102
}
330
1A
100
AcDbXrecord
280
     1
270
     1
271
     1
  0
XRECORD
  5
1E
102
{ACAD_REACTORS
330
1A
102
}
330
1A
100
AcDbXrecord
280
     1
270
     1
271
     1
  0
XRECORD
  5
20
102
{ACAD_REACTORS
330
1A
102
}
330
1A
100
AcDbXrecord
280
     1
270
     1
271
     1
  0
XRECORD
  5
1D
102
{ACAD_REACTORS
330
1A
102
}
330
1A
100
AcDbXrecord
280
     1
270
     1
271
     1
  0
XRECORD
  5
14
102
{ACAD_REACTORS
330
12
102
}
330
12
100
AcDbXrecord
280
     1
270
     1
271
     1
  0
XRECORD
  5
13
102
{ACAD_REACTORS
330
12
102
}
330
12
100
AcDbXrecord
280
     1
270
     1
271
     1
  0
XRECORD
  5
17
102
{ACAD_REACTORS
330
12
102
}
330
12
100
AcDbXrecord
280
     1
270
     1
271
     1
  0
XRECORD
  5
16
102
{ACAD_REACTORS
330
12
102
}
330
12
100
AcDbXrecord
280
     1
270
     1
271
     1
  0
XRECORD
  5
18
102
{ACAD_REACTORS
330
12
102
}
330
12
100
AcDbXrecord
280
     1
270
     1
271
     1
  0
XRECORD
  5
15
102
{ACAD_REACTORS
330
12
102
}
330
12
100
AcDbXrecord
280
     1
270
     1
271
     1
  0
XRECORD
  5
24
102
{ACAD_REACTORS
330
22
102
}
330
22
100
AcDbXrecord
280
     1
270
     1
271
     1
  0
XRECORD
  5
23
102
{ACAD_REACTORS
330
22
102
}
330
22
100
AcDbXrecord
280
     1
270
     1
271
     1
  0
XRECORD
  5
27
102
{ACAD_REACTORS
330
22
102
}
330
22
100
AcDbXrecord
280
     1
270
     1
271
     1
  0
XRECORD
  5
26
102
{ACAD_REACTORS
330
22
102
}
330
22
100
AcDbXrecord
280
     1
270
     1
271
     1
  0
XRECORD
  5
28
102
{ACAD_REACTORS
330
22
102
}
330
22
100
AcDbXrecord
280
     1
270
     1
271
     1
  0
XRECORD
  5
25
102
{ACAD_REACTORS
330
22
102
}
330
22
100
AcDbXrecord
280
     1
270
     1
271
     1
  0
XRECORD
  5
23A
102
{ACAD_REACTORS
330
239
102
}
330
239
100
AcDbXrecord
280
     1
102
DISPLAYNAME
  1
Imperial24
102
FLAGS
 90
        0
  0
CELLSTYLEMAP
  5
237
102
{ACAD_REACTORS
330
236
102
}
330
236
100
AcDbCellStyleMap
 90
        3
300
CELLSTYLE
  1
TABLEFORMAT_BEGIN
 90
        5
170
     1
 91
        0
 92
    32768
 62
   257
 93
        1
300
CONTENTFORMAT
  1
CONTENTFORMAT_BEGIN
 90
        0
 91
        0
 92
      512
 93
        0
300

 40
0.0
140
1.0
 94
        5
 62
     0
340
55
144
0.25
309
CONTENTFORMAT_END
171
     0
 94
        0
309
TABLEFORMAT_END
  1
CELLSTYLE_BEGIN
 90
        1
 91
        1
300
_TITLE
309
CELLSTYLE_END
300
CELLSTYLE
  1
TABLEFORMAT_BEGIN
 90
        5
170
     1
 91
        0
 92
        0
 62
   257
 93
        1
300
CONTENTFORMAT
  1
CONTENTFORMAT_BEGIN
 90
        0
 91
        0
 92
      512
 93
        0
300

 40
0.0
140
1.0
 94
        5
 62
     0
340
55
144
0.18
309
CONTENTFORMAT_END
171
     0
 94
        0
309
TABLEFORMAT_END
  1
CELLSTYLE_BEGIN
 90
        2
 91
        1
300
_HEADER
309
CELLSTYLE_END
300
CELLSTYLE
  1
TABLEFORMAT_BEGIN
 90
        5
170
     1
 91
        0
 92
        0
 62
   257
 93
        1
300
CONTENTFORMAT
  1
CONTENTFORMAT_BEGIN
 90
        0
 91
        0
 92
      512
 93
        0
300

 40
0.0
140
1.0
 94
        2
 62
     0
340
55
144
0.18
309
CONTENTFORMAT_END
171
     0
 94
        0
309
TABLEFORMAT_END
  1
CELLSTYLE_BEGIN
 90
        3
 91
        2
300
_DATA
309
CELLSTYLE_END
  0
ENDSEC
  0
EOF
